<svg width="240" height="240" viewBox="0 0 240 240" fill="none" xmlns="http://www.w3.org/2000/svg">
<g clip-path="url(#clip0_727_6049)">
<path fill-rule="evenodd" clip-rule="evenodd" d="M109.469 103.035C108.914 103.375 108.621 103.791 108.528 104.285L108.534 104.301H108.544C108.543 104.306 108.542 104.311 108.541 104.316L108.559 104.362H108.544C108.544 104.362 108.54 104.362 108.533 104.363C108.472 104.748 108.524 105.177 108.729 105.689C110.272 109.439 110.086 112.756 106.723 115.718C105.381 116.906 104.563 118.897 103.946 120.686C101.23 128.493 99.8107 136.563 99.3941 144.817C99.3324 146.005 99.5638 146.839 100.721 147.533C119.992 159.074 138.46 171.772 155.679 186.229C171.695 199.668 189.947 208.817 209.882 214.788C213.079 215.75 216.27 216.751 219.464 217.753C221.139 218.278 222.815 218.804 224.493 219.324C231.174 221.392 235 226.499 237.963 232.362L238.024 232.455C239.043 234.476 238.117 236.528 235.694 237.438C233.025 238.441 230.186 239.367 227.363 239.536C213.43 240.4 199.529 240.292 185.828 237.145C181.396 236.124 177.592 233.829 173.786 231.533C172.531 230.776 171.276 230.019 169.997 229.307C158.04 222.657 149.029 212.752 140.189 202.646C138.352 200.547 136.551 198.416 134.749 196.285C131.145 192.023 127.542 187.762 123.664 183.76C117.261 177.141 109.423 172.451 100.736 169.334C95.5538 167.468 95.5214 167.591 94.1494 172.786L94.1482 172.79C90.8309 185.411 85.4925 196.999 76.667 206.796C65.589 219.093 51.4405 225.619 35.4406 228.566C25.4271 230.402 15.3211 231.081 5.15331 229.955C4.13499 229.832 3.0241 229.677 2.1755 229.168C1.57262 228.813 1.09744 228.24 0.62417 227.669C0.419163 227.422 0.214515 227.175 0 226.946C0.246219 226.754 0.483008 226.536 0.719397 226.317C1.22366 225.851 1.7261 225.387 2.31436 225.187C3.7254 224.701 5.17326 224.331 6.61924 223.961C7.46588 223.745 8.31187 223.529 9.14944 223.29C19.2092 220.389 28.9295 216.701 38.0018 211.409C51.6565 203.448 60.806 191.598 67.0856 177.404C69.0434 172.989 70.5761 168.372 72.1028 163.773C72.3687 162.972 72.6345 162.172 72.9024 161.373C73.1955 160.478 72.9178 158.935 72.2852 158.241C70.7577 156.559 68.9988 155.031 67.1319 153.751C64.5244 151.977 63.1049 152.007 61.1608 154.476C58.3836 158.009 55.8841 161.789 53.616 165.662C52.1059 168.233 50.9088 170.986 49.7143 173.732C49.432 174.381 49.1499 175.03 48.8639 175.676C45.8243 182.495 39.591 183.961 34.0365 178.931C28.0038 173.485 24.3934 166.619 24.1002 158.518C23.9473 154.214 24.3951 149.882 24.8422 145.557C24.9816 144.209 25.1209 142.861 25.242 141.516C25.35 140.482 25.9363 139.371 26.5997 138.538C28.05 136.717 30.5187 137.257 31.2593 139.433C31.4908 140.127 31.7082 140.827 31.9255 141.526C32.3887 143.016 32.8516 144.505 33.4502 145.944C35.1011 149.894 37.7086 150.68 41.4579 148.551C42.752 147.816 44.0373 147.063 45.3223 146.31C48.1893 144.63 51.0554 142.95 54.0172 141.469C58.5567 139.195 63.1429 137.001 67.7295 134.806C71.4831 133.009 75.2371 131.213 78.966 129.373C80.0306 128.848 81.2495 127.784 81.5581 126.719C83.209 121.057 84.6593 115.332 85.9708 109.577C86.1405 108.821 85.369 107.433 84.6439 106.97C83.5988 106.303 82.4511 105.954 81.2928 105.89C81.0389 105.905 80.7828 105.921 80.5245 105.936H80.3393H80.2776C79.4444 106.013 78.6267 106.214 77.8244 106.553C74.8466 107.834 71.9305 109.284 69.107 110.889C63.8457 113.897 58.2449 115.456 52.1813 115.518C45.3462 115.579 41.3192 112.154 40.8872 105.674C40.5786 101.168 41.7204 96.91 44.405 93.3305C45.6548 91.6642 47.6297 90.1984 49.5892 89.4424C56.918 86.6034 63.3828 82.3759 69.6315 77.7317C69.6699 77.7024 69.7085 77.6731 69.7474 77.6435C70.3032 77.2211 70.9025 76.7656 71.2053 76.1888C71.6373 75.3556 72.0385 74.3219 71.9305 73.4424C71.8996 73.0567 70.5573 72.6864 69.7704 72.5784C68.3265 72.3788 66.8736 72.2217 65.4203 72.0645C63.0535 71.8085 60.6854 71.5524 58.3529 71.1126C53.6625 70.2177 49.8978 67.5794 46.92 63.9227C45.9479 62.7346 45.161 61.3306 44.6673 59.8957C43.8033 57.427 44.6056 55.8687 47.136 55.159C56.6094 52.4897 66.0829 49.8359 75.5872 47.3364C79.6863 46.2591 83.8037 45.2597 87.9195 44.2608C91.3483 43.4286 94.7759 42.5968 98.1908 41.7203C102.465 40.6094 106.152 41.674 109.238 44.6209C111.381 46.6632 113.394 48.836 115.407 51.0088C116.161 51.8236 116.916 52.6384 117.678 53.4463C118.214 54.0034 118.718 54.5937 119.354 55.3394C119.687 55.7297 120.056 56.1626 120.486 56.6556C120.893 55.7332 121.305 54.8686 121.701 54.0379C122.549 52.2561 123.324 50.6303 123.818 48.9256C125.871 41.8283 127.737 34.6692 129.543 27.5101C130.252 24.7174 129.141 23.4214 126.117 23.1591C119.575 22.5882 113.45 24.3471 107.633 27.0163C102.526 29.3461 97.4193 31.8148 92.7597 34.916C86.3258 39.2053 79.6142 39.4985 72.5631 37.6161C63.8302 35.2709 57.3346 29.6239 51.7338 22.8196C51.1784 22.1408 50.7772 21.2922 50.5458 20.459C49.9595 18.4224 51.2092 17.0029 53.107 17.8206C59.2786 20.4899 65.2497 18.9778 71.1127 17.1109C79.6944 14.3892 88.2427 11.5675 96.791 8.74586C102.49 6.86475 108.189 4.98364 113.898 3.13215C117.045 2.11383 120.285 1.29609 123.525 0.570923C128.74 -0.601687 133.847 0.0926216 138.754 2.0984C148.135 5.92481 156.466 11.3867 163.101 19.0858C165.045 21.3693 166.341 24.3317 167.436 27.1861C168.671 30.4107 167.452 33.2188 164.813 35.4715C157.978 41.3037 152.177 47.9536 148.952 56.5167C147.209 61.1455 145.465 65.7896 143.923 70.4955C142.318 75.4019 140.065 79.9226 136.763 83.9188C134.989 86.0634 135.082 87.0663 137.041 89.0258C138.692 90.6767 138.677 92.5282 136.455 93.5156C133.199 94.966 129.697 95.9843 126.225 96.8946C124.887 97.2441 123.506 97.4584 122.127 97.6722C120.28 97.9587 118.437 98.2445 116.706 98.8541C114.814 99.5184 113.095 100.659 111.381 101.797C110.746 102.218 110.112 102.639 109.469 103.035ZM118.989 61.1609C102.634 64.1541 90.3837 73.4887 79.1976 84.7519C81.3576 84.6902 83.4406 84.4588 85.5081 84.1193C95.2438 82.5456 104.686 79.9843 113.481 75.3865C113.539 75.3563 113.598 75.326 113.658 75.2953C114.451 74.8864 115.348 74.4245 115.764 73.7356C118.048 70.0017 118.912 65.8667 118.989 61.1609ZM78.1482 142.75C78.8734 140.358 79.5523 137.936 80.1386 135.498H80.154C80.2855 134.932 80.2579 134.325 80.2232 133.566C80.205 133.168 80.1849 132.727 80.1849 132.227C75.4455 134.67 73.6265 138.748 71.8265 142.782C71.3528 143.844 70.8805 144.903 70.3566 145.928C74.4607 147.564 77.0065 146.468 78.1482 142.75Z" fill="#337C76" fill-opacity="0.6"/>
<path d="M140.763 120.555C133.03 130.912 122.951 137.564 109.735 138.968C108.461 139.107 107.25 139.91 106.023 140.419C106.862 141.453 107.529 142.734 108.585 143.475C113.881 147.225 119.969 147.951 126.258 147.889C129.442 147.673 132.672 147.627 135.825 147.179C143.295 146.16 150.454 144.339 155.936 138.644C156.325 138.243 156.977 138.088 157.474 137.795C161.682 135.31 166.062 133.057 170.053 130.263C173.19 128.072 173.78 125.602 172.041 122.268C166.885 112.406 159.679 104.982 147.628 104.442C144.32 104.288 140.965 104.828 137.642 105.183C137.067 105.245 136.322 105.955 136.151 106.51C136.042 106.881 136.695 107.714 137.207 108.007C138.232 108.578 139.366 108.995 140.499 109.335C143.015 110.076 143.947 111.048 143.388 113.61C142.86 116.018 142.192 118.641 140.748 120.555H140.763Z" fill="#337C76" fill-opacity="0.6"/>
</g>
<defs>
<clipPath id="clip0_727_6049">
<rect width="240" height="240" fill="white"/>
</clipPath>
</defs>
</svg>
