<svg width="240" height="240" viewBox="0 0 240 240" fill="none" xmlns="http://www.w3.org/2000/svg">
<g clip-path="url(#clip0_727_5980)">
<path fill-rule="evenodd" clip-rule="evenodd" d="M115.609 38.4351L115.606 38.4309L115.604 38.428C114.69 37.2712 113.777 36.1143 112.862 34.9581H112.847L112.357 34.3361C111.245 32.9259 110.137 31.521 109.062 30.0834C106.51 26.6568 107.285 23.4166 111.27 21.8251C112.674 21.2637 114.183 20.9476 115.62 20.6465C116.238 20.517 116.843 20.3903 117.421 20.248C118.111 20.3899 118.775 20.4975 119.415 20.601C120.714 20.8115 121.912 21.0057 123.027 21.438C133.608 25.5242 140.576 33.1086 143.945 43.8902C145.006 47.2738 143.83 50.2703 141.12 52.6072C140.755 52.9251 140.4 53.2588 140.043 53.5935L140.043 53.5937C139.644 53.9685 139.243 54.3445 138.826 54.7005C135.83 57.2955 132.805 57.4962 129.665 55.0589C128.102 53.8402 126.711 52.3348 125.45 50.7864C122.135 46.6994 118.873 42.5686 115.609 38.4351ZM80.6737 75.8193C85.2903 79.2459 90.251 81.9987 95.9142 83.3321C105.448 85.583 114.882 84.6941 124.216 82.3141C125.379 82.0184 126.538 81.7076 127.697 81.397C133.056 79.961 138.405 78.5275 144.016 78.5864C147.945 78.6279 151.881 78.7668 155.815 78.9056L155.816 78.9057L155.818 78.9057L155.819 78.9058C157.324 78.9589 158.828 79.012 160.331 79.0596C163.686 79.2459 166.97 78.8158 169.722 76.7083C173.278 73.9698 175.486 70.4715 174.626 65.7833C173.823 61.4678 170.497 59.5752 166.64 58.8154C163.228 58.1415 159.701 57.7114 156.231 57.7687C144.89 57.9551 133.779 60.0914 122.854 62.9302C112.316 65.6542 101.735 66.9302 90.8818 65.8549C88.3298 65.5969 85.7061 65.5682 83.154 65.8119C80.5303 66.07 78.8242 67.8335 78.1217 70.3568C77.4335 72.8085 78.8959 74.486 80.6737 75.805V75.8193ZM236.921 193.328C232.749 189.012 227.545 186.646 221.925 185.112C206.369 180.883 191.73 174.617 178.985 164.682C172.379 159.526 166.024 154.048 159.665 148.568L159.662 148.565C156.527 145.863 153.391 143.16 150.224 140.495C149.206 139.649 148.059 138.903 146.869 138.33C144.977 137.412 144.417 136.38 144.948 134.301C145.067 133.847 145.136 133.381 145.205 132.916V132.916V132.916C145.268 132.485 145.332 132.055 145.435 131.634C145.715 130.437 145.99 129.237 146.265 128.036L146.265 128.035L146.265 128.035L146.265 128.035C147.102 124.377 147.941 120.712 148.934 117.096C149.622 114.573 151.5 113.813 154.009 114.688C154.828 114.977 155.602 115.376 156.378 115.776C156.757 115.972 157.136 116.167 157.522 116.351C163.902 119.376 169.938 119.204 175.472 114.415C180.175 110.344 180.576 104.222 176.16 99.8487C174.167 97.8702 171.787 96.1353 169.336 94.759C161.321 90.2714 152.647 87.6477 143.557 86.5294C139.873 86.0706 136.045 86.0276 132.36 86.4577C129.091 86.8305 127.987 88.723 127.586 92.6227C127.348 94.9869 129.035 95.9042 130.755 96.8397L130.883 96.9096C134.898 99.0888 135.715 101.268 134.181 105.426C134.114 105.608 134.07 105.799 134.027 105.988L134.027 105.988C133.968 106.245 133.909 106.499 133.794 106.731C133.586 107.171 133.378 107.611 133.171 108.051C131.918 110.71 130.663 113.373 129.335 115.992C128.892 116.869 128.375 117.708 127.858 118.547L127.858 118.548C127.47 119.177 127.082 119.806 126.725 120.451C126.051 121.684 125.091 122.33 123.7 122C122.997 121.827 122.326 121.531 121.657 121.236C121.44 121.14 121.223 121.044 121.005 120.953C119.656 120.388 118.314 119.805 116.972 119.221C113.921 117.894 110.87 116.567 107.743 115.462C104.847 114.43 104.531 114.215 105.592 111.318C105.755 110.871 105.919 110.424 106.084 109.977C107.039 107.382 107.998 104.778 108.56 102.1C109.492 97.6551 108.961 93.3109 106.309 89.4112C104.632 86.9452 102.682 86.4864 100.416 88.3789C99.1641 89.4245 98.1143 90.7371 97.0752 92.0363L97.0751 92.0363L97.0751 92.0364L97.075 92.0364C96.8176 92.3584 96.5607 92.6795 96.3017 92.9955C94.8064 94.8238 93.329 96.6639 91.8518 98.5038C90.0854 100.704 88.3194 102.903 86.5237 105.082C85.7647 106.005 84.9526 106.888 84.1409 107.77L84.1408 107.77C82.9746 109.038 81.8091 110.305 80.8031 111.691C77.3191 116.466 75.6704 121.67 77.6202 127.62C78.0438 128.929 78.1571 130.342 78.2688 131.735V131.735C78.2819 131.898 78.2949 132.06 78.3084 132.222C78.7242 137.312 83.3551 140.337 88.0434 138.359C89.7495 137.642 91.3983 136.595 92.789 135.376C94.1051 134.209 95.3257 132.942 96.5472 131.673L96.5473 131.673L96.5477 131.673C97.4418 130.744 98.3364 129.815 99.2695 128.925C99.8573 128.365 100.861 127.72 101.549 127.849C107.513 128.91 112.847 131.276 116.689 136.179C118.338 138.287 118.309 140.409 116.962 142.502C116.301 143.522 115.648 144.548 114.996 145.575C114.19 146.842 113.384 148.11 112.56 149.37C108.746 155.205 104.632 160.782 98.8537 164.882C91.9575 169.771 84.5308 169.642 77.7923 164.553C76.2138 163.359 75.1347 161.915 74.5927 160.196C74.5786 160.102 74.5648 160.011 74.5514 159.922L74.5086 159.95C74.2935 158.574 74.1645 157.757 74.1645 157.757C74.1932 158.531 74.3222 159.262 74.5086 159.95L74.5083 159.951C74.3076 159.262 74.1929 158.545 74.1643 157.757C74.1028 156.231 74.0048 154.705 73.9068 153.179C73.8676 152.569 73.8284 151.959 73.7915 151.348C72.6445 131.979 71.2538 112.623 67.8702 93.483C67.0386 88.7661 66.1927 84.0204 64.7733 79.4612C63.8414 76.479 63.9848 73.97 65.6909 71.5613C66.7376 70.0989 68.0136 68.7656 69.3326 67.5326C74.5083 62.6722 79.6267 57.7689 82.6949 51.2311C86.523 43.0732 83.5552 36.0766 75.0675 33.0228C70.9097 31.5174 68.4437 32.8938 67.5118 37.2093C67.4138 37.656 67.333 38.1134 67.252 38.5716C67.0368 39.7898 66.8205 41.0134 66.2788 42.0553C63.44 47.4461 59.4686 52.0053 55.11 56.2061C52.5437 58.6721 49.8483 58.5718 46.9952 56.4786C41.676 52.5932 35.8694 49.5823 29.6901 47.3457C27.5825 46.5858 25.2885 46.2131 23.0519 46.0267C20.3995 45.7973 18.7364 47.4604 17.5751 49.6684C16.6862 51.3458 16.3708 53.2527 17.7041 54.6004C20.0411 56.966 22.5931 59.1596 25.2742 61.1238C26.4838 62.0081 27.7947 62.7457 29.1051 63.4831C30.4507 64.2403 31.7959 64.9973 33.0307 65.9125C35.7834 67.9627 35.9268 70.6868 33.8192 73.3965C33.2314 74.1564 32.5145 74.8446 31.7977 75.4897C30.7416 76.4154 29.6721 77.3275 28.6019 78.2402C27.2022 79.4339 25.8015 80.6286 24.4283 81.8555C24.1401 82.113 23.8518 82.3703 23.5635 82.6277C17.1249 88.3761 10.6793 94.1306 5.24507 100.91C0.413413 106.946 -1.49344 113.383 1.28799 121.011C4.29881 129.297 9.3742 131.505 16.6719 126.573C21.2024 123.52 25.3316 119.749 29.1453 115.806C31.3574 113.52 33.2543 110.955 35.1535 108.387C38.0303 104.497 40.9121 100.6 44.9019 97.6552C46.307 96.6085 47.1242 96.5082 48.0848 98.0566C49.9056 100.996 50.4934 104.15 49.0167 107.318C47.2962 111.017 45.5328 114.716 43.3392 118.143C37.7263 126.886 30.9702 134.742 24.2074 142.605C23.473 143.459 22.7384 144.313 22.0053 145.169C17.0733 150.932 12.2703 156.811 7.82577 162.947C6.12954 165.297 5.28273 168.361 4.48777 171.238C4.46297 171.327 4.43823 171.417 4.41351 171.506C3.84002 173.585 4.92965 175.363 6.87951 176.567C7.69674 177.069 8.39926 177.872 8.98709 178.661C9.90468 179.894 10.9943 180.553 12.4854 180.023C13.6009 179.618 14.6486 179.038 15.6812 178.465L15.7686 178.417C16.3307 178.107 16.8762 177.765 17.4221 177.421C18.1154 176.986 18.8094 176.549 19.5393 176.18C21.1738 175.363 22.8656 176.596 23.4964 179.062C23.9027 180.655 24.2792 182.255 24.6554 183.853C25.2881 186.541 25.9204 189.227 26.6936 191.88C28.8729 199.392 31.64 206.661 36.8157 212.726C41.5613 218.289 47.4253 220.798 54.8233 219.35C63.1676 217.715 68.4437 212.54 71.8129 205.07C74.3506 199.45 75.512 193.485 76.1285 187.392C76.1858 186.847 76.2575 186.417 76.3865 186.087C76.3871 186.075 76.3878 186.063 76.3884 186.051C76.7419 185.166 77.4323 185.116 78.8676 185.729C80.1036 186.257 81.2794 186.956 82.4454 187.649L82.4457 187.649L82.4461 187.649C82.6729 187.784 82.8993 187.918 83.1257 188.051C96.359 195.851 109.435 194.733 120.646 184.209C124.531 180.554 127.824 176.25 131.093 171.976C131.491 171.456 131.889 170.935 132.288 170.417C133.51 168.832 134.44 167.028 135.371 165.224C135.872 164.253 136.373 163.282 136.919 162.345C136.962 162.271 137.006 162.193 137.051 162.114C137.512 161.298 138.08 160.291 139.256 161.284C139.327 161.343 139.399 161.403 139.471 161.463L139.564 161.541C140.709 162.494 141.903 163.489 142.64 164.725C144.642 168.094 146.574 171.502 148.506 174.911L148.507 174.913C150.061 177.655 151.615 180.397 153.206 183.119C165.522 204.181 183.702 215.278 208.362 215.679C209.888 215.489 211.415 215.301 212.942 215.113L212.945 215.113C217.525 214.548 222.105 213.984 226.685 213.371C230.885 212.812 234.126 210.446 236.936 207.478C240.305 203.923 241.681 198.303 236.936 193.371L236.921 193.328ZM46.8231 182.03C49.3321 169.829 51.0813 157.528 51.7264 145.068V145.054C51.7483 144.74 51.7794 144.426 51.8105 144.112C51.8816 143.394 51.9527 142.675 51.9128 141.957C51.8555 140.939 51.6834 139.907 51.368 138.946C51.2312 138.536 50.9346 138.179 50.6371 137.821C50.498 137.653 50.3587 137.486 50.2354 137.312C50.0865 137.456 49.9242 137.594 49.7617 137.732C49.392 138.046 49.0207 138.362 48.8016 138.76C42.3069 150.746 35.0952 162.273 26.7366 173.055C25.862 174.173 25.6757 175.392 26.7366 176.582C30.3066 180.567 34.0773 184.123 39.3964 185.872C43.927 187.363 45.8768 186.618 46.8231 182.03Z" fill="#337C76" fill-opacity="0.6"/>
</g>
<defs>
<clipPath id="clip0_727_5980">
<rect width="240" height="240" fill="white"/>
</clipPath>
</defs>
</svg>
