<svg width="240" height="240" viewBox="0 0 240 240" fill="none" xmlns="http://www.w3.org/2000/svg">
<g clip-path="url(#clip0_727_6114)">
<path fill-rule="evenodd" clip-rule="evenodd" d="M114.271 94.8251C110.577 99.0774 106.889 103.324 104.367 108.516H104.352C104.541 108.527 104.686 108.54 104.801 108.55C104.994 108.567 105.107 108.577 105.215 108.559L77.1885 114.021C77.0202 113.197 76.8453 112.38 76.6715 111.568C76.2663 109.675 75.8661 107.805 75.5644 105.915C75.1045 102.94 75.8231 102.049 78.7838 101.718C81.9458 101.359 84.4753 99.9934 86.3725 97.4063C89.8794 92.6347 92.7108 87.5325 94.2917 82.2578C92.9258 81.1924 91.5598 80.1665 90.2085 79.1515C87.1663 76.8666 84.1983 74.6375 81.4715 72.1395C79.0672 69.939 76.9518 67.4135 74.8386 64.8907C73.9705 63.8544 73.1028 62.8185 72.2156 61.8057L72.1978 61.7859C71.8284 61.3739 71.4092 60.9064 71.3101 60.3972C71.1667 59.7004 71.1328 58.9816 71.0991 58.2669C71.0856 57.9793 71.0721 57.6923 71.0514 57.4077C71.3501 57.4077 71.663 57.3764 71.9753 57.3451C72.6551 57.277 73.3322 57.2092 73.8541 57.4652C79.2869 60.0954 84.6909 59.6355 90.0375 57.4365C94.2056 55.7209 98.3183 53.8854 102.435 52.0482C103.457 51.5921 104.479 51.1359 105.502 50.6814C105.919 50.4946 106.365 50.1065 106.551 49.7041C110.173 41.6699 112.933 33.3913 112.818 24.4517C112.803 22.7701 112.171 21.0023 111.452 19.45C110.418 17.2367 108.52 16.1444 105.977 16.245C104.669 16.2881 103.346 16.245 102.038 16.1588C100.299 16.0438 99.3221 15.0233 98.934 13.3849C97.8848 8.91503 99.897 4.37332 104.022 2.30369C110.245 -0.81514 116.641 -0.58518 122.95 1.90126C128.671 4.15774 133.256 7.98081 137.093 12.7525C141.132 17.7828 140.902 23.3594 139.278 29.1371C138.937 30.3529 138.6 31.577 138.252 32.8432C137.954 33.927 137.648 35.0417 137.323 36.2084C138.01 35.8822 138.666 35.5665 139.303 35.2601C140.49 34.689 141.61 34.1502 142.741 33.6357C152.543 29.1658 160.994 31.5229 168.741 40.5488C170.207 42.2448 170.796 44.2426 170.466 46.499C170.279 47.7926 170.135 49.1005 170.006 50.4084C169.575 54.9644 167.146 57.7527 162.935 59.6499C159.046 61.3999 155.295 63.4415 151.543 65.484C150.026 66.3098 148.508 67.1358 146.981 67.9428C146.578 68.1576 146.198 68.4282 145.739 68.7545C145.461 68.9521 145.154 69.1702 144.797 69.4088C150.661 72.1683 155.662 75.6608 159.14 80.9786C162.63 86.3212 163.924 92.3097 164.342 98.7144L164.343 98.7143C166.471 98.5705 168.497 98.4412 170.538 98.3262C184.177 97.5788 197.817 97.5357 211.456 98.3837C218.154 98.8005 222.293 102.825 224.995 108.516H224.952C226.231 111.218 224.895 113.532 221.934 114.15C220.597 114.423 219.16 114.61 217.838 114.409C206.57 112.742 195.259 112.799 183.919 113.403C183.271 113.442 182.616 113.394 181.96 113.346C181.655 113.324 181.35 113.302 181.044 113.288C181.023 113.195 181.001 113.098 180.98 113.001C180.958 112.904 180.936 112.806 180.915 112.713C181.382 112.464 181.85 112.213 182.357 111.94C183.049 111.568 183.814 111.156 184.752 110.658C174.993 109.824 165.853 110.342 156.669 112.009C157.022 112.844 157.377 113.661 157.727 114.467C158.474 116.184 159.199 117.852 159.845 119.554C161.426 123.737 161.857 128.034 161.009 132.461C159.686 139.333 159.929 146.267 160.172 153.202C160.214 154.404 160.256 155.606 160.29 156.808C160.413 161.263 160.577 165.72 160.741 170.178C161.055 178.735 161.369 187.296 161.397 195.858C161.44 208.98 158.566 221.671 154.369 234.074C153.866 235.54 153.104 236.949 152.271 238.257C151.035 240.211 150.072 240.427 148.031 239.378C147.37 239.047 146.723 238.63 146.119 238.199C143.594 236.388 141.065 234.583 138.536 232.778C132.052 228.15 125.567 223.521 119.156 218.796C115.384 216.015 111.732 213.064 108.081 210.113C106.863 209.13 105.646 208.146 104.425 207.169C104.006 206.838 103.673 206.394 103.336 205.946C103.176 205.733 103.015 205.519 102.844 205.315C102.894 205.229 102.948 205.142 103.002 205.056C103.056 204.97 103.11 204.884 103.16 204.798C103.41 204.847 103.665 204.883 103.92 204.92C104.487 205.001 105.054 205.082 105.56 205.301C111.726 207.962 118.302 208.379 124.841 208.792C125.222 208.816 125.603 208.84 125.983 208.865C130.453 209.152 134.966 209.037 139.465 208.894C142.267 208.807 144.078 207.083 144.38 204.338C144.543 202.845 144.721 201.351 144.899 199.857C145.522 194.633 146.145 189.403 146.134 184.173C146.106 169.667 145.629 155.16 145.152 140.654C145.124 139.825 145.097 138.996 145.07 138.167C144.996 135.706 144.546 133.269 144.096 130.833C143.93 129.938 143.765 129.044 143.618 128.149C143.158 125.404 141.563 123.349 139.479 121.638C139.154 121.373 138.715 121.235 138.272 121.096C138.068 121.032 137.863 120.968 137.668 120.891C137.611 121.097 137.539 121.304 137.467 121.51C137.304 121.979 137.141 122.448 137.151 122.918C137.203 124.515 137.289 126.112 137.375 127.71C137.476 129.607 137.578 131.506 137.625 133.409C137.757 138.314 136.599 143 135.442 147.68C135.084 149.131 134.725 150.581 134.406 152.036C133.342 156.908 132.106 161.766 130.539 166.509C128.326 173.192 123.856 177.95 117.288 180.752C110.749 183.541 104.065 185.74 97.0084 186.645C95.9592 186.774 95.5712 187.234 95.3125 188.212C93.8034 193.788 90.2246 194.722 86.0566 190.626C81.9892 186.602 79.5459 181.615 77.8643 176.254C74.458 165.446 72.5177 154.379 73.0639 142.996C73.1789 140.639 73.5813 138.239 74.2999 136.011C74.6872 134.795 75.782 133.766 76.7768 132.831C76.8526 132.76 76.9277 132.689 77.0019 132.619C77.3325 132.317 78.3961 132.446 78.8704 132.763C79.2009 132.993 79.2584 133.898 79.1578 134.444C78.2667 139.043 80.1783 144.936 83.6133 148.127C85.2302 146.929 86.8435 145.727 88.4559 144.526C92.3759 141.606 96.291 138.69 100.242 135.838C104.568 132.72 109.383 130.722 114.672 129.859C120.752 128.868 125.983 130.176 130.008 135.105C130.429 135.623 130.889 136.102 131.349 136.581C131.579 136.82 131.809 137.06 132.034 137.304C134.535 134.804 132.782 124.412 130.654 115.731C129.224 116.038 127.791 116.338 126.359 116.637C123.834 117.165 121.31 117.692 118.797 118.261C101.536 122.185 84.3463 126.381 67.5736 132.116C64.5195 133.159 61.498 134.302 58.476 135.446C54.5437 136.934 50.6107 138.422 46.6042 139.69C39.9928 141.789 33.1515 142.68 26.2527 140.897C20.3313 139.374 15.0422 132.978 14.5823 126.899C14.4529 125.16 14.956 124.685 16.6232 125.045C17.2843 125.188 17.9598 125.433 18.5491 125.763C23.1339 128.379 27.8337 128.25 32.6916 126.669C34.1109 126.206 35.5298 125.742 36.9487 125.277C44.9133 122.671 52.88 120.065 60.9192 117.686C64.3653 116.67 67.8943 115.965 71.4247 115.259C72.9888 114.946 74.5532 114.634 76.1109 114.294C76.3565 114.245 76.5954 114.182 76.8505 114.116C76.9686 114.085 77.0902 114.053 77.2175 114.021L105.244 108.559L106.98 108.231C113.705 106.961 120.439 105.688 127.162 104.391C127.478 104.334 127.794 104.09 128.053 103.86L128.072 103.857C128.521 103.459 128.957 103.05 129.391 102.641C130.035 102.036 130.676 101.433 131.358 100.87C132.025 100.317 132.72 99.7971 133.415 99.2771C134.219 98.6766 135.022 98.0755 135.785 97.4207C137.107 96.2853 137.107 94.9055 136.001 93.612C132.835 89.8728 128.793 87.2901 124.757 84.711C124.14 84.3162 123.522 83.9214 122.907 83.5225C120.485 87.6712 117.376 91.2502 114.271 94.8251ZM98.7044 165.46C104.64 163.232 108.435 158.576 111.97 153.66L111.941 153.675C112.359 153.088 112.57 152.349 112.78 151.617C112.873 151.291 112.966 150.966 113.077 150.656C112.718 150.633 112.353 150.578 111.987 150.523C111.21 150.405 110.437 150.288 109.742 150.484C104.252 152.007 99.3368 154.724 94.9244 158.303C93.7028 159.294 92.6392 160.674 91.9637 162.097C90.8139 164.54 92.1362 166.452 95.3987 166.452C95.5747 166.4 95.7926 166.342 96.041 166.275C96.7666 166.079 97.7514 165.813 98.7044 165.46Z" fill="#337C76" fill-opacity="0.6"/>
</g>
<defs>
<clipPath id="clip0_727_6114">
<rect width="240" height="240" fill="white"/>
</clipPath>
</defs>
</svg>
