<svg width="240" height="240" viewBox="0 0 240 240" fill="none" xmlns="http://www.w3.org/2000/svg">
<g clip-path="url(#clip0_727_6017)">
<path fill-rule="evenodd" clip-rule="evenodd" d="M119.669 140.877C125.117 128.865 127.739 116.006 128.493 102.817L128.524 102.77C128.572 102 128.54 101.121 128.242 100.43L128.251 100.432C125.999 95.2569 127.585 90.9434 131.162 87.053C135.276 82.6096 140.347 79.4536 145.592 76.5802C147.481 75.5555 149.41 74.6166 151.34 73.6777C152.811 72.9622 154.282 72.2467 155.735 71.493C156.441 71.1319 157.305 70.5195 157.54 69.8286C161.23 58.7906 164.842 47.7368 168.437 36.6831C168.673 35.9294 168.861 35.0815 168.735 34.3278C168.626 33.637 168.154 32.585 167.683 32.4908C166.993 32.3495 165.846 32.6949 165.438 33.2287C164.669 34.2493 164.104 35.5054 163.774 36.7459C163.054 39.3941 162.369 42.0531 161.685 44.7126C160.937 47.6192 160.188 50.5264 159.393 53.4207C158.985 54.8909 158.431 56.3243 157.875 57.7612C157.618 58.4268 157.36 59.0931 157.116 59.7641C156.904 59.7327 156.692 59.6973 156.48 59.662C156.269 59.6267 156.057 59.5914 155.845 59.5599C155.771 59.057 155.664 58.5509 155.558 58.0451C155.325 56.9405 155.093 55.8373 155.201 54.771C155.31 53.6806 155.416 52.589 155.522 51.497C156.069 45.8589 156.616 40.211 157.682 34.6733C158.859 28.5654 160.351 22.3948 162.722 16.6795C165.893 9.01723 175.424 7.29008 181.752 12.6914C186.101 16.4126 188.441 21.28 189.147 26.8854C190.042 33.9981 188.676 40.7654 185.724 47.2815C184.4 50.2068 183.207 53.1829 181.992 56.2148C181.42 57.6418 180.843 59.0812 180.245 60.5334C181.391 60.4549 182.496 60.3607 183.573 60.2687C185.727 60.085 187.771 59.9106 189.822 59.8897C200.798 59.7955 210.658 63.4853 219.733 69.3733C221.508 70.5038 222.905 72.3566 224.177 74.0837C225.401 75.7427 226.508 77.4825 227.614 79.221C228.266 80.2466 228.918 81.2719 229.594 82.2798L229.641 82.2641C232.169 86.0639 232.781 90.2404 231.933 94.5897C231.698 95.783 230.693 97.2903 229.657 97.7457C227.631 98.6407 226.454 100.069 225.904 101.985C225.699 102.701 225.492 103.417 225.286 104.133C223.804 109.275 222.32 114.426 221.162 119.649C216.452 141.034 210.972 162.2 202.823 182.596C198.709 192.896 192.256 201.642 185.395 210.168C184.482 211.302 183.59 212.457 182.699 213.613C181.183 215.577 179.668 217.541 178.046 219.4C173.634 224.44 170.792 224.11 167.762 218.081C166.353 215.305 165.312 212.332 164.278 209.378C164.183 209.107 164.089 208.836 163.994 208.566C160.824 199.596 157.673 190.615 154.521 181.633C152.52 175.929 150.518 170.225 148.512 164.524C148.428 164.281 148.317 164.05 148.171 163.749C148.071 163.541 147.955 163.301 147.821 163.001C147.638 163.431 147.457 163.855 147.279 164.274C146.311 166.547 145.407 168.667 144.493 170.788C137.003 188.186 127.943 204.672 115.539 219.102C109.447 226.167 102.994 232.903 95.2059 238.179C94.4472 238.699 93.5912 239.085 92.7361 239.47C92.3525 239.643 91.969 239.815 91.5946 240C91.4062 239.78 91.2335 239.576 91.0608 239.356C91.1568 239.143 91.2366 238.919 91.316 238.695C91.4703 238.261 91.6235 237.83 91.8929 237.488C99.4202 227.79 104.541 216.768 109.654 205.763C110.791 203.316 111.927 200.869 113.09 198.439C127.959 167.366 138.071 134.565 147.758 101.624C147.826 101.387 147.877 101.135 147.947 100.79C147.975 100.655 148.006 100.505 148.041 100.336C147.285 100.444 146.542 100.554 145.807 100.662C143.98 100.931 142.207 101.191 140.426 101.404C138.699 101.608 136.956 101.812 135.213 101.797L135.129 101.78C133.741 101.786 133.389 102.429 133.188 103.696C132.923 105.424 132.659 107.151 132.395 108.879C130.37 122.111 128.348 135.331 126.154 148.539C125.447 152.826 124.521 157.175 122.919 161.179C118.915 171.228 110.798 175.86 100.403 176.959C87.3869 178.34 75.234 182.329 64.1017 189.174C61.6285 190.702 59.3284 192.513 57.0269 194.326C55.6609 195.402 54.2944 196.479 52.8909 197.496C45.2758 203.039 36.5301 203.918 27.5018 203.557C25.1309 203.463 23.5451 202.254 22.7757 200.024C20.7188 194.042 20.1222 188.185 23.4823 182.344C24.2308 181.034 24.5612 179.472 24.8887 177.922C25.0008 177.392 25.1127 176.863 25.2408 176.346C25.401 175.692 25.4993 175.022 25.5976 174.353C25.7209 173.514 25.844 172.675 26.0887 171.871C26.9052 169.202 27.8787 168.731 30.595 168.967C31.5842 169.045 32.6519 168.904 33.594 168.621C40.8951 166.392 47.788 163.314 53.519 158.148C56.4709 155.479 59.3756 152.7 61.9663 149.685C63.1282 148.335 63.7249 146.341 64.1331 144.551C64.5414 142.73 63.3481 141.725 61.5267 142.259C60.6538 142.52 59.8322 142.953 59.0087 143.388C58.5434 143.634 58.0775 143.88 57.6014 144.096C57.1135 144.322 56.6282 144.571 56.1418 144.821C54.9375 145.439 53.7263 146.061 52.4513 146.341C44.6163 148.021 38.7754 144.268 36.797 136.292C35.6351 131.645 35.6822 126.918 36.64 122.208C37.1425 119.711 38.4771 117.89 40.9893 117.246C42.93 116.747 44.8876 116.316 46.8452 115.884C48.1504 115.596 49.4555 115.309 50.7556 115.001C50.7892 114.993 50.8229 114.986 50.8568 114.978C51.5193 114.828 52.2276 114.668 52.7653 114.295C54.799 112.859 56.8336 111.426 58.8683 109.992C68.2542 103.379 77.6406 96.7662 86.9315 90.0045C89.4908 88.1517 91.6733 85.6866 93.6988 83.2372C96.0226 80.411 96.1011 78.307 93.793 75.5435C91.195 72.4459 88.4243 69.4818 85.5864 66.4457C84.4109 65.1881 83.2238 63.9182 82.0327 62.6213C81.7362 62.9809 81.4878 63.2695 81.2734 63.5188C80.9541 63.8898 80.71 64.1735 80.494 64.4741C69.4245 79.5003 57.9311 94.1811 44.7576 107.433C37.2524 114.97 29.543 122.318 20.5775 128.143C19.1173 129.085 17.5472 129.902 15.9299 130.53C13.0252 131.66 11.455 131.095 10.5444 128.08C9.93965 126.101 9.54345 124.063 9.14674 122.023C8.8636 120.567 8.5802 119.109 8.22055 117.67C6.28003 109.924 10.2042 103.846 14.0545 97.8833L14.0929 97.8238C14.925 96.552 17.1232 95.7826 18.8033 95.5157C23.2939 94.8091 26.968 92.7836 29.7314 89.2979C40.0786 76.2501 50.3944 63.1395 60.616 49.9817C61.7779 48.4587 62.5316 46.5431 63.1439 44.706C63.8034 42.7277 62.9869 41.2831 61.04 41.2046C53.5504 40.922 47.945 36.6669 42.4338 32.3962C38.0217 28.9576 33.7824 25.2677 29.7785 21.3581C26.1201 17.7782 27.0465 14.9048 32.118 13.79C36.0748 12.9108 40.1414 12.1414 44.1924 12.0158C54.7594 11.7018 64.4001 8.40447 73.8994 4.10229C78.0131 2.23383 82.5665 1.08763 87.0414 0.318259C92.5212 -0.623824 97.6712 0.44387 101.926 4.62043C103.456 6.11935 105.214 7.38308 106.973 8.64761C107.941 9.34351 108.909 10.0397 109.84 10.7754C110.147 11.0174 110.456 11.2575 110.767 11.4978C112.187 12.5979 113.613 13.7031 114.786 15.0304C117.424 17.998 117.738 21.468 115.037 24.31C113.258 26.1812 111.156 27.736 109.053 29.2918C107.945 30.1119 106.835 30.9323 105.773 31.7995C104.831 32.5689 103.999 33.5424 103.198 34.4844C102.294 35.5511 101.42 36.6457 100.546 37.74C98.8849 39.8191 97.2251 41.8971 95.3632 43.7797C93.0079 46.1663 91.3436 48.6628 90.9197 52.0229C90.7155 53.5616 91.1866 54.0169 92.6939 54.2211C98.6133 55.0061 104.517 55.8226 110.389 56.8589C116.058 57.8481 120.846 60.5016 124.018 65.479C124.513 66.2569 125.015 67.0318 125.516 67.8068C127.546 70.9421 129.576 74.0789 131.162 77.4277C133.203 81.7299 131.822 83.9752 127.064 84.4619C120.58 85.1214 114.849 87.6022 109.384 90.8838C105.651 93.1237 101.954 95.4215 98.2592 97.7183C96.5148 98.8025 94.7709 99.8865 93.0236 100.964C92.9455 101.012 92.8629 101.058 92.7791 101.106C92.4757 101.278 92.1562 101.459 91.9716 101.718C91.5408 102.341 91.1672 102.998 90.7918 103.657C90.6474 103.911 90.5027 104.165 90.3544 104.418C90.6326 104.55 90.9108 104.719 91.1885 104.888C91.7728 105.242 92.3547 105.596 92.9294 105.596C96.8234 105.549 99.7438 107.37 102.35 109.977C103.16 110.786 103.992 111.579 104.824 112.372C106.525 113.993 108.227 115.616 109.746 117.388C112.964 121.156 112.383 123.778 108.238 126.542C107.902 126.767 107.564 126.991 107.225 127.216C104.897 128.764 102.55 130.324 100.466 132.147C98.8803 133.544 97.6712 135.429 96.6036 137.281C94.2673 141.348 92.0084 145.461 89.7508 149.571C88.7918 151.317 87.833 153.063 86.8687 154.804C86.773 154.984 86.6652 155.162 86.5568 155.341C86.363 155.662 86.1675 155.985 86.0365 156.327C85.0788 158.777 85.8324 159.923 88.4702 160.033C102.994 160.676 113.106 155.338 119.669 140.877ZM182.156 170.863C186.669 156.695 191.188 142.511 195.349 128.238H195.334C198.788 116.368 201.551 104.293 202.101 90.8057C202.073 90.496 202.049 90.1191 202.022 89.6933C201.943 88.4347 201.837 86.7485 201.52 85.1061C200.923 81.9501 199.918 81.6361 196.919 82.8922C189.336 86.0482 181.736 89.1727 174.105 92.1874C172.724 92.7369 172.08 93.4749 171.64 94.8409C169.488 101.51 167.323 108.177 165.157 114.844C162.046 124.423 158.934 134.003 155.86 143.594C155.524 144.653 154.998 145.678 154.473 146.703C153.356 148.883 152.24 151.059 152.956 153.548C153.67 156.043 154.851 158.407 156.032 160.77C156.486 161.678 156.94 162.587 157.368 163.503C157.815 164.471 158.383 165.385 158.947 166.295C158.997 166.375 159.046 166.454 159.095 166.533C162.408 171.903 166.757 176.253 172.19 179.44C175.032 181.104 176.712 180.775 178.549 178.105C179.852 176.221 181.108 174.149 181.799 171.982L182.156 170.863Z" fill="#337C76" fill-opacity="0.6"/>
</g>
<defs>
<clipPath id="clip0_727_6017">
<rect width="240" height="240" fill="white"/>
</clipPath>
</defs>
</svg>
