<svg width="240" height="240" viewBox="0 0 240 240" fill="none" xmlns="http://www.w3.org/2000/svg">
<path d="M197.217 45.3403C199.925 47.0978 199.426 49.2584 196.475 50.6128C195.475 51.0642 194.427 51.4189 193.508 51.9833C192.073 52.8701 191.96 54.0148 193.492 54.8533C195.056 55.7239 196.733 56.4173 198.41 57.0461C207.649 60.5933 216.71 60.8351 225.481 55.4982C230.302 52.5637 232.076 47.9846 230.592 42.6477C228.754 36.0209 217.661 25.1052 208.003 25.734C199.264 25.9114 191.864 28.8136 184.721 32.4898C183.189 33.2799 182.077 34.86 180.771 36.0854C182.27 37.0528 183.721 38.1331 185.301 38.9715C189.268 41.116 193.46 42.8896 197.233 45.3403H197.217Z" fill="#337C76" fill-opacity="0.6"/>
<path d="M119.711 93.1628C114.971 96.2263 110.021 98.9673 105.361 102.144C94.7357 109.367 84.0458 116.526 73.775 124.217C69.2927 127.571 65.7616 132.198 61.7952 136.245C61.9242 136.374 61.7629 136.293 61.7307 136.164C59.7475 128.554 56.8291 121.46 51.1213 115.784C50.7827 115.446 50.8311 114.349 51.1052 113.801C52.8304 110.367 54.6202 106.981 56.4744 103.611C64.778 88.487 73.0333 73.3469 85.9645 61.3993C89.2859 58.3358 90.6887 54.0953 90.7693 49.484C90.9305 40.4225 86.948 33.4248 79.4344 28.878C73.0333 25.0083 66.0841 22.0416 59.3121 18.8168C56.9903 17.7204 54.4912 16.9626 52.0081 16.2371C49.638 15.5438 48.5254 16.6402 49.0736 19.0748C49.3316 20.2196 49.7186 21.3321 50.1862 22.4124C52.4112 27.6365 52.5563 32.8121 50.4603 38.1652C41.5117 61.0768 29.0965 82.0859 15.3753 102.369C12.9084 106.029 9.29668 107.932 4.87881 108.255C2.36353 108.432 0.718921 109.77 0.380325 112.253C0.0900999 114.333 -0.167878 116.51 0.186842 118.541C1.23488 124.636 2.4119 130.715 3.87915 136.713C4.60471 139.728 5.86235 142.662 7.24898 145.452C8.68399 148.338 10.248 148.87 13.247 147.709C15.4237 146.854 17.5359 145.758 19.4868 144.484C23.292 142.001 26.8714 139.18 30.6927 136.729C35.5459 133.617 37.0616 134.391 37.126 140.131C37.1905 146 37.1905 151.917 36.5456 157.738C35.4976 167.138 33.8691 176.49 32.5631 185.857C32.1761 188.631 31.7085 191.469 31.8214 194.242C32.16 202.384 35.288 209.688 39.6897 216.347C42.9144 221.217 46.4939 225.973 50.5731 230.117C55.1361 234.744 59.554 233.261 61.3115 226.957C62.0048 224.49 62.4885 221.845 62.4079 219.314C62.166 211.413 61.1986 203.513 61.2631 195.612C61.3437 184.729 61.7468 173.813 62.7142 162.978C63.3753 155.69 64.8748 148.418 66.7129 141.324C68.9218 132.795 74.7102 126.926 82.643 123.217C86.1741 121.573 89.689 121.444 93.2201 123.475C95.0421 124.523 97.0414 125.281 98.9924 126.071C101.878 127.248 104.797 128.328 107.812 129.505C113.342 116.171 118.196 101.805 121.565 91.1474C121.13 91.9374 120.437 92.6791 119.727 93.1467L119.711 93.1628Z" fill="#337C76" fill-opacity="0.6"/>
<path d="M126.434 74.9102C125.467 78.2155 124.499 81.5208 123.516 84.8423C125.37 78.7476 126.434 74.9102 126.434 74.9102Z" fill="#337C76" fill-opacity="0.6"/>
<path d="M142.88 119.848C143.009 119.412 143.251 119.138 143.541 118.945C152.958 112.737 162.277 106.368 171.855 100.403C178.901 96.0009 186.334 92.228 194.444 90.1158C197.314 89.3741 200.297 89.0194 203.167 88.2616C207.02 87.2458 208.584 85.3271 208.778 81.409C209.019 76.3462 208.326 71.3963 206.278 66.7043C204.489 62.625 201.377 60.3194 197.007 59.6422C190.397 58.6264 184.044 59.9485 177.788 61.8189C172.467 63.4151 167.227 65.2854 161.922 66.9139C159.923 67.5266 157.956 67.1235 156.134 65.9465C156.843 63.2539 157.408 60.6418 158.198 58.1104C160.649 50.1776 163.39 42.3415 165.647 34.3603C169.226 21.7194 163.293 11.094 151.249 8.09498C146.54 6.91796 141.768 6.88571 137.028 7.94987C130.804 9.35262 126.289 13.0127 124.516 19.1235C123.451 22.8158 123.016 26.8467 123.145 30.6842C123.387 38.3106 127.047 44.7923 131.288 50.8871C132.319 52.3704 132.61 53.6764 132.094 55.4017C130.175 61.8834 128.289 68.3812 126.402 74.879C126.402 74.879 125.338 78.7164 123.484 84.8111C122.935 86.6492 122.403 88.4873 121.855 90.3254C121.775 90.5995 121.662 90.8575 121.517 91.1316C118.147 101.789 113.294 116.155 107.763 129.49C107.521 130.199 107.36 130.796 107.134 131.36C98.8468 152.288 89.479 172.701 78.4666 192.356C76.564 195.742 75.4676 199.273 76.6768 203.158C77.5798 206.077 78.4343 209.027 79.6436 211.817C80.5788 213.961 81.3366 216.702 84.3033 216.864C87.3184 217.025 88.4954 214.493 89.7692 212.349C93.5744 205.948 96.9926 199.289 101.185 193.162C114.422 173.83 125.902 153.562 134.899 131.908C140.01 120.315 142.864 119.848 142.864 119.848H142.88ZM137.334 33.4897C136.318 38.1494 135.093 42.7608 133.948 47.3882C133.9 47.5817 133.674 47.7268 133.303 48.146C130.772 42.9704 127.918 38.0688 127.918 32.2482C127.918 27.0402 130.772 24.8958 135.528 23.5092C137.527 22.9287 138.317 24.4604 138.253 26.0728C138.156 28.5558 137.866 31.055 137.334 33.4897Z" fill="#337C76" fill-opacity="0.6"/>
<path d="M136.221 130.344C139.075 129.086 141.913 127.699 144.896 126.845C148.25 125.894 149.894 127.699 148.991 131.101C148.314 133.665 147.476 136.213 146.573 138.712C141.123 153.642 135.496 168.508 130.207 183.487C124.371 200.03 132.319 217.637 148.443 223.57C153.458 225.425 158.859 226.537 164.18 227.182C178.369 228.875 192.525 228.069 206.553 225.328C215.388 223.603 224.224 221.619 232.367 217.621C241.654 213.058 242.557 202.191 234.495 195.709C232.205 193.871 229.867 191.775 228.352 189.324C223.563 181.52 218.984 173.571 214.631 165.509C209.503 155.996 204.731 146.29 199.748 136.696C199.136 135.535 198.152 134.568 197.346 133.52C197.024 133.665 196.701 133.794 196.395 133.939C196.669 135.213 196.814 136.535 197.233 137.761C200.345 146.774 203.812 155.69 206.569 164.816C209.455 174.329 210.358 184.164 209.745 194.129C209.552 197.273 208.1 199.353 205.376 200.498C203.086 201.465 200.684 202.481 198.249 202.771C188.607 203.916 178.949 204.964 169.259 205.625C165.341 205.899 161.229 205.56 157.392 204.674C151.926 203.416 149.427 198.966 150.249 193.387C150.394 192.452 150.507 191.517 150.749 190.614C155.183 172.958 161.294 155.867 168.581 139.196C169.597 136.858 171.065 134.633 172.693 132.682C178.691 125.523 175.982 116.155 167.066 113.43C162.084 111.898 157.456 112.946 152.925 115.01C149.54 116.542 146.218 118.235 142.88 119.863C142.88 119.863 140.043 120.315 134.915 131.924C135.173 131.311 135.657 130.618 136.221 130.36V130.344Z" fill="#337C76" fill-opacity="0.6"/>
</svg>
