<svg width="240" height="240" viewBox="0 0 240 240" fill="none" xmlns="http://www.w3.org/2000/svg">
<path fill-rule="evenodd" clip-rule="evenodd" d="M125.807 60.9597C122.88 59.5665 119.756 59.0035 116.618 60.1997C113.071 61.5507 109.581 63.0284 106.105 64.5483C104.933 65.0628 103.793 65.6613 102.585 66.2955L102.585 66.2959C102.009 66.5983 101.417 66.9087 100.8 67.2221C100.631 64.3512 99.1954 62.6343 97.2392 61.0863C94.9172 59.2287 95.4238 56.7378 97.9992 55.2179C98.3831 54.9892 98.768 54.7609 99.1531 54.5326L99.1551 54.5314L99.1552 54.5313C102.157 52.7511 105.176 50.9613 107.906 48.8289C108.486 48.3739 109.065 47.9172 109.643 47.4607C114.463 43.6528 119.264 39.8607 124.906 37.2469C125.948 36.7684 126.947 35.53 127.327 34.4182C128.608 30.7452 126.398 25.7353 122.81 24.2717C120.234 23.2162 117.94 21.9638 116.111 19.7965C114.887 18.347 113.212 18.2204 111.622 19.1492C111.019 19.4967 110.489 19.963 109.959 20.4292C109.522 20.8126 109.086 21.1959 108.61 21.5134C108.197 21.7854 107.785 22.0831 107.372 22.3822L107.372 22.3823C106.138 23.275 104.886 24.1806 103.516 24.4547C100.617 25.0316 97.5488 25.0739 94.5654 24.9191C91.019 24.7361 88.5844 22.8081 86.9801 19.4729C83.0116 11.2543 76.8617 5.11854 68.4743 1.34701C67.3668 0.850526 66.1671 0.526781 64.9899 0.209098L64.9891 0.208883C64.8652 0.175452 64.7416 0.142089 64.6183 0.108597C63.2392 -0.27137 62.6341 0.361909 62.5778 1.75512C62.4652 4.76672 63.2251 7.32798 65.519 9.4952C70.2053 13.9141 69.0231 22.0763 63.197 24.8206C60.4668 26.1153 59.1721 28.0995 58.6092 30.8297C56.8079 39.583 59.1862 47.6045 63.2533 55.2179C64.2102 57.0052 65.899 58.7362 67.6862 59.6228C68.4734 60.0163 69.7255 59.5333 70.9377 59.0657C71.3726 58.8979 71.8023 58.7321 72.2036 58.6095C73.3717 58.2436 74.3005 58.2436 74.8774 59.5242C75.4293 60.7222 74.7581 61.1606 73.8736 61.7383L73.7516 61.8181C69.6423 64.5623 65.6034 67.4051 61.5927 70.29C60.6216 70.9936 59.7491 71.9224 59.0877 72.9216C58.7359 73.4564 58.7359 74.4556 58.9892 75.0748C59.1018 75.3421 60.312 75.4266 60.889 75.2155C62.0852 74.7792 63.2533 74.1741 64.3369 73.4845C65.9596 72.471 67.5708 71.4391 69.1817 70.4074L69.1819 70.4072L69.1825 70.4069C71.5528 68.8888 73.9224 67.3711 76.327 65.9133C78.3253 64.7031 79.3526 65.3082 79.2119 67.6161C79.1511 68.6493 78.9263 69.6702 78.7013 70.692C78.5094 71.5631 78.3175 72.4349 78.2268 73.3157C78.0016 75.4125 76.8476 76.271 74.9619 76.9465C59.5239 82.463 44.7334 89.3165 31.3782 98.9564C30.9148 99.2914 30.4526 99.6287 29.9906 99.9659C24.7844 103.766 19.5906 107.557 12.6754 107.893C11.9014 107.935 10.8881 109.061 10.4941 109.919C9.45269 112.129 10.2548 114.043 12.7035 115.759C15.4055 117.659 18.1075 119.545 20.8658 121.346C24.3559 123.612 28.0992 124.668 32.307 123.753C39.4701 122.205 46.1969 119.559 52.1216 115.281C55.1558 113.092 58.0375 110.691 60.9182 108.292L60.9185 108.291C62.5003 106.974 64.0817 105.656 65.6879 104.374C67.1873 103.187 68.7443 102.064 70.2972 100.945L70.2972 100.945L70.2978 100.944C70.9162 100.498 71.5341 100.053 72.1473 99.6038C72.3443 100.913 72.288 101.912 71.9503 102.841C67.7003 114.563 61.5223 125.132 53.1067 134.35C50.8551 136.812 48.139 138.684 44.6771 139.149C41.961 139.514 40.6241 141.034 40.1456 144.243C39.6249 147.705 40.3848 149.408 43.115 150.604C47.365 152.476 51.6572 152.771 56.0339 150.899C60.1994 149.098 63.6192 146.298 66.7293 143.103C74.3568 135.278 80.0422 126.089 85.3758 116.646C86.5693 114.527 87.7324 112.39 88.901 110.243C89.51 109.124 90.1205 108.003 90.7376 106.879C98.6041 109.436 106.246 111.993 112.53 117.838C104.898 123.409 101.206 130.928 100.04 139.683C99.0827 146.776 98.4635 153.939 98.1257 161.088C97.591 172.557 97.4643 184.04 100.476 195.285C102.066 201.223 104.473 206.796 108.272 211.666C111.509 215.803 114.211 216.633 119.193 215.071C121.107 214.466 123.021 213.819 124.808 212.946C130.156 210.371 135.475 207.697 140.767 205.009C144.608 203.053 146.494 203.447 149.027 206.937L149.055 206.976C149.722 207.892 150.399 208.823 150.871 209.836C152.078 212.38 153.262 214.933 154.447 217.485C155.942 220.706 157.438 223.928 158.977 227.132C159.26 227.722 159.541 228.314 159.821 228.907C161.228 231.876 162.637 234.852 164.409 237.574C166.661 241.036 169.363 240.74 171.262 237.025C177.131 225.584 181.733 213.65 181.972 200.632C182.265 184.844 182.318 169.048 182.372 153.255V153.253C182.393 147.031 182.415 140.809 182.45 134.588C182.493 127.805 180.044 121.979 175.329 117.138C170.404 112.072 163.973 109.82 157.443 107.766C154.234 106.766 151.589 107.512 149.154 109.778C146.424 112.311 143.637 114.802 140.696 117.082C139.767 117.802 138.605 118.221 137.452 118.636C137.052 118.78 136.652 118.924 136.263 119.08C135.391 119.432 134.757 119.362 134.293 118.911L134.285 118.918C134.014 118.636 133.804 118.217 133.632 117.673C133.027 115.689 132.267 113.747 131.408 111.861C125.765 99.4068 115.984 91.6667 100.096 93.1584C99.0988 93.2557 98.1016 93.3436 97.0882 93.433L97.0877 93.433L97.0874 93.4331C96.342 93.4988 95.588 93.5653 94.8187 93.6369C95.039 92.7861 95.2698 91.9658 95.4954 91.1641C96.0049 89.3536 96.4876 87.6385 96.7608 85.8827C97.0422 84.0955 97.9007 83.1244 99.3502 82.266C106.795 77.8893 114.985 75.9754 123.457 75.1029C125.23 74.9179 127.015 74.8312 128.8 74.7446H128.8C130.953 74.64 133.105 74.5355 135.236 74.2585C138.642 73.8223 139.134 72.2883 136.911 69.6708C133.815 66.0259 130.113 63.0847 125.779 61.016L125.807 60.9597ZM115.583 135.906C113.678 130.676 112.643 125.46 115.023 119.798L115.041 119.812C117.157 120.442 119.264 121.065 121.375 121.689L121.377 121.69L121.39 121.694C123.684 122.372 125.983 123.052 128.305 123.744C124.037 127.83 119.893 131.792 115.583 135.906ZM136.277 141.569C142.077 140.726 146.433 137.249 150.814 133.753L150.843 133.73C152.56 132.351 154.445 131.084 156.43 130.17C158.963 129.016 160.736 130.212 160.736 133.012C160.736 152.222 160.694 171.445 160.609 190.655C160.609 192.237 160.332 193.829 160.055 195.415L160.055 195.419C159.985 195.82 159.915 196.221 159.849 196.622C159.763 197.112 159.545 197.582 159.326 198.055L159.326 198.056L159.326 198.056C159.224 198.275 159.122 198.496 159.033 198.718L158.104 199.31C157.853 198.961 157.607 198.61 157.362 198.261L157.36 198.258C156.794 197.453 156.231 196.651 155.613 195.876L155.446 195.663L155.446 195.663C154.305 194.213 153.159 192.756 151.898 191.415C148.732 188.037 144.862 186.785 140.372 188.15C135.969 189.496 131.577 190.889 127.182 192.284L127.178 192.285C124.819 193.033 122.458 193.783 120.093 194.525C119.523 194.702 118.94 194.855 118.279 195.029L118.278 195.029C117.944 195.116 117.591 195.209 117.209 195.313V177.468C117.671 177.468 118.108 177.462 118.529 177.455H118.529C119.325 177.443 120.061 177.432 120.797 177.468C127.468 177.877 133.688 176.329 139.781 173.683C142.924 172.308 146.185 171.195 149.446 170.083C150.391 169.76 151.336 169.438 152.278 169.109C154.98 168.166 156.092 166.069 154.6 163.593C151.715 158.794 147.69 155.121 142.188 153.601C139.331 152.813 136.699 154.262 134.335 155.81C129.776 158.808 124.695 160.468 119.516 161.96C119.308 162.024 119.088 162.046 118.718 162.084C118.513 162.105 118.261 162.131 117.94 162.171C117.94 160.869 117.931 159.579 117.922 158.3C117.898 154.782 117.874 151.338 118.039 147.901C118.081 146.973 119.277 145.636 120.234 145.284C123.302 144.186 126.483 143.37 129.663 142.624C131.256 142.249 132.888 142.028 134.518 141.808L134.52 141.808C135.092 141.73 135.665 141.653 136.235 141.569H136.277ZM219.012 29.0141C224.092 32.9123 228.328 37.5985 229.622 44.1706V44.2128C230.017 46.2111 230.031 48.3502 229.805 50.3908C229.679 51.5588 229.017 53.0083 228.117 53.712C222.679 57.9598 218.687 63.4458 214.696 68.9299C214.389 69.3505 214.083 69.7712 213.776 70.1913C212.771 71.5601 211.818 72.9615 210.864 74.3644C210.416 75.0241 209.967 75.684 209.512 76.3411C209.916 76.7017 210.318 77.0387 210.71 77.3668C211.602 78.1147 212.44 78.8169 213.115 79.6483C213.988 80.7319 214.747 82.0547 215.043 83.3776C215.564 85.77 214.494 87.2617 212.116 87.7261C205.035 89.1211 198.435 91.8207 191.797 94.5358C191.337 94.724 190.876 94.9123 190.415 95.1003C185.51 97.1096 180.401 98.6237 175.299 100.136C173.683 100.615 172.068 101.094 170.46 101.588C169.32 101.94 168.631 102.207 168.335 103.516C167.772 105.922 165.746 106.654 163.578 106.809C159.061 107.133 155.543 105.12 152.686 101.799C149.393 97.9712 147.549 93.3834 145.847 88.7393C143.482 82.3221 141.78 75.7501 142.188 68.8122C142.198 68.6409 142.204 68.4681 142.21 68.295C142.229 67.7425 142.249 67.1874 142.399 66.6731C144.65 58.8626 141.934 52.3188 137.234 46.2956C136.767 45.695 136.284 45.1032 135.801 44.5106C135.062 43.6036 134.321 42.6949 133.631 41.75C133.294 41.2716 132.942 40.3146 133.167 40.0331C133.519 39.5828 134.391 39.2591 134.982 39.3436C135.091 39.3592 135.2 39.3747 135.31 39.3903C136.682 39.5848 138.142 39.7919 139.289 40.4694C142.632 42.439 145.91 44.5246 149.19 46.6117C150.481 47.4325 151.771 48.2536 153.066 49.0679L153.235 50.039C153.531 49.6829 153.812 49.3116 154.092 48.9406C154.665 48.1826 155.238 47.4258 155.937 46.8022C165.521 38.3022 175.878 30.7591 187.221 24.933C198.367 19.2053 209.259 21.5414 219.012 29.0141ZM197.763 51.5622C197.889 51.2639 198.014 50.9666 198.141 50.6722C198.367 50.1234 198.24 48.9835 197.86 48.7302C197.339 48.3784 196.368 48.4347 195.693 48.6457C194.741 48.9405 193.802 49.2889 192.864 49.6371C191.653 50.0868 190.443 50.5361 189.205 50.8693C181.578 52.938 173.88 54.4016 165.886 53.8668C161.721 53.5853 159.92 56.8643 161.721 60.6218C162.551 62.3386 163.241 64.1963 163.621 66.068C164.221 69.1003 164.704 72.162 165.191 75.2532C165.378 76.4371 165.565 77.6254 165.76 78.818C165.806 78.8103 165.861 78.8036 165.921 78.7963C166.08 78.7769 166.279 78.7527 166.463 78.6913C166.871 78.5491 167.278 78.4068 167.686 78.2645C171.995 76.76 176.312 75.2524 180.607 73.7095C181.057 73.5547 181.507 73.231 181.803 72.8652C182.789 71.6658 183.779 70.4685 184.768 69.2711C188.295 65.0032 191.822 60.7347 195.228 56.3717C196.328 54.9611 197.052 53.2457 197.763 51.5622Z" fill="#337C76" fill-opacity="0.6"/>
</svg>
