<svg width="240" height="240" viewBox="0 0 240 240" fill="none" xmlns="http://www.w3.org/2000/svg">
<path d="M235.032 121.771C234.689 116.828 232.097 112.863 229.264 109.035C226.604 105.447 223.033 103.027 218.605 102.735C213.747 102.409 208.82 102.443 203.997 102.975C194.436 104.022 184.926 105.533 175.399 106.803C174.781 106.889 173.854 106.752 173.476 106.34C171.073 103.679 168.773 100.915 166.267 97.9629C166.267 97.9629 159.281 99.8168 137.944 101.55C132.314 106.014 127.044 110.631 121.328 114.596C111.715 121.291 102.051 128.054 89.4855 127.951C88.0608 127.951 85.8808 129.238 85.2971 130.509C82.7223 136.053 82.0872 142.044 82.5678 148.121C82.7051 149.923 83.8037 150.764 85.6233 150.833C88.7474 150.936 91.8715 151.228 94.9957 151.245C104.402 151.313 113.758 151.073 122.615 147.142C132.073 142.954 141.617 139.006 151.144 134.972C151.899 134.646 152.689 134.405 153.839 133.993C153.839 142.731 154.148 151.09 153.77 159.415C153.221 171.346 152.329 183.276 151.281 195.188C150.818 200.424 149.153 201.625 143.849 201.471C135.798 201.248 128.228 198.982 120.967 195.583C119.817 195.051 119.474 194.33 119.834 193.129C120.813 189.833 121.516 186.434 122.684 183.207C125.31 175.98 129.842 170.007 135.352 164.702C137.103 163.02 138.682 161.149 140.347 159.364C140.227 159.072 140.107 158.78 139.986 158.471C138.819 158.471 137.532 158.145 136.519 158.54C133.979 159.501 131.524 160.72 129.121 161.973C125.894 163.655 122.718 165.475 119.302 167.346C119.113 166.333 119.045 165.629 118.856 164.96C118.203 162.505 118.015 159.553 115.096 158.712C111.938 157.819 110.204 160.325 108.728 162.488C104.677 168.462 100.763 174.521 96.901 180.632C96.2144 181.731 95.8196 183.155 95.7338 184.46C95.0986 193.952 99.0296 202.14 103.441 210.088C104.917 212.749 108.917 213.264 111.303 211.084C113.534 209.024 115.354 206.38 116.882 203.737C117.98 201.849 118.306 199.514 119.062 197.128C119.594 197.574 119.92 197.798 120.195 198.089C132.417 210.723 144.638 223.357 156.86 235.991C157.804 236.969 158.731 237.999 159.864 238.737C163.074 240.814 165.752 240.334 168.035 237.244C169.031 235.905 169.872 234.412 170.558 232.901C173.562 226.309 174.06 219.186 174.163 212.165C174.472 191.532 174.369 170.899 174.421 150.266C174.438 142.645 174.421 135.04 174.421 127.247C175.193 127.093 176.034 126.87 176.892 126.784C182.711 126.149 188.531 125.29 194.367 124.999C204.134 124.501 213.918 123.848 223.48 127.058C225.471 127.728 227.771 127.745 229.9 127.642C233.573 127.47 235.272 125.462 235.015 121.806L235.032 121.771Z" fill="black"/>
<path d="M222.345 165.818C215.119 159.948 206.57 158.351 197.524 158.42C195.121 158.557 192.7 158.523 190.332 158.849C186.28 159.399 185.336 160.892 187.482 164.291C193.078 173.148 198.743 181.988 204.802 190.537C208.733 196.081 214.054 200.304 220.406 202.999C225.229 205.042 229.091 203.651 231.477 199.034C232.13 197.763 232.73 196.39 232.954 194.983C234.91 183.276 231.649 173.388 222.345 165.818Z" fill="black"/>
<path d="M212.476 23.516C209.866 17.7827 205.506 13.56 200.443 10.0067C194.572 5.88698 188.032 3.56964 180.908 5.32052C174.248 6.95124 167.622 8.97678 161.305 11.6203C149.873 16.3923 138.939 22.1771 129.789 30.7427C127.935 32.4935 126.373 32.9398 123.902 32.4935C120.554 31.8756 117.07 31.7898 113.637 31.7554C111.525 31.7554 110.392 33.2145 110.753 35.3259C111.062 37.1111 111.388 39.0679 112.315 40.5613C117.052 48.0455 118.306 56.3708 118.58 64.9535C118.786 71.6996 119.078 78.4285 121.327 84.8999C124.004 92.6072 128.708 98.3405 136.793 100.761C137.067 100.847 137.308 101.087 137.926 101.516C159.262 99.7824 166.249 97.9285 166.249 97.9285C172.892 90.2899 181.252 83.3893 192.237 80.2309C199.842 78.0508 201.713 73.5706 197.919 66.6014C197.73 66.241 197.542 65.8805 197.336 65.5543C193.885 60.1129 194.332 54.8259 198.4 49.9852C202.056 45.6252 205.712 41.1621 209.952 37.42C214.759 33.1973 214.57 28.0992 212.476 23.4988V23.516ZM174.471 40.6128C174.437 40.9218 174.385 41.2651 174.248 41.5398C168.463 54.8602 159.28 64.3356 144.62 67.5112C144.397 67.5627 144.157 67.4769 143.487 67.4082C143.968 56.8171 142.08 46.7409 135.9 37.7634C136.038 37.4544 136.158 37.1454 136.295 36.8364C138.715 36.7849 141.136 36.5103 143.522 36.7334C148.551 37.1969 153.529 38.1753 158.559 38.4671C162.026 38.6731 165.545 38.1067 169.047 37.8492C169.922 37.7805 170.781 37.5402 171.656 37.5059C173.87 37.4372 174.729 38.4156 174.471 40.5957V40.6128Z" fill="black"/>
<path d="M82.9449 104.675C85.0563 97.6198 87.202 90.5647 89.2104 83.4582C89.6567 81.879 90.1545 80.0766 88.3692 77.9824C86.8587 80.7117 85.3653 83.0119 84.2495 85.5181C77.5378 100.692 70.9119 115.918 64.2517 131.11C63.874 131.985 63.4277 132.826 63.0158 133.685C61.8485 122.304 60.5611 111.249 54.0897 101.534C54.0897 101.534 47.0347 111.421 38.5377 119.609C39.087 120.999 39.705 121.978 39.8595 123.008C40.3058 126.097 40.8207 129.222 40.8379 132.328C40.9924 151.005 38.5892 169.492 36.7868 188.013C36.1346 194.725 35.1561 201.385 37.3533 208.046C40.3744 217.143 46.7257 223.821 53.1971 230.429C55.9264 233.227 57.8146 233.124 60.4924 230.241C65.3331 225.022 67.3243 218.791 66.1742 211.822C63.6337 196.425 64.2174 181.13 67.0325 165.853C70.8604 145.082 76.8683 124.879 82.9106 104.675H82.9449Z" fill="black"/>
<path d="M84.4383 17.6805C80.7649 15.1743 77.5893 11.93 74.3106 8.87458C72.1993 6.90054 70.4827 4.51453 68.3542 2.59199C67.084 1.45907 65.3502 0.841111 63.8225 0C63.668 1.68222 63.0672 3.4846 63.4449 5.04666C65.8137 14.6422 65.2987 23.9631 61.4537 33.0951C52.9052 53.4534 40.0311 70.6533 23.535 85.1753C18.8488 89.2951 13.682 92.8826 8.77267 96.7621C5.64855 99.2339 4.48129 102.564 5.13358 106.392C6.04335 111.851 7.05612 117.292 8.32637 122.682C8.89283 125.051 10.0258 127.334 11.1587 129.531C12.4461 132.02 14.6776 132.913 17.4413 132.449C23.844 131.385 29.6631 129.153 34.1776 124.244C35.2419 123.094 36.3405 121.944 37.6451 120.571C37.9369 120.244 38.2459 119.918 38.5549 119.609C47.0518 111.421 54.1068 101.534 54.1068 101.534C55.6689 99.7832 57.2824 98.204 58.6213 96.4359C67.4788 84.729 76.2332 72.9191 85.1077 61.2466C87.8714 57.6075 90.6694 53.9169 93.9823 50.8271C96.5572 48.4411 97.7931 45.8491 97.6214 42.622C97.0893 32.3055 93.2614 23.7571 84.4211 17.6977L84.4383 17.6805Z" fill="black"/>
</svg>
