<svg width="240" height="240" viewBox="0 0 240 240" fill="none" xmlns="http://www.w3.org/2000/svg">
<g clip-path="url(#clip0_727_6139)">
<path fill-rule="evenodd" clip-rule="evenodd" d="M89.5633 123.212C90.8446 123.074 92.0889 122.94 93.2463 122.372L93.2922 122.311L93.3924 122.306C94.035 121.972 94.6616 121.498 95.2345 120.782C111.215 100.917 131.201 86.3133 154.537 76.2206C166.235 71.1743 177.964 66.2349 190.381 63.1307C199.648 60.8216 208.059 61.9073 215.338 68.5287C216.014 69.1391 216.72 69.7148 217.427 70.2906C218.208 70.9266 218.988 71.5625 219.727 72.2447C225.981 77.9639 232.098 83.8208 237.068 90.7633H237.053C240.417 95.458 240.768 99.9691 238.781 105.642C235.08 116.163 232.205 127.005 229.452 137.832C228.937 139.86 228.427 141.891 227.918 143.921C224.379 158.027 220.838 172.141 215.17 185.589C209.343 199.428 201.315 211.922 190.718 222.626C188.47 224.889 185.748 226.832 182.934 228.345C179.31 230.288 177.261 229.798 174.982 226.403C171.006 220.485 167.275 214.399 163.62 208.282C161.816 205.27 161.174 201.844 161.219 198.297C161.311 191.981 159.094 186.491 155.103 181.659C154.876 181.401 154.691 181.109 154.519 180.838C154.436 180.707 154.357 180.581 154.277 180.466C153.037 181.888 151.838 183.301 150.654 184.695C148.056 187.755 145.534 190.726 142.823 193.51C140.071 196.339 136.997 198.97 133.694 201.126C128.77 204.352 124.58 203.083 122.148 197.7C119.274 191.339 117.775 184.58 117.5 177.591C117.498 177.557 117.497 177.522 117.495 177.488C117.48 177.151 117.464 176.795 117.561 176.49C117.765 175.832 118.012 175.19 118.257 174.553C118.342 174.332 118.426 174.111 118.509 173.891C118.763 174.011 119.024 174.121 119.285 174.231C119.887 174.486 120.489 174.74 121.002 175.114C121.666 175.6 122.297 176.14 122.929 176.68C123.868 177.483 124.807 178.285 125.849 178.906C128.724 180.634 131.232 180.359 133.419 177.836C135.667 175.236 137.838 172.438 139.413 169.41C141.482 165.426 143.376 161.35 145.269 157.275C146.384 154.876 147.499 152.477 148.649 150.096C149.246 148.827 149.124 148.108 148.053 147.114C145.171 144.431 142.326 141.713 139.482 138.994C136.638 136.276 133.793 133.558 130.911 130.874C129.32 129.391 127.47 128.106 125.604 126.975C122.148 124.88 121.109 122.892 121.95 119.344C122.684 116.255 125.711 113.824 129.137 113.87C140.285 114.007 150.775 115.873 158.238 125.369C158.398 125.576 158.61 125.756 158.823 125.937C158.893 125.997 158.964 126.057 159.033 126.118C159.06 126.146 159.103 126.157 159.246 126.193C159.343 126.218 159.488 126.255 159.706 126.317C160.31 124.756 160.925 123.194 161.542 121.63C163.034 117.848 164.531 114.051 165.884 110.199C166.74 107.737 167.306 105.092 167.55 102.477C167.902 98.7763 166.113 96.3908 162.382 96.1155C158.742 95.8556 155.026 96.0849 151.402 96.5437C142.563 97.66 133.724 98.8987 125.253 101.865C116.139 105.046 108.034 109.863 101.382 116.928C100.396 117.966 99.5432 119.124 98.6237 120.373C98.2057 120.941 97.7737 121.528 97.309 122.131C98.3594 122.294 99.3653 122.439 100.34 122.579C102.376 122.873 104.275 123.147 106.153 123.519C113.707 125.033 120.451 128.152 125.574 134.101C128.816 137.863 130.788 142.206 128.708 147.13C122.959 160.694 116.093 173.631 105.48 184.136C100.051 189.504 93.8427 193.694 85.9062 194.367C84.5299 194.474 83.123 194.397 81.7315 194.26C79.9117 194.076 78.6272 193.235 77.9543 191.369C77.1744 189.229 75.0489 188.54 73.1221 189.764C72.648 190.07 72.3269 190.926 72.281 191.553C72.0591 194.492 71.8697 197.436 71.6803 200.379C71.3348 205.749 70.9893 211.119 70.446 216.464C70.1003 219.863 69.3379 223.227 68.5774 226.583C68.3286 227.681 68.08 228.778 67.8463 229.875C67.6475 230.869 67.1735 231.832 66.6994 232.734C65.0173 235.946 63.1211 236.343 60.3685 234.019C57.2031 231.327 55.0775 227.871 53.6401 224.033C49.6794 213.497 46.4987 202.747 47.2174 191.339C47.3611 188.994 47.927 186.682 48.4934 184.366C48.8913 182.74 49.2894 181.113 49.5418 179.472C50.1467 175.52 50.6236 171.545 51.1228 167.385C51.3555 165.445 51.5932 163.465 51.8509 161.428C51.4325 161.684 51.0767 161.897 50.764 162.085C50.1622 162.446 49.7197 162.711 49.2971 163.003C45.4901 165.658 41.6865 168.318 37.8829 170.979C30.2736 176.301 22.6643 181.623 15.0277 186.904C12.9174 188.372 10.6389 189.596 8.36042 190.804C7.39702 191.308 6.296 191.66 5.22556 191.798C2.28949 192.195 0.163905 190.895 0.0874447 188.066C-0.0901724 182.164 0.0373921 176.249 0.164749 170.344C0.179935 169.64 0.195118 168.936 0.209781 168.233C0.255657 166.428 1.3261 165.541 3.25289 165.465C4.3845 165.419 5.63844 165.098 6.58655 164.501C20.7011 155.754 34.5556 146.61 45.627 133.994C47.8944 131.415 49.757 128.468 51.6136 125.532C52.1237 124.725 52.6333 123.919 53.1507 123.121C53.4472 122.676 53.4137 122.019 53.3803 121.363C53.3655 121.071 53.3507 120.779 53.3648 120.506C53.0802 120.554 52.7774 120.575 52.475 120.596C51.8187 120.641 51.1646 120.686 50.704 121.011C48.0763 122.881 45.4826 124.798 42.8894 126.714C40.5627 128.433 38.2363 130.153 35.886 131.838C33.7451 133.382 31.4972 134.835 29.1575 136.058C26.2215 137.603 24.2794 136.685 23.6524 133.474C23.5473 132.929 23.4421 132.384 23.3368 131.839C22.0328 125.089 20.7281 118.336 19.7377 111.53C19.1651 107.642 19.6912 107.452 23.2622 106.159L23.423 106.101C28.9282 104.113 33.6534 101.101 36.9871 96.0085C39.1432 92.7054 41.8193 89.7082 44.4954 86.7874C45.5965 85.5946 47.248 84.8453 48.7772 84.1572C51.0098 83.1479 51.545 81.2211 49.8018 79.4931C49.1289 78.8355 48.349 78.2086 47.4927 77.8263C42.3698 75.5019 38.1187 71.9847 34.1274 68.1464C31.4172 65.5315 28.773 62.8506 26.1288 60.1697C24.9535 58.9782 23.7783 57.7867 22.5973 56.601C22.6584 56.3563 22.7349 56.1116 22.8114 55.867L22.8114 55.8669C23.1264 55.8192 23.4429 55.7566 23.7595 55.694C24.4572 55.5559 25.1554 55.4177 25.8392 55.4388C28.6529 55.5458 30.9467 54.6436 32.9805 52.625C37.7058 47.961 43.5167 44.8873 49.3583 41.89C50.6428 41.2325 51.1016 40.5291 51.2239 39.0763C51.3628 37.3807 51.4957 35.6845 51.6285 33.9886C52.1978 26.7215 52.7668 19.4576 53.8083 12.2541C54.9705 4.25642 58.9923 2.71193 66.1642 6.3973C74.743 10.8014 80.0493 17.5758 82.0679 26.9803C82.1642 27.4297 82.2979 27.8715 82.4167 28.264C82.4677 28.4325 82.5159 28.5919 82.5572 28.7389C83.6685 28.8434 84.7753 28.9213 85.8759 28.9988C88.3192 29.1709 90.7318 29.3407 93.0934 29.7941C98.7973 30.9104 103.767 33.6477 107.697 37.9753C112.193 42.9299 112.866 47.9916 109.043 53.4355C105.877 57.9413 102.352 62.1949 98.8309 66.4435C97.9305 67.53 97.0303 68.6162 96.1365 69.7062C94.5212 71.6773 92.8333 73.588 91.145 75.4991C90.1483 76.6273 89.1515 77.7557 88.1694 78.8967C87.6495 79.5084 87.1601 80.1812 86.8237 80.9C85.9521 82.7809 86.5026 83.7749 88.5517 84.2336C89.2902 84.4002 90.0326 84.5536 90.7751 84.7069C92.5543 85.0744 94.3338 85.4419 96.0601 85.9922C99.2714 87.0321 101.993 88.913 104.073 91.6349C107.866 96.6049 106.994 102.875 102.223 107.003C98.4456 110.261 94.7756 113.671 91.3196 117.28C89.8759 118.793 88.9718 120.821 88.0538 122.88C87.9702 123.067 87.8866 123.255 87.8024 123.442C88.3939 123.337 88.9824 123.274 89.5633 123.212ZM60.0127 36.9886C61.0276 36.3673 61.9183 35.822 61.9589 35.2227H61.9742C62.2647 30.4822 62.1577 25.6958 61.9895 20.9247C61.9687 20.4361 61.4884 19.9686 61.0053 19.4983C60.7778 19.2769 60.5496 19.0549 60.3685 18.8297C60.1955 19.0268 59.9983 19.2148 59.8011 19.4027C59.371 19.8128 58.9411 20.2226 58.7629 20.7259C56.8055 26.2157 56.6985 31.7667 58.4723 38.0059C58.955 37.6362 59.4997 37.3027 60.0127 36.9886ZM79.7435 144.056C74.0243 145.463 72.3269 148.613 74.6971 153.858C75.5542 152.184 76.4156 150.515 77.3016 148.798C78.0912 147.267 78.9004 145.699 79.7435 144.056ZM106.146 133.982C105.299 133.823 104.391 133.654 103.63 133.871V133.887C98.5527 135.355 93.5063 136.915 88.4752 138.551C87.833 138.765 87.2213 139.575 86.9002 140.248C86.2638 141.569 85.6177 142.887 84.9712 144.205C82.9301 148.369 80.8855 152.539 79.1318 156.825C77.9989 159.578 77.2105 162.47 76.4215 165.364C76.071 166.65 75.7204 167.937 75.3394 169.211C75.6911 173.386 77.0521 174.533 81.288 173.921C87.3895 173.019 92.1147 169.777 95.8154 165.037C101.336 157.941 105.296 149.989 108.385 141.579C108.859 140.294 109.028 138.857 109.15 137.48C109.318 135.569 108.324 134.376 106.459 134.04C106.356 134.021 106.251 134.002 106.146 133.982ZM194.678 175.665C203.747 150.402 210.184 124.436 215.109 98.0729C215.95 93.5465 216.347 89.0047 213.992 84.7077C211.377 79.9213 207.08 78.2545 202.783 80.5024C198.61 82.6805 194.46 84.9043 190.215 87.1791C188.439 88.1303 186.648 89.0904 184.83 90.0599C184.977 90.5955 185.134 91.1643 185.297 91.7542C185.575 92.7642 185.871 93.8358 186.161 94.9075C187.766 100.963 188.531 107.019 186.864 113.227C183.852 124.421 180.457 135.492 174.982 145.708C171.434 152.314 167.601 158.77 163.768 165.227C161.851 168.455 159.935 171.684 158.054 174.931C157.626 175.665 157.121 176.842 157.412 177.454C160.623 184.289 164.874 190.345 171.618 194.183C178.331 198.006 185.121 196.217 188.699 189.412C191.024 184.993 192.996 180.359 194.678 175.665Z" fill="#1C1C1C"/>
</g>
<defs>
<clipPath id="clip0_727_6139">
<rect width="240" height="240" fill="white"/>
</clipPath>
</defs>
</svg>
