<svg width="240" height="240" viewBox="0 0 240 240" fill="none" xmlns="http://www.w3.org/2000/svg">
<path fill-rule="evenodd" clip-rule="evenodd" d="M92.6191 73.8491C90.947 74.0541 89.7639 74.6532 89.0856 76.2928V76.2455C88.3409 78.0306 85.4699 84.6868 81.8467 92.925C83.8401 92.6361 85.7831 92.3616 87.6906 92.0921C91.9059 91.4966 95.9476 90.9255 99.9754 90.2786C108.209 88.9694 116.033 86.2879 123.714 83.1017C125.986 82.1553 128.604 81.7767 131.096 81.6663C135.923 81.4613 138.983 83.8904 140.56 88.4646C142.232 93.3859 141.759 98.3072 140.75 103.244C137.926 117.141 135.087 131.053 132.2 144.933C131.948 146.148 132.106 146.984 133.068 147.899C142.406 156.811 153.021 163.893 164.441 169.792C181.397 178.546 199 185.77 217.471 190.644C220.486 191.447 223.605 191.854 226.722 192.261C228.138 192.446 229.553 192.631 230.957 192.853C231.362 192.912 231.769 192.963 232.176 193.013C233.166 193.136 234.156 193.258 235.106 193.515L235.074 193.468C238.954 194.54 240.421 197.08 239.459 200.992C238.229 206.023 234.759 209.415 230.736 212.238C219.569 220.093 206.966 223.153 193.464 222.712C178.921 222.238 165.971 217.002 154.488 208.421C149.538 204.725 144.904 200.592 140.266 196.457C138.016 194.451 135.765 192.444 133.478 190.487C129.498 187.078 125.493 183.686 121.488 180.292C119.859 178.911 118.229 177.531 116.601 176.149C116.222 175.833 115.796 175.597 115.796 175.597C114.537 177.025 113.322 178.476 112.114 179.919C109.493 183.052 106.903 186.146 103.966 188.878C93.3664 198.736 80.448 202.017 66.3151 200.487C56.8827 199.477 50.5891 193.105 48.1127 183.294C47.4029 180.471 46.4092 177.631 45.0842 175.044C44.4838 173.886 43.5043 172.925 42.4678 171.908C42.2604 171.705 42.0507 171.499 41.8413 171.289C41.3684 171.935 40.9212 172.567 40.4864 173.181C39.2278 174.959 38.073 176.591 36.6992 177.996C36.2347 178.473 35.7706 178.952 35.306 179.431C31.7156 183.137 28.0932 186.875 24.0008 189.946C19.8837 193.036 14.7098 193.919 9.52003 192.91C4.69309 191.964 2.43737 188.401 1.25429 184.018C-0.859465 176.167 -0.149621 168.3 2.24807 160.733C3.85778 155.657 5.90739 150.72 7.95783 145.781C8.76064 143.847 9.56358 141.913 10.3403 139.97C10.5389 139.479 10.876 139.043 11.2873 138.512C11.4968 138.241 11.7255 137.945 11.965 137.605C13.3207 139.994 13.6105 142.451 13.9077 144.971C14.0636 146.293 14.2215 147.632 14.5363 148.988C15.2827 148.072 16.0241 147.198 16.749 146.344C18.2452 144.58 19.6709 142.9 20.9249 141.105C24.7084 135.692 28.4279 130.23 32.1454 124.77C33.9611 122.103 35.7763 119.438 37.5983 116.779C38.3555 115.659 38.6236 114.761 37.7087 113.421C36.1313 111.135 36.7149 109.022 39.0022 107.43C39.0848 107.373 39.1679 107.316 39.2515 107.258C39.8699 106.831 40.5158 106.384 41.2106 106.231C43.7503 105.68 44.9176 103.851 46.0691 101.754C48.9066 96.5512 51.8073 91.3959 54.7097 86.2375C55.9057 84.1119 57.1019 81.9859 58.2942 79.8558C58.5362 79.4141 58.7572 78.9653 59.0508 78.3692C59.1973 78.0717 59.3618 77.7374 59.5561 77.3491C58.3274 77.4545 57.1428 77.5423 55.9893 77.6277C53.6923 77.798 51.5186 77.9591 49.3659 78.2319C44.3655 78.8626 39.3966 78.9256 34.5065 77.5698C27.5658 75.6464 23.8904 70.428 24.3479 63.2547C24.5056 60.8426 25.5783 58.9034 27.5185 57.5634C30.5314 55.4665 33.8913 54.6783 37.6298 54.5994C46.3295 54.4042 55.0148 53.9229 63.6994 53.4417C64.1324 53.4177 64.5653 53.3937 64.9983 53.3697C66.3129 53.2997 67.6227 53.0884 68.9358 52.8767C69.986 52.7073 71.0382 52.5376 72.0967 52.4396C74.0527 52.2504 74.9203 51.1941 75.6932 49.4599C79.3529 41.2776 83.1387 33.1268 87.0034 25.0234C88.3285 22.2486 90.3791 19.9626 93.392 18.8748C95.5689 18.0865 97.9192 17.314 99.9857 19.0325C102.431 21.082 103.898 23.6833 103.267 27.0098C102.62 30.4467 101.91 33.8993 101.09 37.3047C100.562 39.496 99.9623 41.6678 99.3622 43.841C99.0298 45.0449 98.6972 46.2493 98.3767 47.4577C98.2541 47.9384 98.1766 48.4304 98.0835 49.0212C98.0209 49.4187 97.9513 49.8608 97.8561 50.3743C99.0641 50.2997 100.25 50.225 101.42 50.1514C104.451 49.9607 107.373 49.7768 110.286 49.6175C112.714 49.4832 115.142 49.3354 117.571 49.1876C124.261 48.7805 130.954 48.3732 137.655 48.2459C140.465 48.1944 143.306 48.8586 146.119 49.5162C146.748 49.6634 147.377 49.8102 148.003 49.9486C149.391 50.2482 150.732 51.068 151.946 51.872C154.707 53.7166 155.669 56.4125 154.833 59.5813C153.019 66.5024 147.892 69.7501 141.393 71.1059C138.191 71.7838 134.815 72.1465 131.55 71.973C118.505 71.2951 105.554 72.241 92.6191 73.8491ZM45.4167 166.173C45.7035 166.481 46.0439 166.805 46.4407 167.158C47.119 167.757 47.8761 168.278 48.6332 168.782C51.2831 170.502 53.9331 172.205 56.583 173.893C60.826 176.59 65.4791 177.852 70.2427 176.086C74.5488 174.492 78.7761 172.442 82.6405 169.981C87.6722 166.779 91.1897 161.921 94.6125 157.079C95.5589 155.754 95.3696 154.933 94.3601 153.829C92.9647 152.308 91.6082 150.751 90.2523 149.196C88.0524 146.672 85.8539 144.15 83.4923 141.779C79.5161 137.791 75.4104 133.941 71.2043 129.997C69.7746 128.656 68.3334 127.305 66.8816 125.933C66.2476 127.255 65.6532 128.473 65.1087 129.564C64.1178 131.552 63.1167 133.696 62.0368 136.009C58.3388 143.931 53.7171 153.832 45.4167 166.173ZM80.2114 113.797C85.7794 118.055 108.809 131.731 113.209 134.333H113.193C113.619 134.586 114.156 134.412 114.408 133.986C118.399 126.983 121.175 107.061 121.853 101.762C121.932 101.131 121.348 100.642 120.749 100.815L80.5111 112.267C79.8329 112.456 79.6436 113.355 80.2114 113.797Z" fill="#1C1C1C"/>
</svg>
