<svg width="240" height="240" viewBox="0 0 240 240" fill="none" xmlns="http://www.w3.org/2000/svg">
<g clip-path="url(#clip0_727_6084)">
<path fill-rule="evenodd" clip-rule="evenodd" d="M111.574 9.46885C119.25 15.8764 119.298 24.1555 114.746 32.276L114.714 32.2601C114.406 32.8191 114.065 33.3618 113.668 33.9942C113.513 34.241 113.35 34.5015 113.176 34.7819L110.099 38.3505C102.565 46.3599 95.8882 55.4955 89.2427 64.9482C90.0389 65.2187 90.8105 65.4548 91.5574 65.6832C93.1315 66.1647 94.5963 66.6128 95.9516 67.2797C98.1086 68.3582 100.297 69.5953 102.01 71.2448C106.975 76.0029 106.626 81.7284 101.788 86.6293C95.3728 93.1244 89.0557 99.7096 82.7368 106.297C80.2606 108.878 77.7842 111.459 75.3015 114.036C74.9444 114.404 74.639 114.809 74.34 115.205C74.2007 115.39 74.0628 115.572 73.9216 115.749C75.1034 116.103 76.2818 116.43 77.4515 116.753C79.8924 117.429 82.2955 118.094 84.6115 118.984C95.8089 123.298 102.137 133.465 101.217 145.392C100.287 157.547 97.0182 169.221 93.7552 180.875C93.5143 181.735 93.2733 182.596 93.0333 183.457C89.7344 195.257 85.7534 206.835 79.9485 217.683C76.4117 224.297 72.0184 230.324 66.61 235.526C64.9923 237.08 63.0732 238.46 61.0589 239.428C58.3468 240.744 55.3968 239.761 54.239 236.779C52.8433 233.21 51.9234 229.388 51.3524 225.597C48.2279 204.82 43.8346 184.329 37.5856 164.25C37.5085 164.007 37.4006 163.78 37.2621 163.488C37.2014 163.36 37.1348 163.22 37.0622 163.06C36.4539 163.608 35.8647 164.151 35.2846 164.686C34.0344 165.839 32.8262 166.953 31.5587 167.993C27.784 171.117 23.7872 173.813 18.8387 174.829C15.3336 175.542 12.5581 174.448 10.2742 171.831C4.02521 164.678 3.89833 152.243 10.1314 145.059C11.1941 143.822 12.6056 142.584 14.0965 142.125C19.7269 140.396 24.2947 137.049 28.6404 133.322C37.6332 125.63 46.1026 117.414 52.9226 107.692C54.1445 105.951 55.1526 104.07 56.163 102.184C56.6347 101.304 57.1068 100.424 57.6014 99.5554C57.5534 99.5223 57.5047 99.4882 57.4552 99.4538C57.292 99.3398 57.1215 99.2209 56.9511 99.1114C56.2813 99.672 55.6178 100.242 54.9542 100.812C53.4962 102.064 52.0377 103.317 50.5118 104.472C45.833 107.993 41.1066 111.451 36.3485 114.861C33.462 116.938 30.5278 116.558 27.9902 114.274C18.2995 105.551 15.857 96.8592 18.8546 85.8839C20.0759 81.4112 21.5191 79.968 26.0552 80.0155C33.2558 80.1107 38.6641 76.8911 43.6126 72.1171C46.2337 69.5878 48.9427 67.1464 51.6517 64.7049C54.0898 62.5076 56.5279 60.3103 58.9019 58.049C60.6307 56.3995 62.1057 54.3853 63.3587 52.3234C64.7385 50.0554 64.0248 47.1054 61.8043 45.9317C52.5261 41.0309 46.6419 32.9421 41.2177 24.4093C40.2771 22.9266 39.5141 21.3358 38.751 19.7446C38.4203 19.0551 38.0895 18.3654 37.7442 17.6845C37.8473 17.5814 37.9504 17.4823 38.0535 17.3831C38.1566 17.284 38.2597 17.1849 38.3628 17.0818C38.5906 17.1476 38.8361 17.1924 39.0824 17.2374C39.6079 17.3332 40.1368 17.4297 40.5039 17.7321C44.9448 21.3482 49.7822 20.5711 54.2866 18.4458C57.1025 17.1171 59.7449 15.4289 62.3921 13.7377C63.9792 12.7237 65.5679 11.7087 67.1968 10.7694C72.2563 7.83524 77.3633 4.98038 82.5496 2.26827C88.7669 -0.983099 95.1269 -0.602452 101.186 2.53789C104.865 4.44113 108.402 6.80432 111.574 9.46885ZM75.5517 147.423C75.5482 146.711 75.5447 146.004 75.5552 145.297V145.328C75.6028 142.505 74.1437 140.586 71.8281 139.238C69.5283 137.906 67.3713 138.54 65.4681 140.063C60.2243 144.24 54.9934 148.448 49.763 152.657C46.7513 155.08 43.7397 157.503 40.726 159.92C39.7426 160.697 39.5523 161.442 40.1391 162.632C41.7186 165.858 43.2694 169.102 44.8203 172.345C47.2719 177.471 49.7235 182.598 52.2882 187.66C54.1438 191.307 56.4594 194.749 58.8067 198.111C60.7893 200.935 63.0414 200.887 65.0398 198.064C66.1659 196.478 67.1334 194.686 67.7678 192.846C72.7321 178.476 74.6512 163.584 75.5552 148.5C75.5552 148.14 75.5535 147.781 75.5517 147.423ZM230.304 189.118C233.381 193.02 234.126 197.683 234.396 202.425L234.364 202.457C234.697 208.182 234.396 213.876 232.223 219.3C231.795 220.347 231.287 221.394 230.653 222.33C228.147 225.962 225.102 226.263 221.85 223.313C216.125 218.127 209.892 213.67 202.929 210.276C201.644 209.657 200.407 208.817 199.392 207.833C198.155 206.628 198.552 205.422 200.233 204.994C201.225 204.736 202.245 204.601 203.266 204.467C203.747 204.404 204.228 204.341 204.705 204.265C204.88 201.664 204.372 201.061 201.867 200.696C187.783 198.618 174.825 202.266 162.533 208.721C150.368 215.113 138.806 222.393 128.909 232.099C125.34 235.589 121.597 235.541 118.584 231.338C115.206 226.612 112.462 221.394 109.845 216.192C108.402 213.321 107.561 210.07 106.863 206.897C106.483 205.2 106.72 203.234 107.149 201.505C107.847 198.65 110.4 197.461 113.207 198.38C113.858 198.587 114.54 198.809 115.079 199.205C118.616 201.822 122.565 201.981 126.387 200.506C131.193 198.666 135.967 196.572 140.408 194.019C142.66 192.734 144.516 190.371 145.959 188.119C149.908 181.902 150.86 174.812 151.431 167.183C150.965 167.376 150.536 167.558 150.129 167.73C149.33 168.068 148.619 168.369 147.894 168.642C146.821 169.046 145.751 169.456 144.682 169.866C141.849 170.952 139.02 172.037 136.141 173.004C132.446 174.241 129.226 173.289 126.736 170.228C126.14 169.493 125.538 168.76 124.937 168.027C119.828 161.798 114.696 155.541 112.256 147.723C111.382 144.959 111.032 142.032 110.68 139.097C110.451 137.182 110.221 135.264 109.845 133.385C109.397 131.108 108.759 128.874 108.12 126.637C107.717 125.227 107.314 123.816 106.958 122.394C106.753 121.567 106.54 120.741 106.327 119.914C105.538 116.853 104.747 113.782 104.31 110.673C103.675 106.121 106.102 103.155 110.099 101.046C117.057 97.382 123.962 93.6113 130.868 89.8405C133.169 88.5836 135.471 87.3266 137.775 86.0736C138.419 85.7212 139.026 85.285 139.481 84.9576C139.62 84.8577 139.745 84.7679 139.853 84.6937C138.798 83.5527 137.726 82.4334 136.657 81.3175C134.19 78.7416 131.739 76.1836 129.559 73.417C125.8 68.6272 124.135 62.9016 123.992 56.8113C123.85 51.3395 121.645 47.3585 116.76 44.5354C115.087 43.5638 113.693 42.0925 112.233 40.5517C111.548 39.8288 110.848 39.0907 110.099 38.3816L113.176 34.813C114.3 34.9108 115.398 35.0056 116.476 35.0987C118.897 35.3078 121.222 35.5086 123.548 35.7171C123.676 35.7306 123.808 35.7405 123.941 35.7504C124.432 35.7874 124.938 35.8254 125.325 36.0501C127.849 37.4837 129.853 36.3759 132.073 35.1484L132.192 35.0827C146.815 26.978 161.454 18.8734 176.236 11.0384C180.09 8.99243 184.341 7.51742 188.576 6.43892C194.761 4.86875 200.804 5.72521 205.705 10.1661C210.828 14.8132 215.792 19.6506 220.534 24.6783C222.009 26.2485 222.866 28.5799 223.484 30.7211C224.42 33.909 223.31 36.5577 220.772 38.8574C215.904 43.2719 211.095 47.7599 206.245 52.2863C203.968 54.4112 201.682 56.5446 199.376 58.6828C199.679 59.0143 199.955 59.3066 200.211 59.5769C200.664 60.0567 201.051 60.467 201.407 60.9033C203.564 63.5202 203.183 65.6455 200.185 67.1998C199.179 67.719 198.107 68.1128 197.034 68.5069C196.533 68.6907 196.033 68.8746 195.538 69.0713L169.036 79.4915C169.012 79.5006 168.988 79.5096 168.964 79.5187C168.776 79.5897 168.573 79.6664 168.433 79.7929C167.212 80.9348 166.006 82.0926 164.801 83.2504C165.218 83.479 165.626 83.7294 166.034 83.9792C166.926 84.5265 167.813 85.0708 168.782 85.3757C172.382 86.5177 174.476 89.0077 175.697 92.386C176.989 91.7818 178.261 91.1655 179.523 90.5537C182.071 89.3185 184.581 88.1017 187.148 87.041C193.254 84.5034 199.551 82.9808 206.276 83.7104C211.684 84.2972 215.998 86.4859 218.869 91.244C221.264 95.2091 224.325 98.5398 228.21 101.109C231.002 102.965 232.318 105.725 232.62 108.992C232.873 111.688 231.906 113.797 229.923 115.685C225.816 119.594 221.732 123.531 217.648 127.469C213.564 131.406 209.48 135.343 205.372 139.253C203.992 140.57 204.135 141.49 205.467 142.536C205.703 142.721 205.94 142.906 206.177 143.091C208.335 144.78 210.499 146.472 212.715 148.087C214.238 149.182 215.078 150.435 214.46 152.338C213.857 154.209 212.334 154.59 210.653 154.59C208.55 154.59 206.444 154.571 204.338 154.551C200.125 154.513 195.909 154.474 191.7 154.59C186.181 154.749 180.867 156.065 175.84 158.46C174.365 159.158 173.81 160.062 173.714 161.759C173.394 167.108 172.957 172.456 172.513 177.906C172.341 180.003 172.169 182.116 172.002 184.249C173.938 183.705 175.909 183.154 177.898 182.596C181.367 181.625 184.894 180.637 188.401 179.649C188.224 178.946 188.041 178.279 187.864 177.636C187.472 176.207 187.112 174.899 186.926 173.575C186.339 169.435 188.449 167.009 192.715 166.977C198.964 166.929 204.706 168.928 210.066 171.957C217.901 176.366 224.721 182.028 230.304 189.118ZM176.763 120.708C176.722 120.979 176.681 121.251 176.664 121.521H176.68C176.458 125.074 176.252 128.627 176.014 132.75C176.692 132.364 177.337 132.024 177.952 131.7C179.179 131.053 180.281 130.471 181.264 129.721C188.274 124.36 193.334 117.366 197.632 109.769C197.886 109.325 198.044 108.786 198.171 108.278C198.901 105.439 197.441 103.679 194.745 104.646C192.339 105.516 190.015 106.591 187.689 107.666C186.028 108.434 184.367 109.202 182.676 109.896C178.425 111.64 176.046 114.4 176.839 119.253C176.911 119.724 176.837 120.215 176.763 120.708ZM120.375 120.306C120.858 120.985 121.337 121.659 121.804 122.33V122.346C129.623 117.429 137.252 112.64 144.785 107.913C142.501 103.663 140.106 99.2059 137.442 94.2575C135.704 94.8792 133.948 95.4985 132.18 96.1216C127.545 97.7561 122.833 99.4175 118.172 101.22C116.617 101.823 115.126 103.044 114.08 104.361C113.382 105.249 113.033 106.962 113.382 108.024C114.926 112.643 117.709 116.558 120.375 120.306ZM150.13 143.599C150.939 143.076 151.764 141.902 151.795 140.998L151.78 140.982C151.898 137.197 151.884 133.413 151.869 129.424C151.864 128.064 151.859 126.68 151.859 125.264C151.251 125.506 150.783 125.684 150.401 125.828C149.856 126.035 149.485 126.175 149.131 126.343C147.559 127.109 145.993 127.891 144.427 128.672C140.969 130.399 137.511 132.125 133.984 133.686C130.701 135.145 129.496 137.683 128.988 140.919C128.306 145.28 128.893 146.216 133.191 146.628C139.107 147.199 144.928 146.914 150.13 143.599ZM149.163 100.348C148.941 98.1115 148.465 97.8102 146.038 98.4129H146.054C145.832 101.458 146.942 103.504 149.591 104.678C149.432 103.171 149.29 101.759 149.163 100.348ZM145.15 55.368C145.293 56.3989 146.974 57.7629 148.132 58.0008V58.0167C153.556 59.111 158.901 58.5559 163.96 56.1927C174.285 51.3712 181.565 43.0921 188.433 34.3848C188.718 34.02 188.956 33.6235 189.147 33.2111C189.86 31.6251 189.289 30.6259 187.56 30.7052C186.371 30.7528 185.166 31.0383 183.992 31.3555C169.559 35.1778 154.936 37.9534 140.075 39.4284C138.748 39.5548 137.421 39.7091 135.973 39.8775C135.241 39.9627 134.477 40.0515 133.667 40.1421C133.857 40.3199 134.023 40.4762 134.171 40.6157C134.589 41.0111 134.865 41.2716 135.158 41.5061C139.805 45.154 144.214 48.9287 145.15 55.368Z" fill="#1C1C1C"/>
</g>
<defs>
<clipPath id="clip0_727_6084">
<rect width="240" height="240" fill="white"/>
</clipPath>
</defs>
</svg>
