<svg width="240" height="240" viewBox="0 0 240 240" fill="none" xmlns="http://www.w3.org/2000/svg">
<path d="M181.166 137.378C181.166 137.378 174.787 133.169 158.674 131.072C155.926 131.072 153.177 131.057 150.429 131.072C149.72 131.072 149.561 130.595 149.301 130.132C146.654 125.518 142.604 123.059 137.368 122.552C137.368 122.552 127.069 121.511 115.758 126.573C115.541 127.123 115.295 127.673 115.02 128.194C112.069 133.965 107.368 137.972 101.973 141.284C93.1063 146.723 83.2849 149.384 73.1019 150.932C67.2004 151.828 63.5698 156.602 64.51 162.474C65.3923 167.985 69.0084 171.225 74.0854 172.86C81.3177 175.174 88.2606 173.728 95.0011 170.777C98.3858 169.287 101.611 167.494 104.851 165.642C105.661 168.737 105.632 168.839 103.911 171.023C96.8959 179.962 89.8083 188.858 82.5038 197.565C73.3912 208.428 64.0182 219.031 52.9528 227.998C50.6819 229.835 48.1795 231.398 46.1834 233.567C45.5181 234.291 44.7225 235.086 45.1131 236.185C45.4892 237.227 46.6174 237.155 47.4708 237.4C47.9047 237.531 48.3965 237.502 48.8594 237.545C53.3578 237.863 57.5525 236.692 61.6026 234.869C70.9322 230.674 78.7719 224.325 86.3658 217.642C94.1043 210.829 101.264 203.423 108.482 195.627C108.685 196.321 108.829 196.755 108.945 197.189C110.478 203.033 112.17 208.833 114.832 214.272C118.535 221.808 123.308 228.866 124.697 237.4C124.899 238.644 125.883 239.396 127.228 239.599C135.039 240.785 142.141 239.454 148.259 234.088C154.016 229.025 158.327 222.806 162.42 216.427C170.318 204.118 176.682 190.984 183.177 177.908C185.997 172.223 188.673 166.365 193.736 162.142C194.343 161.635 194.589 160.825 194.763 160.03C195.558 156.298 194.155 153.087 192.304 150.035C189.338 145.16 185.361 141.139 181.108 137.393L181.166 137.378ZM165.443 155.734C164.836 160.522 163.114 164.977 161.292 169.388C156.605 180.757 150.863 191.577 144.339 201.991C141.418 206.663 136.746 208.009 131.611 205.781C125.767 203.264 121.688 198.795 118.477 193.443C115.28 188.105 115.338 188.105 119.287 183.303C127.778 172.99 135.603 162.185 143.168 151.192C144.296 149.558 145.554 148.516 147.464 148.01C150.227 147.272 152.989 146.578 156.331 146.549C156.924 146.621 157.994 146.708 159.021 146.911C163.505 147.778 165.978 151.178 165.414 155.719L165.443 155.734Z" fill="#1C1C1C"/>
<path d="M137.367 122.581C135.921 122.451 135.906 121.944 135.95 120.614C136.008 117.938 137.252 116.867 139.711 116.274C143.515 115.363 147.232 114.133 150.978 113.005C155.665 111.588 157.444 106.887 154.942 102.591C152.598 98.5697 148.881 96.5157 144.498 95.6334C142.531 95.2428 142.98 94.7655 143.92 93.6662C147.391 89.6161 150.964 85.7107 155.549 82.8468C157.661 81.5305 158.399 77.7842 157.43 74.4284C155.853 68.9464 150.747 65.1422 144.585 64.8385C144.021 64.8095 143.442 64.8385 142.878 64.8385C147.435 62.4518 151.875 59.9929 156.663 58.2861C159.05 57.4471 161.234 58.1125 163.172 59.6891C167.424 63.1606 168.871 67.9049 169.131 73.0977C169.869 87.2584 169.623 101.405 168.075 115.508C167.989 116.303 167.83 117.084 167.67 117.865C166.629 122.884 164.069 124.808 158.948 124.476C157.748 124.403 156.258 123.781 155.593 125.286C154.956 126.718 156.113 127.788 156.967 128.772C157.516 129.408 158.283 129.856 158.948 130.406C158.862 130.623 158.76 130.854 158.673 131.071C174.787 133.154 181.166 137.378 181.166 137.378C180.153 136.481 180.009 135.758 180.327 134.499C181.137 131.216 181.875 127.904 182.366 124.562C184.869 107.581 185.968 90.484 186.532 73.3291C186.764 66.1981 183.986 60.4123 178.634 55.8126C174.194 51.994 168.885 50.2293 163.186 49.535C161.552 49.347 160.467 48.942 159.787 47.1918C158.688 44.3568 157.256 41.6085 154.913 39.5256C154.204 38.8892 154.638 38.4697 154.985 38.0213C156.287 36.3434 158.052 35.2875 159.946 34.463C163.317 32.9877 166.933 32.4091 170.505 31.628C175.004 30.6444 177.014 27.983 176.899 23.4122C176.783 18.4942 174.989 14.126 172.661 9.88787C169.681 4.47815 165.11 1.51293 159.107 0.485955C152.873 -0.584417 146.769 0.21113 140.781 1.91794C126.808 5.89567 113.212 11.0161 99.5426 15.9051C96.1146 17.1346 92.8167 18.7546 89.2295 19.5357C86.9585 20.0275 85.9026 19.4344 85.0058 17.3082C84.6442 16.4548 84.3405 15.558 83.8342 14.7913C82.5469 12.8242 79.4804 11.7972 77.0938 12.4192C74.7216 13.0411 74.7505 14.9938 74.5625 16.8453C74.0996 21.2859 74.1141 25.7554 74.3889 30.196C74.736 36.0541 75.7052 41.811 78.5836 47.0616C80.9847 51.4154 82.5324 51.8638 86.8718 49.6508C87.2334 49.4627 87.5805 49.3036 87.9277 49.1011C101.51 41.4783 114.152 32.4525 126.707 23.282C132.768 18.8559 138.655 14.1983 144.628 9.64198C147.536 7.41445 150.704 6.15604 154.464 6.83587C155.998 7.11069 156.215 7.93517 155.535 9.0634C154.956 10.0181 154.204 10.9149 153.379 11.6525C149.055 15.5001 144.701 19.2898 140.333 23.0795C136.181 26.6811 131.697 29.7042 126.201 30.9048C125.101 31.1507 124.132 31.7726 123.235 32.4814C117.84 36.7484 115.584 45.9623 118.462 52.1965C119.243 53.9033 119.026 55.2341 117.508 56.3912C116.235 57.3748 114.861 58.1848 113.356 58.72C103.839 62.1336 94.1619 64.9108 83.9933 65.5183C77.2384 65.9233 73.3185 71.5789 75.3725 77.9288C75.8209 79.3319 76.5296 80.6048 77.3686 81.8053C78.815 83.9316 79.6684 86.2604 79.9143 88.8351C80.4206 93.8976 79.8854 98.9313 79.1766 103.922C78.3088 110.04 78.1497 116.115 80.2759 122.031C81.867 126.472 84.3694 130.348 87.8264 133.588C88.6075 134.326 89.5477 134.933 90.7048 134.456C91.9199 133.95 92.1947 132.822 92.2525 131.664C92.3104 130.666 92.2815 129.668 92.2236 128.67C91.7752 120.7 91.1822 112.745 91.7752 104.76C92.1513 99.7124 92.8167 94.6353 92.05 89.6451C91.5149 86.1591 92.9324 84.2787 95.4781 82.6298C96.0278 82.2682 96.5774 81.8776 97.1415 81.5305C103.318 77.6974 110.058 75.0938 116.784 72.4323C117.045 72.3311 117.392 72.2009 117.696 72.6638C117.406 72.8229 117.131 72.982 116.857 73.1411C109.856 77.032 103.94 82.2248 98.805 88.3143C96.1869 91.4242 95.8831 94.8957 97.7635 98.4684C98.7182 100.305 100.078 101.173 102.233 101.086C106.269 100.956 110.246 100.392 114.311 99.5533C114.267 100.87 113.53 101.564 112.807 102.215C111.317 103.574 109.595 104.63 107.744 105.339C104.244 106.699 102.508 109.244 102.002 112.803C101.843 113.916 101.654 115.045 101.597 116.158C101.423 119.268 101.134 122.393 101.77 125.503C102.508 129.032 104.099 130.059 107.628 129.234C109.972 128.685 112.112 127.614 114.224 126.501C114.701 126.24 115.193 126.023 115.786 125.734C115.786 126.168 115.844 126.385 115.786 126.558C127.098 121.51 137.396 122.537 137.396 122.537L137.367 122.581ZM89.9672 80.0262C88.7811 77.8276 87.7975 75.7447 87.2623 73.4738C86.6114 70.74 87.4648 69.1055 90.1697 68.3244C93.8436 67.2685 97.6333 67.4276 101.886 67.254C97.6912 71.6368 93.699 75.6145 89.9672 80.0262Z" fill="#1C1C1C"/>
</svg>
