<svg width="80" height="80" viewBox="0 0 80 80" fill="none" xmlns="http://www.w3.org/2000/svg">
<path d="M13.6644 24.1307C13.7143 24.5248 14.0302 24.429 14.2367 24.3858C14.7225 24.305 15.2144 24.2671 15.7068 24.2724C18.0881 24.1901 20.3992 24.6355 22.6941 25.1985C22.7306 25.2227 22.7722 25.2384 22.8156 25.2444C22.8818 25.3686 22.9898 25.3497 23.0991 25.3308L23.2341 25.3456C23.2463 25.3618 23.2623 25.3746 23.2806 25.3831C23.299 25.3916 23.3192 25.3954 23.3394 25.3942C23.9401 25.6642 24.5543 25.9193 25.0943 26.3L25.1726 26.4121C25.1632 26.5079 25.1537 26.6051 25.1456 26.7009C24.8932 26.9318 24.5962 26.867 24.3113 26.8089C23.851 26.7117 23.392 26.5997 22.9358 26.4809C20.082 25.733 17.1985 25.401 14.2583 25.8653C14.0032 25.9045 13.6657 25.8653 13.7508 26.3C13.8156 26.6294 14.0423 26.6483 14.3177 26.5957C16.7409 26.1286 19.1573 26.3432 21.5642 26.7077C22.6442 26.871 23.7619 26.9777 24.6286 27.7728C24.6353 27.8632 24.6434 27.9537 24.6502 28.0428C24.2789 28.3492 23.874 28.1656 23.4906 28.1008C20.5005 27.5933 17.5076 27.4934 14.5094 28.0212C14.1854 28.0779 13.8588 28.1049 13.956 28.5801C14.0531 29.0552 14.3609 29.0323 14.7214 28.9526C15.7952 28.7138 16.887 28.5639 17.9855 28.5045C20.2305 28.3978 22.4768 28.3222 24.661 29.0134C24.7466 29.1797 24.7705 29.3711 24.7285 29.5534C24.1574 29.7437 23.5729 29.6236 22.9952 29.6155C20.5653 29.5858 18.157 29.6492 15.7905 30.2553L14.9981 30.4754C14.6674 30.524 14.1976 30.4106 14.3042 31.0073C14.4055 31.5702 14.7754 31.4811 15.1749 31.3447C16.9879 30.7464 18.8694 30.3804 20.7745 30.2553C22.2702 30.1419 23.7781 30.042 25.2496 30.4875C25.3521 31.1625 24.9364 31.2813 24.3977 31.2826C22.7978 31.2969 21.2043 31.487 19.6459 31.8496C20.4495 32.5311 21.333 33.1123 22.277 33.5802C27.6308 36.133 33.2506 36.6176 39.0405 35.6726C41.8754 35.2096 44.5753 34.3457 46.9282 32.6096C47.097 32.4841 47.34 32.4139 47.3575 32.0899C46.9687 32.0022 46.5813 31.8915 46.1858 31.828C45.2111 31.6755 44.227 31.5715 43.2564 31.392C42.8366 31.3137 42.2385 31.3488 42.2898 30.6279C43.0455 30.427 43.8287 30.35 44.609 30.3998C47.0765 30.5212 49.5163 30.9753 51.8623 31.7497C52.166 31.8523 52.4697 32.0305 52.6331 31.5796C52.8126 31.091 52.4292 31.0046 52.112 30.9047C50.6676 30.47 49.184 30.254 47.691 30.0636C46.1682 29.8679 44.6428 29.9624 43.1201 29.9057C42.9392 29.899 42.6678 29.9799 42.6327 29.6897C42.6135 29.5656 42.6382 29.4386 42.7025 29.3307C42.7668 29.2227 42.8667 29.1406 42.9851 29.0984C43.1331 29.0482 43.2853 29.0116 43.44 28.9891C44.9249 28.6935 46.4328 28.7596 47.9339 28.7326C48.832 28.8882 49.7385 28.9901 50.6487 29.0377C50.7027 29.0876 50.758 29.1241 50.8093 29.0377C51.4087 29.1916 52.0108 29.3401 52.6088 29.5034C52.8653 29.5736 53.0583 29.5034 53.1636 29.2726C53.2689 29.0417 53.3337 28.792 53.003 28.6624H52.9814C50.9393 28.1353 48.8199 27.9748 46.7217 28.1886C45.6682 28.1989 44.6184 28.316 43.5885 28.5382C43.3482 28.5868 43.0485 28.6557 42.9743 28.329C42.9176 28.0846 43.0242 27.8646 43.3266 27.7728C43.8396 27.6162 44.3269 27.3611 44.848 27.2504C47.4899 26.7041 50.2097 26.6478 52.872 27.0843C53.1326 27.1248 53.4835 27.2895 53.5848 26.8427C53.6955 26.3527 53.2932 26.4377 53.0354 26.3891C49.9697 25.8491 46.9606 26.1664 43.9908 27.0087C43.6006 27.1194 43.2213 27.2598 42.8163 27.0897C42.6206 26.8616 42.6017 26.6496 42.8892 26.489C43.2402 26.2933 43.5885 26.084 43.9543 25.9288C45.1841 25.3888 46.5071 25.1958 47.8097 24.9312C47.8737 24.9488 47.9411 24.9498 48.0055 24.9342C48.07 24.9186 48.1294 24.8869 48.1783 24.8421C49.9008 24.7489 51.622 24.672 53.3432 24.9028C53.6455 24.9433 54.0087 24.9028 53.871 24.4033L53.8629 24.1334C53.9236 24.0186 54.0316 23.9066 54.0397 23.7864C54.1491 22.2907 54.5419 20.8166 54.4299 19.306C54.6769 19.1804 54.5824 18.9631 54.5743 18.766C54.6618 18.4439 54.6866 18.108 54.6472 17.7765C54.7183 17.1536 54.7314 16.5254 54.6863 15.9001C54.8118 13.0715 54.6015 10.238 54.06 7.4589C53.7117 5.66618 53.2068 3.92746 52.1795 2.38043C51.0672 0.707855 49.6889 0.439218 48.0554 1.60692C47.5284 1.98968 47.0348 2.41644 46.58 2.88261C44.9938 4.48904 43.6938 6.31551 42.4721 8.20002C42.2385 8.55911 42.059 8.67385 41.6203 8.52266C38.9154 7.59409 36.0607 7.17929 33.2034 7.29961C31.3648 7.36576 29.5316 7.51965 27.7766 8.14602H27.7699C27.6607 8.14837 27.5525 8.16656 27.4486 8.20002C26.8114 8.50511 26.4712 8.25132 26.2755 7.629C26.1631 7.27305 25.9673 6.94908 25.7045 6.68404L25.6167 6.5153C24.6861 4.89805 23.5688 3.39564 22.2878 2.0389C21.7744 1.47087 21.1932 0.968077 20.5572 0.541813C19.3179 -0.268151 18.2731 -0.175005 17.208 0.854999C16.4155 1.61907 15.9093 2.56537 15.5124 3.57783C14.5 6.15891 14.1436 8.87364 13.8655 11.6059C13.4505 15.5873 13.3777 19.5969 13.6482 23.5907C13.6549 23.7729 13.6603 23.9538 13.6644 24.1307ZM27.7793 23.7108C27.7719 23.706 27.7635 23.7028 27.7548 23.7013C27.746 23.6999 27.7371 23.7002 27.7285 23.7024C27.7199 23.7045 27.7118 23.7084 27.7047 23.7138C27.6977 23.7192 27.6919 23.726 27.6875 23.7338C27.6223 23.7189 27.5544 23.7209 27.4902 23.7396C27.4259 23.7583 27.3675 23.793 27.3204 23.8404L27.2826 23.8283C26.9613 23.8283 26.8911 23.7216 27.0558 23.4233C27.2597 23.0777 27.4362 22.7166 27.5836 22.3433C27.7154 22.02 27.7739 21.6714 27.755 21.3227C27.7361 20.974 27.6402 20.6338 27.4743 20.3265C27.2988 19.9998 27.0693 19.6934 26.6643 19.7083C26.2593 19.7231 26.015 20.0025 25.8422 20.3319C25.6596 20.6686 25.5561 21.0425 25.5395 21.4251C25.5229 21.8078 25.5936 22.1892 25.7463 22.5404C25.9097 22.9454 26.069 23.3504 26.2863 23.8904C25.1821 23.561 24.2263 23.2964 23.523 22.5242C23.2408 22.2151 22.898 21.9721 22.5996 21.6873C22.3013 21.4024 22.4646 21.2485 22.5483 21.0217C22.6077 20.9367 22.6658 20.8503 22.7238 20.7653C23.1949 20.3238 23.6418 19.8514 24.1426 19.4464C25.4925 18.3664 27.9697 18.4393 29.2332 19.7798H29.24C29.298 19.8406 29.325 19.9499 29.4452 19.9148L29.5991 20.0687C29.568 20.1902 29.6774 20.2158 29.7341 20.2752C29.9824 20.5209 30.2313 20.7662 30.4806 21.011C30.6777 21.2026 30.733 21.4159 30.5832 21.6589C30.5728 21.6574 30.5623 21.6582 30.5523 21.6615C30.5424 21.6647 30.5333 21.6702 30.5258 21.6775C30.5184 21.6849 30.5127 21.6938 30.5093 21.7037C30.5059 21.7136 30.5048 21.7241 30.5062 21.7345C30.3928 21.7804 30.274 21.8169 30.2254 21.9478C29.9184 22.1718 29.651 22.4456 29.4344 22.7578C29.3817 22.8023 29.3277 22.8455 29.2737 22.8928L28.0925 23.5907C28.0342 23.5833 27.975 23.5907 27.9203 23.6121C27.8655 23.6336 27.8171 23.6685 27.7793 23.7135V23.7108ZM29.0267 29.5925C29.0267 29.0525 29.2724 28.7367 29.8245 28.7407C30.3442 28.7407 30.6588 29.0107 30.6763 29.5574C30.6939 30.1041 30.3712 30.3539 29.8528 30.4322C29.375 30.3647 29.0213 30.1689 29.0267 29.5952V29.5925ZM38.5775 32.0224C38.4992 32.4368 37.8755 32.3572 37.4557 32.3747H37.3882C36.2813 32.3288 35.3053 31.9212 34.5992 31.0869C34.1443 30.5469 33.9621 30.6414 33.5193 31.095C32.5865 32.0508 31.4593 32.6096 30.0621 32.2155C29.8609 32.1588 29.5532 32.1291 29.5599 31.8591C29.5667 31.5891 29.8744 31.5756 30.0796 31.5121C30.9409 31.2421 31.7819 30.9371 32.4596 30.3093C32.9159 29.8882 33.1899 29.3482 33.418 28.7826C33.5247 28.5126 33.6597 28.3236 33.9999 28.3263C34.34 28.329 34.4777 28.5261 34.5722 28.792C35.0933 30.2702 36.2286 31.014 37.6609 31.4352C38.0173 31.5459 38.6599 31.5837 38.5775 32.0278V32.0224ZM38.3183 30.3944C37.8391 30.3782 37.5354 30.1041 37.5462 29.5844C37.557 29.0647 37.8161 28.7353 38.3629 28.7475C38.9096 28.7596 39.1634 29.0674 39.1836 29.4886C39.162 30.1554 38.8259 30.416 38.3183 30.3998V30.3944ZM45.6782 21.7953C44.848 22.4702 44.1123 23.2802 43.0715 23.6514C42.7394 23.7702 42.4086 23.9214 41.9915 23.7864C42.2992 23.237 42.5137 22.6403 42.626 22.0207C42.733 21.4643 42.6453 20.888 42.3776 20.3886C42.221 20.1065 42.0253 19.8379 41.6675 19.8379C41.272 19.8379 40.9925 20.0646 40.8184 20.4089C40.3635 21.316 40.5174 22.1921 40.9655 23.0534C41.087 23.2883 41.3071 23.4746 41.3435 23.8634C39.8897 23.7473 38.8812 22.9616 37.9147 22.0248C37.3747 21.5037 37.4908 21.2391 37.9889 20.7963C38.5087 20.3333 38.9231 19.7623 39.5346 19.3789C41.029 18.442 42.495 18.4501 43.9692 19.4059C44.6131 19.8244 45.145 20.363 45.6687 20.9178C45.9806 21.2472 45.9414 21.5887 45.6782 21.8007V21.7953ZM44.1798 9.26513C45.203 7.6371 46.152 5.95102 47.7517 4.78062C48.1103 4.51216 48.4984 4.28569 48.9086 4.10565C50.1033 3.59268 51.132 3.94231 51.7502 5.09651C52.3536 6.22236 52.5966 7.4589 52.7559 8.70895C53.1191 11.5573 52.8261 14.4043 52.7168 17.2527C52.6849 17.3856 52.6396 17.515 52.5818 17.6388C52.0607 16.9031 51.6287 16.2889 51.1846 15.6706C49.7982 13.7618 48.2147 12.0703 46.1304 10.8891C45.5459 10.557 45.01 10.1291 44.389 9.85505C44.0893 9.72005 43.9827 9.58236 44.1798 9.27052V9.26513ZM43.2604 14.97C43.1957 14.9808 43.1255 14.9902 43.1025 15.0442C43.1228 14.9956 43.1957 14.9862 43.2604 14.9754V14.97ZM37.0993 18.3259C37.1115 18.2827 37.1236 18.2395 37.1344 18.1909C37.1534 18.1804 37.169 18.1646 37.1793 18.1455C37.1896 18.1263 37.1942 18.1046 37.1925 18.0829C37.6344 17.1177 38.3834 16.3259 39.3227 15.8312C39.3456 15.8306 39.3679 15.8238 39.3871 15.8114C39.4064 15.799 39.4219 15.7816 39.432 15.761L39.6575 15.6341C39.7076 15.6514 39.762 15.6521 39.8126 15.636C39.8632 15.62 39.9072 15.5881 39.9382 15.545C40.0128 15.4831 40.099 15.4365 40.1916 15.408C40.2843 15.3795 40.3817 15.3697 40.4782 15.379L40.5187 15.3858C41.2787 15.3412 42.0293 15.2413 42.8015 15.3399C44.0348 15.4939 45.1741 16.0786 46.0184 16.9908L46.1358 17.1326H46.1277L46.3113 17.4026C46.3208 17.7468 46.8216 18.0897 46.5219 18.3475C46.3235 18.5203 46.0008 18.0775 45.7322 17.9196C43.3617 16.4819 40.5565 16.2646 38.3737 18.0127C37.9471 18.3556 37.5934 18.8038 37.0467 18.982C36.9441 18.7593 37.0548 18.5446 37.0993 18.3259ZM34.8517 23.2492C34.8265 23.2384 34.8002 23.2303 34.7734 23.2249C34.8001 23.2294 34.8264 23.2366 34.8517 23.2465V23.2492ZM31.5929 23.8904C31.9025 23.7273 32.2211 23.5822 32.5473 23.4557C32.6729 23.4705 32.7957 23.4773 32.8713 23.345C32.876 23.3511 32.8822 23.3559 32.8892 23.359C32.8963 23.362 32.904 23.3633 32.9116 23.3626C32.9193 23.362 32.9267 23.3594 32.9331 23.3551C32.9395 23.3509 32.9447 23.3451 32.9483 23.3382L33.6124 23.2802H34.4467L34.9745 23.3301C35.1473 23.5016 35.3687 23.4651 35.5806 23.4773L36.3245 23.8499C37.7837 24.7341 37.8809 26.0489 36.5607 27.1248C36.0032 27.5784 35.3755 27.9051 34.6087 28.2372C34.7531 27.5177 34.8719 26.9061 34.9975 26.296C35.0785 25.9045 35.3619 25.7654 35.7224 25.702C35.8668 25.6763 36.0558 25.6493 36.0734 25.4442C36.0909 25.239 35.9384 25.1742 35.8034 25.0891C35.0542 24.5802 33.0036 24.5937 32.2935 25.1148C32.1518 25.2187 31.9642 25.3213 32.0235 25.5373C32.0829 25.7533 32.2868 25.7411 32.4663 25.7614C33.3127 25.8586 33.5139 26.0773 33.6192 27.0074C33.7542 28.2223 33.7542 28.2223 32.6594 27.7957C32.1271 27.6118 31.6396 27.3179 31.2284 26.9331C30.2592 25.972 30.4131 24.5869 31.5929 23.8877V23.8904ZM28.16 15.5248L28.6919 15.7948C29.3 16.183 29.8347 16.6756 30.2713 17.25L30.3753 17.4161C30.5634 17.857 30.7474 18.2953 30.9274 18.7309C30.8909 18.9536 30.9274 19.2857 30.5413 18.9914C29.6166 18.1923 28.7958 17.2703 27.5606 16.8828C25.5803 16.2619 22.7481 16.9868 21.6209 18.4609L21.3428 18.7174C21.0877 18.7174 20.8622 18.6945 20.9648 18.3408C21.3982 17.7373 21.6506 17.0178 22.1595 16.463L23.2395 15.7475L23.9334 15.433C25.3163 15.0142 26.7966 15.0463 28.16 15.5248ZM21.8288 11.1226C21.8288 11.2495 21.8383 11.3562 21.9273 11.3818C21.8383 11.3562 21.8221 11.2495 21.8288 11.1226ZM16.07 8.86554C16.1861 7.494 16.3845 6.14271 16.9177 4.86162C17.6507 3.09725 18.9278 2.63422 20.5126 3.66962C22.4633 4.94397 23.6094 6.87843 24.5408 8.95194C24.6569 9.20978 24.5219 9.33397 24.2816 9.46357C23.7309 9.76055 23.2017 10.1102 22.6725 10.4382L22.2756 10.6866L21.9962 10.8918L22.0151 10.881L21.8369 11.016V11.0092C21.652 11.0092 21.5548 11.1294 21.4657 11.2657L21.3199 11.394V11.3832L21.1376 11.5182L21.1552 11.4939L20.923 11.691H20.9365L20.7596 11.826L20.7866 11.7963L20.5504 11.9826L20.3979 12.1162L20.2386 12.2512C19.3245 13.0369 18.5139 13.9355 17.8262 14.9254L17.698 15.0861L17.5171 15.3385L17.428 15.491C17.3564 15.5366 17.2946 15.5958 17.2459 15.6653C17.1973 15.7348 17.1628 15.8132 17.1445 15.896L16.965 16.1485L16.996 16.1174L16.8678 16.3037L16.8894 16.2821L16.7436 16.4441L16.7517 16.432C16.7125 16.4819 16.672 16.5305 16.6329 16.5791L16.4547 16.9098L16.4668 16.9206C16.4181 16.9306 16.3734 16.9548 16.3383 16.9901C16.3032 17.0254 16.2794 17.0703 16.2697 17.1191L15.9998 17.0961C16.0349 14.3503 15.8364 11.6073 16.07 8.86554Z" fill="#AF3830"/>
<path d="M16.6325 16.571C16.6717 16.5224 16.7122 16.4738 16.7513 16.4238C16.7335 16.4247 16.7161 16.4294 16.7001 16.4375C16.6842 16.4456 16.6702 16.457 16.659 16.4708C16.6478 16.4847 16.6397 16.5008 16.6351 16.5181C16.6305 16.5353 16.6296 16.5534 16.6325 16.571Z" fill="#AF3830"/>
<path d="M42.9746 43.9492L43.3472 43.8399C43.2809 43.8261 43.2122 43.8289 43.1473 43.848C43.0823 43.8671 43.023 43.9018 42.9746 43.9492Z" fill="#AF3830"/>
<path d="M29.3047 57.6093L29.6408 57.724C29.6 57.6768 29.5473 57.6413 29.4883 57.6212C29.4292 57.601 29.3659 57.5969 29.3047 57.6093Z" fill="#AF3830"/>
<path d="M40.4755 15.3816C40.379 15.3722 40.2816 15.3821 40.1889 15.4106C40.0962 15.4391 40.0101 15.4857 39.9355 15.5476C40.1245 15.5112 40.3243 15.522 40.4755 15.3816Z" fill="#AF3830"/>
<path d="M50.3659 34.1903C51.2866 33.2129 51.2609 33.2278 50.042 32.7647C49.479 32.5515 49.0875 32.6298 48.6596 33.0455C48.2324 33.4466 47.7682 33.8064 47.2732 34.1201C44.0725 36.2516 40.4533 37.0454 36.6978 37.3761C33.8724 37.623 31.0266 37.4868 28.2377 36.9712C24.5078 36.2962 21.0317 35.0583 18.182 32.4354C18.0092 32.2747 17.8378 32.1438 17.5853 32.2275C17.1453 32.3733 16.6782 32.4489 16.2246 32.7202C17.4979 34.2228 19.0317 35.4836 20.7523 36.442C27.7544 40.261 35.1116 40.7348 42.6983 38.6275C45.6155 37.8176 48.2519 36.4298 50.3659 34.1903Z" fill="#AF3830"/>
<path d="M31.352 41.2655C31.2886 41.4666 31.487 41.63 31.622 41.7785C32.5967 42.876 34.5379 42.8584 35.5368 41.7312C35.6462 41.607 35.8581 41.4936 35.7501 41.2898C35.6651 41.1318 35.4666 41.198 35.3155 41.1966C34.7093 41.1966 34.1005 41.1966 33.4984 41.1966V41.2169C32.9585 41.1926 32.4185 41.1561 31.8853 41.1507C31.699 41.1467 31.433 41.0049 31.352 41.2655Z" fill="#AF3830"/>
<path d="M12.0279 53.4418C12.1629 53.4607 12.2979 53.4931 12.4248 53.5215C15.3879 54.137 17.4101 55.9946 18.9045 58.5014C20.8835 61.8101 21.7313 65.4738 22.1443 69.2577C22.2078 69.8382 22.3144 70.2756 22.9692 70.4524C23.3844 70.5738 23.7522 70.8203 24.0221 71.1584C24.4271 71.6714 24.7646 71.8645 25.1709 71.1584C25.3249 70.9348 25.5342 70.7548 25.7784 70.636C26.1726 70.416 26.2468 70.1109 26.2266 69.6911C26.0916 66.8292 25.5867 64.0213 25.0562 61.2161C24.5459 58.5162 23.9006 55.8393 24.1706 53.0665C24.4001 50.7109 25.2101 48.6225 26.8516 46.8352C29.7391 43.6899 35.3171 43.7614 38.3166 45.7823C41.7023 48.0637 42.6526 51.421 42.3286 55.2602C42.1936 56.8018 41.871 58.3259 41.6159 59.85C41.1326 62.7335 40.7155 65.6237 40.49 68.5409C40.4117 69.5574 40.4401 70.4065 41.5794 70.8439C41.9277 70.9789 42.1761 71.5769 42.4731 71.5783C42.7701 71.5796 42.9996 70.9465 43.3398 70.8344C44.4089 70.4821 44.4346 69.6195 44.5196 68.7542C44.5358 68.5976 44.5479 68.441 44.5668 68.2844C44.9853 64.9366 45.4673 61.6009 46.7106 58.4299C47.8337 55.5693 49.7304 53.5849 52.8528 52.9356C53.413 52.8182 54.2108 53.2123 54.4916 52.5846C54.7184 52.0784 54.5375 51.3913 54.5375 50.7838H54.5294C54.5294 50.3788 54.5429 49.9738 54.5294 49.5689C54.5105 49.1423 54.4633 48.717 54.4268 48.2918C54.0718 44.1191 53.0013 40.1625 50.894 36.5136C50.6659 36.1181 50.5417 36.0047 50.1353 36.3597C48.1442 38.1025 45.7764 39.1946 43.2898 39.9708C41.4414 40.5309 39.5423 40.9075 37.6201 41.0953C37.3784 41.1196 37.1597 41.1047 37.0652 41.4409C36.694 42.7584 35.6829 43.3497 34.4301 43.5252C32.9452 43.7331 31.5413 43.5414 30.5018 42.2967C30.275 42.0462 30.1129 41.744 30.0293 41.4166C29.9497 41.0116 29.7202 40.9306 29.3827 40.886C27.5396 40.6194 25.727 40.1731 23.9708 39.5537C21.3692 38.6802 18.9739 37.2836 16.9322 35.4498C16.2991 34.8815 16.3045 34.8788 15.832 35.5956C12.5463 40.5783 11.0816 46.1184 10.8372 52.0217C10.7832 53.269 10.8129 53.269 12.0279 53.4418ZM50.3959 46.6422C50.3297 47.0472 50.2406 47.5318 49.6386 47.5979C49.2673 47.6384 48.7125 46.923 48.7557 46.4343C48.7989 45.9456 48.9258 45.4893 49.5346 45.4704C50.0004 45.4596 50.4067 45.9888 50.3986 46.6422H50.3959ZM48.641 42.3669C49.131 42.375 49.5252 42.8502 49.5346 43.4469C49.5441 44.0436 49.0729 44.6699 48.6288 44.5835C48.0524 44.4728 47.9376 43.9531 47.9066 43.4563C47.8715 42.8124 48.2063 42.3548 48.6437 42.3669H48.641ZM48.3912 49.1733C48.3426 49.6337 48.1212 49.9941 47.6056 50.0278C47.1479 50.0589 46.8091 49.6094 46.8307 48.9614C46.8766 48.5672 47.0264 48.1514 47.5934 48.119C48.0335 48.0974 48.4493 48.6455 48.3939 49.1733H48.3912ZM45.6643 44.4823C46.0369 44.219 46.6579 44.4094 47.1088 44.9251C47.1277 45.0101 47.1479 45.0952 47.1668 45.1802C47.1601 45.3638 47.1533 45.5474 47.1452 45.731L47.1196 45.866C47.0696 45.9402 47.017 46.0118 46.9711 46.086C46.5108 46.8285 46.0005 46.815 45.5564 46.0482C45.3012 45.5946 45.3633 44.6969 45.667 44.4823H45.6643ZM44.0768 43.5211C43.8404 43.6428 43.5965 43.7492 43.3465 43.8397L42.9753 43.9491H42.9415L43.0765 44.2271C43.2444 44.2858 43.4157 44.334 43.5895 44.3716C43.8838 44.4188 44.1565 44.5511 44.1065 44.8603C44.0566 45.1694 43.7258 45.1802 43.4477 45.1842C43.1559 45.1958 42.8647 45.1499 42.5905 45.0493C42.384 44.9696 42.0938 44.9237 42.06 44.6929C42.0182 44.3999 42.3826 44.4539 42.5352 44.3108L43.0752 44.2312L42.9402 43.9531L42.5352 44.0247L42.1302 44.0085L42.0263 43.8735C42.1937 43.1796 43.5044 42.6653 44.1052 43.054C44.3644 43.2282 44.2807 43.4023 44.0795 43.5211H44.0768ZM44.2024 41.3693C44.3171 41.4463 44.4238 41.5327 44.3779 41.6906C44.3481 41.7764 44.2939 41.8516 44.222 41.907C44.15 41.9624 44.0634 41.9956 43.9729 42.0024C43.2933 42.1184 42.6245 42.2909 41.9736 42.5181C42.0884 41.453 43.4005 40.832 44.2051 41.3693H44.2024ZM40.9031 45.0425C40.5631 45.2181 40.1881 45.3155 39.8056 45.3273C39.6342 45.3071 39.4101 45.3867 39.3345 45.168C39.2589 44.9494 39.3871 44.7752 39.5613 44.6551C39.9083 44.4023 40.3406 44.2957 40.7654 44.3581C40.9517 44.3851 41.1272 44.4323 41.1812 44.6389C41.2392 44.867 41.0597 44.9588 40.9031 45.0425ZM40.9801 42.2508C41.0867 42.3413 41.1947 42.4439 41.1312 42.5883C41.03 42.8205 40.8275 42.9002 40.5791 42.8853C40.2659 42.8664 39.9528 42.8475 39.6342 42.8408C39.3156 42.834 39.0105 42.8408 38.6501 42.8408C39.0348 41.9498 40.2889 41.6609 40.9801 42.2508ZM38.7743 43.6615C39.0874 43.4158 39.4614 43.3645 39.8542 43.3119C40.1755 43.4469 40.7749 43.2646 40.8059 43.675C40.837 44.0854 40.247 43.9869 39.9217 44.08C39.6172 44.1503 39.3075 44.1954 38.9956 44.215C38.8606 44.2285 38.7176 44.2406 38.6514 44.08C38.6164 44.0074 38.6096 43.9244 38.6323 43.8471C38.655 43.7698 38.7056 43.7037 38.7743 43.6615ZM17.9474 50.1291C17.6153 50.202 17.1739 49.5662 17.1806 49.0883C17.1887 48.5753 17.5572 48.1204 17.9636 48.173C18.513 48.2446 18.6966 48.6468 18.6912 49.1396C18.6858 49.6323 18.4496 50.0197 17.9474 50.1291ZM23.0556 45.2693C22.8639 45.2693 22.6168 45.2814 22.5439 45.0452C22.4589 44.7752 22.6276 44.5511 22.8369 44.4229C23.443 44.0517 24.0856 44.0179 24.8024 44.3108C24.3393 44.9804 23.7724 45.2855 23.0556 45.2666V45.2693ZM27.5347 44.6767C27.5117 44.8778 27.3322 44.8846 27.185 44.9224C26.7728 45.0299 26.3377 45.0111 25.9363 44.8684C25.5462 44.7334 25.3883 44.4809 25.8189 44.1704C26.2105 44.0862 26.6137 44.0697 27.0109 44.1218L27.3241 44.3621C27.4307 44.4404 27.5522 44.5214 27.5347 44.674V44.6767ZM27.5509 43.7223L27.4159 43.7344H26.8691C26.8505 43.7216 26.8283 43.7147 26.8057 43.7147C26.783 43.7147 26.7609 43.7216 26.7422 43.7344H26.4723C26.2441 43.6749 26.0017 43.7074 25.7973 43.8249C25.283 43.8019 25.3032 43.536 25.5448 43.2201C25.885 42.7733 27.4699 42.6477 27.8505 43.0648C28.1772 43.4347 27.8802 43.6048 27.5522 43.7196L27.5509 43.7223ZM22.2861 41.1574C22.3239 40.801 22.683 40.7956 22.9219 40.7942C23.6414 40.7942 24.2934 41.0426 24.7443 41.615C24.9981 41.9363 25.1426 42.0281 25.53 41.7797C26.1537 41.3747 27.1081 41.4895 27.5549 41.9147C27.6899 42.0497 27.7911 42.1847 27.7371 42.3858C27.6953 42.5357 27.6022 42.564 27.3079 42.5411C26.5465 42.4169 25.8135 42.3777 25.1048 42.6761C25.0446 42.7075 24.9747 42.7151 24.9092 42.6973C24.8436 42.6796 24.7872 42.6378 24.7511 42.5802C24.2921 41.9241 23.5658 41.835 22.8706 41.6758C22.5763 41.6002 22.2415 41.5448 22.2874 41.1533L22.2861 41.1574ZM22.44 42.5735C22.5865 42.5324 22.7374 42.5093 22.8895 42.5046C23.6225 42.4749 24.091 42.8273 24.6147 43.0027C24.6473 43.0111 24.6777 43.0266 24.7036 43.048C24.7296 43.0694 24.7505 43.0962 24.765 43.1266C24.7794 43.157 24.7869 43.1902 24.7871 43.2239C24.7873 43.2575 24.78 43.2908 24.7659 43.3213C24.7474 43.4226 24.6926 43.5136 24.6119 43.5774C24.5312 43.6413 24.43 43.6736 24.3272 43.6683C23.6417 43.5824 22.9744 43.3868 22.3509 43.0891C22.0282 42.9353 22.1241 42.6761 22.4386 42.5694L22.44 42.5735ZM20.083 46.572C19.9952 46.9176 19.9129 47.3482 19.3905 47.359C18.949 47.3685 18.5103 46.819 18.5238 46.3263C18.5346 45.87 18.7209 45.5352 19.2136 45.4974C19.6389 45.4596 20.0965 46.0185 20.0816 46.5679L20.083 46.572ZM18.1323 41.5934C18.5535 41.5489 18.9423 41.9984 18.9342 42.5384C18.9018 42.9177 18.7708 43.3011 18.2808 43.3659C17.9028 43.4145 17.4641 42.8529 17.4641 42.3669C17.4614 41.9133 17.6868 41.6366 18.131 41.5894L18.1323 41.5934ZM16.5124 44.2082C17.0699 44.2082 17.3224 44.5147 17.3102 45.0574C17.3197 45.6594 16.9295 46.1994 16.4746 46.1481C15.8901 46.0833 15.7389 45.6257 15.7065 45.1316C15.6727 44.5525 15.9967 44.1988 16.5178 44.2042L16.5124 44.2082Z" fill="#AF3830"/>
<path d="M73.1334 32.4543C71.9914 29.5627 68.6502 27.9172 65.2673 28.5071C61.5887 29.1483 58.9793 32.0169 58.4434 35.9614C58.0559 38.822 58.4285 41.6082 59.1885 44.3621C59.7285 46.3114 60.2928 48.2553 60.4224 50.2883C60.583 52.8087 60.2968 55.2291 58.7592 57.3499C58.6979 57.4295 58.6566 57.5226 58.6387 57.6215C58.6209 57.7204 58.627 57.8222 58.6566 57.9182C58.8773 58.8366 59.0174 59.7725 59.0751 60.7153C59.3549 63.9752 58.8518 67.2548 57.6077 70.281C57.0421 71.6606 56.2578 72.9052 55.3398 74.1188C55.5329 74.0783 55.73 74.05 55.9203 73.996C58.1977 73.3548 60.0471 72.044 61.6063 70.3053C64.3061 67.2949 66.0071 63.758 66.9588 59.8581C67.5993 57.2543 67.7685 54.5568 67.4583 51.8934C67.0722 48.5955 66.0651 45.4515 65.0203 42.3183C64.2737 40.0599 63.9147 37.765 64.5545 35.4215C64.8745 34.247 65.5116 33.2818 66.8062 32.9673C67.7242 32.7445 68.5949 33.1023 69.008 33.865C69.3819 34.5508 69.1997 35.2784 68.4842 35.9628C68.4032 36.0411 68.3195 36.1167 68.2412 36.1963C67.3138 37.1413 67.5406 38.309 68.7879 38.7612C70.1068 39.2391 71.2421 38.7612 72.1533 37.8163C73.6612 36.28 73.9083 34.4171 73.1334 32.4543Z" fill="#AF3830"/>
<path d="M38.317 70.0501C38.9339 70.0001 39.1161 69.772 39.1134 69.1929C39.1134 68.5436 39.1917 67.8929 39.2484 67.2436C39.5764 63.2288 40.4323 59.2911 40.9777 55.3088C41.326 52.7695 40.9331 50.3545 39.2295 48.3282C36.9846 45.6553 32.5325 44.8994 29.4209 46.6097C27.7469 47.5277 26.6103 48.8817 26.0703 50.7244C25.803 51.3626 25.6442 52.0411 25.6005 52.7317C25.5857 52.8735 25.5695 53.0152 25.5546 53.1556C25.4353 54.0465 25.4403 54.9497 25.5695 55.8393L25.6383 56.2551C25.6703 57.1551 25.8062 58.0483 26.0433 58.9171V58.9468C26.1122 59.3046 26.1783 59.6623 26.2485 60.0268C26.2795 60.1618 26.3106 60.3076 26.343 60.448C26.3356 60.8107 26.4166 61.1698 26.5792 61.4942C26.5557 61.542 26.5462 61.5955 26.5516 61.6485C26.5571 61.7015 26.5775 61.7519 26.6103 61.7939C26.6251 61.9289 26.64 62.0571 26.6535 62.188C26.6818 62.2812 26.7088 62.3757 26.7372 62.4688C26.7952 62.8266 26.8546 63.1829 26.9127 63.5393L26.9707 63.8188C26.9991 63.9929 27.0261 64.1684 27.0531 64.3439C27.0774 64.4397 27.1003 64.5342 27.1246 64.6287C27.1449 64.8056 27.1638 64.9824 27.184 65.1606L27.2366 65.4373C27.2717 65.746 27.3073 66.0543 27.3433 66.3621C27.3608 66.4593 27.3797 66.5564 27.3986 66.6536C27.4148 66.8764 27.4324 67.0991 27.4486 67.3205C27.4183 67.4693 27.4437 67.624 27.5201 67.7552C27.5417 68.0144 27.5642 68.2736 27.5876 68.5328L27.6902 69.7585C27.6767 69.8571 27.7118 69.9191 27.8185 69.9259L27.809 69.9124C28.0218 69.997 28.2572 70.0061 28.4759 69.9381L28.9241 69.9799L29.8528 70.154C30.0837 70.2404 30.3159 70.3228 30.544 70.4132C32.3097 71.1044 33.256 72.6109 33.0252 74.3578C33.0036 74.5211 32.8551 74.7708 33.0832 74.8275C33.3883 74.8995 33.7055 74.9027 34.012 74.837C34.2253 74.7897 34.1227 74.5292 34.1051 74.3605C33.9971 73.3048 34.3508 72.4084 35.0704 71.6606C35.9505 70.7291 37.044 70.1635 38.317 70.0501ZM25.8327 56.9071C25.8881 57.1258 25.934 57.3458 25.9677 57.5672C25.9353 57.3458 25.8881 57.1258 25.8327 56.9071ZM37.534 65.6115C37.4813 65.9193 37.2141 65.9611 36.963 65.953C36.153 65.9287 35.3552 65.9679 34.6073 66.3283L34.5952 66.3405L34.1902 66.4755V66.4377C33.9202 66.489 33.7515 66.4201 33.7542 66.1123L33.8892 65.7964L34.1132 65.571L34.7126 65.2335L35.0704 65.0526H35.0987C35.1675 65.0614 35.2374 65.0546 35.3032 65.0329C35.3691 65.0112 35.4293 64.975 35.4794 64.9271H35.5199C36.0747 64.9014 36.639 64.8069 37.1547 65.1201C37.3504 65.2308 37.5799 65.3402 37.534 65.6115ZM31.4485 66.1987V66.2136C31.3984 66.1631 31.3374 66.1248 31.2703 66.1014C31.2032 66.078 31.1316 66.0702 31.061 66.0786H31.0354C30.8909 65.9436 30.7087 65.9436 30.5265 65.9436C30.4472 65.8929 30.3586 65.8586 30.2659 65.8426C30.1731 65.8266 30.0782 65.8293 29.9865 65.8504C29.8353 65.8113 29.6827 65.7789 29.5329 65.733C29.298 65.6614 29.0213 65.598 28.9929 65.3091C28.9578 64.9919 29.2697 64.95 29.4708 64.8285C29.8557 64.7591 30.2489 64.7482 30.6371 64.7961C30.6758 64.8336 30.7226 64.8616 30.7739 64.878C30.8252 64.8944 30.8796 64.8987 30.9328 64.8906C31.3513 65.1444 31.844 65.2619 32.2247 65.5872C32.306 65.649 32.3684 65.7323 32.4049 65.8277C32.4414 65.9231 32.4505 66.0269 32.4312 66.1272C32.3867 66.439 32.1315 66.3175 31.9587 66.3675C31.8143 66.2519 31.6333 66.192 31.4485 66.1987ZM29.5882 66.8278C29.7426 66.7342 29.9128 66.6696 30.0904 66.6374C29.9126 66.6691 29.7423 66.7336 29.5882 66.8278ZM31.979 64.3398C31.1947 63.7756 30.2052 63.8107 29.3372 63.484C28.9605 63.0237 29.2535 62.8293 29.6652 62.7672C30.868 62.5863 31.9601 62.8374 32.7579 63.8147C33.0738 64.2022 33.2169 64.1495 33.5125 63.835C33.827 63.4795 34.2299 63.2134 34.6803 63.0638C35.1308 62.9142 35.6127 62.8864 36.0774 62.9832C36.2734 63.024 36.4605 63.0999 36.6295 63.2072C36.801 63.3139 36.9549 63.4772 36.9238 63.7013C36.8874 63.9632 36.6376 63.9605 36.45 63.9889C36.0086 64.055 35.5631 64.0955 35.1189 64.1468L34.9907 64.1941L34.6046 64.3291L34.5952 64.3209L34.2239 64.4816L34.1753 64.491L33.8676 64.6179C33.1642 65.0094 32.5689 64.7637 31.979 64.3398ZM31.979 57.8169C33.0292 57.1069 34.7896 57.1298 35.8601 57.8831C36.068 58.0302 36.3825 58.1531 36.2084 58.5014C36.0585 58.797 35.7885 58.6782 35.5563 58.6134C34.4906 58.3522 33.3761 58.3647 32.3165 58.6499C32.1153 58.7052 31.848 58.7929 31.7346 58.5068C31.6213 58.2206 31.7225 57.9911 31.9803 57.8169H31.979ZM31.2959 56.3523C31.1204 56.3455 30.9112 56.3388 30.8572 56.1322C30.8126 55.9621 30.9665 55.8474 31.0894 55.7542C31.693 55.2789 32.4448 55.0313 33.2128 55.055C33.5596 55.0319 33.9072 55.0825 34.233 55.2035C34.5587 55.3245 34.8551 55.5131 35.1027 55.7569C35.2458 55.8919 35.4173 56.0512 35.2958 56.2767C35.1743 56.5021 34.9718 56.4117 34.8125 56.3631C33.7758 56.0188 32.7363 56.1268 31.6942 56.3172C31.5635 56.3433 31.4304 56.3551 31.2973 56.3523H31.2959ZM33.09 59.5111L33.4815 59.4558H34.3076L34.5682 59.4882C34.8827 59.6502 35.208 59.7987 35.5131 59.9809C35.7048 60.0956 35.8884 60.2657 35.7669 60.529C35.6589 60.7612 35.42 60.7463 35.2391 60.6802C34.3873 60.371 33.5301 60.4426 32.6648 60.5965C32.5203 60.6221 32.3259 60.691 32.2382 60.5317C32.1504 60.3724 32.3178 60.2536 32.3934 60.1267C32.5595 59.8311 32.8524 59.7015 33.09 59.5111ZM34.4399 59.4193C34.4621 59.4223 34.4836 59.4292 34.5034 59.4396C34.4865 59.4302 34.4683 59.4233 34.4494 59.4193H34.4399ZM39.2187 58.5527C38.6274 58.8861 37.9295 58.7956 37.3167 59.044C37.1925 59.094 37.0467 59.094 36.994 58.9185C36.9713 58.8433 36.9694 58.7634 36.9887 58.6873C37.008 58.6112 37.0476 58.5418 37.1034 58.4865C37.5304 58.0563 38.1041 57.8032 38.7098 57.7778C38.8853 57.8114 39.0585 57.8565 39.2282 57.9128C39.3153 57.9364 39.3926 57.9872 39.4487 58.0579C39.5048 58.1286 39.5368 58.2154 39.54 58.3056C39.5562 58.5419 39.351 58.4825 39.2282 58.554L39.2187 58.5527ZM39.6156 56.1322C38.5865 56.1382 37.5673 56.3322 36.6079 56.7046C36.4729 56.7572 36.3379 56.8004 36.2515 56.656C36.1652 56.5115 36.2407 56.3941 36.3069 56.2767C36.6403 55.6854 37.1763 55.4046 37.8229 55.2939C38.0416 55.2575 38.2603 55.2156 38.4249 55.1846C38.9649 55.2116 39.4253 55.3007 39.7749 55.6516C40.003 55.8703 40.03 56.1241 39.625 56.1322H39.6156ZM39.1647 50.7851C39.2835 50.8783 39.459 50.9727 39.3807 51.159C39.3159 51.3129 39.1418 51.3561 38.9757 51.3602C38.8187 51.3653 38.6615 51.3526 38.5073 51.3224C37.6406 51.1334 36.7767 51.0375 35.9114 51.3224C35.7615 51.3723 35.6036 51.425 35.5064 51.2306C35.4564 51.1403 35.4438 51.034 35.4714 50.9346C35.4989 50.8352 35.5643 50.7505 35.6535 50.6987C36.152 50.3237 36.765 50.1329 37.3882 50.1587C38.0358 50.1509 38.6652 50.3728 39.1647 50.7851ZM28.9295 48.146C29.4405 47.7267 30.0966 47.5268 30.7546 47.5898C31.2633 47.566 31.7693 47.6767 32.2215 47.9109C32.6737 48.1451 33.0561 48.4944 33.3303 48.9235C33.5719 49.2826 33.7353 49.2921 34.0295 48.96C34.7558 48.1581 35.6616 47.7072 36.774 47.7545C37.2514 47.7721 37.7031 47.975 38.0335 48.3201C38.2724 48.5564 38.2063 48.7251 37.8985 48.7777C37.5907 48.8304 37.3153 48.8196 37.0264 48.856C35.9559 48.991 34.9678 49.3204 34.1915 50.1223C33.985 50.3369 33.8433 50.4503 33.5679 50.1223C32.681 49.0626 31.4768 48.7062 30.135 48.7534C29.7759 48.7656 29.4222 48.8385 29.0631 48.7426C28.6352 48.6252 28.6095 48.4106 28.9295 48.146ZM33.2061 51.4209C33.0549 51.5978 32.9253 51.4209 32.8011 51.3575C31.5133 50.7217 31.0961 50.6218 29.9784 50.692C29.8668 50.7047 29.7545 50.7101 29.6422 50.7082C29.348 50.6852 28.9241 50.8742 28.8134 50.4895C28.7027 50.1047 29.1036 49.9211 29.3912 49.7618C30.5602 49.1125 32.631 49.8212 33.171 51.0429C33.225 51.1671 33.3073 51.3021 33.2061 51.4209ZM27.431 52.5252C27.9184 51.9488 28.5353 51.699 29.2224 51.7895C30.1903 51.7571 30.9638 52.0594 31.57 52.7344C31.848 53.0476 32.0411 53.1745 32.4893 52.887C33.5827 52.1877 35.3133 52.3821 36.2556 53.2649C36.6012 53.5889 36.7051 53.5417 36.9657 53.1745C37.5637 52.3294 39.0527 52.2552 39.8005 52.9747C39.8991 53.0706 40.0111 53.161 39.9423 53.3135C39.8842 53.4404 39.7465 53.4067 39.6453 53.404C38.6666 53.3783 37.7135 53.458 36.8604 54.0074C36.6511 54.1424 36.4729 53.9831 36.2893 53.9224C34.9165 53.4769 33.5463 53.3095 32.1909 53.9696C32.1459 53.9989 32.0918 54.0107 32.0386 54.003C31.9855 53.9953 31.9369 53.9686 31.902 53.9278C30.7789 52.9464 29.4155 52.8978 28.0318 52.9342C27.8968 52.9342 27.7618 52.9545 27.6268 52.9531C27.5215 52.9531 27.3905 53.0058 27.3257 52.8816C27.2461 52.7371 27.3446 52.6291 27.431 52.5252ZM26.6967 54.9092C26.6967 54.5406 27.1017 54.5555 27.3716 54.492C27.6416 54.4286 27.9022 54.4124 28.0763 54.3881C28.9119 54.4002 29.5329 54.6581 29.9662 55.2791C30.0742 55.4343 30.1863 55.653 30.0189 55.8366C29.8515 56.0202 29.6692 55.8703 29.5248 55.7947C28.8498 55.4464 28.1303 55.3236 27.3824 55.2858C27.1044 55.2737 26.6994 55.2926 26.6967 54.9092ZM27.5471 57.3971L27.4202 57.3391L27.3041 57.1933C27.2974 57.0583 27.292 56.9233 27.2852 56.7883C28.2991 55.9918 30.3685 56.4805 30.8815 57.6374C30.9368 57.7643 30.9827 57.8939 30.8815 58.014C30.7681 58.1571 30.6398 58.0545 30.5197 58.014C30.2268 57.9168 29.9325 57.8156 29.6395 57.717L29.3102 57.609C29.1563 57.4989 28.965 57.4543 28.7783 57.4849C28.3652 57.3715 27.9602 57.3917 27.5471 57.3931V57.3971ZM28.048 59.4139C27.8752 59.395 27.6659 59.3329 27.7159 59.0859C27.7293 58.9767 27.774 58.8737 27.8447 58.7894C27.9154 58.705 28.0089 58.643 28.1141 58.6107C28.3757 58.5678 28.6401 58.5452 28.9052 58.5432C30.1755 58.5891 30.9827 59.4247 31.6915 60.4048C31.7534 60.4723 31.7868 60.5611 31.7848 60.6526C31.7828 60.7442 31.7455 60.8315 31.6807 60.8961C31.5308 61.0311 31.3823 60.9151 31.2608 60.8233C30.2983 60.0997 29.2724 59.5341 28.048 59.4099V59.4139ZM33.5166 68.3991L33.1899 68.4207C33.2695 68.8136 32.9833 68.7002 32.8267 68.6462C31.7377 68.2495 30.6221 67.9297 29.4884 67.689C29.0429 67.6027 29.0982 67.2841 29.3345 66.9776L29.5963 66.8359C30.0363 66.7679 30.4846 66.7756 30.922 66.8588L30.899 66.8426L31.3256 66.9776C32.0397 67.3448 32.8686 67.5622 33.1953 68.4275L33.522 68.4059C33.522 68.3316 33.522 68.2587 33.5152 68.1845C33.5841 68.0832 33.6502 67.9833 33.7231 67.8834C33.8298 67.7943 33.9377 67.7066 34.0457 67.6135L34.2185 67.4785L34.1875 67.5095L34.4575 67.3381H34.4507L34.6667 67.2031L34.6964 67.222L34.718 67.1923L34.9327 67.0694L34.9651 67.0856L34.988 67.0573C35.0347 67.0646 35.0826 67.0574 35.1251 67.0366C35.1676 67.0159 35.2027 66.9825 35.2256 66.9412L35.2607 66.9506C35.5712 66.9506 35.8817 66.9182 36.1908 66.9371C36.2929 66.9327 36.393 66.9663 36.4718 67.0313C36.5506 67.0964 36.6025 67.1884 36.6174 67.2895C36.6565 67.5446 36.5431 67.7606 36.3096 67.8173C35.3849 68.0333 34.498 68.4531 33.5166 68.3951V68.3991Z" fill="#AF3830"/>
<path d="M16.199 73.6625C16.2083 73.4832 16.2543 73.3077 16.334 73.1468C17.0387 71.4229 18.317 70.4051 20.157 70.1392C20.6754 70.0649 20.8158 69.8989 20.7321 69.367C20.5606 68.287 20.5053 67.1787 20.261 66.1015C19.5333 62.8738 18.5087 59.7689 16.2138 57.2702C14.7289 55.6503 12.8579 54.8335 10.4874 54.7498C9.88802 54.5852 9.36829 54.9415 8.96196 55.5598C8.82697 55.7663 8.65687 55.9513 8.52863 56.1605C5.88275 60.4803 5.73965 64.9108 8.15875 69.3413C9.68283 72.1317 12.0547 73.8771 15.2689 74.3577C15.8359 74.4387 16.2314 74.378 16.199 73.6625ZM17.8338 64.6814C18.4331 64.6665 18.8651 65.0863 18.9218 65.8018C18.9961 66.74 18.5371 67.5257 18.1416 68.3235C18.0336 68.5408 17.8864 68.4585 17.7906 68.3032C17.3478 67.5527 16.9347 66.7886 16.8848 66.0988C16.8888 65.1133 17.2114 64.6962 17.8338 64.6814ZM10.8141 62.9386C10.5913 63.5825 10.3888 64.2885 9.70308 64.6044C9.53703 64.6827 8.94171 63.1991 8.93901 62.6699C8.93901 62.1732 9.04566 61.7101 9.50869 61.455C9.65935 61.3713 9.83325 61.3392 10.0039 61.3636C10.1745 61.3879 10.3324 61.4675 10.4536 61.59C10.6452 61.7503 10.782 61.9664 10.8449 62.2081C10.9078 62.4499 10.8938 62.7052 10.8046 62.9386H10.8141ZM12.0952 69.5776C11.5012 69.5249 11.5687 69.0093 11.5066 68.6691C11.4971 67.9023 11.9683 67.3097 12.538 67.3407C13.0779 67.3704 13.2426 67.7579 13.2642 68.2236C13.2831 68.8311 12.6176 69.6235 12.0857 69.5776H12.0952ZM14.6506 64.167C14.2618 63.627 13.8312 63.1046 13.6436 62.4418C13.4856 61.8816 13.541 61.3618 13.9824 60.9569C14.1087 60.841 14.2694 60.7697 14.4401 60.7539C14.6107 60.738 14.7819 60.7785 14.9273 60.8691C15.4066 61.1513 15.5861 61.6345 15.6023 62.1664C15.543 62.8398 15.3666 63.4976 15.0812 64.1103C14.9732 64.3587 14.8153 64.41 14.6412 64.167H14.6506Z" fill="#AF3830"/>
<path d="M47.9773 58.8349C46.7043 62.0235 46.3102 65.393 45.9092 68.7597C45.7742 69.9301 45.7999 69.9328 46.9797 70.1447C47.0459 70.1569 47.1147 70.1623 47.1795 70.1758C49.1774 70.5808 50.8635 72.0779 51.1186 73.7842C51.2091 74.3863 51.4278 74.3998 51.8949 74.2796C53.6889 73.8179 54.9268 72.6732 55.8097 71.1032C57.2649 68.5073 57.7522 65.6737 57.8049 63.341C57.8184 59.6193 57.0881 57.026 55.6531 54.9431C55.5377 54.7529 55.3752 54.5957 55.1813 54.4867C54.9873 54.3777 54.7686 54.3205 54.5461 54.3208C51.5479 54.1858 49.1815 55.8165 47.9773 58.8349ZM48.1717 64.3427C48.1231 64.0727 48.0867 63.8135 48.0462 63.5476C48.0349 63.2292 48.1105 62.9137 48.2649 62.635C48.5618 62.1666 49.1464 61.9601 49.5379 62.1909C49.9604 62.4325 50.1129 63.0684 49.8362 63.5665C49.5595 64.0646 49.1072 64.3508 48.6104 64.5789C48.3756 64.6869 48.2176 64.5965 48.1717 64.3427ZM50.2155 67.1938C50.1885 67.8498 49.5406 68.4587 48.875 68.4398C48.2095 68.4209 48.4201 67.9106 48.358 67.6028C48.385 66.7456 48.848 66.1719 49.4501 66.1948C49.9104 66.2124 50.2358 66.6389 50.2155 67.1938ZM54.4948 68.4087C54.2154 69.3105 53.45 69.7587 52.6724 70.1717C52.4524 70.2892 52.4024 70.115 52.4024 69.9423C52.4024 69.7182 52.4024 69.4954 52.4024 69.2673C52.4024 68.7071 52.4362 68.1482 52.7507 67.6555C53.0531 67.1843 53.4864 66.9643 54.0089 67.2086C54.4962 67.4381 54.646 67.9187 54.4948 68.4087ZM53.7294 63.8419C53.2583 64.0903 52.6495 64.5749 52.2809 64.3063C51.9569 64.0687 52.3943 63.3761 52.5077 62.8875C52.6017 62.5156 52.7794 62.1702 53.0274 61.8777C53.2974 61.5389 53.639 61.3377 54.0858 61.4984C54.2762 61.5619 54.4408 61.6857 54.5545 61.8511C54.6683 62.0165 54.7251 62.2144 54.7162 62.415C54.6987 63.179 54.2694 63.5489 53.7294 63.8392V63.8419Z" fill="#AF3830"/>
<path d="M57.1181 75.9495C55.1445 75.7618 53.1655 75.8901 51.1878 75.8671C51.0112 75.8597 50.8349 75.888 50.6695 75.9504C50.5041 76.0128 50.353 76.108 50.2253 76.2303C48.2908 77.9568 44.9713 78.3902 42.8492 76.5974C42.6886 76.4624 42.5914 76.4219 42.4051 76.5772C40.4801 78.1742 38.3539 78.0972 36.2818 77.0483C35.26 76.5069 34.1082 76.2593 32.9542 76.3329C32.842 76.3396 32.7294 76.3356 32.618 76.3207C32.4748 76.3043 32.3296 76.3177 32.1919 76.3602C32.0541 76.4028 31.9266 76.4734 31.8175 76.5677C29.7062 78.1445 26.6999 78.1161 24.945 76.5367C24.7681 76.3774 24.6601 76.3882 24.4981 76.5367C22.6312 78.2619 19.0309 78.1715 16.9722 76.1722C16.8829 76.0875 16.7764 76.0232 16.6599 75.9836C16.5434 75.944 16.4197 75.93 16.2973 75.9427C15.0607 75.9522 13.8242 75.9549 12.5876 75.9603C12.1594 75.9478 11.7329 76.0212 11.3335 76.1763C10.209 76.646 9.98359 77.7408 10.8435 78.6061C11.3568 79.1161 12.009 79.4636 12.7186 79.6051C14.062 79.8867 15.4324 80.0184 16.8048 79.9979C22.5376 79.9979 28.2708 79.9979 34.0044 79.9979C39.6031 79.9979 45.2013 79.9979 50.799 79.9979C52.2607 79.9967 53.7212 79.9101 55.1728 79.7387C56.0179 79.6402 56.8602 79.5012 57.6351 79.0975C58.5558 78.6183 59.0768 77.8394 58.9364 77.0956C58.7961 76.3517 58.3452 76.0656 57.1181 75.9495Z" fill="#AF3830"/>
<path d="M45.9355 71.5135C44.4398 71.4406 43.5326 72.3086 43.3855 73.8611C43.2667 75.1287 44.0024 75.9305 45.4914 76.1465C45.7128 76.1789 45.9369 76.1965 46.1272 76.2181C47.0965 76.1776 47.9847 75.9697 48.7704 75.4432C49.8422 74.7237 49.9516 73.803 49.0755 72.8432C48.2372 71.9185 47.1316 71.5675 45.9355 71.5135Z" fill="#AF3830"/>
<path d="M36.2616 75.3176C37.5764 76.214 39.0222 76.4826 40.5558 75.9507C41.3725 75.6659 41.7235 75.1313 41.7424 74.2619C41.7775 72.5988 40.6543 71.4797 38.6753 71.4824C38.1354 71.5043 37.6073 71.6478 37.1305 71.9021C36.6537 72.1564 36.2404 72.515 35.9214 72.9512C35.3031 73.7679 35.4219 74.7452 36.2616 75.3176Z" fill="#AF3830"/>
<path d="M28.0785 71.4338C27.838 71.451 27.5986 71.4821 27.3617 71.527C26.4329 71.7349 25.7553 72.5718 25.6446 73.6167C25.5204 74.7952 25.7796 75.4742 26.6341 75.813C27.9179 76.322 29.199 76.3179 30.4584 75.6389C32.1499 74.7236 31.7517 72.8243 30.4733 72.0494C29.7862 71.6323 29.0275 71.4568 28.0785 71.4338Z" fill="#AF3830"/>
<path d="M20.7294 71.4947C20.208 71.528 19.6998 71.673 19.2394 71.9199C18.7789 72.1667 18.3769 72.5098 18.0606 72.9256C17.4342 73.7477 17.5206 74.6279 18.2388 75.2772C19.3768 76.3032 21.6933 76.4922 22.996 75.6822C23.2826 75.5236 23.5159 75.2837 23.6665 74.9928C23.8171 74.702 23.8783 74.373 23.8424 74.0474C23.7519 72.5935 22.5357 71.4866 20.7294 71.4947Z" fill="#AF3830"/>
<path d="M17.503 13.0975C18.89 11.4363 20.5549 10.0286 22.4235 8.93701C22.7583 8.74532 22.7111 8.54148 22.5815 8.27284C22.0621 7.14575 21.3088 6.14211 20.3716 5.32862C19.0041 4.16768 18.3089 4.38367 17.8324 6.13859C17.2128 8.42539 17.2816 10.7635 17.3019 13.1583C17.4288 13.1259 17.4801 13.1245 17.503 13.0975Z" fill="#AF3830"/>
<path d="M46.4966 9.43925C48.1989 10.395 49.6312 11.6815 50.9109 13.1475C51.0783 13.3392 51.1903 13.6052 51.571 13.7091C51.571 12.671 51.6169 11.6707 51.5616 10.6744C51.4765 9.15306 51.4036 7.61953 50.8083 6.18049C50.429 5.26388 49.9902 5.10054 49.1249 5.57302C47.883 6.24799 46.9947 7.2618 46.255 8.44434C45.9593 8.91682 46.0039 9.16116 46.4966 9.43925Z" fill="#AF3830"/>
<path d="M34.2188 64.475L34.5886 64.3144C34.5187 64.3106 34.4489 64.3232 34.3847 64.351C34.3205 64.3789 34.2637 64.4214 34.2188 64.475Z" fill="#AF3830"/>
<path d="M34.1934 66.4729L34.5983 66.3379C34.4498 66.3487 34.3054 66.3446 34.1934 66.4729Z" fill="#AF3830"/>
<path d="M33.8633 64.6111L34.1711 64.4842C34.1132 64.4767 34.0543 64.4845 34.0003 64.5067C33.9463 64.529 33.8991 64.565 33.8633 64.6111Z" fill="#AF3830"/>
<path d="M34.6035 64.3224L34.9896 64.1874C34.9191 64.1769 34.8471 64.1837 34.7799 64.2072C34.7126 64.2307 34.6521 64.2703 34.6035 64.3224Z" fill="#AF3830"/>
</svg>
