<svg width="80" height="80" viewBox="0 0 80 80" fill="none" xmlns="http://www.w3.org/2000/svg">
<g clip-path="url(#clip0_747_4806)">
<path d="M33.9708 48.0958C34.1837 48.0893 34.3863 48.0024 34.5378 47.8527C34.6894 47.7029 34.7786 47.5014 34.7877 47.2885C34.7877 46.8272 34.4235 46.4342 34.0146 46.4428C33.5468 46.4524 33.1602 46.902 33.1763 47.422C33.1859 47.8086 33.5351 48.1044 33.9708 48.0958Z" fill="#AF3830"/>
<path d="M32.271 49.579L32.2617 49.5686V49.5871L32.271 49.579Z" fill="#AF3830"/>
<path d="M32.2621 49.5664C32.2621 49.497 32.2749 49.4212 32.3528 49.4158C32.8526 49.3848 32.8067 49.072 32.7031 48.7398C32.6347 48.5199 32.5493 48.3052 32.4607 48.0991C32.4148 47.9923 32.3849 47.8417 32.2225 47.8556C32.0869 47.8674 32.0143 47.9752 31.9492 48.0852C31.7036 48.49 31.8264 49.0762 32.2621 49.5664Z" fill="#AF3830"/>
<path d="M36.1099 48.5039C36.1099 48.512 36.0995 48.5201 36.0938 48.5282L36.1192 48.512L36.1099 48.5039Z" fill="#AF3830"/>
<path d="M36.093 48.5264C35.4928 48.9258 34.8211 49.1255 34.1152 49.2258C34.8499 49.2034 35.6156 49.2664 36.093 48.5264Z" fill="#AF3830"/>
<path d="M46.7379 46.602C46.4175 46.5165 46.0972 46.5454 45.8676 46.8273C45.5632 47.1989 45.654 47.5812 45.8676 47.9582C46.2734 48.2198 46.6792 48.208 47.0871 47.9646C47.3861 47.2288 47.2718 46.7418 46.7379 46.602Z" fill="#AF3830"/>
<path d="M44.7509 49.3645C44.729 49.3495 44.7041 49.3392 44.678 49.3341C44.6519 49.3291 44.625 49.3294 44.599 49.3351C44.573 49.3408 44.5484 49.3518 44.5268 49.3673C44.5052 49.3828 44.487 49.4026 44.4733 49.4254C44.4082 49.545 44.5331 49.6112 44.6068 49.6806C45.1781 50.2146 45.6747 50.2349 46.5567 49.7746C46.6325 49.6358 46.8237 49.561 46.7927 49.3645C46.1125 49.5482 45.4333 49.7917 44.7509 49.3645Z" fill="#AF3830"/>
<path d="M47.8306 49.4221C47.8988 49.4212 47.9644 49.3958 48.0154 49.3506C48.4425 49.0302 48.5162 48.1471 48.1115 47.7231C47.9332 48.2197 47.7516 48.6906 47.7345 49.2064C47.7313 49.2865 47.7185 49.4029 47.8306 49.4221Z" fill="#AF3830"/>
<path d="M57.7817 38.3655C57.7811 38.374 57.7811 38.3825 57.7817 38.3909C57.7817 38.384 57.7875 38.3782 57.7898 38.3724L57.7817 38.3655Z" fill="#AF3830"/>
<path d="M56.9447 39.0157C56.7034 39.1663 56.5293 39.3638 56.5998 39.6671C56.666 39.9533 56.9202 40.0409 57.1658 40.0708C57.6997 40.1359 58.1386 39.9042 58.4665 39.5069C58.7943 39.1097 58.6363 38.6836 58.1109 38.5651C57.9827 38.5362 57.7755 38.6323 57.7809 38.3867C57.6303 38.7669 57.2427 38.8299 56.9447 39.0157Z" fill="#AF3830"/>
<path d="M46.5431 30.8123C47.6654 30.4417 48.3019 30.6457 48.9789 31.6079C49.1733 31.8844 49.3965 32.1418 49.5855 32.4184C49.7916 32.7238 49.9336 32.6789 50.1088 32.3853C50.5178 31.6997 50.2444 30.7653 49.4424 30.2164C48.8198 29.7893 48.1043 29.6675 47.3728 29.6099C47.1413 29.5971 46.9097 29.6343 46.6938 29.7189C46.4779 29.8035 46.2826 29.9334 46.1213 30.1C45.897 30.3136 45.8415 30.5346 46.0028 30.8112C46.1864 31.1252 46.3776 30.8667 46.5431 30.8123Z" fill="#AF3830"/>
<path d="M46.1641 32.8924C46.2389 32.9084 46.2239 32.9586 46.2442 32.9992C46.5881 33.7627 46.9319 33.9411 47.7702 33.7702C48.1322 33.6976 48.5017 33.5566 48.5412 33.1466C48.585 32.7066 48.2294 32.5058 47.8652 32.367C47.3473 32.1673 46.8721 32.3489 46.3553 32.5945C47.0013 31.5576 48.1354 31.6387 49.1051 32.7781C49.0068 31.785 48.396 31.155 47.5577 31.1293C47.1547 31.1158 46.7611 31.2528 46.4535 31.5135C46.146 31.7743 45.9465 32.1402 45.8939 32.54C45.8566 32.8241 45.8555 32.8273 46.1641 32.8924Z" fill="#AF3830"/>
<path d="M45.6046 31.345C45.7338 31.2382 45.862 31.0983 45.7061 30.9456C45.5683 30.81 45.4391 30.9616 45.343 31.0524C44.7685 31.5778 44.729 32.2516 44.8571 32.9746C44.8469 32.6636 44.9091 32.3545 45.0388 32.0717C45.1686 31.7889 45.3623 31.5401 45.6046 31.345Z" fill="#AF3830"/>
<path d="M31.8045 34.3577C31.9678 34.1014 32.2006 33.7981 31.6154 33.7479C31.467 33.7351 31.3912 33.5846 31.3154 33.465C30.7056 32.5092 30.8882 31.6741 31.828 31.0323C32.5872 30.5133 33.3657 30.4557 34.1933 30.8465C34.3097 30.901 34.4464 31.1348 34.5852 30.9181C34.632 30.84 34.6497 30.7479 34.6352 30.658C34.6208 30.5682 34.5751 30.4863 34.5062 30.4268C34.3823 30.3001 34.2464 30.1856 34.1004 30.0851C33.3262 29.5939 32.5328 29.6975 31.7692 30.0851C30.9149 30.5229 30.5294 31.2651 30.5241 32.2209C30.5241 32.5199 30.7216 32.9684 30.0969 32.8968C30.0563 32.8968 29.9688 32.9865 29.9613 33.0431C29.878 33.6615 29.8331 34.2798 30.051 34.8831C30.0724 34.9429 30.1578 35.0358 30.1888 35.0283C30.854 34.8927 30.6992 35.4064 30.7579 35.7428C30.7804 35.8698 30.8071 35.9969 30.917 36.0631C31.532 36.4703 32.2708 36.648 33.0037 36.565C32.7068 36.3408 32.348 36.2447 32.0693 36.0055C31.4681 35.4822 31.3891 35.0113 31.8045 34.3577Z" fill="#AF3830"/>
<path d="M33.2332 32.3597C33.1803 32.362 33.1276 32.367 33.0752 32.3746C32.5476 32.4408 32.0916 32.8018 32.1141 33.1221C32.1365 33.4425 32.6288 33.8195 33.1083 33.8696C33.1435 33.8696 33.1788 33.8696 33.2151 33.8696C33.7127 33.8696 34.4175 33.3496 34.4036 32.9876C34.3876 32.6651 33.7725 32.333 33.2332 32.3597Z" fill="#AF3830"/>
<path d="M34.3438 31.5095C33.8323 31.0695 32.8167 30.9756 32.2902 31.3237C31.7349 31.6889 31.4509 32.6052 31.6783 33.3046C32.1578 31.9516 32.6896 31.6537 34.0875 31.9655C34.2487 32.0007 34.4079 32.0723 34.4954 31.8704C34.5648 31.7124 34.458 31.6056 34.3438 31.5095Z" fill="#AF3830"/>
<path d="M32.9212 36.2295C33.5993 36.3801 34.2507 36.3235 34.8071 35.8429C34.0831 36.0063 33.3697 36.1633 32.6767 35.7575C33.2169 35.8583 33.7744 35.8114 34.2902 35.6219C33.4968 35.5888 32.7076 35.5888 31.9355 35.1616C32.0423 35.7949 32.399 36.111 32.9212 36.2295Z" fill="#AF3830"/>
<path d="M35.3671 33.2267C35.5443 33.0406 35.6618 32.8056 35.7045 32.5521C35.7471 32.2986 35.7129 32.0382 35.6063 31.8043C35.4076 31.3568 35.1417 31.1636 34.752 31.1753C35.6404 32.2314 35.5678 32.1716 35.3671 33.2267Z" fill="#AF3830"/>
<path d="M35.3647 33.2406V33.2256L35.3555 33.236L35.3647 33.2406Z" fill="#AF3830"/>
<path d="M35.0607 32.5422C35.05 32.4354 35.0447 32.3052 34.909 32.2977C34.7734 32.2902 34.7424 32.4183 34.7382 32.523C34.7296 32.7686 34.7382 33.0153 34.7382 33.3538C35.034 33.0666 35.0906 32.8177 35.0607 32.5422Z" fill="#AF3830"/>
<path d="M67.6952 70.4927C66.6882 72.2921 65.7485 74.1342 64.3848 75.7114C66.2343 74.4396 67.3706 72.7203 67.6952 70.4927Z" fill="#AF3830"/>
<path d="M63.9029 76.5219C63.7833 76.2208 63.6893 76.3959 63.5825 76.5219C63.5409 76.5743 63.4811 76.6287 63.5409 76.7355C64.7155 76.6469 65.698 76.0894 66.595 75.3804C65.8848 75.8183 65.1285 76.1764 64.3397 76.4483C64.1998 76.4995 63.9146 76.5529 63.9029 76.5219Z" fill="#AF3830"/>
<path d="M71.5292 60.8679C70.4463 61.3388 69.5621 60.9907 69.073 59.9249C68.9855 59.7359 68.9801 59.659 69.2151 59.7178L69.2258 59.7007C68.1579 59.3803 67.5321 59.6633 67.0975 60.6799C66.9281 61.0907 66.8115 61.5213 66.7504 61.9614C66.43 64.0779 66.4663 66.2169 66.3393 68.3452C66.2869 69.2166 66.2325 70.0891 66.1759 71.08C66.9522 70.2653 67.6368 69.5241 68.2049 68.5171C68.4473 71.3897 67.4296 73.5896 65.3867 75.4189C65.763 75.3612 66.1152 75.1979 66.4023 74.9479C67.0024 74.4759 67.5898 73.9868 68.1824 73.5084L68.5776 73.155C68.5776 73.4006 68.4419 73.5244 68.3084 73.6472L67.1914 74.8753C67.4242 74.9287 67.5236 74.7226 67.657 74.6083C68.6608 73.7466 69.4724 72.7128 70.2808 71.6727C72.9238 68.2886 73.3659 64.5382 72.2084 60.4984C71.9916 60.6169 71.7695 60.7643 71.5292 60.8679ZM66.4033 70.2151C66.6383 68.9571 67.2267 67.8828 67.5139 66.7135C67.9197 67.8476 67.4403 69.4035 66.4033 70.2151ZM66.9138 65.8837C66.9661 63.7223 67.0313 61.5556 68.5615 59.7861C67.7521 61.7521 67.4338 63.8387 66.9138 65.8837ZM71.2558 68.8225C71.1789 68.9987 71.1415 69.3234 70.881 69.2251C70.6674 69.1429 70.7486 68.8418 70.8105 68.6421C70.9728 68.1177 71.1757 67.6041 71.3327 67.0776C71.683 65.9029 71.7406 64.7016 71.6306 63.4874C71.6123 63.3816 71.604 63.2744 71.6061 63.167C71.62 63.0346 71.5911 62.8467 71.7759 62.821C72.0001 62.789 72.0343 62.9972 72.0524 63.1414C72.1133 63.6166 72.1486 64.0961 72.1923 64.5734C72.1596 66.0373 71.8415 67.4806 71.2558 68.8225Z" fill="#AF3830"/>
<path d="M67.183 74.8874V74.8816H67.168L67.183 74.8874Z" fill="#AF3830"/>
<path d="M81.4501 51.9829C81.2867 52.1655 81.1565 52.331 81.0059 52.4763C80.4559 53.0102 79.7244 53.5057 79.057 53.1288C78.2572 52.6738 77.6687 52.8201 76.997 53.2046C76.9511 53.2313 76.8497 53.1789 76.8604 53.2911C77.4659 53.6862 77.4733 53.6905 77.3174 53.9927C76.1353 56.2705 75.8224 58.7116 75.9452 61.2361C75.9452 61.3429 75.9025 61.4956 76.1289 61.5479C76.2997 58.9754 76.6746 56.452 77.767 54.0909C77.5598 56.42 76.855 58.6561 76.4546 61.0749L77.7542 59.709C77.7937 61.0909 76.6361 61.5479 76.1171 62.4044C76.7578 61.9196 77.3719 61.4273 77.8183 60.7054C78.081 61.0535 78.459 61.3675 78.2187 61.7658C77.7072 62.6297 77.6228 63.6196 77.28 64.5284C76.996 65.2941 76.7589 66.0758 76.5016 66.8511C77.1199 66.5093 77.3121 65.7832 77.956 65.3656C77.5289 66.6033 75.9484 68.7647 75.2746 69.0189C76.0552 66.8745 76.8422 64.7697 77.4274 62.5368C77.3435 62.5684 77.2629 62.6085 77.1871 62.6564C76.8379 62.9543 76.4941 63.2566 76.1481 63.5577C76.3617 63.6282 76.4877 63.3334 76.729 63.3986C76.1694 65.4105 75.7519 67.4395 74.9531 69.4375C75.3472 69.288 75.5768 69.0648 75.8181 68.8629C76.9148 67.9446 77.7403 66.7859 78.5412 65.6283C79.67 64.0073 80.5958 62.2634 81.464 60.4897C82.8533 57.6608 82.0695 54.8427 81.4501 51.9829ZM80.8308 60.2056C80.7688 60.3743 80.724 60.6798 80.4965 60.6093C80.2007 60.5185 80.3235 60.227 80.4025 60.0155C80.7699 59.0299 81.0539 58.0303 81.1159 56.9699C81.1543 56.3057 81.0635 55.6575 81.0091 55.004C80.992 54.8139 80.9237 54.5501 81.1693 54.5106C81.4149 54.4711 81.3828 54.7466 81.4053 54.9057C81.4811 55.4674 81.5388 56.0323 81.6039 56.5972C81.5793 57.8552 81.2579 59.0427 80.8308 60.2067V60.2056Z" fill="#AF3830"/>
<path d="M73.6726 46.8016C73.5498 46.7834 73.4248 46.7781 73.301 46.7663C71.2261 46.5528 69.1832 46.856 67.1457 47.1839C64.1962 47.658 61.3108 48.4237 58.4275 49.1926C58.1221 49.2737 57.8092 49.4008 57.4536 49.3303C57.492 49.2513 57.4974 49.2065 57.5219 49.1926C57.6127 49.1402 57.7088 49.0943 57.806 49.0505C60.3689 47.9026 63.0696 47.2351 65.8066 46.7012C68.1281 46.2484 70.4625 45.8757 72.846 46.1267C73.5797 46.2036 73.5936 46.1715 73.4355 45.4283C73.3258 44.9616 73.1809 44.504 73.002 44.0593C72.8567 43.6802 72.657 43.3117 72.609 42.9049L72.437 42.4852C70.8811 43.8083 69.0091 44.2408 67.0496 44.4245C66.9043 44.4373 66.6822 44.4939 66.6459 44.2878C66.616 44.1223 66.8285 44.0902 66.9524 44.0454C67.4863 43.8499 68.0203 43.6513 68.5596 43.4901C69.9179 43.0875 71.1833 42.451 72.5043 41.9555C72.5161 41.8957 72.5278 41.8359 72.5385 41.7772C72.5492 41.7185 72.5844 41.6704 72.6079 41.6127C72.7083 41.3169 72.8087 41.0211 72.9144 40.7125C72.6698 40.6826 72.4872 40.8011 72.2875 40.8695C66.7687 42.8162 61.5809 45.4614 56.5469 48.4141C55.7456 48.8753 54.9771 49.3913 54.2467 49.9582C53.9627 50.1836 53.6957 50.4313 53.6113 50.819C53.8687 50.8894 54.0684 50.7848 54.2638 50.7175C55.2612 50.3726 56.2116 49.9454 57.2667 49.703C59.0928 49.2833 60.89 48.711 62.7129 48.2582C66.1974 47.3932 69.7235 46.8945 73.3255 47.0707C73.4323 47.076 73.5391 47.0792 73.6459 47.0814C73.7164 47.0814 73.7954 47.0814 73.8071 46.9885C73.8119 46.9672 73.8122 46.9452 73.8078 46.9239C73.8035 46.9026 73.7947 46.8824 73.7819 46.8647C73.7692 46.8471 73.7529 46.8323 73.734 46.8214C73.7152 46.8105 73.6942 46.8038 73.6726 46.8016Z" fill="#AF3830"/>
<path d="M77.8253 46.2537C77.3778 46.243 77.097 46.3509 76.9293 46.7951C76.8341 47.057 76.686 47.2964 76.4942 47.4985C76.3024 47.7006 76.071 47.8611 75.8145 47.9698C76.6976 48.3788 76.5919 49.0505 76.4552 49.7382C76.3365 50.4124 76.1636 51.0759 75.9383 51.7224C77.9816 51.7776 80.0157 51.4304 81.9249 50.7004C82.0185 50.6686 82.099 50.6068 82.1538 50.5245C82.2087 50.4422 82.2348 50.3441 82.2282 50.2455C82.2369 49.9973 82.2197 49.7489 82.1769 49.5044C81.7583 47.6089 80.5174 46.2569 79.158 44.9883C79.1003 45.9825 78.8184 46.2751 77.8253 46.2537ZM77.3864 49.2577C77.3037 49.7798 77.1681 50.2922 76.9816 50.7869C76.9315 50.915 76.8652 51.072 76.6848 51.0186C76.5299 50.9727 76.578 50.8189 76.5705 50.6619C76.6837 50.1664 76.7841 49.6293 77.0318 49.137C77.0842 49.0302 77.1546 48.8914 77.3041 48.9395C77.4536 48.9875 77.4035 49.1423 77.3864 49.2577ZM80.5729 47.2501C81.1828 47.9992 81.5458 48.9187 81.612 49.8824C81.6259 50.033 81.6504 50.2519 81.4561 50.2882C81.2617 50.3245 81.2105 50.1152 81.1645 49.9678C81.0863 49.7324 81.0242 49.4919 80.9787 49.2481C80.8541 48.4345 80.5183 47.6679 80.0048 47.0247C80.1108 47.0015 80.2212 47.0104 80.3221 47.0504C80.4229 47.0904 80.5095 47.1595 80.5708 47.249L80.5729 47.2501Z" fill="#AF3830"/>
<path d="M75.6682 46.4749C75.6861 46.4753 75.7034 46.4817 75.7173 46.493C76.1615 46.8646 76.3207 46.5582 76.4445 46.1844C76.5013 46.035 76.5421 45.88 76.5663 45.722C76.6229 45.2447 76.8546 44.9745 77.3597 45.0097C77.7591 45.0396 77.884 44.7962 77.93 44.4662C77.9972 43.9888 78.0741 43.5051 78.3229 43.0907C78.6038 42.6273 78.4116 42.3614 78.041 42.1296C77.1758 41.5894 76.1936 41.2646 75.177 41.1824C74.4401 41.1632 73.8421 41.4943 73.6456 42.0154C73.4758 42.466 73.604 42.8889 73.7951 43.2968C74.0792 43.9077 74.4914 44.4811 74.5747 45.1571C74.6622 45.8651 74.7925 46.4567 75.6682 46.4749Z" fill="#AF3830"/>
<path d="M71.7996 56.0709C71.1076 55.4761 71.0926 55.4783 70.4978 56.1564C69.903 56.8345 69.2431 57.4378 68.2168 57.1869C68.0299 57.142 67.9627 57.2317 67.9178 57.3919C67.7897 57.8564 67.5216 58.2548 67.2344 58.7214C67.8164 58.6947 68.329 58.6595 68.8362 58.652C69.086 58.6451 69.3338 58.6986 69.5586 58.8079C69.7834 58.9172 69.9784 59.0791 70.1273 59.2799C70.5341 59.7925 70.8428 59.8801 71.4547 59.6184C71.7846 59.4775 72.0954 59.3258 72.4734 59.4273C72.687 59.486 72.8055 59.4166 72.6656 59.1902C72.3698 58.7065 72.3741 58.1853 72.4104 57.645C72.4553 57.0342 72.2855 56.4874 71.7996 56.0709Z" fill="#AF3830"/>
<path d="M69.8143 60.3776C70.2927 60.7952 71.0498 60.7706 71.6212 60.2922C70.864 60.4737 70.2681 60.2474 69.7054 59.8651C69.5655 59.7711 69.417 59.6515 69.2216 59.6974L69.2109 59.7145C69.399 59.9471 69.6005 60.1685 69.8143 60.3776Z" fill="#AF3830"/>
<path d="M79.1511 44.9798L79.1575 44.9862C79.1575 44.9862 79.1575 44.9777 79.1575 44.9734C79.1378 44.9682 79.1178 44.9642 79.0977 44.9617C79.1137 44.9712 79.1315 44.9774 79.15 44.9798H79.1511Z" fill="#AF3830"/>
<path d="M77.3398 45.767C78.113 45.9677 78.38 45.8652 78.7537 45.2971C78.8424 45.1615 78.8712 44.9319 79.0987 44.9618C78.9224 44.8614 78.7879 44.4011 78.585 44.8326C78.3308 45.3718 77.971 45.6698 77.3398 45.767Z" fill="#AF3830"/>
<path d="M59.9983 66.5403C59.8253 66.4154 59.6427 66.3054 59.4643 66.1879C58.6741 65.6679 57.492 65.812 56.8438 66.5275C55.5239 67.9798 54.7518 69.7226 54.1655 71.5636C54.0886 71.8039 54.1559 71.9032 54.441 71.899C55.0817 71.8904 55.5473 71.5786 55.9574 71.1365L56.1261 70.972L56.1582 71.145C56.1475 71.2144 56.1357 71.2839 56.124 71.3586C56.1817 72.2706 55.9318 73.0768 55.2697 73.7272C54.819 74.1725 54.3513 74.6007 53.874 75.0524C53.749 74.8132 53.938 74.6594 54.0609 74.5185C54.3908 74.1501 54.7582 73.8137 55.0892 73.4442C55.5463 72.9327 55.9435 72.3881 55.8634 71.6395C55.5777 72.2485 55.1754 72.7956 54.6792 73.2498C54.0544 73.8254 53.4425 74.4245 53.0709 75.2062C52.9925 75.604 52.9849 76.0125 53.0485 76.4129C53.0998 76.6938 53.183 76.9394 53.5525 76.5197C53.4052 77.4242 53.7661 78.1098 54.0459 78.8167C54.1292 79.0303 54.2969 79.2439 54.0523 79.466C54.2979 79.6272 54.4549 79.9273 54.8415 79.9999C54.2969 79.0655 53.9808 78.1333 53.9455 77.1166C53.938 76.9255 53.8921 76.7055 54.1164 76.5976C54.8052 76.2677 55.2494 75.6365 55.8506 75.1976C57.4909 74.0027 59.0543 72.7191 60.372 71.1621L60.5984 70.8631L60.7522 70.6976L60.8376 70.5662C60.8761 70.5235 60.9156 70.4808 60.954 70.437C61.016 70.5235 60.9743 70.5833 60.9028 70.6346L60.8387 70.7766L60.7106 70.9731L60.497 71.2935C59.9887 72.1414 59.286 72.8184 58.5545 73.4645C57.9586 73.9909 57.3328 74.4832 56.7209 74.9905C56.8854 75.0684 56.9794 74.9243 57.0819 74.8517C58.877 73.5937 60.4201 72.0954 61.4602 70.1391C61.9781 69.1652 62.3241 68.1336 62.385 67.0006C61.3481 67.2398 60.8195 67.1319 59.9983 66.5403ZM58.546 71.9086C58.4789 72.1296 58.3578 72.3303 58.1936 72.4927C57.792 72.9199 57.3029 73.2402 56.8277 73.5809C56.7658 73.6183 56.7012 73.6511 56.6344 73.6791C56.4326 73.6492 56.4743 73.5083 56.549 73.4153C56.7281 73.1973 56.9184 72.9888 57.1193 72.7906C57.4813 72.4276 57.8497 72.072 58.2181 71.7153C58.2993 71.6363 58.342 71.4547 58.4936 71.5295C58.6453 71.6042 58.5812 71.774 58.546 71.9086ZM58.3794 66.819C57.2207 67.8446 56.2939 69.1053 55.6605 70.5171C55.542 70.7745 55.447 71.0511 55.243 71.2518C55.1362 71.3586 54.9974 71.5209 54.8383 71.4152C54.7112 71.3319 54.7806 71.1482 54.8383 71.0212C55.0732 70.4669 55.2996 69.9084 55.5644 69.3691C56.0759 68.3248 56.7316 67.3818 57.6447 66.6439C57.8259 66.5026 58.0239 66.3842 58.2341 66.2915C58.4563 66.1847 58.5545 66.3385 58.6047 66.5254C58.5929 66.6727 58.4765 66.7379 58.3794 66.819ZM59.3672 66.4335C60.0218 67.2622 60.8996 67.6498 62.0508 67.7652C60.5749 68.3728 59.6331 67.888 59.3714 66.4335H59.3672Z" fill="#AF3830"/>
<path d="M63.0086 61.7392C62.826 61.452 62.7235 61.3441 62.3807 61.6324C61.5189 62.3522 60.5536 62.8744 59.3586 62.6651C59.2983 62.646 59.2332 62.6487 59.1746 62.6727C59.1161 62.6967 59.0678 62.7405 59.0382 62.7964C58.7414 63.3208 58.3431 63.7725 57.9629 64.2434C59.3746 64.9909 59.5402 65.0892 60.355 66.1912C60.6038 66.5276 60.8152 66.5458 61.1452 66.4048C61.505 66.239 61.9015 66.1685 62.2965 66.2001C62.6914 66.2317 63.0716 66.3644 63.4006 66.5853C63.5842 66.2895 63.5768 65.9937 63.6141 65.7171C63.7722 64.3374 63.7903 62.978 63.0086 61.7392Z" fill="#AF3830"/>
<path d="M25.5021 73.2297C25.0043 72.9556 24.5252 72.6488 24.068 72.3113C23.3642 71.7977 22.904 71.0608 22.8506 70.418C23.0492 70.5813 23.2286 70.7234 23.4037 70.8718C23.7681 71.1886 24.2268 71.3762 24.7087 71.4058C25.1252 71.4378 25.1679 71.3171 25.0098 70.9679C24.2661 69.3131 23.2395 67.8008 21.976 66.4988C21.6378 66.1305 21.2174 65.8473 20.749 65.6723C20.5657 65.6015 20.3677 65.577 20.1727 65.601C19.9776 65.625 19.7915 65.6968 19.6309 65.81C19.2817 66.046 18.9005 66.2682 18.6292 66.58C18.1743 67.1 17.587 67.1396 16.9879 67.1609C16.3888 67.1823 16.3685 67.1684 16.5041 67.7739C16.8533 69.3212 17.7098 70.5952 18.7008 71.7934C19.2134 72.5537 19.8851 73.1507 20.6112 73.691C19.9854 73.0439 19.349 72.4096 18.7648 71.725C18.6677 71.4741 18.3879 71.315 18.3505 70.9508C18.6783 71.1067 18.8332 71.3449 19.0179 71.5478C20.6689 73.3504 22.5185 74.8892 24.8187 75.7948C26.302 76.38 26.3137 76.3511 25.9688 77.9305C25.9652 77.9479 25.9605 77.965 25.9549 77.9818C26.0019 78.1537 26.0435 78.1505 26.0991 77.9818C26.3568 77.1548 26.4928 76.2947 26.5027 75.4285C26.5081 75.2266 26.4461 75.0013 26.6661 74.7792C26.9502 75.3324 26.8925 75.8898 26.7964 76.4013C26.6652 77.1545 26.4192 77.8831 26.067 78.5616C26.0136 78.6609 25.9784 78.9418 25.7723 78.6684C25.8577 78.9397 25.548 79.0838 25.5342 79.3497C26.6512 78.5659 27.1904 77.0538 26.9801 75.4872C26.8455 74.4834 26.4109 73.7209 25.5021 73.2297ZM18.3473 70.954C18.3356 70.9647 18.2693 70.9188 18.2288 70.8996L18.107 70.7586C18.1946 70.6871 18.2533 70.7298 18.3014 70.8088C18.359 70.844 18.4156 70.8857 18.343 70.954H18.3473ZM16.8597 67.7974C17.8539 67.6906 18.6805 67.2848 19.2433 66.4091C19.2454 67.7258 18.3964 68.216 16.8597 67.7974ZM20.2321 66.2564C20.3496 66.077 20.5301 66.0791 20.7084 66.1283C21.0597 66.2254 21.3384 66.4486 21.6022 66.6857C22.5804 67.5753 23.1891 68.7222 23.8085 69.8605C23.9857 70.1862 24.1491 70.5183 24.3616 70.9284C23.8832 70.922 23.6226 70.7148 23.455 70.418C22.6583 68.9891 21.5969 67.7835 20.3891 66.6953C20.2556 66.58 20.0922 66.4679 20.2321 66.2564ZM20.0185 71.1858C20.6358 71.9077 21.3886 72.3604 21.9653 73.1678C21.0555 73.0407 20.0111 71.9856 20.0164 71.1858H20.0185ZM22.8014 71.74C22.7726 71.6482 22.7513 71.5574 22.8271 71.4987C22.842 71.4886 22.8589 71.482 22.8767 71.4793C22.8944 71.4766 22.9126 71.4779 22.9298 71.4831C22.9469 71.4883 22.9628 71.4973 22.976 71.5094C22.9893 71.5216 22.9997 71.5365 23.0065 71.5531C23.4753 72.8036 24.7343 73.1048 25.6762 73.7829C25.7469 73.8336 25.813 73.8904 25.8737 73.9527C25.8919 73.9719 25.8844 74.0178 25.8994 74.1459C24.6339 73.5757 23.2777 73.2479 22.7993 71.74H22.8014Z" fill="#AF3830"/>
<path d="M17.8214 66.4016C18.1118 66.4454 18.2079 66.2873 18.2944 66.0866C18.7376 65.0571 19.4413 64.3021 20.585 63.9508C20.2006 63.4169 19.8514 62.9716 19.5962 62.4622C19.5236 62.3169 19.4339 62.2486 19.2587 62.3031C18.3297 62.6234 17.5555 62.2048 16.8122 61.7435C15.9803 61.2277 15.8938 61.2373 15.5041 62.1803C15.4089 62.4097 15.3325 62.6465 15.2755 62.8883C14.9872 64.1078 15.157 65.3209 15.3118 66.5415C16.5335 66.2179 16.5346 66.2094 17.8214 66.4016Z" fill="#AF3830"/>
<path d="M16.0285 59.8299C17.0964 60.1353 17.9219 60.7835 18.5669 61.6752C18.6016 61.7354 18.6561 61.7817 18.7212 61.806C18.7863 61.8304 18.8579 61.8313 18.9236 61.8087C19.7042 61.6453 20.5083 61.5438 20.9237 60.7173C20.5681 60.3894 20.4367 60.1695 20.3086 59.628C20.2349 59.3173 20.1805 59.0012 20.1025 58.6915C19.8708 57.7763 19.2482 57.41 18.3362 57.6631C17.2811 57.9493 16.5539 58.6595 15.9495 59.5255C15.8577 59.6537 15.7957 59.7615 16.0285 59.8299Z" fill="#AF3830"/>
<path d="M11.0813 73.4112C11.3899 73.4881 11.5416 73.6387 11.7124 73.7572C12.0243 73.9708 12.224 74.337 12.6169 74.446C12.6084 74.2142 12.4162 74.0872 12.303 73.9195C11.4594 72.6797 10.6894 71.4089 10.4406 69.8947C10.3338 69.2635 10.3669 68.8022 10.5527 68.4242C11.0974 69.3707 11.7777 70.2324 12.5721 70.9818C12.445 68.1828 12.4867 65.5153 12.2763 62.8584C12.2154 62.0809 12.0627 61.3089 11.7071 60.5987C11.1593 59.5052 10.4598 59.2212 9.42611 59.8384C8.74266 60.2463 8.08378 60.5005 7.14084 60.2976C8.18202 60.9073 8.60704 60.8433 9.55532 60.0509C9.60124 59.974 9.66211 59.8822 9.74967 59.9687C9.83724 60.0552 9.72832 60.1224 9.68667 60.194C9.46348 60.6735 9.10894 61.0109 8.58248 61.1028C7.81681 61.2373 7.14084 61.0739 6.6667 60.2709C6.47875 61.5961 6.26517 62.7868 6.1445 63.9861C6.02276 65.2098 6.03771 66.4507 6.50865 67.6104C7.81946 70.8633 10.107 73.6295 13.0558 75.5277C13.2598 75.6612 13.4766 75.8075 13.8333 75.815C12.8284 75.0718 11.753 74.5367 11.0813 73.4112ZM7.94922 69.2059C7.59362 69.3127 7.56692 68.7926 7.46227 68.5278C6.94418 67.2412 6.69312 65.8628 6.72436 64.4762C6.74999 64.1078 6.69766 63.5717 6.8461 63.0517C6.88988 62.9 6.91444 62.7046 7.12589 62.7313C7.33733 62.758 7.32024 62.9652 7.29888 63.1115C7.03298 64.9162 7.39179 66.6355 7.96951 68.3323C8.06989 68.6217 8.20018 69.1322 7.94922 69.2059ZM11.3312 66.7145C11.4529 67.855 12.0702 68.8599 12.2325 70.1317C11.1892 69.1888 10.7076 67.9458 11.3312 66.7145ZM10.3701 59.8897C10.636 59.7658 10.7973 60.1865 10.9265 60.4236C11.3453 61.1856 11.6204 62.0182 11.7381 62.8797C11.8962 63.8251 11.9152 64.7886 11.7947 65.7395C11.5715 64.63 11.359 63.5194 11.1208 62.4131C10.9863 61.7862 10.6937 61.2138 10.4438 60.6265C10.3445 60.3948 10.0743 60.0274 10.3712 59.8897H10.3701Z" fill="#AF3830"/>
<path d="M12.6256 74.448H12.6176C12.617 74.451 12.617 74.4541 12.6176 74.4571L12.6256 74.448Z" fill="#AF3830"/>
<path d="M6.26523 59.439C6.66568 59.3194 6.97964 59.4828 7.31816 59.659C7.92579 59.9793 8.25576 59.8854 8.62845 59.3386C8.85801 58.9974 9.20248 58.7499 9.59916 58.6413C10.2111 58.4576 10.824 58.5292 11.5085 58.6413L11.3398 58.3935C10.8956 57.7528 10.3787 57.3726 9.66537 57.1793C8.91785 56.9775 8.4373 56.4318 7.95676 55.8861C7.85958 55.7794 7.79123 55.4889 7.56378 55.6779C6.95935 56.183 6.32183 56.7137 6.36241 57.5862C6.3891 58.1575 6.3293 58.6776 6.08689 59.1827C5.97797 59.3941 6.0335 59.5095 6.26523 59.439Z" fill="#AF3830"/>
<path d="M11.7806 71.5552C11.541 71.0761 11.2624 70.6175 10.9476 70.1841C10.8547 70.2289 10.8579 70.262 10.874 70.3208C11.1311 71.2232 11.5213 72.0823 12.0315 72.8698C12.6968 73.9377 13.3845 74.997 14.5112 75.6591L14.5539 75.6239C13.4283 74.4022 12.5655 73.0044 11.7806 71.5552Z" fill="#AF3830"/>
<path d="M1.56641 62.3928C1.58456 62.5327 1.60378 62.6715 1.6198 62.8114C1.76511 64.3387 2.17146 65.8298 2.82117 67.2197C2.87243 67.3264 2.82117 67.6618 3.14153 67.5133C2.55206 66.1027 2.31392 64.6162 2.10996 62.962L2.58944 63.4757C2.42071 62.9353 1.91454 62.4227 1.56641 62.3928Z" fill="#AF3830"/>
<path d="M13.3584 47.1743C11.3294 46.6606 9.26948 46.4268 7.1807 46.7845C7.07391 46.8027 6.91373 46.7429 6.90625 46.9981C7.11983 46.9981 7.32166 46.9981 7.52776 46.9981C8.62924 47.0293 9.72789 47.1259 10.8179 47.2875C14.4284 47.7883 17.9727 48.5967 21.4743 49.6016C22.9843 50.0351 24.5712 50.1782 26.0192 50.8393C26.2891 50.9753 26.5973 51.0149 26.8927 50.9514C26.8767 50.4986 26.5959 50.2231 26.252 49.9903C26.016 49.8312 25.7854 49.6699 25.5462 49.5108C20.3498 46.1502 14.799 43.4954 9.0559 41.2251C8.55293 41.0265 8.03393 40.8695 7.52135 40.6912L7.40709 40.7595C8.34576 41.9342 8.00617 43.1089 7.50213 44.2931C7.31418 44.7352 7.28001 45.2201 7.22234 45.6985C7.17002 46.131 7.30991 46.2207 7.70609 46.1587C9.02974 45.9692 10.3768 46.0213 11.6818 46.3125C15.1589 47.0408 18.559 48.0681 21.973 49.0399C22.303 49.1338 22.6543 49.2278 22.9875 49.5909C22.5935 49.5119 22.3019 49.466 22.0168 49.3933C19.1292 48.6597 16.247 47.9036 13.3584 47.1743ZM12.5158 44.3455C11.2258 44.1941 9.9833 43.7677 8.87222 43.095C8.63088 42.9508 8.23149 42.7671 8.36284 42.4542C8.46109 42.2289 8.84553 42.4361 9.08473 42.513C10.5178 42.9743 11.9481 43.4449 13.3755 43.9247C13.5891 43.9952 13.8144 44.0561 13.9981 44.3102C13.4577 44.5334 12.9836 44.4031 12.5158 44.3455Z" fill="#AF3830"/>
<path d="M26.9034 50.9546H26.8906V50.9703L26.9034 50.9546Z" fill="#AF3830"/>
<path d="M3.31448 68.6932L3.2205 68.5864L2.90014 68.2575C1.68702 66.2947 1.27909 64.1195 1.21181 61.8502C1.20541 61.7776 1.20007 61.705 1.19366 61.6366C1.17123 61.5384 1.18405 61.4562 1.29297 61.4166L1.39976 61.2981C1.39955 61.264 1.41169 61.231 1.43393 61.2052L1.50441 61.0771C1.48946 60.9201 1.57489 60.7983 1.64644 60.6723C1.66673 60.6296 1.68809 60.5869 1.70945 60.5453H1.70197C1.81585 60.0954 1.87148 59.6328 1.8675 59.1688L2.77306 60.8774C3.36146 58.6167 2.84034 56.4798 2.6321 54.2565C3.60281 55.2176 3.78435 60.054 2.97916 61.8523C2.70472 61.6388 2.55201 61.3408 2.3726 61.0642C2.29465 60.9404 2.2829 60.7343 2.05224 60.777C2.32028 61.3686 2.61928 61.9421 3.06246 62.4012C3.19167 62.3745 3.19808 62.3009 3.21943 62.2336C3.79502 60.431 3.94987 58.5793 3.81638 56.7041C3.74163 55.664 3.63804 54.6078 2.69831 53.8966C3.0112 53.6489 3.38923 53.5581 3.5964 53.2132C3.17992 53.1235 2.78694 53.0551 2.4858 52.786C2.30426 52.6216 2.19854 52.6995 2.03729 52.8213C1.34957 53.3402 0.64904 53.3552 -0.0888669 52.9067C-0.423114 52.7027 -0.680474 52.408 -1.00511 52.1079C-1.35004 53.2078 -1.75263 54.2351 -1.98863 55.2987C-2.47986 57.4826 -2.32929 59.5703 -0.780855 61.3707C-0.731387 61.4227 -0.699293 61.4887 -0.689017 61.5597C-0.655913 62.5539 -0.0643058 63.3602 0.221887 64.27C0.712045 65.8291 1.47451 67.2526 2.62142 68.4348C3.11915 68.9588 3.70415 69.3924 4.35032 69.7162L3.8623 68.9068C3.59533 69.0435 3.44689 68.8972 3.31448 68.6932ZM-0.686882 60.2932C-1.02754 60.3787 -1.04142 59.8789 -1.11403 59.6173C-1.52121 58.1982 -1.60189 56.7054 -1.35004 55.2507C-1.31466 54.9686 -1.22702 54.6955 -1.09161 54.4455C-1.02433 54.3334 -0.931427 54.2437 -0.78833 54.2971C-0.665524 54.3441 -0.681542 54.4637 -0.681542 54.6121C-0.726393 54.9036 -0.775516 55.2368 -0.829978 55.5732C-1.04355 56.8899 -0.923952 58.1842 -0.582229 59.4667C-0.505341 59.7529 -0.308851 60.1993 -0.686882 60.2932Z" fill="#AF3830"/>
<path d="M3.9549 49.2151C3.83636 48.7688 3.89723 48.4153 4.30089 48.1569C4.51447 48.018 4.47496 47.9144 4.28594 47.7713C3.98587 47.5471 3.70608 47.2694 3.56726 46.9277C3.3462 46.3852 3.00341 46.224 2.42676 46.2614C1.62905 46.3148 1.55857 46.2197 1.27344 45.4594C1.23073 45.3451 1.18908 45.2298 1.11646 45.0322C-0.116942 46.1087 -1.07377 47.2972 -1.71663 48.7239C-1.85439 49.0532 -1.93528 49.4034 -1.95584 49.7597C-2.00176 50.2937 -1.82876 50.6621 -1.28094 50.8714C0.507769 51.557 2.36589 51.7428 4.25924 51.7257C4.53796 51.7257 4.51767 51.5976 4.46534 51.3883C4.28808 50.6642 4.14498 49.9338 3.9549 49.2151ZM-0.850578 49.5996C-0.898521 49.7697 -0.961785 49.9352 -1.03959 50.094C-1.05153 50.1373 -1.078 50.1751 -1.11456 50.2012C-1.15112 50.2273 -1.19555 50.2399 -1.24036 50.2371C-1.36743 50.2189 -1.40588 50.1121 -1.4283 50.0054C-1.43791 49.9531 -1.43791 49.8996 -1.4283 49.8473C-1.25637 48.8937 -0.96057 47.9913 -0.316637 47.2395C-0.201305 47.105 -0.0582089 46.9993 0.282446 46.8968C-0.424493 47.7703 -0.650884 48.6791 -0.850578 49.5996ZM3.69113 51.0124C3.65772 51.0119 3.62496 51.003 3.59585 50.9866C3.56675 50.9702 3.54223 50.9468 3.52454 50.9184C3.30349 50.267 3.04079 49.622 3.18282 48.9033C3.61639 49.4307 3.85309 50.0925 3.85238 50.7753C3.85238 50.8874 3.81073 50.9921 3.69113 51.0124Z" fill="#AF3830"/>
<path d="M6.74848 42.9797C7.03147 42.1168 6.53491 41.333 5.62934 41.2582C4.40128 41.1578 3.28 41.5188 2.27832 42.23C1.97291 42.4436 1.9067 42.7138 2.053 43.0629C2.26241 43.5333 2.40268 44.0315 2.46947 44.542C2.50471 44.8623 2.64995 45.0279 2.97992 45.0076C3.43057 44.9809 3.63774 45.2425 3.77977 45.6323C3.9218 46.0221 4.02324 46.4097 4.34361 46.8016C4.59563 46.4332 4.96085 46.3189 5.33354 46.304C5.6539 46.2922 5.76069 46.1972 5.76069 45.8768C5.76069 45.2809 5.96359 44.731 6.21347 44.197C6.41595 43.8023 6.59461 43.3958 6.74848 42.9797Z" fill="#AF3830"/>
<path d="M15.5853 7.40315C16.3851 7.57403 17.1591 7.84867 17.8877 8.22008C18.168 8.35636 18.418 8.54773 18.6228 8.78276C18.8276 9.01779 18.9829 9.29167 19.0795 9.58804C19.4228 10.5609 19.6137 11.5811 19.6454 12.6123C19.6454 12.8141 19.5814 13.08 19.8708 13.1462C20.8735 13.3748 21.8773 13.6866 22.9174 13.5531C24.4402 13.3587 25.7377 12.6272 26.9305 11.6982C27.2279 11.4698 27.4733 11.1808 27.6503 10.8503C27.945 10.295 27.897 10.1658 27.3128 9.95539C26.8654 9.79521 26.4115 9.6425 26.1104 9.07652C27.08 9.61046 27.8649 9.77278 28.5505 9.47591C30.3189 8.71024 31.7104 7.51421 32.5519 5.74472C32.7441 5.33893 32.8028 4.91071 32.4867 4.53908C32.1706 4.16746 31.7253 4.15144 31.2619 4.2593C29.581 4.65014 28.0849 5.38698 26.8376 6.59262C26.6305 6.79339 26.4724 6.89163 26.1552 6.75601C25.3009 6.39079 24.5203 6.6033 23.8315 7.19598C23.3563 7.60498 22.9847 8.10582 22.6056 8.59918C22.4225 8.86279 22.1991 9.09595 21.9435 9.2901C21.8015 9.39044 21.6378 9.4558 21.4658 9.48085C21.2937 9.50589 21.1182 9.48991 20.9535 9.43421C20.7888 9.37852 20.6396 9.28467 20.518 9.16034C20.3965 9.03601 20.3061 8.88471 20.2541 8.71878C20.0907 8.22115 20.2637 7.87836 20.7646 7.73419C21.0195 7.65867 21.2783 7.597 21.5399 7.54945C21.9414 7.48004 22.1966 7.34335 22.0588 6.85319C21.9894 6.60971 22.1186 6.3673 22.2489 6.14945C22.5146 5.72659 22.8581 5.35805 23.2613 5.06341C24.4125 4.17921 25.7174 3.57372 27.0373 2.99492C29.25 2.02315 31.5384 1.46571 33.9786 1.7487C34.1761 1.77113 34.3854 1.87151 34.6054 1.74336C34.5839 1.69468 34.5555 1.64936 34.521 1.60881C34.4143 1.51911 34.2989 1.43154 34.1815 1.35145C32.4483 0.187458 30.524 -0.168147 28.4822 0.0699909C24.0579 0.580439 20.2146 2.43108 16.7835 5.20651C16.2314 5.65395 15.7156 6.14625 15.328 6.75601C15.0322 7.22588 15.0578 7.28995 15.5853 7.40315Z" fill="#AF3830"/>
<path d="M6.33735 28.4094C6.65704 28.3999 6.97453 28.3533 7.28349 28.2706C10.9987 27.2027 14.1083 25.0787 17.0493 22.6685C17.5426 22.2627 17.7648 21.6711 17.8374 21.0239C18.0064 19.5551 17.9131 18.0679 17.5619 16.6317C17.4401 16.132 17.2767 15.6407 16.9425 15.2296C16.7567 15.0011 16.5805 14.9178 16.3445 15.1933C16.1025 15.4545 15.8211 15.6761 15.5105 15.8501C15.2969 15.9803 15.1719 15.9013 15.0951 15.708C15.0256 15.5318 14.9157 15.251 15.1559 15.2029C15.6824 15.0961 15.4613 14.8014 15.3909 14.5334C15.2659 14.0517 14.9509 13.6865 14.6231 13.3352C13.9556 12.6197 13.2765 11.916 12.6763 11.1407C11.6543 9.82078 11.6405 9.81224 10.3996 11.0254C6.39929 14.9349 4.58816 19.7745 4.3575 25.2805C4.33626 25.8331 4.37205 26.3863 4.46428 26.9315C4.67572 27.978 5.27374 28.4618 6.33735 28.4094ZM5.97 23.0551C5.82156 23.0422 5.75642 22.8714 5.77564 22.7347C5.79487 22.598 5.79914 22.3791 5.99563 22.3738C6.23056 22.3673 6.16008 22.5873 6.18571 22.7197C6.18358 22.881 6.18571 23.0754 5.97 23.0551ZM6.6983 23.8346C6.43453 23.8346 6.33842 23.6381 6.30425 23.4192C6.27968 23.2612 6.42385 23.086 6.52423 23.1074C6.73781 23.1512 6.83285 23.3658 6.89585 23.5644C6.89906 23.7139 6.84139 23.8325 6.6983 23.8346ZM6.92041 22.6674C6.75276 22.6578 6.70684 22.5126 6.69723 22.3599C6.68868 22.189 6.71538 22.0171 6.9108 21.9936C7.16176 21.9648 7.08914 22.1933 7.13079 22.299C7.12011 22.4816 7.16496 22.6813 6.92041 22.6674ZM7.87083 23.0102C7.60172 22.9493 7.71065 22.629 7.66473 22.4261C7.70317 22.2808 7.58784 22.0213 7.82171 22.0491C8.12072 22.0833 8.05878 22.3962 8.08227 22.6119C8.10149 22.787 8.09188 23.0615 7.86763 23.0113L7.87083 23.0102ZM7.58143 17.5758C7.07526 18.0819 6.62034 18.5368 6.379 19.1605C6.37462 19.1778 6.36645 19.1938 6.35507 19.2075C6.34369 19.2212 6.32939 19.2322 6.31322 19.2397C6.29705 19.2472 6.27942 19.2509 6.26161 19.2507C6.24379 19.2505 6.22626 19.2463 6.21027 19.2384C6.13552 19.2021 6.14406 19.1317 6.14193 19.058C6.12698 18.4664 6.84993 17.6751 7.58143 17.5768V17.5758ZM5.59304 20.6523C5.89221 20.2323 6.27965 19.8827 6.7282 19.6282C6.87984 19.5375 7.06565 19.5887 7.00905 19.7756C6.79547 20.4953 7.3465 20.6299 7.78006 20.8595C7.74482 20.3256 7.60706 19.7916 7.85374 19.2683C7.92102 19.1242 7.96053 18.948 8.06732 18.8412C8.32148 18.57 8.28731 18.3585 8.14634 18.0072C7.7256 16.9617 7.91034 15.943 8.56282 15.031C9.06686 14.3251 9.71079 13.7218 10.0749 12.9112C10.0962 12.8501 10.1335 12.7958 10.1829 12.754C10.2323 12.7122 10.292 12.6844 10.3558 12.6735C10.4196 12.6626 10.4851 12.669 10.5456 12.692C10.6061 12.7151 10.6593 12.7539 10.6997 12.8044C11.2667 13.4665 12.0164 13.8499 12.8867 14.2792C12.4446 14.434 12.1562 14.1724 11.806 14.2653C12.5097 14.7352 12.9892 15.3225 13.0629 16.1693C13.081 16.3829 13.2444 16.3445 13.3832 16.3103C13.7036 16.2345 13.9813 16.352 14.2504 16.4897C15.4774 17.1176 15.8255 19.2769 14.8345 20.2273C14.5585 20.4991 14.322 20.8082 14.1318 21.1457C13.4516 22.3065 12.1744 22.9226 10.988 22.6845C10.8331 22.6535 10.6121 22.6311 10.5491 22.5265C10.1828 21.9274 9.52391 21.9092 8.97289 21.6722C8.59486 21.5088 8.30332 21.2119 7.99471 20.9449C7.98403 20.977 7.97228 21.009 7.96267 21.0421C7.91141 21.2194 6.58617 21.9146 6.31599 21.8601C5.86321 21.7672 5.66565 21.4009 5.54818 20.9972C5.51879 20.8807 5.53483 20.7574 5.59304 20.6523ZM5.63575 23.7492C5.85894 23.7684 5.8568 23.982 5.91127 24.1358C5.88243 24.2425 5.85574 24.375 5.72118 24.344C5.64379 24.3245 5.57648 24.2767 5.53243 24.2102C5.48838 24.1436 5.47077 24.063 5.48304 23.9841C5.48732 23.888 5.50333 23.7353 5.63575 23.7492Z" fill="#AF3830"/>
<path d="M17.5862 29.03C17.7997 28.6893 18.0518 28.3487 17.9856 27.9023C17.8467 26.954 17.0052 26.0474 16.0634 25.8488C15.0734 25.6416 14.1679 25.9556 13.2869 26.3443C11.8901 26.9636 10.6257 27.834 9.25774 28.5089C8.35324 28.9553 7.45836 29.4411 6.39688 29.4091C5.63228 29.3856 5.52335 29.549 5.88323 30.2356C6.75035 31.893 7.99016 33.2524 9.32502 34.5456C10.7378 35.9136 12.3546 36.6953 14.3558 36.5746C14.6399 36.5746 14.9239 36.565 15.2101 36.5746C15.5134 36.5885 15.6373 36.5095 15.5305 36.1763C15.0158 34.4677 15.4066 32.8776 16.1712 31.342C16.5653 30.5282 17.0981 29.7925 17.5862 29.03ZM14.8631 35.7481C14.846 36.0076 14.6153 35.8805 14.484 35.8634C11.4811 35.4939 9.29405 33.8184 7.52243 31.4851C7.25726 31.1299 7.01164 30.7606 6.78666 30.3787C6.67987 30.2089 6.45028 30.0199 6.57308 29.8288C6.69589 29.6376 6.97033 29.7423 7.17537 29.7092C7.3804 29.6761 7.4669 29.7839 7.56087 29.9687C9.03562 32.852 11.3166 34.7175 14.5277 35.3572C14.7947 35.4149 14.8748 35.5644 14.862 35.7481H14.8631ZM10.8585 32.9075C11.4363 32.9158 12.0106 32.9987 12.5671 33.1542C12.1069 33.4745 11.4629 33.3934 10.8585 32.9075ZM14.3387 34.7058C14.4776 34.6951 14.5875 34.662 14.5961 34.8478C14.6036 35.0048 14.5427 35.0443 14.2864 35.0411C13.5012 34.9279 12.764 34.5947 12.1602 34.08C12.0342 33.9732 12.0257 33.8664 12.172 33.7906C12.298 33.7212 12.4593 33.5685 12.5618 33.8013C12.912 34.5947 13.572 34.7624 14.3409 34.7058H14.3387ZM14.6057 33.6187C13.9543 33.2674 13.7386 32.3928 14.1252 31.7232C14.2747 31.9539 14.2469 32.2326 14.3387 32.5134C14.7136 32.2796 14.7189 31.8407 15.02 31.5769C15.0136 32.2785 14.8214 32.9481 14.6078 33.6187H14.6057ZM14.0718 27.0416C13.8229 27.174 13.7514 27.2926 14.029 27.5147C12.9612 27.6567 12.03 28.086 11.0272 28.3156C11.1671 28.6445 11.5035 28.5292 11.685 28.7598C11.5079 28.8067 11.3265 28.8361 11.1436 28.8474C10.4538 28.8196 9.91983 29.1614 9.41045 29.5586C9.2791 29.6654 9.19687 29.7861 8.98329 29.7423C8.83593 29.7113 8.56148 29.7337 8.5807 29.8811C8.60526 30.0733 8.65866 30.3766 8.92563 30.415C9.29191 30.4674 9.5119 30.5218 9.54607 31.0024C9.56849 31.3057 10.0394 31.4082 10.3598 31.5075C10.5734 31.5758 10.8211 31.5427 11.0646 31.6933C10.5905 31.9838 10.9706 32.5006 10.7111 32.868C10.442 32.79 10.1889 32.6384 10.1612 32.365C10.1334 32.0916 10.5296 32.16 10.6876 31.9144C10.441 31.8546 10.2284 31.8001 10.0149 31.7531C9.62402 31.6677 9.26735 31.5139 9.00999 31.1978C8.71846 30.8358 8.51663 30.4118 8.13112 30.1107C7.88231 29.9163 7.89726 29.6761 8.26247 29.5212C9.91342 28.8207 11.3796 27.7614 13.0423 27.0758C13.7994 26.7629 14.547 26.4425 15.366 26.3507C15.9502 26.2855 16.4916 26.3934 16.8984 26.8985C15.932 26.5258 14.9955 26.5525 14.0739 27.0459L14.0718 27.0416ZM16.168 29.3546C16.4435 28.8207 16.8397 28.3636 17.2359 27.9109C17.3171 27.8169 17.4388 27.7464 17.5637 27.8233C17.6556 27.8799 17.6214 27.9931 17.5723 28.0593C17.08 28.7225 16.5813 29.3792 16.0612 30.0701C15.9427 29.7583 16.0676 29.5543 16.1701 29.3546H16.168Z" fill="#AF3830"/>
<path d="M15.18 12.906C15.5004 13.2712 15.7855 13.6642 15.8666 14.1501C15.9093 14.4117 16.0087 14.463 16.2479 14.432C16.8971 14.3476 17.4941 14.4864 17.9629 14.9659C18.1658 15.1731 18.2459 15.0727 18.3495 14.8965C18.7339 14.2291 19.097 13.5553 19.0297 12.9978C18.9699 11.7452 18.8054 10.7691 18.4669 9.82513C18.3762 9.57098 18.2801 9.30614 18.0398 9.16412C16.6611 8.33971 15.1704 7.84314 13.5632 7.77587C12.9129 7.7481 12.6085 8.11973 12.5701 8.77541C12.5252 9.55496 12.8979 10.1797 13.3176 10.7798C13.8697 11.5498 14.5585 12.2022 15.18 12.906Z" fill="#AF3830"/>
<path d="M65.4618 14.7586C65.4191 14.9252 65.3112 15.0907 65.5953 15.2338C65.8793 15.3769 65.7469 15.6845 65.6081 15.8874C65.418 16.165 65.2749 15.8874 65.1382 15.7934C64.9952 15.6877 64.8622 15.569 64.741 15.4388C64.1878 14.8921 64.0202 14.922 63.7073 15.6439C63.6228 15.8393 63.5549 16.0415 63.5044 16.2483C63.247 17.3087 63.184 18.3905 63.1701 19.7723C63.0494 20.8979 63.3303 22.1217 64.5584 23.0646C66.9216 24.88 69.3638 26.5448 72.1019 27.7398C72.8494 28.0666 73.6204 28.3367 74.4512 28.3805C75.6259 28.4371 76.2528 27.9438 76.4492 26.7862C76.6297 25.7183 76.5101 24.6589 76.4268 23.5975C76.1534 20.1322 75.1454 16.9136 73.173 14.0282C72.2247 12.6399 71.144 11.3734 69.8049 10.344C69.1823 9.86556 69.1075 9.8741 68.6761 10.4956C67.9628 11.5208 67.1256 12.4402 66.2723 13.3458C65.886 13.7399 65.607 14.2262 65.4618 14.7586ZM73.5136 21.4265C73.5307 21.3133 73.5595 21.1702 73.7272 21.1862C73.8671 21.199 73.8756 21.3058 73.8671 21.4179C73.8586 21.53 73.8094 21.6763 73.6674 21.686C73.4923 21.6977 73.4965 21.5386 73.5136 21.4265ZM75.4358 23.7374C75.6772 23.7075 75.7476 23.8805 75.7124 24.0748C75.6622 24.3514 75.7231 24.754 75.3643 24.8074C75.1058 24.8458 75.1443 24.5148 75.1229 24.3087C75.1624 24.0844 75.0781 23.7811 75.4348 23.7352L75.4358 23.7374ZM74.5719 21.9807C74.4843 21.5471 74.1971 21.0687 74.8997 20.6352C74.5954 21.4436 74.8314 22.0832 75.0354 22.7346C75.0671 22.8383 75.0625 22.9496 75.0226 23.0503C74.9826 23.151 74.9095 23.2352 74.8154 23.2889C74.7086 23.3529 74.6168 23.2611 74.5441 23.1821C74.3733 22.9952 74.3615 22.8115 74.5441 22.6246C74.7545 22.4185 74.6168 22.2028 74.5708 21.9807H74.5719ZM73.9504 24.376C73.7368 24.376 73.6396 24.2051 73.6631 24.0107C73.6866 23.8164 73.7956 23.6114 74.0166 23.6167C74.2377 23.622 74.1779 23.8452 74.2024 23.968C74.1832 24.1688 74.2067 24.3856 73.9504 24.376ZM74.1138 18.7269C73.8137 18.2452 73.5798 17.7764 73.2755 17.3568C73.9974 17.5906 74.322 18.1182 74.1138 18.7301V18.7269ZM72.9017 23.276C72.9081 23.1201 72.9231 22.93 73.1153 22.9066C73.2477 22.8895 73.3097 23.0358 73.3396 23.149C73.3393 23.2328 73.3089 23.3137 73.2537 23.3769C73.1986 23.4401 73.1225 23.4812 73.0395 23.4928C72.8814 23.5302 72.9017 23.3711 72.9017 23.276ZM68.0963 14.5813C68.0783 14.591 68.0597 14.5995 68.0407 14.607C68.0343 14.607 68.0226 14.5984 68.013 14.5931L68.0963 14.5813ZM67.2921 16.2675C67.6531 16.3401 67.7908 16.1896 67.8805 15.8756C67.9826 15.5338 68.1571 15.2181 68.3921 14.9498C68.5106 14.8099 68.6131 14.6198 68.8513 14.6732C68.7381 14.8867 68.6291 15.1099 68.5074 15.3214C67.9937 16.2099 68.2244 17.0845 68.6056 17.9227C68.8438 18.446 69.46 18.5304 69.9074 18.1737C69.957 18.1229 70.011 18.0764 70.0686 18.0349C70.2555 17.9281 70.3794 17.5244 70.5887 17.7145C70.8204 17.9217 70.5289 18.2004 70.3815 18.4033C69.8358 19.1572 69.1471 19.3494 68.469 18.9554C68.5053 18.7525 68.7605 18.8785 68.8619 18.6959C68.2394 18.2687 67.8229 17.6996 67.4918 17.0396C67.306 16.669 66.723 16.6925 66.3738 17.0193C66.0246 17.3461 65.6337 18.5571 66.0086 19.0995C66.1762 18.9928 66.1538 18.7845 66.251 18.6404C66.2703 18.6047 66.2972 18.5738 66.3299 18.5497C66.3625 18.5257 66.4001 18.5091 66.4399 18.5013C66.4796 18.4934 66.5207 18.4944 66.56 18.5043C66.5993 18.5141 66.636 18.5325 66.6674 18.5581C66.849 18.6724 66.834 18.8123 66.6674 18.9415C66.3033 19.2298 66.3268 19.6164 66.3951 20.0094C66.6514 21.4841 68.0365 22.4474 69.2934 22.0266C69.4963 21.9583 69.7515 21.8942 69.8006 21.6785C69.9074 21.2086 70.1968 21.3079 70.5246 21.3581C71.5786 21.5311 72.4927 20.5177 72.2482 19.4658C72.1414 19.012 71.9887 18.8806 71.4569 18.7813C72.182 17.7049 71.7345 16.5014 71.8104 15.3555C71.82 15.2114 71.7506 15.1292 71.5359 15.2178C70.767 15.5382 70.059 15.2242 69.3574 14.9134C69.712 14.8942 70.058 15.0202 70.4114 14.9882C70.5182 14.9797 70.625 14.9882 70.7318 14.9807C70.987 14.953 71.3629 14.9989 71.3853 14.6871C71.4078 14.3752 71.0265 14.3165 70.7777 14.2781C69.8721 14.1392 68.9751 14.1809 68.1208 14.5632C68.0781 14.4361 68.186 14.3827 68.2564 14.3165C69.2346 13.3821 71.128 13.4878 71.9887 14.5408C72.6967 15.4068 73.2061 16.9627 72.2461 18.3392C72.1158 18.5261 72.1734 18.65 72.2589 18.8198C73.0064 20.3095 72.4628 21.4382 70.8204 21.8098C70.4981 21.8696 70.2023 22.0278 69.9736 22.2626C69.524 22.7154 68.8886 22.6673 68.3098 22.5307C67.5004 22.3406 66.9034 21.8611 66.629 21.0516C66.5363 20.767 66.3825 20.506 66.1783 20.287C65.3102 19.3537 65.2995 17.7348 66.1271 16.763C66.4314 16.4021 66.8052 16.1714 67.2879 16.2675H67.2921ZM69.7664 21.2449C69.3969 21.7297 68.9847 21.7874 68.549 21.7308C68.0728 21.6689 67.8432 21.3432 67.7844 20.8423C68.2575 21.7233 69.0029 21.2951 69.7622 21.2449H69.7664Z" fill="#AF3830"/>
<path d="M49.2727 1.90348C51.9606 2.17151 54.3804 3.21697 56.7212 4.48242C57.2227 4.75427 57.6747 5.1088 58.0582 5.53108C58.3636 5.86746 58.6584 6.26151 58.5687 6.7175C58.4341 7.39987 58.8634 7.53336 59.3333 7.67112C59.502 7.72024 59.6825 7.73092 59.8565 7.76402C60.509 7.88469 60.7108 8.27661 60.4396 8.88637C60.1684 9.49613 59.5223 9.72466 58.9307 9.39361C58.6731 9.23342 58.4493 9.02448 58.2718 8.77851C57.8506 8.22708 57.3902 7.70674 56.8942 7.22154C56.2022 6.58081 55.4216 6.47402 54.578 6.82428C54.2907 6.94389 54.1434 6.93107 53.9138 6.68866C52.5864 5.28867 50.8895 4.66929 49.0079 4.53154C48.1536 4.46853 47.7425 5.0815 48.0105 5.89629C48.2063 6.49033 48.5435 7.02793 48.993 7.46288C49.4628 7.92207 49.9473 8.36702 50.4463 8.79773C51.8346 9.9959 52.5821 10.0792 54.2811 9.211C54.0675 9.70543 53.7322 9.89338 53.3734 10.0493C52.58 10.3942 52.5042 10.5448 53.0296 11.2443C53.9319 12.4446 55.2091 13.1056 56.6262 13.4815C57.9899 13.8424 59.2959 13.3875 60.6105 13.0885C61.0771 12.9817 61.2362 12.7243 61.2672 12.278C61.3361 11.3746 61.5066 10.4819 61.7755 9.6168C61.8598 9.31695 62.01 9.0397 62.215 8.80526C62.4201 8.57082 62.6749 8.38511 62.9609 8.26165C63.7664 7.88745 64.6099 7.60103 65.4768 7.40735C65.8869 7.31658 65.9125 7.14145 65.7096 6.82535C65.3357 6.26052 64.8752 5.75814 64.3448 5.33672C61.1273 2.69798 57.5339 0.850543 53.3595 0.295243C51.1223 -0.00269602 48.9599 0.267478 46.9437 1.35031C46.6874 1.48807 46.4097 1.61408 46.209 1.93017C47.2662 1.84901 48.27 1.80309 49.2727 1.90348Z" fill="#AF3830"/>
<path d="M62.4201 9.80695C62.0997 10.831 61.9929 11.8882 61.8989 12.9476C61.858 13.4826 61.969 14.0182 62.2193 14.4928C62.5589 15.1506 62.5589 15.1485 63.1537 14.7512C63.2701 14.6733 63.4079 14.6242 63.5243 14.5451C63.976 14.2365 64.6615 14.6167 64.983 14.1799C65.2905 13.7613 65.4988 13.2626 65.8586 12.8611C66.5453 12.0954 67.2885 11.3767 67.8406 10.4989C68.161 9.99489 68.3746 9.46202 68.3468 8.84799C68.3073 8.11328 68.0126 7.79719 67.2864 7.82602C65.7337 7.88582 64.2963 8.36851 62.9358 9.09787C62.6497 9.25058 62.514 9.5058 62.4201 9.80695Z" fill="#AF3830"/>
<path d="M66.154 36.5158C66.4061 36.4849 66.8919 36.4731 67.3533 36.3599C69.8094 35.7587 71.7925 34.3491 73.563 32.6095C74.3129 31.871 74.8595 30.9515 75.1499 29.9398C75.2567 29.5821 75.2385 29.3931 74.7879 29.3578C74.0077 29.2881 73.2473 29.0741 72.5453 28.7267C71.1976 28.086 69.945 27.269 68.654 26.5237C67.9577 26.1221 67.2337 25.7761 66.4178 25.7217C65.3403 25.6544 64.3621 25.8722 63.7065 26.844C63.0657 27.7944 63.2451 28.7224 63.7748 29.6483C64.1357 30.2805 64.47 30.9297 64.8288 31.5609C65.5934 32.9128 65.7386 34.3374 65.3777 35.8324C65.2175 36.503 65.2581 36.5361 66.154 36.5158ZM74.2582 29.706C74.6192 29.8672 74.3575 30.1203 74.2689 30.2741C73.5577 31.5064 72.5827 32.5113 71.47 33.3816C70.1244 34.4356 68.7041 35.3753 67.0276 35.8367C66.8831 35.8717 66.737 35.8995 66.5897 35.92C66.4328 35.92 66.3612 35.92 66.2907 35.92C66.0846 35.9253 65.9458 35.8591 65.9415 35.622C65.9415 35.4084 66.075 35.3711 66.248 35.3401C69.5916 34.7432 71.801 32.5924 73.6164 29.9238C73.8278 29.6216 74.0008 29.5906 74.2582 29.706ZM66.6762 33.5268C66.3772 32.8861 66.0462 32.303 66.0056 31.5427C66.452 31.8214 66.4413 32.2817 66.6624 32.6821C66.7382 32.3265 66.8033 32.0211 66.8695 31.721C67.0082 32.0102 67.0637 32.3323 67.0298 32.6512C66.9958 32.9702 66.8738 33.2733 66.6773 33.5268H66.6762ZM67.4601 34.5072C67.6993 34.2188 67.8808 33.8611 68.2706 33.6475C68.1382 34.5093 67.1632 35.1084 66.1797 34.8564C66.7072 34.7111 67.1514 34.8788 67.4611 34.5072H67.4601ZM69.945 31.5491C70.5548 31.7979 71.0129 31.7766 71.487 31.4989C71.1443 31.3238 70.8517 31.5929 70.526 31.4989C70.7801 31.2789 71.0941 31.3238 71.3632 31.2458C71.6568 31.1604 71.7903 31.0173 71.7369 30.7119C71.7081 30.5677 71.6558 30.4257 71.8555 30.368C71.9943 30.3285 72.1299 30.3082 72.2527 30.4278C72.3163 30.4777 72.3606 30.548 72.3781 30.6269C72.3957 30.7058 72.3853 30.7883 72.3488 30.8603C72.1993 31.1807 71.9217 31.3783 71.6227 31.5416C71.1368 31.8108 70.7299 32.1226 70.4576 32.6469C70.1041 33.3282 69.0843 33.5749 68.3656 33.1723C68.907 33.1029 69.4004 33.1435 69.8265 32.8519C70.5516 32.3586 70.5783 32.2881 69.9461 31.5491H69.945ZM64.2511 28.7288C64.8203 29.0396 65.0114 29.5639 65.0563 30.1715C64.79 29.691 64.5216 29.2101 64.2511 28.7288ZM64.4646 27.2156C64.4087 27.2545 64.3506 27.2901 64.2906 27.3224C64.2073 26.8686 64.4433 26.6742 64.7647 26.5525C65.76 26.1777 66.7243 26.2941 67.6395 26.7981C68.8686 27.4741 70.1703 28.0069 71.3674 28.7438C71.9409 29.0973 72.5827 29.313 73.2597 29.5789C72.9992 29.8224 72.9255 30.2484 72.4492 30.1395C72.3723 29.9163 72.8347 29.8597 72.6169 29.6718C72.5234 29.6021 72.4089 29.5664 72.2924 29.5707C72.1758 29.575 72.0643 29.6189 71.9761 29.6953C71.91 29.7559 71.827 29.7949 71.7381 29.8073C71.6493 29.8197 71.5587 29.8048 71.4785 29.7647C71.4059 29.7294 71.2585 29.6835 71.345 29.5981C71.8384 29.1165 71.2062 29.2307 71.093 29.1709C70.5452 28.9018 70.0251 28.5003 69.3182 28.7107C69.4324 28.3903 69.724 28.4608 69.8703 28.275C69.0929 27.9632 68.2909 27.8254 67.5145 27.6012C67.396 27.567 67.0137 27.6855 67.3682 27.3299C67.5668 27.1302 67.2614 27.0277 67.1322 26.9775C66.2064 26.6187 65.3008 26.5504 64.4646 27.2156Z" fill="#AF3830"/>
<path d="M32.4355 49.5859L32.4512 49.593V49.5759L32.4355 49.5859Z" fill="#AF3830"/>
<path d="M57.2573 62.1215C57.3321 61.7318 57.3363 61.3078 57.6193 61.0024C57.8393 61.562 58.1682 61.9806 58.8794 61.9485C59.0388 61.9584 59.1957 61.9923 59.345 62.0489C59.6654 62.1354 59.9302 62.0948 60.1502 61.8151C60.8753 60.8988 61.7777 60.2367 62.9267 59.9505C63.1499 59.895 63.1947 59.8053 63.0612 59.6302C62.3244 58.6381 61.4381 57.882 60.1267 57.8436C59.3258 57.8212 59.0118 58.0721 58.8025 58.8538C58.652 59.4198 58.5057 59.99 58.1746 60.4845C58.0593 60.6564 57.9536 60.8678 57.7325 60.9031L57.7421 60.8945C57.8968 60.5777 58.0348 60.253 58.1554 59.9217C58.543 58.684 58.8335 57.3961 60.1662 56.7255C60.0995 56.6671 60.028 56.6142 59.9526 56.5675C57.6097 55.553 55.2721 54.5257 52.9206 53.5347C52.0215 53.1556 51.0881 52.8598 50.1719 52.5202C49.9583 52.4422 49.8013 52.2703 49.5162 52.376C48.7869 52.6462 48.0319 52.848 47.2993 53.1118C46.9106 53.2517 46.6265 53.1513 46.3232 52.9078C46.0029 52.6473 46.0477 52.5319 46.4162 52.4017C47.5203 52.0115 48.6203 51.6096 49.7159 51.196C50.7838 50.7924 51.8517 50.3716 53.0114 49.921C52.8524 50.4196 52.6542 50.9048 52.4187 51.3722C52.3119 51.5772 51.9115 51.6776 52.0653 51.9168C52.1849 52.1026 52.5234 52.1518 52.7679 52.2522C52.8822 52.2991 53.0061 52.3237 53.1246 52.3589C57.441 53.728 61.7937 54.9913 65.9392 56.8494C66.1966 56.9647 66.2884 56.9327 66.2852 56.6422C66.2788 56.0015 66.313 55.3608 66.2329 54.72C66.1848 54.3313 66.1026 53.9373 66.1763 53.5133C66.4464 53.6201 66.5159 53.8251 66.6034 54.0077C66.9181 54.6276 67.1062 55.3039 67.1566 55.9972C67.1673 56.1328 67.0776 56.3614 67.3595 56.3293C68.2565 56.2225 69.1749 56.2225 69.774 55.3373C70.0591 54.9101 70.3805 54.4979 70.8419 54.2395C71.0426 54.1327 70.9486 54.0088 70.8632 53.8967C70.0089 52.7637 68.9987 51.8314 67.5528 51.5473C66.1827 51.2804 65.2942 51.9937 65.2226 53.3713C65.2226 53.4482 65.2579 53.5518 65.1009 53.6073C64.7453 53.2431 64.7464 52.7669 64.8179 52.3258C64.8937 51.8709 65.0934 51.4363 65.2504 50.9557C64.9781 50.9557 64.7474 50.9557 64.5168 50.9557C61.2394 50.8821 57.976 51.1448 54.7136 51.4053C54.484 51.4235 54.1925 51.5068 54.0494 51.3274C53.7974 51.0123 53.54 50.9002 53.1075 51.1565C53.3104 50.4314 53.7013 49.9818 54.185 49.5771C56.1702 47.9283 58.1266 46.2496 59.9025 44.3701C61.2736 42.9188 62.2956 41.285 62.7259 39.3147C62.8327 38.8256 62.9235 38.3451 62.7259 37.8485C62.5828 37.4865 62.0713 37.132 62.2358 36.8629C62.4002 36.5938 62.9609 36.5788 63.3357 36.424C64.064 36.126 64.5883 35.6711 64.7239 34.8222C65.0005 33.0334 63.5738 30.4246 61.8887 29.7123C61.4156 29.5116 61.0216 29.5885 60.714 30.0092C60.5143 30.2815 60.32 30.557 60.1256 30.8336C59.9014 31.154 59.7113 31.1999 59.5404 30.7856C59.392 30.4246 59.2393 30.0626 59.0578 29.7177C58.653 28.9413 58.1458 28.8025 57.3951 29.2371C56.6443 29.6717 56.6358 29.6771 56.3272 28.8762C56.308 28.826 56.2877 28.7769 56.2674 28.7277C56.0154 28.1094 55.6576 27.9663 55.0457 28.2429C54.8991 28.3102 54.7565 28.3858 54.6186 28.4693C54.1209 28.7694 53.6457 28.7139 53.1342 28.3828C53.241 28.3476 53.2987 28.3262 53.3595 28.307C55.2572 27.7047 56.0581 26.294 55.507 24.3815C54.9218 22.3525 53.4108 21.1468 51.6199 20.2253C51.5236 20.1779 51.4186 20.1506 51.3113 20.1452C51.0913 20.1291 50.8436 20.1644 50.7518 20.3683C50.6685 20.551 50.8831 20.678 51.0134 20.7859C51.6964 21.329 52.3444 21.9147 52.9537 22.5394C53.5891 23.2143 54.0387 23.9885 54.1775 24.9197C54.3537 26.104 53.6585 27.1195 52.5255 27.3448C50.661 27.7154 48.6427 26.1242 48.5743 24.2234C48.5551 23.7418 48.5541 23.2356 48.2625 22.8352C47.9368 22.3909 47.9187 21.9392 47.9849 21.4277C48.0607 20.8446 48.1728 20.2712 48.3052 19.6988C48.4473 19.0719 48.5402 18.4398 48.4676 17.7947C48.4493 17.4906 48.3336 17.2004 48.1376 16.9671C48.0308 16.8475 47.8845 16.7536 47.7104 16.8465C47.5364 16.9394 47.6036 17.0921 47.6453 17.2234C48.2145 18.9096 47.783 20.5659 47.4979 22.2265C47.4756 22.3313 47.4146 22.424 47.3271 22.486C46.9074 22.8394 46.7675 23.3339 46.634 23.8368C46.5101 24.3067 46.5582 24.7894 46.5101 25.2913C45.5608 25.1204 44.6573 24.8802 43.865 24.3377C42.9317 23.6969 42.6818 22.7989 43.1474 21.8068C42.4885 21.6466 42.1756 21.9275 42.3133 22.5543C42.402 22.9601 42.6166 23.3104 42.8131 23.6692C43.0214 24.0493 43.0747 24.4284 42.6743 24.7104C42.2738 24.9923 41.978 24.6933 41.7079 24.4338C41.5698 24.2948 41.4423 24.1455 41.3266 23.9874C41.0725 23.6542 40.877 23.6136 40.7126 24.0664C40.6474 24.248 40.6122 24.4765 40.3762 24.5726C40.2096 24.3996 40.153 24.1914 40.0847 23.9927C39.9715 23.666 39.8188 23.7087 39.6522 23.9415C39.4856 24.1743 39.3318 24.453 39.1385 24.689C38.8417 25.0564 38.5651 25.0574 38.2597 24.7008C37.9318 24.3184 37.9222 23.9105 38.1604 23.4673C38.3937 23.0642 38.4879 22.5955 38.4284 22.1336C38.3729 21.7758 38.0995 21.6722 37.7877 21.7331C37.3957 21.8089 37.6446 22.0535 37.7097 22.2201C37.9713 22.8864 37.7588 23.4503 37.3157 23.9361C36.6664 24.6484 35.7896 24.9784 34.8456 25.3714C35.087 24.1967 35.0133 23.1587 34.2626 22.2681C34.2448 22.2353 34.2352 22.1986 34.2348 22.1613C33.9625 20.5691 33.5781 18.9822 34.0106 17.3558C34.0511 17.2063 34.2006 16.9682 33.986 16.8796C33.7713 16.7909 33.5855 16.9864 33.482 17.1786C33.2431 17.6221 33.1676 18.1353 33.2684 18.6288C33.4585 19.6764 33.6881 20.7165 33.8867 21.763C33.9315 21.999 33.9999 22.2553 33.7884 22.4689C33.3292 22.9313 33.2374 23.5282 33.1936 24.139C33.0762 25.7633 32.1642 26.8654 30.6008 27.2637C29.1987 27.6214 27.6951 26.4959 27.6289 25.051C27.5744 23.8678 28.1778 22.9879 28.9221 22.1677C29.4037 21.6338 29.9761 21.213 30.5346 20.772C30.8432 20.5285 30.7556 20.3908 30.4278 20.2733C30.3545 20.2415 30.275 20.2265 30.1952 20.2294C30.1154 20.2324 30.0372 20.2532 29.9665 20.2904C28.1148 21.2793 26.6325 22.6098 26.0837 24.7221C25.7377 26.0741 26.2353 27.1526 27.4388 27.8499C27.7592 28.0347 28.0966 28.1842 28.4415 28.3572C27.6534 28.794 27.2957 28.8206 26.8013 28.4949C25.7633 27.8115 25.5006 27.8681 24.8652 28.9082C24.846 28.9392 24.8289 28.9701 24.8118 29.0011C24.5982 29.3973 24.3697 29.5276 23.9319 29.22C23.3125 28.7854 22.7775 28.9221 22.3226 29.5404C22.2382 29.6536 22.1741 29.7828 22.0983 29.9024C21.8762 30.2537 21.904 30.9137 21.5238 30.9521C21.1436 30.9906 20.9461 30.3968 20.6834 30.0669C20.5776 29.9226 20.4352 29.8092 20.271 29.7384C20.1067 29.6676 19.9265 29.642 19.749 29.6643C18.9064 29.7454 18.1471 30.0274 17.5951 30.698C16.8541 31.5921 16.3708 32.6712 16.1972 33.8194C16.0167 34.9855 16.4834 35.7736 17.5 36.3054C17.8941 36.5115 18.3244 36.6162 18.7558 36.7988C18.2433 37.4876 18.1247 38.2501 18.2465 39.0499C18.5198 40.8418 19.1403 42.4853 20.3822 43.849C21.9889 45.638 23.7833 47.2491 25.7345 48.6545C26.5888 49.2589 27.0608 50.094 27.615 50.9397C27.3544 51.0006 27.112 50.7176 26.8995 50.9589C26.9764 51.4096 26.719 51.5783 26.3282 51.5997C25.9727 51.6218 25.6162 51.6246 25.2603 51.6082C22.4721 51.4694 19.6934 51.1683 16.8988 51.1341C15.895 51.1223 14.8922 51.0892 13.8713 51.1971C14.5697 52.3579 14.6925 53.3499 14.2099 53.7803C14.1874 52.3824 13.6471 51.8421 12.2236 51.825C10.8749 51.809 9.7931 52.4091 8.8619 53.3286C8.13574 54.0451 8.14001 54.0483 8.71347 54.8332C8.72473 54.8468 8.73508 54.861 8.74444 54.8759C9.3275 55.9438 10.3003 56.277 11.4323 56.4425C12.0495 56.5322 12.1093 56.3144 12.1574 55.8146C12.2407 54.9357 12.6379 54.1808 13.2594 53.4247C13.3255 53.6268 13.3288 53.8442 13.2691 54.0483C13.0915 54.8828 12.9713 55.7284 12.9092 56.5792C12.8814 56.9914 12.9423 57.142 13.3791 56.9081C13.837 56.6725 14.3088 56.465 14.7919 56.2866C18.7761 54.7306 22.8503 53.4158 26.9924 52.3493C27.4014 52.2425 27.7688 52.1005 27.9834 51.7033C28.0667 51.5484 28.197 51.4544 28.3775 51.5281C29.125 51.8239 29.9302 51.9126 30.6553 52.265C30.809 52.3397 31.0408 52.391 31.0119 52.6046C30.9895 52.7797 30.7653 52.7743 30.6179 52.8181C27.1483 53.8497 23.761 55.1312 20.3502 56.3464C20.0298 56.4617 19.6881 56.56 19.3816 56.8024C19.9497 57.2296 20.4271 57.7058 20.5712 58.3733C20.8617 59.7113 21.5035 60.918 21.9509 62.2443C22.1752 61.988 22.3952 61.7382 22.613 61.4861C25.1888 58.5035 28.2856 56.0399 30.9799 53.1812C31.2031 52.9452 31.3601 53.0221 31.563 53.1812C32.051 53.5699 32.5892 53.8219 33.2363 53.7248C33.6917 53.6479 34.1387 53.5277 34.5712 53.366C36.3524 52.7498 38.0525 51.9339 39.7953 51.2302C40.1616 51.0817 40.4915 51.0294 40.8931 51.1693C41.7666 51.4715 42.6145 51.8335 43.4699 52.1763C45.108 52.8331 46.6554 53.7611 48.5177 53.7312C49.0581 53.7226 49.2589 53.4738 49.4596 53.037C49.3379 53.0317 49.2685 53.0317 49.2001 53.0253C49.1147 53.0178 49.0314 53.0061 48.9129 52.9922C49.4201 52.6644 49.5194 52.6718 49.8248 53.0584C50.0117 53.2955 50.1879 53.5422 50.3823 53.7728C52.6163 56.4265 54.8941 59.0439 56.9284 61.8588C57.0021 61.9592 57.0523 62.1173 57.2573 62.1215ZM60.1107 51.8698C61.4904 51.7492 62.868 51.7502 64.2349 52.0108C64.4175 52.046 64.6791 52.0418 64.6738 52.2981C64.6684 52.5544 64.4153 52.5501 64.2285 52.5832C63.0207 52.7914 61.8321 52.5832 60.6436 52.4027C60.2613 52.3461 59.8726 52.2959 59.5266 52.0898C59.6835 51.903 59.911 51.8859 60.1107 51.8677V51.8698ZM63.1744 31.7776C63.8152 32.4878 64.1879 33.3068 64.1441 34.2839C64.1163 34.9193 63.8002 35.3892 63.2791 35.7245C63.0965 35.8409 62.8519 35.9093 62.7014 35.7053C62.5369 35.481 62.7622 35.3657 62.9149 35.2546C63.3485 34.9482 63.4905 34.5007 63.4905 34.0031C63.4905 32.9993 63.1317 32.145 62.2881 31.453C62.7398 31.3505 62.9705 31.5512 63.1744 31.7755V31.7776ZM17.6474 33.7286C17.5876 34.4463 17.6581 35.0838 18.3885 35.4511C18.4857 35.4992 18.5935 35.5579 18.554 35.685C18.5049 35.842 18.3554 35.8067 18.2336 35.8057C17.7926 35.7993 17.3078 35.4041 17.1893 34.8766C16.9426 33.782 17.1818 32.7569 17.7905 31.8331C18.0318 31.4669 18.4045 31.2287 19.0655 31.3302C18.0211 31.8994 17.7296 32.7515 17.6474 33.7286ZM17.9133 52.7231C16.9575 52.8074 15.9975 52.8779 15.0449 52.6846C14.8645 52.6483 14.59 52.6377 14.6082 52.392C14.6253 52.1785 14.8997 52.2233 15.0578 52.1966C16.7119 51.9232 18.3682 51.9681 20.0266 52.2297C19.3613 52.6013 18.633 52.659 17.9133 52.7231ZM25.9224 55.317C25.1898 55.711 24.5011 56.1852 23.7332 56.5141C23.1459 56.765 22.565 57.032 21.9787 57.2851C21.8014 57.362 21.5921 57.4602 21.4629 57.2253C21.3476 57.0181 21.4757 56.8462 21.6306 56.7148C21.8028 56.562 21.9883 56.4248 22.1848 56.3048C23.3685 55.6212 24.6425 55.1079 25.9694 54.7798C26.1029 54.7467 26.2759 54.6026 26.3496 54.8759C26.2962 55.1045 26.0986 55.223 25.9245 55.317H25.9224ZM22.2371 42.4148C21.291 40.9059 20.6535 39.2816 20.5702 37.4705C20.4855 35.6288 21.1241 34.0917 22.486 32.8594C24.7851 30.7813 27.3683 29.1218 30.1598 27.7944C34.0885 25.9267 38.249 25.2849 42.576 25.5123C47.609 25.7782 51.951 27.7923 55.9534 30.6916C56.8173 31.3174 57.662 31.9794 58.48 32.6576C59.7519 33.7062 60.2954 35.1137 60.4246 36.7241C60.6478 39.4803 59.7209 41.8446 57.9108 43.8586C56.0948 45.9024 53.8306 47.4985 51.2953 48.522C51.1148 48.5946 50.929 48.6544 50.7421 48.7132C50.6755 48.7192 50.6083 48.716 50.5425 48.7036C50.6311 48.4099 50.8852 48.3512 51.0871 48.254C53.3157 47.1861 55.3746 45.8673 57.1099 44.0892C58.7459 42.4127 59.8565 40.4723 60.0178 38.0813C60.0755 37.2101 59.994 36.3352 59.7764 35.4896C59.5415 34.5691 59.1069 33.7617 58.3679 33.1531C55.4312 30.7354 52.3237 28.5857 48.7281 27.2455C45.1326 25.9053 41.3854 25.7046 37.589 26.1317C32.1183 26.7468 27.5605 29.3204 23.3541 32.6821C21.6776 34.0223 20.7731 35.6829 21.0219 37.8731C21.1757 39.1837 21.5938 40.4494 22.251 41.5936C23.8635 44.4481 26.1755 46.6255 28.8975 48.396C29.613 48.8616 30.3488 49.2941 31.0739 49.7426C31.312 49.8911 31.5651 50.0245 31.6548 50.3652C31.0632 50.0662 30.4598 49.7875 29.8811 49.466C26.7692 47.7329 24.1444 45.454 22.2371 42.4148ZM46.4055 40.0067C46.4535 39.5422 46.713 39.4418 47.0099 39.4429C47.5588 39.4429 47.8834 39.7814 48.0586 40.2641C48.1653 40.5652 48.2721 40.8952 47.8589 41.1793C47.8418 40.7382 47.7798 40.3751 47.484 40.0847C47.1712 39.7771 46.8358 39.7921 46.4055 40.0067ZM47.1316 41.4623C47.082 41.511 47.0225 41.5485 46.957 41.5721C46.8916 41.5956 46.8218 41.6048 46.7525 41.5989C46.7408 41.2604 46.7461 40.9582 46.5721 40.6603C46.4279 40.4179 46.6244 40.3463 46.8305 40.3933C47.0761 40.4499 47.3025 40.5663 47.389 40.8258C47.4755 41.0853 47.3388 41.301 47.1316 41.4623ZM36.4304 41.0554C36.4603 41.036 36.4926 41.0206 36.5265 41.0095C37.7807 40.5966 39.0562 40.2511 40.3474 39.9747C41.522 40.0996 42.5611 40.4873 43.6236 40.7542C43.8981 40.8226 44.1576 40.9486 44.4342 41.0084C44.7107 41.0682 44.7972 41.254 44.7204 41.4729C44.6435 41.6918 44.4512 41.5359 44.3146 41.4996C43.3065 41.2295 42.2963 40.9657 41.2935 40.6742C40.7644 40.5185 40.202 40.5159 39.6714 40.6667C38.6633 40.9411 37.6531 41.2006 36.6632 41.5466C36.5564 41.5829 36.3663 41.8008 36.2787 41.5253C36.2448 41.4416 36.2414 41.3487 36.2692 41.2628C36.2969 41.1769 36.354 41.1034 36.4304 41.0554ZM36.236 40.7147C36.079 40.3452 36.2083 40.1733 36.5414 40.0452C37.5687 39.6522 38.6089 39.2987 39.6618 38.9848C40.1404 38.8355 40.6526 38.8318 41.1333 38.9741C42.1169 39.2742 43.0886 39.6073 44.0647 39.9352C44.1821 39.9745 44.2949 40.0264 44.4011 40.09C44.5634 40.1883 44.8229 40.2886 44.7214 40.5108C44.5975 40.7703 44.3733 40.5417 44.2249 40.4798C43.2381 40.0687 42.1959 39.853 41.1771 39.5433C40.6111 39.3703 40.0526 39.444 39.5016 39.6116C38.3985 39.9395 37.3028 40.2876 36.236 40.7147ZM44.0316 39.2838C43.1901 38.9079 42.2984 38.6783 41.4302 38.3814C40.8002 38.1678 40.1776 38.2469 39.5497 38.4391C38.3974 38.7936 37.29 39.2624 36.1719 39.7077C35.9979 39.7771 35.7982 39.9437 35.6647 39.6949C35.5077 39.4034 35.7982 39.3244 35.9712 39.2443C37.2844 38.6188 38.6557 38.1235 40.0655 37.7652C40.3784 37.6867 40.7054 37.6826 41.0201 37.7535C42.4207 38.0732 43.7816 38.5466 45.0781 39.1652C45.2319 39.24 45.4059 39.3126 45.4326 39.523C45.3472 39.7248 45.2191 39.7857 45.0108 39.6885C44.6894 39.5401 44.3519 39.4247 44.0284 39.2806L44.0316 39.2838ZM34.8478 41.7687C34.9546 41.8211 35.0336 41.9033 34.9877 42.0176C34.9364 42.1489 34.8072 42.1008 34.7122 42.0699C34.3598 41.9545 33.9849 41.7495 34.0159 41.3715C34.0426 41.0426 34.4964 41.0447 34.7634 40.9625C35.2226 40.8226 35.3561 40.6421 35.1468 40.2534C34.9567 39.8967 34.599 39.8636 34.3288 40.1669C34.1547 40.3634 34.1398 40.6667 33.8728 40.8322C33.5428 40.3452 33.8589 40.0185 34.1537 39.7355C34.474 39.4301 34.8681 39.4279 35.2215 39.7045C35.6818 40.0665 35.8089 40.7916 35.5419 41.3063C35.4351 41.5092 35.3144 41.6192 35.1681 41.3822C34.9663 41.0618 34.7987 41.2679 34.6684 41.4067C34.458 41.6288 34.6961 41.6908 34.8488 41.7655L34.8478 41.7687ZM33.1968 41.8104C32.6543 40.9486 32.6746 40.451 33.2257 40.1434C32.932 40.6549 33.1669 41.1814 33.1979 41.8072L33.1968 41.8104ZM32.9299 42.7256C32.9299 42.8323 32.8071 43.1303 32.57 42.9263C32.3564 42.7416 32.0852 42.5664 32.1215 42.2151C32.4322 42.2343 32.6949 41.8221 33.0697 42.1916C33.4061 42.5184 32.9331 42.5301 32.9309 42.7224L32.9299 42.7256ZM31.7189 37.211C31.5648 37.184 31.4135 37.1425 31.2672 37.0871C31.1967 37.0423 31.1219 37.2099 31.0536 37.0871C30.0925 37.0871 29.3546 36.5265 28.5878 36.0566C28.0539 35.7363 27.5467 35.3775 27.0277 35.0368C26.5738 34.7399 26.1093 34.7164 25.6106 34.9364C24.7546 35.3052 24.0401 35.9399 23.5731 36.7465C23.1256 37.5004 23.3232 38.5619 24.0194 39.2379C24.374 39.586 24.767 39.9021 25.1364 40.2288C25.5059 40.5556 25.5946 40.908 25.2133 41.2732C25.0147 41.4644 25.0788 41.5797 25.2315 41.7538C25.8039 42.4073 25.9843 42.4746 26.8045 42.1532C28.3454 41.5498 29.6878 41.82 30.8624 42.9947C30.9644 43.0935 31.0748 43.1832 31.1924 43.2627C31.3045 43.3407 31.4637 43.361 31.5224 43.5628C31.2832 43.6813 31.0792 43.7966 30.8539 43.4944C30.0829 42.4629 29.0385 42.213 27.8243 42.4661C27.5296 42.528 27.2412 42.6209 26.9497 42.6978C26.0249 42.9391 25.5753 42.7854 25.0136 42.0218C24.8535 41.8082 24.7221 41.5477 24.4114 41.8446C24.3546 41.8883 24.2844 41.9109 24.2127 41.9086C23.745 41.9086 22.9067 40.6902 23.0701 40.2491C23.1191 40.1359 23.1886 40.0327 23.2751 39.9448C23.3467 39.8668 23.4567 39.8028 23.5538 39.8861C23.6339 39.9533 23.5645 40.0462 23.5357 40.1285C23.3221 40.7372 23.5015 41.1355 24.1038 41.3459C24.5117 41.489 24.7136 41.1323 24.9346 40.9091C25.1877 40.6549 24.8695 40.5481 24.7264 40.4307C24.2651 40.0526 23.9628 39.4771 23.3317 39.3115C23.3145 39.3068 23.2984 39.2985 23.2846 39.2871C23.2708 39.2757 23.2595 39.2616 23.2515 39.2455C23.2436 39.2295 23.2391 39.212 23.2384 39.1941C23.2376 39.1762 23.2407 39.1584 23.2474 39.1417C23.4065 38.6003 23.0989 38.1347 22.9964 37.6403C22.8597 36.9761 22.99 36.409 23.4396 35.9114C24.0456 35.257 24.7704 34.7236 25.5753 34.3395C26.2278 34.0191 26.8451 34.1387 27.4463 34.5039C28.4213 35.0966 29.2841 35.8398 30.2025 36.5094C30.4695 36.7048 30.6884 36.991 31.0653 36.991C31.1187 36.7486 30.8891 36.6867 30.7759 36.5639C29.9056 35.6028 29.4624 34.5082 29.6611 33.1979C29.7123 32.8594 29.7881 32.5347 30.1373 32.3575C30.4086 32.2197 30.3018 31.9495 30.3146 31.7349C30.3808 30.5784 31.0824 29.9483 32.0916 29.5799C33.0676 29.2232 34.0458 29.1303 34.7762 30.0284C35.1207 30.4557 35.5028 30.8514 35.9178 31.2106C36.4293 31.6527 36.4678 32.4002 36.1239 33.0794C35.4287 34.4537 33.7585 34.9386 32.3703 34.1697C32.0617 34.7186 32.0649 34.7367 32.6159 34.9087C33.4339 35.1628 34.269 35.1222 35.0977 35.0005C35.4244 34.9503 35.465 35.0517 35.4383 35.3209C35.3732 35.9851 34.9257 36.408 34.0853 36.5158C33.8151 36.55 33.6827 36.66 33.5054 36.8682C33.026 37.4438 32.3468 37.2644 31.7199 37.2078L31.7189 37.211ZM32.114 42.2087C31.5918 42.3433 31.3601 42.1158 31.2287 41.6053C31.0568 40.9358 30.8955 40.278 31.0258 39.5614C31.0814 40.498 31.516 41.2562 32.0809 41.9556C32.1279 42.009 32.1087 42.119 32.1151 42.2098L32.114 42.2087ZM24.5075 36.5713C24.5381 36.503 24.5907 36.4468 24.6568 36.4116C24.7229 36.3764 24.7989 36.3643 24.8727 36.377C25.9192 36.3706 26.9647 36.377 27.9994 36.5553C28.1032 36.5765 28.2055 36.6039 28.3059 36.6376C28.4127 36.6696 28.5195 36.7241 28.5195 36.8426C28.5195 36.9878 28.4127 37.0562 28.2782 37.0818C27.5306 37.2078 26.7949 37.3573 26.0303 37.2473C26.6582 36.9846 27.3534 37.0487 27.9994 36.8586C26.8611 36.5767 25.6928 36.6568 24.5085 36.5681L24.5075 36.5713ZM24.8033 35.6861C25.1493 35.5195 25.4803 35.6412 25.8113 35.6957C26.5823 35.8083 27.3453 35.9703 28.0956 36.1805C28.2718 36.2339 28.4746 36.2595 28.5942 36.4336C27.3131 36.2838 26.0458 36.0327 24.8043 35.6829L24.8033 35.6861ZM26.5866 43.5606L26.5461 43.5265C27.4174 43.6781 28.3027 43.5083 29.1741 43.6653C28.2995 43.7347 27.426 43.7529 26.5877 43.5574L26.5866 43.5606ZM28.7363 44.3797C27.7944 44.3274 26.8611 44.2056 25.9865 43.802C26.9358 43.7756 27.878 43.9724 28.7373 44.3765L28.7363 44.3797ZM26.0367 43.2873L29.7935 42.9423C29.4155 43.2606 27.1152 43.4699 26.0377 43.2841L26.0367 43.2873ZM36.5671 37.7492C36.7358 37.7439 36.7903 37.8945 36.7988 38.0493C36.8084 38.2287 36.7518 38.3761 36.5521 38.3889C36.3524 38.4017 36.3332 38.249 36.3086 38.1006C36.3588 37.9521 36.3695 37.7535 36.5681 37.746L36.5671 37.7492ZM38.6025 28.1137C38.5074 28.1212 38.3793 28.1767 38.3333 28.0315C38.3034 27.9332 38.3814 27.8692 38.4401 27.804C38.6996 27.5157 39.0403 27.4452 39.4066 27.4452C39.4421 27.4419 39.4778 27.4419 39.5134 27.4452C39.7451 27.4879 40.1007 27.4142 40.1039 27.7464C40.1039 28.0518 39.7664 27.9749 39.555 28.0059C39.2378 28.0486 38.9196 28.0806 38.6025 28.1137ZM39.1898 37.2196C39.1898 37.4748 38.9602 37.5282 38.7712 37.526C38.5074 37.526 38.6014 37.2729 38.5394 37.1491C38.6153 36.9472 38.6035 36.6696 38.8534 36.692C39.1214 36.7123 39.1887 36.9846 39.1898 37.2153V37.2196ZM39.4941 28.6338C39.8412 28.6284 40.0558 28.7406 40.0761 29.0727C40.0825 29.1795 40.0227 29.3087 39.8903 29.2478C39.6404 29.1325 39.3361 29.0342 39.2496 28.7512C39.2058 28.6039 39.4365 28.6637 39.4941 28.6295V28.6338ZM39.7632 36.8458C39.8038 36.6322 39.7579 36.3588 40.0772 36.2873C40.3089 36.345 40.3431 36.5382 40.3602 36.7358C40.3815 36.991 40.2182 37.0775 40.0014 37.1021C39.8092 37.1202 39.7323 37.0081 39.7632 36.8415V36.8458ZM40.1349 26.9006C40.0863 26.9228 40.0334 26.9338 39.98 26.9326C38.3782 26.8654 37.5645 27.7367 37.2826 29.3525C36.8618 28.5964 37.1245 27.5883 37.7599 27.1099C38.2778 26.7169 38.9036 26.5439 39.4845 26.2876C39.7899 26.1531 40.0334 26.4382 40.2128 26.6827C40.2234 26.7016 40.2299 26.7225 40.2316 26.744C40.2334 26.7655 40.2305 26.7872 40.2231 26.8075C40.2157 26.8278 40.2039 26.8463 40.1887 26.8616C40.1735 26.8769 40.1551 26.8888 40.1349 26.8963V26.9006ZM38.0098 37.5591C38.0226 37.7727 37.903 37.9105 37.7054 37.9158C37.4523 37.9233 37.4919 37.6916 37.4545 37.5816C37.4545 37.3466 37.447 37.1341 37.6915 37.1416C37.9361 37.1491 37.997 37.3445 38.0098 37.5549V37.5591ZM44.5303 31.1807C45.0642 31.0675 45.4465 30.7279 45.7402 30.3178C46.5165 29.2339 47.4381 28.9296 48.8232 29.3642C50.0971 29.7636 50.7624 30.6457 50.7827 31.8908C50.7891 32.2774 50.8618 32.6255 50.4709 32.8968C50.1858 33.0943 49.9882 33.4553 49.6305 32.9747C49.5077 32.8092 49.3528 32.8562 49.2984 33.1328C49.072 34.2903 48.2251 34.788 47.0622 34.5744C46.0755 34.3929 45.4113 33.7788 44.841 33.0495C44.448 32.5454 44.4673 31.9282 44.7844 31.2789C43.9824 31.689 43.8308 31.9816 43.9632 32.6864C43.9785 32.8092 43.9767 32.9335 43.9579 33.0559C43.913 33.4489 44.0711 33.6688 44.4758 33.6966C44.5996 33.7061 44.7227 33.7236 44.8442 33.7489C44.9585 33.7703 45.0418 33.8322 45.0279 33.9625C45.014 34.0928 44.8901 34.1131 44.7908 34.1184C44.5207 34.1334 44.2441 34.1184 44.0294 33.9401C43.4677 33.4649 43.4763 32.8092 43.5542 32.1706C43.6204 31.6238 43.9921 31.2907 44.5303 31.1764V31.1807ZM44.5303 27.175C44.6072 26.9967 44.6947 26.8184 44.9361 26.8365C45.0332 26.844 45.1828 26.8365 45.1251 26.9946C45.045 27.2081 44.8389 27.2829 44.6381 27.3491C44.5196 27.3384 44.4961 27.2594 44.5324 27.1708L44.5303 27.175ZM45.5533 27.2818C45.5725 27.1302 45.6601 26.9305 45.8876 26.9444C46.0926 26.9561 46.2976 27.0512 46.2966 27.2711C46.2966 27.5093 46.0648 27.4783 45.8929 27.4901C45.7498 27.4634 45.5255 27.5093 45.5554 27.2786L45.5533 27.2818ZM44.2035 37.8165C44.1693 37.9639 44.2035 38.1945 43.9472 38.1742C43.7678 38.1604 43.6119 38.0472 43.6557 37.8218C43.6931 37.6275 43.7678 37.4257 44.0059 37.4406C44.2163 37.4491 44.212 37.6371 44.2056 37.8133L44.2035 37.8165ZM43.5756 28.6476C43.661 27.6011 43.3161 27.1697 42.3048 26.9956C41.903 26.9266 41.4926 26.9226 41.0896 26.9839C40.9828 26.9999 40.8632 27.0661 40.7948 26.9657C40.704 26.8344 40.8343 26.7425 40.9016 26.6454C41.1494 26.3175 41.3918 26.0837 41.8744 26.2962C42.339 26.5012 42.858 26.576 43.3172 26.8141C44.0754 27.2049 44.1971 27.9268 43.5756 28.6476ZM41.5466 36.4432C41.7655 36.4144 41.8317 36.55 41.8403 37.0199C41.7933 37.1352 41.9695 37.4182 41.6587 37.3691C41.4313 37.3327 41.1483 37.2249 41.1494 36.9248C41.1415 36.8083 41.1788 36.6932 41.2536 36.6035C41.3284 36.5138 41.4348 36.4564 41.5509 36.4432H41.5466ZM41.1889 27.7314C41.1948 27.6595 41.2282 27.5926 41.282 27.5445C41.3359 27.4964 41.4061 27.4708 41.4783 27.473C41.8848 27.4239 42.2971 27.473 42.6807 27.6161C42.8046 27.6663 42.9904 27.7229 42.9626 27.8873C42.9295 28.0774 42.7352 27.9941 42.6049 28.0101C42.5252 28.0146 42.4453 28.0146 42.3657 28.0101C42.0944 27.9792 41.7965 27.9514 41.4996 27.9097C41.3768 27.9001 41.1793 27.9631 41.1931 27.7325L41.1889 27.7314ZM41.3213 29.0502C41.5028 28.5547 41.7954 28.4608 42.6027 28.6605L41.3213 29.0502ZM42.5301 37.5367C42.5536 37.3605 42.6369 37.1886 42.8505 37.164C43.0064 37.1459 43.0758 37.2377 43.0726 37.4075C43.0075 37.5399 43.0673 37.7845 42.8313 37.8112C42.6743 37.8314 42.5088 37.7385 42.5344 37.5378L42.5301 37.5367ZM45.093 40.6806C45.2191 40.3068 45.3258 39.8935 45.7114 39.76C45.9249 39.7355 46.0317 39.7889 46.0851 39.9128C46.1385 40.0366 46.0691 40.105 45.9708 40.169C45.8512 40.2427 45.7399 40.329 45.6387 40.4264C45.375 40.6944 45.359 40.9251 45.785 41.0116C46.1406 41.0832 46.319 41.3138 46.4535 41.6235C46.5272 41.7986 46.4535 41.899 46.3083 41.9578C46.1631 42.0165 46.0061 41.9823 45.9965 41.7954C45.9794 41.4516 45.722 41.3918 45.4786 41.2807C45.2351 41.1697 44.9884 40.9988 45.0952 40.6816L45.093 40.6806ZM45.9911 35.4971C45.9705 35.4797 45.9509 35.4611 45.9324 35.4415C45.9324 35.4415 45.9506 35.418 45.9602 35.4063L46.0082 35.48C46.6233 35.7042 47.2438 35.8996 48.0052 35.7053C47.153 36.1634 46.2677 36.0449 45.9911 35.4971ZM46.6319 36.314L46.5358 36.2926C46.5464 36.2926 46.5614 36.2745 46.5689 36.2787C46.5885 36.2893 46.6074 36.3011 46.6255 36.314H46.6319ZM47.9133 42.0421C47.955 41.836 48.1728 41.7976 48.3405 41.9236C48.5081 42.0496 48.7004 42.0208 48.8883 41.9994C48.8808 42.1553 48.9097 42.3262 48.8531 42.4607C48.7559 42.6903 48.5946 42.9317 48.2924 42.7811C48.1524 42.7216 48.0372 42.6156 47.9664 42.4809C47.8955 42.3462 47.8734 42.1912 47.9037 42.0421H47.9133ZM48.2647 37.2975C47.6752 37.0839 47.248 36.5863 46.6789 36.3279C47.8856 36.4005 48.6235 35.9637 48.947 34.9823C48.0126 35.9093 46.9896 35.6081 45.8854 35.2087C46.272 34.9524 46.6468 35.0112 47.0056 34.9951C47.703 34.9717 48.4291 35.0699 48.946 34.4185C49.0656 34.2669 49.1521 34.3971 49.2129 34.5253C49.3795 34.8606 49.3304 35.181 49.1457 35.4864C48.7965 36.0684 48.238 36.3642 47.6207 36.5767C48.1162 37.211 48.4291 37.242 48.9951 36.7102C49.2151 36.503 49.4222 36.283 49.6433 36.0769C49.8195 35.9082 49.9156 35.7234 49.6785 35.543C49.3902 35.323 49.5653 35.1703 49.7725 35.1649C50.6268 35.1393 50.6332 34.5082 50.7261 33.9145C50.7785 33.5845 50.8756 33.262 50.9846 32.7974C51.2184 33.6955 51.1597 34.426 50.834 35.1468C50.5489 35.7768 50.048 36.2318 49.5974 36.7283L49.6764 36.8202C50.504 36.6963 51.1266 36.173 51.7801 35.7202C52.4337 35.2675 53.0381 34.7933 53.7205 34.4046C54.3495 34.0458 54.9667 34.0437 55.5914 34.3982C56.4673 34.8806 57.2315 35.5426 57.834 36.3407C58.18 36.8041 58.2857 37.2932 58.1052 37.8443C58.0315 38.0707 57.9835 38.2191 58.3636 38.1935C58.4851 38.1806 58.6078 38.1996 58.7198 38.2484C58.8317 38.2972 58.9291 38.3742 59.0024 38.4719C59.0757 38.5696 59.1224 38.6847 59.1379 38.8058C59.1534 38.927 59.1372 39.0501 59.0909 39.1631C58.8057 39.8604 58.4245 40.5204 58.0582 41.1825C57.992 41.3042 57.8628 41.5552 57.6535 41.3565C57.4442 41.1579 57.6695 41.0554 57.7902 40.9294C57.8607 40.8589 57.9685 40.8002 57.9194 40.624C57.3182 40.6806 56.7928 40.3474 56.1777 40.2577C56.2919 40.0708 56.3827 39.917 56.3913 39.7109C56.4105 39.2208 56.6572 38.8513 57.0469 38.548C57.8703 37.9073 57.9301 37.4096 57.3299 36.5457C56.9976 36.0838 56.5947 35.6769 56.136 35.3401C55.3351 34.7282 54.5342 34.6737 53.6714 35.2205C52.9975 35.6476 52.3162 36.0748 51.6157 36.4539C50.9483 36.8191 50.2648 37.18 49.4521 37.0092C49.3123 36.9803 49.2279 37.0999 49.1264 37.1651C48.8605 37.337 48.5637 37.4096 48.2647 37.2975ZM52.879 36.2766C53.8368 35.943 54.8421 35.7663 55.8562 35.7533C54.8492 36.1688 53.7205 36.0737 52.7273 36.5447C52.6494 36.3887 52.7701 36.3172 52.879 36.2787V36.2766ZM52.7188 36.5575L52.6804 36.6066L52.6611 36.566L52.7188 36.5575ZM53.2218 36.4614H56.0292C55.0948 36.7518 54.1572 36.5991 53.2196 36.4614H53.2218ZM54.9763 37.2409C54.3356 37.2067 53.7226 37.0092 53.1171 36.7945C53.7589 36.8235 54.3893 36.975 54.9742 37.2409H54.9763ZM48.9684 41.7581C49.5354 41.1974 49.7159 40.4894 49.7736 39.7291C49.7832 39.6127 49.7501 39.4771 49.9241 39.3457C50.1313 40.2523 49.9295 41.081 49.6337 41.883C49.4906 42.2728 49.1435 41.9513 48.8915 41.9898C48.9118 41.9097 48.9139 41.8082 48.9663 41.7581H48.9684ZM49.6647 43.0278C50.4495 42.3433 51.2665 41.725 52.3813 41.71C53.0751 41.7316 53.7561 41.9021 54.3783 42.2098C54.6549 42.3422 54.8482 42.3166 55.0799 42.088C55.5199 41.6523 56.1029 41.3822 56.5109 40.9016C56.5224 40.8826 56.5377 40.866 56.5558 40.853C56.5738 40.84 56.5944 40.8308 56.6161 40.8259C56.6379 40.821 56.6604 40.8206 56.6823 40.8246C56.7042 40.8286 56.7251 40.837 56.7437 40.8493C56.7765 40.8802 56.7964 40.9225 56.7992 40.9675C56.8019 41.0126 56.7874 41.057 56.7586 41.0917C56.6871 41.2339 56.5941 41.3643 56.4831 41.4783C56.2994 41.6417 56.0848 41.7709 55.8851 41.9182C55.6608 42.0827 55.317 42.1938 55.3405 42.5131C55.3597 42.7757 55.6608 42.8708 55.9043 42.9306C56.0592 42.9781 56.2253 42.974 56.3776 42.9189C56.53 42.8638 56.6603 42.7607 56.749 42.6252C56.7995 42.5525 56.8438 42.4757 56.8814 42.3956C56.9369 42.2803 56.9102 42.0592 57.1227 42.1297C57.3353 42.2002 57.2669 42.3817 57.2146 42.5376C56.9551 43.3097 56.1467 43.6525 55.4536 43.2253C54.4723 42.6209 53.3659 42.4479 52.2746 42.2461C51.274 42.0613 50.5659 42.6668 49.8782 43.2883C49.765 43.3951 49.6647 43.6749 49.4724 43.4613C49.3165 43.2851 49.5376 43.1356 49.6625 43.0278H49.6647ZM52.1048 42.8046C52.9078 42.9007 53.7066 42.9936 54.5128 43.095C54.5758 43.1008 54.6347 43.1284 54.6794 43.1731C54.7241 43.2177 54.7517 43.2767 54.7574 43.3396C54.7694 43.4767 54.8192 43.6077 54.9015 43.7181C54.9837 43.8284 55.095 43.9137 55.223 43.9643L53.2613 44.4982C53.5998 44.1256 54.0996 44.1053 54.5427 43.8244C53.8358 43.8148 53.1951 43.9654 52.4166 43.8661C53.2111 43.5703 53.9554 43.6963 54.6303 43.4902C54.6303 43.441 54.6303 43.3919 54.6303 43.3428L52.0781 42.9573L52.1048 42.8046ZM34.662 52.7551C34.4929 52.9185 34.2717 53.0171 34.0373 53.0338C33.3965 52.8352 32.7077 52.6067 32.0083 52.407C31.013 52.1208 30.0562 51.7214 29.046 51.4673C28.4853 51.3263 27.93 51.0027 27.8457 50.2734C27.8019 49.9049 27.8798 49.8302 28.2344 49.9701C29.4251 50.44 30.619 50.9055 31.8235 51.3359C32.7227 51.6563 33.6389 51.92 34.5498 52.2137C34.678 52.2543 34.8702 52.2137 34.9118 52.3835C34.9535 52.5533 34.7784 52.6569 34.662 52.7551ZM43.1175 51.5271C42.3262 51.212 41.5487 50.8607 40.7756 50.503C40.6605 50.443 40.533 50.4107 40.4032 50.4086C40.2735 50.4066 40.145 50.4349 40.0281 50.4912C38.7466 51.0252 37.4919 51.605 36.1784 52.046C35.9488 52.1229 35.5793 52.2917 35.496 52.1176C35.371 51.8549 35.6113 51.5484 35.8249 51.3338C36.0801 51.0764 36.4325 50.9718 36.7604 50.8404C37.7161 50.457 38.6964 50.1431 39.6831 49.8505C40.1258 49.7038 40.6023 49.693 41.0511 49.8195C42.2601 50.1779 43.4462 50.6094 44.6029 51.1116C44.8333 51.2068 45.035 51.3602 45.1883 51.5568C45.3416 51.7533 45.4413 51.9863 45.4775 52.2329C44.6189 52.1411 43.8671 51.8207 43.1175 51.5271ZM44.0786 44.5025C43.1036 44.1736 42.135 43.8276 41.1643 43.488C40.882 43.3854 40.5822 43.3401 40.2822 43.3545C39.3607 43.5275 38.3996 43.897 37.431 44.2441C37.132 44.3509 36.8298 44.4577 36.5233 44.5431C36.4069 44.5762 36.2499 44.5815 36.2104 44.4278C36.1805 44.3082 36.3097 44.2484 36.4005 44.2014C37.6387 43.5429 38.9666 43.0691 40.342 42.795C40.5016 42.7782 40.6628 42.7957 40.8151 42.8462C41.9968 43.1674 43.1482 43.5916 44.2558 44.1138C44.4342 44.196 44.746 44.3135 44.6499 44.5249C44.5538 44.7364 44.2665 44.5655 44.0796 44.5025H44.0786ZM44.0871 45.4294C43.9857 45.5672 43.8821 45.501 43.7763 45.422C43.5692 45.2661 43.3673 45.1091 43.3492 44.7588C43.6019 44.8333 43.8318 44.9703 44.0177 45.1571C44.0978 45.2255 44.1693 45.3205 44.0882 45.4294H44.0871ZM42.9562 44.9863C42.8676 45.2233 42.6636 45.0642 42.5066 45.0183C41.8969 44.8368 41.3042 44.5976 40.6581 44.5474C39.7568 44.4758 38.9495 44.8047 38.1337 45.0941C37.9959 45.1422 37.8026 45.3536 37.7012 45.0632C37.6211 44.8336 37.7161 44.6702 37.9628 44.5709C38.7573 44.2505 39.5593 43.9761 40.4339 44.0156C41.238 43.9782 41.9695 44.2238 42.6679 44.5997C42.8302 44.6819 43.0278 44.7908 42.9562 44.9863ZM37.2131 44.8656C37.2356 45.2148 37.2067 45.4818 36.8928 45.5736C36.7486 45.6153 36.6546 45.4572 36.6642 45.3451C36.692 45.0407 36.9141 44.9233 37.2131 44.8613V44.8656ZM42.9605 48.0522C43.5265 48.2818 43.6236 48.3864 43.6108 49.0026C43.1452 48.5284 42.6871 48.1173 42.009 48.3982C40.5428 47.7745 39.1385 48.2583 37.7247 48.6288C37.573 48.6683 37.3701 48.9129 37.2655 48.5583C37.1875 48.2988 37.2911 48.1814 37.5367 48.0863C39.3425 47.3826 41.1451 47.3143 42.9605 48.0479V48.0522ZM38.9314 46.4813C39.3907 46.3415 39.8656 46.259 40.3452 46.2357C41.0009 46.2122 41.5883 46.5016 42.2076 46.6447C42.2527 46.6497 42.2946 46.6703 42.3261 46.7028C42.3577 46.7354 42.3769 46.7779 42.3806 46.823C42.3796 46.8769 42.3622 46.9291 42.3307 46.9728C42.2992 47.0165 42.2552 47.0496 42.2044 47.0676C42.1152 47.1084 42.0177 47.1283 41.9196 47.1255C41.8214 47.1227 41.7253 47.0974 41.6384 47.0516C40.7905 46.6778 39.9416 46.7312 39.1001 47.0601C38.8182 47.1669 38.6259 47.1616 38.5448 46.823C38.4572 46.4503 38.7488 46.5283 38.9314 46.4813ZM43.6567 47.6474C43.3951 47.7104 43.2018 47.5118 42.9925 47.3933C42.843 47.3089 42.6722 47.2384 42.6924 47.0131C42.7031 46.9063 42.717 46.7995 42.8868 46.8369C43.1495 47.0035 43.4923 47.0804 43.6717 47.3879C43.7187 47.4638 43.802 47.6069 43.6567 47.6421V47.6474ZM43.7731 49.6134C43.7987 49.6318 43.8199 49.6557 43.8351 49.6832C43.8504 49.7108 43.8593 49.7414 43.8614 49.7728C43.8634 49.8043 43.8585 49.8358 43.8469 49.8651C43.8354 49.8944 43.8175 49.9207 43.7945 49.9423C43.7612 49.9852 43.7122 50.013 43.6584 50.0198C43.6045 50.0266 43.5502 50.0118 43.5072 49.9786C42.7298 49.4554 41.7986 49.4543 40.9368 49.198C40.5545 49.0848 40.1594 49.198 39.775 49.2546C39.3906 49.3112 39.1545 49.2023 39.0841 48.8104C40.5962 48.3693 41.9535 48.852 43.3043 49.3667C43.4703 49.4268 43.6278 49.508 43.7731 49.6081V49.6134ZM37.9574 47.3228C37.9231 47.3299 37.8892 47.3392 37.856 47.3506L36.9899 47.7286C36.9899 47.184 37.3925 46.7675 37.8443 46.7995C37.997 46.8091 38.0696 46.87 38.0771 47.0217C38.0888 47.137 38.1294 47.2694 37.9574 47.3175V47.3228ZM37.0967 49.4991C37.5399 49.3283 37.9874 49.1713 38.4359 49.0165C38.6377 48.946 38.7189 49.0752 38.7648 49.214C38.7573 49.3582 38.658 49.3817 38.5854 49.4159C38.1689 49.6049 37.7514 49.7928 37.3317 49.9722C37.1726 50.0406 37.0113 50.0502 36.9387 49.8483C36.9241 49.8149 36.9166 49.7787 36.9167 49.7422C36.9168 49.7057 36.9246 49.6696 36.9395 49.6362C36.9543 49.6028 36.976 49.5729 37.0031 49.5484C37.0302 49.5239 37.0621 49.5053 37.0967 49.4938V49.4991ZM45.1998 50.1399C44.6082 49.8996 44.1853 49.4895 44.1095 48.8146C44.0946 48.6822 44.0262 48.4943 44.1736 48.427C44.3573 48.3426 44.5228 48.4815 44.6232 48.6224C44.7618 48.8296 44.9522 48.9968 45.1756 49.1076C45.3989 49.2183 45.6473 49.2686 45.8961 49.2535C45.9454 49.2441 45.9937 49.2298 46.0403 49.2108C45.6868 48.9364 45.1742 49.0741 44.8741 48.6502C45.3953 48.7078 45.8801 48.7858 46.3692 48.8104C47.247 48.8563 47.6186 48.6224 47.9304 47.9048C48.0511 47.6271 48.0457 47.3911 47.7521 47.1754C47.6453 47.4552 47.6229 47.7606 47.4317 47.9902C47.0515 48.5733 46.32 48.6897 45.8779 48.2369C45.4177 48.003 45.313 47.5855 45.3942 47.1381C45.4533 46.8608 45.6066 46.6126 45.8279 46.4355C46.0492 46.2584 46.3249 46.1632 46.6084 46.1663C47.2491 46.1663 47.7563 46.4717 48.1856 46.9245C48.2695 47.0153 48.3487 47.1105 48.4227 47.2096C48.8723 47.7884 48.8808 47.7884 49.1916 47.1188L49.1948 46.8017C49.0239 46.1748 48.8082 45.5715 48.3405 45.0931C47.3473 44.5826 46.3948 44.6125 45.4935 45.312C45.4668 45.3579 45.4113 45.4092 45.4188 45.4487C45.5608 46.1876 45.2757 46.885 45.2105 47.6143C44.7695 47.4221 44.9574 46.9832 44.8474 46.6297C44.6445 46.697 44.6339 46.8967 44.5399 47.0206C44.4651 47.1167 44.5805 47.3506 44.3327 47.3153C44.2608 47.3052 44.1948 47.2697 44.1467 47.2153C44.0985 47.1609 44.0713 47.0911 44.07 47.0185C44.1309 46.5977 43.85 46.6169 43.5756 46.5155C42.9284 46.2731 42.2941 46.0018 41.6352 45.7872C40.8729 45.525 40.0436 45.5322 39.2859 45.8075C38.6227 46.0542 37.95 46.2677 37.2815 46.4973C37.1683 46.5358 37.0241 46.7205 36.9504 46.4664C36.9002 46.2912 36.9088 46.146 37.1309 46.0392C39.1748 45.0183 41.2294 44.7022 43.331 45.8758C43.6162 46.0349 43.9515 46.303 44.212 46.2496C44.4512 46.2047 44.62 45.7979 44.825 45.5555C44.9318 45.4348 45.0386 45.3248 45.1518 45.2105C45.5501 44.7428 46.1011 44.5175 46.7269 44.2494C44.7972 43.5916 42.9893 42.8014 41.05 42.434C40.4865 42.3398 39.9083 42.3913 39.3703 42.5835C37.6695 43.1395 35.9683 43.6941 34.2668 44.2473C34.1334 44.2911 33.9945 44.3178 33.8578 44.3541C33.9903 44.5826 34.285 44.604 34.4505 44.6146C35.3443 44.6712 35.8388 45.3227 36.4421 45.8267C36.7326 46.0712 36.7091 46.3745 36.5489 46.7739C35.6946 45.4551 34.7271 44.3786 32.9704 45.0653L32.6821 45.2596C32.2913 45.7295 31.988 46.2432 31.8994 46.8615C31.8684 47.0751 31.8759 47.3281 32.0745 47.4403C32.2731 47.5524 32.4301 47.3399 32.5775 47.2267C32.7447 47.0953 32.9005 46.9499 33.0431 46.7921C33.7703 45.9847 34.3437 45.9378 35.1874 46.6105L35.2664 46.5368C35.3059 46.3318 35.3443 46.1257 35.3849 45.9143C36.1431 46.2976 36.2916 46.9512 35.795 47.8215C35.7726 47.3869 35.9723 46.9843 35.7469 46.6159C35.8078 47.0153 35.7565 47.3933 35.4479 47.7467L35.4031 46.9587C35.323 47.3078 35.2909 47.6677 35.0507 47.9646C34.8104 48.2615 34.5167 48.4676 34.1504 48.4612C33.4499 48.4483 33.1637 47.9368 32.9758 47.3442C32.7291 47.625 32.7174 47.672 32.8177 47.9101C32.9404 48.2179 33.1665 48.4732 33.4571 48.6322C33.7477 48.7913 34.0846 48.8441 34.4099 48.7815C34.914 48.6897 35.4148 48.5776 35.9135 48.4612C36.047 48.4313 36.1741 48.3437 36.2809 48.4953L36.5756 48.1258C36.8308 48.7442 36.5628 49.5589 36.016 49.8911C35.2813 50.3374 34.0426 50.1239 33.5033 49.4532C33.5663 49.371 33.624 49.3934 33.6816 49.4255C33.672 49.4393 33.6624 49.4532 33.6517 49.466C34.4762 50.252 35.7448 50.0587 36.1645 49.0837C36.1411 49.0657 36.1196 49.0453 36.1004 49.0229C35.3977 49.5141 34.6513 49.7309 33.8258 49.4639C33.8387 49.4488 33.8505 49.4327 33.8611 49.4159C33.7115 49.1297 33.7115 49.1297 33.3495 48.9545C33.42 49.3059 33.1146 49.5718 33.3271 50.0512C32.9897 49.7565 32.7045 49.6978 32.4461 49.5814C32.5187 50.0149 32.9555 50.158 33.2791 50.535C33.105 50.5144 32.9373 50.4568 32.7872 50.3662C32.6371 50.2756 32.5081 50.154 32.4087 50.0096C31.9036 49.3689 31.5822 48.6641 31.7968 47.8151C31.8133 47.7469 31.8069 47.6753 31.7787 47.6111C31.4583 46.9234 31.737 46.3051 31.9923 45.6804C32.0424 45.5565 32.1855 45.4593 32.1204 45.296C31.3857 45.4027 30.792 45.8011 30.2185 46.2239C29.9633 46.4119 30.0647 46.7579 30.0733 47.0291C30.0861 47.4328 29.9248 47.4787 29.5884 47.3495C28.747 47.0152 28.591 46.2677 29.2606 45.6409C29.7945 45.139 30.4609 44.8282 31.123 44.5303C32.1855 44.054 33.2128 43.4966 34.332 43.1538L33.4723 42.4725C34.0159 42.4052 34.0159 42.4052 34.7901 42.969C36.3802 42.4351 37.9735 41.9012 39.5603 41.3491C40.0448 41.1695 40.5755 41.1582 41.0671 41.317C42.7843 41.8695 44.5022 42.4194 46.2207 42.9669C46.5614 42.4725 46.7707 42.3667 47.5951 42.2888C47.5438 42.7576 47.0612 42.8473 46.8561 43.1623L46.9693 43.1869L47.1135 43.2584C48.6375 43.7328 50.0902 44.4114 51.432 45.2757C51.8495 45.548 52.155 45.9303 52.0151 46.4802C51.9083 46.8946 51.2569 47.3164 50.7603 47.3442C50.5873 47.3538 50.4688 47.3377 50.5467 47.121C50.5521 47.1039 50.5617 47.0879 50.5659 47.0708C50.6578 46.6874 51.0785 46.2517 50.7603 45.9346C50.3087 45.5038 49.7237 45.2401 49.1019 45.187C48.9289 45.4508 49.2087 45.6142 49.2535 45.8278C49.324 46.1481 49.4276 46.4589 49.4084 46.7889L49.4212 47.0024C49.5055 47.1979 49.4874 47.4467 49.3731 47.5577C48.9855 47.9347 49.0528 48.412 48.9727 48.868C48.8413 49.6326 48.4964 50.2392 47.6004 50.2851L47.5524 50.3001L47.5075 50.2766C47.3367 50.3834 47.1989 50.5756 46.9138 50.4752C47.0761 50.3001 47.2181 50.1303 47.3762 49.9776C47.4789 49.8929 47.5475 49.7739 47.5693 49.6426C47.5911 49.5112 47.5646 49.3765 47.4947 49.2631C47.4189 49.1168 47.4178 48.8905 47.1744 48.9054C46.854 48.9246 47.0302 49.2033 46.9608 49.3539C47.2096 49.6006 46.9458 49.7031 46.8219 49.8441C46.3435 50.3257 45.784 50.3737 45.1998 50.1377V50.1399ZM53.6276 54.5043C53.6874 54.4093 53.8155 54.4274 53.9789 54.4434C54.1005 54.463 54.2202 54.493 54.3366 54.5332C55.5209 55.0201 56.6732 55.5701 57.7357 56.2898C57.8492 56.3739 57.9563 56.4664 58.0561 56.5664C58.1263 56.6234 58.1734 56.704 58.1887 56.7932C58.204 56.8823 58.1865 56.974 58.1394 57.0512C58.039 57.2285 57.8532 57.1815 57.7122 57.1249C56.271 56.5605 54.9317 55.7644 53.7472 54.7681C53.6703 54.704 53.5571 54.6164 53.6276 54.5022V54.5043Z" fill="#AF3830"/>
<path d="M35.7383 46.5992L35.751 46.6212C35.7516 46.6116 35.7516 46.6019 35.751 46.5923L35.7383 46.5992Z" fill="#AF3830"/>
<path d="M38.2504 54.2767C37.5669 54.5971 36.798 54.7038 36.0078 55.1043C39.0737 55.9768 42.0147 56.012 44.9684 55.1043C44.2978 54.7839 43.6047 54.5704 42.9394 54.2916C41.375 53.6531 39.8234 53.5463 38.2504 54.2767ZM43.4157 55.2634C43.3613 55.3948 43.1968 55.3371 43.0804 55.3104C42.855 55.2641 42.6328 55.2035 42.4151 55.1289C41.8235 54.9025 41.2725 54.8288 40.746 55.3136C40.5207 55.5219 40.1961 55.4845 39.9494 55.3051C39.4635 54.9516 38.968 54.9687 38.4394 55.1769C38.2258 55.2602 37.9973 55.3019 37.7591 55.146C38.9968 54.628 40.1427 53.6979 41.6281 54.4305C42.1161 54.6718 42.6639 54.7882 43.1776 54.9783C43.295 55.0242 43.4894 55.084 43.4157 55.2634Z" fill="#AF3830"/>
<path d="M46.4642 53.8496C45.2031 53.416 43.9419 52.9643 42.7565 52.3673C41.1675 51.5664 39.6938 51.6871 38.1209 52.4175C36.6055 53.1213 35.0528 53.7738 33.373 54.1262C33.6934 54.3803 33.9924 54.3942 34.3715 54.2799C35.8666 53.825 37.3135 53.2217 38.7498 52.6194C39.8668 52.1527 40.9176 52.1281 42.0496 52.5692C43.6034 53.1736 45.1283 53.8581 46.7323 54.3333C47.1594 54.4604 47.5257 54.4401 47.9379 54.0728C47.3805 54.1283 46.9234 54.0055 46.4642 53.8496Z" fill="#AF3830"/>
<path d="M39.0754 53.0124C37.5953 53.5591 36.1558 54.2191 34.6191 54.6505C34.948 54.7573 35.2172 55.0648 35.6155 54.8641C36.8713 54.2298 38.2158 53.825 39.5431 53.3765C40.1376 53.1775 40.7789 53.1663 41.3799 53.3445C42.8183 53.746 44.197 54.3195 45.5991 54.8235C45.9419 54.9474 46.1864 54.9495 46.525 54.6922C44.8879 54.2073 43.3704 53.5687 41.8263 52.9932C40.939 52.6563 39.9579 52.6631 39.0754 53.0124Z" fill="#AF3830"/>
<path d="M3.04185 45.783C2.17686 45.6292 2.17259 45.6302 1.79349 44.8219C1.72942 44.6862 1.66962 44.6008 1.52652 44.7001C1.43895 44.761 1.29586 44.7802 1.36314 44.9703C1.60448 45.6431 2.17579 45.9474 3.04185 45.783Z" fill="#AF3830"/>
<path d="M23.5119 75.5181L22.1855 74.7502C22.5562 75.1135 23.0123 75.3775 23.5119 75.5181Z" fill="#AF3830"/>
<path d="M14.5078 75.659C14.5559 75.7509 14.6648 75.9057 14.6445 75.9249C14.3733 76.1823 14.6509 76.1812 14.7855 76.2293C14.8531 76.2607 14.9275 76.275 15.002 76.2709C15.0765 76.2668 15.1488 76.2444 15.2126 76.2058L14.5495 75.6238L14.5078 75.659Z" fill="#AF3830"/>
<path d="M8.59071 20.9428C9.09368 21.6188 9.78353 21.6647 10.4606 21.1222C10.5951 21.0154 10.5898 20.9385 10.4958 20.82C10.4232 20.7292 10.2822 20.6214 10.3997 20.506C10.5172 20.3907 10.6624 20.5349 10.7745 20.5979C10.91 20.6828 11.0376 20.7796 11.1558 20.8873C11.9994 21.5846 12.1564 21.5814 12.9327 20.8574C12.9466 20.8456 12.9915 20.867 13.0224 20.8734C12.6967 21.8622 11.7901 22.1741 11.0052 21.5387C10.7916 21.37 10.6752 21.3732 10.53 21.559C10.3484 21.7918 10.561 21.8665 10.7073 21.9541C11.0889 22.1923 11.5414 22.2905 11.9874 22.2321C12.4334 22.1737 12.8453 21.9622 13.1527 21.6337C13.4863 21.2636 13.7942 20.8712 14.0743 20.459C14.4758 19.9112 14.4577 19.5364 14.0059 19.0025C13.8799 18.8519 13.8383 18.7387 14.0059 18.6041C14.1736 18.4696 14.2911 18.5176 14.4 18.6842C14.5089 18.8508 14.5506 19.0975 14.7588 19.2449C15.0172 18.3735 14.7738 17.4401 14.1875 17.0311C13.9184 16.8432 13.6001 16.6595 13.3834 17.0867C13.0748 17.6954 12.576 18.1332 12.0571 18.5262C11.679 18.8145 11.7933 18.9362 12.1638 19.0954C11.2092 19.3207 10.6325 19.1359 10.0772 18.4279C9.91061 18.2144 9.58491 17.9089 9.81771 17.706C10.0505 17.5031 10.2043 17.9463 10.4093 18.0809C10.4658 18.1238 10.518 18.1721 10.5652 18.225C10.8995 18.5454 11.2294 18.5529 11.6085 18.272C12.6316 17.516 12.7426 15.6931 11.8018 14.8398L11.7239 14.9178C11.1675 15.2563 10.515 15.2478 9.90848 15.4154C9.74295 15.4614 9.54753 15.5617 9.39269 15.44C8.94738 15.0876 8.9036 15.471 8.81496 15.7454C8.74664 15.9294 8.71052 16.1237 8.70817 16.3199C8.74342 17.0941 8.37713 17.9004 8.91534 18.6394C9.04883 18.822 8.82778 18.7921 8.71992 18.822C8.01405 19.0142 7.67019 19.9283 8.0589 20.537C8.18705 20.7452 8.44227 20.7452 8.59071 20.9428Z" fill="#AF3830"/>
<path d="M10.0943 14.9584C10.5951 14.8431 11.0853 14.6562 11.6064 14.8516L11.6865 14.7448C11.1718 14.1959 10.5738 14.3177 9.96508 14.5313C9.79529 14.5911 9.57957 14.6615 9.64471 14.8773C9.71092 15.1314 9.94586 14.9926 10.0943 14.9584Z" fill="#AF3830"/>
</g>
<defs>
<clipPath id="clip0_747_4806">
<rect width="80" height="80" fill="white"/>
</clipPath>
</defs>
</svg>
