<svg width="80" height="80" viewBox="0 0 80 80" fill="none" xmlns="http://www.w3.org/2000/svg">
<path d="M27.5587 33.2476H27.5449V33.2631L27.5587 33.2476Z" fill="#AF3830"/>
<path d="M28.0583 32.0866H28.0681C28.0681 32.0866 28.0681 32.0768 28.0681 32.0698L28.0527 32.0796L28.0583 32.0866Z" fill="#AF3830"/>
<path d="M40.5356 27.7354C39.9055 27.9794 40.5356 28.235 40.5988 28.3551C40.7757 28.7037 40.8222 28.226 40.9733 28.226C41.1657 27.756 40.7525 27.8335 40.5356 27.7354Z" fill="#AF3830"/>
<path d="M18.871 48.7611C18.3546 48.446 18.0679 48.7933 17.7735 49.253C17.5527 49.5977 17.4339 50.0277 16.9717 50.388L17.4727 49.0645C16.9769 49.231 16.614 49.5242 16.1815 49.5022C15.7489 49.4803 15.6005 49.7023 15.4623 50.06C14.2774 53.0557 13.3698 56.1537 12.7508 59.3152C12.0277 63.1371 11.6352 66.9758 12.4525 70.8416C12.7534 72.2619 13.1949 73.6422 13.9722 74.9037C13.1343 72.3446 12.8541 69.7235 12.9496 67.0507C13.0452 64.378 13.8199 59.9944 14.3441 59.3036C14.2292 64.6388 16.6683 69.1579 18.4604 70.4272C14.6101 63.163 16.1841 55.962 18.871 48.7611Z" fill="#AF3830"/>
<path d="M20.4988 48.5066C19.409 48.872 19.4064 48.8707 19.0333 49.8288C18.2803 51.7492 17.8172 53.7709 17.6595 55.8276C17.4296 58.8852 17.6595 61.8794 18.8719 64.7446C19.5588 66.3766 20.6382 67.9532 21.6092 68.6891C18.4071 62.1131 18.5452 55.3628 20.4988 48.5066Z" fill="#AF3830"/>
<path d="M24.3282 47.0515C23.6697 47.6235 22.9932 48.1219 22.8163 49.1032C22.6187 50.1968 22.5232 51.2762 22.6729 52.3673C22.8021 53.3163 23.1262 54.2072 23.8014 54.92C24.132 55.2686 24.4948 55.6146 25.0616 55.4235C24.9325 55.0233 24.7879 54.6643 24.7053 54.2899C24.2482 52.2111 24.6239 50.1904 25.1895 48.1942C25.3263 47.71 25.5329 47.2736 24.8021 47.1277C24.7944 47.1277 24.7931 47.0928 24.7931 47.0541C24.7931 47.0683 24.7828 47.0851 24.7776 47.0851C24.6304 47.0954 24.5297 46.8759 24.3282 47.0515Z" fill="#AF3830"/>
<path d="M24.7988 47.0477C24.8001 47.0366 24.8001 47.0253 24.7988 47.0142V47.0542C24.7996 47.0521 24.7996 47.0498 24.7988 47.0477Z" fill="#AF3830"/>
<path d="M38.4049 40.5994C38.3984 40.6023 38.3923 40.606 38.3867 40.6106L38.4049 40.5994Z" fill="#AF3830"/>
<path d="M38.5342 35.1946C38.541 35.2188 38.5381 35.2446 38.526 35.2666C38.5139 35.2886 38.4937 35.3049 38.4696 35.3121H38.4438C38.4438 35.3121 38.4438 35.3186 38.4438 35.3225C38.4225 35.3265 38.4009 35.3291 38.3793 35.3302L38.4025 35.3134C38.0151 35.6194 37.8331 35.4348 37.7569 35.0423C37.714 34.7623 37.7658 34.476 37.9041 34.2288C38.1154 33.793 38.2741 33.3335 38.3767 32.8602C38.5833 32.1862 38.8493 31.5225 38.7899 30.7943C38.5445 30.6858 38.5148 30.9234 38.4348 31.0383C38.1022 31.523 37.8336 32.0485 37.6355 32.6019C37.2159 33.334 36.9189 34.1423 36.2268 34.7298C36.6572 33.5497 37.0855 32.3695 37.5116 31.1894L37.0416 31.0267C36.5471 31.6116 36.0564 32.2017 35.5528 32.7801C35.2946 33.0797 34.9421 33.3043 34.8556 33.7356C34.8311 33.8647 34.7368 33.9938 34.8362 34.0945C34.9356 34.1953 35.0635 34.0713 35.1706 34.0132C35.252 33.9693 35.292 33.8182 35.4831 33.9486C35.2249 34.1501 35.0247 34.4018 34.6516 34.2663C34.6038 34.0958 34.556 33.9241 34.4773 33.6388C33.9711 34.8615 33.057 35.6608 32.2977 36.5775C31.4959 37.5304 31.0659 38.6718 30.6528 39.8197C29.9955 41.6441 29.6108 43.577 28.4913 45.2142C28.3092 45.4815 28.4409 45.59 28.6837 45.6765C29.1705 45.8482 29.6198 45.6959 30.0498 45.4996C31.359 44.9018 31.8226 43.7591 32.0847 42.4343C32.5082 40.3052 33.1887 38.2599 34.3507 36.3774C34.1674 36.3141 33.8536 36.438 33.8575 36.092C33.7077 36.0662 33.7813 35.8983 33.709 35.8247C33.7258 35.7447 33.7413 35.6646 33.7581 35.5846C33.6793 35.4348 33.7813 35.3754 33.8872 35.3173C33.9229 35.3102 33.9592 35.3063 33.9957 35.3057C33.9414 34.8667 34.3404 34.6446 34.4863 34.3011C34.4863 34.713 34.2436 35.0048 34.0124 35.3044H33.9957C33.9963 35.3104 33.9963 35.3165 33.9957 35.3225L34.0047 35.3134L34.0124 35.3044C33.9685 35.5626 33.9255 35.8243 33.8833 36.0894C34.1868 36.2947 34.4605 36.163 34.6361 35.9216C35.1229 35.2553 35.7129 34.6304 35.7233 33.7266C35.7233 33.3599 35.9544 33.1274 36.3689 32.855C36.0641 33.6568 35.8847 34.3812 35.5309 35.0061C34.6542 36.5555 33.7697 38.0895 33.2429 39.8119C32.8646 41.054 32.6877 42.3556 32.1054 43.5383C31.9891 43.7746 32.0834 44.0548 32.4411 44.0987C32.72 44.149 33.0078 44.1015 33.2558 43.9644C34.3185 43.2852 35.1926 42.4563 35.3023 41.0967C35.4973 38.7635 36.2527 36.5917 37.2107 34.4729C37.2318 34.704 37.209 34.9371 37.1436 35.1598C36.5522 37.001 36.161 38.8913 35.7233 40.7726C35.518 41.6661 35.8033 41.9191 36.7136 41.6996C37.4083 41.5305 37.8383 40.9946 38.3818 40.6137C39.0171 39.1405 38.9254 37.5059 39.4148 35.9978C39.5258 35.653 39.6059 35.2979 39.7002 34.948L38.8828 34.9106C38.746 34.9609 38.7343 35.1688 38.5794 35.1985L38.5975 35.1804H38.5846C38.5849 35.186 38.5849 35.1916 38.5846 35.1972L38.5342 35.1946Z" fill="#AF3830"/>
<path d="M41.6326 25.6152H41.62L41.6074 25.6362L41.6326 25.6152Z" fill="#AF3830"/>
<path d="M24.584 36.3566C24.6018 36.1666 24.5509 35.9766 24.4407 35.8208C24.2333 35.9537 24.0572 36.1299 23.9242 36.3373C23.879 36.3825 23.8338 36.4277 23.7874 36.4664L23.7964 36.4586C23.7538 36.5038 23.7099 36.549 23.6673 36.5878L23.5304 36.7492C23.3599 36.839 23.2261 36.9856 23.1521 37.1636L23.0152 37.3664L23.0256 37.3483L22.8874 37.5084L22.9016 37.4916L22.7647 37.6336C22.6267 37.7154 22.5209 37.8421 22.4652 37.9926H22.4962L22.367 38.1591C22.367 38.1514 22.367 38.1462 22.367 38.1385C21.9539 38.6304 21.5226 39.1082 21.1288 39.6156C19.5471 41.6583 17.9008 43.6376 15.986 45.3885C14.1202 47.1019 11.9923 48.0509 9.40087 47.5835C8.96703 47.5048 8.53835 47.3976 8.06836 47.2943C8.15874 47.6287 8.37825 47.7824 8.56547 47.9399C10.1485 49.3021 11.9329 49.5552 13.8594 48.8437C14.4352 48.632 14.984 48.3466 15.5457 48.0948V48.1064L15.5728 48.1155L15.5508 48.0948C15.5692 48.0099 15.6199 47.9354 15.6922 47.8872C15.7645 47.839 15.8527 47.8209 15.9382 47.8366C15.9756 47.6907 16.0324 47.5861 16.1964 47.7075C16.1577 47.417 16.3849 47.386 16.5838 47.3201C16.5683 47.2181 16.629 47.191 16.7129 47.1845C16.7145 47.1508 16.7286 47.1189 16.7525 47.095C16.7764 47.0711 16.8083 47.057 16.842 47.0554C16.944 46.9263 16.9892 46.7158 17.2294 46.7972V46.6603L17.3688 46.6681C17.4566 46.2239 17.8208 46.0147 18.1436 45.7642C18.3062 45.3769 18.5077 45.0321 18.9183 44.8604C18.8318 44.6177 18.9906 44.535 19.1765 44.473C19.1765 44.3865 19.1223 44.2381 19.3056 44.3362C19.2101 44.0779 19.4438 43.9579 19.5535 43.7978C20.7225 42.0701 21.848 40.3154 22.93 38.5336L22.9533 38.5091L22.93 38.4858L23.0682 38.2766L23.0578 38.3012L23.187 38.1527L23.4452 37.7757C23.5085 37.6866 23.5743 37.5988 23.6376 37.5097L23.7073 37.4103C23.7512 37.3547 23.7951 37.3005 23.8364 37.245L23.8248 37.2592L23.9449 37.1223L24.074 37.112C24.1351 36.898 24.2731 36.7141 24.4614 36.5955L24.473 36.4793L24.584 36.3566Z" fill="#AF3830"/>
<path d="M16.8301 47.0639L16.8525 47.0751L16.8441 47.0527H16.8371V47.0625L16.8301 47.0639Z" fill="#AF3830"/>
<path d="M17.3477 46.6758H17.3597C17.3603 46.6804 17.3603 46.685 17.3597 46.6896L17.3477 46.6758Z" fill="#AF3830"/>
<path d="M17.2267 46.8143V46.8022H17.2129V46.8057L17.2267 46.8143Z" fill="#AF3830"/>
<path d="M19.1562 44.4818V44.4888H19.1716C19.1716 44.4818 19.1716 44.4762 19.1716 44.4692H19.1619V44.4818H19.1562Z" fill="#AF3830"/>
<path d="M18.123 45.7723H18.1299C18.1293 45.77 18.1293 45.7676 18.1299 45.7654L18.123 45.7723Z" fill="#AF3830"/>
<path d="M16.1855 47.709H16.1938L16.1855 47.7021V47.709Z" fill="#AF3830"/>
<path d="M15.9297 47.8399L15.9435 47.8485C15.9435 47.8485 15.9435 47.8382 15.9435 47.8313H15.9314V47.8399H15.9297Z" fill="#AF3830"/>
<path d="M16.5742 47.3221L16.584 47.3291C16.584 47.3291 16.584 47.3193 16.584 47.3137H16.5756L16.5742 47.3221Z" fill="#AF3830"/>
<path d="M16.7224 47.2155C16.7176 47.2045 16.7134 47.1933 16.7098 47.1819H16.6973C16.6973 47.1819 16.6973 47.1903 16.6973 47.1959L16.7224 47.2155Z" fill="#AF3830"/>
<path d="M18.8983 44.875V44.8667H18.8887L18.8983 44.875Z" fill="#AF3830"/>
<path d="M33.8583 36.0966C33.8671 36.0975 33.876 36.0975 33.8848 36.0966V36.0897C33.8744 36.0841 33.8646 36.0775 33.8555 36.0701C33.8569 36.0897 33.8583 36.0897 33.8583 36.0966Z" fill="#AF3830"/>
<path d="M19.2846 44.3587H19.2944L19.2776 44.3503C19.2772 44.3569 19.2772 44.3634 19.2776 44.3699L19.2846 44.3587Z" fill="#AF3830"/>
<path d="M19.1651 44.4912C19.2387 44.7236 19.0619 44.7921 18.9069 44.8786C18.7558 45.2659 18.5906 45.6533 18.1322 45.7824C18.0534 46.2343 17.7448 46.49 17.3575 46.6862C17.3717 46.7895 17.3381 46.8451 17.2284 46.8218C17.1651 47.0052 17.1083 47.2001 16.85 47.08C16.8681 47.1239 16.8965 47.173 16.8823 47.2014C16.8397 47.2892 16.7803 47.2569 16.7248 47.2208C16.7429 47.2608 16.7648 47.3034 16.7519 47.3292C16.7067 47.4235 16.6422 47.377 16.5828 47.3383C16.6396 47.6482 16.411 47.6753 16.1954 47.7179C16.1618 47.8741 16.1011 47.9761 15.9372 47.847C15.9372 48.1143 15.808 48.1956 15.5692 48.1052C15.5963 48.1285 15.626 48.1543 15.6234 48.1582C15.59 48.2123 15.5496 48.2618 15.5033 48.3054C15.3187 48.4784 14.8229 48.5055 14.9675 48.787C15.0595 48.9731 15.2113 49.1231 15.3985 49.213C15.5857 49.3028 15.7976 49.3274 16.0004 49.2828C16.105 49.2596 16.2083 49.2337 16.3116 49.2053C17.6816 48.8296 18.6745 47.9219 19.5047 46.8386C21.1265 44.7249 22.2989 42.3349 23.5927 40.0198C23.5449 39.7216 23.1821 39.4595 23.4403 39.1289C23.6985 38.7984 23.5591 38.5337 23.4145 38.2432C22.2524 40.0276 21.0903 41.8159 19.9282 43.5951C19.7501 43.8663 19.6326 44.1981 19.3072 44.3518C19.2943 44.4434 19.3111 44.5506 19.1651 44.4912Z" fill="#AF3830"/>
<path d="M24.4434 36.6046C24.444 36.6071 24.444 36.6098 24.4434 36.6123C24.4532 36.6251 24.4645 36.6368 24.4769 36.6472C24.4718 36.6291 24.4653 36.6114 24.4576 36.5942L24.4434 36.6046Z" fill="#AF3830"/>
<path d="M24.0682 37.1211H24.0586C24.059 37.1243 24.059 37.1275 24.0586 37.1307L24.0682 37.1211Z" fill="#AF3830"/>
<path d="M32.5949 28.075L32.5781 28.0903C32.5781 28.0903 32.5781 28.0903 32.5781 28.0987L32.5949 28.075Z" fill="#AF3830"/>
<path d="M71.2379 3.93747C68.5264 3.25572 65.7671 2.84642 63.0376 2.26667C62.2628 2.1014 61.5617 1.838 61.1072 1.12139C60.9066 0.838587 60.6331 0.615472 60.3157 0.475797C58.4112 -0.483555 55.7965 0.0484135 54.4485 1.7063C53.9067 2.37414 53.4036 3.07253 52.9417 3.79802C50.7648 7.18997 50.8913 10.3921 53.3368 13.5904C54.0405 14.5123 54.8307 15.3683 55.5473 16.2812C56.3866 17.3503 56.9896 18.524 56.916 19.9404C56.845 21.2897 55.8753 21.9908 54.5751 21.6538C53.6377 21.4098 52.8681 20.8585 52.0934 20.3188C50.6395 19.3026 49.0165 18.8378 47.2566 18.781C44.7697 18.7009 42.4469 19.3349 40.226 20.3924C37.437 21.7223 34.9321 23.5041 32.5047 25.3905C29.2689 27.9032 26.1778 30.563 23.7078 33.8711C21.8665 36.3372 20.1118 38.8537 18.8955 41.7021L18.9975 41.7964C21.0234 39.112 23.0906 36.4625 25.5516 34.1525C25.5516 34.1383 25.5426 34.1254 25.5361 34.1112C26.1649 33.6038 26.715 33.0008 27.4187 32.5876V32.6005H27.4277C27.4283 32.5971 27.4283 32.5936 27.4277 32.5902C27.5709 32.3409 27.8043 32.156 28.0798 32.0737C29.2057 31.2667 30.1792 30.2867 31.1941 29.3519C31.6551 28.9271 32.1212 28.5075 32.586 28.0852C32.5692 27.6979 33.0625 27.6114 33.0896 27.0949C30.7538 28.5152 28.9242 30.4714 26.7175 31.9097C26.662 31.9175 26.5716 31.9498 26.5574 31.9291C26.5097 31.8607 26.5781 31.831 26.6336 31.8077C26.6357 31.771 26.6417 31.7347 26.6517 31.6993C26.6439 31.5999 26.7137 31.5831 26.7873 31.5702C26.7575 31.4925 26.7031 31.4267 26.6323 31.3829C26.724 31.3532 26.8053 31.472 26.8531 31.5714C28.3122 30.0311 30.0127 28.7618 31.5789 27.3428C31.6047 27.459 31.5169 27.5442 31.4717 27.6424L31.6008 27.7315C32.1419 27.3893 32.6751 27.0342 33.2265 26.7101C33.7287 26.4144 34.4053 26.5229 34.825 26.0284C34.6061 25.9387 34.4241 25.7776 34.3085 25.5713C33.3246 25.7004 32.6545 26.346 31.9598 26.9671C31.8397 27.073 31.8036 27.286 31.615 27.3092L31.6293 27.2976L31.6112 27.3092C32.1109 26.4157 32.8959 25.8128 33.7894 25.406C34.435 25.1116 34.9928 24.6016 35.7443 24.4828C35.7198 24.7411 35.4279 24.7411 35.3427 24.9244C35.3066 25.3544 35.0677 25.4874 34.732 25.4783C35.0328 25.468 35.2485 25.326 35.2769 24.9244C35.0109 25.0987 34.6778 25.1736 34.4892 25.4628L34.5486 25.4693L34.3911 25.5791L34.3743 25.5713C34.4904 25.7772 34.6723 25.9382 34.8908 26.0284C35.2859 25.8993 35.5364 25.5455 35.8954 25.3621C36.4738 25.3466 36.816 24.7811 37.3906 24.7372C35.9121 25.9858 34.0619 26.7076 32.6712 28.0736C32.7539 28.461 33.0212 28.3848 33.2871 28.3177L33.6861 27.951C33.6828 28.0499 33.6527 28.1461 33.5991 28.2294C33.5454 28.3126 33.4702 28.3797 33.3814 28.4235C31.5569 30.0194 29.7777 31.6696 27.8822 33.1841C27.8138 33.2397 27.7389 33.3391 27.6304 33.2577C27.6433 33.547 27.3102 33.5508 27.2095 33.7471L27.0365 33.884C26.8815 33.9175 26.7937 34.1422 26.591 34.0376L26.755 33.7987L26.7382 33.782C27.0481 33.6528 27.1914 33.2758 27.5542 33.2358C27.6627 32.9401 27.9506 32.8045 28.1637 32.6212C28.4929 32.3371 28.3599 32.217 28.0772 32.0853C28.047 32.2334 27.9659 32.3661 27.8479 32.4605C27.7299 32.5549 27.5826 32.6049 27.4316 32.6018C27.5207 32.8601 27.2598 32.9091 27.1436 33.0189C26.928 33.2229 26.6917 33.3998 26.5781 33.6877L26.6104 33.7213L25.9648 34.4017L25.8176 34.5309L25.5516 34.7891L25.4147 34.926L25.4276 34.913L25.2908 35.0512C25.2817 35.2165 25.2469 35.3908 25.4857 35.4386C25.6071 35.4631 25.7724 35.507 25.682 35.6761C25.6665 35.7131 25.6389 35.7438 25.6037 35.763C25.5685 35.7822 25.5278 35.7889 25.4883 35.782C25.5165 35.7754 25.5428 35.7624 25.5652 35.744C25.5875 35.7257 25.6054 35.7025 25.6175 35.6761C25.7065 35.507 25.5426 35.4631 25.4212 35.4386C25.1772 35.3882 25.2172 35.2087 25.2249 35.0409C25.0109 35.1711 24.8286 35.3475 24.6917 35.5574L24.7446 35.5703L24.5135 35.8117C24.6237 35.9675 24.6745 36.1576 24.6568 36.3476C24.835 36.3695 24.7485 36.4767 24.7265 36.5632C24.8866 36.6768 25.0739 36.8059 24.9499 37.0241C24.9278 37.0744 24.8899 37.1161 24.8418 37.1427C24.7937 37.1693 24.7383 37.1794 24.6839 37.1713C24.7272 37.1658 24.7684 37.1494 24.8036 37.1237C24.8388 37.0979 24.8669 37.0637 24.8853 37.0241C25.0145 36.8059 24.8221 36.6768 24.6607 36.5632C24.5987 36.5735 24.5561 36.6923 24.4812 36.6368C24.538 36.8421 24.2669 36.9092 24.2527 37.0848C24.2696 37.0861 24.2864 37.0887 24.303 37.0926C24.2643 37.1158 24.2333 37.1804 24.1894 37.1726C24.201 37.2333 24.1287 37.2901 24.1287 37.3508L24.0125 37.4993C23.7812 37.7013 23.5985 37.9528 23.4779 38.2353C23.6213 38.5258 23.7517 38.8021 23.5025 39.121C23.2533 39.4399 23.6071 39.7137 23.6548 40.0119C24.4605 38.7931 25.2637 37.5712 26.0642 36.3463L26.2643 36.088C27.5874 34.4332 29.1395 32.9755 30.8739 31.7587C32.0055 30.984 32.9799 30.0016 33.7455 28.8638C34.4337 27.8089 35.2278 26.8457 36.2388 26.08C36.4183 25.9509 36.559 25.7198 36.8366 25.7818C36.8754 25.9109 36.6507 25.9651 36.7488 26.0839C36.9619 26.1756 37.0845 25.7831 37.3015 26.009C37.4138 25.8115 37.4086 25.7805 37.6979 25.6217C38.2389 25.335 38.6856 24.8741 39.3028 24.7295C39.2305 25.0032 39.1518 25.2085 38.7863 25.3014C38.4623 25.3828 38.1666 25.6746 37.9212 25.9328C37.6759 26.1911 37.4797 26.1459 37.2317 26.0193C35.0083 27.175 33.8269 29.2899 32.4543 31.2267L32.3084 31.4372L32.3252 31.4049L32.178 31.5637L32.1948 31.5405L32.0566 31.6864C31.6189 32.1835 31.1902 32.6896 30.7396 33.1751C30.0722 33.8758 29.2767 34.442 28.3961 34.8433C29.2728 33.8569 30.4504 33.1712 31.127 32.0027C29.748 32.6819 28.6918 33.7458 27.6614 34.8433C26.7099 35.95 25.8465 37.1294 25.079 38.3708C22.9292 41.7279 21.4082 45.4724 18.623 48.4524C18.9768 48.6939 19.3216 48.6487 19.6728 48.5131C20.1729 48.3195 20.623 48.0159 20.9898 47.6248C21.8549 46.721 22.5392 45.6803 23.1693 44.5995C24.5096 42.3025 25.54 39.8325 27.0507 37.6271C27.2236 37.4776 27.3518 37.2832 27.4212 37.0655C27.4677 36.997 27.5142 36.9273 27.5594 36.8576V36.8873L27.6885 36.7246C27.8796 36.4973 27.8796 36.1629 28.1469 35.9705C29.012 35.3469 29.8616 34.7026 30.7293 34.0828C30.8584 33.9924 31.0224 33.7897 31.1735 33.9098C31.4963 34.168 31.637 33.9098 31.8061 33.7368C32.2955 33.2203 32.9398 32.9427 33.5467 32.4159C33.4757 32.9866 33.2239 33.2293 32.8481 33.3649C32.24 33.8556 31.575 34.2752 30.9888 34.8872C31.0095 34.5528 31.0753 34.2416 30.6557 34.5179C29.89 35.0344 29.1217 35.5393 28.3716 36.0738C28.1637 36.2236 27.8344 36.3966 28.1572 36.753C28.2463 36.8524 28.103 36.8911 28.0565 36.9428C26.9939 38.1229 26.3212 39.5445 25.5968 40.93C24.4735 43.0798 23.4766 45.32 21.8614 47.1522C21.2368 47.8543 20.808 48.7084 20.6179 49.6287C20.1273 51.8534 19.585 54.0691 20.0576 56.3764C20.3365 57.749 20.8168 59.0182 21.7904 60.055C22.1777 60.4708 22.6206 60.8298 23.3062 60.8001C22.9718 60.1545 22.6606 59.5721 22.5031 58.924C21.6574 55.4636 21.8575 52.0174 22.7006 48.5945C22.7975 48.2006 22.7213 48.078 22.2087 48.047C23.629 47.6532 24.4037 46.7558 25.0106 45.6867C25.6175 44.6176 26.028 43.4646 26.5097 42.3425C27.3967 40.2766 28.1882 38.1526 29.6795 36.4031C29.7415 36.3308 29.8461 36.2313 29.7867 36.1048C30.4142 36.2778 30.8597 35.9512 31.2742 35.5393C31.3217 35.498 31.3727 35.4608 31.4265 35.4282C31.9017 34.9285 32.3717 34.4237 32.8559 33.9317C32.9785 33.8026 33.1012 33.698 33.0961 33.5082C33.3336 33.5547 33.4602 33.3494 33.5583 33.2255C34.05 32.6173 34.5095 31.9838 34.9347 31.3274C35.0483 31.1467 35.5145 30.9078 35.0522 30.5837C34.9954 30.5437 35.0664 30.4636 35.1258 30.4623C35.7094 30.4481 35.9715 29.9394 36.3808 29.6579C36.457 29.5934 36.4674 29.3661 36.6197 29.5068C36.7036 29.5843 36.6197 29.7315 36.4906 29.7935C35.7505 31.0078 34.898 32.1499 33.9444 33.2048C33.4111 33.7833 32.8546 34.3398 32.3097 34.9053L32.3394 35.0719L32.1728 35.0241C31.8952 35.1171 31.7777 35.4967 31.4201 35.4437C31.0805 36.0971 30.7345 36.3618 30.1973 36.3785C30.2735 36.7465 30.0372 36.8317 29.7519 36.8731V36.9183L29.6124 37.1236L29.593 37.0951C28.7292 38.2572 28.2102 39.591 27.6175 40.8899C26.7137 42.868 26.0513 44.9636 24.7524 46.7481C24.7227 46.7907 24.7833 46.8991 24.8027 46.9753V46.9676C25.234 47.2929 25.6613 47.1031 26.0719 46.9314C27.4083 46.3723 28.1508 45.2852 28.6724 43.994C29.4639 42.0352 29.9636 39.9706 30.8674 38.0545L30.9191 37.9254L31.0611 37.6375L31.0508 37.662L31.2341 37.387C31.7971 36.3824 32.7513 35.6994 33.3917 34.7646C33.9947 33.8827 34.9554 33.2978 35.4047 32.2971C35.7507 31.5224 36.2569 30.86 36.7437 30.1796C36.9788 29.8737 37.1469 29.5217 37.2369 29.1466C37.2377 29.0879 37.229 29.0295 37.2111 28.9736C37.0277 29.0162 36.9528 29.2318 36.6946 29.1957C36.8818 28.7967 37.1026 28.4403 37.4203 28.2144C37.876 27.916 38.2784 27.5433 38.6107 27.1117C38.3964 26.6611 38.7825 26.4984 39.0188 26.2647C38.9529 25.8373 38.7605 26.0503 38.6146 26.1962C37.889 26.9064 37.1668 27.6208 36.448 28.3396C36.2982 28.4894 36.1626 28.6534 36.0193 28.8096C35.9238 28.971 35.8902 29.1737 35.7017 29.2731L35.5881 29.3454C35.5958 29.2925 35.6035 29.2409 35.61 29.1879C35.6965 29.0201 35.7327 28.8186 35.9276 28.7257L35.9909 28.2699L35.9173 28.1963C35.4392 28.4989 35.0965 28.9744 34.9605 29.5236C34.6933 30.5966 33.916 31.2499 33.1877 31.9575C32.8976 32.2547 32.5625 32.5043 32.1948 32.6974L32.5977 31.862C32.6028 31.8001 32.6251 31.7408 32.6621 31.6909C32.699 31.6409 32.7491 31.6022 32.8068 31.5792C33.2381 31.0756 33.6719 30.5747 34.098 30.0646C34.1729 29.9743 34.3046 29.8529 34.2168 29.7289C34.1458 29.6282 34.0025 29.858 33.8695 29.6954C35.7727 27.9677 37.8154 26.4067 39.8477 24.8444C40.0233 25.1026 40.0465 25.1168 40.2002 24.8353C40.3293 24.5965 40.5424 24.7566 40.6973 24.6778C40.4275 24.8857 41.1699 24.9799 40.7593 25.1814C40.6302 25.2433 40.6392 25.6888 40.3332 25.3337C40.1034 25.069 39.9058 25.388 39.8554 25.5029C39.6928 25.8734 39.3596 26.0684 39.1143 26.3499C38.9013 26.5746 38.6624 26.7824 38.6146 27.1156C39.0394 27.0678 39.2602 26.7218 39.5494 26.47C40.0659 26.0219 40.5617 25.5481 41.3429 25.7366C41.4217 25.7547 41.5275 25.6669 41.6218 25.6217C41.7135 25.4719 41.8039 25.3208 41.893 25.1736C41.7109 25.0045 41.5714 25.3027 41.41 25.1801C41.3713 24.9941 41.5934 25.0251 41.6373 24.9089C41.2809 24.5797 41.0317 24.0658 40.4985 24.0477C41.0782 24.0245 41.3326 24.5642 41.7019 24.9089V24.896L41.8542 24.8224C42.1047 24.8663 42.2519 24.6843 42.4223 24.5526C42.4223 24.4867 42.412 24.4234 42.4081 24.355C42.4081 24.4209 42.4172 24.4841 42.4223 24.5526L42.5295 24.4841L42.6586 24.4635C42.6225 24.3795 42.6096 24.2633 42.5476 24.2181H42.5373C42.548 24.21 42.5612 24.2056 42.5747 24.2056C42.5882 24.2056 42.6014 24.21 42.6122 24.2181C42.6754 24.2633 42.6883 24.3795 42.7232 24.4635C42.7338 24.4765 42.7482 24.4859 42.7644 24.4903C42.7806 24.4947 42.7978 24.4939 42.8136 24.488C42.5553 24.9799 42.2971 25.4848 41.6864 25.6372C41.5689 25.8773 41.463 26.1239 41.3261 26.3512C41.2357 26.5023 41.1286 26.7385 40.9052 26.6185C40.7051 26.5061 40.9555 26.3267 40.9336 26.1717C40.9052 26.1433 40.8781 26.1149 40.851 26.0852C40.4804 26.0697 40.2945 26.3705 40.0517 26.5642C39.7044 26.8418 39.4655 27.2318 39.073 27.4681C37.9819 28.1369 37.5236 29.2421 37.0936 30.3706C36.9774 30.6779 37.1594 30.758 37.3725 30.8316L37.1065 31.024L37.5765 31.188C38.1988 31.1634 38.4145 30.554 38.8419 30.2454C39.0485 30.4778 38.6779 30.6328 38.8419 30.8161C38.8896 30.7477 38.9232 30.6483 38.9891 30.6173C39.1182 30.5553 39.0988 30.6844 39.104 30.7464C39.1156 30.8949 39.1156 31.0446 39.1208 31.1944C39.1298 31.503 39.0188 31.995 39.7534 31.2293C39.1208 32.2777 39.0033 33.2268 38.3628 33.9343C38.142 34.1991 38.0298 34.5378 38.0491 34.8821C38.0491 35.1803 38.1963 35.2849 38.4519 35.2978C38.4474 35.285 38.4458 35.2714 38.4471 35.2578C38.4485 35.2443 38.4529 35.2313 38.46 35.2197C38.467 35.2081 38.4765 35.1982 38.4879 35.1907C38.4992 35.1832 38.5121 35.1783 38.5255 35.1764L38.5178 35.1855H38.5384C38.5391 35.1821 38.5391 35.1786 38.5384 35.1752C38.5555 35.1717 38.5727 35.1695 38.5901 35.1687C38.6675 34.9269 38.7916 34.7028 38.9555 34.5089C39.0627 34.2623 39.1685 34.0144 39.3067 33.6942C39.4087 34.1138 39.1879 34.3398 39.0614 34.6045C39.0252 34.7026 38.9891 34.7994 38.9542 34.8976L39.7677 34.935C39.8012 34.8433 39.8335 34.7504 39.8671 34.6587C40.1072 34.4495 39.8826 34.23 39.8813 34.0131C39.8674 33.3155 39.9407 32.6189 40.0995 31.9394C40.1783 31.6179 40.1937 31.3313 40.0052 31.0459C39.9174 30.9168 39.9329 30.9026 40.2079 30.7012C40.3293 30.9594 40.1253 31.3623 40.5488 31.4875L40.7309 31.2616C41.1763 30.3577 41.4346 29.3816 41.6347 28.3977C41.7109 28.0349 42.0957 28.1924 42.2622 27.9677C42.0402 28.4649 41.7638 28.9181 41.6166 29.4345C41.5275 29.747 41.5831 29.9342 41.8633 30.0143C41.1931 30.4649 41.1299 31.1234 41.2319 31.8413C40.9969 32.0427 41.3003 32.434 40.9736 32.6044C40.9736 32.6896 40.9827 32.7748 40.9865 32.8626L40.8445 32.9982C40.8446 33.2519 40.7759 33.5009 40.6457 33.7187C39.5262 35.8685 39.7173 38.3734 38.7876 40.5723C38.6779 40.5387 38.5733 40.7505 38.461 40.633C38.461 42.6395 38.377 44.6499 38.4777 46.6512C38.5862 48.7881 37.9703 50.6926 36.8792 52.4512C36.3084 53.3651 36.0771 54.4506 36.2259 55.5178C36.355 56.7328 36.5448 57.9349 36.4841 59.1732C36.2918 63.3192 36.1226 67.4652 36.0271 71.6137C35.9948 72.9759 35.845 74.2168 34.812 75.211C34.5861 75.4462 34.4363 75.7441 34.3821 76.0658C34.3046 76.4363 34.2375 76.8172 34.5409 77.1839C34.5647 77.1106 34.5799 77.0348 34.5861 76.958C34.5073 76.1962 35.0225 75.9663 35.6126 75.783C36.2027 75.5996 36.6158 75.7675 36.9309 76.3382C37.3557 77.1129 37.867 77.8282 38.3267 78.5784C38.3971 78.7116 38.5006 78.8245 38.6272 78.9061C38.7538 78.9877 38.8994 79.0354 39.0497 79.0445C39.4248 79.0657 39.792 79.161 40.13 79.325C40.468 79.489 40.7701 79.7184 41.0188 80L41.0989 79.9251C40.8944 79.3523 40.4787 78.8792 39.9368 78.6029C39.4595 78.3503 39.0421 77.998 38.7127 77.57C38.6056 77.4292 38.4765 77.2511 38.5591 77.1052C38.6676 76.9115 38.8651 77.0664 39.0175 77.1052C39.512 77.2446 40.013 77.3634 40.4946 77.5467C41.995 78.0981 43.6451 78.2646 44.9712 79.2666C45.0009 79.2356 45.0293 79.2046 45.059 79.1749C44.6238 78.4248 43.7975 78.1678 43.0473 77.6513C44.1358 77.5093 45.0667 77.561 45.875 78.2169L45.9499 78.1562C45.5625 77.3311 44.7956 77.1323 44.0002 76.9941C42.7968 76.7862 41.5469 76.865 40.3848 76.4182C37.6901 75.3853 37.1285 74.2465 37.1478 72.0695C37.1788 68.4762 37.2976 64.8867 37.4732 61.2985C37.5662 59.3901 37.5662 57.4701 38.0723 55.6017C38.2841 54.8154 38.5513 54.0342 38.5539 53.2079C38.5655 49.2736 40.7322 46.2355 42.7658 42.9442C42.8278 43.8055 42.8949 44.4833 42.9207 45.1612C43.0395 47.7216 43.2139 50.3053 42.1912 52.7353C41.5934 54.1556 41.7522 55.4726 42.4043 56.7625C43.077 58.095 43.5147 59.5037 43.9434 60.9214C45.1145 64.804 46.4083 68.6492 47.4167 72.5808C47.702 73.69 47.7188 74.732 46.8925 75.6732C46.7024 75.8817 46.5648 76.1327 46.4914 76.4051C46.418 76.6776 46.4107 76.9636 46.4702 77.2394C46.5219 77.1968 46.5671 77.1788 46.5787 77.1478C46.8795 76.3614 47.4322 76.0076 48.2637 76.1032C48.97 76.1832 48.8293 76.8004 48.9519 77.2446C49.0036 77.4292 49.0165 77.6255 49.0668 77.8114C49.1172 77.9974 49.1766 78.1833 49.4232 78.2078C50.1347 78.2788 50.6963 78.5435 50.7712 79.4861C50.9003 79.2937 50.952 79.2485 50.9584 79.1982C51.0372 78.4984 50.7996 77.9806 50.1088 77.7159C49.6672 77.5467 49.6647 77.1142 49.7215 76.7901C49.7873 76.4389 50.1476 76.661 50.3671 76.6842C51.9032 76.8836 53.4527 76.9626 55.0012 76.9205C56.0961 76.8973 57.1794 76.9941 58.0626 77.7921C57.745 76.9812 57.0296 76.6984 56.2911 76.528C55.5525 76.3576 54.7533 76.2801 53.7887 76.1329C54.4498 75.8824 54.9392 75.6887 55.435 75.5105C56.1465 75.2523 56.8553 75.1658 57.5345 75.6087L57.6559 75.5118C56.9651 74.7952 56.1206 74.5951 55.1819 74.8443C54.6241 74.9928 54.087 75.22 53.5447 75.4227C51.6466 76.1303 49.8467 75.3905 49.0178 73.5466C48.8779 73.2335 48.758 72.9117 48.6588 72.5834C48.0649 70.6131 47.4141 68.6556 46.9067 66.662C45.9318 62.8311 44.4353 59.1564 44.1074 55.1253C43.8491 51.9696 43.9214 48.9521 45.0977 46.0211C46.046 43.7152 47.1831 41.4916 48.4974 39.3728C48.8663 38.7675 49.3602 38.2481 49.9461 37.8492C52.0766 36.3579 54.2239 34.8898 56.2033 33.2009C59.2634 30.585 61.5256 27.481 62.1428 23.3879C62.645 20.0734 61.9116 17.1528 59.3589 14.8286C58.6423 14.183 57.9154 13.5374 57.2001 12.8919C56.3556 12.1249 55.5422 11.3424 54.9611 10.3301C53.7849 8.28877 54.6228 4.76254 58.051 4.56757C58.8825 4.52108 59.745 4.54691 60.5391 4.25897C61.8019 3.8006 63.0918 3.71797 64.4127 3.8006C65.7039 3.88066 66.9886 3.9478 68.2759 4.03043C69.4845 4.10661 70.6918 4.197 71.899 4.28092C71.9106 4.22799 71.9223 4.17634 71.9326 4.1234C71.7053 4.06659 71.4755 4.00074 71.2379 3.93747ZM27.429 31.7755C27.2017 32.3358 26.7382 32.6044 26.2863 32.8859C26.1572 33.0279 26.0281 33.1777 25.7517 33.0705L26.1765 32.7826L27.429 31.7755ZM33.792 26.0749L33.8863 26.0942V26.1523C33.8555 26.1483 33.8253 26.1414 33.7959 26.1317C33.7881 26.1317 33.7933 26.0981 33.792 26.0787V26.0749ZM26.5975 34.567C26.5858 34.567 26.5652 34.5541 26.5484 34.5463C26.5561 34.5296 26.56 34.5024 26.5729 34.4986C26.5858 34.4947 26.6052 34.5115 26.622 34.5192C26.6143 34.5386 26.6104 34.5657 26.5975 34.5709V34.567ZM30.8248 35.077L30.7732 35.0086C30.861 34.9828 30.8197 35.0551 30.8248 35.0809V35.077ZM29.748 35.9602V36.0712C29.473 36.0338 29.3219 36.3992 28.9565 36.2959L29.6925 35.884C30.1302 35.702 30.2812 35.1028 30.839 35.0951C30.4801 35.396 30.2412 35.8401 29.748 35.9589V35.9602ZM39.4345 24.6003C39.4339 24.6256 39.4267 24.6502 39.4136 24.6717C39.4004 24.6933 39.3818 24.711 39.3596 24.723H39.3519H39.3286H39.3506C39.3274 24.6262 39.3687 24.5939 39.4358 24.5861L39.4164 24.6042H39.4332C39.4332 24.6042 39.4332 24.5952 39.4332 24.5913H39.4733L39.4345 24.6003ZM39.4862 24.5835C39.5107 24.2595 39.8942 24.3047 40.0207 24.0851H40.195C40.0052 24.3101 39.7613 24.4829 39.4862 24.5874V24.5835ZM37.2718 30.7206L37.3583 30.6637C37.3583 30.718 37.3673 30.7722 37.3725 30.8264L37.2718 30.7206ZM40.4132 29.3739C40.2415 29.7302 40.0504 30.0788 39.7935 30.5734C39.6385 29.7987 40.0026 29.299 40.1808 28.7657C40.2519 28.5591 40.4068 28.3783 40.2002 28.1937C39.942 27.9716 39.8128 28.2776 39.6747 28.3861C39.113 28.8186 38.8005 29.4836 38.2118 30.0504C38.2841 29.1918 38.6146 28.328 39.1853 28.1524C39.9097 27.929 40.1615 27.4732 40.5062 26.9774C40.5424 26.9245 40.6521 26.9219 40.7283 26.8974C40.7425 26.9748 40.7554 27.0536 40.7709 27.1311C40.82 27.3635 40.2673 27.4203 40.5966 27.7328C40.8148 27.8309 41.2267 27.7534 41.0356 28.2195C41.0963 28.7502 40.6018 28.9775 40.4132 29.3739ZM52.4614 22.8753C51.9694 21.6422 51.0411 20.8598 49.8351 20.2929C51.2696 20.2607 52.3361 21.3039 52.4614 22.8727V22.8753ZM49.888 26.7114C49.8954 26.8176 49.8677 26.9233 49.8093 27.0123C49.7995 26.959 49.8015 26.9043 49.8151 26.8519C49.8287 26.7994 49.8536 26.7506 49.888 26.7088V26.7114ZM49.2799 26.3409C49.1869 26.6882 49.094 27.0368 48.9984 27.3906C48.828 27.2834 49.0552 26.8741 48.673 26.927C48.713 26.5939 49.0823 26.5616 49.2799 26.3383V26.3409ZM48.4109 25.6656L48.6446 25.6294C48.6278 25.5235 48.6808 25.4874 48.7737 25.5003C48.7737 25.3428 48.8228 25.2511 49.01 25.3479H49.0229L48.8938 25.5042C48.8602 25.5044 48.8267 25.5091 48.7944 25.5184C48.7921 25.5536 48.7763 25.5867 48.7504 25.6107C48.7245 25.6347 48.6903 25.6479 48.6549 25.6475C48.2779 26.1059 48.0003 26.6585 47.427 26.9387C47.2617 27.0187 47.1133 27.1143 47.3586 27.308C47.4283 27.3622 47.5316 27.53 47.4219 27.654C47.2669 27.8283 47.2398 27.614 47.1481 27.5597C46.7853 27.3493 46.9531 27.8877 46.691 27.8735C46.4728 27.7857 46.8202 27.4681 46.5619 27.4138C46.2197 27.3415 46.2494 27.7754 45.906 27.9122C46.0506 27.3376 46.0054 26.7669 46.5038 26.4093C46.7027 26.266 46.824 26.151 46.7362 25.907C46.3424 25.9522 45.9886 25.907 45.8957 25.3505C46.1655 25.0923 46.7039 25.5171 47.0706 25.1943C47.0567 25.2266 47.0451 25.2598 47.0358 25.2937C47.0333 25.3034 47.0333 25.3137 47.0358 25.3234L46.9777 25.3466C46.9164 25.3676 46.8634 25.4073 46.8261 25.4602C46.7887 25.513 46.769 25.5763 46.7698 25.641C46.6743 25.7056 46.6007 25.7792 46.651 25.9135C46.7194 25.8373 46.8111 25.7714 46.793 25.6552C47.3095 25.7766 47.826 25.8295 48.3425 25.6733C48.1333 25.3505 47.8802 25.2162 47.5962 25.2085C47.9086 25.1865 48.1862 25.3157 48.4109 25.663V25.6656ZM47.702 28.7747C47.702 28.7644 47.6943 28.7554 47.6891 28.745C47.6865 28.7523 47.683 28.7592 47.6788 28.7657C47.1739 29.4332 47.0267 30.2583 46.7608 31.0188C46.6458 31.3468 46.4457 31.6877 46.4522 32.0673L46.3863 32.0905C46.2572 32.2739 46.1281 32.4585 46.0054 32.6418C45.8763 32.5127 45.9912 32.3836 46.0687 32.2971C46.7052 31.5392 46.5852 30.5153 47.0035 29.6747C47.1584 29.3609 46.642 28.9891 46.9635 28.5656C47.0513 28.8612 47.143 29.2112 47.4477 28.7231C47.4877 28.6598 47.5975 28.5785 47.662 28.6637C47.5755 28.3177 47.8906 27.9974 47.7731 27.6501C48.4432 28.0646 47.8751 28.3848 47.6943 28.736C47.6969 28.7455 47.6995 28.7575 47.702 28.7722V28.7747ZM45.9796 29.2822C45.6762 28.9968 45.9602 28.7851 46.1023 28.5682C46.1335 28.523 46.1804 28.4911 46.2339 28.4787C46.2874 28.4663 46.3436 28.4742 46.3915 28.501C46.4974 28.5617 46.4702 28.6844 46.4457 28.7915C46.2133 29.778 45.9817 30.7649 45.751 31.7522C45.7368 31.0369 45.5457 30.2725 46.0274 29.605C46.1203 29.472 46.0971 29.3893 45.9796 29.2796V29.2822ZM47.7705 27.6424C47.7898 27.6424 47.8157 27.6424 47.8389 27.6488H47.7705V27.6424ZM47.8738 27.6424C47.8738 27.6424 47.8841 27.6424 47.8854 27.6424C48.061 27.3144 48.1798 26.9296 48.6601 26.94C48.5581 27.3777 48.3283 27.6514 47.8738 27.645V27.6424ZM46.6084 24.6145C46.8473 24.6455 47.0371 24.7682 47.0694 25.1827C47.0371 24.7708 46.8473 24.6481 46.6084 24.6171V24.6145ZM47.817 21.7739C47.1278 21.6497 46.4228 21.6397 45.7304 21.7442C46.1862 21.2394 46.9428 21.229 47.817 21.7765V21.7739ZM42.7451 21.0225C43.8401 20.6119 44.9195 20.4905 45.9848 21.0586C44.9014 20.8714 43.8181 20.9734 42.7451 21.025V21.0225ZM40.7102 40.1101C40.1937 40.5207 39.6398 40.9042 38.9284 40.6265C39.1117 40.6196 39.2918 40.5757 39.4578 40.4974C40.514 40.0817 41.1699 39.2876 41.4669 38.2288C41.8542 36.833 42.177 35.4166 42.5282 34.0092L42.177 33.9601C42.0711 34.1667 42.1305 34.536 41.7897 34.5205C41.4023 34.505 41.4255 34.1228 41.3352 33.8556C41.3042 33.7109 41.2732 33.5663 41.2409 33.4217C41.2545 33.3957 41.2657 33.3684 41.2745 33.3404C41.2745 33.3313 41.2525 33.3184 41.2409 33.3068C41.4204 32.913 41.2409 32.4585 41.4436 32.0686C41.7328 31.432 41.7638 30.6831 42.2764 30.1434C42.2274 29.96 42.1112 29.9652 41.9898 29.9846C42.4843 29.4552 42.6186 28.7683 42.7012 28.0969C42.7387 27.7883 42.8007 27.4513 42.9943 27.3338C43.4889 27.0484 43.3314 26.5436 43.5108 26.1627C43.5457 26.0891 43.5031 25.9677 43.4101 25.9716C43.3067 25.9791 43.2099 26.0252 43.139 26.1007C42.5786 26.7631 41.8013 27.224 41.3713 28.0517C41.2035 27.7586 41.3261 27.5868 41.4914 27.4138C41.7277 27.1685 41.9446 26.9051 42.1848 26.6649C42.3036 26.5462 42.4004 26.4248 42.279 26.2853C42.137 26.1213 42.013 26.3124 41.8826 26.3551L41.7238 26.4441C41.6386 26.4919 41.5676 26.6701 41.4656 26.541C41.4139 26.4738 41.5598 26.3951 41.6631 26.3783L41.7922 26.2492C42.2782 25.8027 42.8424 25.4499 43.4566 25.2085C43.7574 25.0794 44.0518 24.9812 44.3488 24.8211C44.7194 24.6197 44.518 25.0652 44.5761 25.2227C44.7723 25.1788 44.9066 24.9877 45.1326 25.0548C45.2475 25.1982 44.8588 25.2124 45.0293 25.3789C45.0802 25.4168 45.1342 25.4505 45.1907 25.4796C45.7937 25.7508 45.7937 25.7495 45.1532 26.2388C45.2746 25.9199 45.263 25.7043 44.895 25.7508C44.9156 25.8541 44.8743 25.8993 44.7659 25.8799C44.5657 26.4157 44.0131 26.6017 43.6593 26.9877C43.4773 27.1853 43.2126 27.3105 43.4785 27.6488C43.6232 27.8322 43.4618 28.0078 43.3094 28.1408C43.0005 28.4052 42.7666 28.7463 42.6315 29.1298C42.412 29.7393 42.4779 29.8839 43.0963 29.9045C42.6573 30.3461 42.5721 30.9375 42.4391 31.503C42.3883 31.7403 42.3067 31.9699 42.1964 32.1861C42.2158 31.6838 42.1396 31.1815 42.3449 30.7038C42.4275 30.514 42.5411 30.3074 42.3139 30.1279C41.995 31.1609 41.5392 32.168 41.5288 33.2849C41.5288 33.6722 41.5198 34.0596 41.7716 34.4082C42.1486 34.2662 42.0143 33.8142 42.2609 33.6038C42.3655 33.7394 42.2609 33.8491 42.2287 33.9666L42.5799 34.0157C42.6122 33.9305 42.6444 33.8439 42.678 33.7574C42.6488 33.7184 42.6361 33.6695 42.6426 33.6212C42.6491 33.5729 42.6744 33.5291 42.7129 33.4992C42.8833 33.3701 42.7581 33.1015 42.9608 32.993C43.0654 33.2035 42.8885 33.4179 42.9608 33.6283C42.7025 34.8614 42.4533 36.0984 42.1796 37.3289C41.9562 38.3928 41.5895 39.4064 40.7102 40.1127V40.1101ZM45.2643 27.499C45.2294 27.5184 45.1933 27.5571 45.1636 27.5533C45.0745 27.5404 45.0964 27.4887 45.1429 27.4448C45.1734 27.4219 45.2058 27.4016 45.2397 27.3841C45.2526 27.4216 45.2643 27.4603 45.2643 27.499ZM44.9841 27.8167C45.0119 27.8363 45.0363 27.8602 45.0564 27.8877C45.1933 28.1227 44.9169 28.1343 44.8537 28.2621C44.7775 28.4778 44.7245 28.7089 44.5244 28.8522C44.505 28.594 44.6535 28.4119 44.7826 28.2131C44.7233 28.0155 44.8769 27.9238 44.9892 27.8167H44.9841ZM43.1157 31.7057C42.9866 31.4062 43.1506 31.1505 43.1725 30.8871C43.1996 30.5643 43.4437 30.2196 43.139 29.9123C43.3456 29.4561 43.5517 29.0011 43.7574 28.5475C43.5496 29.6011 43.698 30.7141 43.1209 31.7057H43.1157ZM43.3081 32.4185C43.1867 32.5967 43.179 32.8471 42.975 32.9724C42.9814 32.7322 42.9569 32.4804 43.2048 32.3268C43.2883 31.9468 43.4416 31.5857 43.6567 31.2616C43.8001 31.809 43.4062 32.0673 43.3133 32.4185H43.3081ZM47.9409 32.2132C47.5187 33.33 47.1662 34.4857 46.4238 35.4489C45.9189 36.0945 45.3508 36.6897 44.456 36.7465C44.1345 36.7659 44.1086 37.0138 43.9989 37.2075C43.5754 37.9577 43.1428 38.6988 42.2429 38.9764C42.1861 39.0487 42.0737 39.081 42.0453 39.0139C42.0014 38.908 42.1254 38.9338 42.1874 38.9196C43.5586 37.9202 44.0919 36.4586 44.416 34.8821C44.403 34.6729 44.3992 34.4663 44.5799 34.3139L44.5877 34.3049L44.7349 33.6709C44.4534 33.3985 44.5825 33.1893 44.8408 33.0021C45.0293 32.3113 44.4689 31.7019 44.6432 31.0033C44.4108 31.2073 44.3759 31.4656 44.3617 31.7328C44.387 31.8984 44.3531 32.0675 44.2662 32.2106C44.2365 32.3578 44.221 32.5153 44.0415 32.5695L43.8801 32.616C43.8465 32.4934 43.9563 32.5011 44.0183 32.465C44.3294 31.9485 44.1926 31.3326 44.4134 30.7967C44.4702 30.6599 44.4921 30.5075 44.5425 30.3655C44.5928 30.2235 44.9867 30.0685 44.6716 29.9058C44.4521 29.7922 44.1551 29.9433 44.0777 30.2725C44.0334 30.432 43.9589 30.5815 43.8582 30.7128C43.8297 30.0143 44.0996 29.4152 44.5244 28.869C44.6032 29.1815 44.2726 29.3958 44.323 29.7819C45.006 29.2654 45.1235 28.4907 45.4373 27.8283C45.649 27.9238 45.5315 28.0775 45.498 28.2066C45.2204 29.3028 44.9583 30.4016 44.8627 31.5327C44.842 31.778 44.691 32.0647 45.1209 32.2467C45.3082 32.3255 45.1326 32.8007 45.1209 33.0963C45.2267 33.1572 45.3442 33.1946 45.4657 33.2061C45.3216 33.2094 45.1795 33.1713 45.0564 33.0963C44.855 34.1448 44.66 35.1945 44.3372 36.2159C44.2287 36.5632 44.3617 36.6381 44.6897 36.5167C45.2978 36.2907 45.742 35.8711 46.1229 35.3663C46.8395 34.4134 47.2463 33.3081 47.6827 32.217L46.908 31.9588L46.8757 31.9356H46.8847C46.9157 30.9142 47.6039 30.186 48.0726 29.3532C47.7679 30.2467 47.245 31.0524 46.9738 31.9588L47.7485 32.217H47.9435C47.9945 32.1946 48.0389 32.1595 48.0726 32.115C48.0393 32.1582 47.9959 32.1923 47.9461 32.2145L47.9409 32.2132ZM48.1294 31.9549C47.9345 31.9162 47.9926 31.7897 48.0261 31.667C48.163 31.1686 48.4871 30.7412 48.2108 30.1176C48.1178 29.9084 48.5413 29.3183 48.6988 28.8909C48.899 29.3119 48.9765 28.2299 49.1921 28.8509C48.6433 29.8232 48.5271 30.9388 48.1346 31.9562L48.1294 31.9549ZM50.4329 27.5726C50.4634 27.6278 50.4713 27.6926 50.4549 27.7534C50.1902 28.6392 49.9926 29.5611 49.2231 30.3255C49.2076 29.8335 49.5381 29.5611 49.5549 29.1983L49.5756 29.1724L49.5536 29.1466C49.5315 29.1043 49.5243 29.0558 49.5332 29.0089C49.5421 28.9621 49.5666 28.9196 49.6027 28.8884C49.7796 28.7592 49.7964 28.5875 49.6337 28.4713C49.3406 28.2647 49.2915 28.2596 49.4516 27.9974C49.6117 27.7353 49.5033 27.3325 49.7589 27.0936V27.7676C50.0701 27.5275 49.9203 27.1453 50.1398 26.9154C50.5375 26.6159 50.6214 26.2879 50.2341 25.9148C50.1726 26.1579 50.0705 26.3888 49.9319 26.5978C49.9341 26.3548 49.9832 26.1145 50.0765 25.8902L50.2999 25.9148C50.6873 26.2879 50.6021 26.6159 50.2057 26.9154C50.1798 27.2059 50.1824 27.2047 50.4381 27.5765L50.4329 27.5726ZM52.544 26.3202C52.5272 25.1388 52.1567 24.1897 51.2916 23.4228C52.3323 23.3569 53.0579 24.8547 52.5492 26.3241L52.544 26.3202ZM59.5371 2.20857C59.479 2.20595 59.422 2.19173 59.3694 2.16675C59.3168 2.14177 59.2698 2.10652 59.2311 2.06309C59.1923 2.01966 59.1627 1.96892 59.1438 1.91385C59.125 1.85879 59.1173 1.80051 59.1214 1.74245C59.1278 1.44677 59.3189 1.33056 59.5862 1.34089C59.8535 1.35122 60.002 1.52295 60.0097 1.79926C59.9748 2.07041 59.8044 2.23439 59.5423 2.21244L59.5371 2.20857ZM64.9124 3.1124H65.1138C64.2319 2.96779 63.3513 2.79993 62.4604 2.79606C63.3733 2.79606 64.2758 2.9652 65.1719 3.1124C65.0944 3.11886 65.0066 3.12015 64.9175 3.12015L64.9124 3.1124ZM65.9608 3.28542C66.0547 3.2821 66.1451 3.2491 66.2191 3.19116C66.1287 3.19116 66.0512 3.16921 65.9802 3.16534C66.0818 3.16746 66.1831 3.17609 66.2836 3.19116C66.1936 3.2624 66.0806 3.29822 65.966 3.29188L65.9608 3.28542Z" fill="#AF3830"/>
<path d="M38.4512 40.6083L38.4694 40.6279V40.5957L38.4512 40.6083Z" fill="#AF3830"/>
<path d="M41.6738 25.6415H41.6878L41.6976 25.6191L41.6738 25.6415Z" fill="#AF3830"/>
<path d="M48.6473 25.6451H48.6543C48.6587 25.638 48.6638 25.6314 48.6697 25.6255H48.6445C48.6445 25.6255 48.6445 25.6367 48.6445 25.6423L48.6473 25.6451Z" fill="#AF3830"/>
<path d="M47.6885 28.7425C47.689 28.7395 47.689 28.7364 47.6885 28.7334C47.6824 28.7075 47.6715 28.683 47.6562 28.6611C47.6646 28.6891 47.6754 28.7164 47.6885 28.7425Z" fill="#AF3830"/>
<path d="M48.7776 25.5159H48.7944C48.7951 25.5094 48.7951 25.5028 48.7944 25.4963H48.7734V25.5201L48.7776 25.5159Z" fill="#AF3830"/>
<path d="M32.6426 28.0983C32.6484 28.0915 32.655 28.0854 32.6622 28.0801L32.6426 28.0983Z" fill="#AF3830"/>
<path d="M37.3112 26.0176C37.3112 26.0176 37.3112 26.0176 37.3014 26.0078L37.293 26.0232L37.3112 26.0176Z" fill="#AF3830"/>
<path d="M27.6035 33.255L27.6203 33.2661C27.621 33.2578 27.621 33.2493 27.6203 33.241L27.6035 33.255Z" fill="#AF3830"/>
<path d="M24.1327 37.1211L24.1211 37.1314C24.1443 37.1689 24.165 37.1844 24.1831 37.1882C24.1796 37.1743 24.1733 37.1611 24.1647 37.1496C24.156 37.1381 24.1452 37.1284 24.1327 37.1211Z" fill="#AF3830"/>
<path d="M40.9817 31.7781C40.9662 31.6063 41.1031 31.3042 40.7235 31.321C40.7288 31.371 40.7194 31.4214 40.6965 31.4661C40.6736 31.5109 40.6381 31.5479 40.5944 31.5728C40.2819 32.3875 39.9488 33.1997 40.0934 34.1551C40.5918 33.8607 40.4808 33.2784 40.8436 32.9931C40.8345 32.9229 40.8414 32.8517 40.8637 32.7846C40.8861 32.7175 40.9234 32.6564 40.9727 32.6057C40.9924 32.3303 40.9954 32.0539 40.9817 31.7781Z" fill="#AF3830"/>
<path d="M40.8398 32.9901V33.0055L40.8538 32.9929V32.9775L40.8398 32.9901Z" fill="#AF3830"/>
<path d="M40.9842 32.6053V32.5916L40.9688 32.6088L40.9842 32.6053Z" fill="#AF3830"/>
<path d="M43.6971 25.9844C43.9553 25.8734 44.2897 26.129 44.4938 25.8179L44.4021 25.7042C44.3001 25.7249 44.1542 25.7636 44.2652 25.5816C44.4227 25.3234 44.1981 25.3505 44.0806 25.3234C44.0296 25.3115 43.9768 25.31 43.9253 25.3191C43.8738 25.3282 43.8247 25.3476 43.7809 25.3762C43.7371 25.4048 43.6995 25.442 43.6705 25.4855C43.6414 25.529 43.6215 25.5779 43.6119 25.6294C43.586 25.7223 43.5951 26.027 43.6971 25.9844Z" fill="#AF3830"/>
<path d="M44.7238 25.8979C44.7303 25.8166 44.7651 25.7688 44.8529 25.7688C44.8955 25.6397 44.9394 25.5028 44.9821 25.3711C44.6825 25.2988 44.5598 25.5338 44.3984 25.7042L44.4901 25.8179L44.7238 25.8979Z" fill="#AF3830"/>
</svg>
