<svg width="80" height="80" viewBox="0 0 80 80" fill="none" xmlns="http://www.w3.org/2000/svg">
<path d="M36.3522 31.9442C35.6134 32.4327 34.8669 32.912 34.1357 33.4112C29.7484 36.4063 24.8771 37.3573 19.6563 36.8841C15.4018 36.4994 11.2908 35.5407 7.36148 33.857C6.0746 33.3059 4.82435 32.6754 3.79241 31.703C2.66734 30.6451 2.74977 29.7444 4.00612 28.8285C4.75871 28.2759 5.65327 28.0652 6.50967 27.7599L6.96763 27.7233L7.27294 27.6744C8.41387 27.59 9.5589 27.5757 10.7016 27.6317C13.1135 27.7446 15.5255 27.8627 17.9374 27.9858C21.9767 28.1858 26.0159 28.2652 30.0552 28.0164C31.2215 27.9431 32.3908 27.8866 33.551 27.7569C34.5081 27.65 35.4592 27.4638 36.285 26.9127C35.4729 26.9997 34.6822 27.1981 33.8792 27.2775C31.0825 27.5595 28.263 27.5252 25.474 27.1752C22.137 26.7539 18.8213 26.2303 15.5102 25.6609L15.0522 25.6243L14.7469 25.5159C11.1168 24.8778 7.52788 24.0916 4.13283 22.5986C2.84442 22.0308 1.63692 21.3362 0.725565 20.2203C-0.452932 18.7777 -0.190366 17.4648 1.47357 16.6222C2.43882 16.1591 3.48892 15.8993 4.55873 15.8589C7.96752 15.6452 11.2985 16.2283 14.6233 16.8603C20.2905 17.9442 25.852 19.5215 31.2444 21.5743C32.9236 22.2078 34.699 22.3941 36.4499 22.7024C36.6987 22.7467 36.9888 22.794 37.0346 22.4185C37.0895 21.9605 37.636 21.5224 37.059 21.0446C36.2957 20.4111 35.5889 19.7043 34.7906 19.1212C33.4044 18.106 32.5297 16.8191 32.3359 15.0926C32.2481 14.3009 31.9162 13.5562 31.3863 12.9615C31.223 12.7737 30.8963 12.5035 31.1818 12.2562C31.4673 12.0089 31.655 12.3875 31.8458 12.5616C31.8832 12.6035 31.933 12.6323 31.9879 12.6439C32.0429 12.6554 32.1001 12.649 32.1511 12.6257C32.2427 11.7326 31.8245 10.9266 31.6214 10.0794C31.5573 9.81224 31.2459 9.4306 31.6016 9.27642C31.9069 9.14055 32.0596 9.58173 32.2366 9.82292C33.1205 11.0442 33.0808 12.5097 33.3403 13.8973C33.4243 14.3461 33.4762 14.801 33.5281 15.2559C33.565 15.6863 33.6953 16.1035 33.9099 16.4784C34.1245 16.8533 34.4183 17.1769 34.7707 17.4267C35.4943 17.9625 36.1446 18.6052 36.9079 19.2814C37.0514 18.1121 37.4864 17.2725 38.4909 16.8191C38.755 16.7 38.6726 16.4268 38.6543 16.2085C38.5825 15.3674 38.3016 14.6285 37.636 14.0713C37.4834 13.9355 37.1918 13.7538 37.4116 13.5202C37.6315 13.2867 37.8223 13.5721 37.9841 13.7049C38.7031 14.3003 39.0695 15.0972 39.2649 15.9948C39.3168 16.2314 39.2954 16.5031 39.6877 16.5001C40.0801 16.497 40.1457 16.2283 40.1686 15.952C40.2602 15.0895 40.5518 14.3201 41.1929 13.7172C41.3456 13.5645 41.5623 13.308 41.7699 13.5095C42.0111 13.7431 41.6845 13.9019 41.5471 14.0423C41.2094 14.3886 40.9656 14.8152 40.8387 15.2819C40.6067 16.0772 40.5991 16.7077 41.5257 17.1321C42.3134 17.4923 42.6431 18.2678 42.6767 19.3043C43.6949 18.3472 44.6612 17.561 45.4749 16.6313C46.0565 15.9612 45.8871 14.9842 46.0229 14.1415C46.1756 13.2393 46.1115 12.3097 46.3282 11.4166C46.4681 10.8208 46.7081 10.253 47.0381 9.73744C47.1663 9.5344 47.2884 9.18177 47.5754 9.29626C47.8624 9.41075 47.6746 9.73133 47.6166 9.95573C47.4716 10.5206 47.3113 11.0808 47.1587 11.6456C47.0915 11.9128 47.0213 12.1845 47.1373 12.4562C47.5144 12.5539 47.8029 11.8807 48.0731 12.2242C48.3433 12.5677 47.8487 12.8837 47.6548 13.1783C47.093 14.0316 47.1205 15.0224 46.9724 15.9642C46.8518 16.7275 46.577 17.3458 45.9817 17.8648C44.8887 18.8158 43.8628 19.8493 42.7668 20.7897C42.0524 21.4079 42.6721 21.9575 42.808 22.4964C42.9286 22.9757 43.4049 22.6948 43.7239 22.6643C47.1617 22.3284 50.2377 20.7729 53.474 19.7638C59.9374 17.7396 66.5047 16.2207 73.2932 15.833C74.6671 15.7536 76.041 15.8024 77.3798 16.1825C77.7231 16.2751 78.0588 16.3935 78.3843 16.5367C80.1795 17.3534 80.4909 18.6494 79.2575 20.176C78.3125 21.3484 77.0302 22.0613 75.6701 22.6658C72.2796 24.1786 68.6891 24.9739 65.0529 25.6075L61.3067 26.2654C61.095 26.232 60.8782 26.2759 60.6961 26.3891L59.3222 26.5768L55.0235 27.1111L54.5899 27.1493L53.6831 27.189L53.2145 27.2332L51.5506 27.3493H47.8639L47.4243 27.3325L43.5988 26.8089L43.5713 27.0119C45.5558 27.7034 47.6227 27.8607 49.708 27.9065L50.3263 27.9416L50.5171 27.9706C53.1427 28.2957 55.773 28.2377 58.4048 28.0667L60.8381 28.0362C61.4461 28.0874 62.058 28.0705 62.6623 27.9858L62.815 27.9675L63.7492 27.9126L64.8041 27.8836L66.955 27.7446C68.5838 27.7752 70.2035 27.5355 71.84 27.6179C73.194 27.6882 74.5282 27.8317 75.7342 28.5262C75.9563 28.6494 76.169 28.7887 76.3708 28.943C77.5492 29.8681 77.592 30.6787 76.4898 31.7106C75.2808 32.8403 73.8046 33.5425 72.2872 34.1348C66.8878 36.2384 61.2961 37.2505 55.4952 36.8948C52.1795 36.6902 49.1783 35.5209 46.3786 33.776C45.4856 33.2219 44.6017 32.654 43.6751 32.1426C44.8826 34.692 46.1679 37.1543 48.5387 38.8396C48.873 39.0778 49.563 39.4243 49.2729 39.8304C48.9264 40.3127 48.4471 39.6777 48.0273 39.5128C47.8746 39.4563 47.7556 39.2655 47.4945 39.4044C47.6609 40.1921 47.9296 40.9218 48.5631 41.4973C48.9528 41.8606 49.3209 42.2465 49.6653 42.6529C49.763 42.7659 49.9202 42.9583 49.737 43.1216C49.6027 43.2437 49.4531 43.1506 49.3218 43.0636C48.1494 42.285 46.9617 41.5279 46.7129 39.9647C46.5761 39.1593 46.2237 38.406 45.6932 37.7848C44.5147 36.3468 43.556 34.7591 42.5821 33.086C42.347 33.6829 42.1241 34.1317 42.3332 34.8019C42.5775 35.5911 42.4248 36.4704 42.1119 37.2688C41.9287 37.7268 41.7989 38.1847 42.0524 38.6595C42.0645 38.682 42.0708 38.7072 42.0707 38.7328C41.9974 41.3462 42.924 43.9902 41.8249 46.5731C41.7707 46.7141 41.7707 46.8702 41.8249 47.0112C42.173 47.7547 42.1302 48.4905 41.8356 49.2293C41.8056 49.2988 41.791 49.3739 41.7929 49.4496C41.7947 49.5252 41.8129 49.5995 41.8463 49.6675C42.3755 50.812 42.5242 52.096 42.2706 53.3312C42.0457 54.4506 41.9014 55.5847 41.8386 56.7247C41.7722 57.6244 41.7646 58.5275 41.8157 59.4282C41.8646 60.132 42.063 60.7884 41.7226 61.457C41.6326 61.6371 41.6081 61.7852 41.744 61.9455C41.8194 62.0289 41.8766 62.1271 41.9121 62.2338C41.9476 62.3405 41.9605 62.4533 41.9501 62.5653C41.6035 64.765 42.3836 67.0381 41.4814 69.2073C41.1944 69.8958 41.0448 70.7537 40.1472 70.7491C39.2496 70.7445 38.9718 69.9233 38.8008 69.2058C38.4314 67.6533 38.0375 66.0886 38.5077 64.4735C38.6176 64.104 38.297 63.7881 38.3154 63.4461C38.3779 62.2798 38.2787 61.1181 38.2925 59.9579C38.2925 59.4908 38.4207 59.0344 38.2329 58.5749C38.1846 58.4842 38.1654 58.3807 38.178 58.2787C38.4985 57.2514 38.0391 56.2087 38.2436 55.1798C38.2771 55.0584 38.2771 54.9303 38.2436 54.8089C37.5689 53.0991 37.6605 51.3863 38.2054 49.672C38.2587 49.4499 38.2367 49.2163 38.1429 49.008C38.0662 48.8184 38.0358 48.6132 38.0543 48.4096C38.4008 46.564 37.5887 44.8207 37.5964 43.0086C37.5964 42.6529 37.5078 42.256 37.6345 41.9507C38.1215 40.7753 37.8543 39.5189 38.0925 38.3236C38.1581 38.0031 38.0329 37.7283 37.9398 37.4398C37.6025 36.4628 37.4391 35.4766 37.7643 34.4584C37.9169 33.9684 37.4742 33.6142 37.5017 33.0204C36.4637 34.5866 35.6286 36.1254 34.4715 37.4337C33.9647 38.0076 33.6487 38.5877 33.6136 39.3831C33.5712 40.2991 33.3794 41.202 33.0457 42.0561C32.9297 42.3614 32.9037 42.9109 32.458 42.7858C32.1344 42.6957 32.316 42.2072 32.3679 41.8988C32.5343 40.9096 32.7221 39.9235 32.9114 38.8808C32.4534 39.0869 32.0916 39.2548 31.7237 39.4151C31.6588 39.4571 31.5811 39.4749 31.5044 39.4654C31.4277 39.4559 31.3567 39.4197 31.3039 39.3632C31.1696 39.1907 31.2581 39.0198 31.3848 38.8839C31.8428 38.4046 32.2336 37.8382 32.7679 37.4795C33.5922 36.9269 34.0303 36.1056 34.5234 35.324C35.1951 34.2554 35.8149 33.1471 36.456 32.0556L36.5232 31.9564L36.3522 31.9442ZM48.9753 32.622C48.9402 32.5647 48.8886 32.5195 48.8273 32.4922C48.7659 32.465 48.6978 32.457 48.6318 32.4693L48.6684 32.4464C48.27 32.1533 47.783 32.0831 47.3312 31.9304C46.0397 31.4939 44.9192 30.7535 43.8033 30.0009C43.4583 29.7688 43.4003 29.4177 43.5468 29.0544C43.6934 28.6911 43.9804 28.9186 44.2017 28.9567C45.1024 29.1094 45.9939 29.3216 46.8961 29.4559C51.9337 30.2054 56.9897 29.72 62.0395 29.7185C62.6119 29.7185 63.221 29.6025 63.7004 29.0224C63.5215 29.0015 63.3416 28.9908 63.1615 28.9903C59.5573 29.2666 55.947 29.0483 52.3413 29.1582C49.5599 29.2422 46.8198 28.8819 44.1117 28.2744C42.8782 27.9965 42.8752 27.969 42.9423 29.2559C42.9652 29.6925 42.8217 30.2192 43.3515 30.4772C44.9513 31.2404 46.4275 32.2587 48.1235 32.8281C48.5142 33.1239 48.9449 33.3629 49.4027 33.5379L49.5554 33.5898C49.8607 33.8432 50.2423 33.9134 50.6071 33.9608C50.972 34.0081 51.5231 34.1852 51.6193 33.7959C51.7414 33.3379 51.1338 33.3624 50.8209 33.2143C50.7023 33.1756 50.5791 33.1535 50.4545 33.1486L49.853 33.115C49.8429 33.1006 49.8282 33.09 49.8113 33.085C49.7944 33.08 49.7762 33.0809 49.7599 33.0876C49.7181 33.0297 49.6609 32.9847 49.5948 32.9577C49.5286 32.9307 49.4563 32.9228 49.3859 32.9349L49.4302 32.9196C49.3115 32.7673 49.1447 32.6596 48.9569 32.6143L48.9753 32.622ZM51.862 26.3982L51.8391 26.4089C52.181 26.4089 52.5367 26.4745 52.842 26.2456L53.216 26.2334C54.283 26.1492 55.3381 25.9527 56.3638 25.6472L56.5714 25.6349L57.0217 25.5907L57.643 25.4563L57.9361 25.4319L58.4063 25.3052C58.533 25.322 58.6612 25.348 58.7544 25.2212L58.762 25.2701L58.8093 25.2609C61.4899 24.6854 64.1522 24.0305 66.842 23.5115C63.7477 22.7757 60.8976 23.8687 57.988 24.519V24.5038C57.7346 24.548 57.4522 24.4793 57.24 24.6885V24.6488L57.2003 24.6412L52.0467 25.754C51.8681 25.6685 51.7017 25.754 51.5307 25.7907C51.5057 25.7824 51.4792 25.7793 51.453 25.7817C51.4267 25.784 51.4012 25.7918 51.3781 25.8044L51.0239 25.8838L50.8285 25.928C48.589 25.9952 46.3511 25.5968 44.1117 25.87C46.2791 26.4643 48.5318 26.6862 50.7735 26.5265L51.3658 26.4974L51.7353 26.441L51.862 26.3982ZM34.6837 29.833C33.6151 30.2405 32.4458 30.2909 31.2642 30.5962C32.2534 31.1977 33.9204 30.8298 34.757 29.9047L34.8119 29.8116L34.6837 29.833ZM50.9613 31.7122C50.7308 31.4542 50.2637 31.5717 50.0988 31.2069C50.6774 30.7779 51.43 31.1687 52.0146 30.7489C51.4819 30.4436 51.172 30.4192 50.4072 30.613C49.6424 30.8069 49.5615 31.0267 50.0286 31.7076L49.9004 31.8343C49.6378 31.6816 49.3706 31.529 49.1157 31.3763C48.9631 31.2771 48.8211 31.1366 48.9798 30.9428C49.4225 30.4008 48.9112 30.5138 48.6654 30.5016C47.2208 30.4535 45.7954 30.156 44.4521 29.6223C44.3254 29.5765 44.2002 29.346 44.0872 29.5002C43.9743 29.6544 44.1849 29.7337 44.3178 29.7963C45.4215 30.4879 46.6748 30.668 48.0059 30.8649C47.6288 31.2527 47.8945 31.4297 48.1876 31.6786C49.0027 32.3716 49.9385 32.3533 50.9064 32.2495C51.204 32.4739 51.5475 32.6204 51.8559 32.8387C52.7214 33.4494 53.6312 34.0233 54.6998 34.2325C55.225 34.3348 55.7913 34.5149 56.3058 33.8737C55.1746 33.7913 54.2434 33.3776 53.332 32.8845C52.5581 32.4586 51.7521 32.0984 50.9613 31.7122ZM21.6164 25.4044C21.9385 25.4624 22.2591 25.522 22.5812 25.5769C25.9014 26.1601 29.2095 26.8776 32.6183 26.5539C33.7691 26.4514 34.9042 26.2162 36.0011 25.8532C34.3505 25.767 32.6965 25.767 31.0459 25.8532C29.672 25.9387 28.3165 25.7739 26.9578 25.5571C25.4084 25.3098 23.9047 24.8228 22.3339 24.69C22.108 24.4992 21.8256 24.5465 21.5615 24.5099V24.5389C21.3447 24.3358 21.0638 24.4015 20.8073 24.3587V24.3786C19.3877 24.0107 17.9649 23.6581 16.5528 23.2703C15.1408 22.8826 13.7791 23.7283 12.3579 23.2703C12.3579 23.3497 12.3579 23.423 12.3655 23.5085L19.9372 25.1266L20.2425 25.1495C20.6577 25.5006 21.189 25.1816 21.6164 25.4044ZM66.1337 19.486C64.9613 19.1166 63.9431 19.1013 62.9279 19.4188C58.7192 20.7378 54.6174 22.3758 50.3827 23.6382C48.4364 24.2168 46.4259 24.2229 44.4582 24.5786C44.2811 24.6106 43.9911 24.6503 43.9697 24.3694C43.9544 24.1649 44.1911 24.1343 44.3712 24.1038C46.9999 23.655 49.5462 22.8643 52.123 22.2002C52.5199 22.0995 53.2145 22.0979 53.1 21.6079C53.013 21.2354 52.355 21.5209 51.9673 21.6232C50.1034 22.1086 48.2502 22.6368 46.3817 23.11C45.3757 23.365 44.3483 23.5329 43.3286 23.7542C42.5195 23.9313 43.0232 24.5374 42.9927 24.9373C42.9607 25.3876 43.3408 25.2426 43.6033 25.2182C44.5193 25.151 45.4276 25.0762 46.3404 25.035C47.7815 24.9709 49.1615 24.7938 50.5644 24.2946C54.622 22.852 58.7177 21.5056 62.8913 20.4202C63.937 20.1455 64.9613 19.8218 66.1337 19.486ZM13.7226 19.6035C13.8112 19.628 13.8982 19.657 13.9867 19.6799C18.4015 20.7652 22.7506 22.0689 27.0479 23.5512C28.7164 24.1282 30.3452 24.8686 32.1527 24.9846C33.3739 25.0625 34.5799 25.1984 35.795 25.3083C36.2835 25.3525 36.7461 25.4334 36.856 24.7053C36.9552 24.0519 36.7125 23.7817 36.1095 23.6611C34.3937 23.3192 32.6595 23.0597 30.9742 22.5666C29.7529 22.2109 28.5317 21.8995 27.3105 21.5682C27.0799 21.5056 26.7929 21.4583 26.7273 21.7346C26.6617 22.0109 26.9227 22.0766 27.1685 22.1178C27.5425 22.1819 27.9073 22.2979 28.2813 22.3697C30.7009 22.8353 33.0136 23.7527 35.4561 24.116C35.6561 24.1466 35.9141 24.174 35.882 24.4427C35.85 24.7114 35.5981 24.687 35.3951 24.6885C35.2684 24.6885 35.1417 24.6686 35.0165 24.6564C31.7665 24.3359 28.6645 23.3863 25.5671 22.4231C22.6255 21.501 19.7846 20.2798 16.823 19.4158C15.7545 19.1059 14.7469 19.2433 13.7226 19.6035ZM16.1407 29.1338C17.0444 29.7917 18.0397 29.7826 19.0289 29.7841C22.3079 29.7841 25.5854 29.7841 28.8645 29.8452C30.8468 29.8669 32.8235 29.6303 34.7448 29.1414C35.218 29.0239 35.9355 28.7079 36.1187 29.1109C36.3858 29.6834 35.7095 30.0818 35.2394 30.3505C33.2961 31.4587 31.2627 32.393 29.2461 33.3593C29.069 33.4448 28.8294 33.4478 28.8645 33.7379C28.8996 34.0279 29.1515 33.973 29.3362 33.9791C30.1666 34.0035 30.7559 33.5028 31.4444 33.1273C32.89 32.338 34.2761 31.4175 35.7889 30.7764C36.7415 30.3718 37.0193 29.8009 36.9659 28.859C36.9125 27.9171 36.943 27.879 35.9706 28.1553C33.6268 28.8392 31.1944 29.1715 28.753 29.1414C24.784 29.0712 20.815 29.2208 16.8597 29.033C16.646 29.0239 16.4139 28.9582 16.1407 29.1338ZM37.9505 28.8773C37.9505 29.0544 37.9505 29.233 37.9505 29.4101C37.9627 30.5001 38.5886 31.1855 39.6419 31.2588C40.9456 31.3488 41.6646 30.8451 41.8447 29.7032C41.9653 28.9399 41.8081 28.1889 41.7364 27.4332C41.7058 27.102 41.5349 27.0241 41.2158 27.1279C40.651 27.3019 40.0694 27.3019 39.4771 27.3019C39.0115 27.3019 38.4283 26.8272 38.1306 27.2485C37.8772 27.6073 37.9963 28.227 37.9505 28.7323C37.9505 28.7751 37.9505 28.8285 37.9505 28.8773ZM41.4921 43.1552C41.4921 43.0025 41.4921 42.8499 41.4921 42.6972C41.4494 41.2592 41.3715 41.1814 39.9793 41.1707C39.8033 41.193 39.6248 41.1857 39.4511 41.1493C38.7428 40.8898 38.642 41.3432 38.5596 41.8591C38.3703 43.0346 38.61 44.1703 38.8054 45.3229C38.9458 46.1442 39.2359 46.4678 40.1243 46.4083C40.7823 46.3655 41.0601 46.1793 41.1578 45.5519C41.286 44.7581 41.5013 43.9719 41.4982 43.1552H41.4921ZM27.9058 31.3397C27.0067 30.5611 26.0037 30.3657 24.9 30.439C23.4071 30.5367 21.911 30.8008 20.415 30.6054C18.255 30.3245 16.1086 30.7733 13.9531 30.6481C13.7623 30.6359 13.4952 30.6283 13.4952 30.9138C13.4952 31.1992 13.7913 31.1519 13.976 31.1504C16.9452 31.1198 19.9128 31.4252 22.8819 31.1824C23.8437 31.1046 24.8069 31.0542 25.7686 30.9855C26.0923 30.9626 26.3716 31.1015 26.4174 31.3885C26.4739 31.7442 26.1121 31.7274 25.8755 31.7579C24.7458 31.9106 23.6086 32.0236 22.482 32.193C21.5294 32.3365 20.5234 32.2449 19.6685 32.8632C22.5079 32.9166 25.3519 33.0799 27.9134 31.3397H27.9058ZM60.345 31.2191V31.1183C62.3021 31.1183 64.2596 31.1183 66.2177 31.1183C66.4314 31.1183 66.7581 31.1946 66.784 30.8924C66.813 30.5565 66.4573 30.6237 66.2635 30.6161C65.4758 30.5886 64.6804 30.6649 63.9004 30.584C60.6183 30.2421 57.3484 30.8573 54.0709 30.671C53.8925 30.673 53.7157 30.7039 53.5473 30.7626C53.0756 30.8985 52.3505 30.897 52.2909 31.3824C52.2497 31.7213 52.9306 32.0236 53.3824 32.2052C55.2616 32.9593 57.2522 32.9685 59.2291 33.0616C59.4123 33.0708 59.6978 33.0754 59.7008 32.8097C59.7008 32.5044 59.426 32.5044 59.194 32.4769C57.6766 32.3243 56.1562 32.1945 54.6433 32.0083C54.277 31.9625 53.6435 31.9564 53.6816 31.4923C53.7106 31.1443 54.3319 31.2343 54.6983 31.2313C56.5882 31.2114 58.4704 31.2191 60.3526 31.2191H60.345ZM10.8787 20.4157C11.6511 21.4293 26.9074 24.8686 27.8646 24.7205C22.2881 22.9467 16.6765 21.3194 10.8787 20.4157ZM51.8681 24.6076C51.8849 24.6961 51.9032 24.7831 51.92 24.8717C52.2451 24.8396 52.5718 24.8198 52.8954 24.7724C54.854 24.4931 56.6614 23.6428 58.6215 23.3131C61.8969 22.7665 65.1229 21.9563 68.2678 20.8904C68.5518 20.7943 68.9563 20.7988 69.1837 20.1562C63.1844 21.2507 57.5255 22.9238 51.8681 24.6076ZM39.8633 23.1803V23.194C39.3565 23.194 38.8497 23.194 38.3367 23.194C38.2808 23.1858 38.2238 23.1887 38.1689 23.2027C38.1141 23.2166 38.0626 23.2412 38.0174 23.2751C37.9721 23.309 37.934 23.3516 37.9052 23.4002C37.8765 23.4489 37.8576 23.5028 37.8498 23.5588C37.3719 25.3785 38.3489 26.5661 40.2251 26.4318C41.6173 26.3326 41.9974 25.7708 41.9165 23.8947C41.8615 22.5941 40.8479 23.4153 40.3106 23.1894C40.1869 23.136 40.0159 23.1803 39.8633 23.1803ZM38.697 52.2855H38.7138C38.7138 52.6656 38.6909 53.0488 38.7138 53.4228C38.7657 54.1265 39.1427 54.4135 40.0373 54.4364C40.6922 54.4532 41.3272 54.2944 41.4112 53.5495C41.5438 52.5683 41.4684 51.5702 41.1899 50.62C41.1212 50.3971 41.0555 50.2292 40.7563 50.1895C38.9245 49.9453 38.7062 50.1208 38.6848 51.9817L38.697 52.2855ZM39.8282 20.7271C41.0494 20.7347 41.7593 20.1363 41.7761 19.0967C41.7928 18.1487 40.9548 17.4053 39.848 17.387C38.7413 17.3687 37.8849 18.0877 37.8925 19.0555C37.9017 20.0768 38.6466 20.721 39.8282 20.7286V20.7271ZM39.8175 37.51C41.1166 37.5024 41.8661 36.4613 41.4799 35.2202C41.3883 34.9255 41.1822 34.8889 40.9517 34.9149C40.1472 35.0049 39.1199 34.5225 38.5825 35.1591C37.894 35.9682 38.8054 37.5176 39.8175 37.5115V37.51ZM40.1014 69.7202C40.6281 68.957 40.9334 67.925 41.1028 66.4381C41.2555 65.0643 40.9395 64.7757 39.5763 64.994C39.3794 65.0261 39.2221 65.0658 39.216 65.2902C39.1718 66.8121 39.3488 68.2944 40.1014 69.7141V69.7202ZM39.8266 32.0984C39.4243 32.0929 39.0226 32.0633 38.6237 32.0098C38.3642 31.9564 38.3184 32.051 38.294 32.2648C38.152 33.1899 38.6268 33.9592 39.3962 34.031C41.0754 34.1836 41.5791 33.8508 41.6234 32.5701C41.6417 32.0877 41.6097 31.7793 40.967 31.9808C40.5457 32.1075 40.0648 32.0709 39.8266 32.0923V32.0984ZM29.7224 31.3351C28.8995 31.6001 28.1097 31.9587 27.3685 32.4037C27.2158 32.4892 26.8906 32.4663 26.9929 32.7701C27.0723 33.0021 27.3578 32.999 27.5196 32.9364C28.4783 32.5609 29.5194 32.3945 30.4017 31.8358C30.9299 31.5015 30.9085 31.2252 30.3407 30.9015C29.5285 30.4436 28.6538 30.3963 27.6081 30.5474C28.3439 31.0084 29.0538 31.074 29.7224 31.3336V31.3351ZM41.1807 48.1592C41.1807 47.3837 41.0418 47.2753 40.0602 47.2799C39.0298 47.2799 38.897 47.3898 38.9046 48.2096C38.9046 48.9729 39.1733 49.2156 39.9854 49.2247C40.9013 49.2354 41.1822 48.979 41.1807 48.1577V48.1592ZM40.0694 38.2931C39.1031 38.2931 38.8603 38.4809 38.8726 39.2365C38.8832 39.9372 39.187 40.1906 40.0266 40.1998C40.8662 40.2089 41.1731 39.9525 41.1685 39.2472C41.1563 38.4671 40.9685 38.2931 40.0694 38.2931ZM40.2525 62.4126C39.2588 62.4126 39.0176 62.5485 39.0389 63.1164C39.0649 63.7743 39.4496 64.0522 40.0816 64.0552C40.8189 64.0552 41.1715 63.7133 41.1746 63.011C41.1776 62.2432 40.6021 62.4706 40.2525 62.4126ZM40.1442 60.0129C39.7167 60.1488 39.0832 59.8419 39.0115 60.6006C38.9611 61.1212 39.3977 61.4372 40.1213 61.4402C40.8097 61.4402 41.2036 61.1227 41.1731 60.5457C41.1334 59.7641 40.4831 60.1915 40.1442 60.0068V60.0129ZM40.1808 57.6345C39.7549 57.804 39.0145 57.343 38.9687 58.2451C38.9397 58.8069 39.3534 59.0557 40.19 59.0451C40.7746 59.0451 41.1715 58.8634 41.1792 58.1841C41.1822 57.3521 40.5456 57.7597 40.1808 57.6284V57.6345ZM40.2144 55.3768C39.9579 55.3768 39.7564 55.363 39.5564 55.3768C39.0741 55.4164 38.7932 55.8683 39.0359 56.2774C39.3839 56.8499 39.9854 56.5675 40.4831 56.6056C40.8708 56.6346 41.0845 56.3965 41.1425 56.024C41.2876 55.0943 40.5716 55.4577 40.2144 55.3706V55.3768ZM39.935 21.53V21.501C39.5809 21.501 39.2267 21.501 38.8741 21.501C38.6191 21.501 38.4253 21.6079 38.4024 21.8873C38.3795 22.1666 38.5733 22.22 38.7794 22.2781C39.5045 22.4796 40.2266 22.4307 40.9517 22.2781C41.1715 22.2323 41.3517 22.1712 41.3211 21.9041C41.3198 21.8531 41.3082 21.803 41.2872 21.7566C41.2662 21.7102 41.236 21.6685 41.1986 21.6339C41.1612 21.5993 41.1172 21.5726 41.0693 21.5553C41.0214 21.538 40.9705 21.5304 40.9197 21.5331C40.5945 21.5255 40.2663 21.53 39.935 21.53ZM67.7503 22.0262L67.7641 22.2704C68.8326 22.5666 69.8844 22.362 70.9378 22.1178C70.9758 22.1133 71.0124 22.1 71.0444 22.0789C71.0764 22.0578 71.1031 22.0295 71.1222 21.9963C71.1413 21.9631 71.1524 21.9258 71.1546 21.8876C71.1568 21.8493 71.1499 21.811 71.1347 21.7758C71.128 21.7451 71.1153 21.716 71.0973 21.6902C71.0793 21.6644 71.0564 21.6424 71.0298 21.6255C71.0033 21.6086 70.9736 21.5971 70.9426 21.5917C70.9117 21.5864 70.8799 21.5872 70.8492 21.5942L67.7503 22.0262ZM11.8236 22.2796V22.0827C10.8405 21.8995 9.85739 21.7102 8.87277 21.5392C8.79511 21.5348 8.71803 21.555 8.65252 21.5969C8.58701 21.6388 8.5364 21.7004 8.50792 21.7728C8.49117 21.8008 8.48137 21.8324 8.47934 21.865C8.47731 21.8976 8.48312 21.9302 8.49627 21.9601C8.50942 21.99 8.52954 22.0163 8.55493 22.0368C8.58033 22.0574 8.61028 22.0715 8.64226 22.0781C9.69558 22.3697 10.7489 22.5986 11.8236 22.2796ZM15.6049 29.8085C14.9072 29.4452 14.1943 29.1979 13.4112 29.3506C13.2692 29.3765 13.0662 29.3918 13.0464 29.5658C13.0204 29.804 13.2631 29.8406 13.4173 29.8574C14.1451 29.9457 14.8818 29.9292 15.6049 29.8085ZM64.3018 29.7276C65.1262 29.9933 65.862 29.7856 66.5917 29.7276C66.623 29.7261 66.6537 29.7174 66.6813 29.7024C66.7089 29.6874 66.7327 29.6663 66.751 29.6408C66.7694 29.6153 66.7817 29.5859 66.7872 29.555C66.7926 29.524 66.791 29.4923 66.7825 29.462C66.7489 29.3094 66.6161 29.2819 66.4894 29.2773C65.7551 29.2452 65.0315 29.2468 64.2942 29.7276H64.3018ZM7.38285 21.1255C7.06839 21.1835 6.61958 21.1026 6.56615 21.5117C6.51272 21.9208 6.9371 21.8506 7.19356 21.843C7.56451 21.8308 8.09881 21.8567 8.13544 21.4186C8.16598 21.0431 7.64542 21.2385 7.38285 21.1255ZM62.6165 32.4357C61.8227 32.0907 61.1617 32.2831 60.3511 32.4968C61.2243 32.9258 61.8838 32.8998 62.6165 32.4357ZM11.2252 31.303C11.645 31.2664 12.2938 31.271 12.2709 30.8451C12.2449 30.4512 11.5992 30.6924 11.2237 30.6649C11.1986 30.6629 11.1734 30.6671 11.1504 30.6771C10.9214 30.784 10.5016 30.7489 10.5672 31.1076C10.6252 31.3992 10.9931 31.2542 11.2252 31.303ZM22.6606 33.9852C21.7767 33.6799 21.0409 33.8692 20.6501 34.4431C21.3722 34.5973 21.9309 34.2493 22.6606 33.9852ZM72.2933 21.1621C72.075 21.2873 71.5301 21.0385 71.5301 21.4675C71.5301 21.8964 72.0598 21.7972 72.3926 21.8262C72.5453 21.8363 72.6987 21.8317 72.8505 21.8125C72.9272 21.8127 73.0012 21.7842 73.0577 21.7324C73.1143 21.6806 73.1493 21.6095 73.1558 21.5331C73.1711 21.3545 73.0383 21.2583 72.8841 21.2278C72.7299 21.1973 72.5345 21.1774 72.2979 21.1545L72.2933 21.1621ZM18.9327 32.4769C18.3572 32.3044 17.7832 32.0907 17.1009 32.4968C17.7909 32.8647 18.3618 32.8937 18.9327 32.4769ZM56.663 34.0417C57.1698 34.3668 57.6659 34.7256 58.4704 34.6523C57.8552 34.0737 57.3087 33.8951 56.663 34.0417ZM24.7168 33.7043C24.6481 33.3059 24.3108 33.399 24.0711 33.4219C23.8314 33.4448 23.3811 33.257 23.3964 33.5974C23.4086 33.9027 23.8208 34.1348 24.1902 34.1668C24.4787 34.1913 24.6436 33.9959 24.7168 33.7043ZM67.9472 30.7489C68.1146 30.9223 68.3167 31.0585 68.5403 31.1484C68.7639 31.2384 69.004 31.2801 69.2448 31.271C69.3206 31.2821 69.3978 31.2653 69.4621 31.2237C69.5264 31.1821 69.5734 31.1187 69.5944 31.045C69.6234 30.871 69.4555 30.7977 69.3135 30.7397C68.8725 30.5742 68.3859 30.5775 67.9472 30.7489Z" fill="#AF3830"/>
</svg>
