<svg width="80" height="80" viewBox="0 0 80 80" fill="none" xmlns="http://www.w3.org/2000/svg">
<path d="M18.5419 79.0159C19.0658 78.8684 19.5838 78.8772 20.1003 78.8684C25.3849 78.6986 30.6709 78.6662 35.957 78.6544C37.8283 78.6544 38.3743 78.2426 38.8096 76.395C39.36 74.1713 39.5198 71.8689 39.2818 69.5904C39.1343 68.277 38.7683 67.8195 37.5021 67.486C35.5733 66.9843 33.5914 66.7733 31.6331 66.4397C27.6029 65.7535 23.645 64.8696 20.1224 62.6146C17.3894 60.8629 15.2245 58.5357 13.2234 56.0285C12.4855 55.1061 11.7742 54.1676 11.0481 53.2378C10.5997 52.6272 10.0436 52.1036 9.40712 51.6928C8.37411 51.0611 7.7115 50.0916 7.24665 48.9951C6.4955 47.2169 5.94948 45.3589 4.76742 43.7666C4.10039 42.8679 4.69806 41.888 5.82699 41.7935C6.64455 41.7257 7.4503 41.8762 8.25015 41.978C12.183 42.4768 15.924 41.7965 19.5424 40.2573C22.1574 39.1461 24.7149 37.8961 27.4332 37.0284C28.7746 36.6019 30.1426 36.3274 31.5549 36.3555C32.0508 36.3658 32.4595 36.1577 32.8831 35.9659C35.3918 34.8163 37.964 33.8999 40.7118 33.5029C43.6412 33.0793 46.4864 33.3951 49.2814 34.3175C50.797 34.8163 52.3244 35.2723 53.9049 35.5143C54.3656 35.5875 54.8314 35.6241 55.298 35.6235C56.8726 35.6117 57.6163 34.9373 57.8687 33.3686C58.121 31.7999 58.0694 30.2268 57.9986 28.6581C57.8657 25.7597 57.5234 22.8909 56.6955 20.0988C56.1391 18.2128 54.9881 16.9363 53.1345 16.284C51.1467 15.5845 49.1501 14.9278 47.3187 13.8343C46.4332 13.3075 45.4002 13.3916 44.4336 13.5303C42.2348 13.852 40.0227 13.8491 37.812 13.8993C37.1376 13.914 36.5916 13.669 36.3938 12.974C36.1961 12.2789 36.5768 11.8347 37.1317 11.5263C37.5401 11.3044 37.9654 11.1154 38.4038 10.9611C40.205 10.2939 41.8548 9.27331 43.256 7.95944C44.138 7.148 44.8108 6.13544 45.2172 5.00798C46.1883 2.41069 48.3 1.01022 50.8767 0.340238C54.8464 -0.692774 58.1697 0.718026 61.0843 3.3345C64.2129 6.13839 65.9778 9.7982 67.3075 13.6956C68.8422 18.1951 69.6303 22.8643 70.4065 27.535C70.9481 30.8038 71.4927 34.0725 72.2482 37.2985C72.6629 39.0693 73.6384 40.6425 74.1947 42.3735C75.4506 46.2812 76.0645 50.2672 74.8691 54.2531C73.0555 60.2948 68.7817 63.993 62.926 65.9837C61.0076 66.639 58.9637 66.6685 56.9833 67.0168C55.2124 67.3267 53.471 67.7428 51.9008 68.6563C49.3478 70.132 48.5288 71.6756 48.7664 74.9163C48.8903 76.6267 50.3159 77.8265 52.0248 77.794C53.074 77.7734 54.0908 77.7483 54.9187 78.554C55.1283 78.7577 55.4382 78.6499 55.7023 78.6514C59.8816 78.6824 64.0609 78.7341 68.2387 78.9244C68.451 78.9349 68.6617 78.9675 68.8673 79.0218C52.0897 80.3825 35.3225 80.2703 18.5419 79.0159ZM72.0903 55.6138L72.2231 55.2566C72.8653 53.9581 73.2468 52.5462 73.3462 51.101C73.5897 47.4589 72.9403 43.9614 71.5236 40.6115C70.7666 38.8185 70.1542 36.9959 69.8679 35.0642C69.797 34.5875 69.9358 33.9176 69.13 33.8541C69.068 33.8541 68.9824 33.6549 68.9751 33.5413C68.8703 32.7709 68.7139 32.0006 68.8275 31.1373C69.099 31.58 69.0134 32.1024 69.4473 32.5732C69.2761 31.307 69.2259 30.1899 68.9101 28.9886C68.0439 30.0851 67.6233 31.1417 68.1162 32.402C68.277 32.8122 68.4556 33.2151 68.6342 33.618C68.8673 34.1433 68.2785 35.318 67.7192 35.3047C66.7408 35.2826 66.3689 35.8655 66.0959 36.6595C66.0162 36.8882 66.0516 37.2158 65.7152 37.3545C65.6325 37.045 65.5695 36.7305 65.5263 36.413C65.4953 36.0352 65.4761 35.7062 64.9552 35.9083C64.6925 36.0087 64.5921 35.8552 64.5597 35.6368C64.4594 34.9576 64.4534 34.2678 64.542 33.587C64.8223 34.1507 64.9389 34.7676 65.3802 35.2944C65.6192 34.7307 65.4702 34.1625 65.6488 33.5427C65.8347 34.102 65.9837 34.5403 66.1284 34.9816C66.214 35.2428 66.394 35.4449 66.6596 35.3712C67.0005 35.2782 66.7718 35.0022 66.7334 34.8207C66.5394 33.9705 66.5084 33.0911 66.6419 32.2293C66.9872 32.9938 67.0374 33.7656 67.7709 34.2732C67.7709 33.3051 67.7797 32.4477 67.7709 31.5918C67.7709 31.3144 67.9376 30.9454 67.6336 30.7802C67.2735 30.5839 67.0005 30.882 66.7334 31.1048C66.6065 31.2111 66.5327 31.49 66.2715 31.2893C65.3566 30.5898 65.0703 28.5931 65.755 27.5335C65.9601 28.2286 66.0088 28.9665 66.5534 29.6984C66.5785 28.7053 66.6154 27.8803 66.4707 27.0584C66.4427 26.899 66.4855 26.7012 66.2582 26.6378C66.031 26.5743 65.8908 26.6761 65.7816 26.8724C65.5602 27.2738 65.3713 27.0554 65.3005 26.7957C65.0127 25.7509 64.7559 24.6972 64.8578 23.4325C65.1367 24.1777 65.3448 24.7739 65.5823 25.3509C65.7388 25.7376 65.9055 26.2452 66.3069 26.319C66.8559 26.4179 66.7113 26.7337 66.7216 27.0451C66.7556 28.0855 67.0168 29.0432 67.7251 29.849C67.6661 28.9857 67.4683 28.1386 67.6543 27.1218C67.886 27.8302 67.9598 28.4618 68.5176 28.9429C68.5607 27.6198 68.4477 26.2963 68.1811 24.9997C67.9834 25.5295 67.8756 25.59 67.6115 25.1916C67.3016 24.7149 66.9754 24.2825 66.9297 23.6863C66.8146 22.1914 66.4176 20.7511 66.0443 19.3063C65.817 18.4209 65.8303 18.4209 65.9808 17.8601C66.5017 19.8007 66.9371 21.6734 67.7118 23.4384C67.7581 23.242 67.7651 23.0384 67.7325 22.8392C67.0374 18.8474 66.1785 14.8983 64.5051 11.181C63.1075 8.08193 61.3367 5.23524 58.5033 3.22087C56.3251 1.67282 53.9152 1.02055 51.2574 1.6684C49.4747 2.10226 48.089 3.13527 47.0486 4.63462C46.6974 5.14079 46.783 5.61893 47.18 5.79012C48.3502 6.29924 49.3404 5.99377 50.2096 5.14374C51.1187 4.25831 52.0558 4.02957 53.1906 4.53722C54.0375 4.92737 54.9489 5.15848 55.8794 5.21901C57.1972 5.2987 58.2716 6.13396 58.5726 7.21124C56.449 5.90522 55.875 5.88309 53.6791 7.11827C53.0129 7.49385 52.2502 7.66333 51.4876 7.60527C51.1556 7.58313 50.8236 7.5669 50.493 7.54771L50.4251 7.69529L51.0361 8.10554C50.9962 8.50989 50.2554 8.21327 50.6612 8.56744C51.0021 8.86259 50.4443 8.9777 50.7202 9.17249C50.8973 9.29793 51.7533 9.5857 50.766 9.86756C50.8008 9.98129 50.8504 10.0899 50.9136 10.1907C51.1942 10.5342 51.5502 10.8084 51.954 10.9921C52.3332 11.178 52.7184 11.3581 53.1006 11.5396C51.4611 11.8067 50.0975 11.3581 49.0409 10.0284C49.2386 10.8356 49.3847 11.5366 48.6808 12.1254C48.4063 12.3527 48.7634 12.4471 48.8815 12.5416C49.7144 13.1822 50.6704 13.6443 51.6898 13.8993C52.956 14.2431 54.262 14.2859 55.5606 14.342C56.7132 14.3922 57.7078 14.7404 58.2967 15.7764C58.8855 16.8124 59.1718 17.9516 59.4772 19.0879C59.5156 19.2355 59.5879 19.4642 59.3828 19.5454C59.1777 19.6266 59.129 19.3683 59.0021 19.2724L58.2981 18.0343C58.3542 18.6703 58.4575 19.0953 58.8884 19.3624C59.3621 19.6384 59.5156 20.0191 59.4861 20.5888C59.4492 21.2779 59.585 21.9715 60.3464 22.5293C60.1871 21.8653 60.041 21.3488 59.945 20.8308C59.8595 20.3585 59.3548 19.7978 60.1472 19.4244C60.4424 20.2242 60.5088 21.03 60.5899 21.8298C60.7228 23.0754 61.3647 24.1807 61.5447 25.41L61.558 25.3982C60.8762 25.3657 60.6859 24.861 60.525 24.3283C60.3966 23.9047 60.3892 23.4428 60.0543 22.9116C60.0188 23.9697 60.2992 24.7488 60.8585 25.438C61.0061 25.624 61.2053 25.7789 61.1094 26.0785C60.8821 26.7942 61.0415 27.4863 61.3057 28.1578C61.3958 28.358 61.4424 28.575 61.4424 28.7946C61.4424 29.0141 61.3958 29.2311 61.3057 29.4313C60.6896 28.55 60.3839 27.489 60.4365 26.4149C60.309 26.8428 60.2678 27.2917 60.3155 27.7356C60.3631 28.1794 60.4985 28.6094 60.7139 29.0004C60.8408 29.2424 61.0533 29.4343 60.919 29.7914C60.7643 30.2061 60.696 30.6481 60.7183 31.0902C60.7406 31.5323 60.8531 31.9651 61.0489 32.3621C61.2525 32.7578 61.3205 33.2094 61.2422 33.6475C61.0946 34.3662 61.2511 35.0568 61.3898 35.7549C61.405 35.8884 61.4622 36.0136 61.5532 36.1126C61.6441 36.2115 61.7642 36.279 61.896 36.3053C61.9107 35.4671 61.8119 34.6451 62.104 33.7715C62.47 34.471 62.5143 35.2074 62.9895 35.8301C63.3215 34.9727 63.1297 34.0592 63.5931 33.1531C63.7406 34.195 63.8705 35.1144 64.2645 35.957C64.4446 36.3437 64.4121 36.686 64.0919 36.9531C63.7716 37.2203 63.4484 37.083 63.174 36.8262C62.7312 36.413 62.4228 36.5857 62.1675 37.0402C62.0707 37.181 61.9849 37.329 61.9107 37.4829C61.6967 38.0732 61.3426 38.3433 60.6859 38.1677C60.3273 38.0718 59.948 38.1677 59.6012 38.299C59.2116 38.4466 58.7069 38.5942 58.6523 39.0192C58.5889 39.4988 59.1806 39.4929 59.4802 39.7054C59.5131 39.7346 59.5428 39.7673 59.5687 39.8028C59.4212 40.0979 59.188 40.1437 58.8855 40.064C58.7054 40.0182 58.4634 39.9164 58.3276 40.0876C57.8849 40.6779 57.1471 40.6085 56.576 40.8933C56.3413 41.0099 55.8897 40.9361 55.9783 41.3597C56.0594 41.7522 56.483 41.7316 56.7752 41.6902C57.5175 41.6067 58.2308 41.3543 58.8604 40.9524C58.9297 41.2342 58.8191 41.4335 58.7335 41.6327C58.6479 41.8319 58.5313 42.0208 58.7335 42.1595C58.9061 42.2791 59.036 42.0651 59.1644 41.9662C59.2555 41.8851 59.3399 41.7968 59.4167 41.702C59.4453 41.7321 59.4753 41.7606 59.5068 41.7876C59.5068 42.2407 59.25 42.5654 58.9401 42.8516C58.3498 43.3918 58.0723 43.3829 57.4747 42.8428C57.3847 42.7616 57.271 42.6613 57.153 42.7424C57.0349 42.8236 57.088 42.9505 57.0954 43.076C57.1456 43.8714 56.8003 44.1591 56.0432 43.9747C55.6492 43.8788 55.2921 43.6972 55.1224 43.3076C55.0616 43.1359 54.9494 42.987 54.801 42.8814C54.6526 42.7758 54.4752 42.7185 54.293 42.7174C53.9975 42.704 53.7102 42.6161 53.4577 42.462C52.8669 42.06 52.2253 41.7384 51.5496 41.5058C50.5845 41.1398 49.9691 41.6091 49.1958 41.7301C49.8746 42.1728 50.6966 42.2038 51.3651 42.5565C52.2024 43.0261 53.1637 43.227 54.1189 43.132C54.2664 43.1158 54.414 43.0981 54.4907 43.2796C54.842 44.1149 55.4751 44.5664 56.4299 44.5591C56.148 45.1346 55.7599 45.2763 55.2803 45.1656C54.746 45.0416 54.4642 44.6329 54.3033 44.1547C54.172 43.7666 53.9698 43.653 53.5522 43.6692C52.587 43.7061 51.5614 43.8787 50.8575 42.9151C50.794 42.828 50.5771 42.8679 50.4428 42.8162C50.0562 42.6687 49.671 42.5093 49.2932 42.3396C48.7767 42.1079 48.9774 41.6017 48.9538 41.1693C48.2159 41.3582 47.6168 41.612 47.1711 42.1344C47.8204 42.9402 48.9036 42.7144 49.5588 43.1571C49.6149 43.5998 48.5568 43.5423 49.3242 44.0189C49.7402 44.3013 50.2355 44.4435 50.738 44.4248C51.4758 44.3776 52.3421 44.3451 52.6756 45.3368C52.7523 45.5655 53.0327 45.657 53.257 45.7618C53.8754 46.0569 54.5291 46.1086 55.1991 46.0953C55.4352 46.0953 55.7333 46.0023 55.8499 46.2945C56.0358 46.7623 56.4048 47.0471 56.8578 47.3143C56.2852 47.515 55.8647 47.3585 55.6433 46.9335C55.4219 46.5085 55.1755 46.4997 54.7579 46.5838C53.4135 46.8538 52.5752 46.4657 52.0425 45.2851C51.8507 44.8586 51.7237 44.8557 51.3769 45.0874C50.3572 45.7662 49.3316 45.8562 48.3443 45.0062C48.2917 44.9545 48.2271 44.9168 48.1562 44.8964C48.0853 44.8761 48.0105 44.8737 47.9385 44.8896C47.1062 45.0815 46.2606 45.2468 45.5463 45.7618C45.1907 46.0171 45.1759 46.2311 45.6231 46.4244C46.6616 46.8804 47.7998 47.0623 48.9287 46.9527C49.3213 46.9173 49.5367 46.876 49.3316 46.417C49.2622 46.2591 49.1958 46.0082 49.4792 45.9285C49.6385 45.8843 49.8481 45.8356 49.9529 46.0112C50.4664 46.8656 51.3902 46.8833 52.1945 47.087C53.4194 47.3969 54.8095 47.1932 55.72 48.3487C55.2994 48.8416 54.7711 49.1353 54.2177 48.5052C53.7484 47.971 53.2128 47.9149 52.5708 47.9813C51.5289 48.0816 50.4959 48.0713 49.6976 47.2169C49.6297 47.1501 49.5433 47.1054 49.4496 47.0885C49.0881 47.0176 47.6788 47.5091 47.7083 47.7098C47.8013 48.4196 48.3915 48.6675 48.9627 48.7531C50.3732 48.9793 51.7532 49.3665 53.0755 49.9071C53.1198 49.9248 53.1744 49.9071 53.2231 49.9278C54.1484 50.2082 55.084 49.975 56.1111 49.9278C55.2094 50.4974 53.3736 51.1541 52.4055 50.9726C50.9111 50.6912 49.4444 50.2784 48.0226 49.7389C47.4707 49.5293 47.0427 49.395 46.5321 49.6533C46.179 49.821 45.8408 50.0185 45.5212 50.2436C44.84 50.7756 44.0064 51.0755 43.1424 51.0995C42.5286 51.1061 41.9292 51.2857 41.4128 51.6175C41.0634 51.8518 40.6552 51.9829 40.2347 51.996C39.8143 52.009 39.3986 51.9034 39.0354 51.6913C38.7137 51.5127 38.4982 51.5717 38.2341 51.7237C37.6438 52.0646 37.0682 52.4528 36.444 52.7228C35.4686 53.1434 34.5005 52.6638 34.1861 51.6441C33.7892 51.8374 33.3907 52.0189 33.0056 52.2225C31.521 53.0106 30.6621 52.7745 29.7589 51.3238C29.7088 50.8811 29.0388 50.6524 29.3354 50.068C29.3944 49.9529 29.1627 49.8496 29.0314 49.7979C28.3098 49.519 27.6531 49.0851 26.8178 49.0719C25.9398 49.0571 25.1576 48.6823 24.4566 48.1525C24.2161 47.971 23.9918 47.8455 23.6538 47.9045C22.7876 48.0521 21.9184 47.8898 21.1274 47.5902C20.1136 47.2065 19.2812 46.4569 18.9713 45.4135C18.809 44.8704 18.629 44.7922 18.1863 44.8306C18.0151 44.8454 17.8395 44.8099 17.6712 44.8306C17.4026 44.8764 16.9511 44.6579 16.8994 44.9782C16.8315 45.3973 17.2669 45.5463 17.6373 45.6245C17.723 45.6495 17.8069 45.6805 17.8882 45.7175C17.5251 46.0732 17.4735 46.386 17.8454 46.7874C18.7706 47.7821 20.1534 48.2779 21.092 47.8677C21.1613 48.148 21.1274 48.5362 21.4078 48.6513C22.2283 48.9863 22.761 49.7507 23.586 50.0547C24.1915 50.257 24.8234 50.3694 25.4616 50.3882C25.6564 50.4015 25.9043 50.3705 26.0357 50.4723C27.1159 51.2825 28.3747 51.3578 29.6483 51.4079C29.2483 51.7931 28.8661 52.1975 28.4455 52.5561C28.1356 52.8187 27.746 52.8792 27.3358 52.8424C26.682 52.7848 26.3028 51.9569 25.8335 52.0086C25.2432 52.0764 24.6529 52.4306 23.9962 52.3598C23.8493 52.345 23.7046 52.3128 23.5653 52.2639C23.1063 52.103 22.7846 51.8211 22.8628 51.2869C22.9529 50.6671 22.6489 50.6893 22.2239 50.8619C21.5937 51.1172 20.9651 51.0995 20.2847 51.0169C19.4214 50.9121 19.3654 50.3882 19.3447 49.7492C19.3314 49.3463 19.4155 49.1766 19.8302 49.4659C20.3925 49.8555 20.9901 50.1787 21.7487 50.1949C20.9237 49.4113 20.8322 49.2607 20.5681 48.2395C20.3408 48.3428 20.1254 48.4447 19.8996 48.5347C18.8164 49.0025 17.7007 48.6705 17.3657 47.5651C17.1251 46.6966 16.7378 45.8756 16.2206 45.1376C16.1825 45.0743 16.1541 45.0056 16.1365 44.9339C16.1236 44.8742 16.09 44.821 16.0417 44.7837C15.9933 44.7464 15.9333 44.7275 15.8723 44.7303C15.2584 44.7303 14.6445 44.6993 14.0321 44.7155C13.6764 44.7243 13.6144 44.9191 13.8328 45.1966C14.401 45.9153 15.3587 46.2606 15.6628 47.2626C15.7601 47.5873 16.7902 47.3482 16.4419 48.2041C16.954 48.3517 16.9038 48.8534 17.106 49.2061C17.4233 49.761 17.7642 50.3867 18.4445 50.614C18.9448 50.7778 19.2975 50.9195 19.6118 51.4876C20.115 52.3982 21.1717 53.0947 22.1486 53.0622C23.707 53.0121 24.709 53.9949 25.9516 54.5262C26.2585 54.656 26.5581 54.8021 26.9432 54.9792L26.4681 53.5035L26.6053 53.4061C27.5616 54.2561 28.5606 55.0294 29.8814 55.5001C29.5081 54.5704 28.8484 53.8768 28.8012 52.7627C29.3841 53.6068 29.8741 54.3343 30.5071 54.9467C31.1632 55.6011 31.9927 56.0543 32.8978 56.2528C31.0915 54.2782 30.7506 53.7676 30.7211 53.015C33.4793 55.8499 34.3972 56.48 35.5379 56.3029C34.4046 55.388 33.4409 54.3564 32.9687 52.9471C33.7273 53.7445 34.5257 54.503 35.3608 55.2198C35.9954 55.7392 36.599 56.3487 37.4977 56.4003C37.4977 56.4918 37.5523 56.5022 37.6261 56.4756L37.5479 56.328C36.8656 55.6876 36.2322 54.997 35.653 54.262L35.7504 54.1587C37.0343 55.0441 38.1987 56.1465 39.8633 56.3236C38.8022 55.5341 37.6615 54.8479 37.0299 53.6171L37.1524 53.4695C38.2606 54.3196 39.366 55.1696 40.6794 55.6994C41.5486 56.0506 42.2776 56.0462 43.1055 55.6994C41.3346 55.022 39.6921 54.1705 38.5691 52.5752C39.6965 53.1655 40.7517 53.8621 41.8939 54.4096C43.0745 54.9763 44.292 55.2773 45.7456 54.9276C44.1222 54.3122 42.6672 53.6879 41.5884 52.4498L41.705 52.3199C43.1911 53.1508 44.686 53.9521 46.4746 53.8355C45.3146 53.3677 44.261 52.7818 43.5467 51.678C45.6423 52.531 47.6788 53.6555 50.1285 52.7759C49.5825 52.5679 49.0955 52.407 48.6291 52.2004C47.9577 51.9053 47.7673 51.7178 47.4367 51.129C49.643 52.1148 51.8285 51.8846 54.0406 51.374C53.6656 51.8742 53.2516 52.344 52.8025 52.7789C51.3791 54.1762 49.688 55.2714 47.8308 55.9989C47.1391 56.2416 46.5694 56.7446 46.2429 57.4009C46.4819 57.4599 46.6015 57.3094 46.7417 57.2267C47.0752 57.0305 47.3851 56.7088 47.7053 57.2754C47.8721 57.5706 48.027 57.2577 48.1746 57.1795C48.8697 56.8106 49.5633 56.4417 50.3366 56.024C50.0709 56.9478 49.4437 57.3374 48.8003 57.7064C48.1849 58.0591 47.5637 58.4029 46.9438 58.7512C48.8697 58.912 50.1108 57.5071 51.7282 56.7191C51.4419 57.5721 50.7542 58.0118 50.4 58.8884C50.946 58.6361 51.3401 58.4605 51.7282 58.273C51.8344 58.2214 51.9348 58.0974 52.0233 58.273C52.0379 58.3164 52.0419 58.3626 52.035 58.4077C52.028 58.4529 52.0104 58.4958 51.9835 58.5328C51.8542 58.6762 51.7051 58.8004 51.5408 58.9017C50.62 59.4225 49.6592 59.8691 48.6675 60.2372C46.1824 61.1492 43.65 61.8945 41.1103 62.653C40.3488 62.8803 39.5888 63.1179 38.8273 63.3496C39.0887 63.4409 39.369 63.4643 39.6419 63.4174C43.253 62.9747 46.6546 61.8074 49.9912 60.4188C50.5774 60.1636 51.1205 59.8191 51.6013 59.3975C52.044 59.0212 52.4646 58.4634 53.1139 59.1024C53.2467 59.2323 53.3397 59.0301 53.4223 59.0537C53.9905 59.2219 54.2104 58.4855 54.8095 58.5224C54.657 58.8681 54.4302 59.1759 54.1453 59.4241C53.8605 59.6723 53.5244 59.8546 53.1611 59.9583C52.2343 60.2535 51.2751 60.4099 50.3779 60.8438C48.3901 61.8 46.3108 62.5497 44.2462 63.3363C47.0339 62.8832 49.7625 62.2251 52.2993 60.9456C52.8276 60.68 53.3323 60.3878 53.9226 60.2845C54.5601 60.1723 55.1253 59.8875 55.6935 59.585C57.0984 58.8309 58.6892 58.552 60.1207 57.8569C56.7265 60.4335 52.6653 61.589 48.8195 63.2108C53.4297 62.3844 57.6739 60.5678 61.7764 58.3778C61.8044 58.4135 61.8345 58.4475 61.8665 58.4796C60.1103 59.8624 58.0812 60.7523 56.0742 61.6731C55.0146 62.1586 53.9123 62.5468 52.7553 63.0013C53.3013 63.1075 53.7307 62.9201 54.1617 62.8021C57.4159 61.9033 60.5723 60.6822 63.5842 59.157L63.7126 59.2883C61.4341 60.8807 58.912 61.9712 56.3029 62.8818L54.3018 63.4838C54.9869 63.522 55.6719 63.4097 56.3088 63.1548C59.3902 62.3682 62.3593 61.2363 65.3374 60.1384C63.63 61.4931 61.6097 62.2044 59.5953 62.9747C59.8521 63.0765 60.0572 62.9747 60.2697 62.9172C62.1637 62.422 64.0022 61.7347 65.7565 60.8659C69.3159 59.0567 71.7376 56.3266 72.5596 52.3465C72.812 51.1334 72.9507 49.8953 73.1396 48.669C73.3576 50.5984 73.1132 52.552 72.4268 54.3683C72.3191 54.6486 71.9841 54.9084 72.2408 55.2699C71.8704 55.2507 72.0446 55.4647 72.0933 55.6212L71.9368 55.5267L71.9132 55.5916L72.0903 55.6138ZM57.6665 16.0096C57.5293 15.8044 57.4614 15.5432 57.1589 15.4193C57.1615 15.5616 57.1966 15.7014 57.2616 15.828C57.3265 15.9546 57.4196 16.0647 57.5337 16.1498C57.6507 16.4463 57.8715 16.6902 58.155 16.836C58.1048 16.4434 57.8451 16.2501 57.6665 16.0096ZM44.7317 9.76721C43.9865 9.51044 43.9643 9.35401 44.5251 8.38888C44.5591 8.30624 44.7671 8.27377 44.6137 8.14833C44.5635 8.10849 44.441 8.16604 44.4292 8.28263C44.3049 8.35619 44.1874 8.44064 44.078 8.53498C42.5329 10.1229 40.6366 11.0836 38.5277 11.6709C38.3161 11.7282 38.1128 11.8126 37.9227 11.9218C37.75 12.0221 37.601 12.1874 37.6969 12.4088C37.8105 12.667 38.0142 12.5563 38.1957 12.484L44.7922 9.85576L45.0062 9.68457C44.869 9.57242 44.7952 9.65801 44.7317 9.76721ZM32.0404 62.1557C32.0512 62.1116 32.0443 62.065 32.0212 62.0258C34.1448 61.8251 38.5853 60.6741 39.5918 60.007C36.1476 60.7975 32.6226 61.1814 29.089 61.1507C29.6911 60.9618 30.3079 60.8836 30.9159 60.7611C31.5239 60.6386 32.1319 60.466 32.7384 60.3184C30.1736 60.3863 27.6265 60.6327 25.0823 60.0233C26.6614 60.7331 28.0604 61.7941 29.7634 62.1852C29.8534 62.3328 29.9921 62.3165 30.1323 62.2974C31.4324 62.7548 32.7325 63.0456 34.1433 62.7725C36.0618 62.3992 37.9389 61.8768 39.8072 61.3204C40.6336 61.074 41.5013 60.9131 42.2141 60.3701L42.3794 60.2874C42.3558 60.2874 42.3307 60.2638 42.31 60.2682C42.251 60.2815 42.1403 60.2682 42.2318 60.3848C41.9367 60.2623 41.6711 60.4173 41.3936 60.4866C38.3138 61.257 35.2221 61.9875 32.0316 62.166L32.0404 62.1557ZM40.157 36.3304C40.9627 36.385 41.7242 36.1828 42.5949 35.9364C41.5855 35.5512 40.5967 35.6058 39.695 35.2738C40.9022 34.9786 42.0562 35.2383 43.1748 35.6456C43.5969 35.7932 43.9968 35.9408 44.4381 35.6456C44.0544 35.3254 43.5629 35.259 43.0287 34.9919C44.196 34.831 45.0195 35.8773 46.1499 35.5025L45.2497 34.7646C46.2075 34.9122 46.8479 35.5173 47.844 35.4081C47.2538 35.0841 46.6194 34.848 45.961 34.7071C42.9948 34.0489 40.0861 34.4311 37.266 35.3844C32.4123 37.0255 27.9305 39.4412 23.6288 42.2023C23.5801 42.2333 23.5609 42.3086 23.5018 42.4045C24.7488 42.2894 25.9206 42.1403 27.0288 41.581C29.2823 40.4432 31.552 39.3379 33.9279 38.4687C34.7676 38.1618 35.5984 37.8371 36.4366 37.5213L36.4071 37.4224H33.8113C34.9048 36.8926 35.9098 36.993 36.8956 37.0874C38.085 37.2025 39.1313 36.807 40.1673 36.3245L40.157 36.3304ZM44.8114 38.4333L44.9147 38.5661C44.6476 38.8303 44.5576 39.0398 45.0505 39.1387C45.6408 39.2582 46.2178 39.1239 46.7977 39.0265C47.2316 38.9557 47.6581 38.7019 48.21 38.9395C47.7673 39.2686 47.2877 39.2656 46.8907 39.4648C46.7166 39.5519 46.5233 39.6508 46.51 39.878C46.4937 40.1496 46.752 40.2145 46.9099 40.2278C48.0905 40.3222 49.1235 41.1014 50.3498 40.9657C50.5476 40.9435 50.8442 41.1132 50.9018 40.8092C50.946 40.5672 50.6361 40.5643 50.4797 40.489C49.8451 40.185 49.1515 40.0123 48.4373 39.5578C49.3065 39.2627 50.0532 39.7615 50.8383 39.4944C50.3233 38.7565 49.4393 38.7565 48.6882 38.1972C49.4098 38.3359 49.9602 38.4363 50.5107 38.5469C51.0051 38.6473 51.312 38.5897 50.9401 37.9566L52.6874 38.6355C52.6874 38.2001 52.2329 38.147 52.162 37.8002C52.9781 37.75 53.5566 38.3271 54.3328 38.6015C53.9831 37.8637 53.4223 37.6438 52.7774 37.5021C51.8669 37.3014 50.9608 37.5803 50.0665 37.4918C47.5164 37.2424 45.0254 37.5818 42.5403 38.0658C38.1131 38.9247 33.981 40.6587 29.7412 42.102C29.2501 42.2609 28.7921 42.508 28.3895 42.831C27.5291 43.5482 26.5271 43.771 25.4616 43.864C23.7512 44.0116 22.035 44.1355 20.3452 44.4543C20.0058 44.5192 19.5705 44.5163 19.4716 44.9841C19.386 45.3929 19.6989 45.6113 19.9571 45.8238C20.9606 46.6487 22.1324 47.028 23.4177 47.084C23.6388 47.1108 23.8626 47.068 24.0582 46.9616C24.2264 46.8583 24.4271 46.7623 24.4212 46.5439C24.4153 46.3255 24.2013 46.296 24.0493 46.2311C23.521 46.0053 22.9868 45.7884 22.4541 45.5729C22.8127 45.443 23.1432 45.4844 23.4723 45.4725C24.4168 45.4371 25.4439 46.1824 26.2984 45.1936C26.3323 45.1553 26.4459 45.1789 26.5138 45.1789H27.8951C27.5601 45.3146 27.2192 45.3264 26.8842 45.3663C26.7116 45.3899 26.4415 45.3397 26.4076 45.5877C26.3766 45.809 26.6068 45.9167 26.7676 46.0127C26.9425 46.0983 27.1247 46.168 27.3122 46.2207C27.9753 46.4516 28.6769 46.5518 29.3782 46.5159C29.0093 46.6635 28.8514 46.7166 28.7038 46.7904C28.3009 46.9925 27.7682 47.0855 27.7741 47.6876C27.78 48.2897 28.2891 48.4712 28.7141 48.7014C29.3472 49.0423 30.0511 48.942 30.727 49.0113C30.727 49.1914 30.5647 49.2298 30.4555 49.3065C29.7678 49.7905 29.7648 49.9219 30.4555 50.434C31.2421 51.0124 32.1408 51.2058 33.0941 51.1512C33.3479 51.1379 33.7375 51.163 33.7862 50.856C33.8408 50.5136 33.4822 50.3853 33.1959 50.3159C32.3297 50.1063 31.7202 49.4939 31.608 48.7162C31.5239 48.1421 31.3365 47.8632 30.8864 47.7201C30.2961 47.5297 30.0585 47.0752 30.001 46.5513C29.9242 45.9418 29.6261 45.6924 29.0476 45.567C28.3231 45.4106 27.8877 44.8793 27.656 44.1857C27.5985 44.013 27.5896 43.836 27.7623 43.7253C27.9349 43.6146 28.0028 43.7002 28.0958 43.8581C28.6212 44.7539 29.4535 44.9944 30.426 44.8911C30.8495 44.8468 31.2701 44.7745 31.8781 44.6875C31.4118 44.9826 31.0989 45.1567 30.8052 45.3619C30.1485 45.8164 30.1707 46.1809 30.8554 46.6251C31.5018 47.0457 32.219 47.1106 32.9613 47.0678C32.7399 47.2508 32.5289 47.4485 32.2943 47.6138C31.8191 47.9473 31.8751 48.2366 32.3164 48.5568C32.9672 49.0291 33.6652 49.3242 34.4857 49.3183C35.7445 49.3065 35.8242 49.2047 35.2811 48.1451C35.2369 48.0595 35.1926 47.971 35.1454 47.8868C34.6687 47.0427 34.1979 46.8125 33.2269 46.9453C33.2446 46.7136 33.7287 46.8391 33.5826 46.51C33.4734 46.268 33.2328 46.1927 32.9672 46.1897C32.4507 46.1897 31.9416 46.1292 31.4988 45.8282C32.0227 45.8031 32.5318 45.8769 33.041 45.8651C33.5501 45.8533 33.984 45.2748 33.7242 45.1125C32.8772 44.5797 32.368 43.4552 31.0782 43.6603C30.8379 43.6983 30.5917 43.6714 30.3653 43.5824C30.1388 43.4935 29.9402 43.3456 29.7899 43.1542C29.9251 43.1203 30.0621 43.0942 30.2002 43.076C31.0089 43.0302 31.8235 43.0051 32.6263 42.9402C32.9967 42.9107 33.4084 42.8575 33.0188 42.2997C32.8432 42.0488 32.6204 41.7685 32.7532 41.3612C33.8939 42.797 34.5241 42.9358 36.1902 42.1654C36.6329 41.9588 37.0904 41.7817 37.7914 42.0016C37.0535 42.1389 36.6329 42.4621 36.2049 42.7779C36.0736 42.8753 35.8552 42.9372 35.9098 43.1468C35.957 43.3239 36.1533 43.3637 36.3186 43.4139C37.4416 43.7577 38.5159 43.5807 39.6006 43.1527C39.5396 42.9969 39.4303 42.8647 39.2888 42.7755C39.1473 42.6863 38.9809 42.6447 38.814 42.6568C38.696 42.6568 38.485 42.5654 38.5661 42.5093C39.0974 42.1241 38.4599 41.8083 38.5322 41.4497C38.6679 40.7945 38.2606 40.914 37.8917 41.0631C37.1863 41.3493 36.478 41.2859 35.5586 41.1516C36.073 40.8843 36.6435 40.7427 37.2232 40.7384C38.1278 40.7384 39.0531 40.8609 39.8574 40.2809L39.9592 40.396C39.6641 40.6838 38.997 40.8078 39.1977 41.308C39.3881 41.7847 40.0035 41.7729 40.5023 41.7301C40.7443 41.7094 40.9848 41.6415 41.2269 41.6327C41.5368 41.6238 41.829 41.3567 42.2053 41.5781C41.8053 41.8334 41.4364 42.0621 41.0749 42.3012C40.7517 42.5167 40.8063 42.7306 41.1029 42.9181C41.3373 43.0518 41.6019 43.1234 41.8718 43.1261C42.9977 43.197 44.1163 43.1778 45.2187 42.9122C45.2099 43.163 44.9752 43.1261 44.8395 43.1734C44.3805 43.3342 43.8861 43.408 43.4508 43.6161C43.0745 43.7917 42.5107 43.9643 42.5801 44.4764C42.6391 44.9191 43.1704 45.0431 43.5762 45.1051C45.0402 45.3264 46.4539 45.1508 47.7644 44.4144C47.9208 44.3274 48.1289 44.2418 48.0816 43.9304C47.0044 44.0189 45.9477 44.4528 44.7066 44.2078C45.6334 43.6456 46.5926 43.6648 47.4426 43.3549C46.7668 42.8192 46.0496 42.5122 45.1981 42.9387C44.7967 42.6436 44.292 42.6259 43.8478 42.4502C43.6131 42.3587 43.2501 42.2245 43.4906 41.8836C43.8876 41.3154 43.6618 42.0311 43.8123 42.099C44.4292 42.3425 46.4155 42.0813 46.9247 41.5987C47.1327 41.401 47.1755 41.156 46.9173 41.0955C45.6334 40.7915 44.8439 39.7069 43.6072 39.149L44.8114 38.4333ZM29.2011 37.8164C28.8728 37.7825 28.541 37.81 28.2227 37.8976C25.497 38.5838 22.9898 39.8249 20.4412 40.9568C16.5748 42.6746 12.5711 43.5113 8.33131 42.9933C7.57721 42.9003 6.81573 42.8457 6.05573 42.8177C5.46544 42.7985 5.29868 43.0863 5.66024 43.5216C6.59438 44.6432 7.66133 45.5552 9.28759 45.2172C9.34492 45.2027 9.4052 45.2045 9.46156 45.2225C9.51792 45.2405 9.56808 45.2739 9.60634 45.3191C10.3752 46.0569 11.3256 46.0569 12.2996 46.0333C12.7762 46.0186 12.9489 45.9566 12.7275 45.4135C12.3866 44.5812 12.6921 44.0854 13.5657 43.8005C13.9211 43.703 14.2899 43.6641 14.6578 43.6854C16.1601 43.6766 17.6506 43.8448 19.1455 43.9452C19.4701 43.9673 19.8952 44.1119 20.0457 43.6766C20.1829 43.2855 20.4618 42.9845 20.6522 42.6436C20.3836 42.4266 19.8922 42.6849 19.8848 42.2909C19.8774 41.9426 20.3054 41.8481 20.6094 41.7788C21.4242 41.6047 22.2059 41.3013 22.9248 40.8801C23.6893 40.4373 24.495 40.0787 25.286 39.6995C26.5286 39.1033 27.7815 38.5056 29.1937 37.8268L29.2011 37.8164ZM44.8188 69.0252C43.6057 71.0307 42.676 73.0097 42.3794 75.2233C42.1831 76.6902 42.5594 77.2421 43.9437 77.9564C44.6092 78.3002 44.8099 78.2176 45.0431 77.49C45.2689 76.7846 45.3309 76.0497 45.3899 75.3192C45.585 73.2039 45.3915 71.0708 44.8188 69.0252ZM39.5755 45.7751C39.5873 45.8149 39.6095 45.8474 39.6006 45.8607C39.552 45.9397 39.4973 46.0147 39.4368 46.085C38.8716 46.6989 38.8642 46.8376 39.6478 47.0973C41.0276 47.5563 42.3971 47.3807 43.7194 46.811C43.7742 46.7878 43.8236 46.7534 43.8642 46.7099C43.9049 46.6665 43.936 46.6149 43.9555 46.5587C43.9894 46.3639 43.7873 46.3285 43.6603 46.3049C42.7882 46.141 42.037 45.6216 40.9657 45.5301C41.1546 45.4209 41.2195 45.3825 41.277 45.3486C41.4467 45.229 41.7493 45.1538 41.5869 44.8734C41.46 44.6506 41.2372 44.8601 41.0557 44.8734C40.672 44.8926 40.3178 45.1804 39.8279 45.021L41.2077 44.2831C40.4624 44.0868 40.2012 43.3254 39.4693 43.5379C38.8081 43.7297 38.2208 44.1016 37.663 44.4927C37.1656 44.8395 37.2291 45.1981 37.7914 45.4784C38.3536 45.7588 38.9764 45.7751 39.5755 45.7751ZM42.1359 50.1432C41.7758 49.6887 41.1029 49.6075 40.9288 49.0704C40.7812 48.635 40.551 48.5081 40.1658 48.4314C39.3881 48.2764 38.6989 48.0064 38.4628 47.115C38.3802 46.8096 38.1573 46.5174 37.7677 46.5926C37.1937 46.7048 36.6152 46.8479 36.1282 47.1829C35.8537 47.3733 35.5084 47.6256 35.6102 48.0019C35.7017 48.331 36.1149 48.3561 36.4174 48.4019C36.9959 48.4889 37.5774 48.4019 38.1618 48.3251C37.8893 48.4944 37.5948 48.6255 37.2867 48.7147C37.1199 48.7664 36.931 48.8062 36.8897 48.9907C36.8395 49.2209 37.0373 49.3419 37.1966 49.4452C37.7751 49.8097 38.3979 49.8009 39.0398 49.6592C39.1608 49.6326 39.2612 49.4393 39.4117 49.5987C40.1894 50.434 41.1988 50.0842 42.1359 50.1432ZM33.7523 63.1444C34.7582 63.3697 35.7976 63.4032 36.8159 63.2433C39.7674 62.8006 42.5462 61.7676 45.3279 60.7493C46.1971 60.4291 47.0826 60.1295 47.8618 59.6041C47.9931 59.5156 48.2248 59.43 48.148 59.2367C48.0344 58.9534 47.8131 59.2013 47.6419 59.2101C47.5466 59.2311 47.4557 59.2685 47.3733 59.3208C43.0494 61.2304 38.5218 62.4169 33.7523 63.1444ZM43.6677 49.5898C44.6683 49.4939 45.7574 49.3567 46.7815 48.9095C46.9129 48.852 47.0767 48.8239 47.0767 48.6321C47.0767 48.4402 46.9158 48.3797 46.7815 48.3443C46.566 48.2987 46.3483 48.2642 46.1292 48.241C45.3825 48.1171 44.596 48.0713 44.1695 47.2892C44.047 47.0634 43.895 47.1652 43.7356 47.2287C43.1911 47.4412 42.6436 47.6478 42.0975 47.8603C41.7419 47.9975 41.5205 48.2558 41.5382 48.6395C41.5545 49.001 41.8334 49.1855 42.1403 49.3094C42.6291 49.4918 43.1461 49.5867 43.6677 49.5898ZM35.6412 45.539C36.0563 45.5244 36.4638 45.4239 36.838 45.2438C36.931 45.2099 37.0083 45.1432 37.0554 45.0562C37.1024 44.9691 37.1159 44.8679 37.0933 44.7716C37.0476 44.5325 36.8307 44.5871 36.6728 44.6004C35.9416 44.6517 35.2273 44.8446 34.5698 45.1685C34.2747 45.3161 33.8187 45.3751 33.832 45.7765C33.8467 46.2193 34.2894 46.3668 34.6525 46.5011C35.6102 46.8405 36.5606 46.6635 37.5213 46.4495C37.1479 45.6629 37.1479 45.6629 35.6412 45.539ZM26.958 48.4004C27.1661 48.362 27.507 48.4476 27.4568 48.1303C27.4022 47.7776 27.8523 47.3703 27.3402 47.0708C27.0867 46.9274 26.8467 46.7614 26.623 46.5749C26.3574 46.3447 26.2541 45.8208 25.7184 46.1735C25.4011 46.3831 24.9613 46.3727 24.7075 46.7136C24.4124 47.118 24.3932 47.4663 24.8876 47.7348C25.5372 48.067 26.2364 48.2918 26.958 48.4004ZM38.8037 50.6347C38.2916 50.6347 37.8312 50.6834 37.387 50.6214C36.9428 50.5594 36.4484 50.4738 36.4602 49.8068C36.4691 49.3109 36.0648 49.2888 35.7224 49.3508C35.0955 49.4648 34.5047 49.7263 33.9987 50.1137C34.8443 51.3829 37.2571 51.6632 38.8037 50.6347ZM41.5825 12.7925C43.6648 12.701 45.6821 12.3055 47.6994 11.907C47.847 11.8775 48.1215 11.8465 48.0713 11.637C48.0034 11.3418 47.7363 11.4451 47.5209 11.4894C45.5424 11.9282 43.5629 12.3625 41.5825 12.7925ZM36.143 44.1414C35.8773 43.9452 35.6353 43.8183 35.4627 43.6279C35.0096 43.1291 34.4739 43.0774 33.8659 43.2353C33.6003 43.3032 33.2756 43.3504 33.2653 43.6559C33.255 43.9614 33.6032 44.0455 33.8556 44.1267C34.599 44.363 35.3966 44.3682 36.143 44.1414ZM60.8172 34.3529C60.5958 34.6604 60.3984 34.9846 60.2269 35.3225C60.062 35.7297 59.936 36.1517 59.8506 36.5827C59.8323 36.6489 59.8284 36.7183 59.8394 36.7861C59.8503 36.8539 59.8758 36.9185 59.9141 36.9756C59.9524 37.0326 60.0025 37.0807 60.0611 37.1166C60.1196 37.1524 60.1853 37.1752 60.2535 37.1834C60.5663 37.2276 60.3907 36.8882 60.4822 36.7539C60.9426 36.0352 60.9441 35.2324 60.8172 34.3529ZM8.11733 47.056C8.72359 47.4153 9.42917 47.5705 10.1302 47.4987C10.2911 47.4854 10.5006 47.5105 10.5021 47.2567C10.5021 47.0353 10.3368 46.9793 10.1524 46.9689C9.5237 46.9306 8.89209 46.8184 8.11733 47.056ZM8.44789 47.7732C9.43811 48.486 10.3752 48.5804 10.9375 48.0964C10.1848 47.7348 9.41302 47.8293 8.44789 47.7732ZM55.0028 42.62C55.9015 43.1114 56.176 43.0996 56.7058 42.5403C55.5164 42.0223 55.5164 42.0223 55.0028 42.62ZM50.9298 40.2263C51.402 41.1118 52.5398 40.7841 53.0903 41.5766C53.0947 40.7384 52.0971 40.154 50.9298 40.2263ZM57.9809 40.0891C57.3492 38.727 57.2504 38.7048 56.5494 39.6286C56.4653 39.7393 56.297 39.85 56.4225 39.9991C56.4505 40.0325 56.485 40.0599 56.5239 40.0798C56.5627 40.0996 56.6052 40.1113 56.6487 40.1144C56.6923 40.1174 56.736 40.1116 56.7772 40.0974C56.8185 40.0832 56.8564 40.0608 56.8888 40.0315C57.212 39.7393 57.5308 39.8353 57.9838 40.0891H57.9809ZM52.255 6.44239C52.8261 6.24464 52.7996 5.87866 52.6505 5.57761C52.4336 5.13489 51.9982 5.07143 51.5688 5.21606C51.2102 5.33854 51.0848 5.7001 51.1157 6.02476C51.1467 6.34942 51.3622 6.59734 51.8005 6.49256C51.5968 6.23136 51.2294 6.0587 51.5053 5.67353C51.5695 5.56681 51.6717 5.4884 51.7914 5.45416C51.9111 5.41992 52.0394 5.4324 52.1502 5.48907C52.6018 5.68681 52.4705 6.03804 52.258 6.44091L52.255 6.44239ZM11.8067 49.0512C11.0983 48.5731 10.3723 48.9966 9.65357 48.9981C9.98302 49.1755 10.3497 49.2728 10.7238 49.2821C11.0979 49.2913 11.4689 49.2122 11.8067 49.0512ZM11.0275 47.0162C11.7506 47.3113 12.4781 47.4589 13.2662 47.2021C13.1983 47.0959 13.1732 47.0206 13.1466 47.0206C12.4398 47.0147 11.7329 47.0162 11.0275 47.0162ZM11.5632 47.6788C12.0767 48.1215 12.574 48.1466 13.0832 48.1215C13.2529 48.1112 13.4492 48.0979 13.4403 47.8618C13.4403 47.6507 13.244 47.6876 13.1112 47.6861C12.639 47.6729 12.1653 47.6788 11.5632 47.6788ZM53.4135 39.4398C53.4828 39.9622 53.6776 40.3178 54.1351 40.5229C54.1997 40.5572 54.2735 40.5702 54.3459 40.5598C54.4183 40.5495 54.4856 40.5164 54.538 40.4654C54.6855 40.3178 54.5291 40.1998 54.4494 40.1009C54.1876 39.771 53.8229 39.5383 53.4135 39.4398ZM52.4705 39.9902C52.3008 39.4132 51.8802 39.1741 51.585 38.8273C51.5674 38.8025 51.545 38.7813 51.5192 38.7652C51.4934 38.7491 51.4646 38.7382 51.4345 38.7333C51.4045 38.7283 51.3737 38.7294 51.3441 38.7364C51.3144 38.7434 51.2865 38.7563 51.2618 38.7742C51.129 38.8731 51.2146 38.9867 51.2618 39.0944C51.4817 39.5962 51.8979 39.8308 52.4705 39.9902ZM56.114 39.6788L54.6988 39.1003C55.0781 40.0064 55.4942 40.1791 56.114 39.6788ZM54.5852 41.1545C54.3786 41.2033 54.0628 41.1265 54.0333 41.4659C54.0097 41.7537 54.2413 41.8113 54.476 41.8009C54.7431 41.7891 55.0928 41.7552 55.1342 41.4895C55.1858 41.1752 54.8346 41.187 54.5852 41.1486V41.1545ZM13.582 48.6114L11.9911 48.4314C12.5608 48.8534 13.0256 49.0217 13.582 48.6114ZM44.9885 58.8678L43.4213 59.5274C44.0116 59.5938 44.5355 59.5097 44.9885 58.8678ZM58.9947 21.1658C59.0322 20.9569 59.0178 20.7419 58.9527 20.5399C58.8876 20.3379 58.7738 20.155 58.6213 20.0073C58.549 20.515 58.7763 20.8352 58.9947 21.1658ZM71.6122 56.0801C71.6122 56.0727 71.9664 56.058 71.7716 55.8086L71.6122 56.0801ZM48.9464 9.89855C48.9612 9.88232 48.9877 9.86609 48.9877 9.84985C48.9877 9.83362 48.9612 9.81591 48.9464 9.7982L48.8962 9.87051L48.9464 9.89855ZM24.9008 59.8167L24.8492 59.8624C24.8654 59.8786 24.8816 59.9067 24.8979 59.9081C24.9141 59.9096 24.9318 59.8801 24.9495 59.8654L24.9008 59.8167Z" fill="#AF3830"/>
<path d="M32.9465 47.0885C32.2087 47.1283 31.487 47.0634 30.8407 46.6458C30.1559 46.203 30.1338 45.8371 30.7905 45.3825C31.0856 45.1774 31.397 45.0003 31.8633 44.7081C31.2553 44.7952 30.8303 44.8675 30.4112 44.9118C29.4387 45.0151 28.6064 44.7745 28.081 43.8788C27.9881 43.7209 27.904 43.6456 27.7475 43.7459C27.5911 43.8463 27.5837 44.0337 27.6413 44.2064C27.873 44.9 28.3083 45.4312 29.0329 45.5877C29.6114 45.7131 29.9095 45.9625 29.9862 46.572C30.0511 47.0958 30.2814 47.5504 30.8716 47.7407C31.3217 47.8883 31.5092 48.1628 31.5933 48.7369C31.7069 49.5146 32.3149 50.127 33.1812 50.3366C33.4675 50.4059 33.8261 50.5343 33.7715 50.8767C33.7228 51.1807 33.3287 51.1556 33.0793 51.1718C32.126 51.2264 31.2273 51.0331 30.4407 50.4546C29.7471 49.9425 29.7501 49.8112 30.4407 49.3272C30.5499 49.2504 30.7123 49.2121 30.7123 49.032L30.8908 49.0158L30.8716 48.9272L30.7123 49.0217C30.0364 48.9523 29.3325 49.0527 28.6994 48.7118C28.2744 48.4816 27.7652 48.3 27.7593 47.698C27.7534 47.0959 28.2862 47.0029 28.689 46.8007C28.8366 46.7269 28.9945 46.6753 29.3635 46.5262C28.6622 46.5622 27.9606 46.462 27.2974 46.2311C27.11 46.1783 26.9277 46.1087 26.7529 46.023C26.592 45.9271 26.3618 45.8193 26.3928 45.598C26.4282 45.3501 26.6968 45.4002 26.8695 45.3766C27.2045 45.3294 27.5453 45.325 27.8803 45.1892H26.4991C26.4253 45.1892 26.3175 45.1656 26.2836 45.204C25.4291 46.1927 24.402 45.4475 23.4576 45.4829C23.1285 45.4947 22.7979 45.4534 22.4393 45.5832C22.9721 45.8016 23.5063 46.0156 24.0346 46.2414C24.1822 46.3063 24.4006 46.3536 24.4065 46.5543C24.4124 46.755 24.2117 46.8686 24.0434 46.9719C23.8479 47.0784 23.624 47.1212 23.403 47.0944C22.1176 47.0383 20.9459 46.659 19.9424 45.8341C19.6841 45.6216 19.3713 45.4032 19.4569 44.9944C19.5557 44.5266 19.9911 44.5295 20.3305 44.4646C22.0202 44.1414 23.7365 44.0219 25.4469 43.8743C26.5123 43.7799 27.5129 43.557 28.3747 42.8413C28.7773 42.5183 29.2354 42.2713 29.7265 42.1123C33.9618 40.669 38.1042 38.9351 42.5255 38.0762C45.0165 37.5921 47.5076 37.2527 50.0517 37.5021C50.946 37.5907 51.8521 37.3117 52.7627 37.5125C53.4076 37.66 53.9683 37.877 54.3181 38.6119C53.5418 38.3374 52.9634 37.7604 52.1473 37.8105C52.2181 38.1573 52.6712 38.2105 52.6726 38.6458L50.9298 37.9611C51.3017 38.5956 50.9947 38.6532 50.5004 38.5514C49.9499 38.4407 49.3995 38.3403 48.6778 38.2016C49.429 38.7565 50.3129 38.7594 50.828 39.4988C50.0429 39.7659 49.2962 39.2715 48.427 39.5622C49.1383 40.0168 49.8348 40.1894 50.4694 40.4934C50.6258 40.5687 50.9357 40.5716 50.8914 40.8137C50.8339 41.1206 50.5373 40.948 50.3395 40.9701C49.1117 41.1103 48.0802 40.3311 46.8996 40.2322C46.7417 40.2189 46.4834 40.154 46.4997 39.8825C46.5129 39.6552 46.7063 39.5563 46.8804 39.4693C47.2774 39.27 47.7658 39.273 48.1997 38.9439C47.6478 38.7063 47.2213 38.9601 46.7874 39.031C46.2075 39.1284 45.6364 39.2627 45.0402 39.1431C44.5473 39.0443 44.6373 38.8347 44.9044 38.5705L45.0962 38.4643L45.2836 38.2902C45.1567 38.2031 45.0711 38.2547 45.0062 38.3743L44.8011 38.4377L43.5939 39.1564C44.8306 39.7142 45.6201 40.7989 46.904 41.1029C47.1623 41.1649 47.1195 41.4084 46.9114 41.6061C46.4023 42.0887 44.4159 42.344 43.7991 42.1064C43.6515 42.0459 43.8743 41.3228 43.4774 41.8909C43.2368 42.2318 43.5998 42.3661 43.8345 42.4576C44.2772 42.6332 44.7834 42.645 45.1848 42.9461L45.2069 42.9225C44.1031 43.1896 42.9845 43.2088 41.8585 43.1379C41.5886 43.1352 41.324 43.0636 41.0896 42.9299C40.7945 42.7424 40.7384 42.5285 41.0616 42.313C41.4231 42.0739 41.7994 41.8452 42.192 41.5899C41.8157 41.3685 41.5235 41.6356 41.2136 41.6445C40.9716 41.6534 40.731 41.7212 40.489 41.7419C39.9902 41.7847 39.3748 41.7965 39.1844 41.3198C38.9837 40.8196 39.6552 40.6956 39.9459 40.4078C40.0168 40.3134 40.2809 40.3665 40.1924 40.1909C40.1407 40.0905 39.9356 40.1555 39.8441 40.2927C39.0398 40.8727 38.1145 40.7458 37.2099 40.7502C36.6302 40.7545 36.0597 40.8961 35.5453 41.1634C36.4647 41.2977 37.1686 41.3612 37.8784 41.0749C38.2474 40.9273 38.6547 40.8063 38.5189 41.4615C38.4466 41.8201 39.0841 42.1359 38.5528 42.5211C38.4717 42.5801 38.6827 42.6687 38.8008 42.6687C38.9676 42.6565 39.134 42.6981 39.2755 42.7873C39.4171 42.8765 39.5263 43.0087 39.5873 43.1645C38.5027 43.5925 37.4283 43.7695 36.3053 43.4257C36.14 43.3755 35.9437 43.3357 35.8965 43.1586C35.8404 42.949 36.0588 42.8871 36.1917 42.7897C36.6196 42.4739 37.0432 42.1507 37.7781 42.0134C37.0771 41.7935 36.6211 41.9706 36.1769 42.1772C34.5167 42.9476 33.8807 42.8089 32.7399 41.373C32.6071 41.7803 32.8299 42.0606 33.0056 42.3115C33.3952 42.8694 32.9834 42.9225 32.613 42.952C31.8058 43.0169 30.9897 43.042 30.1869 43.0878C30.0488 43.106 29.9118 43.1321 29.7767 43.166C29.9269 43.3574 30.1255 43.5053 30.352 43.5942C30.5785 43.6832 30.8246 43.7101 31.065 43.6722C32.3548 43.467 32.8639 44.5915 33.711 45.1243C33.9707 45.2866 33.5147 45.8621 33.0277 45.8769C32.5407 45.8917 32.0094 45.8149 31.4856 45.84C31.9283 46.1352 32.4374 46.1957 32.9539 46.2016C33.2195 46.2016 33.4601 46.2798 33.5693 46.5218C33.7169 46.8509 33.2313 46.7254 33.2136 46.9571L33.2343 46.9365C33.128 46.9955 32.9096 46.8405 32.9141 47.1077L32.9465 47.0885ZM44.0367 41.159C44.0854 41.4246 44.2256 41.2859 44.3318 41.2195C44.695 41.0047 45.1056 40.883 45.5271 40.8653C45.2906 40.6897 44.999 40.6049 44.7052 40.6262C44.6506 40.548 44.6048 40.4093 44.5428 40.4019C43.3596 40.2287 42.1552 40.2657 40.9848 40.5111C41.8112 41.1014 42.5329 41.1826 43.3327 40.9686C43.7976 40.8447 44.2019 40.4772 44.7317 40.6012C44.6343 40.9435 44.2979 40.9967 44.0588 41.1605C44.0676 41.2224 44.075 41.2829 44.0839 41.3449C44.1134 41.3169 44.165 41.2918 44.1695 41.2593C44.1857 41.1605 44.1001 41.1678 44.0367 41.159Z" fill="#FDF7E6"/>
<path d="M29.1937 37.8268C27.7815 38.5056 26.5286 39.1033 25.2816 39.7098C24.4876 40.095 23.6819 40.4595 22.9204 40.8904C22.2007 41.3124 21.418 41.6163 20.602 41.7906C20.298 41.854 19.8642 41.9544 19.8774 42.3027C19.8774 42.6967 20.3762 42.4384 20.6448 42.6554C20.4545 42.9904 20.1755 43.2914 20.0383 43.6884C19.8907 44.1237 19.4628 43.9835 19.1381 43.957C17.6432 43.8566 16.1527 43.6884 14.6504 43.6972C14.2825 43.6759 13.9137 43.7148 13.5584 43.8123C12.6847 44.1075 12.3778 44.593 12.7201 45.4253C12.9415 45.9684 12.7688 46.0304 12.2922 46.0451C11.3182 46.0717 10.3737 46.0643 9.59897 45.3309C9.56071 45.2857 9.51054 45.2523 9.45418 45.2343C9.39782 45.2163 9.33754 45.2145 9.28021 45.229C7.6569 45.567 6.587 44.655 5.65286 43.5334C5.2913 43.0981 5.46396 42.8103 6.04835 42.8295C6.80836 42.8531 7.56983 42.9122 8.32393 43.0051C12.5637 43.5231 16.5674 42.6864 20.4338 40.9686C22.9824 39.8367 25.4897 38.5956 28.2153 37.9094C28.5335 37.8213 28.8653 37.7933 29.1937 37.8268Z" fill="#FDF7E6"/>
<path d="M40.157 36.3304C39.1239 36.813 38.0747 37.2084 36.8853 37.0933C35.8995 36.9989 34.8945 36.8985 33.801 37.4283H36.4012L36.4307 37.5272C35.5955 37.843 34.7646 38.1677 33.922 38.4746C31.5461 39.3438 29.2764 40.4492 27.0229 41.5869C25.9147 42.1462 24.7429 42.2953 23.4959 42.4104C23.555 42.3145 23.5742 42.2392 23.6229 42.2082C27.9246 39.4471 32.4064 37.0314 37.2601 35.3903C40.0802 34.437 42.9889 34.0548 45.9551 34.713C46.6115 34.8578 47.2434 35.0974 47.8308 35.4243C46.8346 35.5335 46.1942 34.924 45.2364 34.7809L46.1366 35.5187C45.0121 35.8877 44.1887 34.8547 43.0214 35.0022C43.5556 35.2693 44.047 35.3357 44.4307 35.656C43.988 35.9437 43.5895 35.8035 43.1674 35.656C42.0429 35.2487 40.8948 34.9889 39.6877 35.2841C40.5893 35.6161 41.5781 35.5615 42.5875 35.9467C41.7168 36.1917 40.9553 36.3894 40.1496 36.3407C39.9813 36.0559 39.6892 36.0529 39.4117 36.0338C38.4512 35.946 37.4827 36.0412 36.5576 36.3142C37.7574 36.6388 38.9616 36.2773 40.157 36.3304Z" fill="#FDF7E6"/>
<path d="M29.6586 51.4109C28.385 51.3681 27.1262 51.2855 26.046 50.4753C25.9102 50.3735 25.6667 50.4044 25.4719 50.3912C24.8336 50.3714 24.2017 50.258 23.5963 50.0547C22.7714 49.7507 22.2386 48.9863 21.4181 48.6513C21.1377 48.5362 21.1717 48.148 21.1023 47.8677C20.1637 48.2779 18.781 47.7821 17.8557 46.7874C17.4838 46.386 17.5355 46.0732 17.8985 45.7175C17.8172 45.6805 17.7334 45.6495 17.6476 45.6245C17.2713 45.5463 16.836 45.3973 16.9097 44.9782C16.9614 44.6624 17.413 44.8808 17.6816 44.8306C17.8498 44.8026 18.0254 44.838 18.1966 44.8306C18.6393 44.7922 18.8193 44.8704 18.9817 45.4135C19.2916 46.4569 20.1239 47.2065 21.1377 47.5902C21.9287 47.8854 22.7979 48.0551 23.6642 47.9045C24.0021 47.8455 24.2264 47.971 24.467 48.1525C25.1665 48.6823 25.9427 49.0571 26.8281 49.0719C27.6575 49.0851 28.3142 49.5146 29.0417 49.7979C29.1731 49.8496 29.4048 49.9529 29.3457 50.068C29.0506 50.6583 29.7191 50.8796 29.7693 51.3238C29.7235 51.3519 29.6896 51.3829 29.6586 51.4109Z" fill="#FDF7E6"/>
<path d="M39.5755 45.7751C38.969 45.7751 38.3551 45.75 37.7914 45.4681C37.2276 45.1863 37.1656 44.8291 37.663 44.4823C38.2208 44.0913 38.8081 43.7194 39.4693 43.5275C40.2071 43.315 40.4624 44.0765 41.2077 44.2728L39.8279 45.0106C40.3193 45.173 40.672 44.8852 41.0557 44.8631C41.2372 44.8542 41.46 44.6447 41.5869 44.8631C41.7493 45.1435 41.4467 45.2187 41.277 45.3383C41.2195 45.3781 41.1546 45.4106 40.9657 45.5198C42.0311 45.6113 42.7882 46.1307 43.6603 46.2945C43.7873 46.3181 43.9894 46.3536 43.9555 46.5484C43.936 46.6046 43.9049 46.6561 43.8642 46.6996C43.8236 46.7431 43.7742 46.7775 43.7194 46.8007C42.3912 47.3703 41.0276 47.5459 39.6478 47.087C38.8642 46.8273 38.8716 46.6885 39.4368 46.0746C39.4973 46.0043 39.5521 45.9293 39.6006 45.8503C39.6095 45.8474 39.5873 45.8149 39.5755 45.7751Z" fill="#FDF7E6"/>
<path d="M29.7693 62.1926C28.0648 61.7941 26.6702 60.739 25.0868 60.0292C27.6309 60.6372 30.1781 60.3907 32.7429 60.3243C32.1363 60.4719 31.5328 60.6401 30.9203 60.767C30.3079 60.8939 29.6955 60.9677 29.0934 61.1566C32.6221 61.1896 36.1426 60.8092 39.5829 60.0233C38.5764 60.6903 34.136 61.8414 32.0139 62.0421C31.2657 62.0878 30.5263 62.2605 29.7693 62.1926Z" fill="#FDF7E6"/>
<path d="M42.1359 50.1432C41.1988 50.0842 40.1894 50.4384 39.4117 49.6031C39.2641 49.4437 39.1608 49.6371 39.0398 49.6636C38.3979 49.8112 37.7751 49.8112 37.1966 49.4496C37.0343 49.3463 36.8395 49.2253 36.8897 48.9951C36.931 48.8106 37.1199 48.7708 37.2867 48.7192C37.5948 48.63 37.8893 48.4989 38.1618 48.3296C37.5715 48.4092 36.9959 48.4934 36.4175 48.4063C36.1149 48.3605 35.7017 48.3355 35.6102 48.0064C35.5084 47.636 35.8537 47.3777 36.1282 47.1873C36.6152 46.8479 37.1937 46.7048 37.7677 46.5971C38.1573 46.5218 38.3802 46.814 38.4628 47.1195C38.6989 48.0049 39.3881 48.2809 40.1658 48.4358C40.551 48.5126 40.7871 48.6395 40.9288 49.0748C41.1029 49.612 41.7803 49.6887 42.1359 50.1432ZM38.4982 48.1451L38.4289 48.2218C38.4658 48.2366 38.5041 48.2632 38.5381 48.2587C38.572 48.2543 38.5868 48.213 38.6104 48.1879L38.4982 48.1451Z" fill="#FDF7E6"/>
<path d="M33.7523 63.1444C38.5218 62.4169 43.0494 61.226 47.3733 59.3208C47.4557 59.2685 47.5466 59.2311 47.6419 59.2101C47.8131 59.2013 48.0344 58.9534 48.148 59.2367C48.2248 59.43 48.0005 59.5156 47.8618 59.6041C47.0826 60.1295 46.1971 60.4291 45.3279 60.7493C42.5462 61.7705 39.7659 62.8065 36.8159 63.2433C35.7976 63.4032 34.7582 63.3697 33.7523 63.1444Z" fill="#FDF7E6"/>
<path d="M43.6677 49.5898C43.1436 49.5876 42.624 49.4927 42.133 49.3095C41.8304 49.1855 41.5427 49.001 41.5309 48.6395C41.5132 48.2558 41.7345 47.9975 42.0902 47.8603C42.6362 47.6478 43.1837 47.4412 43.7282 47.2287C43.8876 47.1652 44.0396 47.0634 44.1621 47.2892C44.5886 48.0713 45.3751 48.1171 46.1219 48.241C46.3409 48.2642 46.5586 48.2987 46.7741 48.3443C46.9099 48.3797 47.0604 48.4594 47.0693 48.6321C47.0781 48.8047 46.9114 48.852 46.7741 48.9095C45.7647 49.3567 44.6683 49.4939 43.6677 49.5898Z" fill="#FDF7E6"/>
<path d="M45.1877 42.952C46.0392 42.5255 46.7564 42.8325 47.4323 43.3682C46.5823 43.6781 45.6231 43.6633 44.6963 44.2211C45.9374 44.4661 46.994 44.0322 48.0713 43.9437C48.1185 44.2551 47.9105 44.3407 47.754 44.4277C46.4436 45.1656 45.0298 45.3397 43.5659 45.1184C43.1645 45.0564 42.6288 44.9339 42.5698 44.4897C42.5004 43.9776 43.0642 43.805 43.4405 43.6294C43.8758 43.4257 44.3702 43.3519 44.8291 43.1866C44.9649 43.1394 45.1995 43.1763 45.2099 42.924L45.1877 42.952Z" fill="#FDF7E6"/>
<path d="M42.223 60.376C41.5102 60.919 40.6425 61.0799 39.8161 61.3263C37.9478 61.8827 36.0721 62.4051 34.1522 62.7785C32.7414 63.0515 31.4413 62.7607 30.1412 62.3033C30.7698 62.2251 31.4206 62.4302 32.036 62.166C35.2265 61.9875 38.3182 61.257 41.4025 60.4925C41.6799 60.4232 41.9426 60.2682 42.2407 60.3907L42.223 60.376Z" fill="#FDF7E6"/>
<path d="M33.221 46.966C34.1891 46.8332 34.6599 47.0634 35.1395 47.9075C35.1867 47.9916 35.231 48.0802 35.2752 48.1658C35.8183 49.2253 35.7386 49.3272 34.4798 49.339C33.6593 49.339 32.9613 49.0438 32.3105 48.5775C31.8678 48.2572 31.8132 47.968 32.2884 47.6345C32.523 47.4692 32.7311 47.2715 32.9554 47.0885L32.9244 47.1165C33.0543 47.1017 33.1974 47.1165 33.2446 46.9453L33.221 46.966Z" fill="#FDF7E6"/>
<path d="M44.5222 8.39331C43.9614 9.35843 43.9835 9.51486 44.7288 9.77164L44.7893 9.86018L38.1928 12.4885C38.0112 12.5608 37.8076 12.6715 37.694 12.4132C37.598 12.1918 37.7471 12.0266 37.9197 11.9262C38.1098 11.817 38.3132 11.7327 38.5248 11.6753C40.6336 11.085 42.5299 10.1273 44.075 8.5394C44.1844 8.44507 44.3019 8.36062 44.4263 8.28705C44.4572 8.32395 44.4897 8.35936 44.5222 8.39331Z" fill="#FDF7E6"/>
<path d="M35.6412 45.539C37.1479 45.6629 37.1479 45.6629 37.5213 46.4524C36.5606 46.6664 35.6102 46.8435 34.6525 46.5041C34.2894 46.3757 33.8467 46.2193 33.832 45.7795C33.8187 45.3781 34.2747 45.3191 34.5698 45.1715C35.2274 44.8476 35.9416 44.6546 36.6728 44.6033C36.8307 44.5901 37.0476 44.5355 37.0933 44.7745C37.1159 44.8708 37.1024 44.9721 37.0554 45.0591C37.0083 45.1461 36.931 45.2129 36.838 45.2468C36.4636 45.4259 36.0561 45.5253 35.6412 45.539Z" fill="#FDF7E6"/>
<path d="M26.958 48.4004C26.238 48.2913 25.5403 48.0666 24.892 47.7348C24.3976 47.4663 24.4124 47.118 24.7119 46.7136C24.9658 46.3727 25.4055 46.3831 25.7228 46.1735C26.2585 45.8208 26.3618 46.3447 26.6274 46.5749C26.8511 46.7614 27.0912 46.9274 27.3446 47.0708C27.8567 47.3659 27.4066 47.7776 27.4612 48.1303C27.507 48.4476 27.1705 48.362 26.958 48.4004Z" fill="#FDF7E6"/>
<path d="M38.8037 50.6347C37.2571 51.6677 34.8384 51.3814 33.9943 50.1137C34.5002 49.7263 35.091 49.4648 35.718 49.3508C36.0648 49.2888 36.4691 49.3109 36.4558 49.8068C36.444 50.4768 36.931 50.5579 37.3826 50.6214C37.8342 50.6848 38.2916 50.6347 38.8037 50.6347Z" fill="#FDF7E6"/>
<path d="M41.5825 12.7925C43.561 12.3596 45.5404 11.9277 47.5209 11.4968C47.7363 11.4495 48.0034 11.3492 48.0713 11.6443C48.1215 11.8539 47.8485 11.8849 47.6994 11.9144C45.6821 12.3055 43.6648 12.701 41.5825 12.7925Z" fill="#FDF7E6"/>
<path d="M36.143 44.1414C35.3948 44.3694 34.5949 44.3642 33.8497 44.1267C33.6032 44.0455 33.2594 43.9584 33.2594 43.6559C33.2594 43.3534 33.5944 43.3032 33.86 43.2353C34.468 43.0774 35.0037 43.1291 35.4567 43.6279C35.6353 43.8183 35.8773 43.9452 36.143 44.1414Z" fill="#FDF7E6"/>
<path d="M60.8172 34.3529C60.9397 35.2383 60.9382 36.0382 60.4748 36.7539C60.3833 36.8941 60.559 37.2276 60.2461 37.1834C60.1779 37.1752 60.1123 37.1524 60.0537 37.1166C59.9951 37.0807 59.945 37.0326 59.9067 36.9756C59.8685 36.9185 59.843 36.8539 59.832 36.7861C59.8211 36.7183 59.8249 36.6489 59.8432 36.5827C59.9286 36.1517 60.0546 35.7297 60.2195 35.3225C60.3934 34.9843 60.5932 34.6602 60.8172 34.3529Z" fill="#FDF7E6"/>
<path d="M8.11733 47.056C8.89209 46.8184 9.5237 46.9306 10.1524 46.9689C10.3368 46.9793 10.5021 47.0353 10.5021 47.2567C10.5006 47.5105 10.2911 47.4854 10.1302 47.4987C9.42917 47.5705 8.72359 47.4153 8.11733 47.056Z" fill="#FDF7E6"/>
<path d="M10.9375 48.0964C10.1848 47.7348 9.41302 47.8293 8.44789 47.7732C9.43811 48.486 10.3752 48.5804 10.9375 48.0964Z" fill="#FDF7E6"/>
<path d="M56.7058 42.5403C55.5164 42.0223 55.5164 42.0223 55.0028 42.62C55.9015 43.1188 56.176 43.0996 56.7058 42.5403Z" fill="#FDF7E6"/>
<path d="M50.9298 40.2263C52.0942 40.154 53.0918 40.7384 53.0903 41.5766C52.5428 40.7841 51.405 41.1088 50.9298 40.2263Z" fill="#FDF7E6"/>
<path d="M57.9838 40.0891C57.5308 39.8353 57.212 39.7393 56.8918 40.0315C56.8594 40.0608 56.8215 40.0832 56.7802 40.0974C56.739 40.1116 56.6953 40.1174 56.6517 40.1144C56.6082 40.1114 56.5657 40.0996 56.5269 40.0798C56.488 40.0599 56.4535 40.0325 56.4255 39.9991C56.3 39.8515 56.4683 39.7393 56.5524 39.6287C57.2534 38.7048 57.3522 38.727 57.9838 40.0891Z" fill="#FDF7E6"/>
<path d="M52.258 6.44091C52.4705 6.03804 52.6018 5.68681 52.1591 5.48759C52.0482 5.43092 51.92 5.41844 51.8003 5.45269C51.6806 5.48693 51.5783 5.56533 51.5142 5.67205C51.2323 6.05722 51.5998 6.22988 51.8093 6.49109C51.3666 6.59586 51.1556 6.34351 51.1246 6.02328C51.0936 5.70304 51.2191 5.33706 51.5777 5.21458C52.0071 5.06701 52.4424 5.13932 52.6594 5.57613C52.8025 5.87718 52.8291 6.24317 52.258 6.44091Z" fill="#FDF7E6"/>
<path d="M11.8067 49.0512C11.4689 49.2122 11.0979 49.2913 10.7238 49.2821C10.3497 49.2728 9.98302 49.1755 9.65357 48.9981C10.3723 48.9966 11.0983 48.579 11.8067 49.0512Z" fill="#FDF7E6"/>
<path d="M11.0275 47.0162C11.7329 47.0162 12.4398 47.0162 13.1466 47.0162C13.1732 47.0162 13.1983 47.0914 13.2662 47.1977C12.4781 47.4559 11.7506 47.3098 11.0275 47.0162Z" fill="#FDF7E6"/>
<path d="M11.5632 47.6788C12.1653 47.6788 12.639 47.6788 13.1112 47.6788C13.244 47.6788 13.4329 47.6433 13.4403 47.8544C13.4492 48.0905 13.2529 48.1038 13.0832 48.1141C12.574 48.1466 12.0767 48.12 11.5632 47.6788Z" fill="#FDF7E6"/>
<path d="M53.4135 39.4398C53.8218 39.5389 54.1854 39.7716 54.4465 40.1009C54.5262 40.1998 54.6885 40.3178 54.535 40.4654C54.4826 40.5164 54.4154 40.5495 54.343 40.5598C54.2706 40.5702 54.1967 40.5572 54.1321 40.5229C53.6776 40.3149 53.4828 39.9622 53.4135 39.4398Z" fill="#FDF7E6"/>
<path d="M52.4705 39.9902C51.8979 39.8308 51.4817 39.5962 51.2618 39.0944C51.2146 38.9867 51.129 38.8731 51.2618 38.7742C51.2865 38.7563 51.3144 38.7434 51.3441 38.7364C51.3737 38.7294 51.4045 38.7283 51.4345 38.7333C51.4646 38.7382 51.4934 38.7491 51.5192 38.7652C51.545 38.7813 51.5674 38.8025 51.585 38.8273C51.8743 39.1741 52.3008 39.4132 52.4705 39.9902Z" fill="#FDF7E6"/>
<path d="M56.114 39.6788C55.4942 40.1791 55.081 40.0064 54.6988 39.1003L56.114 39.6788Z" fill="#FDF7E6"/>
<path d="M54.5852 41.1486C54.8346 41.187 55.1858 41.1752 55.1386 41.4836C55.0973 41.7493 54.7475 41.7788 54.4804 41.795C54.2413 41.8053 54.0097 41.7478 54.0377 41.46C54.0628 41.1206 54.3786 41.2003 54.5852 41.1486Z" fill="#FDF7E6"/>
<path d="M13.582 48.6114C13.0256 49.0202 12.549 48.8534 11.9911 48.4314L13.582 48.6114Z" fill="#FDF7E6"/>
<path d="M43.4213 59.5274C44.0116 59.5938 44.5355 59.5097 44.9885 58.8678L43.4213 59.5274Z" fill="#FDF7E6"/>
<path d="M32.0316 62.166C31.4162 62.4302 30.7654 62.225 30.1367 62.3033C29.9965 62.3224 29.8578 62.3372 29.7693 62.1926C30.5263 62.2605 31.2657 62.0878 32.0139 62.0362C32.0357 62.0757 32.042 62.122 32.0316 62.166Z" fill="#AF3830"/>
<path d="M58.9947 21.1658C58.7763 20.8382 58.552 20.515 58.6213 20.0073C58.7738 20.155 58.8876 20.3379 58.9527 20.5399C59.0178 20.7419 59.0322 20.9569 58.9947 21.1658Z" fill="#FDF7E6"/>
<path d="M58.8884 19.3713C58.4531 19.1012 58.3498 18.6762 58.2981 18.0431L59.0021 19.2813C58.9622 19.3108 58.9253 19.3403 58.8884 19.3713Z" fill="#FDF7E6"/>
<path d="M57.6665 16.0096C57.8451 16.2501 58.1092 16.4419 58.155 16.836C57.8715 16.6902 57.6507 16.4463 57.5337 16.1498L57.6665 16.0096Z" fill="#FDF7E6"/>
<path d="M57.5337 16.1498C57.4196 16.0647 57.3265 15.9546 57.2616 15.828C57.1966 15.7014 57.1615 15.5616 57.1589 15.4193C57.4614 15.5432 57.5293 15.8044 57.6665 16.0096L57.5337 16.1498Z" fill="#FDF7E6"/>
<path d="M71.7716 55.8086L71.6122 56.0801C71.6092 56.0727 71.9664 56.058 71.7716 55.8086Z" fill="#FDF7E6"/>
<path d="M44.4263 8.29148C44.4381 8.1749 44.5605 8.11734 44.6107 8.15719C44.7583 8.28263 44.5561 8.31509 44.5222 8.39773C44.4897 8.35937 44.4572 8.32395 44.4263 8.29148Z" fill="#FDF7E6"/>
<path d="M42.2363 60.3848C42.1448 60.2668 42.2555 60.2815 42.3145 60.2682C42.3351 60.2682 42.3602 60.2815 42.3838 60.2874L42.2186 60.3701L42.2363 60.3848Z" fill="#FDF7E6"/>
<path d="M37.5479 56.3339L37.6261 56.4815C37.5523 56.5081 37.5006 56.4977 37.4977 56.4062L37.5479 56.3339Z" fill="#FDF7E6"/>
<path d="M72.2231 55.2566L72.0903 55.6138V55.6212C72.0461 55.4647 71.8719 55.2507 72.2379 55.2714L72.2231 55.2566Z" fill="#FDF7E6"/>
<path d="M44.7317 9.76721C44.7981 9.65358 44.8719 9.56799 45.0062 9.68457L44.7922 9.85576L44.7317 9.76721Z" fill="#FDF7E6"/>
<path d="M48.9464 9.89855L48.8962 9.87051L48.9464 9.7982C48.9612 9.81591 48.9877 9.83362 48.9877 9.84985C48.9877 9.86609 48.9612 9.88232 48.9464 9.89855Z" fill="#FDF7E6"/>
<path d="M72.0903 55.6138L71.9088 55.5916L71.9324 55.5267L72.0903 55.6212V55.6138Z" fill="#FDF7E6"/>
<path d="M24.9008 59.8167L24.9495 59.8654C24.9318 59.8801 24.9141 59.9096 24.8979 59.9081C24.8816 59.9067 24.8654 59.8786 24.8492 59.8624L24.9008 59.8167Z" fill="#FDF7E6"/>
<path d="M61.5551 25.4188C62.0701 25.5369 62.1572 26.0741 62.5364 26.412C62.7047 26.2998 62.5453 25.9693 62.8316 25.8984C62.9378 26.3308 63.0382 26.7485 63.143 27.1646C63.2477 27.5808 63.2182 27.9512 62.7371 28.1224C62.6835 28.1356 62.6333 28.1598 62.5895 28.1935C62.5458 28.2271 62.5095 28.2695 62.483 28.3179C62.4565 28.3664 62.4404 28.4198 62.4356 28.4748C62.4308 28.5297 62.4375 28.5851 62.4553 28.6374C62.5571 29.1155 62.656 29.5951 62.7667 30.0718C62.7991 30.2194 62.8567 30.395 63.0146 30.3935C63.2153 30.3935 63.2758 30.1884 63.3009 30.0231C63.3378 29.784 63.3363 29.5376 63.3525 29.2852C63.8144 29.3428 63.5163 30.032 64.0461 30.0143C64.2616 28.9237 64.4372 27.8375 63.8912 26.7514C63.5609 26.1159 63.4215 25.3984 63.4898 24.6854C63.5754 23.8693 63.2566 23.1506 63.0072 22.4113C62.6442 21.3369 62.3475 20.2508 62.4597 18.9138C63.0588 20.1062 63.4145 21.1968 63.4927 22.3596C63.5677 23.606 63.8048 24.8373 64.1981 26.0224C64.5219 26.9742 64.6719 27.9764 64.6408 28.9812C64.6143 29.6896 64.5567 30.4186 65.1987 30.9499C65.3979 31.1151 65.2695 31.307 65.178 31.4767C64.9814 31.8144 64.7323 32.1188 64.4401 32.3784L63.9738 31.7172C63.5311 32.4404 62.3033 32.16 62.2221 33.2992C61.3145 32.3902 60.9397 31.1506 61.1743 29.728C61.2983 30.2046 61.3603 30.5588 61.4828 30.8908C61.6151 31.2415 61.8057 31.5673 62.0465 31.8545C61.927 30.4378 62.563 29.0403 61.9757 27.6236C61.6879 26.93 61.4577 26.1936 61.5875 25.41L61.5551 25.4188Z" fill="#AF3830"/>
<path d="M60.9161 42.4798C61.1006 43.0922 60.6106 43.5703 60.5501 44.1385C60.86 44.1739 60.8998 43.7533 61.2747 43.8537C60.9545 44.9177 60.2682 45.6511 59.3149 46.2148C59.0198 45.1818 58.5534 45.843 58.1875 46.116C57.7167 46.4642 57.3315 46.3934 56.9449 46.0259C56.5582 45.6585 56.4904 45.2881 56.8681 44.8203C57.1279 45.0667 57.1205 45.5271 57.5367 45.6083C57.9233 45.6836 58.248 45.5404 58.642 45.3471C58.2465 45.139 57.8879 44.9708 57.5514 44.7671C57.3463 44.6432 57.153 44.4882 57.2445 44.1769C57.336 43.8655 57.5175 43.8389 57.7934 43.8109C58.5196 43.7282 59.1903 43.3821 59.6784 42.8382C60.1666 42.2943 60.4384 41.5903 60.4424 40.8594C60.4424 40.4742 60.2166 40.7797 60.1959 40.7635C59.8919 40.5215 60.1753 40.3503 60.3199 40.0625C61.3411 41.3626 60.1723 42.5285 60.2387 43.836L60.9367 42.5078L60.9161 42.4798Z" fill="#AF3830"/>
<path d="M66.4899 26.1788C65.6458 23.6568 65.3949 21.0138 64.7781 18.4489C65.3123 19.7166 65.4968 21.0698 65.8303 22.3862C66.0384 23.2097 66.2405 24.0243 66.7821 24.7326C67.1363 25.1975 66.8102 25.7051 66.4899 26.1788Z" fill="#AF3830"/>
<path d="M70.2619 55.9768C70.2619 55.4411 70.5954 55.0264 70.7887 54.5675C71.6107 52.6504 72.0801 50.6007 72.1744 48.517C72.1848 48.2794 72.1597 48.0256 72.3441 47.8219C72.6836 49.8673 71.9885 53.9167 70.2501 55.9547L70.2619 55.9768Z" fill="#AF3830"/>
<path d="M61.3942 20.1682C61.69 21.5474 62.072 22.9068 62.5379 24.2382C62.6634 24.6116 62.5379 24.9466 62.2251 25.3465C61.623 23.614 61.2319 21.942 61.3942 20.1682Z" fill="#AF3830"/>
<path d="M59.0006 46.3491C58.2199 48.0831 56.9198 48.8785 55.9591 48.3546C56.21 48.0433 56.6483 48.1362 56.9242 47.8824C57.1662 47.6625 57.5617 47.5533 57.3669 47.0899C57.2814 46.8922 57.4511 46.8804 57.5795 46.811C57.8392 46.6708 58.031 47.2228 58.3247 46.8405C58.4826 46.628 58.7704 46.5129 59.0006 46.3491Z" fill="#AF3830"/>
<path d="M66.2272 59.5378C66.3955 58.9209 66.67 58.6125 67.0433 58.4103C67.6897 58.0642 68.2758 57.6157 68.7788 57.0821C68.947 56.9006 69.2023 56.6925 69.4119 56.8873C69.6657 57.1249 69.3514 57.33 69.1994 57.4776C68.316 58.3076 67.3144 59.0019 66.2272 59.5378Z" fill="#AF3830"/>
<path d="M67.6144 55.5149C67.3311 56.7885 65.4776 57.9543 63.7583 57.9971C65.2046 57.336 66.3335 56.4564 67.6144 55.5149Z" fill="#AF3830"/>
<path d="M61.2939 19.3964C60.5309 18.356 60.2107 17.2536 60.1738 15.9638C61.0578 17.3923 61.6023 18.4194 61.2939 19.3964Z" fill="#AF3830"/>
<path d="M61.7204 57.2238L64.9478 55.4529C64.4446 56.6335 63.1105 57.3684 61.7204 57.2238Z" fill="#AF3830"/>
<path d="M69.1507 54.994C70.3239 53.6201 70.532 51.8536 71.1296 50.2436C70.9097 52.0145 70.6146 53.7573 69.2377 55.084C69.2097 55.053 69.1817 55.022 69.1507 54.994Z" fill="#AF3830"/>
<path d="M59.9598 18.7692C59.2057 17.7893 58.9681 16.6515 59.0094 15.4296C59.4595 16.5039 59.8905 17.5886 59.9598 18.7692Z" fill="#AF3830"/>
<path d="M56.1214 56.8844C55.1873 57.665 54.0554 57.9558 52.9014 58.2037C52.7686 58.2317 52.5841 58.2302 52.5487 58.0369C52.5133 57.8436 52.6874 57.7831 52.8217 57.7639C53.9565 57.6031 55.0191 57.178 56.1214 56.8844Z" fill="#AF3830"/>
<path d="M57.8554 57.2548C57.617 57.6726 57.2814 58.0269 56.8771 58.2876C56.4728 58.5483 56.0116 58.7078 55.5326 58.7527C55.385 58.7704 55.1445 58.8353 55.0899 58.6198C55.0353 58.4044 55.2375 58.3778 55.4101 58.3085C56.2424 57.972 57.0438 57.609 57.8554 57.2548Z" fill="#AF3830"/>
<path d="M62.4567 54.898C62.3003 56.1642 61.3455 56.452 60.2741 56.5907L62.4567 54.898Z" fill="#AF3830"/>
<path d="M69.9003 39.0561C69.2023 38.1219 69.1625 37.0446 69.2776 35.9378C69.4399 36.9856 70.0066 37.9434 69.9003 39.0561Z" fill="#AF3830"/>
<path d="M67.6735 39.5047C68.0055 40.5938 67.7384 41.4231 67.2706 42.2304C67.1466 41.339 67.4019 40.5038 67.6735 39.5047Z" fill="#AF3830"/>
<path d="M64.4903 38.4687C64.6792 39.5135 64.2749 40.3326 63.534 41.0203C63.7687 40.1392 64.2114 39.3409 64.4903 38.4687Z" fill="#AF3830"/>
<path d="M59.1836 55.6064L61.4901 54.4332C60.9781 55.3127 60.1826 55.6698 59.1836 55.6064Z" fill="#AF3830"/>
<path d="M62.0185 44.0514C61.7956 45.1818 61.0755 45.902 60.1295 46.4347C60.7601 45.6408 61.3898 44.8463 62.0185 44.0514Z" fill="#AF3830"/>
<path d="M68.2549 45.9669C68.6725 46.7402 68.4881 47.8986 67.7679 48.7177L68.2549 45.9669Z" fill="#AF3830"/>
<path d="M57.7019 54.9246L59.8698 53.6806C59.4507 54.6619 58.8191 55.0456 57.7019 54.9246Z" fill="#AF3830"/>
<path d="M63.6211 54.5188L65.0024 52.8497C64.9143 53.2147 64.7441 53.5547 64.5047 53.844C64.2654 54.1332 63.9631 54.364 63.6211 54.5188Z" fill="#AF3830"/>
<path d="M68.2151 36.1828C68.4143 37.0033 68.4202 37.8371 68.4497 38.7403C67.9848 38.3448 67.9007 37.3634 68.2151 36.1828Z" fill="#AF3830"/>
<path d="M68.8688 40.2883C69.1861 41.2756 69.0001 42.0843 68.7921 42.8944C68.5591 42.0373 68.5858 41.1303 68.8688 40.2883Z" fill="#AF3830"/>
<path d="M72.2792 46.2399C72.0044 45.1786 71.8524 44.0893 71.8262 42.9933C72.2177 44.0281 72.3725 45.1375 72.2792 46.2399Z" fill="#AF3830"/>
<path d="M61.9506 47.8204C62.6737 47.0132 62.96 45.9212 63.7141 45.1464C63.1931 46.085 62.9629 47.2139 61.9506 47.8204Z" fill="#AF3830"/>
<path d="M67.6366 52.9442C67.1245 53.9491 66.3586 54.383 65.6325 54.8626C66.1298 54.1366 66.639 53.44 67.6366 52.9442Z" fill="#AF3830"/>
<path d="M69.8354 45.5699C69.6878 46.603 70.0464 47.7348 69.1787 48.8166C69.3764 47.6079 69.6982 46.6044 69.8354 45.5699Z" fill="#AF3830"/>
<path d="M64.5523 44.5768C64.7323 43.5054 65.1219 42.7203 65.5941 41.8747C65.5644 42.8677 65.1969 43.8209 64.5523 44.5768Z" fill="#AF3830"/>
<path d="M64.6541 41.6711C64.5608 42.512 64.2319 43.3095 63.7052 43.9717C63.7849 42.9505 63.9827 42.4635 64.6541 41.6711Z" fill="#AF3830"/>
<path d="M53.2393 55.1356C53.409 55.5651 53.0342 55.6285 52.7966 55.7407C52.2949 55.9812 51.7724 56.1672 51.0848 55.8115C51.8861 55.5651 52.6195 55.5075 53.2452 55.1401L53.2393 55.1356Z" fill="#AF3830"/>
<path d="M58.0901 52.984C57.9068 53.2902 57.6574 53.5517 57.3603 53.7493C57.0631 53.9469 56.7256 54.0757 56.3723 54.1262C56.8696 53.6392 57.3728 53.1537 58.0901 52.984Z" fill="#AF3830"/>
<path d="M62.0554 49.674C62.6589 49.1132 62.8847 48.2587 63.7229 47.5991C63.4282 48.4639 62.8889 49.2246 62.1705 49.7891L62.0554 49.674Z" fill="#AF3830"/>
<path d="M67.6572 51.7518C67.9524 51.0464 68.187 50.3041 68.7404 49.7315C68.6829 50.5594 68.2874 51.2279 67.762 51.8374C67.7287 51.8069 67.6937 51.7783 67.6572 51.7518Z" fill="#AF3830"/>
<path d="M61.5654 43.4375C61.6802 42.7175 61.9344 42.0267 62.3136 41.4039C62.501 42.1728 62.4081 42.4414 61.5654 43.4375Z" fill="#AF3830"/>
<path d="M60.7272 52.9501L62.6456 51.2249C62.2811 52.0115 61.7661 52.6298 60.7272 52.9501Z" fill="#AF3830"/>
<path d="M62.2147 53.4105C62.8818 52.9309 63.354 52.2299 63.9856 51.7119C63.6669 52.5428 63.1326 53.1626 62.2147 53.4105Z" fill="#AF3830"/>
<path d="M53.7027 56.4431C53.3648 57.1102 52.6328 57.1958 52.0661 57.5263C52.3258 56.7427 53.1523 56.7988 53.7027 56.4431Z" fill="#AF3830"/>
<path d="M65.0526 40.9966C65.1249 40.1761 65.2769 39.5209 65.603 38.8982C65.6443 39.6109 65.6429 40.3149 65.0526 40.9966Z" fill="#AF3830"/>
<path d="M60.9486 50.8103C60.7906 51.5068 60.2741 51.8816 59.5525 52.3155C59.9028 51.7182 60.3792 51.2045 60.9486 50.8103Z" fill="#AF3830"/>
<path d="M67.1215 38.3462C66.7113 37.508 67.0537 36.8985 67.1584 36.2802C67.4167 36.9044 67.1776 37.5184 67.1215 38.3462Z" fill="#AF3830"/>
<path d="M68.3434 45.4534C68.4335 44.8055 68.491 44.3289 68.5707 43.8566C68.5899 43.74 68.5589 43.5275 68.7891 43.5615C68.9367 43.5866 68.9633 43.7238 68.9367 43.8478C68.8526 44.3643 68.7611 44.8749 68.3434 45.4534Z" fill="#AF3830"/>
<path d="M64.4637 50.8516L65.5469 49.1206C65.5912 49.9396 65.088 50.434 64.4637 50.8516Z" fill="#AF3830"/>
<path d="M66.1579 40.7753C66.1107 40.0832 66.4619 39.6626 66.7393 39.2125C66.8338 39.791 66.7541 40.3149 66.1579 40.7753Z" fill="#AF3830"/>
<path d="M71.0632 47.4648C71.2742 48.0979 70.9762 48.5583 70.6279 49.004C70.7208 48.4712 70.7415 47.9223 71.0632 47.4648Z" fill="#AF3830"/>
<path d="M70.9334 44.5015C71.2285 45.1759 71.14 45.8533 70.9334 46.5336V44.5015Z" fill="#AF3830"/>
<path d="M62.8183 16.9658C62.4081 16.3873 62.2752 15.7262 62.1055 14.8452C62.5107 15.4843 62.7552 16.2118 62.8183 16.9658Z" fill="#AF3830"/>
<path d="M67.4418 43.436C67.5185 44.0396 67.2544 44.5266 66.9651 45.0062C66.8485 44.3982 67.0551 43.8891 67.4418 43.436Z" fill="#AF3830"/>
<path d="M66.214 47.785C66.3228 47.1064 66.527 46.4466 66.8205 45.8252C66.94 46.7328 66.7526 47.3305 66.2863 47.8529L66.214 47.785Z" fill="#AF3830"/>
<path d="M70.6485 42.9181C70.2767 42.3868 70.2058 41.7729 70.1128 40.9907C70.557 41.677 70.5689 42.3071 70.6485 42.9181Z" fill="#AF3830"/>
<path d="M65.817 51.2235C66.12 50.6981 66.423 50.1737 66.726 49.6503C66.6965 50.3366 66.3674 50.8634 65.9203 51.3282L65.817 51.2235Z" fill="#AF3830"/>
<path d="M65.5027 44.6476C65.7299 44.1031 65.9557 43.5585 66.2405 42.8767C66.3291 43.7194 65.9365 44.2078 65.5027 44.6476Z" fill="#AF3830"/>
<path d="M63.1238 42.0282C63.1029 42.6779 62.8531 43.2994 62.4184 43.7828C62.5315 43.156 62.7716 42.5589 63.1238 42.0282Z" fill="#AF3830"/>
<path d="M63.8735 16.8507C63.6329 16.1129 63.4573 15.5786 63.2832 15.043C63.6595 15.5226 63.9546 16.014 63.8735 16.8507Z" fill="#AF3830"/>
<path d="M61.0622 42.1876C61.102 41.5973 61.4533 41.1206 61.6333 40.5805C61.6495 41.1929 61.5802 41.7773 61.1183 42.2422L61.0622 42.1876Z" fill="#AF3830"/>
<path d="M63.81 37.7161C63.7099 38.1498 63.5868 38.5779 63.4411 38.9985C62.9039 39.3733 62.8168 39.9769 62.6294 40.5333C63.0205 40.2573 63.3673 39.9563 63.4588 39.4707C63.7436 38.9188 63.9841 38.3595 63.81 37.7161Z" fill="#AF3830"/>
<path d="M61.5551 39.3173C62.3859 38.7403 62.4169 38.6857 62.3416 38.0673C61.9491 38.3846 61.8281 38.8126 61.5551 39.3173Z" fill="#AF3830"/>
<path d="M63.7008 49.5426C63.8727 49.0915 64.132 48.6788 64.4637 48.3281C64.3787 48.8206 64.1346 49.2716 63.7687 49.612L63.7008 49.5426Z" fill="#AF3830"/>
<path d="M64.1966 46.6502C64.297 46.237 64.6143 45.961 64.9183 45.4814C64.9714 46.1529 64.5051 46.3875 64.3014 46.7491C64.2675 46.7151 64.2321 46.6812 64.1966 46.6502Z" fill="#AF3830"/>
<path d="M62.0435 45.9049C62.1911 45.3146 62.4626 44.9619 62.7164 44.5355C62.6987 45.0475 62.6855 45.0726 62.0435 45.9049Z" fill="#AF3830"/>
<path d="M59.4994 49.6238C59.2957 49.975 59.0567 50.2775 58.5151 50.3853C58.7453 49.9263 59.129 49.7713 59.4123 49.5175C59.4404 49.5544 59.4684 49.5898 59.4994 49.6238Z" fill="#AF3830"/>
<path d="M63.5798 59.1629L64.2557 58.7202C64.2881 58.7659 64.3191 58.8132 64.3501 58.8604L63.7082 59.2928L63.5798 59.1629Z" fill="#AF3830"/>
<path d="M64.3014 46.7491C64.235 46.8243 64.2025 47.0221 64.0933 46.9424C63.9841 46.8627 64.0299 46.7048 64.1966 46.6472C64.2321 46.6812 64.2675 46.7151 64.3014 46.7491Z" fill="#AF3830"/>
<path d="M61.8576 50.1004C61.6377 49.826 62.045 49.8422 62.0554 49.674L62.1705 49.7891L61.8502 50.0694L61.8576 50.1004Z" fill="#AF3830"/>
<path d="M67.762 51.8374C67.7546 51.9303 67.7443 52.0174 67.6144 51.9968C67.6292 51.9156 67.6439 51.833 67.6572 51.7518C67.6937 51.7783 67.7287 51.8069 67.762 51.8374Z" fill="#AF3830"/>
<path d="M65.6871 51.5304C65.6871 51.6426 65.6443 51.6913 65.5292 51.6382L65.6089 51.4817L65.6871 51.5304Z" fill="#AF3830"/>
<path d="M69.2377 55.084C69.2377 55.1637 69.1905 55.2404 69.1168 55.1991C68.9839 55.1238 69.0902 55.053 69.1507 54.994C69.1817 55.022 69.2097 55.053 69.2377 55.084Z" fill="#AF3830"/>
<path d="M65.603 51.4817L65.817 51.2235L65.9203 51.3282L65.6871 51.5304L65.603 51.4817Z" fill="#AF3830"/>
<path d="M66.2863 47.8529C66.2612 47.9237 66.301 48.0743 66.1756 48.0256C66.0989 47.9946 66.1358 47.8573 66.214 47.785L66.2863 47.8529Z" fill="#AF3830"/>
<path d="M61.8502 50.0694L61.6938 50.155C61.71 50.1004 61.7115 50.0148 61.7469 49.9986C61.8178 49.9647 61.8606 50.0193 61.8576 50.1004L61.8502 50.0694Z" fill="#AF3830"/>
<path d="M63.6787 49.826C63.6196 49.8924 63.6329 50.099 63.4898 49.9868C63.3938 49.913 63.4898 49.7964 63.6093 49.7536L63.6787 49.826Z" fill="#AF3830"/>
<path d="M59.4094 41.7168C59.4669 41.6725 59.4905 41.525 59.582 41.6017C59.6735 41.6784 59.6086 41.767 59.4994 41.8024C59.468 41.7754 59.4379 41.7468 59.4094 41.7168Z" fill="#AF3830"/>
<path d="M60.9367 42.5004C60.9515 42.3853 60.9367 42.2584 61.0622 42.1876L61.1183 42.2422C61.0932 42.3573 61.1758 42.5595 60.9161 42.4798L60.9367 42.5004Z" fill="#AF3830"/>
<path d="M56.8003 55.1858C56.8069 55.1634 56.8193 55.1431 56.8363 55.127C56.8533 55.1109 56.8743 55.0996 56.897 55.0942C56.9198 55.0888 56.9436 55.0896 56.966 55.0963C56.9884 55.1031 57.0086 55.1156 57.0246 55.1327L56.8962 55.2803C56.8622 55.2522 56.8327 55.2197 56.8003 55.1858Z" fill="#AF3830"/>
<path d="M70.2619 55.9576L70.1733 56.1052C70.163 56.0698 70.1349 56.027 70.1453 55.9989C70.1704 55.9384 70.2146 55.8883 70.2737 55.9783L70.2619 55.9576Z" fill="#AF3830"/>
<path d="M35.653 54.2679L35.4759 54.0834C35.5969 54.0082 35.6914 54.0244 35.7504 54.1646L35.653 54.2679Z" fill="#AF3830"/>
<path d="M72.2438 55.2729C72.2379 55.2649 72.2325 55.2565 72.2276 55.2478V55.2566L72.2438 55.2729Z" fill="#FDF7E6"/>
<path d="M71.5236 40.6115C70.7666 38.8185 70.1542 36.9959 69.8679 35.0642C69.797 34.5875 69.9358 33.9176 69.13 33.8541C69.068 33.8541 68.9824 33.6549 68.9751 33.5413C68.8703 32.7709 68.7139 32.0006 68.8275 31.1373C69.099 31.58 69.0134 32.1024 69.4473 32.5732C69.2761 31.307 69.2259 30.1899 68.9101 28.9886C68.0439 30.0851 67.6233 31.1417 68.1162 32.402C68.277 32.8122 68.4556 33.2151 68.6342 33.618C68.8673 34.1433 68.2785 35.318 67.7192 35.3047C66.7408 35.2826 66.3689 35.8655 66.0959 36.6595C66.0162 36.8882 66.0516 37.2158 65.7152 37.3545C65.6325 37.045 65.5695 36.7305 65.5263 36.413C65.4953 36.0352 65.4761 35.7062 64.9552 35.9083C64.6925 36.0087 64.5921 35.8552 64.5597 35.6368C64.4594 34.9576 64.4534 34.2678 64.542 33.587C64.8223 34.1507 64.9389 34.7676 65.3802 35.2944C65.6192 34.7307 65.4702 34.1625 65.6488 33.5427C65.8347 34.102 65.9837 34.5403 66.1284 34.9816C66.214 35.2428 66.394 35.4449 66.6596 35.3712C67.0005 35.2782 66.7718 35.0022 66.7334 34.8207C66.5394 33.9705 66.5084 33.0911 66.6419 32.2293C66.9872 32.9938 67.0374 33.7656 67.7709 34.2732C67.7709 33.3051 67.7797 32.4477 67.7709 31.5918C67.7709 31.3144 67.9376 30.9454 67.6336 30.7802C67.2735 30.5839 67.0005 30.882 66.7334 31.1048C66.6065 31.2111 66.5327 31.49 66.2715 31.2893C65.3566 30.5898 65.0703 28.5931 65.755 27.5335C65.9601 28.2286 66.0088 28.9665 66.5534 29.6984C66.5785 28.7053 66.6154 27.8803 66.4707 27.0584C66.4427 26.899 66.4855 26.7012 66.2582 26.6378C66.031 26.5743 65.8908 26.6761 65.7816 26.8724C65.5602 27.2738 65.3713 27.0554 65.3005 26.7957C65.0127 25.7509 64.7559 24.6972 64.8578 23.4325C65.1367 24.1777 65.3448 24.7739 65.5823 25.3509C65.7388 25.7376 65.9055 26.2452 66.3069 26.319C66.8559 26.4179 66.7113 26.7337 66.7216 27.0451C66.7556 28.0855 67.0168 29.0432 67.7251 29.849C67.6661 28.9857 67.4683 28.1386 67.6543 27.1218C67.886 27.8302 67.9598 28.4618 68.5176 28.9429C68.5607 27.6198 68.4477 26.2963 68.1811 24.9997C67.9834 25.5295 67.8756 25.59 67.6115 25.1916C67.3016 24.7149 66.9754 24.2825 66.9297 23.6863C66.8146 22.1914 66.4176 20.7511 66.0443 19.3063C65.817 18.4209 65.8303 18.4209 65.9808 17.8601C66.5017 19.8007 66.9371 21.6734 67.7118 23.4384C67.7581 23.242 67.7651 23.0384 67.7325 22.8392C67.0374 18.8474 66.1785 14.8983 64.5051 11.181C63.1075 8.08193 61.3367 5.23524 58.5033 3.22087C56.3251 1.67282 53.9152 1.02055 51.2574 1.6684C49.4747 2.10226 48.089 3.13527 47.0486 4.63462C46.6974 5.14079 46.783 5.61893 47.18 5.79012C48.3502 6.29924 49.3404 5.99377 50.2096 5.14374C51.1187 4.25831 52.0558 4.02957 53.1906 4.53722C54.0375 4.92737 54.9489 5.15848 55.8794 5.21901C57.1972 5.2987 58.2716 6.13396 58.5726 7.21124C56.449 5.90522 55.875 5.88309 53.6791 7.11827C53.0129 7.49385 52.2502 7.66333 51.4876 7.60527C51.1556 7.58313 50.8236 7.5669 50.493 7.54771L50.4251 7.69529L51.0361 8.10554C50.9962 8.50989 50.2554 8.21327 50.6612 8.56744C51.0021 8.86259 50.4443 8.9777 50.7202 9.17249C50.8973 9.29793 51.7533 9.5857 50.766 9.86756C50.8008 9.98129 50.8504 10.0899 50.9136 10.1907C51.1942 10.5342 51.5502 10.8084 51.954 10.9921C52.3332 11.178 52.7184 11.3581 53.1006 11.5396C51.4611 11.8067 50.0975 11.3581 49.0409 10.0284C49.2386 10.8356 49.3847 11.5366 48.6808 12.1254C48.4063 12.3527 48.7634 12.4471 48.8815 12.5416C49.7144 13.1822 50.6704 13.6443 51.6898 13.8993C52.956 14.2431 54.262 14.2859 55.5606 14.342C56.7132 14.3922 57.7078 14.7404 58.2967 15.7764C58.8855 16.8124 59.1718 17.9516 59.4772 19.0879C59.5156 19.2355 59.5879 19.4642 59.3828 19.5454C59.1777 19.6266 59.129 19.3683 59.0021 19.2724C58.9666 19.3049 58.9297 19.3344 58.8928 19.3654C59.3666 19.6413 59.52 20.0221 59.4905 20.5917C59.4536 21.2809 59.5894 21.9745 60.3509 22.5323C60.1915 21.8682 60.0454 21.3517 59.9495 20.8337C59.8639 20.3615 59.3592 19.8007 60.1516 19.4274C60.4468 20.2272 60.5132 21.0329 60.5944 21.8328C60.7257 23.0739 61.3647 24.1748 61.5477 25.3996C60.8792 25.3613 60.6888 24.861 60.528 24.3312C60.3996 23.9077 60.3922 23.4458 60.0572 22.9145C60.0218 23.9726 60.3022 24.7518 60.8615 25.441C61.009 25.6269 61.2083 25.7819 61.1124 26.0814C60.8851 26.7972 61.0445 27.4893 61.3086 28.1607C61.3988 28.3609 61.4454 28.578 61.4454 28.7975C61.4454 29.0171 61.3988 29.2341 61.3086 29.4343C60.6926 28.553 60.3868 27.4919 60.4394 26.4179C60.3119 26.8457 60.2708 27.2946 60.3184 27.7385C60.366 28.1824 60.5015 28.6123 60.7169 29.0034C60.8438 29.2454 61.0563 29.4372 60.922 29.7944C60.7672 30.2091 60.6989 30.6511 60.7213 31.0932C60.7436 31.5352 60.8561 31.9681 61.0518 32.3651C61.2555 32.7608 61.3234 33.2124 61.2452 33.6505C61.0976 34.3691 61.254 35.0598 61.3927 35.7578C61.408 35.8913 61.4652 36.0166 61.5561 36.1155C61.6471 36.2144 61.7671 36.2819 61.8989 36.3083C61.9137 35.47 61.8148 34.6481 62.107 33.7744C62.473 34.4739 62.5173 35.2103 62.9924 35.8331C63.3245 34.9757 63.1326 34.0622 63.596 33.1561C63.7436 34.198 63.8734 35.1173 64.2675 35.96C64.4475 36.3466 64.415 36.689 64.0948 36.9561C63.7746 37.2232 63.4514 37.086 63.1769 36.8292C62.7342 36.416 62.4258 36.5886 62.1705 37.0432C62.0737 37.184 61.9878 37.332 61.9137 37.4859C61.6997 38.0762 61.3455 38.3462 60.6888 38.1706C60.3302 38.0747 59.951 38.1706 59.6042 38.302C59.2146 38.4495 58.7099 38.5971 58.6553 39.0221C58.5918 39.5017 59.1836 39.4958 59.4831 39.7083C59.516 39.7376 59.5457 39.7702 59.5717 39.8057C59.4241 40.1009 59.191 40.1466 58.8884 40.0669C58.7084 40.0212 58.4664 39.9194 58.3306 40.0905C57.8879 40.6808 57.15 40.6115 56.5789 40.8963C56.3443 41.0129 55.8927 40.9391 55.9812 41.3626C56.0624 41.7552 56.4859 41.7345 56.7781 41.6932C57.5204 41.6097 58.2337 41.3573 58.8633 40.9553C58.9327 41.2372 58.822 41.4364 58.7364 41.6356C58.6508 41.8349 58.5343 42.0238 58.7364 42.1625C58.9091 42.282 59.039 42.068 59.1673 41.9692C59.2585 41.8881 59.3428 41.7997 59.4197 41.705C59.4772 41.6607 59.5009 41.5132 59.5924 41.5899C59.6838 41.6666 59.6189 41.7552 59.5097 41.7906C59.5097 42.2436 59.2529 42.5683 58.943 42.8546C58.3527 43.3947 58.0753 43.3859 57.4776 42.8457C57.3876 42.7646 57.274 42.6642 57.1559 42.7454C57.0379 42.8266 57.091 42.9535 57.0984 43.0789C57.1485 43.8743 56.8032 44.1621 56.0462 43.9776C55.6521 43.8817 55.295 43.7002 55.1253 43.3106C55.0646 43.1388 54.9524 42.99 54.8039 42.8843C54.6555 42.7787 54.4781 42.7214 54.2959 42.7203C54.0005 42.7069 53.7132 42.6191 53.4607 42.465C52.8699 42.063 52.2282 41.7414 51.5526 41.5087C50.5874 41.1427 49.972 41.612 49.1988 41.733C49.8776 42.1758 50.6996 42.2067 51.3681 42.5594C52.2053 43.029 53.1666 43.2299 54.1218 43.135C54.2694 43.1187 54.417 43.101 54.4937 43.2826C54.8449 44.1178 55.478 44.5694 56.4328 44.562C56.1509 45.1376 55.7628 45.2792 55.2832 45.1685C54.749 45.0446 54.4671 44.6358 54.3063 44.1577C54.1749 43.7696 53.9728 43.6559 53.5551 43.6721C52.59 43.709 51.5644 43.8817 50.8604 42.9181C50.797 42.831 50.5801 42.8708 50.4458 42.8192C50.0591 42.6716 49.674 42.5122 49.2962 42.3425C48.7797 42.1108 48.9804 41.6046 48.9567 41.1723C48.2189 41.3612 47.6197 41.615 47.1741 42.1374C47.8234 42.9431 48.9066 42.7174 49.5618 43.1601C49.6179 43.6028 48.5598 43.5452 49.3272 44.0219C49.7432 44.3042 50.2385 44.4464 50.7409 44.4277C51.4788 44.3805 52.345 44.348 52.6785 45.3397C52.7553 45.5685 53.0357 45.66 53.26 45.7647C53.8783 46.0599 54.5321 46.1115 55.202 46.0983C55.4382 46.0983 55.7363 46.0053 55.8528 46.2975C56.0388 46.7653 56.4077 47.0501 56.8608 47.3172C56.2882 47.5179 55.8676 47.3615 55.6462 46.9365C55.4249 46.5115 55.1784 46.5026 54.7608 46.5867C53.4164 46.8568 52.5782 46.4687 52.0455 45.2881C51.8536 44.8616 51.7267 44.8586 51.3799 45.0903C50.3602 45.7692 49.3345 45.8592 48.3473 45.0092C48.2947 44.9575 48.23 44.9197 48.1592 44.8994C48.0883 44.879 48.0134 44.8767 47.9414 44.8926C47.1091 45.0844 46.2635 45.2497 45.5493 45.7647C45.1936 46.02 45.1789 46.234 45.626 46.4273C46.6646 46.8834 47.8027 47.0653 48.9317 46.9557C49.3242 46.9202 49.5397 46.8789 49.3345 46.42C49.2652 46.2621 49.1988 46.0112 49.4821 45.9315C49.6415 45.8872 49.851 45.8385 49.9558 46.0141C50.4694 46.8686 51.3932 46.8863 52.1975 47.0899C53.4223 47.3999 54.8125 47.1962 55.723 48.3517C55.3024 48.8446 54.7741 49.1383 54.2207 48.5081C53.7514 47.9739 53.2157 47.9178 52.5738 47.9842C51.5319 48.0846 50.4989 48.0743 49.7005 47.2198C49.6327 47.1531 49.5463 47.1083 49.4526 47.0914C49.091 47.0206 47.6817 47.512 47.7112 47.7127C47.8042 48.4225 48.3945 48.6705 48.9656 48.7561C50.375 48.9816 51.754 49.3678 53.0755 49.9071C53.1198 49.9248 53.1744 49.9071 53.2231 49.9278C54.1484 50.2082 55.084 49.975 56.1111 49.9278C55.2094 50.4974 53.3736 51.1541 52.4055 50.9726C50.9111 50.6912 49.4444 50.2784 48.0226 49.7389C47.4707 49.5293 47.0427 49.395 46.5321 49.6533C46.179 49.821 45.8408 50.0185 45.5212 50.2436C44.84 50.7756 44.0064 51.0755 43.1424 51.0995C42.5286 51.1061 41.9292 51.2857 41.4128 51.6175C41.0634 51.8518 40.6552 51.9829 40.2347 51.996C39.8143 52.009 39.3986 51.9034 39.0354 51.6913C38.7137 51.5127 38.4982 51.5717 38.2341 51.7237C37.6438 52.0646 37.0682 52.4528 36.444 52.7228C35.4686 53.1434 34.5005 52.6638 34.1861 51.6441C33.7892 51.8374 33.3907 52.0189 33.0056 52.2225C31.521 53.0106 30.6621 52.7745 29.7589 51.3238C29.7265 51.3519 29.6925 51.3814 29.6615 51.4109C29.2616 51.7961 28.8794 52.2004 28.4588 52.559C28.1489 52.8217 27.7593 52.8822 27.3491 52.8453C26.6953 52.7877 26.3161 51.9599 25.8468 52.0115C25.2565 52.0794 24.6662 52.4336 24.0095 52.3627C23.8626 52.348 23.7179 52.3158 23.5786 52.2668C23.1196 52.106 22.7979 51.8241 22.8761 51.2899C22.9661 50.6701 22.6622 50.6922 22.2371 50.8649C21.607 51.1202 20.9783 51.1025 20.298 51.0198C19.4362 50.915 19.3786 50.3912 19.358 49.7522C19.3447 49.3493 19.4288 49.1796 19.8435 49.4688C20.4058 49.8584 21.0034 50.1816 21.762 50.1978C20.937 49.4142 20.8455 49.2637 20.5814 48.2425C20.3541 48.3458 20.1386 48.4476 19.9129 48.5376C18.8297 49.0054 17.714 48.6734 17.379 47.5681C17.1384 46.6996 16.7511 45.8785 16.2339 45.1405C16.1958 45.0772 16.1674 45.0086 16.1497 44.9369C16.1369 44.8772 16.1033 44.8239 16.0549 44.7867C16.0066 44.7494 15.9466 44.7304 15.8856 44.7332C15.2717 44.7332 14.6578 44.7022 14.0453 44.7184C13.6897 44.7273 13.6277 44.9221 13.8461 45.1995C14.4143 45.9182 15.372 46.2635 15.676 47.2656C15.7734 47.5902 16.8035 47.3512 16.4552 48.2071C16.9673 48.3546 16.9171 48.8564 17.1193 49.2091C17.4366 49.764 17.7775 50.3897 18.4578 50.6169C18.9581 50.7808 19.3108 50.9224 19.6251 51.4906C20.1283 52.4011 21.1849 53.0976 22.1619 53.0652C23.7202 53.015 24.7223 53.9978 25.9648 54.5291C26.2718 54.659 26.5714 54.8051 26.9565 54.9822L26.4813 53.5064C26.4813 53.4459 26.4813 53.3839 26.4813 53.3234L26.6171 53.409C27.5734 54.2591 28.5725 55.0323 29.8932 55.5031C29.5199 54.5734 28.8602 53.8798 28.813 52.7656C29.3959 53.6097 29.8859 54.3373 30.5189 54.9497C31.1722 55.601 31.9973 56.053 32.8978 56.2528C31.0915 54.2782 30.7506 53.7676 30.7211 53.015C33.4793 55.8499 34.3972 56.48 35.5379 56.3029C34.4046 55.388 33.4409 54.3564 32.9687 52.9471C33.7273 53.7445 34.5257 54.503 35.3608 55.2198C35.9954 55.7392 36.599 56.3487 37.4977 56.4003L37.5479 56.331C36.8656 55.6906 36.2322 55 35.653 54.265L35.4759 54.0805C35.5969 54.0052 35.6914 54.0215 35.7504 54.1617C37.0343 55.0471 38.1987 56.1495 39.8633 56.3265C38.8022 55.537 37.6615 54.8508 37.0299 53.6201C36.9384 53.5581 36.8129 53.4651 36.9015 53.3677C37.0196 53.2364 37.0742 53.4208 37.1524 53.4784C38.2606 54.3284 39.366 55.1784 40.6794 55.7082C41.5486 56.0594 42.2776 56.055 43.1055 55.7082C41.3346 55.0309 39.6921 54.1794 38.5691 52.5841C39.6965 53.1744 40.7517 53.8709 41.8939 54.4184C43.0745 54.9851 44.292 55.2862 45.7456 54.9364C44.1222 54.321 42.6672 53.6968 41.5884 52.4587C41.553 52.41 41.4763 52.3347 41.4881 52.3111C41.5574 52.2019 41.6356 52.2727 41.705 52.3244C43.1911 53.1552 44.686 53.9565 46.4746 53.8399C45.3146 53.3721 44.261 52.7863 43.5467 51.6824C45.6423 52.5354 47.6788 53.6599 50.1285 52.7804C49.5825 52.5723 49.0955 52.4114 48.6291 52.2048C47.9577 51.9097 47.7673 51.7223 47.4367 51.1334C49.643 52.1192 51.8285 51.889 54.0406 51.3784C53.6656 51.8787 53.2516 52.3484 52.8025 52.7833C51.3787 54.179 49.6876 55.2728 47.8308 55.9989C47.1391 56.2416 46.5694 56.7446 46.2429 57.4009C46.4819 57.4599 46.6015 57.3094 46.7417 57.2267C47.0752 57.0305 47.3851 56.7088 47.7053 57.2754C47.8721 57.5706 48.027 57.2577 48.1746 57.1795C48.8697 56.8106 49.5633 56.4417 50.3366 56.024C50.0709 56.9478 49.4437 57.3374 48.8003 57.7064C48.1849 58.0591 47.5637 58.4029 46.9438 58.7512C48.8697 58.912 50.1108 57.5071 51.7282 56.7191C51.4419 57.5721 50.7542 58.0118 50.4 58.8884C50.946 58.6361 51.3401 58.4605 51.7282 58.273C51.8344 58.2214 51.9348 58.0974 52.0233 58.273C52.0379 58.3164 52.0419 58.3626 52.035 58.4077C52.028 58.4529 52.0104 58.4958 51.9835 58.5328C51.8542 58.6762 51.7051 58.8004 51.5408 58.9017C50.62 59.4225 49.6592 59.8691 48.6675 60.2372C46.1824 61.1492 43.65 61.8945 41.1103 62.653C40.3488 62.8803 39.5888 63.1179 38.8273 63.3496C39.0887 63.4409 39.369 63.4643 39.6419 63.4174C43.253 62.9747 46.6546 61.8074 49.9912 60.4188C50.5774 60.1636 51.1205 59.8191 51.6013 59.3975C52.044 59.0212 52.4646 58.4634 53.1139 59.1024C53.2467 59.2323 53.3397 59.0301 53.4223 59.0537C53.9905 59.2219 54.2104 58.4855 54.8095 58.5224C54.657 58.8681 54.4302 59.1759 54.1453 59.4241C53.8605 59.6723 53.5244 59.8546 53.1611 59.9583C52.2343 60.2535 51.2751 60.4099 50.3779 60.8438C48.3901 61.8 46.3108 62.5497 44.2462 63.3363C47.0339 62.8832 49.7625 62.2251 52.2993 60.9456C52.8276 60.68 53.3323 60.3878 53.9226 60.2845C54.5601 60.1723 55.1253 59.8875 55.6935 59.585C57.0984 58.8309 58.6892 58.552 60.1207 57.8569C56.7265 60.4335 52.6653 61.589 48.8195 63.2108C53.4297 62.3844 57.6739 60.5678 61.7764 58.3778C61.8517 58.3247 61.924 58.2657 61.9993 58.3778C61.9993 58.3778 61.9122 58.4472 61.8665 58.4841C60.1103 59.8668 58.0812 60.7567 56.0742 61.6776C55.0146 62.1631 53.9123 62.5512 52.7553 63.0057C53.3013 63.112 53.7307 62.9245 54.1617 62.8065C57.4159 61.9077 60.5723 60.6867 63.5842 59.1614L64.2601 58.7187C64.2926 58.7645 64.3236 58.8117 64.3545 58.8589L63.7126 59.2913C61.4341 60.8836 58.912 61.9742 56.3029 62.8847L54.3018 63.4838C54.9869 63.522 55.6719 63.4097 56.3088 63.1548C59.3902 62.3682 62.3593 61.2363 65.3374 60.1384C63.63 61.4931 61.6097 62.2044 59.5953 62.9747C59.8521 63.0765 60.0572 62.9747 60.2697 62.9172C62.1637 62.422 64.0022 61.7347 65.7565 60.8659C69.3159 59.0567 71.7376 56.3266 72.5596 52.3465C72.812 51.1334 72.9507 49.8953 73.1396 48.669C73.3576 50.5984 73.1132 52.552 72.4268 54.3683C72.322 54.6427 71.9959 54.8966 72.2276 55.2537C72.8669 53.9575 73.2469 52.5488 73.3462 51.1069C73.5897 47.4589 72.9403 43.9629 71.5236 40.6115ZM59.0094 15.4296C59.4595 16.5025 59.8949 17.5797 59.9598 18.7692C59.2057 17.7893 58.9681 16.6515 59.0094 15.4296ZM72.2792 46.2399C72.0044 45.1786 71.8524 44.0893 71.8262 42.9933C72.2177 44.0281 72.3725 45.1375 72.2792 46.2399ZM70.9334 44.5015C71.2285 45.1759 71.14 45.8533 70.9334 46.5336V44.5015ZM70.6279 49.004C70.7208 48.4712 70.7415 47.9223 71.0632 47.4648C71.2742 48.0979 70.9762 48.5583 70.6279 49.004ZM70.6485 42.9181C70.2767 42.3868 70.2058 41.7729 70.1128 40.9907C70.557 41.677 70.5689 42.3071 70.6485 42.9181ZM69.2776 35.9378C69.4399 36.9856 70.0066 37.9434 69.9003 39.0561C69.2023 38.1219 69.1625 37.0446 69.2776 35.9378ZM70.0656 49.9411C70.0878 50.6642 69.7321 51.2249 69.2805 51.7429C69.3654 51.0803 69.6378 50.4541 70.0656 49.9411ZM69.8354 45.5699C69.6878 46.603 70.0464 47.7348 69.1787 48.8166C69.3764 47.6079 69.6982 46.6044 69.8354 45.5699ZM69.1507 54.991C70.3239 53.6186 70.532 51.8536 71.1296 50.2436C70.9097 52.0145 70.6146 53.7573 69.2377 55.084C69.2377 55.1637 69.1905 55.2404 69.1168 55.1991C68.9839 55.1253 69.0902 55.053 69.1507 54.991ZM68.8688 40.2883C69.1861 41.2756 69.0001 42.0843 68.7921 42.8944C68.5591 42.0373 68.5858 41.1303 68.8688 40.2883ZM68.7862 43.5615C68.9337 43.5866 68.9603 43.7238 68.9337 43.8478C68.8481 44.3598 68.7566 44.8704 68.3434 45.4489C68.4335 44.8011 68.491 44.3244 68.5707 43.8522C68.5869 43.74 68.5559 43.5275 68.7862 43.5615ZM59.6824 49.5943L59.4994 49.6238C59.2957 49.975 59.0567 50.2775 58.5151 50.3853C58.7453 49.9263 59.129 49.7713 59.4123 49.5175C59.5009 49.457 59.585 49.4127 59.6366 49.4703L59.6632 49.457L59.6868 49.5943H59.6824ZM60.9485 50.8058C60.7906 51.5024 60.2741 51.8772 59.5525 52.3111C59.9033 51.7154 60.3797 51.2032 60.9486 50.8103L60.9485 50.8058ZM63.7141 45.142C63.1931 46.0805 62.9629 47.208 61.9506 47.816C62.6737 47.0132 62.96 45.9226 63.7141 45.1464L63.7141 45.142ZM62.0435 45.9005C62.1911 45.3102 62.4626 44.9575 62.7165 44.531C62.6988 45.0475 62.6855 45.0726 62.0435 45.9049L62.0435 45.9005ZM64.4637 48.3237C64.3796 48.8177 64.1354 49.2704 63.7687 49.612L63.6728 49.82C63.6152 49.8865 63.6285 50.0931 63.4853 49.9809C63.3894 49.9071 63.4853 49.7905 63.6049 49.7477L63.6978 49.5367C63.8706 49.0871 64.131 48.6763 64.4637 48.3281L64.4637 48.3237ZM64.1966 46.6472C64.297 46.234 64.6143 45.9566 64.9183 45.477C64.9714 46.1484 64.5051 46.3831 64.3014 46.7446C64.235 46.8199 64.2025 47.0176 64.0933 46.9379C63.9841 46.8583 64.0299 46.7048 64.1966 46.6502L64.1966 46.6472ZM62.1705 49.7891L61.8502 50.0665C61.851 50.0768 61.851 50.0872 61.8502 50.0975C61.8439 50.0905 61.838 50.0831 61.8325 50.0754L61.6849 50.155C61.7012 50.1004 61.7026 50.0148 61.7381 49.9986C61.7536 49.991 61.771 49.988 61.7882 49.9898C61.7484 49.8274 62.0376 49.8156 62.0465 49.674C62.6501 49.1132 62.8759 48.2587 63.7141 47.5991C63.4218 48.4628 62.8856 49.2234 62.1705 49.7891ZM60.1295 46.4347L62.0185 44.0514C61.7956 45.1848 61.0755 45.902 60.1295 46.4347ZM61.6392 46.4524C61.438 46.9496 61.1116 47.3863 60.6918 47.7201L60.5575 47.8234V47.6581C60.7744 47.1283 61.2304 46.8081 61.6392 46.4524ZM62.6501 51.2249C62.2811 52.0115 61.7646 52.6298 60.7316 52.9501L62.6501 51.2249ZM63.993 51.7119C63.6668 52.5428 63.1326 53.1626 62.2221 53.4105C62.8832 52.9309 63.354 52.2344 63.993 51.7119ZM64.9994 52.8497C64.9117 53.2144 64.7436 53.5547 64.5047 53.844C64.2654 54.1332 63.9631 54.364 63.6211 54.5188L64.9994 52.8497ZM64.4637 50.8516L65.5469 49.1206C65.5912 49.9396 65.088 50.434 64.4637 50.8516ZM65.603 51.4817C65.6738 51.3947 65.7506 51.3091 65.817 51.2235C66.12 50.6981 66.423 50.1737 66.726 49.6503C66.6965 50.3366 66.3674 50.8634 65.9203 51.3282L65.6871 51.5304C65.6871 51.6426 65.6443 51.6913 65.5292 51.6382L65.603 51.4817ZM67.6366 52.9442C67.1245 53.9491 66.3586 54.383 65.6325 54.8626C66.1298 54.1366 66.639 53.44 67.6366 52.9442ZM67.4418 43.436C67.5185 44.0396 67.2544 44.5266 66.9651 45.0062C66.8485 44.3982 67.0551 43.8891 67.4418 43.436ZM67.6144 51.9968L67.6572 51.7518C67.9524 51.0464 68.187 50.3041 68.7404 49.7315C68.6829 50.5594 68.2874 51.2279 67.762 51.8374C67.7546 51.9303 67.7443 52.0174 67.6144 51.9968ZM67.762 48.7162L68.249 45.9654C68.6725 46.7402 68.491 47.8986 67.7679 48.7177L67.762 48.7162ZM67.9538 54.5719L68.1472 54.2959L68.7626 53.3397C68.8127 53.834 68.525 54.138 68.246 54.4494L68.0601 54.6501L67.9273 54.7431L67.9538 54.5719ZM68.2151 36.1828C68.4143 37.0033 68.4202 37.8371 68.4497 38.7403C67.9848 38.3448 67.9007 37.3634 68.2151 36.1828ZM67.2706 42.2333C67.1466 41.3479 67.4019 40.5067 67.6735 39.5076C68.0055 40.5938 67.7384 41.4276 67.2706 42.2333ZM67.1629 36.2787C67.4211 36.9044 67.182 37.5184 67.126 38.3448C66.7113 37.511 67.0537 36.8985 67.1629 36.2787ZM66.2907 47.8529C66.2656 47.9237 66.3055 48.0743 66.18 48.0256C66.1033 47.9946 66.1402 47.8573 66.2184 47.785C66.3272 47.1064 66.5314 46.4466 66.8249 45.8252C66.94 46.7328 66.7526 47.3305 66.2863 47.8529H66.2907ZM66.7438 39.2125C66.8382 39.791 66.7585 40.3119 66.1623 40.7753C66.1107 40.0832 66.4619 39.6626 66.7393 39.2125H66.7438ZM66.2464 42.8753C66.3335 43.7194 65.941 44.2034 65.5086 44.6461C65.7299 44.1031 65.9542 43.5629 66.2405 42.8767L66.2464 42.8753ZM65.6074 38.8908C65.6488 39.6036 65.6473 40.3045 65.057 40.9893C65.1249 40.1761 65.2769 39.515 65.603 38.8982L65.6074 38.8908ZM65.5986 41.8673C65.5689 42.8603 65.2014 43.8135 64.5567 44.5694C64.7323 43.5054 65.1219 42.7203 65.5941 41.8747L65.5986 41.8673ZM64.6541 41.6711C64.5608 42.512 64.2319 43.3095 63.7052 43.9717C63.7849 42.9505 63.9827 42.4635 64.6541 41.6711ZM65.8347 22.3862C66.0428 23.2097 66.245 24.0243 66.7865 24.7326C67.1407 25.1975 66.8131 25.6977 66.4899 26.1788C65.6458 23.6568 65.3949 21.0138 64.7781 18.4489C65.3108 19.7166 65.4968 21.0698 65.8347 22.3862ZM63.8735 16.8507C63.6329 16.1129 63.4573 15.5786 63.2832 15.043C63.6595 15.5226 63.9546 16.014 63.8735 16.8507ZM62.8183 16.9614C62.408 16.3829 62.2752 15.7218 62.1055 14.8408C62.5113 15.4811 62.7559 16.2103 62.8183 16.9658L62.8183 16.9614ZM60.1738 15.9638C61.0578 17.3923 61.6023 18.4194 61.2939 19.3964C60.5309 18.356 60.2107 17.2536 60.1738 15.9638ZM61.3942 20.1682C61.69 21.5474 62.072 22.9068 62.5379 24.2382C62.6634 24.6116 62.5379 24.9466 62.2251 25.3465C61.623 23.614 61.2319 21.942 61.3942 20.1682ZM63.9487 31.7143C63.506 32.4374 62.2782 32.157 62.197 33.2963C61.2894 32.3872 60.9146 31.1476 61.1493 29.725C61.2732 30.2017 61.3352 30.5558 61.4577 30.8879C61.59 31.2385 61.7806 31.5643 62.0214 31.8515C61.9019 30.4348 62.5379 29.0373 61.9506 27.6206C61.6643 26.9315 61.4355 26.1995 61.5595 25.4233C62.0642 25.5472 62.1498 26.0785 62.5305 26.4135C62.6988 26.3013 62.5394 25.9708 62.8257 25.8999C62.9319 26.3323 63.0323 26.7499 63.1371 27.1661C63.2418 27.5822 63.2123 27.9527 62.7312 28.1238C62.6776 28.1371 62.6274 28.1613 62.5836 28.1949C62.5399 28.2286 62.5036 28.271 62.4771 28.3194C62.4506 28.3678 62.4345 28.4212 62.4297 28.4762C62.4249 28.5312 62.4316 28.5866 62.4494 28.6389C62.5512 29.117 62.6501 29.5966 62.7607 30.0733C62.7932 30.2209 62.8508 30.3965 63.0087 30.395C63.2094 30.395 63.2699 30.1899 63.295 30.0246C63.3319 29.7855 63.3304 29.5391 63.3466 29.2867C63.8085 29.3443 63.5104 30.0334 64.0402 30.0157C64.2557 28.9252 64.4313 27.839 63.8853 26.7529C63.555 26.1173 63.4156 25.3998 63.4839 24.6869C63.5694 23.8708 63.2507 23.1521 63.0013 22.4128C62.6383 21.3384 62.3416 20.2523 62.4538 18.9153C63.0529 20.1077 63.4086 21.1982 63.4868 22.3611C63.5618 23.6075 63.7989 24.8388 64.1922 26.0239C64.516 26.9756 64.666 27.9779 64.6349 28.9827C64.6084 29.6911 64.5508 30.4201 65.1928 30.9513C65.392 31.1166 65.2636 31.3085 65.1721 31.4782C64.9754 31.8159 64.7264 32.1203 64.4342 32.3799L63.9487 31.7143ZM64.4903 38.4687C64.6792 39.5135 64.2749 40.3326 63.534 41.0203C63.7687 40.1392 64.2114 39.3409 64.4903 38.4687ZM63.4411 38.9985C63.5868 38.5779 63.7099 38.1498 63.81 37.7161C63.9841 38.3595 63.7436 38.9188 63.4588 39.4707C63.3614 39.9563 63.0161 40.2573 62.6294 40.5333C62.8168 39.9769 62.9039 39.3733 63.4411 38.9985ZM63.1238 42.0282C63.1029 42.6779 62.8531 43.2994 62.4184 43.7828C62.5315 43.156 62.7716 42.5589 63.1238 42.0282ZM61.5654 43.4375C61.6802 42.7175 61.9344 42.0267 62.3136 41.4039C62.501 42.1728 62.4081 42.4414 61.5654 43.4375ZM62.3343 38.0688C62.4095 38.6871 62.3785 38.7417 61.5477 39.3187C61.8281 38.8126 61.9491 38.3861 62.3343 38.0688ZM61.0622 42.1876C61.102 41.5973 61.4533 41.1206 61.6333 40.5805C61.6495 41.1929 61.5802 41.7773 61.1183 42.2422C61.0947 42.3543 61.1699 42.5491 60.9382 42.4871C60.95 42.3809 60.9412 42.2554 61.0622 42.1876ZM56.8681 44.8203C57.1279 45.0667 57.1205 45.5271 57.5367 45.6083C57.9233 45.6836 58.248 45.5404 58.642 45.3471C58.2465 45.139 57.8879 44.9708 57.5514 44.7671C57.3463 44.6432 57.153 44.4882 57.2445 44.1769C57.336 43.8655 57.5175 43.8389 57.7934 43.8109C58.5196 43.7282 59.1903 43.3821 59.6784 42.8382C60.1666 42.2943 60.4384 41.5903 60.4424 40.8594C60.4424 40.4742 60.2166 40.7797 60.1959 40.7635C59.8919 40.5215 60.1753 40.3503 60.3199 40.0625C61.3411 41.3626 60.1723 42.5285 60.2387 43.836L60.9264 42.5255C61.074 43.1158 60.6106 43.5895 60.5501 44.1488C60.86 44.1842 60.8998 43.7636 61.2747 43.864C60.9545 44.928 60.2682 45.6614 59.3149 46.2252C59.0198 45.1922 58.5534 45.8533 58.1875 46.1263C57.7167 46.4746 57.3315 46.4037 56.9449 46.0363C56.5582 45.6688 56.4904 45.2896 56.8681 44.8203ZM55.9591 48.362C56.21 48.0506 56.6483 48.1421 56.9242 47.8898C57.1662 47.6699 57.5617 47.5607 57.3669 47.0973C57.2814 46.8996 57.4511 46.8878 57.5795 46.8184C57.8392 46.6782 58.031 47.2301 58.3247 46.8479C58.487 46.6354 58.7748 46.5174 59.005 46.3565C58.2199 48.0831 56.9198 48.8741 55.9591 48.3546V48.362ZM56.3723 54.1336C56.8696 53.6466 57.3728 53.167 58.0901 52.9914C57.906 53.2962 57.6563 53.5562 57.3592 53.7525C57.062 53.9488 56.7249 54.0765 56.3723 54.1262L56.3723 54.1336ZM57.0246 55.1401L56.8962 55.2876C56.8622 55.2566 56.8313 55.2242 56.8003 55.1902C56.8063 55.1675 56.8184 55.1467 56.8351 55.1301C56.8519 55.1135 56.8742 55.1001 56.897 55.0942C56.9198 55.0888 56.9436 55.0896 56.966 55.0963C56.9884 55.1031 57.0086 55.1156 57.0246 55.1327V55.1401ZM56.8962 55.2876C56.3723 55.5828 56.0831 55.7008 55.6949 55.6743C56.0831 55.6964 56.3723 55.5813 56.8962 55.2832V55.2876ZM53.2482 55.1445L53.2792 55.1932L53.2452 55.1474L53.2482 55.1445ZM51.0877 55.81C51.8876 55.5636 52.621 55.5046 53.2452 55.1401C53.409 55.5621 53.0327 55.6271 52.801 55.7318C52.2978 55.9812 51.7754 56.1672 51.0877 55.81ZM53.7027 56.4431C53.3648 57.1102 52.6328 57.1958 52.0661 57.5263C52.3258 56.7427 53.1523 56.7988 53.7027 56.4431ZM52.9014 58.2037C52.7686 58.2317 52.5841 58.2302 52.5487 58.0369C52.5133 57.8436 52.6874 57.7831 52.8217 57.7639C53.9565 57.6031 55.0191 57.1721 56.1214 56.877C55.1873 57.665 54.051 57.9558 52.9014 58.2037ZM55.5326 58.7527C55.385 58.7704 55.1445 58.8353 55.0899 58.6198C55.0353 58.4044 55.2375 58.3778 55.4101 58.3085C56.2292 57.972 57.0334 57.6075 57.8495 57.2533C57.6118 57.6707 57.2772 58.0247 56.874 58.2857C56.4708 58.5466 56.0107 58.7068 55.5326 58.7527ZM57.7019 54.9246L59.8698 53.6806C59.4507 54.6619 58.8191 55.0456 57.7019 54.9246ZM59.1777 55.602L61.4842 54.4288C60.9781 55.3127 60.1826 55.6698 59.1836 55.6064L59.1777 55.602ZM62.4508 54.8936C62.2944 56.1598 61.3396 56.4476 60.2682 56.5863L62.4508 54.8936ZM61.713 57.2194L64.9404 55.4485C64.4446 56.6335 63.1105 57.3684 61.7204 57.2238L61.713 57.2194ZM63.751 57.9868C65.1972 57.3315 66.3261 56.452 67.6071 55.5046C67.3311 56.7826 65.4776 57.9484 63.7583 57.9912L63.751 57.9868ZM69.192 57.4688C68.3091 58.3008 67.3074 58.9971 66.2199 59.5348C66.3881 58.9179 66.6626 58.6095 67.0359 58.4073C67.6824 58.0612 68.2684 57.6127 68.7714 57.0792C68.9396 56.8977 69.1949 56.6896 69.4045 56.8844C69.6716 57.1234 69.3514 57.3315 69.1994 57.4732L69.192 57.4688ZM70.1601 56.0993C70.1497 56.0639 70.1217 56.0211 70.132 55.993C70.1556 55.937 70.1955 55.8912 70.2471 55.9561L70.1601 56.0993ZM70.2634 55.937C70.2737 55.419 70.5984 55.0117 70.7873 54.563C71.6092 52.6459 72.0786 50.5963 72.173 48.5125C72.1833 48.275 72.1582 48.0211 72.3427 47.8175C72.6895 49.8658 71.9974 53.8916 70.2708 55.9414L70.2634 55.937Z" fill="#FDF7E6"/>
<path d="M61.7971 49.9898C61.8062 50.0206 61.8207 50.0496 61.8399 50.0754H61.8502C61.8502 50.0252 61.8296 49.9957 61.7971 49.9898Z" fill="#FDF7E6"/>
<path d="M59.5953 49.4924C59.6233 49.5279 59.6529 49.5618 59.6824 49.5943C59.6782 49.5494 59.6604 49.508 59.6337 49.4718L59.5953 49.4924Z" fill="#FDF7E6"/>
<path d="M37.0299 53.623C36.9384 53.561 36.813 53.4681 36.9015 53.3707C37.0196 53.2393 37.0742 53.4238 37.1524 53.4813L37.0299 53.623Z" fill="#AF3830"/>
<path d="M60.5604 47.6581V47.8219L60.6947 47.7186C61.1146 47.3848 61.441 46.9481 61.6421 46.451C61.2304 46.8081 60.7744 47.1283 60.5604 47.6581Z" fill="#AF3830"/>
<path d="M59.6824 49.6002L59.5953 49.4924L59.6632 49.457C59.6706 49.5028 59.6794 49.55 59.6868 49.5943C59.6868 49.5913 59.6824 49.6002 59.6824 49.6002Z" fill="#AF3830"/>
<path d="M41.5884 52.4587C41.553 52.41 41.4763 52.3347 41.4881 52.3111C41.5574 52.2019 41.6356 52.2727 41.705 52.3244L41.5884 52.4587Z" fill="#AF3830"/>
<path d="M63.6093 49.7595C63.6403 49.6887 63.6713 49.6193 63.7008 49.5485L63.7731 49.6238L63.6772 49.8319L63.6093 49.7595Z" fill="#AF3830"/>
<path d="M53.2482 55.1401L53.2792 55.1888L53.2393 55.1356L53.2482 55.1401Z" fill="#AF3830"/>
<path d="M70.0656 49.9411C70.0878 50.6642 69.7321 51.2249 69.2805 51.7429C69.3654 51.0803 69.6378 50.4541 70.0656 49.9411Z" fill="#AF3830"/>
<path d="M68.1531 54.2974L67.9583 54.5734L67.9317 54.7446L68.0645 54.6516L68.2505 54.4509C68.5294 54.1395 68.8172 53.8355 68.767 53.3411L68.1531 54.2974Z" fill="#AF3830"/>
<path d="M59.4123 49.5175C59.5363 49.4319 59.6499 49.3788 59.6824 49.6002L59.4964 49.6282C59.4684 49.5898 59.4404 49.5544 59.4123 49.5175Z" fill="#AF3830"/>
<path d="M26.4725 53.5168C26.4725 53.4563 26.4725 53.3943 26.4725 53.3338L26.6083 53.4194L26.4725 53.5168Z" fill="#AF3830"/>
<path d="M61.772 58.3763C61.8473 58.3232 61.9196 58.2642 61.9949 58.3763C61.9949 58.3763 61.9078 58.4457 61.862 58.4826C61.8299 58.449 61.7999 58.4135 61.772 58.3763Z" fill="#AF3830"/>
<path d="M44.7317 40.6012C44.2019 40.4772 43.7976 40.8447 43.3327 40.9686C42.5329 41.1826 41.8112 41.1044 40.9848 40.5111C42.1552 40.2657 43.3596 40.2287 44.5428 40.4019C44.6048 40.4093 44.6506 40.548 44.7052 40.6262L44.7317 40.6012Z" fill="#AF3830"/>
<path d="M44.7081 40.6262C45.0019 40.6049 45.2936 40.6897 45.5301 40.8653C45.1085 40.883 44.6979 41.0047 44.3347 41.2195C44.2255 41.2859 44.0853 41.4246 44.0396 41.159L44.0588 41.1605C44.3038 40.9981 44.6402 40.9435 44.7376 40.6012L44.7081 40.6262Z" fill="#AF3830"/>
<path d="M39.847 40.2986C39.9385 40.1614 40.1422 40.0965 40.1953 40.1968C40.2839 40.3724 40.0197 40.3193 39.9489 40.4137L39.847 40.2986Z" fill="#AF3830"/>
<path d="M33.2358 46.9453C33.1886 47.1136 33.0454 47.1017 32.9155 47.1165C32.9111 46.8494 33.1295 47.0043 33.2358 46.9453Z" fill="#AF3830"/>
<path d="M45.0092 38.3802C45.0741 38.2606 45.1567 38.209 45.2866 38.2961L45.0992 38.4702L45.0092 38.3802Z" fill="#AF3830"/>
<path d="M30.7123 49.0217L30.8746 48.9228L30.8938 49.0113L30.7123 49.0217Z" fill="#AF3830"/>
<path d="M44.0367 41.159C44.1001 41.1678 44.1842 41.159 44.1724 41.2593C44.1724 41.2918 44.1163 41.3169 44.0868 41.3449C44.078 41.2829 44.0706 41.2239 44.0588 41.1605L44.0367 41.159Z" fill="#AF3830"/>
<path d="M45.0992 38.4702L44.9073 38.5764L44.804 38.4436L45.0092 38.3802L45.0992 38.4702Z" fill="#AF3830"/>
<path d="M40.157 36.3304C38.9587 36.2787 37.7545 36.6388 36.5576 36.3142C37.4851 36.0403 38.4561 35.9466 39.4191 36.0352C39.6936 36.0544 39.9858 36.0574 40.157 36.3422L40.157 36.3304Z" fill="#AF3830"/>
<path d="M38.4982 48.1451L38.6104 48.1879C38.5868 48.213 38.5646 48.2558 38.5381 48.2587C38.5115 48.2617 38.4658 48.2366 38.4289 48.2218L38.4982 48.1451Z" fill="#AF3830"/>
</svg>
