<svg width="80" height="80" viewBox="0 0 80 80" fill="none" xmlns="http://www.w3.org/2000/svg">
<path d="M39.4952 23.295L40.2854 23.5878L40.4205 23.6596C40.6675 23.6995 40.9039 23.7894 41.115 23.9238C41.1987 24.2465 41.4354 24.1628 41.6554 24.127L41.8371 24.176L41.9841 24.2537C43.9219 24.9064 45.8322 25.6452 47.8286 26.1186C49.935 26.6171 52.0449 26.9697 54.1991 26.4186C54.2565 26.4043 54.3186 26.3947 54.3736 26.378C56.6701 25.7265 57.6946 24.4306 57.8404 22.0003C57.9229 20.6853 57.7699 19.3763 57.6611 18.0673C57.5344 16.5335 57.5416 15.0082 57.9516 13.5055C58.217 12.5372 58.6808 11.698 59.471 11.0668C59.898 10.736 60.1793 10.2519 60.2552 9.71716C60.4214 8.74527 60.8374 7.90368 61.7184 7.35975C62.7142 6.74649 63.5116 6.88994 64.1655 7.85466C64.4357 8.25633 64.6437 8.24796 64.8361 7.84032C65.3824 6.64488 66.3555 5.87262 67.4266 5.19242C69.6824 3.75789 71.8665 2.2349 73.6166 0.171575C73.6884 0.0866989 73.7541 -0.0364317 73.9059 0.0376855L73.9203 0.0197538C72.9639 3.31438 71.4266 6.34602 69.5545 9.19834C68.187 11.2808 67.5761 13.5569 67.4171 15.9992C67.3418 17.1396 67.025 18.2287 66.6329 19.2962C66.3537 20.0042 66.2884 20.7786 66.4452 21.5233C66.5767 22.121 66.8935 22.5119 67.5438 22.6147C68.2491 22.7271 68.9652 22.7953 69.6406 23.0595C70.732 23.4862 71.6262 24.1449 72.2108 25.1814C72.4076 25.5072 72.5198 25.877 72.5371 26.2573C72.5563 27.1 72.0757 27.4706 71.2807 27.2256C71.0417 27.1526 70.75 26.9363 70.5802 27.2256C70.3889 27.5483 70.6902 27.7671 70.9137 27.9643C71.0012 28.0461 71.1008 28.1138 71.209 28.1652C72.6746 28.7916 73.6142 29.938 74.3877 31.2817C75.2914 32.8537 76.5395 34.1328 78.0696 35.3211C77.13 35.4932 76.3243 35.3665 75.5246 35.2015C74.2466 34.929 73.093 34.3444 71.9442 33.7455C70.9568 33.2314 69.9681 32.7174 68.8779 32.4389C68.0818 32.2474 67.2579 32.2005 66.4452 32.3002C64.3855 32.519 62.3496 32.2488 60.3066 32.085C59.7918 32.0436 59.2769 31.991 58.7621 31.9272C56.7633 31.6774 55.1758 32.5608 53.6875 33.7443C52.3885 34.7953 51.1694 35.9413 50.0402 37.1728C48.5303 38.795 46.932 40.318 45.0671 41.5314C44.7515 41.737 44.7623 41.8828 45.0098 42.104C45.0786 42.1756 45.1429 42.2514 45.2022 42.3311C46.4288 43.7908 47.7401 44.9444 49.8644 45.0268C52.2493 45.1201 54.547 45.878 56.8458 46.5295C58.627 47.034 60.419 47.0507 62.1727 46.3275C62.9372 46.0317 63.7557 45.9013 64.5743 45.9449C66.9018 46.0167 68.7105 44.9886 70.2634 43.3771C70.4021 43.2337 70.5443 43.095 70.6842 42.9551L70.7739 43.0388C69.4589 47.034 67.3645 50.4733 63.7865 52.8594C62.7214 53.5694 61.5391 53.9508 60.2803 54.1134C59.0526 54.2724 58.3903 55.0231 58.0867 56.1683C57.8297 57.1343 57.8213 58.1372 57.6348 59.1151C57.4399 60.1336 57.1841 61.0995 56.1596 61.6339C55.844 61.7989 55.8393 62.0977 55.9026 62.4181C56.1752 63.7845 56.4262 65.1521 56.3102 66.5615C56.1465 68.5519 55.5296 70.3714 54.3557 71.9912C53.4304 73.2667 52.2422 74.143 50.6391 74.3558C49.8429 74.4621 49.2452 74.8973 48.718 75.4651C47.8167 76.4346 46.7204 77.0395 45.3899 77.1567C44.2028 77.2619 43.0911 77.0216 42.3332 76.033C41.5753 75.0443 40.6094 74.908 39.5095 75.1125C37.2956 75.5249 35.5287 76.7634 33.8731 78.1979C33.2251 78.7598 32.6274 79.3718 32.0297 80.0006C33.1988 76.0031 35.4247 72.614 38.1958 69.5166C37.861 69.3528 37.5909 69.4736 37.3231 69.4867C36.9645 69.5047 36.8449 69.3528 36.9645 69.0169C37.2035 68.3714 37.61 67.831 38.0487 67.3146C39.5777 65.5215 41.4294 64.124 43.4963 63.011C44.2561 62.6194 44.9903 62.1802 45.6948 61.6961C48.62 59.5921 49.9684 54.7948 47.2369 51.1068C44.9655 48.0322 42.002 45.9222 38.4671 44.5558C38.1853 44.4575 37.8798 44.4496 37.5933 44.5331C33.4905 45.4488 29.3651 46.2067 25.1356 46.1338C24.1792 46.1171 23.2324 46.0238 22.2319 45.9629C22.3514 46.4064 22.6909 46.6204 22.9981 46.8475C23.8493 47.4775 24.8463 47.8588 25.7369 48.4219C26.0569 48.6224 26.3666 48.839 26.6646 49.071C26.9311 49.2802 26.9371 49.4571 26.545 49.5145C26.4477 49.5352 26.3515 49.5612 26.2569 49.5922C25.6974 49.7285 25.6425 49.8576 25.9592 50.3621C26.5199 51.2515 27.3005 51.9305 28.1015 52.5916C28.2748 52.735 28.6083 52.8307 28.5366 53.0996C28.4649 53.3686 28.1445 53.3041 27.9162 53.3387C27.0937 53.4583 27.0794 53.5073 27.5886 54.1935C29.0052 56.087 30.9813 56.943 33.249 57.2717C34.2866 57.4136 35.3351 57.4588 36.3811 57.4068C36.3416 57.4726 36.3261 57.5407 36.2902 57.5538C32.4122 59.0111 28.4625 59.6064 24.4554 58.2101C20.6132 56.8724 18.1853 54.1672 17.2827 50.1816C16.93 48.6531 17.1005 47.0505 17.7669 45.6305C17.9522 45.2277 17.8326 45.1631 17.4776 45.0496C15.0401 44.2725 12.6958 43.3078 10.6995 41.6426C9.43349 40.5858 8.49149 39.3067 7.95712 37.6976C6.71148 38.4543 5.7097 37.9546 4.8179 37.0999C3.9261 36.2451 3.15385 35.2768 2.2238 34.458C1.94048 34.2093 1.78268 33.8543 2.12218 33.5195C2.46169 33.1848 2.75696 33.3916 3.00801 33.6391C3.41685 34.0455 3.7946 34.4843 4.19269 34.9003C4.59077 35.3163 4.96972 35.6917 5.35824 36.0873C5.37617 36.0551 5.39649 36.024 5.41203 35.9905C5.41203 35.9905 5.40008 35.9726 5.39291 35.963L5.37139 36.0862C5.49093 35.9547 5.41682 35.8232 5.35943 35.7C4.7139 34.3085 3.89263 33.0557 2.58482 32.1866L2.38279 32.0539C2.06839 31.8376 1.8819 31.559 2.13055 31.2016C2.3792 30.8442 2.72827 30.9099 3.03311 31.1083C3.52179 31.4173 3.96448 31.7935 4.34809 32.2261C4.9134 32.8955 5.42542 33.6082 5.87945 34.3575C5.96791 34.4986 6.00975 34.6923 6.27514 34.776C6.19744 33.2135 5.80533 31.8256 4.66369 30.7306C3.98827 30.0815 3.99424 30.0934 4.4784 29.2805C6.76886 25.442 10.2285 23.0893 14.3061 21.5102C15.6907 20.9605 17.115 20.5165 18.5666 20.182C18.9193 20.1043 19.1883 20.0027 19.3054 19.5544C20.1793 16.2371 22.2761 13.9096 25.2539 12.3029C27.3005 11.1995 29.5109 10.5587 31.7272 9.92516C33.0829 9.53784 34.4361 9.14454 35.7475 8.62333C37.7056 7.8451 39.5287 6.85528 41.023 5.3036C40.8879 6.352 39.6327 8.45238 38.5783 9.42188C38.3739 9.61076 38.1695 9.80084 37.9806 10.0029C37.8431 10.1499 37.7248 10.3244 37.7989 10.5408C37.8885 10.7966 38.1336 10.8253 38.344 10.8182C39.1593 10.7942 39.9758 10.7572 40.7887 10.6986C41.2812 10.6627 41.7701 10.5791 42.3834 10.5002C41.9576 11.4849 41.2878 12.3448 40.4372 12.9986C40.0786 13.2784 39.6709 13.4971 39.2968 13.7601C39.0445 13.9371 38.6763 14.0733 38.7397 14.4607C38.803 14.848 39.1892 14.9388 39.5143 15.0141C40.4637 15.2371 41.4289 15.3866 42.4013 15.4612C42.6129 15.4744 42.8221 15.5234 43.0935 15.564C42.8269 15.9908 42.4635 16.2311 42.1168 16.4869C41.6171 16.8527 41.0588 17.1169 40.5101 17.3979C40.1945 17.5592 39.9124 17.7266 40.3906 18.0589C40.7492 18.31 40.4456 18.4606 40.2531 18.5754C39.3424 19.1148 38.3493 19.5013 37.3135 19.7194C35.9567 20.0171 34.5891 20.2657 33.3471 20.9304C33.0995 21.2376 32.7709 21.4693 32.3984 21.5993C32.0259 21.7292 31.6244 21.7522 31.2395 21.6656C29.7918 21.3308 28.3131 21.3129 26.863 21.0679C26.7753 21.0457 26.6826 21.0545 26.6007 21.0929C26.5188 21.1312 26.4527 21.1967 26.4135 21.2782C25.6962 21.3416 24.9694 21.1719 24.233 21.2962C24.337 21.5616 24.4219 21.7744 24.5056 21.9943C24.3275 22.3816 24.5319 22.7618 24.5283 23.1467C24.5283 23.3464 24.7112 23.6189 24.4339 23.7157C24.1565 23.8126 24.1589 23.4563 24.019 23.3201C24.019 23.1204 24.0298 22.922 24.019 22.7223C23.9605 21.7445 23.3962 21.2233 22.4387 21.2723C21.664 21.3105 20.8846 21.3416 20.1159 21.4253C19.5182 21.4898 18.8942 21.497 18.3228 21.8126C18.5332 22.0445 18.801 22.127 19.04 22.2585C20.7017 23.1718 22.0872 24.3876 22.9109 26.1126C25.0137 30.5118 24.8343 34.8955 22.5666 39.1692C21.4453 41.2815 19.6306 42.5774 17.2397 43.003C17.064 43.034 16.8524 42.9814 16.642 43.1811C18.0036 43.8051 19.3437 44.263 20.7603 44.4961C21.7967 44.6634 21.9988 44.5355 22.2737 43.5218C22.4506 43.4716 22.6323 43.4142 22.8057 43.5218C22.9001 43.9557 22.5439 44.2749 22.4805 44.6873C22.9993 44.7328 23.4895 44.777 23.9784 44.8176C24.6168 44.8714 25.2408 44.8655 25.7369 44.3658C25.976 44.3323 26.221 44.2462 26.4613 44.3753L26.172 44.8535C27.0268 44.771 27.7895 44.6586 28.5533 44.6323C29.42 44.6037 29.7356 44.0131 29.9962 43.3484C30.1158 43.0305 30.1074 42.6838 30.1074 42.3455C30.0799 42.2558 30.0524 42.1662 30.0261 42.0765L29.8779 41.7155L29.7978 41.6019C29.7829 41.5887 29.7709 41.5726 29.7626 41.5544C29.7544 41.5363 29.7501 41.5166 29.75 41.4967L29.6388 41.3568C29.6654 41.159 29.7571 40.9756 29.8994 40.8356C30.1265 40.9934 30.3872 40.9851 30.6454 40.991L30.8331 40.9109L32.0106 40.3897L32.1504 40.2702L32.27 40.1506L32.3895 40.0311C32.429 39.9857 32.4696 39.9414 32.5091 39.896H32.5007C32.7075 39.8637 32.8832 39.6091 33.1211 39.8111C33.2191 40.1638 33.5168 40.1076 33.775 40.1327L33.9424 40.061L34.6716 39.8028L34.772 39.731L35.102 39.5481L35.2502 39.4286L35.3697 39.321L35.4893 39.1943L35.6399 38.9672H36.307C36.2998 39.1584 36.5054 39.1931 36.5724 39.3258L36.5544 39.9701L36.1755 39.7012C36.2185 39.6378 36.2675 39.5553 36.1671 39.5207C36.1145 39.5027 36.0356 39.5601 35.9675 39.584C35.6292 39.584 35.5443 39.9606 35.2633 40.0431L35.1438 40.1423C35.138 40.156 35.1274 40.1672 35.114 40.1738C35.1006 40.1804 35.0853 40.1819 35.0709 40.1781C34.6513 40.2272 34.2173 40.2379 33.946 40.6444C33.9233 40.6982 33.8683 40.7639 33.8838 40.8022C34.3082 41.8434 34.3034 42.8571 33.6172 43.8553C34.3488 43.7214 34.986 43.5636 35.6327 43.4967C36.5317 43.401 36.9477 42.8643 37.1163 42.0502C37.243 41.4262 37.2717 40.8117 36.8246 40.2798C37.139 40.1267 37.4116 40.2272 37.6614 40.4256C38.0559 41.2995 37.9997 42.1602 37.4785 43.0914C38.2986 42.8523 38.9967 42.6527 39.6901 42.4387C39.9136 42.3694 40.1264 42.2618 40.344 42.1709C40.6464 42.0885 40.9261 41.9115 41.2561 41.9402L42.7886 41.2373L42.9082 41.1548C42.922 41.1403 42.9387 41.1288 42.9572 41.1212C42.9758 41.1136 42.9957 41.11 43.0158 41.1106L43.1497 41.0209L43.3887 40.8799L43.5011 40.7902C43.5104 40.7755 43.5236 40.7636 43.5392 40.7558C43.5548 40.748 43.5722 40.7446 43.5896 40.746L43.7414 40.6264L43.7342 40.6324L43.8609 40.5129L43.9805 40.373H43.9697C44.2925 40.2977 44.6499 40.2869 44.8209 39.9235L45.3923 39.5446L45.5346 39.425L45.6625 39.3198L45.6744 39.3126L45.7737 39.2278C45.7827 39.2115 45.7961 39.1981 45.8124 39.189C45.8286 39.1799 45.8471 39.1756 45.8657 39.1764C45.9264 39.167 45.9837 39.1421 46.032 39.1042C46.0804 39.0664 46.1182 39.0167 46.1418 38.96C46.2124 38.8942 46.2805 38.8225 46.3558 38.7627C47.4999 37.853 47.507 37.7418 46.4897 36.6372L46.3989 36.556L46.3797 36.544L46.2447 36.4496L45.5381 36.1973C45.6469 35.9224 46.0773 36.183 46.1442 35.8387L46.3833 35.9487C46.4096 36.0682 46.3582 36.2631 46.5734 36.2105C46.6929 36.1818 46.6415 36.0563 46.5865 35.9714C46.6164 35.8817 46.6714 35.8303 46.773 35.8518L46.9655 35.7586L47.2046 35.6187C47.4664 35.6187 47.6601 35.7036 47.7067 35.9905V35.9845L47.5692 36.1041C47.4401 36.1914 47.091 35.8973 47.1663 36.3372C47.4712 36.6958 47.6445 37.1262 47.8776 37.5565C49.0887 36.5922 50.2124 35.5229 51.2356 34.3611C51.703 34.3097 51.7604 33.7909 52.1047 33.5984C52.2936 33.2852 52.5829 33.0796 52.8662 32.8597C53.6074 32.2739 53.6827 32.0324 53.4161 31.1311C53.3095 30.813 53.1564 30.5125 52.9618 30.2393C53.2009 30.2118 53.2977 30.0576 53.3205 29.8388C53.9552 30.348 54.0222 31.1143 54.1812 31.871C54.437 31.7228 54.6498 31.6164 54.8446 31.4825C55.2439 31.21 55.7675 31.0617 55.8667 30.4819C56.3019 30.4329 56.419 30.1448 56.4071 29.7647C56.688 28.7342 57.1243 27.7324 57.0717 26.6003L56.1967 26.91C55.9696 26.9303 55.6288 26.678 55.593 27.161L55.6026 27.1502L55.4615 27.2256L55.2224 27.2901C54.553 27.0295 53.6372 27.2339 53.1782 27.7444L51.385 27.8556L50.7598 27.7539L49.5991 27.5866C48.9284 27.1849 48.2458 26.8586 47.4473 27.2279L47.3277 27.1323C47.2811 27.0128 47.2082 26.9482 47.0827 27.0379C46.554 26.9668 46.0356 26.8336 45.5381 26.641C45.2178 25.9237 44.6954 26.3696 44.2423 26.4162L44.0929 26.1975C44.0785 26.0863 44.0929 25.9584 43.959 25.9094C43.8478 25.8699 43.7916 25.9596 43.745 26.0457C43.5155 26.0636 43.3314 25.9357 43.1341 25.8508C42.999 25.2411 41.8968 24.341 41.2011 24.4581C40.2794 24.6123 39.6972 24.1055 39.0493 23.6548C38.6632 23.3858 38.8365 23.2651 39.1593 23.1658L39.3278 23.2149L39.4952 23.295ZM44.9882 74.0258C44.9464 74.0784 44.9034 74.1298 44.8603 74.1824C44.9572 74.2482 45.0265 74.2207 45.0731 74.1191L45.1927 73.9995C49.6493 70.0043 51.6743 65.1604 50.3414 59.2442C50.3343 59.3458 50.3175 59.5383 50.3044 59.7319C50.1597 61.8526 50.0402 63.9758 49.4126 66.0295C48.5201 68.9252 47.0486 71.6095 45.0875 73.9194L44.9882 74.0258ZM32.3883 40.7591C32.1492 40.7675 31.9723 40.8595 31.9101 41.1094C31.7285 41.2721 31.4941 41.3638 31.2503 41.3676L31.0781 41.4417L30.7661 41.4883L30.478 41.5708C30.8653 42.5475 30.8068 43.4835 30.1624 44.4399C30.8797 44.3203 31.4965 44.2008 32.1217 44.1171C32.9669 44.0047 33.359 43.3939 33.5419 42.6945C33.6469 42.3393 33.6587 41.963 33.5763 41.6018C33.4938 41.2407 33.3197 40.9068 33.0709 40.6324C32.8701 40.4101 32.692 40.3933 32.5091 40.642L32.3883 40.7591ZM49.4903 48.9921C49.4735 48.9264 49.4329 48.8869 49.3707 48.9323C49.3576 48.9407 49.3994 49.0232 49.4162 49.071C50.607 50.5806 51.557 52.2654 52.2326 54.0656C52.8363 55.7212 53.4783 57.3602 54.3844 58.8796C54.4764 59.035 54.4824 59.2968 54.7634 59.2789C54.5565 59.353 54.7634 59.4414 54.7634 59.518C54.7895 59.5222 54.8161 59.5222 54.8423 59.518C54.8574 59.4734 54.8563 59.4249 54.839 59.3811C54.8217 59.3373 54.7894 59.301 54.7478 59.2789C53.954 57.0075 53.2894 54.6968 52.247 52.5258C51.5871 51.1594 50.7395 49.915 49.4939 48.9909L49.4903 48.9921ZM31.7404 20.7797C32.0261 20.7499 32.1349 20.5705 32.1385 20.3016C32.1743 20.2633 32.2102 20.2263 32.2473 20.1892L32.3752 20.0541C32.4631 19.9072 32.5936 19.7905 32.7493 19.7194L32.8593 19.6238C33.7392 18.8384 34.8366 18.4451 36.0129 17.9501C33.7499 17.925 30.0285 18.989 29.4105 20.292L31.7404 20.7797ZM63.0346 9.392C62.7202 9.34657 62.7262 9.63826 62.6509 9.79725C62.2257 10.7383 61.9325 11.7335 61.7794 12.7548C61.4518 14.6974 61.4937 16.6782 61.1876 18.6232C61.0777 19.3201 60.9402 20.0135 60.8159 20.7092C61.0242 20.4148 61.1908 20.093 61.3108 19.7529C61.9946 17.9095 62.2265 15.9813 62.3974 14.0375C62.5337 12.4774 62.5445 10.8971 63.0466 9.38841C63.0143 9.36331 62.9593 9.33701 63.0466 9.31668L63.0346 9.392ZM64.1643 23.1539C64.7178 22.2788 65.2772 21.4074 65.5068 20.3171C65.398 20.3673 65.3466 20.3733 65.331 20.4008C64.1691 22.5179 62.4178 24.0433 60.4417 25.369C59.4294 26.0516 58.5884 26.9586 57.9839 28.0193C57.8751 28.207 57.5977 28.3983 57.8416 28.678C57.8823 28.9171 57.9217 29.149 57.9612 29.3845C57.9133 29.5041 57.7221 29.5459 57.8081 29.7432C58.642 29.5681 59.445 29.2696 60.1907 28.8573C61.4548 28.1949 62.7532 27.6004 64.0806 27.0761C65.7471 26.4127 67.4362 25.8675 69.429 26.2836C68.5444 25.6739 67.7076 25.6727 66.8504 25.7444C65.8941 25.8245 65.0023 26.1676 64.0926 26.4354C63.7339 26.3493 63.3299 26.372 63.0824 26.0182L65.863 23.803C65.3968 23.809 65.1278 24.0971 64.7799 24.1509C63.967 24.1449 63.9694 24.1509 64.2061 23.3882C64.2312 23.3189 64.187 23.2316 64.1679 23.1551L64.1643 23.1539ZM36.0189 74.0653C36.497 73.3767 37.1175 72.816 37.7271 72.2494C39.4414 70.6606 41.4737 69.5764 43.5597 68.5925C47.0265 66.956 49.152 64.2997 49.813 60.503C49.8501 60.2866 49.9111 60.0619 49.7616 59.7965C49.3851 60.595 49.0264 61.3231 48.6941 62.0678C47.4783 64.7815 45.586 66.8412 42.8998 68.1586C41.8702 68.6781 40.8783 69.2693 39.9315 69.9278C38.491 70.9057 37.1653 72.0079 36.1982 73.4807C36.087 73.6504 35.8742 73.807 36.0272 74.0605L36.0117 74.039L36.0189 74.0653ZM48.3474 49.1786L48.2147 49.1535L48.2769 49.2527C49.195 50.7709 49.9326 52.3609 50.3354 54.1014C50.9642 56.8127 51.3791 59.561 51.7305 62.3177C52.0569 64.8664 52.1441 67.4258 51.7568 69.984C51.66 70.6224 51.336 71.2261 51.4604 71.8967C51.4444 71.8979 51.4285 71.8979 51.4125 71.8967C51.4066 71.8967 51.4006 71.8872 51.3934 71.8812L51.4568 71.9003C51.4998 71.77 51.5357 71.6373 51.5847 71.5106C52.541 69.054 53.1388 66.5041 52.8052 63.8813C52.3629 60.4038 51.8871 56.9179 51.0264 53.5109C50.5972 51.8133 49.7306 50.3226 48.3474 49.1786ZM57.0514 54.2293C55.275 52.8247 54.553 50.643 53.1603 48.9395C53.6624 49.2109 54.131 49.5277 54.6211 49.805C56.4358 50.8319 58.2851 51.7297 60.4704 51.5276C61.6455 51.4189 63.1278 50.9036 63.7877 50.2533C59.9623 51.5683 56.7573 50.4864 53.8488 47.982C57.3873 49.5552 60.8541 49.4894 64.3257 47.6508C64.0292 47.5205 63.8296 47.6066 63.624 47.6592C61.6182 48.1903 59.5279 48.3235 57.471 48.0513C56.064 47.86 54.7406 47.3627 53.4065 46.9144C52.1669 46.5008 50.8961 46.2271 49.5811 46.2522C49.5596 46.465 49.6815 46.5247 49.7616 46.5988C51.6672 48.3549 53.3874 50.2629 54.7634 52.478C55.2786 53.3112 56.0879 53.8779 57.0514 54.2293ZM11.9379 32.9888C12.6309 32.979 13.2931 32.7009 13.7852 32.2128C14.2773 31.7248 14.5609 31.0648 14.5763 30.372C14.5792 30.024 14.5128 29.679 14.3808 29.3571C14.2489 29.0351 14.0541 28.7427 13.8079 28.4969C13.5616 28.2511 13.2689 28.0569 12.9467 27.9255C12.6245 27.7942 12.2794 27.7284 11.9315 27.7319C11.5835 27.7355 11.2398 27.8084 10.9204 27.9463C10.601 28.0843 10.3123 28.2845 10.0711 28.5353C9.82999 28.7861 9.64126 29.0825 9.51597 29.4071C9.39068 29.7317 9.33135 30.078 9.34144 30.4257C9.3465 31.1097 9.62275 31.7638 10.1095 32.2443C10.5964 32.7248 11.2539 32.9926 11.9379 32.9888ZM34.8414 12.4846C31.1666 13.0692 27.8098 14.3782 25.0842 17.0332C24.3883 17.693 23.8208 18.4761 23.4106 19.3428C23.2384 19.717 23.3137 19.8282 23.7274 19.8019C24.1656 19.7773 24.6051 19.7845 25.0423 19.8234C25.3783 19.8509 25.5899 19.7624 25.7596 19.448C27.059 17.0057 29.0758 15.3166 31.481 14.0363C32.5712 13.4577 33.7117 13.0034 34.8414 12.4846ZM49.244 47.8421C49.1125 47.6987 48.9894 47.5468 48.8483 47.4129C47.1639 45.8087 45.2823 44.4243 43.6242 42.7926C43.5262 42.6969 43.421 42.575 43.2656 42.673C42.4408 43.2158 41.4725 43.4202 40.4922 43.8254C43.1473 45.8505 46.155 46.9025 49.244 47.8421ZM37.4785 15.307C37.2069 15.2571 36.9327 15.2224 36.6572 15.203C34.1325 15.166 31.7237 15.6585 29.475 16.8312C28.2425 17.4744 27.181 18.3219 26.4243 19.5186C26.2545 19.7875 26.2832 19.8927 26.6036 19.9298C27.098 19.9728 27.5897 20.043 28.0764 20.1402C28.423 20.2191 28.637 20.133 28.8367 19.8557C29.2156 19.3438 29.6493 18.8748 30.1301 18.457C31.4917 17.2436 33.0087 16.3136 34.8079 15.8749C35.6949 15.6549 36.6022 15.5688 37.4785 15.307ZM58.1931 26.1234C59.4616 25.4245 60.5313 24.4141 61.3012 23.1874C62.5146 21.2639 63.1757 19.1288 63.7148 16.9412C64.4871 13.8056 64.8337 10.5038 67.1194 7.91683C66.8522 8.07272 66.6076 8.26459 66.3926 8.48705C65.3454 9.5737 64.7811 10.9269 64.2803 12.3125C63.563 14.2933 63.1386 16.359 62.505 18.3638C61.6682 21.0069 60.5553 23.4874 58.5601 25.4838C58.3657 25.6467 58.2357 25.8734 58.1931 26.1234ZM15.0544 39.7478C17.1536 39.9438 19.5971 38.2893 20.4339 36.2081C21.1966 34.3169 20.6634 30.7545 19.4286 29.7706C20.2164 34.0515 19.4525 37.6402 15.0544 39.7478ZM30.735 11.5175C27.3675 11.6681 21.4859 16.6172 20.7447 19.8389C21.0235 19.8226 21.3031 19.825 21.5815 19.8461C22.1673 19.9238 22.4315 19.6489 22.5809 19.1109C22.875 18.0783 23.3707 17.1141 24.0394 16.2741C24.8905 15.1982 25.9664 14.2969 27.1164 13.5091C28.2258 12.7488 29.4344 12.1559 30.735 11.5175ZM42.7635 65.8215C46.0677 64.9154 48.2243 62.8329 49.3122 59.6291C50.2769 56.7888 50.4526 54.0106 48.6822 51.389C50.5112 57.7487 48.8316 62.6691 42.7635 65.8215ZM71.3023 31.4873C69.0309 29.7264 66.5014 28.8442 63.6 29.2315C61.8475 29.4706 60.1452 29.9559 58.4082 30.2691C57.7041 30.3959 57.061 30.7234 56.419 31.3522C58.1476 30.9768 59.7125 30.6266 61.2821 30.299C63.2318 29.8914 65.1876 29.5531 67.1828 30.005C68.6161 30.3289 69.9646 30.8872 71.3023 31.4873ZM25.7417 55.9006L25.8349 55.781C25.499 55.5132 25.1571 55.2538 24.8272 54.9777C22.0083 52.6143 19.8757 49.8624 19.7465 45.9784C19.7465 45.8684 19.7848 45.713 19.6342 45.676C19.4477 45.6281 19.4142 45.7955 19.364 45.9246C18.9133 47.04 19.0293 48.1517 19.4298 49.2444C20.5774 52.3752 22.9635 54.3274 25.7417 55.9006ZM18.581 45.3998C18.4273 45.5904 18.3193 45.8137 18.2654 46.0525C17.7872 47.646 17.9498 49.2109 18.5655 50.7207C20.1339 54.5664 23.1213 56.7266 27.0459 57.7332C27.481 57.8443 27.9317 57.8957 28.374 57.9723C28.337 57.8527 28.288 57.818 28.2342 57.8013C28.1206 57.7642 28.0046 57.7379 27.8911 57.7045C25.9784 57.1354 24.1266 56.3991 22.5427 55.1498C19.6378 52.857 18.1196 49.9389 18.6216 46.1506C18.6515 45.9294 18.7029 45.6939 18.581 45.3998ZM57.7065 25.1276C58.8135 24.427 59.5344 23.2938 59.881 21.9788C60.425 19.9083 60.2564 17.8366 59.9468 15.7625C59.8619 15.1923 59.8631 14.6005 59.5881 13.894C59.2654 15.6166 59.3598 17.1791 59.4614 18.7391C59.6013 20.9053 59.2498 22.9363 57.942 24.7307C57.8569 24.8589 57.7783 24.9914 57.7065 25.1276ZM23.6963 51.4332C23.7286 51.3734 23.7692 51.3292 23.7596 51.3137C23.6795 51.1774 23.5923 51.0471 23.5038 50.9156C22.5116 49.4284 21.4895 47.9557 21.2588 46.1123C21.211 45.725 20.8906 45.8218 20.6551 45.7919C20.3574 45.7561 20.4291 45.9999 20.422 46.1589C20.3987 46.5568 20.4453 46.9557 20.5594 47.3376C21.0962 49.0913 22.2988 50.3298 23.6963 51.4332ZM50.9391 49.1786C52.3498 50.7673 53.0455 52.9036 54.7992 54.2293C53.4125 52.6215 52.8303 50.3944 50.9391 49.1786Z" fill="#AF3830"/>
<path d="M26.4568 44.3604C26.2177 44.2325 25.9786 44.3174 25.7323 44.3508C26.3671 43.5344 26.4328 42.9163 25.9857 42.2409C25.7694 41.9181 25.4454 41.8715 25.1095 41.8249C24.7305 41.7711 24.8154 42.1226 24.7114 42.3031C24.3719 42.8697 23.8937 43.2056 23.2291 43.2594C23.0462 43.275 22.8071 43.1901 22.8011 43.5081C22.6242 43.4005 22.4425 43.4579 22.2691 43.5081C22.2691 43.3491 22.256 43.1901 22.25 43.0299C22.5776 43.0765 22.9015 43.1841 23.235 43.0418C23.394 42.9737 23.4646 42.896 23.3414 42.7382C24.0587 42.4274 24.2452 42.1142 24.1902 41.4232C24.1352 40.7323 23.7204 40.5673 23.1358 40.5685C23.0763 40.566 23.0173 40.5564 22.9601 40.5398C22.8023 40.5015 22.5465 40.5721 22.574 40.3007C22.5967 40.0616 22.8202 40.1501 22.9589 40.1572C23.4013 40.1706 23.8331 40.0199 24.1711 39.7341C24.611 39.3969 24.6218 39.0479 24.2081 38.6653C24.0778 38.5458 23.9607 38.4406 24.079 38.272C24.1974 38.1035 24.3671 38.1908 24.501 38.272C24.7544 38.4286 24.9947 38.5912 25.3127 38.608C25.7435 38.63 26.1688 38.5042 26.5182 38.2513C26.8676 37.9984 27.1201 37.6337 27.2338 37.2177C27.449 36.3617 27.0425 35.5309 26.2069 35.1376C26.0599 35.0683 25.8817 35.0181 25.9391 34.8148C25.9965 34.6116 26.1997 34.6678 26.342 34.6953C26.7365 34.7802 27.1226 34.8352 27.5123 34.669C27.8182 34.5459 28.0804 34.3343 28.2653 34.0612C28.4501 33.7882 28.5493 33.4662 28.55 33.1364C28.5332 32.4299 28.1244 31.9302 27.3366 31.6122C27.1788 31.5489 26.8524 31.5848 26.9397 31.2883C27.0174 31.0217 27.2804 31.0839 27.5016 31.1329C28.0634 31.2596 28.4364 31.6469 28.7651 32.0761C28.9624 32.3355 29.064 32.2972 29.2433 32.0581C29.5521 31.6397 29.7265 31.1372 29.7434 30.6174C29.7603 30.0976 29.6188 29.5849 29.3378 29.1473C28.8249 28.3846 28.0598 28.167 26.9266 28.4706C26.7951 28.5065 26.6528 28.6057 26.5679 28.4252C26.483 28.2447 26.5847 28.1228 26.7484 28.051C26.9332 27.9779 27.0996 27.865 27.236 27.7204C27.3723 27.5758 27.4752 27.403 27.5374 27.2142C27.865 26.2651 27.5291 25.1186 26.7341 24.5364C26.3264 24.2298 25.8282 24.0674 25.3181 24.075C24.808 24.0826 24.3149 24.2596 23.9164 24.5783C23.8208 24.6524 23.7443 24.7982 23.5208 24.6978C23.6905 24.228 23.8579 23.7678 24.024 23.3075C24.1639 23.4438 24.1436 23.8048 24.4388 23.7032C24.7341 23.6016 24.5309 23.3338 24.5333 23.1342C24.5333 22.7493 24.3325 22.3691 24.5106 21.9818C24.7022 22.3318 24.7771 22.7338 24.7246 23.1294C24.703 23.3685 24.7078 23.506 25.0127 23.4785C25.8865 23.3996 26.6683 23.6243 27.3127 24.2424C27.4573 24.381 27.5398 24.3954 27.6713 24.2017C28.3742 23.1808 27.8578 21.188 26.4185 21.2657C26.4577 21.1842 26.5238 21.1187 26.6057 21.0804C26.6876 21.042 26.7803 21.0332 26.868 21.0553C28.318 21.3064 29.7968 21.3243 31.2445 21.653C31.6278 21.7389 32.0274 21.7162 32.3985 21.5873C32.7695 21.4585 33.0973 21.2287 33.3449 20.9238C33.2863 21.2825 33.6186 21.2036 33.7752 21.2586C35.4022 21.8336 37.0388 22.3847 38.6706 22.9477C38.8379 23.0051 38.9933 23.0924 39.1547 23.1653C38.8319 23.2645 38.6586 23.3852 39.0447 23.6542C39.6938 24.1049 40.276 24.6106 41.1965 24.4575C41.8923 24.338 42.9897 25.2406 43.1295 25.8502C42.4374 25.7307 41.8373 25.341 41.1642 25.164C41.1152 25.127 41.0602 25.0947 41.0208 25.164C41.0112 25.1808 41.0519 25.2274 41.0698 25.2597C41.3459 26.1288 41.3615 26.9787 40.8726 27.7892C40.8247 27.8681 40.7183 27.9877 40.857 28.0283C41.4716 28.2164 42.0508 28.5048 42.5713 28.8819C42.6227 28.9177 42.7829 28.803 42.8905 28.7528C43.8839 28.2877 44.3011 27.4892 44.2377 26.4145C44.6908 26.3679 45.2132 25.9232 45.5336 26.6392C45.2945 26.7002 45.0387 26.3774 44.8713 26.583C44.6788 26.8221 44.9036 27.1748 44.7362 27.4856C44.6358 27.6733 44.9538 27.7175 45.0853 27.8012C46.1456 28.4814 46.5449 29.3624 46.319 30.5507C46.2867 30.7205 46.0871 30.9392 46.3357 31.0707C46.4396 31.1287 46.5563 31.1599 46.6752 31.1616C46.7941 31.1633 46.9116 31.1353 47.0171 31.0803C47.4679 30.8671 47.8363 30.512 48.0659 30.0693C48.2954 29.6266 48.3734 29.1209 48.2879 28.6296C48.2102 28.1813 47.9113 27.8538 47.6842 27.4856L47.5897 27.3756C47.5419 27.3242 47.4953 27.2728 47.4487 27.2202C48.2472 26.852 48.9298 27.1784 49.6005 27.5788L48.3309 27.4294C48.8593 28.0749 49.0936 28.8006 48.9442 29.5692C48.8461 30.0665 49.0637 30.0964 49.4152 30.1311C49.5429 30.1427 49.6717 30.1275 49.7931 30.0863C49.9146 30.0451 50.0261 29.9789 50.1205 29.892C50.8246 29.3206 50.9668 28.589 50.7612 27.7486L51.3864 27.8502V28.0893C51.2526 28.1144 51.1031 28.1407 51.0948 28.3092C51.0852 28.5161 51.2549 28.5388 51.408 28.5675C51.4283 28.9046 51.604 29.0456 51.9447 29.0552C52.5783 29.0827 53.0983 28.5495 53.1856 27.7402C53.6446 27.2298 54.5603 27.023 55.2298 27.286C54.8592 27.3959 54.491 27.5095 54.1192 27.6147C53.9554 27.6601 53.7032 27.6147 53.6912 27.8371C53.6793 28.0594 53.9447 28.0498 54.0965 28.0833C55.0409 28.2865 55.7558 28.7874 56.222 29.6374C56.2531 29.696 56.3415 29.7199 56.4097 29.7569C56.4216 30.1407 56.3045 30.4288 55.8693 30.4742C55.7103 29.7796 55.2716 29.2919 54.6906 28.9201C53.8538 28.381 53.39 28.5149 52.8281 29.4126L52.9632 29.5119C53.1147 29.5764 53.2407 29.689 53.3219 29.8322C53.2991 30.051 53.2023 30.2052 52.9632 30.2327L52.9489 30.216L52.8473 30.1132L52.711 29.9996C52.6656 29.9637 52.6201 29.9279 52.5735 29.8932L52.4623 29.8346L52.3631 29.7653H52.3524L52.24 29.7318C51.8539 29.7091 51.4438 29.2979 51.0912 29.6984C50.8322 30.0062 50.5526 30.2962 50.2544 30.5662C51.3518 31.2704 51.7546 31.9171 51.928 33.1783C51.9483 33.3265 51.8288 33.5608 52.1121 33.605C51.7678 33.7975 51.7104 34.3223 51.243 34.3677C51.3326 33.9391 51.3456 33.4979 51.2812 33.0647C51.1127 31.9518 50.3811 31.3158 49.414 30.8555C48.5258 30.4324 48.0631 31.0576 47.5276 31.5381C47.5144 31.5501 47.512 31.574 47.5048 31.5919C48.8928 32.7336 48.992 34.8507 47.7129 35.9983C47.6662 35.7114 47.4738 35.6229 47.2108 35.6265C47.3148 35.507 47.4224 35.3874 47.5228 35.2679C48.5401 34.0294 47.8539 32.0833 46.2879 31.7294C46.1736 31.7008 46.0538 31.7038 45.9411 31.7382C45.8284 31.7725 45.7272 31.8368 45.6483 31.9243C45.4176 32.1347 45.6424 32.2829 45.7141 32.4407C46.0894 33.2906 46.2783 34.1621 46.0297 35.0862C45.9579 35.354 45.8731 35.6253 46.1492 35.8417C46.0823 36.1884 45.6519 35.9278 45.5431 36.2003C45.1427 36.449 44.833 36.822 44.3895 37.0228C44.3406 37.0426 44.2973 37.0744 44.2639 37.1153C44.2305 37.1562 44.2079 37.2049 44.1982 37.2569C44.1886 37.3088 44.1922 37.3624 44.2087 37.4125C44.2252 37.4627 44.2541 37.5079 44.2927 37.544C44.8964 38.235 45.01 39.0574 44.8259 39.9349C44.6549 40.2935 44.2975 40.3091 43.9747 40.3844C44.0393 40.18 44.1146 39.9767 44.1672 39.7687C44.3537 39.0252 44.2425 38.3509 43.6711 37.7963C43.5384 37.6672 43.4164 37.5392 43.2419 37.7688C42.6446 38.5635 41.7869 39.123 40.8188 39.3491C41.5181 40.1692 41.4846 41.0419 41.2647 41.9408C40.9347 41.9122 40.655 42.0891 40.3525 42.1716C40.8845 40.9845 40.7817 40.0353 40.0788 39.3922C39.8756 39.2057 39.7572 39.177 39.5635 39.4137C39.077 40.0114 38.4064 40.2852 37.67 40.4262C37.4153 40.2278 37.1428 40.1274 36.8332 40.2804L36.5654 39.972L36.5726 39.324C37.5026 39.9038 37.8206 39.8978 38.6801 39.281C39.9748 38.3521 40.4015 36.0294 39.5169 34.706C39.3363 34.443 39.101 34.2219 38.8272 34.0581C38.7148 33.9888 38.5964 33.8609 38.459 34.0019C37.7644 34.7192 36.8296 34.9224 35.884 35.1615C36.8917 36.3689 36.9766 37.6265 36.3048 38.9606H35.6377C35.6796 38.8722 35.7202 38.7825 35.7656 38.6952C36.2235 37.7986 36.2235 36.9021 35.7417 36.0186C35.5779 35.7186 35.3974 35.5536 35.0902 35.9146C34.796 36.2731 34.3843 36.5157 33.9282 36.5996C33.4094 36.6845 33.48 36.8961 33.5875 37.3002C33.8266 38.1943 33.8744 39.0933 33.1153 39.8201C32.8763 39.6181 32.7017 39.8727 32.4949 39.905C32.6362 39.6672 32.7643 39.4217 32.8786 39.1698C33.2026 38.3497 33.2433 37.5416 32.6551 36.8088C32.3897 36.4777 32.11 36.2697 31.6784 36.6474C31.42 36.8697 31.1004 37.0085 30.7615 37.0455C30.4567 37.079 30.4686 37.1938 30.5774 37.434C31.0556 38.492 30.7914 39.4448 30.1136 40.3222C29.9941 40.4764 29.8112 40.5948 29.8948 40.8327C29.7538 40.974 29.6638 41.1582 29.639 41.3563C29.4358 41.0825 29.1943 41.0538 28.8691 41.1602C28.544 41.2666 28.1722 41.3886 27.8901 41.2941C27.3426 41.1088 27.0258 41.3814 26.6397 41.6527C26.4113 41.8129 26.4209 41.8859 26.5584 42.0975C27.0533 42.8673 26.9564 43.6276 26.4568 44.3604ZM32.1674 22.026C32.1793 22.0595 32.0478 22.0894 32.1674 22.1276V22.0081C32.2259 22.7469 32.6145 23.4845 32.0825 24.2304C32.5917 24.2604 33.0881 24.4025 33.5361 24.6464C34.3132 25.0911 34.3144 25.0899 34.8631 24.3786C34.9138 24.318 34.9605 24.2541 35.0029 24.1874C35.4333 23.4701 35.1918 22.8353 34.3981 22.6154C33.6521 22.4145 32.9085 22.2185 32.1674 22.026ZM35.8409 32.6057C35.7214 31.7246 35.7106 30.6667 34.7567 29.9625C34.4303 29.7235 34.1757 29.6206 33.8565 29.9948C33.5808 30.3152 33.2044 30.5322 32.789 30.6105C32.4076 30.6846 32.2785 30.8436 32.22 31.2584C32.1698 31.617 32.2092 31.7856 32.4889 31.9757C32.7507 32.1618 32.9519 32.4208 33.0675 32.7204C33.4883 33.7162 33.4716 34.6857 32.8775 35.6206C32.8021 35.7401 32.6073 35.8525 32.7472 36.0282C32.8404 36.1477 33.0054 36.1119 33.1416 36.1035C33.2597 36.0963 33.3763 36.0734 33.4883 36.0354C34.8093 35.5847 35.8374 34.1454 35.8409 32.6057ZM39.5468 31.3373C39.5549 31.8954 39.4217 32.4465 39.1595 32.9392C39.0555 33.1221 38.9694 33.2978 39.1894 33.4604C39.5576 33.7401 39.9066 33.9673 40.4338 33.8585C41.5862 33.6194 42.227 32.8842 42.5043 31.8047C42.8809 30.3367 41.9879 28.8747 40.6394 28.6559C40.4243 28.6201 40.2581 28.626 40.0991 28.785C39.8515 29.0168 39.5572 29.1929 39.236 29.3015C38.9622 29.4043 38.9168 29.5011 39.0913 29.7581C39.405 30.2239 39.5655 30.776 39.5504 31.3373H39.5468ZM35.6019 24.3356C37.3711 24.7277 38.3167 26.2292 37.8959 27.9219C37.7393 28.5495 38.135 28.9249 38.7805 28.7587C40.013 28.4479 40.9251 26.9656 40.6 25.7367C40.4446 25.1485 40.1637 24.6608 39.4942 24.4528C38.2844 24.0702 37.1033 23.616 35.8924 23.1868C35.8027 23.5801 35.7106 23.9423 35.6162 24.3356H35.6019ZM34.4064 27.1652C34.3945 26.5269 34.0215 25.7713 33.2731 25.2107C32.7161 24.7935 31.9821 24.7492 31.4896 25.0589C31.2349 25.2202 31.1309 25.3589 31.3031 25.6721C31.6139 26.2483 31.6617 26.8676 31.5421 27.5227C31.4644 27.9745 30.8775 28.2949 31.0532 28.6978C31.2206 29.0815 31.6509 29.366 31.9056 29.751C31.9305 29.7818 31.9511 29.816 31.9665 29.8526C32.0526 30.1371 32.2164 30.1275 32.471 30.0462C33.6306 29.6828 34.4124 28.6511 34.4208 27.1652H34.4064ZM40.1445 38.6641C40.1955 38.6874 40.2501 38.7016 40.3059 38.706C42.0991 38.5458 43.5754 36.7299 43.3531 34.9499C43.2897 34.4407 43.0913 33.9936 42.6681 33.678C42.5258 33.5716 42.3908 33.4389 42.2126 33.6325C41.7094 34.1992 41.0411 34.461 40.3143 34.5973C40.8666 36.0784 40.8594 36.2266 40.1589 38.6641H40.1445ZM36.1936 34.406C36.7456 34.2858 37.2626 34.0404 37.7046 33.6887C39.077 32.632 39.1798 30.4192 37.9186 29.3361C37.658 29.1126 37.4333 28.95 37.1834 29.3744C36.9742 29.733 36.6001 29.9028 36.2211 30.0391C36.0131 30.1132 35.8995 30.1646 36.0191 30.4455C36.5699 31.6969 36.6368 33.1081 36.2068 34.406H36.1936ZM37.2958 27.4354C37.3113 26.2148 36.6371 25.2441 35.6748 25.0051C35.2169 24.8855 34.9229 25.1246 34.6264 25.4139C34.3299 25.7032 34.6599 25.8765 34.7459 26.0774C34.9222 26.4569 35.0206 26.868 35.0352 27.2863C35.0498 27.7046 34.9803 28.1215 34.8308 28.5125C34.6108 29.1269 34.7507 29.4174 35.3962 29.5501C35.5938 29.5792 35.7954 29.5413 35.9689 29.4425C36.8654 29.0313 37.3376 28.3618 37.3089 27.4354H37.2958ZM30.9731 27.0385C30.9659 26.0977 30.6372 25.4533 30.0467 24.9632C29.5135 24.5233 28.8859 24.3655 28.2069 24.589C28.0096 24.6548 27.7813 24.7337 27.9678 25.0493C28.4125 25.7976 28.4352 26.595 28.1435 27.3983C28.0634 27.6183 28.0861 27.7211 28.3085 27.7964C28.7783 27.9651 29.1992 28.2472 29.5338 28.6177C29.6964 28.7886 29.8434 28.8412 30.0371 28.6667C30.5822 28.1873 31.0197 27.6613 30.9863 27.0385H30.9731ZM43.628 36.8291C44.3453 36.4992 44.943 36.1513 45.2885 35.4221C45.897 34.1585 45.2251 32.1454 43.9652 31.6397C43.5527 31.4748 43.2025 31.4007 43.1224 32.0187C43.0753 32.2735 42.98 32.517 42.8414 32.736C42.7291 32.9308 42.747 33.0408 42.9168 33.1866C44.1038 34.1836 44.2138 35.403 43.6412 36.8291H43.628ZM28.0909 21.5036C28.7783 22.2567 28.7365 23.0505 28.5858 23.8825C29.282 23.8351 29.97 24.0563 30.5081 24.5006C31.0759 24.9644 31.0807 24.9644 31.4226 24.3237C31.5091 24.1671 31.5804 24.0026 31.6354 23.8323C31.8506 23.1043 31.5374 22.0392 30.9946 21.8933C30.0461 21.6463 29.071 21.5155 28.0909 21.5036ZM32.74 33.7509C32.6962 33.2549 32.4806 32.7898 32.1303 32.4359C31.9426 32.2446 31.7633 32.1586 31.5529 32.4443C31.281 32.7909 30.9186 33.0557 30.5057 33.2094C30.2571 33.311 30.2391 33.409 30.3276 33.6505C30.6181 34.4514 30.489 35.2105 30.0275 35.9218C29.9486 36.0414 29.7884 36.1717 29.9391 36.3402C29.9943 36.411 30.0688 36.4644 30.1536 36.4941C30.2384 36.5238 30.3299 36.5284 30.4172 36.5076C31.78 36.2027 32.7555 35.1806 32.74 33.7509ZM27.6115 40.5649C27.804 40.7418 28.0156 40.7346 28.238 40.7C29.9235 40.4382 30.7065 38.6367 29.798 37.1447C29.5768 36.7861 29.3832 36.6044 28.9839 36.9176C28.7573 37.0822 28.4868 37.1754 28.2069 37.1854C27.871 37.2081 27.5267 37.8094 27.6988 38.0939C28.2045 38.9499 28.0849 39.7651 27.6068 40.5697L27.6115 40.5649ZM45.7511 30.0283C45.7296 29.2955 45.475 28.6715 44.8342 28.259C44.6238 28.124 44.4242 28.02 44.2186 28.3786C44.0452 28.6822 43.8265 29.0552 43.4284 29.1413C42.894 29.2608 42.8235 29.5226 43.0698 29.9613C43.1163 30.0501 43.1397 30.1492 43.1379 30.2494C43.1379 30.6475 43.2778 30.8759 43.7034 31.0121C43.9915 31.1042 44.3106 31.1401 44.582 31.3134C45.2132 31.7174 45.2634 31.6888 45.5551 30.9667C45.677 30.6702 45.6997 30.3582 45.7511 30.0331V30.0283ZM25.3247 41.3993C25.5064 41.3862 25.6654 41.385 25.822 41.3611C26.8979 41.1973 27.7574 39.807 27.376 38.8399C27.2565 38.5446 27.1501 38.3043 26.8357 38.6976C26.6899 38.8805 26.4926 39.0563 26.2523 39.0826C25.5602 39.1603 25.1131 39.4412 24.6516 40.0485C24.1735 40.6809 24.8441 40.859 24.8321 41.269C24.825 41.6336 25.1693 41.3563 25.3247 41.3993ZM29.5422 32.7025C30.4065 32.6869 31.2158 32.2016 31.4668 31.5549C31.7406 30.8496 31.4788 29.8478 30.8882 29.3242C30.7161 29.1712 30.5296 29.0564 30.3049 29.1987C30.0801 29.3409 30.0945 29.5501 30.1853 29.7677C30.5069 30.5543 30.2941 31.2739 29.9235 31.9816C29.798 32.2207 29.5649 32.406 29.5422 32.7025ZM29.8398 34.4419C29.8256 34.1548 29.7642 33.8721 29.6581 33.605C29.59 33.4532 29.5051 33.2847 29.339 33.2966C29.1728 33.3086 29.1812 33.4999 29.1453 33.6325C29.0111 34.1358 28.7175 34.582 28.3085 34.9045C28.0694 35.1029 27.6163 35.1436 27.5805 35.44C27.5446 35.7365 27.7861 36.0653 27.8698 36.3892C27.9367 36.6486 28.0371 36.6761 28.2822 36.5936C28.7308 36.4374 29.1207 36.1473 29.3992 35.7626C29.6777 35.3778 29.8315 34.9168 29.8398 34.4419Z" fill="#AF3830"/>
<path d="M41.6556 24.1263C41.4356 24.1634 41.1989 24.2459 41.1152 23.9231C41.3101 23.9421 41.4965 24.0122 41.6556 24.1263Z" fill="#AF3830"/>
<path d="M70.6816 42.957L70.8347 42.865C70.8428 42.8805 70.8476 42.8976 70.8488 42.9152C70.85 42.9327 70.8476 42.9503 70.8416 42.9668C70.8357 42.9833 70.8263 42.9984 70.8142 43.0111C70.8021 43.0239 70.7875 43.0339 70.7713 43.0407L70.6816 42.957Z" fill="#AF3830"/>
<path d="M73.9121 0.0422703V0C73.9154 0.00891415 73.92 0.0172918 73.9258 0.0248648L73.9121 0.0422703Z" fill="#AF3830"/>
<path d="M24.0217 23.3051C23.8555 23.7654 23.6882 24.2256 23.5184 24.6954C23.742 24.797 23.8185 24.6512 23.9141 24.5759C24.3125 24.2572 24.8057 24.0802 25.3158 24.0726C25.8259 24.065 26.324 24.2273 26.7318 24.534C27.5267 25.1162 27.8627 26.2626 27.5351 27.2118C27.4729 27.4006 27.37 27.5733 27.2337 27.7179C27.0973 27.8625 26.9309 27.9754 26.7461 28.0486C26.5823 28.1203 26.4759 28.2387 26.5656 28.4228C26.6553 28.6069 26.7939 28.5041 26.9242 28.4682C28.0575 28.1646 28.8226 28.3821 29.3354 29.1448C29.6165 29.5825 29.7579 30.0951 29.7411 30.615C29.7242 31.1348 29.5498 31.6372 29.241 32.0557C29.0653 32.2948 28.9637 32.3331 28.7628 32.0737C28.4341 31.6445 28.0611 31.2572 27.4992 31.1305C27.2781 31.0814 27.0151 31.0193 26.9374 31.2859C26.8501 31.5823 27.1765 31.5465 27.3343 31.6098C28.1221 31.9278 28.5297 32.4275 28.5476 33.134C28.547 33.4637 28.4478 33.7858 28.263 34.0588C28.0781 34.3319 27.8159 34.5435 27.51 34.6666C27.1203 34.8327 26.7342 34.7777 26.3397 34.6929C26.1974 34.6618 25.9978 34.5901 25.9368 34.8124C25.8758 35.0348 26.0563 35.0658 26.2046 35.1352C27.0414 35.5285 27.4466 36.3593 27.2315 37.2152C27.1181 37.6309 26.8663 37.9954 26.5176 38.2485C26.1689 38.5015 25.7443 38.6279 25.314 38.6067C24.996 38.59 24.7557 38.4274 24.5023 38.2708C24.3684 38.1871 24.207 38.0915 24.0803 38.2708C23.9536 38.4501 24.0803 38.5434 24.2094 38.6641C24.623 39.0467 24.6123 39.3957 24.1723 39.7328C23.8344 40.0187 23.4026 40.1694 22.9602 40.156C22.8215 40.1488 22.6015 40.0616 22.5752 40.2995C22.5477 40.5756 22.8036 40.5051 22.9614 40.5386C23.0186 40.5552 23.0776 40.5648 23.1371 40.5672C23.7217 40.5672 24.1377 40.7454 24.1915 41.422C24.2453 42.0986 24.0635 42.4238 23.3427 42.737C23.1803 42.7868 23.0055 42.7774 22.8494 42.7104C22.6934 42.6434 22.5661 42.5232 22.4903 42.3712C22.3823 42.2052 22.265 42.0456 22.1389 41.893C22.0564 41.7866 21.9679 41.636 21.8078 41.7232C21.6057 41.8344 21.7277 42.0006 21.7922 42.1345C21.9381 42.4357 22.0982 42.7322 22.2513 43.0287C22.2572 43.1888 22.2644 43.3478 22.2704 43.5068C21.9954 44.5206 21.7922 44.6485 20.757 44.4811C19.3404 44.2516 18.0003 43.7937 16.6387 43.1661C16.8527 42.9665 17.0642 43.0191 17.2364 42.988C19.6273 42.5624 21.4419 41.2666 22.5633 39.1542C24.8346 34.8805 25.0103 30.4969 22.9076 26.0977C22.0839 24.3726 20.6984 23.1569 19.0367 22.2436C18.7976 22.1121 18.5263 22.0296 18.3195 21.7977C18.8945 21.4821 19.5149 21.4749 20.1126 21.4103C20.8837 21.3267 21.6607 21.2908 22.4354 21.2573C23.3917 21.2083 23.9572 21.7295 24.0157 22.7074C24.0313 22.9094 24.0217 23.1079 24.0217 23.3051Z" fill="#FDF7E6"/>
<path d="M57.0514 54.2287C56.0878 53.8772 55.2785 53.3082 54.7609 52.4738C53.385 50.2586 51.6647 48.3507 49.7592 46.5946C49.6791 46.5205 49.5572 46.4607 49.5787 46.2479C50.8937 46.2228 52.1632 46.4966 53.4041 46.9102C54.7418 47.3585 56.0651 47.8558 57.4686 48.0471C59.5254 48.3197 61.6157 48.1869 63.6215 47.6562C63.8271 47.6036 64.0268 47.5175 64.3232 47.6478C60.8565 49.4864 57.3897 49.5521 53.8464 47.9789C56.7549 50.4893 59.9635 51.5652 63.7853 50.2503C63.1254 50.9006 61.6431 51.4158 60.4679 51.5246C58.2827 51.7266 56.4333 50.8289 54.6186 49.802C54.1285 49.5246 53.6623 49.2043 53.1578 48.9365C54.5529 50.6376 55.2749 52.824 57.0514 54.2287Z" fill="#FDF7E6"/>
<path d="M11.9386 32.988C11.2552 32.9922 10.5981 32.7252 10.1112 32.2457C9.62423 31.7662 9.34726 31.1132 9.34095 30.4298C9.33085 30.082 9.39018 29.7357 9.51547 29.4111C9.64076 29.0865 9.82949 28.7902 10.0706 28.5394C10.3118 28.2885 10.6005 28.0883 10.9199 27.9504C11.2393 27.8124 11.583 27.7396 11.931 27.736C12.2789 27.7324 12.624 27.7982 12.9462 27.9296C13.2684 28.0609 13.5611 28.2552 13.8074 28.501C14.0536 28.7468 14.2484 29.0392 14.3803 29.3611C14.5123 29.6831 14.5787 30.0281 14.5758 30.376C14.5592 31.0679 14.2752 31.7264 13.7835 32.2134C13.2918 32.7004 12.6306 32.978 11.9386 32.988ZM11.5716 31.434C12.1526 31.4244 12.5495 31.0263 12.5435 30.4573C12.5364 29.8596 12.1191 29.4711 11.4999 29.4926C11.3707 29.4959 11.2435 29.525 11.1256 29.578C11.0077 29.6311 10.9016 29.707 10.8133 29.8015C10.7251 29.8959 10.6566 30.007 10.6117 30.1282C10.5668 30.2494 10.5465 30.3784 10.5519 30.5075C10.5555 31.0682 10.9739 31.4483 11.5716 31.434Z" fill="#FDF7E6"/>
<path d="M51.4608 71.8961C51.3413 71.2255 51.6604 70.6218 51.7573 69.9834C52.1446 67.4252 52.0573 64.8657 51.731 62.3171C51.3795 59.5604 50.9647 56.8121 50.3359 54.1008C49.933 52.3614 49.1954 50.7703 48.2773 49.2521C48.3013 49.2282 48.3252 49.2043 48.3479 49.178C49.731 50.3196 50.5977 51.8079 51.0269 53.5102C51.8876 56.9173 52.3634 60.4032 52.8057 63.8807C53.1404 66.5035 52.5367 69.0534 51.5851 71.51C51.5361 71.6367 51.5002 71.7694 51.4572 71.8997L51.4608 71.8961Z" fill="#FDF7E6"/>
<path d="M34.8409 12.4839C33.7112 13.0027 32.5696 13.457 31.4829 14.038C29.0777 15.3183 27.0598 17.0074 25.7615 19.4497C25.593 19.7641 25.3814 19.8526 25.0443 19.8251C24.607 19.7861 24.1676 19.779 23.7293 19.8036C23.3157 19.8299 23.2403 19.7187 23.4125 19.3445C23.8227 18.4778 24.3902 17.6947 25.0861 17.0349C27.8093 14.3775 31.1661 13.0685 34.8409 12.4839Z" fill="#FDF7E6"/>
<path d="M36.3075 38.9654C36.9793 37.6312 36.8945 36.3736 35.8867 35.1662C36.8323 34.9272 37.7671 34.7215 38.4617 34.0067C38.5992 33.8656 38.7175 33.9935 38.8299 34.0629C39.1038 34.2267 39.339 34.4477 39.5197 34.7108C40.4019 36.0341 39.9751 38.3569 38.6828 39.2857C37.8233 39.9026 37.5053 39.9086 36.5753 39.3288C36.506 39.1877 36.3003 39.153 36.3075 38.9654Z" fill="#FDF7E6"/>
<path d="M47.711 35.9899C48.9901 34.8423 48.8909 32.7252 47.503 31.5835C47.5102 31.5656 47.5126 31.5417 47.5257 31.5297C48.0613 31.0515 48.5239 30.4239 49.4121 30.8471C50.3792 31.3074 51.1108 31.9433 51.2794 33.0563C51.3437 33.4895 51.3308 33.9307 51.2411 34.3593C50.2179 35.5211 49.0942 36.5904 47.8832 37.5547C47.6548 37.1244 47.4767 36.6892 47.1719 36.3354C47.24 36.1441 47.5102 36.3007 47.5747 36.1023L47.7122 35.9827L47.711 35.9899Z" fill="#FDF7E6"/>
<path d="M49.244 47.8415C46.1562 46.9018 43.1473 45.8499 40.4922 43.8296C41.4689 43.4243 42.4408 43.2199 43.2656 42.6772C43.421 42.5743 43.5262 42.6963 43.6242 42.7967C45.2823 44.4309 47.1639 45.8128 48.8483 47.4171C48.9882 47.5462 49.1113 47.698 49.244 47.8415Z" fill="#FDF7E6"/>
<path d="M37.479 15.3064C36.6028 15.5682 35.6954 15.659 34.8084 15.8742C33.0093 16.3129 31.4923 17.243 30.1307 18.4564C29.6499 18.8741 29.2161 19.3431 28.8372 19.855C28.6376 20.1324 28.4236 20.2137 28.0769 20.1395C27.5902 20.0424 27.0985 19.9721 26.6041 19.9291C26.2837 19.8921 26.255 19.7869 26.4248 19.5179C27.1815 18.3225 28.2431 17.4737 29.4756 16.8306C31.7242 15.6578 34.1378 15.1653 36.6578 15.2024C36.9332 15.2217 37.2074 15.2564 37.479 15.3064Z" fill="#FDF7E6"/>
<path d="M58.1934 26.1227C58.2373 25.8742 58.3678 25.6494 58.5616 25.4879C60.5591 23.4915 61.6757 21.011 62.5065 18.3678C63.1401 16.3631 63.5669 14.3033 64.2817 12.3165C64.7826 10.9262 65.3469 9.56702 66.3941 8.49112C66.6091 8.26866 66.8537 8.07679 67.1209 7.9209C64.8352 10.5078 64.4909 13.8096 63.7163 16.9453C63.1771 19.1329 62.5209 21.268 61.3027 23.1914C60.5318 24.4166 59.4618 25.4253 58.1934 26.1227Z" fill="#FDF7E6"/>
<path d="M36.0261 74.0551C35.8731 73.8005 36.0859 73.6439 36.1971 73.4741C37.169 72.0014 38.4899 70.8992 39.9304 69.9273C40.8773 69.2692 41.8691 68.6784 42.8987 68.1592C45.5849 66.8442 47.4772 64.7821 48.693 62.0685C49.0253 61.3285 49.384 60.6005 49.7605 59.7971C49.91 60.0625 49.849 60.2872 49.8119 60.5036C49.1509 64.3003 47.0302 66.959 43.5586 68.5932C41.4714 69.577 39.4367 70.6613 37.726 72.25C37.1164 72.8166 36.4983 73.3773 36.0178 74.0659L36.0261 74.0551Z" fill="#FDF7E6"/>
<path d="M15.0547 39.7472C19.4575 37.6396 20.2214 34.0509 19.4336 29.77C20.6685 30.7539 21.2016 34.3127 20.4389 36.2075C19.5974 38.2887 17.1491 39.9432 15.0547 39.7472Z" fill="#FDF7E6"/>
<path d="M26.4575 44.3603C26.9572 43.6263 27.0552 42.8672 26.5567 42.0997C26.4192 41.8881 26.4097 41.8152 26.638 41.655C27.0241 41.3836 27.3409 41.1111 27.8884 41.2964C28.1705 41.3908 28.5543 41.2653 28.8675 41.1625C29.1807 41.0597 29.4341 41.0848 29.6373 41.3585L29.7569 41.4948C29.757 41.5147 29.7613 41.5344 29.7695 41.5525C29.7778 41.5706 29.7898 41.5868 29.8047 41.6L29.8848 41.7136L30.0318 42.0722C30.0581 42.1618 30.0856 42.2515 30.1131 42.3412C30.1131 42.6795 30.1263 43.0262 30.0019 43.3441C29.7413 44.0088 29.4257 44.5994 28.5591 44.628C27.7952 44.6543 27.0325 44.7667 26.1777 44.8492L26.4575 44.3603Z" fill="#FDF7E6"/>
<path d="M45.0879 73.9152C47.049 71.6053 48.5205 68.921 49.413 66.0253C50.0406 63.9715 50.1601 61.8484 50.3048 59.7277C50.3179 59.5341 50.3347 59.3416 50.3418 59.24C51.6748 65.1562 49.6497 69.999 45.1931 73.9953L45.0879 73.9152Z" fill="#FDF7E6"/>
<path d="M30.7361 11.5168C29.4354 12.1552 28.2256 12.7481 27.1139 13.512C25.9639 14.2998 24.888 15.1976 24.0368 16.2771C23.3681 17.1171 22.8724 18.0812 22.5784 19.1139C22.429 19.6518 22.1648 19.9268 21.579 19.8491C21.3005 19.8279 21.021 19.8256 20.7422 19.8419C21.4869 16.6166 27.3685 11.6675 30.7361 11.5168Z" fill="#FDF7E6"/>
<path d="M36.5548 39.9694L36.8226 40.2778C37.2697 40.8098 37.241 41.4242 37.1143 42.0483C36.9505 42.8624 36.5297 43.3991 35.6307 43.4948C34.984 43.5629 34.3468 43.7207 33.6152 43.8534C34.3014 42.8552 34.3062 41.8415 33.8818 40.8002C33.8663 40.762 33.9213 40.6962 33.944 40.6424C34.3548 40.594 34.7442 40.4326 35.0689 40.1762C35.0833 40.18 35.0986 40.1784 35.112 40.1718C35.1254 40.1653 35.136 40.1541 35.1418 40.1403L35.2614 40.0411C35.5423 39.9586 35.6272 39.5773 35.9655 39.5821L36.1735 39.7016L36.5548 39.9694Z" fill="#FDF7E6"/>
<path d="M42.7637 65.821C48.8317 62.6686 50.5113 57.7482 48.6823 51.3884C50.4527 54.0112 50.277 56.7882 49.3123 59.6286C48.2244 62.8348 46.0679 64.9148 42.7637 65.821Z" fill="#FDF7E6"/>
<path d="M47.6914 27.4893C47.9185 27.8574 48.2174 28.185 48.2951 28.6333C48.3814 29.1246 48.304 29.6307 48.0749 30.0739C47.8458 30.517 47.4775 30.8727 47.0267 31.0863C46.9213 31.1414 46.8038 31.1693 46.6848 31.1676C46.5659 31.166 46.4492 31.1347 46.3453 31.0768C46.0967 30.9453 46.2963 30.7265 46.3286 30.5568C46.5546 29.3673 46.1553 28.4863 45.0949 27.8072C44.9634 27.7236 44.6454 27.6793 44.7458 27.4916C44.9132 27.1808 44.6885 26.8234 44.8809 26.5891C45.0483 26.3835 45.3089 26.7086 45.5432 26.6453C46.0421 26.8357 46.5617 26.9666 47.0913 27.035L47.3328 27.1306L47.4523 27.2263C47.4989 27.2789 47.5456 27.3303 47.5934 27.3817L47.6914 27.4893Z" fill="#FDF7E6"/>
<path d="M29.8982 40.8375C29.8145 40.5984 29.9974 40.4788 30.1169 40.327C30.7947 39.4496 31.0542 38.4968 30.5808 37.4388C30.472 37.1997 30.4612 37.0802 30.7649 37.0503C31.1037 37.0133 31.4234 36.8745 31.6818 36.6522C32.1133 36.2745 32.393 36.4825 32.6584 36.8136C33.2466 37.5464 33.2059 38.3545 32.882 39.1746C32.7676 39.4265 32.6395 39.672 32.4982 39.9098H32.5066C32.466 39.9552 32.4253 39.9995 32.3871 40.0449L32.2675 40.1644L32.148 40.284L32.0081 40.4035L30.8354 40.9128L30.6477 40.9929C30.3859 40.9869 30.1253 40.9977 29.8982 40.8375Z" fill="#FDF7E6"/>
<path d="M71.3012 31.4867C69.9635 30.889 68.615 30.3283 67.1817 30.0044C65.1865 29.5525 63.2368 29.8848 61.281 30.2985C59.7114 30.626 58.1466 30.9763 56.418 31.3516C57.0599 30.7228 57.7031 30.3953 58.4072 30.2686C60.1442 29.9554 61.8465 29.4652 63.599 29.2309C66.5003 28.8436 69.0322 29.7258 71.3012 31.4867Z" fill="#FDF7E6"/>
<path d="M31.2512 41.3683C31.495 41.3645 31.7294 41.2728 31.911 41.1101C32.0106 41.0877 32.1044 41.0451 32.1867 40.9848C32.2689 40.9245 32.3379 40.8479 32.3892 40.7598L32.5088 40.6403C32.6917 40.3868 32.8674 40.4083 33.0706 40.6307C33.3194 40.9051 33.4935 41.239 33.576 41.6001C33.6584 41.9613 33.6466 42.3376 33.5416 42.6928C33.3587 43.3922 32.9666 44.0078 32.1214 44.1154C31.4962 44.1991 30.8746 44.3198 30.1621 44.4382C30.8065 43.489 30.865 42.5482 30.4777 41.5691L30.7658 41.4866L31.0778 41.44L31.2512 41.3683Z" fill="#FDF7E6"/>
<path d="M25.7418 55.8998C22.9636 54.3266 20.5775 52.3745 19.4299 49.2436C19.0294 48.151 18.9134 47.0392 19.3641 45.9239C19.4143 45.8044 19.4478 45.6274 19.6343 45.6752C19.7849 45.7123 19.7431 45.8677 19.7467 45.9777C19.8758 49.8617 22.0084 52.6136 24.8273 54.977C25.1572 55.2531 25.4991 55.5125 25.835 55.7803L25.7418 55.8998Z" fill="#FDF7E6"/>
<path d="M18.5823 45.3992C18.7018 45.6932 18.6528 45.9287 18.6229 46.1523C18.1208 49.9406 19.6391 52.8587 22.544 55.1516C24.1279 56.4008 25.9749 57.1372 27.8924 57.7062C28.0119 57.7397 28.1219 57.766 28.2355 57.803C28.2892 57.8198 28.3383 57.8533 28.3753 57.974C27.933 57.8951 27.4823 57.8437 27.0472 57.7349C23.1226 56.7283 20.1352 54.5682 18.5667 50.7225C17.9511 49.2126 17.7837 47.6478 18.2667 46.0543C18.3203 45.8146 18.4283 45.5905 18.5823 45.3992Z" fill="#FDF7E6"/>
<path d="M44.2404 26.4132C44.3037 27.4891 43.8818 28.2865 42.8931 28.7515C42.7855 28.8017 42.6253 28.9165 42.5739 28.8806C42.0535 28.5035 41.4743 28.2151 40.8597 28.0271C40.721 27.9864 40.8274 27.8669 40.8752 27.788C41.3642 26.9775 41.3534 26.1275 41.0725 25.2585L41.1669 25.1616C41.8399 25.3385 42.4401 25.7271 43.1322 25.8478C43.3295 25.9327 43.5136 26.0606 43.7431 26.0427L44.091 26.1945L44.2404 26.4132Z" fill="#FDF7E6"/>
<path d="M57.9711 29.3852C57.9305 29.1461 57.891 28.9142 57.8516 28.6787C58.1851 28.3667 58.5138 28.0499 58.8521 27.7438C60.5879 26.1706 62.6214 24.9405 64.1742 23.1545C64.1898 23.231 64.2376 23.3183 64.2173 23.3841C63.9782 24.142 63.9782 24.1408 64.7911 24.1468C63.096 25.1318 61.5754 26.3715 59.9508 27.4665C61.1462 27.2979 62.0918 26.5914 63.0936 26.014C63.341 26.3727 63.7451 26.3452 64.1037 26.4312C63.4749 26.7038 62.8509 26.9895 62.2149 27.2453C60.7338 27.8371 59.2574 28.4276 57.9711 29.3852Z" fill="#AF3830"/>
<path d="M33.1191 39.8249C33.8782 39.0992 33.828 38.1991 33.5913 37.3049C33.4837 36.9008 33.4132 36.6892 33.932 36.6043C34.3881 36.5204 34.7998 36.2778 35.094 35.9194C35.4012 35.5607 35.5817 35.7233 35.7455 36.0234C36.2237 36.9092 36.2237 37.8034 35.7694 38.6999C35.724 38.7872 35.6834 38.8769 35.6415 38.9653L35.4909 39.1925L35.3713 39.3192L35.2518 39.4268L35.1036 39.5463L34.7736 39.7292L34.6732 39.8009L33.944 40.0747L33.7766 40.1464C33.5148 40.1213 33.2172 40.1775 33.1191 39.8249Z" fill="#FDF7E6"/>
<path d="M41.2584 41.9385C41.4784 41.0395 41.5118 40.1668 40.8125 39.3468C41.7801 39.1215 42.6378 38.5634 43.2357 37.77C43.4102 37.5404 43.5321 37.6684 43.6648 37.7975C44.2362 38.3522 44.3474 39.0264 44.1609 39.7699C44.1083 39.9779 44.033 40.1812 43.9685 40.3856H43.9792L43.8645 40.5195L43.7377 40.639L43.7449 40.633L43.5931 40.7526C43.5757 40.7512 43.5583 40.7546 43.5427 40.7624C43.5271 40.7702 43.5139 40.7821 43.5046 40.7968L43.3863 40.8781L43.1472 41.0192L43.0133 41.1088C42.9933 41.1082 42.9733 41.1118 42.9548 41.1194C42.9362 41.1271 42.9195 41.1385 42.9057 41.1531L42.7862 41.2355L41.2584 41.9385Z" fill="#FDF7E6"/>
<path d="M37.6634 40.4239C38.3998 40.2828 39.0704 40.0043 39.5569 39.4113C39.7506 39.1723 39.869 39.2033 40.0722 39.3898C40.7751 40.033 40.8779 40.9821 40.3459 42.1692C40.1284 42.2601 39.9156 42.3677 39.692 42.437C38.9987 42.651 38.3005 42.8494 37.4805 43.0897C38.0065 42.1585 38.0579 41.2977 37.6634 40.4239Z" fill="#FDF7E6"/>
<path d="M26.411 21.2657C27.8455 21.188 28.3667 23.1784 27.6638 24.2017C27.5323 24.3954 27.4498 24.381 27.3051 24.2424C26.6608 23.6243 25.879 23.4056 25.0051 23.4785C24.7003 23.506 24.6955 23.3649 24.717 23.1294C24.7696 22.7339 24.6946 22.3318 24.503 21.9818C24.4193 21.7654 24.3345 21.549 24.2305 21.2837C24.9693 21.1593 25.6937 21.3291 26.411 21.2657Z" fill="#FDF7E6"/>
<path d="M64.1681 23.1544C62.614 24.9404 60.5818 26.1705 58.846 27.7437C58.5077 28.0497 58.1789 28.3665 57.8454 28.6785C57.6063 28.3988 57.8789 28.2075 57.9876 28.0198C58.5921 26.9591 59.4332 26.0521 60.4455 25.3696C62.4215 24.0438 64.1728 22.5184 65.3348 20.4013C65.3504 20.3738 65.4018 20.3678 65.5105 20.3176C65.281 21.4079 64.7216 22.2793 64.1681 23.1544Z" fill="#FDF7E6"/>
<path d="M22.8017 43.5081C22.8017 43.1901 23.0408 43.275 23.2297 43.2595C23.8944 43.2021 24.3725 42.8662 24.712 42.3031C24.816 42.1274 24.7312 41.7759 25.1101 41.825C25.446 41.8716 25.77 41.9182 25.9864 42.241C26.4335 42.9128 26.3677 43.5344 25.7329 44.3509C25.2368 44.8506 24.6128 44.8566 23.9744 44.8028C23.4855 44.7621 22.9954 44.7179 22.4766 44.6725C22.5399 44.2601 22.8962 43.9409 22.8017 43.5081Z" fill="#FDF7E6"/>
<path d="M57.707 25.1269C57.7799 24.9906 57.8597 24.8581 57.9461 24.73C59.2539 22.9368 59.6054 20.9046 59.4655 18.7384C59.3639 17.1784 59.2695 15.6159 59.5922 13.8933C59.8684 14.5998 59.8672 15.1916 59.9509 15.7618C60.2605 17.8359 60.429 19.9076 59.8851 21.9781C59.5349 23.293 58.814 24.4263 57.707 25.1269Z" fill="#FDF7E6"/>
<path d="M52.7101 29.9997L52.8488 30.1192L52.9504 30.222L52.9647 30.2388C53.1612 30.5109 53.3163 30.8106 53.425 31.1282C53.6916 32.0295 53.6162 32.271 52.8751 32.8568C52.5965 33.0767 52.3025 33.2823 52.1136 33.5956C51.8303 33.5513 51.9498 33.317 51.9295 33.1688C51.7573 31.9076 51.3545 31.2561 50.2559 30.5567C50.5541 30.2867 50.8337 29.9967 51.0927 29.6889C51.4453 29.2884 51.8554 29.6996 52.2415 29.7223L52.3539 29.7558H52.3646L52.4638 29.8251L52.575 29.8837C52.6157 29.9244 52.6611 29.9602 52.7101 29.9997Z" fill="#FDF7E6"/>
<path d="M63.0514 9.38428C62.547 10.8929 62.5362 12.4733 62.3999 14.0333C62.229 15.9771 61.9971 17.9054 61.3133 19.7487C61.1933 20.0888 61.0267 20.4107 60.8184 20.7051C60.9379 20.0093 61.0802 19.316 61.1901 18.619C61.4962 16.6741 61.4543 14.6932 61.7819 12.7506C61.9353 11.7306 62.2285 10.7366 62.6534 9.7967C62.7287 9.63771 62.7227 9.34602 63.0371 9.39145L63.0514 9.38428Z" fill="#FDF7E6"/>
<path d="M57.9703 29.3852C59.2614 28.4288 60.7377 27.8371 62.2129 27.2453C62.8489 26.9895 63.4729 26.7038 64.1017 26.4312C65.0114 26.1634 65.902 25.8204 66.8596 25.7403C67.7167 25.6685 68.5535 25.6697 69.4381 26.2794C67.4453 25.8634 65.7562 26.4085 64.0898 27.072C62.7624 27.5962 61.4639 28.1908 60.1998 28.8532C59.4542 29.2654 58.6511 29.564 57.8173 29.739C57.7312 29.5465 57.9177 29.4999 57.9703 29.3852Z" fill="#FDF7E6"/>
<path d="M46.1434 35.8356C45.8721 35.6192 45.9569 35.3479 46.0239 35.0801C46.2725 34.156 46.0837 33.2869 45.7083 32.4346C45.6366 32.272 45.4118 32.1285 45.6425 31.9181C45.7214 31.8307 45.8226 31.7664 45.9353 31.732C46.048 31.6977 46.1678 31.6947 46.2821 31.7233C47.8481 32.0819 48.5343 34.0233 47.517 35.2618C47.4166 35.3813 47.309 35.5009 47.205 35.6204L46.9659 35.7603L46.7734 35.8535C46.6718 35.8284 46.6168 35.8798 46.5869 35.9731L46.3837 35.9516L46.1434 35.8356Z" fill="#FDF7E6"/>
<path d="M32.2508 20.197L32.1421 20.3093C31.9702 20.4315 31.833 20.5963 31.744 20.7875L29.4141 20.3093C30.0321 19.0063 33.7535 17.9424 36.0165 17.9675C34.8402 18.46 33.7451 18.8533 32.8629 19.6411L32.7529 19.7367C32.5972 19.8078 32.4667 19.9246 32.3788 20.0714L32.2508 20.197Z" fill="#FDF7E6"/>
<path d="M44.8224 39.9325C45.0089 39.0539 44.8929 38.2314 44.2892 37.5417C44.2506 37.5056 44.2217 37.4604 44.2052 37.4102C44.1887 37.36 44.1851 37.3065 44.1947 37.2545C44.2044 37.2026 44.227 37.1539 44.2604 37.113C44.2938 37.0721 44.3371 37.0403 44.386 37.0205C44.8295 36.8196 45.1392 36.4466 45.5396 36.198L46.2426 36.4658L46.3776 36.5602L46.3956 36.5722L46.4876 36.6535C47.5049 37.758 47.4978 37.8692 46.3537 38.779C46.2784 38.8387 46.2103 38.9104 46.1397 38.9762L45.8636 39.1926C45.845 39.1918 45.8265 39.1961 45.8103 39.2052C45.794 39.2143 45.7806 39.2277 45.7715 39.244L45.6723 39.3289L45.6604 39.336L45.5325 39.4412L45.3902 39.5608L44.8224 39.9325Z" fill="#FDF7E6"/>
<path d="M54.7659 59.2782C54.4838 59.2961 54.4778 59.0391 54.3858 58.8789C53.4808 57.3595 52.8389 55.7206 52.234 54.0649C51.5593 52.2644 50.61 50.5793 49.4199 49.0691L49.4916 48.9902C50.7373 49.9143 51.5849 51.16 52.2412 52.5287C53.2872 54.6997 53.9518 57.0164 54.742 59.2878L54.7659 59.2782Z" fill="#FDF7E6"/>
<path d="M52.8301 29.4197C53.3919 28.5219 53.8534 28.388 54.6926 28.9272C55.2676 29.2966 55.7123 29.7843 55.8713 30.4813C55.7721 31.061 55.2485 31.2093 54.8492 31.4818C54.6543 31.6157 54.4415 31.7209 54.1857 31.8704C54.0267 31.1172 53.9598 30.351 53.325 29.8381C53.2438 29.6949 53.1178 29.5823 52.9664 29.5177L52.8301 29.4197Z" fill="#FDF7E6"/>
<path d="M56.4064 29.7604C56.343 29.7209 56.2498 29.697 56.2187 29.6408C55.7525 28.7897 55.0376 28.2888 54.0932 28.0867C53.9414 28.0533 53.6748 28.0688 53.688 27.8405C53.7011 27.6121 53.9522 27.6635 54.1159 27.6181C54.4877 27.5129 54.8559 27.3994 55.2265 27.2894L55.4656 27.2248L55.6067 27.1495L55.5971 27.1603C55.8181 27.1357 56.0275 27.0486 56.2008 26.9092L57.0758 26.5996C57.1201 27.7281 56.6873 28.7275 56.4064 29.7604Z" fill="#FDF7E6"/>
<path d="M23.6961 51.4327C22.2987 50.3293 21.0961 49.0908 20.5593 47.3371C20.4451 46.9552 20.3986 46.5563 20.4218 46.1584C20.429 45.9994 20.3573 45.7555 20.6549 45.7914C20.894 45.8213 21.2108 45.7244 21.2586 46.1118C21.4894 47.9551 22.5115 49.4279 23.5037 50.915C23.5921 51.0465 23.6794 51.1768 23.7595 51.3131C23.7691 51.3287 23.7284 51.3729 23.6961 51.4327Z" fill="#FDF7E6"/>
<path d="M50.7624 27.7474C50.968 28.5842 50.8257 29.3194 50.1216 29.8908C50.0273 29.9777 49.9158 30.0439 49.7943 30.0851C49.6728 30.1263 49.544 30.1415 49.4163 30.1299C49.0648 30.0952 48.8473 30.0654 48.9453 29.5681C49.0947 28.7994 48.8604 28.0738 48.332 27.4282L49.6028 27.58L50.7624 27.7474Z" fill="#FDF7E6"/>
<path d="M63.0862 26.0139C62.0844 26.5913 61.1424 27.2978 59.9434 27.4663C61.568 26.3713 63.0886 25.1316 64.7837 24.1418C65.1316 24.088 65.4005 23.7999 65.8668 23.7939L63.0862 26.0139Z" fill="#FDF7E6"/>
<path d="M50.9395 49.178C52.8354 50.3937 53.4128 52.6208 54.7995 54.2287C53.0458 52.903 52.3525 50.7667 50.9395 49.178Z" fill="#FDF7E6"/>
<path d="M51.3848 28.0868V27.8477L53.1779 27.7366C53.0907 28.5483 52.5706 29.0814 51.9371 29.0516C51.5964 29.0372 51.4206 28.9009 51.4003 28.5638L51.3848 28.0868Z" fill="#FDF7E6"/>
<path d="M35.0675 40.1775C34.742 40.4324 34.3522 40.5921 33.9414 40.6389C34.214 40.2373 34.6479 40.2265 35.0675 40.1775Z" fill="#AF3830"/>
<path d="M56.1974 26.9034C56.0242 27.0428 55.8148 27.1299 55.5938 27.1545C55.6296 26.6715 55.9703 26.9238 56.1974 26.9034Z" fill="#AF3830"/>
<path d="M31.7441 20.7804C31.8332 20.5892 31.9703 20.4245 32.1422 20.3022C32.1386 20.5712 32.0299 20.7505 31.7441 20.7804Z" fill="#AF3830"/>
<path d="M32.3883 40.7585C32.337 40.8467 32.2681 40.9233 32.1858 40.9836C32.1035 41.0438 32.0097 41.0865 31.9102 41.1088C31.9723 40.8602 32.1492 40.7681 32.3883 40.7585Z" fill="#AF3830"/>
<path d="M46.3867 35.9456L46.5899 35.9671C46.6449 36.0531 46.6939 36.1787 46.5768 36.2062C46.3616 36.26 46.413 36.0615 46.3867 35.9456Z" fill="#AF3830"/>
<path d="M44.0928 26.1969L43.7461 26.045C43.7927 25.959 43.8489 25.8693 43.9601 25.9087C44.0892 25.9542 44.0784 26.0857 44.0928 26.1969Z" fill="#AF3830"/>
<path d="M47.5714 36.1023C47.5068 36.3007 47.2366 36.1441 47.1685 36.3354C47.0932 35.8955 47.4518 36.1896 47.5714 36.1023Z" fill="#AF3830"/>
<path d="M36.1748 39.7005L35.9668 39.5809C36.0349 39.557 36.1138 39.4996 36.1664 39.5176C36.2669 39.5546 36.2131 39.6371 36.1748 39.7005Z" fill="#AF3830"/>
<path d="M54.7427 59.2878C54.7843 59.31 54.8166 59.3462 54.8339 59.39C54.8512 59.4338 54.8524 59.4824 54.8372 59.5269C54.8111 59.5311 54.7844 59.5311 54.7583 59.5269C54.7583 59.4468 54.5551 59.3584 54.7583 59.2878H54.7427Z" fill="#FDF7E6"/>
<path d="M47.331 27.1304L47.0859 27.036C47.2115 26.9403 47.2832 27.0013 47.331 27.1304Z" fill="#AF3830"/>
<path d="M45.8613 39.1912L46.1375 38.9749C46.1138 39.0316 46.076 39.0812 46.0277 39.1191C45.9793 39.157 45.922 39.1818 45.8613 39.1912Z" fill="#AF3830"/>
<path d="M49.4229 49.0691C49.4062 49.0213 49.3644 48.9388 49.3775 48.9304C49.4373 48.885 49.4779 48.9245 49.4971 48.9902L49.4229 49.0691Z" fill="#FDF7E6"/>
<path d="M63.0383 9.39259L63.0526 9.3125C62.963 9.33282 63.018 9.35912 63.0526 9.38423L63.0383 9.39259Z" fill="#FDF7E6"/>
<path d="M45.0722 74.1184C45.0255 74.22 44.9526 74.2475 44.8594 74.1817C44.9024 74.1291 44.9454 74.0777 44.9873 74.0251L45.0722 74.1184Z" fill="#FDF7E6"/>
<path d="M5.37229 36.0855L5.40576 35.96C5.41293 35.9695 5.42728 35.9827 5.42489 35.9875C5.40935 36.0209 5.38903 36.052 5.37109 36.0843L5.37229 36.0855Z" fill="#FDF7E6"/>
<path d="M48.277 49.2521L48.2148 49.1528L48.3475 49.1779C48.3248 49.2042 48.3009 49.2281 48.277 49.2521Z" fill="#FDF7E6"/>
<path d="M51.4585 71.9005L51.3926 71.8806C51.4 71.8806 51.4063 71.8955 51.4125 71.8968C51.429 71.898 51.4456 71.898 51.4622 71.8968L51.4585 71.9005Z" fill="#FDF7E6"/>
<path d="M36.0192 74.066L36.0117 74.0325L36.0279 74.0548L36.0192 74.066Z" fill="#FDF7E6"/>
<path d="M45.1947 74.0014L45.0751 74.121L44.9902 74.0277L45.0907 73.9177L45.1947 74.0014Z" fill="#FDF7E6"/>
<path d="M32.3887 40.0413C32.4281 39.9959 32.4688 39.9517 32.5082 39.9062C32.4652 39.9493 32.4245 39.9935 32.3887 40.0413Z" fill="#AF3830"/>
<path d="M35.8407 32.6056C35.8407 34.1453 34.8091 35.5846 33.4881 36.0329C33.3761 36.0709 33.2595 36.0938 33.1414 36.101C33.0052 36.1094 32.8402 36.1441 32.7469 36.0257C32.6071 35.85 32.8019 35.7376 32.8773 35.6181C33.475 34.6832 33.4881 33.7137 33.0673 32.7179C32.9517 32.4183 32.7505 32.1593 32.4887 31.9732C32.209 31.7855 32.1696 31.6145 32.2198 31.2559C32.2783 30.8411 32.4074 30.6821 32.7888 30.608C33.2041 30.5298 33.5806 30.3127 33.8563 29.9923C34.1755 29.6182 34.4301 29.7186 34.7565 29.9601C35.7104 30.6666 35.7224 31.7245 35.8407 32.6056Z" fill="#FDF7E6"/>
<path d="M39.549 31.3373C39.5647 30.7772 39.4055 30.2261 39.0936 29.7606C38.9191 29.5035 38.9645 29.4019 39.2382 29.3039C39.5595 29.1953 39.8538 29.0192 40.1013 28.7875C40.2603 28.6285 40.4265 28.6225 40.6417 28.6584C41.9901 28.8771 42.8831 30.3392 42.5066 31.8072C42.2292 32.883 41.5885 33.6194 40.4361 33.8609C39.9113 33.9697 39.5598 33.7414 39.1916 33.4628C38.9717 33.2955 39.0577 33.1245 39.1617 32.9416C39.4243 32.4482 39.5576 31.8962 39.549 31.3373Z" fill="#FDF7E6"/>
<path d="M35.6152 24.3356C35.7145 23.9423 35.8065 23.58 35.9057 23.1855C37.1119 23.6135 38.2966 24.069 39.5076 24.4515C40.177 24.6631 40.4639 25.1473 40.6134 25.7354C40.9385 26.9595 40.0264 28.4467 38.7939 28.7575C38.1484 28.9213 37.7527 28.5459 37.9093 27.9207C38.3253 26.2291 37.3797 24.7277 35.6152 24.3356Z" fill="#FDF7E6"/>
<path d="M34.4209 27.1652C34.4125 28.6511 33.6307 29.6828 32.4915 30.0462C32.2368 30.1275 32.0731 30.137 31.987 29.8525C31.9715 29.8159 31.951 29.7817 31.926 29.7509C31.6762 29.366 31.241 29.0814 31.0737 28.6977C30.8979 28.2948 31.4849 27.9745 31.5626 27.5226C31.675 26.8711 31.6284 26.2483 31.3235 25.672C31.155 25.3588 31.2554 25.2202 31.51 25.0588C32.0025 24.7492 32.7365 24.7934 33.2936 25.2106C34.036 25.7713 34.409 26.5328 34.4209 27.1652Z" fill="#FDF7E6"/>
<path d="M40.1582 38.664C40.8599 36.2265 40.8671 36.0783 40.328 34.5996C41.0548 34.4633 41.723 34.2015 42.2263 33.6348C42.4044 33.4364 42.5395 33.5739 42.6818 33.6803C43.105 33.9982 43.3034 34.443 43.3668 34.9522C43.5891 36.7322 42.1139 38.5481 40.3196 38.7083C40.2636 38.7031 40.209 38.6882 40.1582 38.664Z" fill="#FDF7E6"/>
<path d="M36.2056 34.406C36.6398 33.1098 36.5776 31.6985 36.0311 30.4455C35.9115 30.1646 36.0251 30.1132 36.2331 30.0391C36.612 29.9028 36.9862 29.7282 37.1954 29.3744C37.4453 28.95 37.6736 29.1126 37.9306 29.3361C39.1918 30.4192 39.089 32.632 37.7166 33.6887C37.2745 34.0404 36.7576 34.2858 36.2056 34.406Z" fill="#FDF7E6"/>
<path d="M37.3082 27.4353C37.3368 28.3618 36.8646 29.0312 35.986 29.4425C35.8125 29.5412 35.6109 29.5791 35.4134 29.5501C34.7678 29.4174 34.628 29.1269 34.8479 28.5124C34.9974 28.1215 35.0669 27.7045 35.0523 27.2863C35.0377 26.868 34.9394 26.4569 34.7631 26.0773C34.6722 25.8765 34.3339 25.7103 34.6435 25.4138C34.9531 25.1174 35.2341 24.8914 35.6919 25.005C36.6495 25.2441 37.3237 26.2148 37.3082 27.4353Z" fill="#FDF7E6"/>
<path d="M30.9869 27.0385C31.0203 27.6613 30.5828 28.1873 30.052 28.6667C29.8584 28.8412 29.7113 28.7862 29.5488 28.6177C29.2145 28.2473 28.7941 27.9652 28.3246 27.7964C28.1023 27.7211 28.0796 27.6183 28.1597 27.3983C28.4513 26.595 28.4286 25.7976 27.9839 25.0493C27.7962 24.7337 28.0246 24.6548 28.223 24.5891C28.902 24.3631 29.5296 24.5233 30.0628 24.9632C30.651 25.4569 30.9797 26.0977 30.9869 27.0385Z" fill="#FDF7E6"/>
<path d="M43.6408 36.8291C44.2135 35.4029 44.0975 34.1824 42.9296 33.1842C42.7598 33.0383 42.7419 32.9284 42.8542 32.7335C42.9928 32.5145 43.0881 32.271 43.1352 32.0162C43.2153 31.3934 43.5655 31.4723 43.978 31.6373C45.238 32.143 45.9098 34.1561 45.3013 35.4196C44.951 36.1513 44.3605 36.4991 43.6408 36.8291Z" fill="#FDF7E6"/>
<path d="M28.0918 21.5037C29.0718 21.5147 30.0469 21.6448 30.9955 21.891C31.5382 22.0404 31.8515 23.102 31.6363 23.83C31.5813 24.0002 31.51 24.1647 31.4235 24.3213C31.0816 24.9621 31.0768 24.9621 30.509 24.4982C29.9705 24.0548 29.2826 23.8345 28.5867 23.8826C28.7373 23.0506 28.7792 22.2568 28.0918 21.5037Z" fill="#FDF7E6"/>
<path d="M32.7406 33.7508C32.7562 35.1854 31.7843 36.2027 30.4179 36.5075C30.3305 36.5284 30.239 36.5237 30.1542 36.494C30.0695 36.4644 29.995 36.411 29.9397 36.3402C29.7879 36.1716 29.9493 36.0413 30.0282 35.9218C30.4896 35.2045 30.6187 34.4502 30.3282 33.6504C30.2398 33.4113 30.2577 33.3109 30.5063 33.2093C30.9192 33.0556 31.2816 32.7909 31.5536 32.4442C31.764 32.1585 31.9433 32.2446 32.131 32.4359C32.4812 32.7897 32.6969 33.2549 32.7406 33.7508Z" fill="#FDF7E6"/>
<path d="M27.6074 40.5697C28.0856 39.7651 28.2051 38.9498 27.6947 38.0987C27.5225 37.8142 27.8668 37.2129 28.2028 37.1901C28.4826 37.1802 28.7532 37.087 28.9798 36.9224C29.3791 36.6092 29.5775 36.7861 29.7939 37.1495C30.7024 38.6414 29.9134 40.4429 28.2338 40.7047C28.0163 40.7394 27.8047 40.7466 27.6074 40.5697Z" fill="#FDF7E6"/>
<path d="M45.7509 30.0331C45.6995 30.3547 45.6768 30.6703 45.5548 30.9715C45.2632 31.6888 45.2129 31.7222 44.5818 31.3182C44.3104 31.1449 43.9912 31.109 43.7031 31.0169C43.2775 30.8807 43.1377 30.6523 43.1377 30.2543C43.1395 30.154 43.116 30.055 43.0695 29.9661C42.8233 29.5274 42.8938 29.2608 43.4282 29.1461C43.8262 29.06 44.045 28.687 44.2183 28.3834C44.424 28.0248 44.6236 28.1288 44.834 28.2638C45.4747 28.6763 45.7294 29.3003 45.7509 30.0331Z" fill="#FDF7E6"/>
<path d="M32.1666 22.0176C32.909 22.2185 33.6525 22.4145 34.3937 22.6153C35.1875 22.8353 35.4289 23.4701 34.9986 24.1873C34.9562 24.2541 34.9094 24.318 34.8587 24.3786C34.31 25.0959 34.3088 25.0959 33.5318 24.6464C33.0837 24.4025 32.5874 24.2604 32.0781 24.2304C32.6101 23.4844 32.2216 22.7468 32.163 22.0081L32.1666 22.0176Z" fill="#FDF7E6"/>
<path d="M25.3251 41.3993C25.1697 41.3527 24.8254 41.6384 24.8362 41.269C24.8481 40.859 24.1751 40.6809 24.6557 40.0485C25.1171 39.4436 25.5642 39.1603 26.2563 39.0826C26.4954 39.0563 26.6939 38.8805 26.8397 38.6976C27.1541 38.3043 27.2653 38.5446 27.3801 38.8399C27.7578 39.8082 26.9019 41.1973 25.826 41.3611C25.6658 41.385 25.5068 41.3862 25.3251 41.3993Z" fill="#FDF7E6"/>
<path d="M29.541 32.7023C29.5637 32.4058 29.7968 32.2241 29.9212 31.9851C30.2918 31.2774 30.5045 30.5577 30.183 29.7711C30.0933 29.5535 30.0694 29.3467 30.3025 29.2021C30.5356 29.0574 30.7137 29.1746 30.8859 29.3276C31.4764 29.8512 31.7382 30.853 31.4645 31.5583C31.2158 32.2014 30.4053 32.6868 29.541 32.7023Z" fill="#FDF7E6"/>
<path d="M29.8397 34.4419C29.8316 34.9164 29.6784 35.377 29.4005 35.7618C29.1226 36.1465 28.7335 36.4368 28.2856 36.5937C28.0406 36.6761 27.9401 36.6487 27.8732 36.3892C27.7895 36.0653 27.5468 35.7389 27.5839 35.4401C27.621 35.1412 28.0704 35.1029 28.3119 34.9045C28.7209 34.582 29.0145 34.1358 29.1487 33.6326C29.1846 33.4999 29.193 33.3074 29.3424 33.2966C29.4918 33.2859 29.5934 33.4532 29.6616 33.6051C29.7664 33.8723 29.8266 34.1551 29.8397 34.4419Z" fill="#FDF7E6"/>
<path d="M22.2502 43.0298C22.0972 42.7321 21.937 42.4321 21.7912 42.1356C21.7266 42.0017 21.6047 41.8355 21.8067 41.7244C21.9669 41.6371 22.0554 41.7877 22.1379 41.8941C22.264 42.0467 22.3813 42.2064 22.4893 42.3723C22.5651 42.5243 22.6923 42.6445 22.8484 42.7115C23.0045 42.7785 23.1793 42.7879 23.3417 42.7381C23.4612 42.8959 23.3943 42.9772 23.2353 43.0417C22.9017 43.1828 22.5778 43.0752 22.2502 43.0298Z" fill="#AF3830"/>
<path d="M51.3839 28.0869L51.4054 28.5651C51.2524 28.5364 51.0826 28.5137 51.0922 28.3069C51.1006 28.1407 51.25 28.1144 51.3839 28.0869Z" fill="#AF3830"/>
<path d="M32.1614 22.0129V22.1325C32.0502 22.0942 32.1769 22.0643 32.1614 22.0261C32.1621 22.0217 32.1621 22.0173 32.1614 22.0129Z" fill="#FDF7E6"/>
<path d="M52.7117 29.9995C52.6663 29.9636 52.6208 29.9277 52.5742 29.8931C52.6173 29.9241 52.6627 29.96 52.7117 29.9995Z" fill="#AF3830"/>
<path d="M41.0739 25.2608C41.056 25.2285 41.0153 25.1819 41.0249 25.1652C41.0643 25.0947 41.1193 25.1269 41.1683 25.1652L41.0739 25.2608Z" fill="#FDF7E6"/>
<path d="M11.5714 31.4339C10.9736 31.4435 10.5552 31.0634 10.5516 30.5075C10.5462 30.3783 10.5665 30.2494 10.6114 30.1282C10.6563 30.007 10.7248 29.8959 10.8131 29.8015C10.9013 29.707 11.0074 29.631 11.1253 29.578C11.2432 29.525 11.3704 29.4959 11.4996 29.4926C12.1189 29.471 12.5361 29.8572 12.5432 30.4573C12.5444 31.0311 12.1523 31.4339 11.5714 31.4339Z" fill="#AF3830"/>
</svg>
