<svg width="80" height="80" viewBox="0 0 80 80" fill="none" xmlns="http://www.w3.org/2000/svg">
<path d="M3.33112 28.4041C3.1276 27.3811 3.11954 26.3212 3.20887 25.2794C3.29418 24.2859 3.55748 23.2851 3.95781 22.3401C3.27604 22.1211 2.45658 22.2809 1.82653 22.6551C0.440155 23.4779 -0.293334 25.2646 0.110354 26.8249C0.518071 28.3853 2.03408 29.5863 3.64615 29.6306C3.62734 29.5346 3.6092 29.4419 3.5904 29.3451C3.48628 29.0449 3.39762 28.7332 3.33112 28.4034V28.4041ZM2.55733 25.1659C1.97296 25.2189 1.42284 25.5313 1.03662 25.896C1.31671 26.1976 1.81444 26.426 2.27455 26.4401C1.89437 26.6053 1.44165 26.6308 1.08632 26.432C1.41747 26.8082 1.98169 27.185 2.48345 27.3966C1.98371 27.3932 1.46449 27.2521 1.1105 26.9613C1.37247 27.6222 2.0052 28.2671 2.76892 28.564C2.23693 28.5169 1.74324 28.2825 1.38254 27.9574C1.02184 27.6323 0.788092 27.2206 0.658455 26.7934C0.412615 25.986 0.534192 25.1074 0.992958 24.3659C1.45172 23.625 2.24499 23.0279 3.18268 22.7182C2.59965 23.0144 2.08312 23.5417 1.65659 23.983C2.02199 23.6566 2.59562 23.492 3.13297 23.4631C2.40553 23.6687 1.81242 23.9904 1.33015 24.4841C1.81914 24.1335 2.51501 23.9763 3.1632 23.9662C2.43172 24.153 1.69353 24.6003 1.20051 25.0826C1.69555 24.7689 2.38269 24.5566 3.00535 24.519C2.26515 24.652 1.51352 25.0853 1.02923 25.5648C1.40941 25.3015 2.06162 25.1511 2.558 25.1659H2.55733Z" fill="#AF3830"/>
<path d="M79.4761 44.7107C78.4471 40.737 75.9753 37.1965 72.7847 34.6138C71.2271 33.3544 69.2798 32.4443 67.3769 31.8008C67.3171 33.1442 66.9282 34.4748 66.2525 35.6395C66.6219 35.3493 67.0908 35.2741 67.7584 35.5676C68.903 36.0761 69.9757 36.7082 70.9416 37.5108C72.8646 39.1041 74.339 41.2461 75.0705 43.638C76.2507 47.4808 75.4836 51.8636 73.0756 55.0823C71.8121 56.7669 70.0677 58.1621 68.0251 58.6786C65.9825 59.1911 63.6342 58.7142 62.1841 57.1888C60.7298 55.6627 60.4276 53.0599 61.7387 51.4109C62.1323 50.9178 62.6724 50.5088 63.2924 50.4094C63.9164 50.3059 64.6196 50.5686 64.9178 51.1247C65.1959 51.6493 65.0811 52.2847 65.1758 52.8731C65.2752 53.4575 66.0342 54.1648 66.5742 53.9143C68.1594 53.1754 68.7398 50.9696 67.929 49.4159C67.1183 47.8663 65.2114 47.0637 63.4784 47.3061C61.7461 47.5527 60.2241 48.7006 59.2541 50.1595C57.2673 53.1398 57.6051 57.4668 60.0367 60.1012C61.9879 62.215 65.0119 63.1487 67.8847 62.9425C71.9814 62.6483 75.7845 60.1254 77.9064 56.6084C80.0283 53.0914 80.5092 48.6892 79.4761 44.7114V44.7107ZM65.7991 49.913C65.7575 49.5221 65.6567 49.0942 65.4478 48.8531C65.7622 48.9014 66.0577 49.0781 66.3203 49.2735C66.3035 48.9316 66.2135 48.6408 66.1007 48.3573C66.5742 48.6522 67.1176 49.2393 67.3823 49.8384C67.2432 49.6685 66.9605 49.6598 66.677 49.5771C66.8214 49.7484 66.855 50.4288 66.7838 50.715C66.679 50.4927 66.4634 50.2965 66.1692 50.1622C66.233 50.5108 66.2619 50.8406 66.1276 51.2047C65.9502 50.3328 64.9461 49.7914 64.854 49.7256C65.1758 49.6638 65.5412 49.7222 65.7991 49.9123V49.913ZM78.081 42.789C78.4766 43.5023 78.7776 44.5999 78.7319 45.4859C78.6674 45.1829 78.3275 44.9445 78.0327 44.6227C78.1039 44.9317 77.725 45.7216 77.4624 45.9843C77.4711 45.6498 77.3294 45.2568 77.0533 44.8679C76.9163 45.3099 76.749 45.7035 76.3615 46.0031C76.6825 44.8827 75.7905 43.4634 75.7193 43.3156C76.1499 43.507 76.559 43.8671 76.7564 44.2889C76.9465 43.8174 77.0869 43.2558 76.9808 42.8165C77.3348 43.1249 77.5853 43.5621 77.7855 43.9934C77.9749 43.5971 78.0447 43.1981 78.0817 42.789H78.081ZM70.6071 35.1653C70.368 34.9745 69.9824 34.8415 69.5095 34.7918C69.7413 35.1189 69.9166 35.438 69.8729 35.8363C69.2677 35.0222 67.6207 34.7703 67.4636 34.7307C67.8961 34.5789 68.4382 34.5332 68.8822 34.6488C68.6652 34.2733 68.3482 33.8777 67.9532 33.6976C68.4201 33.6567 68.9111 33.7487 69.3638 33.8676C69.2012 33.5337 68.9561 33.2711 68.6807 33.0219C69.4733 33.1804 70.4835 33.6083 71.1028 34.1275C70.8368 33.9979 70.4311 34.0698 69.9945 34.0677C70.2692 34.1967 70.5923 34.8617 70.6071 35.1653ZM73.7681 37.9642C73.5914 37.7144 73.2583 37.4793 72.8183 37.2993C72.9493 37.6781 73.0285 38.0327 72.8761 38.4035C72.5221 37.4531 71.0108 36.7518 70.8704 36.6699C71.3285 36.6444 71.8618 36.7518 72.2554 36.9869C72.1513 36.5658 71.9572 36.0976 71.6287 35.8148C72.0882 35.9055 72.5342 36.1305 72.9358 36.3717C72.8727 36.0063 72.7108 35.6845 72.5154 35.3688C73.2321 35.7416 74.0831 36.4348 74.5331 37.1058C74.3135 36.907 73.9038 36.8633 73.4853 36.7397C73.7137 36.9399 73.8379 37.6687 73.7674 37.9642H73.7681ZM75.278 41.6921C75.1981 40.6812 73.9373 39.5918 73.8252 39.4749C74.2725 39.5763 74.7561 39.8255 75.0705 40.1593C75.0859 39.7261 75.0275 39.2223 74.7897 38.8603C75.2068 39.0732 75.5743 39.4124 75.894 39.7543C75.9336 39.3855 75.8658 39.0322 75.765 38.6749C76.3521 39.2304 76.9801 40.1298 77.2286 40.8989C77.0721 40.6477 76.6899 40.4925 76.3212 40.2594C76.4857 40.5147 76.4058 41.2495 76.2567 41.5148C76.1553 41.226 75.9 40.9083 75.5259 40.6147C75.5481 41.0151 75.5272 41.3785 75.2787 41.6928L75.278 41.6921ZM63.1997 48.0195C63.0196 48.0987 62.9451 48.3406 62.806 48.5649C62.9881 48.4809 63.5832 48.6153 63.8122 48.7449C63.5953 48.7825 63.3756 48.9209 63.1889 49.1432C63.5046 49.1714 63.7961 49.2252 64.0776 49.428C63.2836 49.3723 62.577 50.1091 62.4984 50.1729C62.5219 49.8807 62.6596 49.5798 62.8853 49.4032C62.5387 49.3454 62.1458 49.3306 61.8878 49.4529C62.0047 49.1929 62.2277 48.9813 62.4588 48.8013C62.1605 48.7342 61.8878 48.7422 61.6165 48.7718C61.9839 48.4339 62.6193 48.1061 63.1997 48.0208V48.0195ZM60.0978 50.2596C59.9937 50.4262 60.0682 50.668 60.0796 50.9319C60.1831 50.76 60.75 50.5356 61.0126 50.5135C60.8548 50.6666 60.7507 50.9051 60.7218 51.1932C60.9985 51.0387 61.2692 50.9192 61.6165 50.9279C60.9293 51.3289 60.7607 52.3358 60.7312 52.4325C60.5861 52.1779 60.5303 51.8522 60.617 51.5788C60.2979 51.7266 59.9648 51.9355 59.8204 52.182C59.7707 51.9019 59.8351 51.601 59.9252 51.3215C59.641 51.4344 59.42 51.5942 59.2132 51.7716C59.326 51.2859 59.6665 50.6566 60.0978 50.2596ZM58.8444 56.0919C58.6268 55.5357 58.5354 54.6847 58.6913 54.0009C58.7013 54.236 58.9391 54.4241 59.1299 54.676C59.1151 54.4362 59.5221 53.831 59.766 53.6308C59.7136 53.8887 59.7733 54.1944 59.9406 54.498C60.1085 54.1581 60.2946 53.8565 60.6425 53.6301C60.2368 54.4919 60.7533 55.5989 60.7903 55.7137C60.4746 55.5606 60.1985 55.2771 60.0984 54.9493C59.8842 55.3114 59.6974 55.7433 59.7223 56.0838C59.4832 55.8414 59.3428 55.5008 59.242 55.165C59.0378 55.4692 58.929 55.7762 58.8451 56.0919H58.8444ZM61.7199 58.338C61.8254 58.862 62.0168 59.4282 62.3298 59.7284C61.8979 59.7029 61.4754 59.5007 61.0946 59.2697C61.1604 59.7298 61.3189 60.1126 61.5083 60.4821C60.8299 60.1429 60.0199 59.4168 59.5853 58.639C59.7948 58.8519 60.179 58.827 60.5733 58.9029C60.3557 58.6893 60.2247 57.7718 60.2845 57.3755C60.4551 57.6637 60.7715 57.9008 61.1873 58.0458C61.057 57.5824 60.9757 57.1391 61.1114 56.6292C61.462 57.7872 62.8907 58.3924 63.0237 58.4704C62.5958 58.5946 62.094 58.5624 61.7206 58.3374L61.7199 58.338ZM66.9067 62.2815C66.0826 62.3951 64.8997 62.2406 64.0245 61.806C64.3462 61.8685 64.6781 61.6085 65.0824 61.4325C64.7533 61.3741 64.0661 60.6251 63.8747 60.2302C64.2072 60.3854 64.6404 60.4042 65.1066 60.2772C64.7016 59.9387 64.353 59.5881 64.1595 59.0426C65.1939 59.8735 66.8624 59.535 67.0303 59.5229C66.72 59.9011 66.2465 60.1818 65.7689 60.21C66.1894 60.6184 66.7133 61.0127 67.1828 61.09C66.7764 61.3351 66.2693 61.4137 65.781 61.4406C66.1262 61.8161 66.5064 62.0646 66.9067 62.2809V62.2815ZM69.0622 61.9988C69.4021 61.9027 69.5955 61.4896 69.8991 61.1242C69.5539 61.2283 68.5275 60.8421 68.1507 60.5546C68.5463 60.5419 68.9729 60.3491 69.3598 59.9998C68.8049 59.8715 68.2985 59.7036 67.8471 59.2724C69.2476 59.5679 70.689 58.4307 70.8449 58.3374C70.73 58.8526 70.411 59.3536 69.9649 59.6136C70.5681 59.8023 71.2647 59.9266 71.7543 59.7728C71.4823 60.2067 71.0323 60.5291 70.5755 60.7924C71.0907 60.9858 71.5777 61.0396 72.0687 61.0537C71.3305 61.5642 70.1161 61.9914 69.0622 61.9994V61.9988ZM74.0952 59.6505C74.3578 59.4134 74.3484 58.958 74.4586 58.4959C74.1953 58.7424 73.1038 58.8499 72.6383 58.7585C72.9876 58.5718 73.2845 58.2104 73.4772 57.7261C72.9224 57.8564 72.3945 57.9296 71.7993 57.7429C73.1864 57.3883 73.9756 55.7305 74.0737 55.5774C74.1986 56.0899 74.1341 56.681 73.8493 57.1109C74.474 57.0128 75.1538 56.816 75.5246 56.4613C75.4722 56.9705 75.2115 57.4595 74.9187 57.8974C75.4661 57.843 75.9269 57.6757 76.3729 57.4709C75.937 58.2554 75.0369 59.1756 74.0952 59.6492V59.6505ZM77.7331 55.169C77.8654 54.8412 77.6578 54.4355 77.5544 53.972C77.4254 54.3085 76.4911 54.8835 76.033 55.0044C76.2654 54.684 76.3742 54.2286 76.3353 53.7094C75.8933 54.0694 75.4507 54.3663 74.8341 54.459C75.9262 53.5334 75.9094 51.697 75.9316 51.517C76.2681 51.9234 76.4689 52.4829 76.4011 52.994C76.9197 52.6327 77.4449 52.1585 77.6229 51.6769C77.7989 52.1578 77.7788 52.7113 77.7069 53.2332C78.1757 52.9443 78.5163 52.5924 78.8279 52.2135C78.7796 53.1096 78.3732 54.3314 77.7338 55.169H77.7331ZM78.7225 50.5605C78.7776 50.2408 78.5116 49.917 78.3289 49.5207C78.2785 49.8485 77.5524 50.5457 77.1648 50.7445C77.3106 50.4114 77.32 49.9815 77.1836 49.5227C76.8572 49.9318 76.518 50.2851 75.982 50.4886C76.7813 49.4448 76.4085 47.7998 76.393 47.6339C76.7746 47.9328 77.0641 48.3956 77.1024 48.8678C77.4973 48.442 77.8761 47.914 77.942 47.4472C78.1939 47.8442 78.2832 48.3453 78.3208 48.8275C78.6849 48.4769 78.922 48.0947 79.1282 47.6937C79.2592 48.5071 79.1329 49.6833 78.7225 50.5598V50.5605Z" fill="#AF3830"/>
<path d="M28.1347 54.5323C28.0554 55.0307 27.6806 55.648 27.3112 55.9912C27.4737 54.7553 27.4072 53.4892 27.117 52.2768C27.4824 52.8262 27.7404 53.6101 27.8311 54.2636C28.0991 53.7088 28.1306 53.0103 27.9822 52.4118C28.0809 52.5656 28.1642 52.7268 28.2522 52.8847C28.13 52.1686 27.9815 51.4566 27.7854 50.7587C25.6971 49.811 23.7955 48.3272 21.8449 46.7104C22.4803 48.1465 23.8163 50.1307 25.1429 50.971C25.5104 51.2034 25.9107 51.419 26.1538 51.7797C26.3936 52.1357 26.4454 52.5831 26.481 53.0109C26.6395 54.9219 26.6173 56.8476 26.4131 58.7539C26.3345 59.4887 26.1747 60.3109 25.5574 60.7173C24.8964 61.1519 24.0286 60.9147 23.2407 60.8529C22.0323 60.7576 20.7924 61.1377 19.8446 61.8927C18.8969 62.6484 18.2352 63.7097 18.0586 64.9093C18.8418 64.9174 19.6821 64.9053 20.4659 64.9133C20.3518 64.0274 20.7648 63.1199 21.4325 62.5268C22.1002 61.9337 22.9942 61.6341 23.8855 61.5743C24.7769 61.5146 26.5562 61.747 27.4146 61.9935C27.7007 61.3171 27.9123 60.6125 28.087 59.8971C28.0883 59.5096 28.0534 59.1227 27.9486 58.7512C27.78 59.5028 27.3756 60.0711 26.7523 60.5245C27.34 59.4693 27.5859 58.2273 27.4448 57.0277C27.6477 57.4643 27.733 58.0016 27.6746 58.4792C27.9358 58.0063 28.0541 57.4535 28.0178 56.9135C28.2509 57.297 28.3724 57.7215 28.4107 58.1568C28.5377 57.1277 28.5739 56.0806 28.5128 55.0307C28.4067 54.846 28.2851 54.674 28.136 54.5323H28.1347Z" fill="#AF3830"/>
<path d="M46.3477 57.7333C45.723 57.417 45.1238 57.0724 44.616 56.5814C44.661 57.1416 44.9862 57.8838 45.2407 58.3849C44.074 57.4364 43.2733 56.0487 43.0362 54.5643C43.3405 55.101 43.8161 55.7142 44.1203 56.2509C43.9316 55.5369 43.7657 54.7134 43.8389 53.9786C44.2641 54.8591 44.919 55.6793 45.6525 56.3516C45.2548 55.5732 44.8834 54.8437 44.6429 54.2271C44.0404 52.6822 43.4715 51.3502 43.0839 49.984C42.9536 50.88 43.0705 51.8251 43.3701 52.701C42.6124 51.9729 42.0576 51.3126 41.7224 50.4421C41.6902 51.181 41.6465 51.7338 41.9185 52.4599C40.8176 50.8646 40.872 49.0315 41.8326 47.4833C41.8158 48.3928 42.0166 49.4937 42.1912 50.4031C42.0367 49.3949 42.1953 48.3813 42.6151 47.4423C42.6137 47.4289 42.6117 47.4161 42.6104 47.4027C42.423 44.91 42.4653 43.0326 42.9993 40.9121C41.0863 42.6908 40.2178 45.8309 40.2568 48.3095C40.2769 49.5689 40.4442 50.8364 40.7901 52.0508C41.1971 53.4795 43.1182 56.7218 43.853 58.2163C44.1506 58.8208 44.1694 59.6107 43.7684 60.1548C43.4701 60.5585 42.9489 60.7492 42.4438 60.8043C41.9387 60.8594 41.4282 60.8009 40.9204 60.8191C38.9705 60.8869 37.122 62.1819 36.4221 63.9693C36.2803 64.3307 36.1823 64.725 36.2642 65.1038C36.3139 65.3342 36.5376 65.6036 36.7747 65.748C37.0608 65.9219 37.3658 65.9139 37.4074 65.435C37.4558 64.8754 37.6728 64.3354 38.0086 63.882C38.3438 63.43 38.7878 63.1619 39.2338 62.8382C40.2232 62.1195 41.9125 61.9032 43.0886 61.9475C43.8436 61.9757 47.499 62.5117 47.5372 62.3432C47.8227 61.0871 47.147 59.381 46.3463 57.7347L46.3477 57.7333Z" fill="#AF3830"/>
<path d="M16.9289 34.3988C16.947 34.5016 16.2216 34.7078 15.302 34.6822C14.3825 34.6607 13.6685 34.4176 13.692 34.3162C13.7148 34.2073 14.4328 34.2725 15.3121 34.2927C16.1907 34.3175 16.9114 34.2893 16.9289 34.3988Z" fill="#AF3830"/>
<path d="M17.9816 40.1969C18.0051 40.2386 17.7565 40.4435 17.2823 40.651C16.8115 40.8586 16.1055 41.0439 15.3116 41.0466C14.5176 41.0466 13.811 40.8646 13.3388 40.6591C12.8639 40.4535 12.6147 40.25 12.6382 40.2077C12.6879 40.1002 13.8117 40.6725 15.3109 40.6564C16.8101 40.6665 17.9312 40.0895 17.9816 40.1969Z" fill="#AF3830"/>
<path d="M29.4806 43.4392C29.404 43.2867 29.2502 43.2759 29.0742 43.3659C29.0299 43.3881 28.9808 43.4318 28.9305 43.4868C28.9378 43.413 28.9372 43.3471 28.9231 43.2994C28.8707 43.1087 28.7592 43.0026 28.5953 43.0489C28.4314 43.0946 28.2131 43.3068 28.0351 43.6212C27.8537 43.9423 27.7362 44.3244 27.6818 44.6442C27.6274 44.9632 27.6254 45.2346 27.6139 45.514C27.6012 45.8049 27.5783 46.1085 27.5427 46.4215C27.532 46.5169 27.5206 46.6129 27.5078 46.7103C27.571 46.6351 27.6341 46.5619 27.6979 46.49C27.9061 46.2536 28.1137 46.0319 28.3206 45.8264C28.5187 45.6295 28.7182 45.4455 28.917 45.1903C29.1158 44.9343 29.3194 44.5904 29.4342 44.2398C29.5471 43.8959 29.5565 43.5923 29.4799 43.4405L29.4806 43.4392ZM28.653 44.714C28.422 45.238 28.1345 45.6181 28.0116 45.5637C27.8887 45.5093 27.976 45.0405 28.207 44.5172C28.4381 43.9933 28.7256 43.6131 28.8485 43.6675C28.9714 43.7219 28.8841 44.1908 28.653 44.714Z" fill="#AF3830"/>
<path d="M27.9001 41.0104C28.0525 40.9338 28.0633 40.78 27.9733 40.604C27.9511 40.5597 27.9074 40.5106 27.8524 40.4602C27.9262 40.4676 27.9921 40.467 28.0398 40.4529C28.2305 40.4005 28.3367 40.289 28.2903 40.1251C28.2446 39.9612 28.0324 39.7429 27.718 39.5649C27.397 39.3835 27.0148 39.266 26.695 39.2116C26.376 39.1572 26.1046 39.1551 25.8252 39.1437C25.5343 39.131 25.2307 39.1081 24.9177 39.0725C24.8224 39.0618 24.7263 39.0504 24.6289 39.0376C24.7041 39.1007 24.7774 39.1639 24.8492 39.2277C25.0857 39.4359 25.3073 39.6435 25.5129 39.8503C25.7097 40.0485 25.8937 40.248 26.1489 40.4468C26.4049 40.6456 26.7488 40.8492 27.0994 40.964C27.4433 41.0769 27.7469 41.0863 27.8987 41.0097L27.9001 41.0104ZM25.7755 39.5407C25.8299 39.4178 26.2987 39.5051 26.822 39.7362C27.3459 39.9672 27.7261 40.2547 27.6717 40.3776C27.6173 40.5005 27.1484 40.4132 26.6252 40.1822C26.1013 39.9511 25.7211 39.6636 25.7755 39.5407Z" fill="#AF3830"/>
<path d="M31.8366 42.265C31.8588 42.3093 31.9025 42.3583 31.9575 42.4087C31.8837 42.4013 31.8178 42.402 31.7701 42.4161C31.5794 42.4685 31.4733 42.58 31.5196 42.7439C31.5653 42.9078 31.7775 43.1261 32.0919 43.3041C32.413 43.4854 32.7952 43.603 33.1149 43.6574C33.4339 43.7118 33.7053 43.7138 33.9847 43.7252C34.2756 43.738 34.5792 43.7608 34.8922 43.7964C34.9876 43.8072 35.0836 43.8186 35.181 43.8314C35.1058 43.7682 35.0326 43.7051 34.9607 43.6413C34.7243 43.433 34.5026 43.2255 34.2971 43.0186C34.1003 42.8205 33.9162 42.621 33.661 42.4222C33.405 42.2233 33.0611 42.0198 32.7105 41.9049C32.3666 41.7921 32.063 41.7827 31.9112 41.8593C31.7587 41.9358 31.748 42.0897 31.838 42.2656L31.8366 42.265ZM32.1376 42.4907C32.192 42.3677 32.6608 42.4551 33.1841 42.6861C33.708 42.9172 34.0882 43.2047 34.0338 43.3276C33.9793 43.4505 33.5105 43.3632 32.9873 43.1321C32.4633 42.9011 32.0832 42.6136 32.1376 42.4907Z" fill="#AF3830"/>
<path d="M31.4883 37.044C31.2902 37.2408 31.0907 37.4248 30.8919 37.6801C30.6931 37.936 30.4895 38.2799 30.3747 38.6305C30.2618 38.9744 30.2524 39.278 30.329 39.4298C30.4056 39.5823 30.5594 39.5931 30.7354 39.5031C30.7797 39.4809 30.8287 39.4372 30.8791 39.3821C30.8717 39.456 30.8724 39.5219 30.8865 39.5695C30.9389 39.7603 31.0504 39.8664 31.2143 39.8201C31.3782 39.7744 31.5965 39.5622 31.7745 39.2478C31.9558 38.9261 32.0734 38.5445 32.1278 38.2248C32.1822 37.9058 32.1842 37.6344 32.1956 37.355C32.2084 37.0641 32.2312 36.7605 32.2668 36.4475C32.2776 36.3521 32.289 36.2561 32.3018 36.1587C32.2386 36.2339 32.1755 36.3071 32.1117 36.379C31.9034 36.6154 31.6959 36.8371 31.489 37.0426L31.4883 37.044ZM31.6025 38.3518C31.3715 38.8757 31.084 39.2559 30.9611 39.2015C30.8381 39.1471 30.9255 38.6782 31.1565 38.155C31.3876 37.631 31.6751 37.2509 31.798 37.3053C31.9209 37.3597 31.8336 37.8285 31.6025 38.3518Z" fill="#AF3830"/>
<path d="M67.3051 31.7765C65.4338 23.9446 58.3092 17.6542 50.3019 16.7682C46.4316 16.339 42.4975 17.0705 38.818 18.3494C35.1384 19.6289 31.6691 21.4445 28.22 23.2527C27.8586 23.4435 27.4966 23.5664 27.1392 23.6463C27.7827 23.6779 28.4309 24.0238 28.8997 24.5128C30.0403 25.7131 30.3063 27.7275 29.5278 29.2133C28.8044 30.5802 27.2548 31.3909 25.7844 31.2123C26.6429 28.8358 26.8612 26.233 26.4004 23.7538H26.3963V23.7498C26.4084 23.7377 26.4239 23.7222 26.436 23.7142C26.2291 22.7926 25.9315 21.8986 25.5258 21.0516C24.7588 19.4422 23.4557 18.2419 22.0088 17.3002C21.5756 17.0181 17.618 15.1266 17.8208 14.6618C17.6502 15.0594 17.6858 15.5679 17.8289 15.9689C16.2988 15.8097 14.8211 15.0869 13.7322 13.9585C13.661 14.5543 13.8357 15.1783 14.197 15.6512C12.806 16.1281 11.2288 15.981 9.9412 15.2461C10.0923 16.2752 10.4383 16.748 11.3874 16.7998C8.74894 16.6963 5.94328 19.2313 4.60863 22.3392C4.2036 23.285 3.9329 24.2865 3.84961 25.2799C3.75826 26.321 3.76632 27.3816 3.97253 28.4033C4.04038 28.7331 4.13173 29.0467 4.2345 29.345C5.24808 32.154 7.8388 33.6525 8.20017 33.8789C7.23831 35.802 7.23092 38.5042 8.85171 40.757C10.1985 42.6243 12.2451 43.8724 14.4745 44.0792C15.9764 44.2183 17.4071 43.916 18.639 43.2846C18.6665 43.3122 18.6987 43.3444 18.7303 43.3719C21.7381 46.1615 25.108 48.3512 28.6606 50.4012C29.1019 52.5231 29.5426 54.6732 29.4794 56.8387C29.4156 59.0083 29.245 61.2692 27.8103 62.8907C26.9518 62.5293 26.078 62.1713 25.1557 62.0564C24.2301 61.9409 23.2367 62.0961 22.5052 62.6724C21.7704 63.2447 21.2572 64.4127 21.6152 65.2712C24.9092 65.339 28.5055 65.4619 31.7994 65.5291C34.1799 62.1552 36.5953 58.7067 37.8158 54.7605C39.0356 50.815 39.3338 46.146 36.858 42.8433C38.9006 42.6841 41.0265 41.639 42.5801 40.3043C43.3116 36.7679 46.5579 33.6525 50.0661 32.7901C45.7787 34.6614 43.4338 39.5648 43.3425 44.2378C43.2471 48.9148 45.0036 53.4171 46.9582 57.6609C47.7448 59.3656 49.0284 61.1335 48.0705 62.751C46.791 63.1761 45.4039 62.6992 44.0572 62.5803C42.3443 62.4332 40.3299 62.5165 38.8912 64.0742C38.6447 64.3442 38.3982 64.6263 38.2551 64.9642C38.1718 65.159 37.9488 65.7628 38.1201 65.9576C38.2793 66.1282 39.0141 66.0093 39.2445 66.0053C39.6737 66.0053 40.1029 66.0013 40.5321 65.9973C44.1405 65.9576 47.7441 65.8582 51.3524 65.8582C53.3588 64.7177 56.061 62.4769 55.3537 60.2832C54.285 56.969 53.2117 53.3889 54.2729 50.0748C54.7774 48.4929 55.7554 46.5618 56.951 45.4099C58.2386 44.1699 59.8399 43.3276 61.2303 42.2193C62.9391 40.8645 64.3295 39.1121 65.2679 37.1453C65.5661 36.5173 65.8482 35.9531 66.2492 35.6394C66.925 34.4754 67.3139 33.1441 67.3737 31.8007C67.3501 31.7926 67.326 31.7846 67.3025 31.7772L67.3051 31.7765ZM60.2087 34.7924C60.4283 34.9355 60.6775 35.0389 60.9382 35.0604C61.2458 35.0853 61.5541 34.9932 61.8275 34.8508C61.945 34.789 62.0572 34.7185 62.1667 34.6433C62.1747 34.648 62.1553 34.6581 62.1667 34.6621C62.0498 34.912 61.9316 35.1625 61.7731 35.3882C61.6146 35.6139 61.4124 35.8147 61.1625 35.9323C60.8475 36.08 60.4787 36.0834 60.1409 35.9981C59.8037 35.9128 59.4927 35.7455 59.1971 35.5615C58.8223 35.3277 58.4657 35.0658 58.1305 34.7776C58.1352 34.7749 58.1399 34.7729 58.1446 34.7702C58.4623 34.9059 58.7834 35.0416 59.1226 35.1068C59.3167 35.1444 59.5484 35.1457 59.6754 34.9946C59.7587 34.8958 59.7734 34.7534 59.7446 34.6272C59.7164 34.5009 59.6499 34.3874 59.584 34.2765C59.6499 34.165 59.7157 34.0515 59.7446 33.9259C59.7734 33.8003 59.7587 33.6579 59.6754 33.5585C59.5478 33.408 59.316 33.4094 59.1226 33.4463C58.7834 33.5115 58.4623 33.6472 58.1446 33.7828C58.1399 33.7802 58.1352 33.7781 58.1305 33.7755C58.465 33.4873 58.8223 33.2247 59.1971 32.9916C59.4927 32.8075 59.8037 32.6403 60.1409 32.555C60.478 32.4697 60.8475 32.473 61.1625 32.6208C61.4117 32.7384 61.6146 32.9392 61.7731 33.1649C61.9316 33.3906 62.0491 33.6418 62.1667 33.891C62.1559 33.895 62.1747 33.9051 62.1667 33.9098C62.0579 33.8339 61.9457 33.7634 61.8275 33.7022C61.5541 33.5598 61.2458 33.4678 60.9382 33.4927C60.6775 33.5142 60.4283 33.6176 60.2087 33.7607C59.9897 33.9038 59.7681 34.0891 59.5847 34.2765C59.7674 34.4639 59.9891 34.6493 60.2087 34.7924ZM57.751 31.7147C57.6522 31.6314 57.5098 31.6166 57.3836 31.6455C57.2573 31.6737 57.1438 31.7402 57.0329 31.8061C56.9214 31.7402 56.8086 31.6744 56.6823 31.6455C56.5567 31.6166 56.4143 31.6314 56.3149 31.7147C56.1638 31.8423 56.1658 32.0741 56.2027 32.2675C56.2679 32.6067 56.4036 32.9278 56.5392 33.2455C56.5366 33.2502 56.5345 33.2549 56.5319 33.2596C56.2437 32.9251 55.9811 32.5678 55.748 32.193C55.5639 31.8974 55.3967 31.5864 55.3114 31.2492C55.2261 30.912 55.2294 30.5426 55.3772 30.2276C55.4948 29.9784 55.6956 29.7755 55.9213 29.617C56.147 29.4585 56.3982 29.3409 56.6474 29.2234C56.6514 29.2341 56.6615 29.2153 56.6662 29.2234C56.5903 29.3322 56.5198 29.4444 56.4586 29.5626C56.3162 29.836 56.2242 30.1443 56.2491 30.4519C56.2706 30.7125 56.374 30.9617 56.5171 31.1814C56.6601 31.4004 56.8455 31.622 57.0329 31.8054C57.2203 31.6227 57.4057 31.401 57.5488 31.1814C57.6919 30.9617 57.7953 30.7125 57.8168 30.4519C57.8417 30.1443 57.7496 29.836 57.6072 29.5626C57.5454 29.4451 57.4749 29.3329 57.3997 29.2234C57.4044 29.2153 57.4145 29.2348 57.4185 29.2234C57.6684 29.3403 57.9189 29.4585 58.1446 29.617C58.3703 29.7755 58.5711 29.9777 58.6887 30.2276C58.8364 30.5426 58.8398 30.9114 58.7545 31.2492C58.6692 31.5864 58.5019 31.8974 58.3179 32.193C58.0841 32.5678 57.8222 32.9244 57.534 33.2596C57.5313 33.2549 57.5293 33.2502 57.5266 33.2455C57.6623 32.9278 57.798 32.6067 57.8631 32.2675C57.9008 32.0734 57.9021 31.8417 57.751 31.7147ZM57.1075 35.6307C57.3016 35.6307 57.4588 35.7879 57.4588 35.982C57.4588 36.1761 57.3016 36.3333 57.1075 36.3333C56.9134 36.3333 56.7562 36.1761 56.7562 35.982C56.7562 35.7879 56.9134 35.6307 57.1075 35.6307ZM56.6877 32.6517C56.6877 32.4576 56.8449 32.3004 57.039 32.3004C57.2331 32.3004 57.3903 32.4576 57.3903 32.6517C57.3903 32.8458 57.2331 33.003 57.039 33.003C56.8449 33.003 56.6877 32.8458 56.6877 32.6517ZM55.0239 33.5276C54.8298 33.49 54.598 33.4886 54.4711 33.6398C54.3878 33.7385 54.373 33.8809 54.4019 34.0072C54.4301 34.1335 54.4966 34.247 54.5624 34.3578C54.4966 34.4693 54.4308 34.5828 54.4019 34.7084C54.373 34.834 54.3878 34.9764 54.4711 35.0759C54.5987 35.227 54.8305 35.225 55.0239 35.188C55.3631 35.1229 55.6842 34.9872 56.0019 34.8515C56.0066 34.8542 56.0113 34.8562 56.016 34.8589C55.6815 35.1471 55.3241 35.4097 54.9493 35.6428C54.6538 35.8268 54.3428 35.9941 54.0056 36.0794C53.6684 36.1647 53.299 36.1613 52.984 36.0135C52.7348 35.896 52.5319 35.6952 52.3734 35.4695C52.2149 35.2438 52.0973 34.9926 51.9798 34.7434C51.9905 34.7393 51.9717 34.7293 51.9798 34.7246C52.0886 34.8005 52.2008 34.871 52.319 34.9321C52.5924 35.0745 52.9007 35.1665 53.2083 35.1417C53.4689 35.1202 53.7181 35.0167 53.9378 34.8737C54.1567 34.7306 54.3784 34.5452 54.5618 34.3578C54.3791 34.1704 54.1574 33.985 53.9378 33.842C53.7181 33.6989 53.4689 33.5954 53.2083 33.574C52.9007 33.5491 52.5924 33.6411 52.319 33.7835C52.2014 33.8453 52.0893 33.9158 51.9798 33.9911C51.9717 33.9864 51.9912 33.9763 51.9798 33.9723C52.0967 33.7224 52.2149 33.4719 52.3734 33.2462C52.5319 33.0205 52.7341 32.8196 52.984 32.7021C53.299 32.5543 53.6678 32.551 54.0056 32.6363C54.3428 32.7216 54.6538 32.8888 54.9493 33.0729C55.3241 33.3066 55.6808 33.5686 56.016 33.8567C56.0113 33.8594 56.0066 33.8614 56.0019 33.8641C55.6842 33.7284 55.3631 33.5928 55.0239 33.5276ZM55.7594 34.3511C55.7594 34.5452 55.6022 34.7024 55.4081 34.7024C55.214 34.7024 55.0568 34.5452 55.0568 34.3511C55.0568 34.157 55.214 33.9998 55.4081 33.9998C55.6022 33.9998 55.7594 34.157 55.7594 34.3511ZM55.8326 35.6737C55.8326 35.6737 53.3816 40.352 52.276 39.2887C51.1939 38.2469 54.1702 36.4918 55.8326 35.6737ZM52.0765 29.4215C53.1183 28.3394 54.8734 31.3157 55.6916 32.9782C55.6916 32.9782 51.0132 30.5272 52.0765 29.4215ZM58.3871 34.2826C58.3871 34.0885 58.5442 33.9313 58.7384 33.9313C58.9325 33.9313 59.0897 34.0885 59.0897 34.2826C59.0897 34.4767 58.9325 34.6339 58.7384 34.6339C58.5442 34.6339 58.3871 34.4767 58.3871 34.2826ZM58.3871 32.8364C58.3871 32.8364 60.8381 28.1581 61.9437 29.2214C63.0258 30.2632 60.0495 32.0183 58.3871 32.8364ZM60.5016 26.6582C60.5016 27.1029 60.1409 27.4636 59.6962 27.4636C59.2515 27.4636 58.8908 27.1029 58.8908 26.6582C58.8908 26.2135 59.2515 25.8528 59.6962 25.8528C60.1409 25.8528 60.5016 26.2135 60.5016 26.6582ZM59.0635 21.4109C59.6022 22.0175 59.94 22.8047 59.8688 23.6363C59.8473 23.8861 59.7855 24.1461 59.623 24.363C59.4604 24.58 59.179 24.7439 58.913 24.7183C58.4919 24.6787 58.3266 24.2327 58.2877 23.8451C58.2185 23.1634 58.3018 22.4554 58.1849 21.7844C58.1312 21.4768 57.9854 20.7936 57.5998 20.3214C58.154 20.4571 58.7155 21.0193 59.0635 21.4109ZM57.8383 25.1711C57.8383 25.6157 57.4776 25.9764 57.0329 25.9764C56.5883 25.9764 56.2276 25.6157 56.2276 25.1711C56.2276 24.7264 56.5883 24.3657 57.0329 24.3657C57.4776 24.3657 57.8383 24.7264 57.8383 25.1711ZM55.6096 19.5134C56.2323 20.0333 56.683 20.7614 56.736 21.5943C56.7522 21.8442 56.7293 22.1108 56.601 22.3493C56.4727 22.5877 56.2188 22.7919 55.9515 22.806C55.529 22.8295 55.3 22.4131 55.2032 22.0356C55.034 21.372 55.0105 20.6593 54.7955 20.0131C54.6968 19.7169 54.4509 19.0634 53.9996 18.653C54.5678 18.7047 55.2066 19.1776 55.6083 19.5127L55.6096 19.5134ZM54.3677 22.9081C54.8123 22.9081 55.173 23.2688 55.173 23.7135C55.173 24.1582 54.8123 24.5189 54.3677 24.5189C53.923 24.5189 53.5623 24.1582 53.5623 23.7135C53.5623 23.2688 53.923 22.9081 54.3677 22.9081ZM52.2129 18.7215C52.8832 19.1782 53.4024 19.8593 53.5368 20.6828C53.5771 20.93 53.5804 21.1973 53.4756 21.4472C53.3709 21.6971 53.1378 21.9248 52.8738 21.9651C52.4553 22.0289 52.1867 21.6373 52.0543 21.2712C51.8213 20.6271 51.7292 19.9198 51.4518 19.2978C51.3249 19.0123 51.0166 18.3856 50.5276 18.0216C51.0979 18.0175 51.7796 18.4259 52.2129 18.7208V18.7215ZM51.2403 22.1034C51.6849 22.1034 52.0456 22.4641 52.0456 22.9088C52.0456 23.3535 51.6849 23.7142 51.2403 23.7142C50.7956 23.7142 50.4349 23.3535 50.4349 22.9088C50.4349 22.4641 50.7956 22.1034 51.2403 22.1034ZM48.8007 18.4871C49.471 18.9438 49.9902 19.6249 50.1246 20.4484C50.1649 20.6956 50.1682 20.9629 50.0634 21.2128C49.9587 21.4627 49.7256 21.6904 49.4616 21.7307C49.0431 21.7951 48.7745 21.4029 48.6421 21.0368C48.4091 20.3926 48.317 19.6854 48.0396 19.0634C47.9127 18.7779 47.6044 18.1512 47.1154 17.7871C47.6857 17.7838 48.3674 18.1915 48.8007 18.4871ZM49.0304 23.2292C49.0304 23.6739 48.6697 24.0346 48.225 24.0346C47.7804 24.0346 47.4197 23.6739 47.4197 23.2292C47.4197 22.7845 47.7804 22.4238 48.225 22.4238C48.6697 22.4238 49.0304 22.7845 49.0304 23.2292ZM45.6316 18.8605C46.302 19.3173 46.8212 19.9984 46.9555 20.8219C46.9958 21.069 46.9992 21.3364 46.8944 21.5862C46.7896 21.8361 46.5565 22.0638 46.2926 22.1041C45.8741 22.1686 45.6054 21.7763 45.4731 21.4103C45.24 20.7661 45.148 20.0588 44.8706 19.4368C44.7436 19.1514 44.4353 18.5247 43.9463 18.1606C44.5166 18.1573 45.1984 18.565 45.6316 18.8605ZM46.2691 23.7135C46.2691 24.1582 45.9084 24.5189 45.4637 24.5189C45.019 24.5189 44.6583 24.1582 44.6583 23.7135C44.6583 23.2688 45.019 22.9081 45.4637 22.9081C45.9084 22.9081 46.2691 23.2688 46.2691 23.7135ZM42.5976 19.4859C43.2679 19.9426 43.7871 20.6237 43.9215 21.4472C43.9618 21.6944 43.9651 21.9617 43.8604 22.2116C43.7556 22.4615 43.5225 22.6892 43.2585 22.7295C42.8401 22.7933 42.5714 22.4017 42.4391 22.0356C42.206 21.3915 42.114 20.6842 41.8365 20.0622C41.7096 19.7767 41.4013 19.15 40.9123 18.786C41.4826 18.7819 42.1643 19.1903 42.5976 19.4852V19.4859ZM37.6868 29.0958C38.282 28.9574 39.1343 28.8654 40.0707 28.944C41.0063 29.0252 41.8305 29.261 42.3941 29.4981C42.9596 29.7352 43.272 29.9529 43.2484 30.0005C43.1967 30.1174 41.8339 29.5042 40.0351 29.3611C38.2383 29.1965 36.7908 29.5693 36.7599 29.4457C36.7451 29.3947 37.0904 29.2335 37.6875 29.0958H37.6868ZM36.596 27.7329C36.1513 27.7329 35.7906 27.3722 35.7906 26.9275C35.7906 26.4829 36.1513 26.1222 36.596 26.1222C37.0407 26.1222 37.4014 26.4829 37.4014 26.9275C37.4014 27.3722 37.0407 27.7329 36.596 27.7329ZM38.8254 25.6406C38.8254 25.1959 39.186 24.8352 39.6307 24.8352C40.0754 24.8352 40.4361 25.1959 40.4361 25.6406C40.4361 26.0852 40.0754 26.4459 39.6307 26.4459C39.186 26.4459 38.8254 26.0852 38.8254 25.6406ZM42.6654 25.4001C42.2208 25.4001 41.8601 25.0394 41.8601 24.5948C41.8601 24.1501 42.2208 23.7894 42.6654 23.7894C43.1101 23.7894 43.4708 24.1501 43.4708 24.5948C43.4708 25.0394 43.1101 25.4001 42.6654 25.4001ZM39.6871 20.4625C40.3575 20.9193 40.8767 21.6003 41.011 22.4238C41.0513 22.671 41.0547 22.9384 40.9499 23.1882C40.8451 23.4381 40.6121 23.6658 40.3481 23.7061C39.9296 23.7706 39.6609 23.3783 39.5286 23.0122C39.2955 22.3681 39.2035 21.6608 38.9261 21.0388C38.7992 20.7533 38.4908 20.1267 38.0019 19.7626C38.5721 19.7592 39.2539 20.167 39.6871 20.4618V20.4625ZM36.7639 21.6292C37.4343 22.086 37.9535 22.7671 38.0872 23.5906C38.1275 23.8378 38.1308 24.1051 38.026 24.355C37.9213 24.6048 37.6882 24.8325 37.4242 24.8728C37.0057 24.9373 36.7371 24.5451 36.6047 24.179C36.3717 23.5348 36.2796 22.8275 36.0022 22.2055C35.8753 21.9201 35.567 21.2934 35.078 20.9293C35.6482 20.926 36.33 21.3337 36.7633 21.6286L36.7639 21.6292ZM34.4063 22.9236C34.9759 23.5006 35.354 24.2697 35.3265 25.1032C35.3184 25.3538 35.2701 25.6164 35.1189 25.8414C34.9678 26.0664 34.6958 26.2444 34.4284 26.2337C34.006 26.2162 33.8179 25.7796 33.7581 25.3947C33.6533 24.7177 33.6997 24.0064 33.5479 23.342C33.478 23.0378 33.2966 22.3634 32.8869 21.9113C33.4471 22.0175 34.0375 22.5495 34.4056 22.9229L34.4063 22.9236ZM34.7811 28.2837C34.7811 28.7284 34.4204 29.0891 33.9757 29.0891C33.5311 29.0891 33.1704 28.7284 33.1704 28.2837C33.1704 27.839 33.5311 27.4783 33.9757 27.4783C34.4204 27.4783 34.7811 27.839 34.7811 28.2837ZM32.1756 24.3214C32.631 25.1341 32.86 26.0993 32.6726 27.0122C32.6162 27.2862 32.5175 27.5616 32.324 27.7638C32.1306 27.966 31.825 28.0788 31.5617 27.9848C31.1439 27.835 31.0411 27.295 31.0559 26.8523C31.0821 26.0725 31.2648 25.3007 31.2413 24.5209C31.2305 24.1635 31.1795 23.3629 30.8591 22.7375C31.3964 23.0277 31.8814 23.7968 32.1763 24.3214H32.1756ZM24.2295 28.7384C24.9106 28.5772 25.6031 28.7955 26.1068 29.3295C25.4446 29.4968 24.7232 29.2523 24.2295 28.7384ZM22.6456 32.4146C23.2676 32.3233 23.8392 32.606 24.1952 33.181C23.5887 33.2797 22.9956 32.9681 22.6456 32.4146ZM23.1453 34.4498C22.5307 34.4606 21.9887 34.067 21.722 33.4685C22.3507 33.4678 22.876 33.8299 23.1453 34.4498ZM23.3059 31.3419C23.9312 31.2519 24.5062 31.536 24.8649 32.1117C24.2557 32.2097 23.6592 31.8967 23.3059 31.3419ZM23.7895 29.9508C24.4209 29.879 24.9932 30.1792 25.3404 30.7663C24.7245 30.8469 24.1314 30.5164 23.7895 29.9508ZM24.3799 27.5751C25.0079 27.2661 25.7314 27.3238 26.3419 27.7322C25.7341 28.0432 24.9757 27.966 24.3799 27.5751ZM24.4854 26.3539C25.1006 26.0201 25.8261 26.0496 26.4521 26.4332C25.857 26.7677 25.0959 26.7207 24.4854 26.3539ZM26.442 24.7748C25.9201 25.2154 25.1638 25.3115 24.4954 25.0656C25.0368 24.6223 25.7549 24.5148 26.442 24.7748ZM26.0726 23.2413C25.6803 23.8001 24.9744 24.087 24.2651 24.0205C24.6755 23.4536 25.3425 23.1661 26.0726 23.2413ZM23.7452 22.9028C24.034 22.2653 24.6305 21.8509 25.3613 21.779C25.0886 22.405 24.4538 22.8269 23.7452 22.9028ZM24.6681 20.5559C24.5136 21.2208 23.9655 21.7508 23.2824 21.9537C23.451 21.2746 23.9621 20.7587 24.6681 20.5559ZM23.5242 19.4173C23.5007 20.0998 23.0641 20.7251 22.4334 21.0556C22.4683 20.3564 22.8706 19.7525 23.5242 19.4173ZM22.4072 18.565C22.4642 19.2454 22.1056 19.9178 21.5178 20.3208C21.4701 19.6222 21.7979 18.9747 22.4072 18.565ZM21.1269 17.9477C21.2673 18.616 20.9939 19.3273 20.4606 19.8002C20.3269 19.1131 20.5728 18.43 21.1269 17.9477ZM19.7687 17.6649C19.9911 18.3104 19.8084 19.0506 19.3382 19.5859C19.1199 18.921 19.2791 18.2123 19.7687 17.6649ZM18.1406 17.7227C18.4838 18.3131 18.4482 19.0741 18.0902 19.6907C17.7476 19.0802 17.7658 18.3547 18.1406 17.7227ZM16.7945 17.7227C17.1592 18.5488 17.1498 19.5974 16.8119 20.435C16.4472 19.5812 16.4405 18.5811 16.7945 17.7227ZM15.2906 17.4963C15.9112 18.9015 15.8951 20.6862 15.3201 22.1108C14.6995 20.6586 14.6881 18.9566 15.2906 17.4963ZM13.9734 17.7878C14.3274 18.6462 14.3206 19.6464 13.9559 20.5008C13.618 19.6632 13.6086 18.614 13.9734 17.7878ZM12.6266 17.7878C13.0014 18.4192 13.0196 19.1453 12.677 19.7559C12.319 19.1399 12.2834 18.3782 12.6266 17.7878ZM10.9984 17.7301C11.4881 18.2775 11.6473 18.9854 11.429 19.6511C10.9588 19.1158 10.7761 18.3756 10.9984 17.7301ZM9.64095 18.0128C10.1951 18.4951 10.4409 19.1782 10.3073 19.8654C9.77395 19.3925 9.50057 18.6812 9.64095 18.0128ZM9.25003 20.3866C8.6623 19.9836 8.30361 19.3112 8.36071 18.6308C8.96993 19.0405 9.29839 19.6887 9.25003 20.3866ZM8.33384 21.1208C7.70245 20.7896 7.26652 20.1649 7.24301 19.4825C7.89657 19.8177 8.29891 20.4222 8.33384 21.1208ZM7.48549 22.0188C6.80238 21.8153 6.25428 21.286 6.09979 20.621C6.80574 20.8239 7.3169 21.3397 7.48549 22.0188ZM7.02269 22.9679C6.31406 22.892 5.67931 22.4702 5.4066 21.8442C6.1374 21.916 6.73387 22.3305 7.02269 22.9679ZM6.5028 24.0849C5.79349 24.1514 5.08687 23.8653 4.69528 23.3058C5.42608 23.2305 6.0924 23.5174 6.5028 24.0849ZM6.27241 25.1308C5.60341 25.3766 4.84775 25.2799 4.32585 24.8399C5.01299 24.5807 5.73103 24.6875 6.27241 25.1308ZM6.28249 26.4191C5.67125 26.7858 4.91089 26.8328 4.31577 26.4983C4.94179 26.1148 5.66722 26.0852 6.28249 26.4191ZM6.38794 27.6402C5.79215 28.0311 5.03381 28.1084 4.42593 27.7974C5.0365 27.389 5.75991 27.3306 6.38794 27.6402ZM4.66035 29.3953C5.16412 28.8607 5.85663 28.6431 6.53773 28.8043C6.04404 29.3181 5.32197 29.5626 4.66035 29.3953ZM5.42675 30.8314C5.77402 30.245 6.3463 29.9441 6.97769 30.016C6.6358 30.5816 6.04269 30.912 5.42675 30.8314ZM7.80186 31.2674C7.44855 31.8222 6.85208 32.1352 6.24286 32.0371C6.60154 31.4608 7.17651 31.1774 7.80186 31.2674ZM7.24301 32.913C7.59901 32.338 8.17062 32.0553 8.7926 32.1466C8.44265 32.7008 7.84955 33.0124 7.24301 32.913ZM8.40101 33.9588C8.67036 33.3389 9.19562 32.9768 9.82432 32.9775C9.55766 33.576 9.01561 33.9696 8.40101 33.9588ZM9.14524 36.6174C9.22652 35.3277 9.67521 34.0529 10.4759 33.0299C8.356 31.892 6.86216 29.6607 6.61766 27.2668C6.26905 23.8754 9.30108 18.0605 13.1559 20.6136C14.1346 21.2658 14.8647 22.2405 15.5727 23.197C15.3537 22.9968 10.2052 18.4172 8.09069 24.2938C5.93321 30.2914 12.7818 33.2999 15.3906 33.1998C18.3535 33.0863 22.8397 31.4971 23.0547 26.4419C23.2696 21.3827 18.4892 18.5824 15.5801 23.2044C15.7285 21.9926 16.4768 20.8769 17.526 20.31C20.6466 18.616 23.7989 21.7427 24.1529 25.0099C24.4632 27.8706 23.0856 31.9888 20.7615 33.6828C21.2505 34.5204 21.5138 35.4654 21.5655 36.4293C21.5877 36.8592 21.3392 37.2595 20.9576 37.4523C16.6507 39.6017 11.8992 38.4236 9.88679 37.7411C9.40855 37.5779 9.11233 37.1185 9.14524 36.6181V36.6174ZM19.6001 26.8631C20.0253 26.4755 20.2537 25.8092 19.9709 25.3081C19.6868 24.8057 18.9808 24.6599 18.4455 24.8762C17.9102 25.0925 17.4077 25.566 17.1585 26.0873C17.4333 25.3256 17.8323 24.5766 18.4777 24.087C19.1232 23.5973 20.0582 23.4253 20.7541 23.8404C21.3781 24.2126 21.6918 25.0058 21.5675 25.7212C21.4433 26.4365 20.9247 27.0525 20.2745 27.3749C19.6237 27.6973 18.8573 27.7443 18.1479 27.5905C18.7021 27.4353 19.1756 27.2513 19.6008 26.8631H19.6001ZM17.7664 26.7825C17.6254 26.5386 17.7705 26.1914 18.0902 26.0067C18.4099 25.8219 18.7827 25.8703 18.9238 26.1141C19.0648 26.358 18.9197 26.7052 18.6 26.8899C18.2803 27.0746 17.9075 27.0263 17.7664 26.7825ZM17.2465 28.375C17.6227 28.6095 17.9155 28.6471 17.9095 28.7095C17.9129 28.7532 17.5891 28.8197 17.1196 28.6202C16.6561 28.4288 16.1 27.9317 15.8185 27.211C15.7003 26.9155 15.6163 26.6253 15.5545 26.3479C15.4887 26.6139 15.4054 26.8913 15.2919 27.1741C15.0105 27.8955 14.4543 28.3932 13.9902 28.5853C13.5193 28.7855 13.1956 28.719 13.1989 28.6753C13.1929 28.6128 13.4864 28.5752 13.8625 28.3408C14.2374 28.1131 14.6827 27.6583 14.9285 27.0303C15.1905 26.3768 15.3544 25.7648 15.4229 25.3121C15.4336 25.2463 15.4404 25.1919 15.4477 25.1328C15.4558 25.03 15.4672 24.9414 15.482 24.8661C15.5028 24.6827 15.5176 24.5659 15.5525 24.5612C15.5619 24.5598 15.574 24.5786 15.5854 24.5974C15.5854 24.5974 15.5868 24.5954 15.5875 24.5954C15.5901 24.5954 15.5915 24.6048 15.5942 24.6068C15.5955 24.6089 15.5962 24.6095 15.5975 24.6122C15.6123 24.6263 15.6237 24.6639 15.6331 24.7217C15.6634 24.8312 15.6862 24.9964 15.6929 25.2073C15.699 25.2544 15.703 25.2953 15.7104 25.3471C15.7728 25.8004 15.9206 26.4164 16.1812 27.0666C16.4271 27.6939 16.8724 28.148 17.2472 28.375H17.2465ZM16.9167 30.7851C16.8576 30.6695 16.7172 30.5916 16.6037 30.6447C16.5251 30.681 16.4781 30.7669 16.4479 30.8516C16.417 30.9362 16.3968 31.0262 16.3471 31.1001C16.2558 31.2351 16.067 31.2848 15.926 31.2109C15.6022 31.0403 15.7648 30.5936 15.9287 30.372C16.1188 30.1147 16.4204 29.9105 16.7381 29.9126C17.0027 29.9146 17.2627 30.055 17.4185 30.28C17.7006 30.6877 17.5972 31.2915 17.2875 31.6771C16.9779 32.0626 16.5117 32.2668 16.0482 32.3971C16.2544 32.3394 16.4936 32.0465 16.6286 31.884C16.7965 31.6831 16.904 31.4339 16.949 31.17C16.9711 31.041 16.9758 30.9006 16.9167 30.7851ZM13.8323 31.1706C13.878 31.4353 13.9855 31.6838 14.1527 31.8846C14.2884 32.0472 14.5275 32.3401 14.7331 32.3978C14.2703 32.2675 13.8034 32.0626 13.4938 31.6778C13.1841 31.2929 13.0807 30.689 13.3628 30.2806C13.5186 30.0556 13.7786 29.9152 14.0432 29.9132C14.3609 29.9105 14.6625 30.1154 14.8526 30.3727C15.0165 30.5943 15.1791 31.041 14.8553 31.2116C14.7143 31.2855 14.5255 31.2358 14.4342 31.1008C14.3845 31.0269 14.3636 30.9369 14.3334 30.8523C14.3032 30.7676 14.2562 30.6823 14.1776 30.6454C14.0634 30.5923 13.9237 30.6696 13.8646 30.7858C13.8055 30.9013 13.8102 31.0417 13.8323 31.1706ZM11.4827 26.8711C11.9281 27.2359 12.411 27.395 12.9726 27.5207C12.272 27.7114 11.5042 27.7054 10.8372 27.4179C10.1702 27.1304 9.62013 26.5427 9.45825 25.8347C9.29637 25.1267 9.56774 24.3173 10.1709 23.913C10.844 23.4623 11.7863 23.5839 12.4567 24.0386C13.127 24.4933 13.565 25.2201 13.8793 25.9664C13.6033 25.4592 13.0767 25.0132 12.5306 24.8251C11.9845 24.6377 11.2873 24.8204 11.03 25.3377C10.7741 25.8528 11.0374 26.5057 11.4827 26.8705V26.8711ZM12.4822 26.8449C12.1531 26.6777 11.9905 26.3385 12.1182 26.0873C12.2458 25.836 12.6159 25.7682 12.945 25.9355C13.2741 26.1027 13.4367 26.4419 13.3091 26.6931C13.1814 26.9443 12.8113 27.0122 12.4822 26.8449ZM18.962 41.9715C16.7092 43.6305 13.1734 43.4096 11.1691 41.4831C10.5209 40.8618 10.0776 40.0921 9.83104 39.2632C9.7679 39.0509 9.98083 38.8568 10.2005 38.9273C11.3424 39.2968 13.2533 39.7777 15.4511 39.7777C17.0605 39.7777 18.829 39.5178 20.558 38.7648C20.779 38.6687 21.0208 38.8629 20.9543 39.0859C20.6171 40.2163 19.9367 41.2501 18.962 41.9708V41.9715ZM19.9111 42.1542C19.9111 42.1542 22.8659 40.4172 22.9244 36.1365C22.9244 36.1365 24.6472 35.1759 25.6306 31.7268C25.6306 31.7268 25.3404 34.7561 23.4872 36.3897C23.4872 36.3897 23.7895 40.1089 19.9105 42.1535L19.9111 42.1542ZM26.7691 44.0551C25.9571 44.276 25.1195 43.7965 24.8985 42.9844C24.6775 42.1723 25.1571 41.3347 25.9691 41.1137C26.0706 41.0862 26.172 41.0768 26.2727 41.07C26.1236 40.9727 25.9832 40.8692 25.8644 40.7617C25.5621 40.4897 25.3519 40.2083 25.1255 39.9295C24.8891 39.6393 24.6318 39.3492 24.3551 39.0603C24.2704 38.973 24.1851 38.8857 24.0971 38.7991C24.2207 38.8058 24.3423 38.8098 24.4646 38.8132C24.8635 38.8239 25.2518 38.8185 25.6252 38.797C25.9839 38.7769 26.3332 38.742 26.7382 38.7823C27.1426 38.8226 27.6188 38.9502 28.0084 39.1859C28.3899 39.417 28.6337 39.7246 28.67 39.9705C28.707 40.217 28.5545 40.4031 28.3013 40.5105C28.2375 40.5374 28.1528 40.5475 28.0581 40.5475C28.1226 40.6167 28.1716 40.6865 28.1951 40.7517C28.2865 41.0116 28.2516 41.2494 28.0447 41.3878C27.8385 41.5268 27.4469 41.5543 27.019 41.4274C26.7658 41.3522 26.5226 41.2286 26.3016 41.0875C25.7367 41.4314 25.4405 42.1159 25.6225 42.7862C25.81 43.474 26.438 43.9227 27.1191 43.91C27.0116 43.9711 26.8947 44.0195 26.7698 44.053L26.7691 44.0551ZM32.541 37.1541C32.5611 37.5128 32.5961 37.862 32.5558 38.2664C32.5155 38.6708 32.3878 39.147 32.1521 39.5366C31.921 39.9181 31.6134 40.1619 31.3675 40.1982C31.121 40.2351 30.935 40.0827 30.8275 39.8294C30.8006 39.7656 30.7906 39.681 30.7906 39.5863C30.7214 39.6508 30.6515 39.6998 30.5864 39.7233C30.3264 39.8147 30.0886 39.7797 29.9503 39.5728C29.8112 39.3666 29.7837 38.975 29.9106 38.5472C30.0403 38.1106 30.3063 37.6955 30.5776 37.3932C30.8497 37.0909 31.1311 36.8807 31.4099 36.6543C31.7 36.4179 31.9902 36.1606 32.279 35.8839C32.3663 35.7993 32.4537 35.714 32.5403 35.626C32.5336 35.7496 32.5296 35.8711 32.5262 35.9934C32.5155 36.3924 32.5208 36.7806 32.5423 37.1541H32.541ZM34.3915 39.8435C34.145 39.1752 33.4787 38.7829 32.8016 38.8555C32.903 38.7856 33.0152 38.7265 33.1368 38.6822C33.9267 38.3907 34.8032 38.7944 35.0948 39.5843C35.3863 40.3742 34.9826 41.2507 34.1927 41.5422C34.0718 41.5873 33.9482 41.6155 33.8253 41.6282C34.3875 41.2433 34.638 40.5125 34.3915 39.8442V39.8435ZM33.3584 39.8973C33.5741 39.9927 33.6714 40.2445 33.5767 40.4601C33.4814 40.6758 33.2295 40.7732 33.0139 40.6784C32.7982 40.5831 32.7009 40.3312 32.7956 40.1156C32.8909 39.9 33.1428 39.8026 33.3584 39.8973ZM32.7915 41.4402C33.2281 41.5698 33.6432 41.8358 33.9455 42.1071C34.2478 42.3792 34.458 42.6606 34.6844 42.9394C34.9208 43.2295 35.1781 43.5197 35.4548 43.8085C35.5394 43.8959 35.6247 43.9832 35.7127 44.0698C35.5891 44.0631 35.4676 44.0591 35.3453 44.0557C34.9463 44.045 34.5581 44.0504 34.1846 44.0718C33.8259 44.092 33.4767 44.1269 33.0716 44.0866C32.6673 44.0463 32.191 43.9187 31.8015 43.6829C31.4199 43.4519 31.1761 43.1442 31.1398 42.8984C31.1029 42.6519 31.2554 42.4658 31.5086 42.3584C31.5724 42.3315 31.657 42.3214 31.7517 42.3214C31.6873 42.2522 31.6382 42.1824 31.6147 42.1172C31.5234 41.8573 31.5583 41.6195 31.7652 41.4811C31.9714 41.3421 32.363 41.3145 32.7909 41.4415L32.7915 41.4402ZM29.4122 38.2664C29.3169 38.482 29.065 38.5794 28.8494 38.4847C28.6337 38.3893 28.5364 38.1374 28.6311 37.9218C28.7264 37.7062 28.9783 37.6088 29.1939 37.7035C29.4096 37.7989 29.507 38.0508 29.4122 38.2664ZM29.7185 39.9215L29.331 40.8833L28.9159 41.1782L29.0589 41.0049L29.2363 39.5245L29.7185 39.9221V39.9215ZM29.4693 42.0621L29.7642 42.4772L29.5909 42.3342L28.1105 42.1568L28.5081 41.6746L29.47 42.0621H29.4693ZM29.6487 41.2427C29.734 41.0499 29.9583 40.9632 30.1511 41.0479C30.3439 41.1332 30.4305 41.3575 30.3459 41.5503C30.2606 41.7431 30.0362 41.8297 29.8435 41.7451C29.6507 41.6598 29.564 41.4354 29.6487 41.2427ZM30.9195 41.8022L30.7422 43.2826L30.2599 42.885L30.6475 41.9231L31.0626 41.6282L30.9195 41.8015V41.8022ZM31.1647 44.0611C31.3803 44.1565 31.4777 44.4084 31.383 44.624C31.2876 44.8396 31.0357 44.937 30.8201 44.8423C30.6045 44.7469 30.5071 44.495 30.6018 44.2794C30.6972 44.0638 30.9491 43.9664 31.1647 44.0611ZM30.5091 40.7449L30.2142 40.3298L30.3875 40.4729L31.868 40.6502L31.4703 41.1325L30.5084 40.7449H30.5091ZM31.467 45.6967C32.1548 45.5093 32.6035 44.8812 32.5907 44.2001C32.6518 44.3076 32.7002 44.4245 32.7338 44.5494C32.9548 45.3615 32.4752 46.1991 31.6631 46.4201C30.851 46.6411 30.0134 46.1615 29.7924 45.3494C29.7588 45.2245 29.7407 45.0989 29.7394 44.9759C30.0739 45.5697 30.7791 45.8841 31.467 45.6967ZM28.5303 36.9418C27.8425 37.1292 27.3938 37.7573 27.4066 38.4384C27.3454 38.3309 27.2971 38.214 27.2635 38.0891C27.0425 37.277 27.5221 36.4394 28.3342 36.2184C29.1463 35.9974 29.9839 36.477 30.2048 37.2891C30.2384 37.414 30.2566 37.5396 30.2579 37.6625C29.9234 37.0688 29.2181 36.7544 28.5303 36.9418ZM26.6563 42.6485C26.4407 42.5531 26.3433 42.3013 26.438 42.0856C26.5334 41.87 26.7853 41.7726 27.0009 41.8673C27.2165 41.9627 27.3139 42.2146 27.2192 42.4302C27.1238 42.6458 26.8719 42.7432 26.6563 42.6485ZM27.5315 46.985C27.4442 47.0696 27.3569 47.1549 27.2702 47.2429C27.2769 47.1193 27.281 46.9977 27.2843 46.8755C27.2951 46.4765 27.2897 46.0883 27.2682 45.7148C27.248 45.3561 27.2131 45.0068 27.2534 44.6018C27.2937 44.1974 27.4213 43.7212 27.6571 43.3316C27.8882 42.9501 28.1958 42.7063 28.4416 42.67C28.6882 42.6331 28.8742 42.7856 28.9817 43.0388C29.0086 43.1026 29.0186 43.1872 29.0186 43.2819C29.0878 43.2175 29.1577 43.1684 29.2228 43.1449C29.4828 43.0536 29.7205 43.0885 29.8589 43.2954C29.998 43.5016 30.0255 43.8932 29.8985 44.321C29.7689 44.7576 29.5029 45.1727 29.2316 45.475C28.9595 45.7773 28.6781 45.9875 28.3993 46.2139C28.1092 46.4503 27.819 46.7076 27.5302 46.9843L27.5315 46.985ZM32.8876 62.1478C33.4901 61.5453 33.7971 60.4551 33.7057 59.6081C33.0427 60.5579 32.3341 61.0059 31.3696 61.6474C31.7336 60.9629 31.88 59.9916 31.7571 59.2266C31.3454 60.3221 30.3875 61.2793 29.3558 61.8314C30.2592 60.134 30.6347 58.1606 30.4171 56.2503C30.8953 57.1524 31.0465 58.1801 30.7382 59.1534C31.5408 58.5878 32.2414 57.6474 32.5101 56.703C32.8312 57.6783 32.6599 58.9807 32.2972 59.9419C33.3175 59.2931 34.0879 57.8321 34.2337 56.6312C34.2431 57.3821 34.4345 58.0323 34.4446 58.7833C34.8899 58.125 35.3688 57.1725 35.4064 56.3786C35.5246 58.6617 34.6521 60.6936 32.8883 62.1485L32.8876 62.1478ZM37.3107 50.5879C37.6553 49.7443 37.8883 48.6703 37.7782 47.7655C38.376 50.1722 37.7124 52.7864 36.2595 54.7961C36.7968 53.7012 36.8795 52.6057 36.4617 51.4598C36.1204 52.8294 35.2533 53.9619 34.0785 54.7437C34.4271 53.7382 34.7106 52.2208 34.2115 51.2805C33.8864 52.382 32.8916 53.5669 31.9889 54.2776C32.3046 53.4453 32.449 52.1248 31.8686 51.4497C31.8041 52.5097 30.9511 53.6059 30.2619 54.4146C30.5629 52.3437 29.9677 50.1574 28.6573 48.5258C29.7709 49.1465 30.6435 50.1668 31.068 51.3691C31.4811 50.5812 31.5287 49.6241 31.4193 48.7415C32.0594 49.6449 32.6914 51.1468 32.7821 52.2504C33.5667 51.2227 34.1047 49.9398 33.9657 48.6548C34.5346 49.6382 35.2728 50.6867 35.3829 51.8171C36.2555 50.5853 36.4408 49.3278 36.467 47.8179C36.7807 48.6273 37.1206 49.7416 37.3107 50.5886V50.5879ZM37.3288 41.8835C37.1609 42.1918 36.9822 42.3221 36.9399 42.2898C36.8392 42.2287 37.2831 41.5248 37.1253 40.614C36.9748 39.7025 36.324 39.1826 36.3992 39.0926C36.4281 39.0483 36.6403 39.1127 36.8996 39.3485C37.1569 39.5796 37.4457 40.0034 37.5377 40.5441C37.6291 41.0855 37.4954 41.5805 37.3281 41.8835H37.3288ZM35.6919 36.8095C35.1666 36.1895 34.9725 35.3586 35.1995 34.6708C35.4232 33.9911 35.9686 33.5471 36.5154 33.4228C37.081 33.2912 37.5626 33.531 37.8286 33.7775C38.1073 34.0334 38.2141 34.3215 38.239 34.5096C38.2611 34.7024 38.2222 34.7991 38.198 34.7984C38.1651 34.7991 38.1443 34.7058 38.0764 34.5553C38.0059 34.4075 37.8742 34.1993 37.625 34.0314C37.3799 33.8675 37.0104 33.7446 36.6363 33.8742C36.2642 33.9931 35.8867 34.3558 35.7665 34.8374C35.6402 35.3083 35.8047 35.9114 36.2131 36.3514C36.6141 36.792 37.2751 37.058 37.983 37.0815C38.6782 37.1111 39.4574 36.882 39.9142 36.3534C40.3716 35.8449 40.4381 34.9791 40.0982 34.2893C39.7597 33.5894 39.0645 33.085 38.3323 32.8277C37.5888 32.5644 36.7868 32.512 36.0224 32.5375C34.4876 32.5872 33.126 32.9567 32.0507 33.4107C29.8851 34.3363 28.8702 35.4883 28.7708 35.3768C28.7338 35.3425 28.9394 35.0215 29.4237 34.5358C29.9127 34.0609 30.6932 33.4201 31.8035 32.8727C32.9064 32.3233 34.3405 31.8645 35.9881 31.7671C36.8049 31.7194 37.7036 31.7503 38.6017 32.0532C39.4883 32.3562 40.377 32.9587 40.8518 33.9252C41.0843 34.4075 41.183 34.9402 41.1353 35.4634C41.091 35.984 40.8814 36.5059 40.5314 36.8941C40.1855 37.2844 39.7402 37.5376 39.2935 37.6847C38.8448 37.8332 38.384 37.8795 37.9427 37.852C37.0702 37.7982 36.2246 37.4429 35.6912 36.8088L35.6919 36.8095ZM37.703 35.3358C37.703 35.6119 37.4793 35.8355 37.2032 35.8355C36.9271 35.8355 36.7035 35.6119 36.7035 35.3358C36.7035 35.0597 36.9271 34.8361 37.2032 34.8361C37.4793 34.8361 37.703 35.0597 37.703 35.3358ZM39.4393 41.4193C39.3184 41.735 39.1666 41.8848 39.1196 41.8593C39.0114 41.8116 39.3258 41.0821 39.0853 40.2244C38.8542 39.3639 38.2114 38.8971 38.2806 38.8011C38.3081 38.7547 38.515 38.8064 38.7797 39.016C39.0423 39.2215 39.3493 39.6051 39.489 40.1136C39.6287 40.622 39.5602 41.109 39.4393 41.4193ZM41.2851 40.7342C41.1145 41.0304 40.9486 41.1641 40.9036 41.1339C40.8525 41.1009 40.9264 40.9122 41.0131 40.6173C41.099 40.3251 41.189 39.9134 41.1158 39.4849C41.0413 39.0637 40.7974 38.7265 40.5805 38.5431C40.3629 38.353 40.1728 38.2913 40.1828 38.2288C40.1849 38.1784 40.4186 38.13 40.7444 38.2966C41.0634 38.4558 41.4308 38.8575 41.5289 39.4137C41.6216 39.9624 41.453 40.4447 41.2864 40.7342H41.2851ZM42.3826 37.1077C41.8695 37.5336 41.4443 37.588 41.4349 37.5443C41.4073 37.4812 41.7714 37.328 42.1791 36.8928C42.5841 36.473 43.0174 35.7066 42.963 34.8213C42.8992 33.9367 42.3685 33.2347 41.9111 32.8727C41.449 32.4952 41.0681 32.3924 41.0869 32.3259C41.0903 32.2809 41.5188 32.2783 42.0844 32.6329C42.6365 32.9688 43.3029 33.7412 43.3808 34.7937C43.4432 35.8476 42.8851 36.7014 42.3826 37.1077ZM48.978 31.6428C48.3036 31.9941 47.55 32.0956 46.8319 32.0976C46.1099 32.0976 45.3985 31.9968 44.706 31.8961C41.9232 31.485 39.3023 31.0383 36.9104 31.0598C34.5272 31.0585 32.3972 31.5461 30.7879 32.3293C29.1604 33.0944 28.0991 34.1368 27.471 34.9187C26.8464 35.7126 26.6059 36.2352 26.5455 36.2063C26.5011 36.1902 26.6395 35.6166 27.2071 34.7286C27.776 33.8561 28.8366 32.6793 30.5219 31.8014C32.1857 30.9046 34.4204 30.3297 36.9009 30.2894C39.3842 30.2249 42.0636 30.6608 44.8263 31.0685C45.5215 31.1706 46.1864 31.264 46.8333 31.266C47.4754 31.268 48.0954 31.176 48.6018 30.9154C49.6376 30.4284 50.0702 29.1394 49.7773 28.1406C49.4878 27.1197 48.5609 26.3747 47.6239 26.1914C46.6694 25.9926 45.6948 26.2679 45.0177 26.7462C44.6818 26.9867 44.4165 27.2956 44.2802 27.6194C44.1418 27.9418 44.1458 28.2783 44.2735 28.5524C44.4011 28.8291 44.6301 29.0434 44.8706 29.1784C45.1131 29.3154 45.367 29.3739 45.6047 29.3826C46.0817 29.4001 46.4551 29.2583 46.6969 29.1609C46.9407 29.0588 47.067 28.9883 47.0858 29.0138C47.1013 29.034 47.0093 29.1515 46.7775 29.3087C46.5471 29.4598 46.167 29.6714 45.6081 29.7077C45.0661 29.7473 44.2842 29.5183 43.8557 28.7613C43.6461 28.3851 43.6145 27.8733 43.7845 27.4259C43.9497 26.9752 44.2647 26.585 44.661 26.2733C45.4536 25.6668 46.5686 25.3041 47.7548 25.5089C48.9303 25.7125 50.1031 26.5843 50.5175 27.9223C50.7177 28.5893 50.6928 29.3302 50.4349 30.0073C50.1897 30.687 49.6524 31.3023 48.9787 31.6422L48.978 31.6428ZM46.5377 27.9243C46.5377 28.2427 46.2798 28.5007 45.9614 28.5007C45.643 28.5007 45.3851 28.2427 45.3851 27.9243C45.3851 27.606 45.643 27.348 45.9614 27.348C46.2798 27.348 46.5377 27.606 46.5377 27.9243ZM47.0287 55.7398C46.5001 55.1165 46.1797 54.3454 45.9487 53.5615C45.7028 52.7286 45.3945 51.975 45.5362 51.1481C45.7102 51.9884 46.2012 52.7743 46.6808 53.4863C46.57 52.6077 47.0966 51.5048 47.7333 50.8895C47.5117 51.31 47.4714 51.8077 47.5325 52.2793C47.5943 52.7508 47.8395 53.3573 47.996 53.806C47.9866 52.914 48.395 51.9797 49.0371 51.3597C49.0693 52.161 49.3609 52.916 49.784 53.5971C49.9902 52.8683 50.3691 52.1335 50.7909 51.5048C50.6283 52.3377 50.9521 53.2384 51.5257 53.8638C51.5392 52.9805 51.652 52.3538 52.1235 51.6069C52.0369 52.0388 52.186 53.0322 52.4211 53.3741C52.499 52.9597 52.722 52.0119 52.9813 51.6794C52.9121 52.863 52.8711 53.9545 53.1573 55.1044C52.816 54.7 52.415 54.2379 52.1571 53.7758C52.0691 54.4529 52.0006 55.0258 52.1323 55.6955C51.4908 55.1803 50.8567 54.3723 50.5 53.6314C50.1602 54.299 49.9251 54.9949 50.0574 55.7318C49.52 55.1299 48.9363 54.3575 48.5353 53.6576C48.3909 54.3561 48.3372 55.1474 48.3607 55.8601C47.7965 55.1467 47.3834 54.4065 47.2081 53.5145C47.0146 54.1835 46.9481 55.048 47.0274 55.7398H47.0287ZM54.2555 59.5483C53.9344 59.2998 53.5603 59.0184 53.2882 58.7107C53.3534 59.2434 53.4132 59.6927 53.6342 60.1811C53.0773 59.9016 52.4708 59.3972 52.0752 58.8941C51.9583 59.4644 51.922 60.0373 52.1571 60.5767C51.658 60.212 51.0945 59.7263 50.6747 59.2629C50.7036 59.8224 50.8151 60.4356 50.9669 60.9763C50.4282 60.5317 49.9922 60.04 49.6974 59.3891C49.6853 59.9345 49.8015 60.6062 49.9902 61.1208C49.4939 60.7386 49.1184 60.2066 48.8047 59.6491C48.4715 59.0566 48.1075 58.5354 48.0524 57.8792C48.3359 58.4897 48.8363 59.0036 49.3145 59.4617C49.0687 58.8101 49.2366 57.8745 49.5758 57.2914C49.4965 57.6521 49.5624 58.039 49.696 58.3883C49.8297 58.7376 50.1199 59.1567 50.3173 59.4718C50.142 58.792 50.2569 58.0054 50.5988 57.4184C50.7741 58.0249 51.1254 58.5495 51.5573 58.9949C51.5667 58.4017 51.6984 57.773 51.8811 57.2182C51.9227 57.8832 52.325 58.5132 52.8543 58.8894C52.6965 58.213 52.6582 57.7133 52.8543 57.0597C52.8738 57.405 53.1694 58.1371 53.4024 58.3567C53.3796 58.0263 53.3594 57.2626 53.4824 56.963C53.657 57.8792 53.8343 58.7201 54.2575 59.5477L54.2555 59.5483ZM51.8569 51.0897C51.7601 50.2736 51.9025 49.3977 52.059 48.5876C51.2839 49.1942 50.6042 49.8121 49.9889 50.5718C49.7558 49.7268 49.7652 48.8516 50.1232 48.0442C49.3179 48.6017 48.5884 49.2466 48.1303 50.0963C48.0907 49.2345 48.1921 48.2659 48.3661 47.4182C47.419 48.0308 46.7057 48.8879 46.3335 49.929C46.1414 49.0901 46.1569 48.145 46.2234 47.2866C45.639 48.0342 45.2326 48.9201 44.8766 49.7906C44.62 48.1047 43.8859 46.3213 44.9445 44.9497C44.9512 46.0601 45.1789 46.2092 45.3972 47.169C45.7566 46.3993 46.3671 45.7007 46.9394 45.3514C46.7634 46.0124 46.7634 47.0454 46.8581 47.7749C47.5271 47.1489 48.5159 46.2844 49.4341 46.1601C49.1009 46.6592 48.9055 47.4431 48.892 48.1269C49.4502 47.4095 50.4819 46.905 51.4048 46.8574C50.9407 47.4404 50.6653 48.2256 50.578 48.9551C51.3108 48.0416 52.0624 47.2288 53.2466 47.1079C53.0034 47.5445 52.6528 48.0819 52.6528 48.8704C53.0867 48.5426 53.9505 48.0644 54.4792 47.9193C53.3191 48.7341 52.3875 49.7994 51.8582 51.0884L51.8569 51.0897ZM54.2622 46.9104C54.2682 45.737 54.6229 44.5212 54.9856 43.4022C53.7813 44.1256 52.7106 44.8819 51.7064 45.8512C51.5244 44.6139 51.691 43.376 52.3385 42.2945C51.1005 42.9434 49.9546 43.7286 49.1567 44.8517C49.2507 43.6238 49.5651 42.2704 49.9587 41.0996C48.5098 41.8015 47.3491 42.8903 46.6405 44.3002C46.5156 43.0784 46.7023 41.7431 46.9468 40.5381C45.9883 41.4946 45.2582 42.6788 44.6006 43.8495C44.5327 41.4173 45.5074 38.9723 47.2464 37.2152C46.6922 38.2012 46.3497 39.2404 45.7955 40.2271C46.7399 39.2981 47.9241 38.8179 49.2661 38.7198C48.575 39.4802 48.313 40.3359 47.9174 41.2736C48.9746 40.5045 50.5927 39.7905 51.9146 39.775C51.1214 40.3594 50.6532 41.2339 50.5773 42.1958C51.4935 41.2776 53.0431 40.7429 54.3583 40.8376C53.5992 41.5825 53.0713 42.6465 52.8194 43.6641C54.017 42.4981 55.9226 41.7498 57.6213 41.7867C56.8892 42.3194 56.5775 42.9837 56.1557 43.7703C56.8281 43.3813 57.7523 42.9938 58.5268 42.8809C56.7408 43.832 55.2348 45.1781 54.2602 46.9111L54.2622 46.9104ZM58.7693 38.4061C58.6517 38.6553 58.4509 38.8582 58.2252 39.0167C57.9995 39.1752 57.7483 39.2927 57.4991 39.4103C57.4951 39.3995 57.485 39.4184 57.4803 39.4103C57.5562 39.3015 57.6267 39.1893 57.6878 39.0711C57.8302 38.7977 57.9223 38.4894 57.8974 38.1818C57.8759 37.9211 57.7725 37.672 57.6294 37.4523C57.4863 37.2333 57.3009 37.0117 57.1135 36.8283C56.9261 37.011 56.7407 37.2327 56.5977 37.4523C56.4546 37.672 56.3512 37.9211 56.3297 38.1818C56.3048 38.4894 56.3968 38.7977 56.5392 39.0711C56.601 39.1886 56.6716 39.3008 56.7468 39.4103C56.7421 39.4184 56.732 39.3989 56.728 39.4103C56.4781 39.2934 56.2276 39.1752 56.0019 39.0167C55.7762 38.8582 55.5754 38.656 55.4578 38.4061C55.31 38.0911 55.3067 37.7223 55.392 37.3845C55.4773 37.0473 55.6445 36.7363 55.8286 36.4407C56.0623 36.0659 56.3243 35.7093 56.6125 35.3741C56.6151 35.3788 56.6172 35.3835 56.6198 35.3882C56.4842 35.7059 56.3485 36.027 56.2833 36.3662C56.2457 36.5603 56.2444 36.792 56.3955 36.919C56.4942 37.0023 56.6366 37.017 56.7629 36.9882C56.8892 36.96 57.0027 36.8935 57.1135 36.8276C57.225 36.8935 57.3386 36.9593 57.4642 36.9882C57.5898 37.017 57.7322 37.0023 57.8316 36.919C57.982 36.7914 57.9807 36.5596 57.9438 36.3662C57.8786 36.027 57.7429 35.7059 57.6072 35.3882C57.6099 35.3835 57.6119 35.3788 57.6146 35.3741C57.9028 35.7086 58.1654 36.0659 58.3985 36.4407C58.5825 36.7363 58.7498 37.0473 58.8351 37.3845C58.9204 37.7217 58.917 38.0911 58.7693 38.4061ZM62.1438 39.0886C61.1021 40.1707 59.3469 37.1944 58.5288 35.5319C58.5288 35.5319 63.2071 37.9829 62.1438 39.0886ZM62.8579 26.4977C62.8008 26.7415 62.7027 26.99 62.5113 27.1814C62.3192 27.3729 62.0176 27.4951 61.7576 27.432C61.3465 27.3326 61.2465 26.8678 61.2633 26.4789C61.2921 25.7944 61.4755 25.1052 61.456 24.4248C61.4466 24.1125 61.3996 23.4159 61.0859 22.8934C61.6152 23.1063 62.0908 23.743 62.3789 24.1803C62.8256 24.8574 63.0473 25.6849 62.8585 26.4977H62.8579Z" fill="#AF3830"/>
<path d="M27.5166 24.4551C28.3549 24.5773 28.952 25.3128 29.2261 26.0698C29.5532 26.9719 29.5404 27.9969 29.1012 28.8553C28.6619 29.7138 27.7766 30.3781 26.7744 30.5023C27.5798 30.1389 28.3589 29.4431 28.7673 28.6941C28.4704 28.9924 28.0446 29.0528 27.6194 28.9702C28.2642 28.7116 28.7539 28.2367 29.0293 27.6288C28.6639 27.9103 28.1541 28.1131 27.6886 28.0433C28.146 27.79 28.6128 27.5247 28.9829 27.1674C28.6404 26.9974 28.1937 26.9121 27.8095 26.9571C28.1003 26.7489 28.4892 26.7576 28.8103 26.9209C28.5013 26.5219 28.0621 26.1786 27.5408 26.1316C27.8726 25.9785 28.4536 25.9993 28.7337 26.2263C28.5396 25.8959 28.2797 25.6493 27.9082 25.5076C28.2098 25.5056 28.4382 25.515 28.6928 25.6668C28.4019 25.2181 27.9949 24.7271 27.5166 24.4564V24.4551Z" fill="#AF3830"/>
</svg>
