<svg width="80" height="80" viewBox="0 0 80 80" fill="none" xmlns="http://www.w3.org/2000/svg">
<path d="M70.3484 40.7767C70.1132 40.58 69.8632 40.4017 69.6005 40.2435C68.5965 39.6369 67.5386 39.1246 66.4401 38.7131C62.3899 37.1481 58.2356 35.8616 54.1876 34.2868C53.6141 34.0632 52.9947 33.9824 52.383 34.0516C52.0514 34.0885 51.9202 34.1492 52.1598 34.5025C52.5033 35.0075 52.3765 35.2514 51.7804 35.2243C51.3545 35.2059 51.2927 35.3327 51.4109 35.7066C51.5355 36.099 51.3783 36.2832 50.9502 36.2388C50.8223 36.2247 50.6879 36.0925 50.5536 36.2171C50.5731 37.057 50.5731 37.0614 49.7277 37.0971C49.5304 37.1047 49.3906 37.108 49.3635 37.3648C49.3234 37.7268 49.059 37.8775 48.7219 37.9068C48.4705 37.9299 48.2176 37.9436 47.9632 37.9479C47.7779 37.9479 47.65 37.9794 47.6695 38.2146C47.702 38.5906 47.443 38.6004 47.1699 38.5961C46.7364 38.5885 46.3028 38.4487 45.8184 38.5115C45.842 38.5716 45.8726 38.6287 45.9094 38.6817C46.0731 38.8486 46.2345 39.0188 46.409 39.1759C47.4795 40.1276 48.2787 41.346 48.7252 42.707C49.2205 44.1788 49.5208 45.7092 49.6182 47.259C49.6475 47.9815 49.7868 48.6952 50.0312 49.3757C50.107 49.5773 50.2046 49.8179 50.4365 49.8428C50.6858 49.8699 50.7833 49.6185 50.8928 49.4364C51.0603 49.1363 51.1764 48.8102 51.2364 48.4718C51.4791 47.3078 51.4358 46.1383 51.283 44.9689C51.1919 44.272 51.076 43.5784 50.9752 42.8815C50.96 42.7807 50.934 42.6495 51.09 42.6322C51.2179 42.6181 51.206 42.7352 51.232 42.8175C51.2635 42.9001 51.2996 42.9808 51.3404 43.0592C51.982 44.7933 52.5434 46.5589 53.3119 48.2442C53.4832 48.6417 53.7015 49.0172 53.9622 49.3627C54.3556 49.8634 54.8693 49.8081 55.1641 49.2402C55.3039 48.9464 55.368 48.6222 55.3505 48.2973C55.331 47.1116 54.9853 45.9985 54.5788 44.9006C54.5203 44.712 54.4705 44.5224 54.4022 44.336C54.0879 43.4364 53.7638 42.5401 53.4571 41.6373C53.3953 41.4552 53.3314 41.1972 53.5655 41.1138C53.753 41.0477 53.8657 41.2644 53.9611 41.4194C53.9892 41.4649 54.0196 41.5104 54.0467 41.556C54.9287 43.0055 55.8867 44.4073 56.9166 45.7558C57.4206 46.4169 57.9571 47.0563 58.6161 47.569C58.7992 47.712 58.9921 47.8855 59.2479 47.7597C59.5037 47.634 59.585 47.388 59.5817 47.1246C59.587 46.8905 59.5649 46.6566 59.5156 46.4277C59.0366 44.5256 57.9506 42.9595 56.7443 41.4617C56.507 41.1669 56.2523 40.8851 56.0247 40.5827C55.8881 40.4006 55.6572 40.1492 55.8328 39.9649C56.029 39.7482 56.2566 40.0159 56.4289 40.147C56.9307 40.5307 57.4152 40.9371 57.9083 41.3305C59.5752 42.6582 61.2324 44.0011 63.219 44.841C63.852 45.1087 64.5077 45.3211 65.2111 45.2626C65.7595 45.2171 65.9221 44.919 65.6186 44.4671C65.4027 44.1553 65.1573 43.865 64.8859 43.6C64.1878 42.9183 63.4369 42.2928 62.6403 41.7294C61.0958 40.6022 59.5373 39.4913 57.9885 38.3695C57.8509 38.2698 57.6298 38.1604 57.7566 37.9469C57.8834 37.7333 58.0655 37.9252 58.1901 37.9794C58.9943 38.3403 59.7887 38.7131 60.5832 39.099C62.6771 40.1145 64.7635 41.1495 67.0481 41.6806C68.0962 41.9234 69.1562 42.022 70.1912 41.6373C70.7364 41.4357 70.7819 41.1495 70.3484 40.7767ZM49.59 44.22C49.0395 42.4859 49.2649 40.677 49.0839 38.9093C50.2154 40.5903 49.9347 42.4024 49.59 44.22ZM52.6453 43.3584L52.4383 43.25L52.3299 43.1351L52.3397 43.1448L52.2313 43.0148V43.0094C51.4986 41.7229 50.6879 40.4754 50.197 39.0643C50.1244 38.8551 49.9618 38.6578 50.0745 38.3555C50.8993 39.1878 51.5918 40.0701 52.008 41.1419C52.2822 41.8573 52.7255 42.5206 52.7223 43.3269C52.7078 43.3246 52.693 43.3263 52.6794 43.3319C52.6658 43.3374 52.654 43.3466 52.6453 43.3584ZM51.3209 37.8406C53.0214 38.9927 54.5116 40.1893 55.7212 41.7857C54.5821 41.7153 51.7122 39.1737 51.3209 37.8406ZM57.1735 39.4089C57.1356 39.5238 57.0218 39.5097 56.9492 39.4837C55.1652 38.8518 53.3726 38.2232 52.2302 36.565C52.2237 36.5563 52.2378 36.5336 52.2541 36.474C53.5309 36.9901 54.756 37.6259 55.913 38.3728C56.3086 38.6221 56.6793 38.9147 57.0575 39.1867C57.1247 39.2366 57.2071 39.3038 57.1724 39.4089H57.1735ZM58.1413 37.3583C58.0622 37.4581 57.8834 37.5881 57.7078 37.5047C56.7898 37.0473 55.7645 36.8923 54.8379 36.4523C54.0586 36.0816 53.3769 35.6145 52.771 34.7886C54.645 35.4389 56.3476 36.1434 57.943 37.0917C58.0546 37.1568 58.2259 37.2489 58.1403 37.3583H58.1413Z" fill="#AF3830"/>
<path d="M46.2441 66.7861V66.7946H46.2573L46.2441 66.7861Z" fill="#AF3830"/>
<path d="M44.2957 70.9946C45.0567 69.6501 45.707 68.2459 46.2401 66.7959C45.9724 66.8187 45.915 67.0755 45.786 67.2381C44.0616 69.4404 42.3178 71.6232 40.4276 73.6911C38.7032 75.5824 37.1111 77.6037 35.0822 79.2002C34.7571 79.4592 34.4319 79.7334 34.1133 80C36.0013 79.6987 37.6411 78.8967 39.0717 77.7013C41.2979 75.8479 42.8998 73.4971 44.2957 70.9946Z" fill="#AF3830"/>
<path d="M54.0938 62.6883C55.3055 63.8675 56.7664 64.417 58.4008 64.4777C60.1989 64.5459 62.1498 63.0687 62.7025 61.2002C61.3011 61.9253 59.9572 62.5225 58.4951 62.8183C57.0331 63.1142 55.5591 62.9842 54.0938 62.6883Z" fill="#AF3830"/>
<path d="M17.2106 9.99302C19.1896 13.2065 21.6759 16.019 24.2055 18.7969C24.9295 19.5913 25.6394 20.402 26.2214 21.3081C26.3743 21.5465 26.4772 21.4598 26.6463 21.3818C26.9389 21.2463 27.1763 20.9591 27.587 21.0013C27.5469 21.1021 27.5383 21.1834 27.4938 21.2268C27.1199 21.592 26.7352 21.9508 26.3602 22.3106C24.1784 24.3915 22.9028 26.8355 23.3894 29.9417C23.6517 31.6184 24.5361 32.9396 25.9472 34.0158C26.478 31.2532 27.3051 28.5559 28.414 25.9706C28.9559 24.6787 28.9266 23.3771 28.4237 22.0689C27.9989 20.9656 27.3876 19.9685 26.7514 18.9844C23.3916 13.782 19.5094 8.99266 15.4494 4.33659C15.2326 4.08622 14.9844 3.86404 14.6582 3.53564C14.7081 3.92257 14.7221 4.17293 14.7753 4.41679C15.2153 6.4381 16.1376 8.25241 17.2106 9.99302Z" fill="#AF3830"/>
<path d="M57.1319 62.1842C58.776 62.1842 60.2999 61.7507 61.5853 60.6669C61.4407 60.6455 61.2933 60.6533 61.1518 60.6896C59.9932 60.9194 58.8302 61.0571 57.663 60.7601C55.8508 60.2995 54.5047 59.1344 53.2974 57.7926C50.4339 54.6159 49.0347 50.8237 48.6261 46.6087C48.3747 44.0075 47.4924 41.634 45.8613 39.5552C45.3898 38.9537 44.8176 38.44 44.3125 37.7929C45.4469 37.6758 46.5484 37.3425 47.5575 36.811C50.2507 35.4346 51.9307 33.1694 52.8682 30.3807C53.8674 27.4046 53.6377 24.6072 51.094 22.367C50.9602 22.2453 50.8539 22.0966 50.7821 21.9306C50.7104 21.7647 50.6748 21.5853 50.6778 21.4046C50.6388 20.3468 51.1026 19.4537 51.5448 18.5422C51.8385 17.9927 52.3176 17.5559 52.5203 16.949C51.8018 17.3021 51.1452 17.7691 50.5759 18.3319L50.4675 18.4306L50.3418 18.5541L50.3559 18.5411L50.2139 18.6614C49.2146 19.5327 48.4662 20.6553 48.0463 21.9129C47.5184 23.5245 47.681 25.0982 48.469 26.5798C49.2049 27.9638 49.3815 29.3717 48.8938 30.8619C48.2847 32.7239 47.1077 34.0841 45.2533 34.7474C43.5192 35.3674 41.7482 35.9396 39.8678 35.4747C37.6026 34.9176 36.2251 32.8789 36.6586 30.7958C37.1583 28.393 38.8674 27.2257 41.3656 27.6072C41.7775 27.6701 41.6561 27.4523 41.5748 27.2821C41.257 26.625 40.7044 26.111 40.026 25.8417C39.7973 25.7431 39.3541 25.8179 39.3757 25.5166C39.4018 25.1849 39.8244 25.0885 40.129 24.9866C40.5517 24.8457 40.9841 24.8782 41.4111 24.9866C41.5466 25.0191 41.6756 25.1188 41.8349 25.0288C41.8533 24.7427 41.7038 24.5195 41.5477 24.3027C41.1981 23.8146 40.7115 23.4412 40.1496 23.2297C39.9971 23.1805 39.8602 23.0921 39.7526 22.9735C39.6449 22.8548 39.5703 22.7099 39.5361 22.5534C39.3731 21.9129 38.9652 21.3618 38.4003 21.0187C37.9083 20.7261 37.9419 20.3847 38.1521 19.9793C38.6431 19.0353 39.4668 18.5129 40.465 18.255C40.9776 18.1228 41.5098 18.061 42.0907 17.958C41.7395 17.596 41.3212 17.5245 40.8985 17.4801C39.9583 17.3861 39.0109 17.5649 38.1695 17.9949C38.0437 18.0588 37.8649 18.2366 37.7359 18.0675C37.607 17.8984 37.7641 17.7207 37.8747 17.5863C38.4046 16.9447 39.0744 16.561 39.9176 16.509C40.1756 16.4927 40.4433 16.4938 40.7348 16.2033C39.1091 15.7178 37.7208 16.0949 36.3714 16.8731C36.6965 15.9053 37.4986 15.4327 38.2702 14.9385C38.1272 14.7218 37.9451 14.7835 37.7977 14.7716C36.6781 14.6784 35.9151 15.4371 34.9982 16.0397C35.0925 15.0068 35.8273 14.4595 36.3389 13.7572C36.0985 13.69 35.8427 13.7034 35.6106 13.7951C34.8866 14.0119 34.362 14.4931 33.8884 15.0534C33.767 15.1976 33.6445 15.4631 33.444 15.3785C33.2045 15.2767 33.3183 14.9862 33.3616 14.7965C33.4646 14.3316 33.6163 13.8785 33.7518 13.4092C33.4744 13.3583 33.3053 13.5046 33.1373 13.626C32.6886 13.9512 32.4133 14.4226 32.1792 14.9158C32.1326 15.0133 32.1077 15.1542 31.9906 15.1564C31.8465 15.1564 31.7923 15.0133 31.7522 14.8962C31.5919 14.3886 31.5069 13.8602 31.4996 13.328C30.7767 13.7398 30.7637 14.4671 30.5632 15.1065C30.2142 14.8702 30.0365 14.5473 29.7905 14.2871C29.6647 14.1549 29.6051 13.8536 29.37 13.9522C29.1348 14.0509 29.2421 14.3337 29.2475 14.5451C29.2491 14.5992 29.2609 14.6525 29.2822 14.7022C29.4252 15.0274 29.2822 15.0827 28.9787 15.1076C28.3085 15.1508 27.6612 15.3678 27.1004 15.7373C26.8392 15.914 26.5531 16.0895 26.5141 16.471C26.7894 16.5328 27.0192 16.3952 27.2576 16.3431C28.62 16.0408 29.9151 16.2033 31.1257 16.9046C32.8815 17.9212 33.3822 19.6325 32.4762 21.4468C32.2133 21.9616 31.9092 22.4541 31.5668 22.9197C30.1785 24.8435 28.9884 26.8778 28.1062 29.0867C26.7114 32.583 26.1868 36.1889 27.2229 39.8435C29.0058 46.1297 32.94 50.7586 38.603 53.9505C39.1485 54.2721 39.7478 54.4925 40.3718 54.6008C41.2334 54.7352 41.7656 54.3547 41.9314 53.5061C42.0124 53.0241 41.9999 52.531 41.8945 52.0538C41.875 51.9454 41.7038 51.8154 41.9032 51.746C42.0636 51.6907 42.0994 51.8652 42.1492 51.9747C43.1138 54.1055 43.5755 56.3219 43.2688 58.6651C43.194 59.2308 43.0856 59.7933 42.9924 60.358L43.1637 60.4035C44.6691 58.4407 44.681 56.0216 45.0604 53.7044C45.1023 53.76 45.1269 53.8268 45.1308 53.8963C45.289 56.3804 44.8642 58.7637 43.7218 60.9769C42.7594 62.8508 41.3472 64.4722 40.5788 66.462C40.5246 66.6019 40.4281 66.7449 40.2742 66.5553C39.8635 66.0502 39.3118 65.9949 38.7124 65.9917C38.2085 65.9917 38.009 65.6958 38.112 65.1896C38.1701 64.9445 38.2522 64.7056 38.357 64.4765C38.8479 63.332 39.3822 62.2081 39.9827 61.1167C40.1214 60.862 40.2861 60.6019 40.2688 60.3103C40.246 59.944 40.3772 59.8172 40.7294 59.8768C41.0817 59.9364 41.1391 59.7857 41.0264 59.4844C40.5654 58.2496 40.108 57.0144 39.6543 55.7789C39.6154 55.6588 39.5529 55.5478 39.4704 55.4523C39.388 55.3568 39.2872 55.2788 39.1742 55.2229C38.4979 54.8858 37.8248 54.5422 37.1507 54.2008L36.7421 53.9537L35.5152 53.1571L35.3049 53.0206L33.2327 51.4003L32.9379 51.1401L31.3436 49.5415L31.2168 49.4201H31.2233L31.1149 49.3117C31.0647 49.1875 30.9743 49.0837 30.858 49.0169L30.7551 48.8966C30.6944 48.8251 30.6337 48.7525 30.5719 48.6799L30.4581 48.5585H30.4657L30.3161 48.3699L30.2175 48.2442C30.1904 48.2106 30.1622 48.177 30.1351 48.1423L30.0267 48.0155H30.0365C30.0377 47.9991 30.0334 47.9828 30.0244 47.9691C30.0154 47.9554 30.0021 47.9451 29.9866 47.9396L29.8132 47.7109L29.6875 47.5484C29.5877 47.3247 29.4448 47.1229 29.267 46.9544C29.2269 46.8992 29.1857 46.8461 29.1445 46.7897L29.151 46.7604L29.1261 46.7442C29.0947 46.6997 29.0643 46.6553 29.0329 46.612C28.2319 45.3245 27.5028 43.9937 26.849 42.6257L26.7623 42.4555L26.7731 42.4295L26.7525 42.4111L26.7222 42.3027C26.5553 41.906 26.3891 41.5086 26.2236 41.1105C26.2301 41.0579 26.2236 41.0046 26.2047 40.9551C26.1858 40.9056 26.1551 40.8615 26.1153 40.8265C25.996 40.4385 25.8768 40.0505 25.7533 39.6463C25.4617 39.901 25.4726 40.3648 25.0455 40.4472C25.0455 40.3768 25.0401 40.3052 25.0369 40.2304C25.0589 40.2022 25.0757 40.1703 25.0867 40.1362C25.2374 38.944 25.5376 37.7799 25.7164 36.5899C25.8324 35.8074 25.8248 35.2416 25.1463 34.7951L25.0293 34.6716L24.716 34.3724L24.5925 34.2489L24.3855 34.0494L24.2316 33.8966C24.2238 33.878 24.209 33.8632 24.1904 33.8554L23.9346 33.6138L23.8262 33.4934L23.7406 33.397C23.4512 32.7966 22.9635 32.3023 22.7814 31.6445C22.6806 31.2803 22.6134 30.9042 22.4162 30.5726C22.4172 30.5408 22.4097 30.5094 22.3945 30.4815C22.427 30.3255 22.5462 30.1564 22.3219 30.0404L22.2981 29.5083C22.3556 29.0404 22.3556 28.5672 22.2981 28.0993L22.2861 27.8825C22.4572 26.9458 22.7487 26.0351 23.1532 25.173L23.1944 25.0754C23.2929 24.9887 23.3571 24.8695 23.3754 24.7395C23.3909 24.73 23.4038 24.7168 23.4129 24.7011C23.422 24.6854 23.4269 24.6677 23.4274 24.6495L23.6181 24.3168L23.6994 24.1997L23.8425 23.9905C24.4592 23.2135 25.0932 22.4461 25.8963 21.8543C26.2063 21.6257 26.1261 21.4848 25.9212 21.2756C25.3046 20.6426 24.7009 19.9956 24.0788 19.3692C18.586 13.846 13.5809 7.89913 8.64089 1.88829C8.42413 1.62058 8.18786 1.3648 7.96025 1.10252C7.879 1.32084 7.85658 1.55669 7.89522 1.78641C7.99887 2.42681 8.1577 3.05705 8.36994 3.67008C9.52745 7.09927 11.6301 9.91395 14.1142 12.4793C16.5332 14.9786 19.078 17.3565 21.4343 19.9176C22.0921 20.6329 22.7793 21.3265 23.267 22.1817H23.2605C23.1202 22.1519 22.9942 22.0755 22.9028 21.9649C21.6759 20.6101 20.2713 19.4418 18.9285 18.2106C15.521 15.0848 12.1795 11.8941 8.99421 8.54075C6.54371 5.96127 4.16148 3.32217 2.04045 0.458733C1.90389 0.275568 1.78684 -0.100517 1.51263 0.0252061C1.26986 0.141174 1.43785 0.483662 1.46928 0.724269C1.58379 1.5121 1.79303 2.28322 2.09248 3.02088C3.3833 6.33844 5.56069 9.04256 8.0643 11.4985C10.5679 13.9544 13.3186 16.1264 16.0596 18.3059C16.3284 18.5227 16.6015 18.7243 16.7988 19.0147C16.8714 19.1231 16.9126 19.251 16.8107 19.3627C16.7088 19.4743 16.5766 19.4407 16.465 19.3702C16.2482 19.2369 16.0314 19.1047 15.8331 18.953C11.7038 15.8576 7.55707 12.7828 3.59573 9.46958C2.81104 8.81279 2.03395 8.14732 1.17773 7.42225C1.2408 7.92149 1.38735 8.40658 1.61126 8.85722C3.20772 12.1737 5.60404 14.8041 8.5932 16.9056C10.6893 18.3785 12.8201 19.8027 14.9335 21.2496C15.2254 21.4308 15.4897 21.6531 15.7182 21.9096C15.7729 21.9709 15.8085 22.0469 15.8207 22.1281C15.8328 22.2094 15.8209 22.2924 15.7865 22.367C15.6889 22.5599 15.496 22.4754 15.353 22.4201C15.1351 22.3335 14.9239 22.231 14.7211 22.1134C13.0889 21.1911 11.4274 20.3142 9.83526 19.3269C6.97507 17.5559 3.88294 16.1307 1.40642 13.7767C1.38799 13.7593 1.34139 13.7767 1.28937 13.7767C1.15823 14.5971 1.4812 15.294 1.89414 15.9551C2.97795 17.7012 4.55599 18.9335 6.2294 20.0509C8.5466 21.5975 11.0437 22.8146 13.5571 23.9992C13.8171 24.1241 14.0704 24.2626 14.3158 24.4143C14.4115 24.4708 14.4818 24.562 14.5123 24.6689C14.5427 24.7758 14.531 24.8903 14.4794 24.9887C14.397 25.1892 14.1803 25.1719 14.0058 25.1231C13.6427 25.0223 13.2807 24.9064 12.922 24.7796C9.31394 23.4638 5.79804 21.9237 2.30057 20.3457C2.12716 20.2676 1.90389 20.0704 1.75866 20.2102C1.57983 20.3814 1.69255 20.6556 1.79876 20.8605C2.04647 21.3442 2.38801 21.7738 2.80346 22.1242C4.62102 23.6936 6.74204 24.7178 8.98121 25.5057C10.4784 26.0339 12.007 26.4682 13.5582 26.8063C13.698 26.8366 13.9061 26.8399 13.8952 27.0057C13.8811 27.2225 13.6438 27.1802 13.4996 27.1748C13.0499 27.1553 12.599 27.1249 12.1525 27.0664C9.12861 26.673 6.10368 26.2872 3.06357 26.0476C2.79912 26.027 2.37969 25.8677 2.29406 26.1788C2.20844 26.4898 2.62896 26.6502 2.88583 26.789C3.92412 27.3504 5.03829 27.7102 6.17846 27.9942C8.06917 28.4843 10.0046 28.7821 11.9552 28.8829C12.147 28.8916 12.4971 28.7442 12.5036 29.1712C12.4583 29.2139 12.4048 29.247 12.3463 29.2685C12.2878 29.2899 12.2255 29.2992 12.1633 29.2958C11.3353 29.3565 10.5029 29.3966 9.68027 29.505C8.62572 29.6459 7.569 29.7976 6.5372 30.0307C5.19544 30.332 3.84826 30.6571 2.74385 31.5708C2.67557 31.6271 2.57694 31.6791 2.60837 31.7756C2.6398 31.8721 2.73193 31.8926 2.82513 31.897C3.99349 31.9566 5.16184 32.0867 6.33128 31.9046C6.4802 31.9461 6.63827 31.9412 6.78431 31.8905C8.40245 31.9046 9.99349 31.5913 11.6073 31.4678C11.1467 31.8601 10.5874 31.9989 10.0618 32.2059C7.86163 33.0729 5.67232 33.9584 3.79949 35.4573C3.40095 35.7567 3.05984 36.1258 2.79262 36.5466C3.97956 36.4487 5.1548 36.2404 6.3031 35.9244C7.41835 35.6329 8.51083 35.2655 9.59248 34.8699C10.6741 34.4743 11.7254 34.0516 12.7908 33.6408L12.871 33.7817C9.75072 35.4682 6.67268 37.2034 4.82586 40.4537C5.05671 40.5155 5.20194 40.431 5.35043 40.3811C6.48984 39.9817 7.59228 39.4838 8.64523 38.893C10.2905 37.9978 11.8772 36.9942 13.5733 36.1921C13.7999 36.0838 14.021 35.9255 14.3884 35.9602C13.4249 36.6766 12.5686 37.3909 11.7417 38.1387C10.9003 38.8782 10.1656 39.731 9.55888 40.6726C9.27059 41.1343 9.04299 41.6253 8.98663 42.1759C8.97254 42.32 8.97579 42.4837 9.11994 42.5639C9.24349 42.6322 9.36488 42.5357 9.46351 42.4674C9.68027 42.3125 9.89703 42.1423 10.1138 41.9743C11.5 40.9067 12.9133 39.8771 14.4848 39.0903C14.7211 38.9711 14.9465 38.7651 15.2511 38.8356C14.9975 39.2561 14.5921 39.5314 14.2594 39.876C13.4053 40.7615 12.5762 41.6654 12.1243 42.8381C11.8869 43.4559 11.7991 44.0932 11.9996 44.7424C12.0473 44.893 12.0636 45.0968 12.2294 45.1456C12.4126 45.1997 12.5014 45.0068 12.6022 44.8909C12.884 44.5657 13.1441 44.22 13.4335 43.8948C14.2735 42.9356 15.1124 41.9765 16.0878 41.1181C15.5632 42.3742 15.3161 43.6239 15.961 45.0307C16.4129 43.9707 16.9115 43.0603 17.6788 42.332L17.7872 42.4403C17.6474 42.8294 17.4881 43.2131 17.3732 43.6087C17.1185 44.4942 17.215 45.3526 17.59 46.263C18.5264 44.1203 19.1236 43.4071 19.9028 43.4624C19.2168 45.6701 20.5098 49.5654 22.3804 50.7239C22.1355 50.182 21.7832 49.7778 21.6543 49.2695C21.5296 48.7785 21.3291 48.294 21.6196 47.6958C22.0249 48.4805 22.3566 49.2185 22.8367 49.8721C23.3237 50.5441 23.8875 51.157 24.5166 51.6983C25.1301 52.2175 25.7955 52.6315 26.6322 52.7388C26.5225 52.5731 26.3863 52.4266 26.2291 52.3052C25.5606 51.6981 24.9942 50.9874 24.5513 50.2005C24.4527 50.0195 24.2262 49.7832 24.405 49.626C24.5838 49.4689 24.7811 49.7344 24.9285 49.871C25.4704 50.3728 25.9971 50.8865 26.5304 51.3959C27.3974 52.2738 28.3967 52.9241 29.6734 53.0899C28.7454 52.4232 27.9441 51.5959 27.3074 50.647L27.2164 50.5018H27.2305L27.108 50.285V50.2731C27.0387 49.9425 26.8078 49.6347 26.9465 49.2207L28.2276 50.57L28.336 50.6784L28.4552 50.7944L28.5701 50.9125C29.4241 51.7666 30.3508 52.4971 31.6243 52.742C31.6026 52.483 31.4433 52.4418 31.3403 52.3562C30.69 51.8078 30.1232 51.1835 29.7428 50.4129C29.6691 50.2644 29.4913 50.0878 29.6593 49.9306C29.8013 49.8005 30.0007 49.9154 30.1698 49.9772C30.8331 50.2243 31.388 50.673 32.0275 50.9656C32.2681 51.074 32.2095 51.2767 32.1976 51.4783C32.1543 52.1784 32.0773 52.8807 32.2627 53.5744C32.2832 53.7706 32.2898 53.97 32.3266 54.164C32.7276 56.2969 33.6694 58.1904 34.9083 59.9494C35.2128 60.3829 35.4231 60.8024 35.1575 61.3464C34.6156 62.4476 34.1041 63.5618 33.5838 64.6727C33.2587 65.3717 32.7298 65.6871 31.9429 65.6481C31.1843 65.6156 30.4256 65.5701 29.6669 65.6893C28.6709 65.8464 27.8244 66.7536 27.8548 67.6575C28.2265 67.4884 28.5408 67.2023 29.0416 67.1286C28.7608 67.5686 28.5127 67.9328 28.2948 68.3143C28.22 68.4454 28.0932 68.6232 28.1951 68.7662C28.3284 68.9537 28.4845 68.7446 28.6286 68.7153C28.8031 68.6806 28.9668 68.5798 29.1423 68.5581C29.4772 68.5159 29.8945 68.3555 30.134 68.5917C30.3736 68.828 29.9975 69.1337 29.9422 69.4252C29.9422 69.4382 29.9509 69.4545 29.9671 69.5119C30.2153 69.5119 30.4332 69.3829 30.6608 69.2951C31.1442 69.1033 31.5809 68.7901 32.1142 68.7316C32.4556 68.6936 32.6106 68.7717 32.397 69.1434C32.2421 69.4133 31.9169 69.7872 32.1196 69.9953C32.3548 70.2391 32.7493 69.9292 33.0668 69.823C33.1687 69.7864 33.2682 69.7437 33.3649 69.6951C33.871 69.4577 34.3718 69.2117 34.8822 68.9852C35.0275 68.9212 35.2074 68.8887 35.3385 69.0318C35.4697 69.1748 35.4057 69.332 35.3472 69.4881C35.2887 69.6441 35.1218 69.7406 35.2583 69.9595C35.858 69.6695 36.4105 69.2906 36.8971 68.8356C37.2678 68.4861 37.7287 68.247 38.228 68.1452C38.5228 68.0899 38.6377 68.1918 38.5629 68.4985C38.538 68.6069 38.3667 68.6925 38.5065 68.8237C39.4419 68.66 40.2406 68.1561 40.9657 67.6261C42.766 66.3365 44.1863 64.5864 45.0777 62.5592C45.8505 60.7937 46.2699 58.9349 46.5788 57.0448C46.5983 56.9266 46.5333 56.7445 46.7522 56.7196C47.0437 62.5722 44.4892 66.7829 39.5448 69.2702C38.9921 69.5488 38.4307 69.8121 37.8736 70.0744C38.7764 70.1156 39.6207 69.8728 40.5766 69.7157C38.2171 72.9975 35.2171 75.3699 31.7543 77.2102C33.7808 76.7329 35.7072 75.9023 37.4455 74.7565C39.6229 73.3193 41.3635 71.4086 43.116 69.5119C45.6088 66.8132 47.4892 63.7818 48.1677 60.1055C48.2002 59.9321 48.133 59.6979 48.4256 59.5636C48.2392 62.2157 47.952 64.8157 47.0958 67.2998C45.5394 71.8183 42.5968 75.3884 39.1514 78.6019C42.5806 77.6947 45.1341 75.5444 47.4036 72.9465C49.7392 70.2717 50.7114 67.1156 50.8284 63.6257C51.8396 69.3775 49.5083 73.8298 45.4451 77.6319C47.1902 76.8979 48.7303 75.7499 49.9321 74.2872C53.2139 70.2771 54.0441 65.7901 52.3891 60.7731C53.9758 61.5188 55.465 62.1972 57.1319 62.1842ZM33.7865 26.1571C33.3421 25.6336 33.34 24.8901 33.7811 24.2583C34.517 23.2048 36.2511 23.0834 37.0325 24.0415C37.2547 24.3135 37.4422 24.6116 37.3176 25.1058C36.9307 24.4165 36.4386 24.0144 35.7244 23.9374C35.3832 23.8868 35.0349 23.9505 34.7338 24.1184C34.3187 24.3666 33.9664 24.6809 34.0098 25.2261C34.0488 25.7084 34.4986 26.1441 35.0481 26.2687C35.6984 26.4172 36.2814 26.1744 36.8515 25.9187C36.883 25.9902 36.9144 26.027 36.9057 26.0433C36.2327 26.9342 34.4986 26.9981 33.7865 26.1571ZM24.6358 36.5877C24.8125 36.5942 24.7659 36.7655 24.7724 36.8825C24.78 37.0256 24.7724 37.1687 24.7724 37.3161C24.5947 38.2666 24.2305 39.151 23.8371 40.0256C23.8221 40.036 23.8105 40.0506 23.8038 40.0676C23.7971 40.0846 23.7954 40.1031 23.7991 40.121C23.7753 40.16 23.7514 40.199 23.7265 40.2369C23.4924 40.4537 23.5477 40.8872 23.1619 40.9956V40.7789L23.2431 40.2304L23.2854 39.7969C23.5022 38.7326 23.8273 37.7106 24.4169 36.7872C24.4874 36.72 24.5632 36.5845 24.6358 36.5877ZM23.1705 39.9541C23.166 39.9715 23.1631 39.9892 23.1619 40.0072C23.1624 39.9893 23.1645 39.9715 23.1684 39.9541H23.1705ZM17.9118 32.6687L17.6496 32.6448C16.3154 32.764 14.9732 32.7618 13.6394 32.6383C13.9375 32.3067 14.3819 32.3836 14.7504 32.2492C14.9524 32.1872 15.158 32.1372 15.366 32.0997C16.5874 31.8731 17.8143 31.6791 19.0509 31.5632C19.7413 31.5827 20.4328 31.5957 21.1102 31.7723C21.2847 31.8157 21.5101 31.7301 21.6077 31.962C21.5112 32.0704 21.3779 32.0704 21.2565 32.0877L17.9118 32.6687ZM21.3074 30.126C21.2959 30.1721 21.2796 30.2167 21.2587 30.2593C21.2788 30.2167 21.2945 30.172 21.3053 30.126H21.3074ZM19.6091 20.3717C20.2453 20.9591 20.8013 21.6235 21.3627 22.276C21.3887 22.303 21.4137 22.3312 21.4397 22.3594L21.5361 22.4678L21.6337 22.5881C21.6617 22.7174 21.7347 22.8326 21.8396 22.9132L22.0639 23.3966C21.8374 23.5104 21.6814 23.35 21.5296 23.2405C19.892 22.0483 18.6033 20.5516 17.5856 18.7904C18.3117 19.2474 18.989 19.7777 19.6069 20.3728L19.6091 20.3717ZM21.276 24.8869C19.1387 23.9042 17.3012 22.3705 15.9523 20.4432C17.3244 20.9407 20.7244 23.7467 21.276 24.8869ZM14.4382 23.5234C16.1821 23.3478 20.2822 25.2261 20.8999 26.3641C18.5481 25.7257 16.5191 24.6896 14.4393 23.5234H14.4382ZM13.659 25.2499C14.3537 25.3865 14.9173 25.4786 15.4711 25.6109C17.2887 26.0444 19.0813 26.5581 20.733 27.4674C20.7261 27.4766 20.7217 27.4874 20.72 27.4987C20.7182 27.5101 20.7194 27.5217 20.7233 27.5325C18.6152 27.5628 16.7066 26.8366 14.8371 25.9739C14.4069 25.8004 14.0089 25.5557 13.66 25.2499H13.659ZM13.4281 28.2749C15.7616 28.186 18.0885 28.0971 20.3569 28.858C20.591 28.936 20.7905 29.1105 21.0582 29.0997V29.2731C20.0755 29.3515 19.0874 29.3344 18.108 29.2221C16.9017 29.0758 15.6987 28.897 14.4946 28.7355C14.18 28.7031 13.8719 28.6249 13.5798 28.5036L13.3566 28.3887C13.3491 28.3767 13.3452 28.3628 13.3452 28.3487C13.3453 28.3346 13.3494 28.3208 13.357 28.3089C13.3646 28.297 13.3754 28.2874 13.3882 28.2814C13.401 28.2754 13.4152 28.2731 13.4292 28.2749H13.4281ZM13.4812 28.5231C13.4638 28.5292 13.4468 28.5364 13.4303 28.5447C13.4471 28.5364 13.4645 28.5291 13.4823 28.5231H13.4812ZM13.5311 30.5986C14.0329 30.5184 14.5206 30.3525 15.0365 30.359C15.1817 30.3891 15.3328 30.366 15.4624 30.294L16.0043 30.2539C17.4057 30.2117 18.8049 30.1033 20.1922 30.3753C20.384 30.4122 20.5748 30.4533 20.7655 30.4924C20.7298 30.7546 20.4892 30.6528 20.3483 30.7265C20.0361 30.7861 19.7262 30.8825 19.4119 30.8999C17.7027 30.992 15.9924 31.0722 14.28 31.0083L14.0632 31.0419L13.4129 31.0354C13.0921 30.7882 13.1409 30.6614 13.5322 30.5986H13.5311ZM14.5368 35.2026C15.2446 34.6878 15.9913 34.4927 16.6644 34.1524L16.7955 34.0895V34.096C17.7298 33.7113 18.7269 33.5541 19.6969 33.2994L20.0134 33.2723L20.2421 33.2312C20.6474 33.2225 21.0517 33.2095 21.457 33.2095C21.5762 33.2095 21.7962 33.1585 21.6445 33.4197L21.508 33.4913V33.4826C20.0998 34.0108 18.6629 34.4588 17.2041 34.8244C16.349 34.9154 15.5155 35.1755 14.5379 35.2026H14.5368ZM17.539 38.5516C17.6723 38.1452 18.0267 37.9599 18.1893 37.6423C19.1345 36.6417 20.1784 35.7394 21.3053 34.949C19.6232 35.7478 17.9108 36.4468 16.2113 37.1752C16.1398 37.1752 16.0401 37.2099 16.0033 37.1752C15.8732 37.0527 16.0325 37.005 16.0932 36.9584C16.711 36.4403 17.3938 36.0101 18.0636 35.5679C18.6996 35.2076 19.3725 34.9169 20.0708 34.7008C20.7211 34.4841 21.3811 34.3052 22.0802 34.393C22.0444 34.4797 21.8363 34.4906 21.9209 34.5773C22.0054 34.664 22.1832 34.5924 22.2905 34.4851L22.6059 34.5274L22.3967 34.819C21.211 36.0292 19.9035 37.1137 18.4949 38.0552C18.1763 38.1766 17.9346 38.4606 17.5401 38.557L17.539 38.5516ZM19.2731 39.9291C19.2513 39.9051 19.2277 39.8827 19.2027 39.8619C19.3544 39.3666 19.7088 38.9776 19.9104 38.5083C20.6604 37.2727 21.664 36.2745 22.8009 35.3988C23.1586 35.7239 22.6611 35.9028 22.6763 36.1683V36.1835L22.5766 36.3255C21.6987 37.6488 20.5943 38.7716 19.4541 39.863L19.2731 39.9291ZM21.6304 40.0137L21.0343 40.548C20.9725 40.3735 21.1546 40.2153 21.1308 40.0343C21.5384 38.8591 22.1589 37.769 22.9613 36.8186C23.0762 36.7102 23.189 36.6018 23.306 36.4935C23.5813 36.242 23.6041 36.4338 23.603 36.6647C23.2496 37.8905 22.4725 38.8703 21.7399 39.875C21.703 39.9216 21.6673 39.9692 21.6315 40.0159C21.6389 40.0913 21.6654 40.1637 21.7085 40.2261C21.6666 40.1626 21.6416 40.0895 21.6358 40.0137H21.6304ZM22.5863 40.3594C22.6358 40.3713 22.684 40.3876 22.7305 40.4082C22.6858 40.3879 22.6394 40.3716 22.5918 40.3594H22.5863ZM22.9874 40.5762C22.9495 40.5394 22.9081 40.5063 22.8638 40.4776C22.9101 40.5067 22.9533 40.5405 22.9928 40.5784L22.9874 40.5762ZM32.3678 51.9324C32.3877 51.858 32.4142 51.7854 32.4469 51.7156C32.4159 51.7863 32.3913 51.8596 32.3732 51.9346L32.3678 51.9324ZM36.8494 54.2669C36.8448 54.2629 36.8404 54.2585 36.8364 54.2539C36.8422 54.2584 36.8484 54.2624 36.8548 54.2659L36.8494 54.2669ZM36.8299 54.2442C36.8255 54.2383 36.8215 54.2321 36.8179 54.2258C36.8233 54.2319 36.8291 54.2377 36.8353 54.2431L36.8299 54.2442ZM36.8125 54.216C36.8125 54.2095 36.8049 54.2019 36.8017 54.1943C36.7984 54.1867 36.8147 54.2084 36.8179 54.2149L36.8125 54.216ZM36.7767 54.1174C36.7627 54.0675 36.7518 54.009 36.7388 53.9613C36.7572 54.0112 36.7681 54.0664 36.7822 54.1163L36.7767 54.1174ZM35.474 66.0459C34.8822 66.0296 34.6178 65.7608 34.6514 65.1636C34.6563 64.9838 34.6953 64.8065 34.7663 64.6412C35.2919 63.5325 35.8501 62.4389 36.6445 61.4982C36.9577 61.1253 37.2818 60.7655 37.5116 60.3341C38.4133 61.0202 38.474 61.1828 38.0947 62.1994C37.7294 63.1748 37.336 64.1503 36.9588 65.1257C36.6944 65.7966 36.1763 66.0654 35.474 66.0459Z" fill="#AF3830"/>
<path d="M54.5234 25.511C54.7976 25.3203 55.0653 25.1263 55.3461 24.9399C59.367 22.2206 63.3825 19.4937 67.19 16.4774C70.0957 14.1765 72.9028 11.7672 75.3186 8.94167C76.4956 7.56631 77.5578 6.10857 78.1365 4.36038C78.3977 3.57245 78.5354 2.77151 78.3988 1.92505C78.1235 1.97707 77.9967 2.16783 77.8493 2.31306C76.6571 3.47599 75.4855 4.6476 74.3031 5.81487C68.7648 11.2838 63.0238 16.5381 57.3869 21.9041C56.2727 22.9662 55.2539 24.1043 54.5234 25.511Z" fill="#AF3830"/>
<path d="M78.7572 10.2423C78.6304 10.134 78.5221 10.2759 78.4223 10.3301C78.0885 10.5101 77.7605 10.6997 77.4382 10.8991C74.2702 12.85 71.2605 15.0339 68.2204 17.1734C64.5759 19.7384 60.9382 22.3143 57.3074 24.901C56.2848 25.6095 55.3797 26.474 54.625 27.4631C56.1868 26.4627 57.8905 25.7648 59.5466 24.9768C64.078 22.8211 68.513 20.4931 72.6337 17.6069C74.6225 16.2153 76.4856 14.6806 77.8891 12.6582C78.3226 12.0328 78.6955 11.3739 78.7919 10.5989C78.8071 10.4786 78.8678 10.3334 78.7572 10.2423Z" fill="#AF3830"/>
<path d="M53.5407 22.8004C53.3239 23.1255 53.1017 23.4561 53.0703 24.0273C53.7444 23.5146 54.3189 23.0843 54.8868 22.6465C57.7795 20.4106 60.333 17.804 62.9287 15.2473C65.4096 12.8044 67.9143 10.3842 70.0971 7.66056C71.1234 6.37407 72.0848 5.04098 72.5086 3.41308C72.7047 2.66092 72.7557 1.90333 72.4424 1.09155C72.2539 1.29965 72.1032 1.4503 71.9688 1.61504C67.1198 7.58686 61.8503 13.1869 56.7304 18.9182C55.6129 20.1635 54.4641 21.3914 53.5407 22.8004Z" fill="#AF3830"/>
<path d="M75.4279 18.7091C68.6779 21.3449 62.3289 24.812 55.9051 28.1263C55.4554 28.3531 55.0513 28.6606 54.7129 29.0335C54.8386 29.1267 54.9362 29.079 55.038 29.0389C55.8941 28.7061 56.7701 28.427 57.6609 28.2033C62.0102 27.0772 66.274 25.6953 70.3838 23.8745C72.5829 22.8991 74.693 21.7567 76.4629 20.0866C77.0568 19.5273 77.5662 18.9031 77.7776 18.0187C77.6796 18.0166 77.5817 18.0235 77.4849 18.0393C76.7978 18.2582 76.0987 18.4479 75.4279 18.7091Z" fill="#AF3830"/>
<path d="M51.2298 21.3123C51.2428 21.7047 51.3989 22.0146 51.7609 22.1859C52.0925 22.343 52.3689 22.1664 52.5987 21.9691C52.9243 21.6834 53.2316 21.3775 53.5188 21.0533C55.7377 18.5562 57.8949 16.007 59.9903 13.4059C61.7623 11.2198 63.5539 9.04244 64.9119 6.55725C65.5622 5.36506 66.1301 4.14685 66.3133 2.65552C65.6521 3.48355 65.095 4.23572 64.4816 4.93803C61.2139 8.67612 57.7977 12.2831 54.6341 16.1122C53.6684 17.2805 52.6225 18.3882 51.7771 19.6487C51.44 20.1461 51.2092 20.6891 51.2298 21.3123Z" fill="#AF3830"/>
<path d="M74.3537 37.2154C73.8806 36.8533 73.3621 36.5549 72.8114 36.3277C71.1792 35.601 69.4705 35.0596 67.7175 34.7139C63.5058 33.8967 59.2663 33.2515 54.9989 32.7782C54.2543 32.6969 53.4816 32.6406 52.75 33.2117C53.2518 33.3505 53.6712 33.4437 54.0744 33.5813C57.1091 34.6153 60.1438 35.6612 63.2608 36.4188C66.0636 37.0983 68.8566 37.8277 71.7536 38.0022C72.5816 38.0705 73.415 38.0239 74.2302 37.8635C74.4046 37.8255 74.6431 37.8093 74.6918 37.638C74.759 37.4169 74.4968 37.3292 74.3537 37.2154Z" fill="#AF3830"/>
<path d="M75.9002 30.5986C71.3699 30.6181 66.8363 30.3992 62.3124 30.8067C59.8868 31.0235 57.4515 31.1514 55.0508 31.5654C54.5339 31.6542 54.0039 31.7399 53.5996 32.155C54.1888 32.1226 54.7794 32.1244 55.3684 32.1604C58.2524 32.3349 61.1029 32.8421 63.9847 33.0274C67.3521 33.2442 70.6979 33.0968 73.9753 32.2124C74.76 31.9957 75.522 31.7052 76.1126 31.1058C76.221 30.9975 76.3847 30.8555 76.3294 30.6972C76.2665 30.4967 76.0487 30.5975 75.9002 30.5986Z" fill="#AF3830"/>
<path d="M55.2636 30.7092C57.4117 30.4436 59.562 30.1965 61.7112 29.944C64.6494 29.5982 67.5811 29.2232 70.4175 28.3291C71.7917 27.8956 73.1758 27.487 74.4525 26.7998C75.0573 26.4747 75.5428 26.0412 75.7694 25.3573C75.8777 25.0245 75.8051 24.9465 75.4442 25.0105C71.5934 25.7052 67.7589 26.4725 63.972 27.4664C61.0457 28.2359 58.1064 28.9718 55.2755 30.0675C54.7715 30.2626 54.2903 30.5011 53.8535 30.9996C54.39 30.8869 54.8224 30.7633 55.2636 30.7092Z" fill="#AF3830"/>
<path d="M52.5406 16.9241L52.5221 16.9306L52.5156 16.9468L52.5286 16.9403L52.5406 16.9241Z" fill="#AF3830"/>
<path d="M52.5584 16.9055C52.5518 16.9109 52.5459 16.9171 52.541 16.924L52.5844 16.9088C52.5757 16.9077 52.5627 16.9012 52.5584 16.9055Z" fill="#AF3830"/>
</svg>
