<svg width="80" height="80" viewBox="0 0 80 80" fill="none" xmlns="http://www.w3.org/2000/svg">
<path d="M54.7656 64.6098C54.5904 64.5051 54.4471 64.5222 54.3996 64.615C54.3358 64.7137 54.3706 64.9327 54.4657 65.0544C54.6557 65.3068 55.0024 65.4085 55.3068 65.3759C55.2184 65.0537 55.0209 64.7679 54.7648 64.6105L54.7656 64.6098Z" fill="#AF3830"/>
<path d="M30.1146 67.154C30.3076 67.1243 30.468 66.9269 30.4457 66.8935C30.4576 66.8541 30.315 66.7873 30.1747 66.8964C30.0574 66.9848 29.9505 67.0902 29.8525 67.2008C29.9424 67.1919 30.0314 67.1808 30.1146 67.1548V67.154Z" fill="#AF3830"/>
<path d="M53.5785 66.7791C53.4545 66.6826 53.3276 66.742 53.3387 66.7769C53.3194 66.8066 53.4604 66.981 53.6319 67.0077C53.7062 67.0307 53.7848 67.0404 53.8643 67.0486C53.7774 66.9506 53.6824 66.8578 53.5792 66.7791H53.5785Z" fill="#AF3830"/>
<path d="M28.8324 64.446C28.5436 64.6242 28.3202 64.9471 28.2207 65.3109C28.5652 65.348 28.9564 65.2329 29.1709 64.9479C29.2778 64.8105 29.3179 64.5633 29.2459 64.452C29.1924 64.3473 29.0306 64.328 28.8324 64.446Z" fill="#AF3830"/>
<path d="M31.3939 42.8482C31.3301 42.4719 30.2752 42.3397 29.0347 42.5617C28.5418 42.6463 28.1016 42.774 27.7467 42.9225C28.0592 42.6842 28.4096 42.3553 28.7429 41.9574C29.5484 40.9924 29.9671 40.0176 29.6709 39.7682C29.3791 39.5247 28.4891 40.1023 27.6777 41.0614C27.354 41.4482 27.1001 41.8297 26.9197 42.169C27.0155 41.7874 27.0682 41.3101 27.0682 40.7904C27.0682 39.5344 26.7557 38.5166 26.3741 38.5166C25.9925 38.5166 25.68 39.5344 25.68 40.7904C25.68 41.2886 25.7275 41.7496 25.8129 42.1259C25.6325 41.7711 25.3675 41.368 25.0334 40.9701C24.2279 40.011 23.3319 39.4327 23.0402 39.6769C22.7432 39.9263 23.1619 40.907 23.9681 41.8661C24.2918 42.2477 24.6251 42.5714 24.9272 42.8045C24.5665 42.6456 24.1055 42.5127 23.5917 42.4229C22.3565 42.2002 21.3016 42.3331 21.2325 42.7094C21.1687 43.091 22.1174 43.5735 23.3527 43.791C23.8456 43.8757 24.3066 43.9076 24.6882 43.892C24.3118 44.0034 23.8716 44.1941 23.421 44.454C22.3342 45.085 21.6082 45.8637 21.799 46.1978C21.9897 46.5266 23.029 46.2876 24.1151 45.6625C24.5442 45.4079 24.9206 45.1377 25.2019 44.8779C24.9896 45.2067 24.7728 45.6358 24.5976 46.1287C24.1686 47.3054 24.1099 48.3706 24.4707 48.4983C24.8315 48.6312 25.4729 47.7827 25.902 46.6009C26.072 46.1347 26.1826 45.6841 26.236 45.3025C26.2783 45.6944 26.3949 46.1614 26.5701 46.6491C26.9992 47.8309 27.6406 48.6795 28.0013 48.5466C28.3621 48.4196 28.3087 47.3536 27.8796 46.177C27.7044 45.7048 27.5032 45.2861 27.2968 44.9684C27.5834 45.2334 27.9702 45.52 28.4208 45.7798C29.5076 46.4108 30.5461 46.6491 30.7369 46.3151C30.9277 45.9862 30.2017 45.2075 29.1149 44.5765C28.6798 44.327 28.256 44.1414 27.8907 44.0249C28.2886 44.0464 28.7652 44.0197 29.2797 43.9291C30.515 43.7064 31.4637 43.2239 31.3946 42.8475L31.3939 42.8482ZM26.3429 44.7568C25.7758 44.7568 25.3096 44.2906 25.3096 43.7175C25.3096 43.1444 25.7758 42.6842 26.3429 42.6842C26.9101 42.6842 27.3822 43.1504 27.3822 43.7175C27.3822 44.2847 26.916 44.7568 26.3429 44.7568Z" fill="#AF3830"/>
<path d="M79.6533 19.9277C79.5419 21.1734 77.8404 22.0427 76.7855 22.2067C75.8687 22.35 74.8881 22.5616 74.22 23.1659C74.4263 22.9751 74.6179 22.7368 74.8398 22.5668C75.0944 22.3708 75.4441 22.2431 75.7247 22.0791C76.3134 21.7398 76.8806 21.3634 77.421 20.9603C77.8449 20.6426 78.2584 20.3085 78.6563 19.953C78.9955 19.6508 79.4565 19.3271 79.6956 18.9404C79.971 18.4794 80.0133 17.9174 79.9554 17.3822C79.8708 16.5233 79.5315 15.654 79.1499 14.8856C78.8263 14.2338 78.3074 13.5976 77.5494 13.47C76.5955 13.3111 75.7366 14.0156 75.021 14.6681C73.9505 15.6488 72.8845 16.6294 71.8088 17.6153C71.814 17.7741 71.8192 17.9493 71.8192 18.1349C71.8244 18.7815 71.8036 19.3168 71.6863 19.3331C71.5749 19.3487 71.4057 18.8134 71.3997 18.1349C71.3997 17.7689 71.4421 17.4512 71.5059 17.2337C71.2038 16.8729 70.6841 16.645 70.2973 16.8306C70.2127 17.0852 70.1273 17.371 70.0427 17.6843C69.7829 18.6546 69.7087 19.4756 69.5869 19.4756C69.4756 19.4808 69.3642 18.6115 69.6396 17.5782C69.7406 17.1803 69.8831 16.8306 70.0264 16.5552C69.8994 16.481 69.751 16.4386 69.6233 16.4067C69.2736 16.311 68.9344 16.2159 68.5899 16.1046C67.7422 15.8396 66.8988 15.5745 66.0563 15.3095C65.1179 15.0126 63.5805 14.9064 62.611 14.9807C59.012 15.2724 55.4814 15.6807 52.4496 17.8536C51.2834 18.691 50.4193 19.9158 49.7623 21.1667C48.7445 23.0805 48.0504 25.1903 46.6823 26.8702C45.0758 28.8367 42.6587 30.0297 40.1621 30.4692C37.6656 30.9094 35.0837 30.6496 32.6139 30.0876C29.4707 29.3772 26.3328 28.1686 23.1199 28.4604C19.489 28.7892 16.2286 31.0527 14.0505 33.9731C11.7655 37.0472 10.5414 40.8852 10.6208 44.7128C10.6631 46.5731 11.0128 48.4127 11.6386 50.1616C11.819 50.665 11.9623 51.1794 12.1107 51.6939C12.4656 52.9395 13.0223 54.1162 13.7432 55.1926C15.5293 57.8643 18.3176 59.8835 21.4614 60.594C22.0553 60.7269 22.3835 61.251 22.6225 61.8612C22.8237 62.3541 22.9721 62.9005 23.1577 63.3503C23.5816 64.3577 24.2178 65.4126 25.2727 65.7036C26.5236 66.0533 27.1011 67.4103 27.9281 68.4177C28.1189 70.0501 28.2087 71.7516 28.4054 73.3736C28.6861 72.8755 28.9993 72.2393 29.2799 71.7412C29.3119 72.2868 29.3594 72.7538 29.3913 73.2994C30.5041 74.2533 31.9413 74.6245 33.351 74.4656C33.351 74.3758 33.351 74.2749 33.3458 74.1635C33.3243 73.7552 33.2345 73.2044 33.0222 72.6209C32.8098 72.0381 32.5448 71.5237 32.3652 71.1369C32.19 70.7501 32.1002 70.4955 32.1588 70.4584C32.2174 70.4213 32.4134 70.6121 32.6733 70.9565C32.9279 71.301 33.2619 71.8102 33.495 72.4516C33.7281 73.093 33.7757 73.7344 33.7014 74.185C33.6858 74.2749 33.6643 74.355 33.6428 74.4285C34.2315 74.3328 34.8142 74.1479 35.3546 73.8614C35.3702 71.3173 33.8707 68.8995 31.5961 67.7599C31.6013 65.9471 30.8649 64.0229 29.6452 62.6926C29.6608 62.1782 29.7246 61.6696 29.8204 61.1715C33.9657 61.6912 38.2276 61.5531 42.3781 61.0283C43.9526 61.0758 45.3943 61.7224 46.735 62.677C47.6258 63.3132 48.6324 63.7163 49.714 63.9546C49.9894 64.0185 52.9054 64.3896 53.1222 64.135C52.7035 65.4601 52.4118 65.8632 51.6538 66.7162C50.8959 67.5751 49.6502 68.656 48.5159 68.8364C49.0563 69.2766 50.1431 69.1808 50.7103 68.7465C50.4133 69.4993 49.7771 69.6314 49.014 69.7643C48.8232 69.7962 48.7067 69.987 48.7646 70.1726C48.913 70.6603 49.0296 71.1904 49.1194 71.7204C49.4802 71.6246 49.9145 71.4925 50.3703 71.2854C51.4779 70.8029 52.2098 70.0984 52.316 70.1986C52.3687 70.2409 52.247 70.4792 51.95 70.7925C51.6583 71.105 51.1757 71.4762 50.5774 71.7464C50.0741 71.9691 49.5812 72.0753 49.1781 72.1124C49.2523 72.658 49.2894 73.2044 49.2679 73.7129C50.1847 73.8933 51.0859 73.9356 51.8654 73.4159C52.6397 72.8963 53.1957 72.0641 53.3761 71.1525C58.0247 68.0621 57.9987 63.1432 57.6855 61.0283C57.6587 60.8583 57.6483 60.6786 57.6587 60.4982C57.6907 59.3535 58.3001 58.0121 59.0373 56.825C59.5198 56.0456 60.0603 55.3299 60.5109 54.7791C61.2851 54.1533 62.0164 53.4859 62.6897 52.7436C64.9108 50.2841 66.3317 47.3103 67.561 44.2673C68.1705 42.767 68.7273 41.2563 69.31 39.7776C70.2112 37.5037 71.1815 35.2351 72.4955 33.1676C73.8896 30.9628 74.9178 28.4871 76.6408 26.4887C78.003 24.8933 81.0192 23.2602 79.6518 19.9262L79.6533 19.9277ZM76.7855 14.7802C77.0082 14.7275 77.2517 14.7275 77.496 14.8173C77.7395 14.9072 77.9889 15.1039 78.1374 15.3689C78.3497 15.7401 78.3385 16.1855 78.2012 16.498C78.1322 16.6621 78.026 16.8002 77.8775 16.864C77.7291 16.9279 77.5279 16.8959 77.3742 16.7579C77.2154 16.6146 77.1196 16.36 77.1834 16.1907C77.2361 16.0689 77.3638 16.0051 77.3794 15.8566C77.3898 15.7238 77.3 15.5649 77.1886 15.4803C77.0773 15.3904 76.9503 15.3585 76.8338 15.3474C76.4945 15.3103 76.1872 15.4164 75.9489 15.6176C75.8272 15.7186 75.721 15.8455 75.6416 15.9992C75.5829 16.1157 75.5569 16.3332 75.4456 16.3807C75.5146 15.5486 76.1189 14.9228 76.787 14.7802H76.7855ZM69.094 25.3818C69.1838 25.4085 69.2692 25.4456 69.3538 25.4984C69.8096 25.7953 69.9425 26.4048 69.6507 26.8606C69.3538 27.3164 68.7495 27.4493 68.2885 27.1523C68.2091 27.0996 68.1349 27.041 68.0762 26.9667C68.4845 27.0885 68.9351 26.9348 69.1786 26.5584C69.4221 26.1821 69.3746 25.7047 69.094 25.3818ZM67.6946 24.1525C68.2351 24.0834 68.728 24.465 68.797 25.0002C68.8661 25.5407 68.4845 26.0336 67.9433 26.1026C67.8476 26.113 67.7525 26.113 67.6627 26.0974C68.0547 25.9274 68.2989 25.5199 68.2455 25.0745C68.1868 24.6291 67.8424 24.295 67.4237 24.226C67.5083 24.1888 67.5989 24.1621 67.6939 24.1517L67.6946 24.1525ZM66.7192 30.222C66.2367 30.4714 65.6428 30.2858 65.3941 29.7981C65.1447 29.3155 65.3354 28.7217 65.818 28.473C65.9026 28.4307 65.9932 28.3987 66.0882 28.3832C65.7757 28.6749 65.6851 29.1463 65.8922 29.5442C66.0934 29.9421 66.5336 30.1433 66.9471 30.0586C66.8832 30.1225 66.809 30.1804 66.7192 30.2227V30.222ZM67.1163 34.0703C66.6761 34.0176 66.1409 33.7786 65.8016 33.4765C65.5841 33.2857 65.4149 33.031 65.3726 32.7452C65.325 32.4587 65.4149 32.1513 65.6376 31.9769C65.8551 31.8069 66.2047 31.8069 66.4059 32.0088C66.57 32.1677 66.6182 32.4171 66.6234 32.645C66.645 33.3131 66.7719 33.541 67.1163 34.0711V34.0703ZM64.9858 29.5435C64.89 29.5486 64.795 29.5435 64.6992 29.5219C64.1692 29.4002 63.8351 28.8753 63.9569 28.3453C64.0786 27.8152 64.6035 27.4812 65.1335 27.6029C65.2293 27.6245 65.3191 27.6616 65.3985 27.7039C64.9747 27.7306 64.6035 28.0328 64.5025 28.467C64.4016 28.9073 64.6087 29.3363 64.985 29.5435H64.9858ZM63.8091 27.8895C63.7349 27.8308 63.6659 27.7677 63.608 27.6883C63.2791 27.2592 63.3585 26.6386 63.7936 26.3098C64.2286 25.9809 64.8433 26.0663 65.1721 26.4953C65.2308 26.5748 65.2783 26.6594 65.3102 26.7448C64.9709 26.4901 64.4884 26.4849 64.1336 26.7552C63.7787 27.0254 63.6562 27.4923 63.8099 27.8895H63.8091ZM64.9487 25.2022C64.5033 25.1806 64.1113 25.462 63.9732 25.8651C63.9517 25.7753 63.9413 25.6795 63.9465 25.5785C63.9732 25.0381 64.4342 24.6194 64.9746 24.6454C65.5203 24.6669 65.9397 25.1331 65.913 25.6736C65.9078 25.7745 65.8863 25.8643 65.8543 25.9542C65.7586 25.5407 65.3933 25.2229 64.9479 25.2014L64.9487 25.2022ZM64.1692 21.0509C63.5226 21.2788 62.8916 21.3159 62.4514 21.2573C62.0112 21.1986 61.7625 21.0769 61.7729 21.0242C61.7944 20.9024 62.8433 21.0932 64.0259 20.653C65.2189 20.2395 65.913 19.4289 66.0028 19.5083C66.0451 19.5402 65.9286 19.7948 65.6264 20.1178C65.3243 20.4414 64.815 20.8178 64.1685 21.0509H64.1692ZM63.2628 31.8492C63.5011 31.6584 63.8774 31.6428 64.1002 31.8492C64.2805 32.0081 64.3333 32.2679 64.3384 32.5121C64.36 33.2062 64.5025 33.4401 64.8789 33.9805C64.4016 33.9486 63.824 33.7207 63.4476 33.4134C63.2145 33.2278 63.0289 32.9627 62.9814 32.6658C62.9287 32.3689 63.0237 32.04 63.262 31.8492H63.2628ZM66.0511 27.1315C66.0511 26.7552 66.3584 26.4478 66.7348 26.4478C67.1112 26.4478 67.4237 26.7552 67.4237 27.1315C67.4237 27.5079 67.1163 27.8204 66.7348 27.8204C66.3532 27.8204 66.0511 27.5131 66.0511 27.1315ZM67.005 25.5199C66.9412 25.5889 66.8669 25.6468 66.7875 25.6951C66.9783 25.3187 66.8988 24.8414 66.57 24.5392C66.2411 24.2371 65.7645 24.2 65.3985 24.4175C65.4409 24.3329 65.4943 24.2534 65.5626 24.1844C65.9286 23.7813 66.5536 23.7605 66.9515 24.1257C67.3494 24.4969 67.3754 25.1168 67.0043 25.5199H67.005ZM63.2309 17.8068C64.4765 17.42 65.6643 18.0243 66.3688 18.8298C65.9501 18.6071 65.1654 18.1884 64.6829 18.4163C64.7519 18.9463 64.5396 19.7414 64.1685 19.9374C63.7973 20.1333 63.3259 20.0702 62.9755 19.7785C62.7743 19.6085 62.631 19.2908 62.6466 19.0042C61.9362 19.1631 61.3052 19.6189 60.8865 20.3026C61.1515 19.2848 62.222 18.1186 63.2294 17.8061L63.2309 17.8068ZM57.2675 16.7467C57.6439 16.5827 58.1101 16.7571 58.3172 17.1602C58.5236 17.5581 58.3387 18.0562 57.8933 18.2522C57.4427 18.4274 56.9654 18.2255 56.8169 17.7912C56.6788 17.3673 56.8755 16.8952 57.2675 16.7467ZM53.8007 18.5388C54.1823 18.3688 54.6485 18.5492 54.8556 18.9471C55.0627 19.345 54.8771 19.8431 54.4317 20.0391C53.9811 20.2143 53.4986 20.0123 53.3553 19.5781C53.2172 19.1594 53.4139 18.6872 53.8007 18.5388ZM51.5536 21.0353C51.93 20.8653 52.3962 21.0457 52.6033 21.4436C52.8097 21.8415 52.6248 22.3396 52.1794 22.5356C51.7288 22.7108 51.2515 22.5089 51.103 22.0746C50.9649 21.6559 51.1616 21.1838 51.5536 21.0353ZM54.0449 22.4562C54.7925 21.8571 55.4176 21.1207 56.197 20.5535C56.8755 20.0554 57.8139 20.3523 58.3707 20.9774C58.8636 21.5342 59.0172 22.3716 58.7626 23.0709C58.6038 23.4999 58.2593 23.8926 57.8087 23.9617C57.3581 24.0307 56.8496 23.6491 56.9127 23.1933C56.7063 23.8719 57.0663 24.6773 57.7129 24.9743C58.678 25.4145 59.7804 24.9691 60.7662 25.4568C61.2005 25.6743 61.5932 25.9868 61.8902 26.3736C62.0015 26.5221 62.4046 27.5925 62.4521 27.6089C61.0313 27.1159 59.4679 27.5666 58.0522 28.0862C56.6365 28.6059 55.1689 29.2049 53.679 28.9874C52.5498 28.8286 51.5113 28.1924 50.7793 27.3179C49.9523 26.332 49.7192 25.2029 49.3584 24.0211C51.1022 23.8511 52.6293 23.592 54.0442 22.4577L54.0449 22.4562ZM62.4469 33.6672C61.954 33.6086 61.3653 33.3436 60.9889 33.0103C60.7506 32.8039 60.5703 32.5225 60.5279 32.21C60.4856 31.8975 60.597 31.5582 60.8516 31.3674C61.1062 31.1818 61.4982 31.1818 61.7209 31.4045C61.9013 31.5849 61.9436 31.8552 61.9436 32.1098C61.9384 32.8358 62.0765 33.0852 62.4469 33.668V33.6672ZM59.6586 33.0362C59.1605 33.0043 58.5562 32.7712 58.1583 32.4639C57.9148 32.2679 57.7129 31.9977 57.655 31.6896C57.5964 31.3771 57.6869 31.0326 57.9304 30.8307C58.1687 30.6243 58.5614 30.6028 58.7997 30.8151C58.9853 30.9844 59.0492 31.2494 59.0596 31.504C59.1019 32.23 59.2503 32.4743 59.6586 33.0362ZM56.9654 32.4164C56.4672 32.3845 55.863 32.1565 55.4703 31.844C55.2208 31.648 55.0249 31.3778 54.9618 31.0697C54.9031 30.7572 54.9989 30.4128 55.2372 30.2108C55.4807 30.0097 55.8682 29.9881 56.1065 30.1952C56.2921 30.3652 56.3559 30.6303 56.3715 30.8841C56.4086 31.6154 56.5623 31.8544 56.9654 32.4164ZM53.7747 31.7007C53.2766 31.674 52.6723 31.4409 52.2796 31.1336C52.0302 30.9376 51.8342 30.6674 51.7704 30.3541C51.7117 30.0468 51.8075 29.7023 52.0458 29.4952C52.2893 29.294 52.6768 29.2725 52.9151 29.4848C53.1007 29.6489 53.1645 29.9198 53.1801 30.1737C53.2172 30.8997 53.3709 31.144 53.774 31.7L53.7747 31.7007ZM49.0355 27.5925C49.4119 27.4225 49.8833 27.6029 50.0904 28.006C50.2968 28.4039 50.1119 28.9021 49.6665 29.098C49.2159 29.2732 48.7334 29.0661 48.5901 28.6318C48.452 28.2132 48.6488 27.741 49.0355 27.5925ZM47.2227 29.6177C47.5991 29.4536 48.0712 29.6281 48.2776 30.0312C48.484 30.4291 48.2991 30.9272 47.8537 31.1232C47.4031 31.2984 46.9205 31.0965 46.7773 30.6622C46.6392 30.2383 46.8359 29.7662 47.2227 29.6177ZM46.9896 36.869C47.0742 36.1215 46.8359 35.3427 46.343 34.7808C46.9896 34.7281 47.7423 35.1623 47.9383 35.783C48.1343 36.4028 47.9487 37.1081 47.5567 37.6329C47.1588 38.1526 46.5019 38.5445 45.8924 38.7724C46.4967 38.327 46.905 37.6166 46.9896 36.8698V36.869ZM44.1323 31.5946C44.5086 31.4246 44.98 31.605 45.1871 32.0029C45.3935 32.4008 45.2087 32.8989 44.7633 33.0949C44.3127 33.2701 43.8301 33.0682 43.6868 32.6339C43.5488 32.2152 43.7455 31.7431 44.1323 31.5946ZM43.9949 37.2454C44.0907 36.4184 43.8249 35.5595 43.2793 34.9396C43.9949 34.8758 44.8271 35.3531 45.0446 36.042C45.2569 36.7309 45.055 37.5104 44.6207 38.088C44.1857 38.6655 43.4545 39.0953 42.7812 39.344C43.4493 38.8563 43.9051 38.0716 43.9949 37.2447V37.2454ZM41.1851 32.4216C41.6038 32.3525 42.0173 32.6279 42.1182 33.0734C42.2244 33.5084 41.9275 33.9479 41.4553 34.0273C40.9891 34.1015 40.5704 33.7942 40.517 33.3436C40.4643 32.9034 40.7664 32.4899 41.1851 32.4216ZM40.7879 38.0509C40.8993 37.065 40.5816 36.042 39.9342 35.2997C40.7879 35.2254 41.779 35.7978 42.0388 36.6196C42.2934 37.4362 42.0492 38.3686 41.5355 39.053C41.0158 39.7419 40.1466 40.2616 39.3411 40.5533C40.1362 39.9706 40.6766 39.0374 40.7879 38.0516V38.0509ZM38.0739 32.6814C38.5082 32.6762 38.8742 33.0206 38.8957 33.4765C38.9172 33.9219 38.5512 34.3034 38.0843 34.3086C37.6181 34.3086 37.2521 33.9375 37.2677 33.4868C37.2781 33.0362 37.6441 32.6814 38.0731 32.6814H38.0739ZM38.9959 36.5929C39.4569 37.5045 39.3567 38.644 38.8793 39.5564C38.402 40.468 37.48 41.2422 36.5944 41.7508C37.4162 40.903 37.8668 39.7048 37.8081 38.5223C37.7443 37.3404 37.1719 36.195 36.2655 35.4533C37.2514 35.1987 38.5342 35.6761 38.9952 36.5929H38.9959ZM35.1052 43.4203C35.3227 43.6007 35.5877 43.738 35.7941 43.9348C36.0064 44.1307 36.1653 44.4225 36.0911 44.6979C35.9849 45.1114 35.4549 45.2435 35.031 45.1856C33.9182 45.0424 32.9798 44.0461 32.8893 42.9274C32.8366 42.1902 33.1543 41.4486 33.6895 40.9394C33.9546 40.6847 35.0622 40.128 35.6664 40.2505C35.057 40.4732 34.5848 41.0351 34.4683 41.6713C34.3569 42.3075 34.6063 43.0016 35.1045 43.4203H35.1052ZM34.0236 33.2166C34.0874 32.7764 34.4794 32.4639 34.9196 32.5062C35.3546 32.5589 35.6776 32.9464 35.6404 33.397C35.6085 33.8424 35.2002 34.1817 34.7444 34.1282C34.2834 34.0807 33.9598 33.6672 34.0236 33.2166ZM30.833 32.5856C30.9339 32.1454 31.3682 31.87 31.8032 31.971C32.2323 32.0667 32.5084 32.4958 32.4179 32.9412C32.3333 33.3814 31.893 33.6568 31.4424 33.5611C31.0022 33.4601 30.7268 33.0206 30.833 32.5856ZM30.1856 36.869C30.2279 36.503 30.7157 35.3635 31.2561 35.0718C30.9324 35.6285 30.9272 36.365 31.2509 36.9269C31.5746 37.4889 32.21 37.8601 32.8626 37.8601C33.1491 37.8601 33.4349 37.791 33.7215 37.8074C34.008 37.823 34.3205 37.9454 34.4423 38.2053C34.6227 38.592 34.299 39.0322 33.9442 39.2602C32.9954 39.8644 31.6384 39.7108 30.8537 38.9053C30.3341 38.3753 30.101 37.601 30.1856 36.8698V36.869ZM27.652 31.8811C27.7314 31.4409 28.1716 31.1447 28.617 31.2449C29.0676 31.3348 29.3482 31.775 29.248 32.2152C29.1471 32.6502 28.7128 32.9256 28.283 32.8351C27.8539 32.7393 27.5725 32.3258 27.652 31.8811ZM27.5673 35.0399C27.79 34.8543 27.9652 34.6212 28.1983 34.446C28.4262 34.276 28.7388 34.1706 29.0038 34.2923C29.3906 34.4675 29.4277 35.0131 29.3007 35.4214C28.9615 36.4919 27.822 37.2447 26.7032 37.1333C25.9661 37.0643 25.2876 36.6188 24.8852 36.0042C24.6788 35.6968 24.3232 34.5091 24.5511 33.9367C24.6573 34.5729 25.1287 35.1401 25.7382 35.3628C26.3476 35.5855 27.0737 35.4585 27.5666 35.0391L27.5673 35.0399ZM25.2824 30.7468C25.7597 30.7787 26.093 31.1922 26.0403 31.6317C25.9876 32.0823 25.6001 32.4 25.1814 32.3741C24.7627 32.3585 24.4235 31.9762 24.4183 31.5315C24.4131 31.0757 24.7998 30.7312 25.2824 30.7468ZM23.6974 38.5705C23.6974 38.5705 23.7026 38.5705 23.7026 38.5653C23.7613 38.4755 23.8192 38.3745 23.8667 38.2736C23.8719 38.2736 23.8719 38.2684 23.8719 38.2684C24.174 37.627 24.2431 36.7577 24.105 35.7184C24.4071 36.238 24.7197 36.6834 25.0485 37.0383C25.6632 37.7116 26.3209 38.0776 27.0046 38.0776C27.482 38.0776 27.9482 37.8972 28.3936 37.5527C28.839 37.2135 29.2681 36.7154 29.666 36.0844C29.3957 37.6166 29.5331 38.814 30.1433 39.5296C30.2123 39.6091 30.2918 39.6833 30.3712 39.7523C30.8166 40.1287 31.4261 40.2824 32.1625 40.2401C32.6287 40.2133 33.138 40.1131 33.6947 39.9379C33.3451 40.2297 33.0429 40.5207 32.7883 40.8124C32.0675 41.629 31.7386 42.4397 31.8715 43.2028C31.9561 43.6801 32.2264 44.1144 32.651 44.5012C33.0645 44.8672 33.6212 45.1953 34.2998 45.4766C33.282 45.4766 32.4342 45.6251 31.8032 45.9273C31.3578 46.1396 31.0237 46.4306 30.807 46.8069C30.3935 47.5174 30.4729 48.4661 30.945 49.5633C31.0193 49.7437 31.1039 49.9241 31.1997 50.1089C31.046 49.9761 30.8923 49.8543 30.7387 49.743C29.594 48.8952 28.5443 48.5663 27.675 48.8841C27.2667 49.0273 26.9222 49.3131 26.6357 49.7162C26.2912 50.204 26.0314 50.8661 25.851 51.6671C25.7345 50.9886 25.5593 50.3947 25.3365 49.907C24.9921 49.1758 24.5311 48.6717 23.9372 48.4602C23.1949 48.19 22.3204 48.3963 21.3716 48.9902C21.1653 49.1172 20.9581 49.2604 20.7518 49.4193C20.9158 49.1387 21.0539 48.8677 21.1756 48.6027C21.6842 47.452 21.7747 46.4714 21.3456 45.735C21.1601 45.4061 20.8735 45.1463 20.5135 44.9451C19.9515 44.6326 19.1936 44.4626 18.2871 44.4255C18.8016 44.2399 19.2522 44.0276 19.6338 43.7997C20.4711 43.2963 20.9908 42.6861 21.1177 41.9816C21.2187 41.4093 21.0487 40.8154 20.6567 40.2059C20.4021 39.808 20.0525 39.4108 19.6122 39.0077C21.2447 39.6068 22.549 39.6276 23.3493 38.955C23.4821 38.8437 23.6039 38.7167 23.6989 38.5683L23.6974 38.5705ZM26.4857 56.3603C26.4115 56.4346 26.332 56.4984 26.2474 56.5511C26.4538 56.1376 26.3744 55.6291 26.0195 55.3002C25.6587 54.9714 25.145 54.9291 24.7523 55.1674C24.7946 55.0775 24.8533 54.9922 24.9223 54.9127C25.3254 54.4836 25.9987 54.4569 26.4278 54.8541C26.8569 55.252 26.8836 55.9246 26.4865 56.3596L26.4857 56.3603ZM26.9363 58.1041C26.9363 58.5124 26.6023 58.8465 26.194 58.8465C25.7857 58.8465 25.4516 58.5124 25.4516 58.1041C25.4516 57.6958 25.7857 57.3618 26.194 57.3618C26.6023 57.3618 26.9363 57.6958 26.9363 58.1041ZM25.3039 56.5244C25.2987 56.6305 25.2772 56.7308 25.2452 56.8265C25.1339 56.3811 24.7471 56.0367 24.2594 56.0159C23.7769 55.9943 23.3582 56.2965 23.2097 56.7315C23.183 56.6305 23.1726 56.5303 23.1778 56.4242C23.2045 55.8355 23.7026 55.3849 24.2913 55.4116C24.88 55.4383 25.3306 55.9416 25.3039 56.5251V56.5244ZM19.4096 48.4245C19.2982 47.7831 18.8268 47.2212 18.2166 46.9985C17.9464 46.8975 17.6546 46.8656 17.3896 46.755C17.1246 46.6384 16.8752 46.4209 16.8492 46.1351C16.8121 45.7112 17.2679 45.4039 17.6814 45.3133C18.7786 45.0698 20.0035 45.6793 20.4645 46.7023C20.7718 47.3756 20.7243 48.1862 20.3954 48.844C20.2314 49.1728 19.3829 50.0741 18.7682 50.1691C19.2663 49.7504 19.5209 49.0615 19.4096 48.4253V48.4245ZM21.8 31.0274C22.2877 30.9265 22.7331 31.1974 22.7962 31.6532C22.8549 32.0883 22.5898 32.5277 22.1971 32.6072C21.8156 32.7081 21.3857 32.4854 21.2217 32.0556C21.0628 31.6421 21.3174 31.1544 21.7992 31.0274H21.8ZM21.7049 36.2855C21.7525 35.999 21.7421 35.708 21.8059 35.4266C21.8697 35.146 22.0442 34.8647 22.3204 34.7904C22.7338 34.6791 23.1102 35.071 23.2743 35.4637C23.7034 36.4971 23.3114 37.8118 22.3894 38.4428C21.7747 38.8615 20.9737 38.9573 20.2692 38.7502C19.9144 38.644 18.8803 37.9655 18.6791 37.3775C19.1772 37.7962 19.898 37.9291 20.5075 37.7064C21.117 37.4837 21.5943 36.9217 21.7057 36.2855H21.7049ZM18.5982 32.5329C19.0013 32.2523 19.5417 32.3793 19.7592 32.7608C19.9871 33.1587 19.8758 33.6249 19.5469 33.858C19.2232 34.1127 18.7251 34.0436 18.4334 33.6992C18.1364 33.3599 18.2107 32.8351 18.5974 32.5329H18.5982ZM18.6836 39.3708C19.6798 39.8904 20.2262 41.1413 19.924 42.2229C19.7229 42.9385 19.1661 43.5272 18.4928 43.8182C18.1587 43.9667 16.9234 44.11 16.3986 43.7915C17.0452 43.7915 17.6814 43.4255 18.0102 42.8635C18.3339 42.3016 18.3339 41.5704 18.0102 41.0084C17.867 40.759 17.6658 40.5422 17.5381 40.2876C17.4052 40.0277 17.3577 39.6989 17.5225 39.4658C17.766 39.1161 18.3072 39.174 18.6836 39.37V39.3708ZM16.1016 34.9396C16.409 34.5685 16.9286 34.521 17.2575 34.8283C17.5915 35.1304 17.6391 35.6397 17.374 35.9574C17.2308 36.1163 17.0452 36.212 16.8492 36.244C16.6532 36.2759 16.4357 36.2336 16.2501 36.1007C16.0645 35.9737 15.9532 35.777 15.9212 35.5654C15.8841 35.3531 15.9428 35.12 16.1016 34.9396ZM14.2836 37.8497C14.4692 37.4095 15.0044 37.261 15.386 37.4785C15.7839 37.7064 15.9109 38.1674 15.7468 38.5601C15.5716 38.9417 15.0898 39.1117 14.6704 38.9417C14.2569 38.7717 14.0817 38.2847 14.2836 37.8497ZM13.1174 41.067C13.2443 40.606 13.6949 40.341 14.1247 40.4732C14.5538 40.606 14.8137 41.0455 14.7023 41.4538C14.5857 41.8569 14.199 42.1375 13.7432 42.0529C13.3082 41.9787 12.9904 41.5229 13.1174 41.067ZM12.6883 44.4752C12.6668 43.9875 13.0862 43.6326 13.5309 43.6697C13.9867 43.7017 14.2992 44.0728 14.3155 44.4863C14.3207 44.8998 13.9547 45.2658 13.5101 45.297C13.0595 45.3237 12.6883 44.9577 12.6883 44.4752ZM13.133 47.9264C13.0216 47.4491 13.2918 46.9881 13.732 46.9034C14.1723 46.8188 14.6065 47.0734 14.6971 47.4706C14.83 47.847 14.6125 48.2924 14.1938 48.4617C13.7751 48.6317 13.2926 48.3978 13.1337 47.9264H13.133ZM19.2819 56.1213C18.5076 55.8778 17.501 55.4057 16.5359 54.6744C15.5709 53.9432 14.8396 53.1051 14.3942 52.4266C13.9436 51.7481 13.758 51.2551 13.8271 51.1913C13.9911 51.0428 15.0995 52.6805 16.9813 54.0857C18.8417 55.5118 20.7235 56.1369 20.6233 56.3336C20.5862 56.4182 20.0562 56.3707 19.2819 56.1213ZM20.0242 54.6581C19.3086 54.4458 18.3807 54.0219 17.501 53.3486C16.6265 52.6701 15.9799 51.8802 15.5924 51.2388C15.2004 50.6026 15.0519 50.1312 15.1262 50.0726C15.2902 49.9293 16.2501 51.4719 17.9516 52.7599C19.6323 54.0746 21.3649 54.6098 21.2699 54.8058C21.2328 54.8905 20.7399 54.8697 20.0242 54.6574V54.6581ZM21.434 51.7956C21.1586 51.8802 20.8245 51.875 20.6226 51.6738C20.3204 51.3717 20.4689 50.8468 20.7287 50.5076C21.4125 49.6168 22.7428 49.299 23.7553 49.7816C24.4234 50.1052 24.9052 50.7518 25.0804 51.4675C25.1651 51.8282 25.096 53.0628 24.6885 53.5297C24.7998 52.8883 24.5504 52.1994 24.0575 51.7807C23.5593 51.362 22.8385 51.2351 22.229 51.4571C21.9536 51.5528 21.7094 51.7169 21.434 51.7963V51.7956ZM23.03 58.92C22.9506 58.8561 22.8764 58.7871 22.8125 58.7025C22.4577 58.2363 22.5423 57.5681 23.0137 57.2133C23.4799 56.8584 24.148 56.9483 24.5029 57.4145C24.5667 57.4991 24.6142 57.5897 24.6514 57.6847C24.2802 57.4093 23.7605 57.3981 23.379 57.6951C22.9922 57.9868 22.8645 58.4901 23.0293 58.9192L23.03 58.92ZM23.9944 60.6853C23.422 60.5583 23.0612 59.9852 23.1889 59.4129C23.3218 58.8405 23.889 58.4797 24.4613 58.6126C24.5675 58.6342 24.6625 58.6713 24.7479 58.7188C24.2921 58.7507 23.889 59.0736 23.7828 59.5458C23.6766 60.0179 23.8993 60.4841 24.3024 60.7068C24.2015 60.7172 24.1013 60.7068 23.9951 60.6853H23.9944ZM26.1732 61.4432C25.6535 61.7135 25.0121 61.5071 24.7419 60.9874C24.4717 60.4626 24.6781 59.8212 25.2029 59.551C25.2927 59.5035 25.3937 59.4715 25.4895 59.45C25.1554 59.7677 25.0604 60.277 25.2772 60.7061C25.4999 61.1352 25.9713 61.3527 26.4219 61.2628C26.3528 61.3319 26.2682 61.3957 26.1724 61.4432H26.1732ZM26.3692 59.8004C26.4115 59.6994 26.4649 59.6148 26.528 59.5354C26.4753 59.9912 26.7292 60.447 27.1746 60.6326C27.62 60.8234 28.1182 60.6801 28.4099 60.3252C28.3995 60.4262 28.3728 60.5212 28.3305 60.6222C28.1026 61.1626 27.482 61.4172 26.9415 61.1945C26.3959 60.9666 26.1413 60.3408 26.3692 59.8004ZM28.744 56.2118C28.8397 56.2386 28.9347 56.2809 29.0194 56.3388C29.5175 56.6565 29.6608 57.3142 29.343 57.8072C29.0253 58.3053 28.3676 58.4434 27.8695 58.1249C27.7848 58.0663 27.7054 58.0032 27.6416 57.9237C28.0818 58.0566 28.5747 57.8866 28.8345 57.4783C29.0944 57.0752 29.0468 56.5563 28.7447 56.2111L28.744 56.2118ZM28.7603 59.9377C28.1983 60.1129 27.5993 59.7945 27.4248 59.2377C27.3929 59.1315 27.3773 59.0313 27.3773 58.9304C27.6319 59.3171 28.1144 59.5027 28.5806 59.3594C29.0416 59.2162 29.3334 58.7871 29.3282 58.3261C29.3809 58.4107 29.4292 58.5013 29.4551 58.6015C29.6303 59.1635 29.3171 59.7625 28.761 59.937L28.7603 59.9377ZM27.4983 56.9906C27.3973 57.001 27.2919 57.001 27.1962 56.9854C27.6148 56.7998 27.8851 56.3544 27.822 55.8778C27.7633 55.3953 27.3929 55.0352 26.9371 54.961C27.0269 54.9239 27.1279 54.8919 27.234 54.8815C27.8168 54.8073 28.3468 55.2156 28.421 55.7984C28.4953 56.387 28.087 56.9171 27.499 56.9913L27.4983 56.9906ZM29.4967 65.1966C29.1471 65.6257 28.617 65.7585 28.1664 65.6895C28.1397 66.204 28.3943 66.6702 28.7974 66.93C28.9882 67.0629 29.2057 67.1475 29.4284 67.1846C29.5665 66.9723 29.7409 66.7763 29.9637 66.5907C30.0698 66.5165 30.2339 66.4371 30.4091 66.4578C30.5731 66.463 30.7958 66.6011 30.833 66.8238C30.8701 67.0517 30.7431 67.2158 30.637 67.322C30.5308 67.4281 30.3719 67.5127 30.2391 67.5447C30.0216 67.6189 29.7937 67.6345 29.5606 67.6189C29.5338 67.6716 29.5078 67.725 29.4863 67.7778C29.3646 68.0955 29.375 68.4243 29.4759 68.6686C29.5717 68.9232 29.7625 69.0821 29.9369 69.1615C30.3029 69.3204 30.5412 69.1986 30.5464 69.2409C30.5679 69.2513 30.3341 69.4585 29.8731 69.3204C29.6556 69.2565 29.3958 69.0821 29.2473 68.7747C29.0988 68.4726 29.0565 68.0695 29.1886 67.6723C29.199 67.6404 29.2154 67.6085 29.2309 67.5714C28.9927 67.5187 28.7596 67.4333 28.5524 67.296C28.0328 66.9723 27.6779 66.3205 27.7151 65.6687C27.7203 65.6316 27.7306 65.5893 27.7366 65.5522C27.3817 65.377 27.1271 65.08 26.9838 64.7838C26.8034 64.4127 26.7775 64.0207 26.825 63.7074C26.8777 63.3897 26.995 63.1351 27.1056 62.9495C27.3387 62.5731 27.551 62.4402 27.5666 62.4565C27.5933 62.4833 27.4337 62.6577 27.2593 63.0289C27.1004 63.3897 26.9252 64.02 27.2644 64.6406C27.381 64.8581 27.5666 65.0541 27.7945 65.181C27.9214 64.7252 28.2028 64.3169 28.6111 64.0682C28.7544 63.9888 28.9236 63.9249 29.1203 63.9353C29.3163 63.9405 29.5234 64.0623 29.6185 64.2427C29.7937 64.6086 29.6823 64.9368 29.4967 65.1966ZM29.7721 51.3665C29.1255 51.3665 28.4893 51.7325 28.1605 52.2944C28.0172 52.5439 27.9326 52.8245 27.7789 53.0628C27.62 53.3063 27.3602 53.5134 27.0737 53.4867C26.6498 53.4547 26.4271 52.9514 26.4055 52.5275C26.358 51.4088 27.1739 50.3064 28.2607 50.031C28.9763 49.8454 29.7662 50.031 30.3549 50.4712C30.6518 50.6887 31.3942 51.6798 31.3778 52.2996C31.0542 51.7377 30.4187 51.3665 29.7714 51.3665H29.7721ZM31.8663 47.3221C32.3013 46.7179 33.0222 46.3571 33.7586 46.3096C34.1246 46.288 35.3331 46.5746 35.7147 47.0571C35.1104 46.8344 34.3844 46.9562 33.8863 47.3748C33.3881 47.7883 33.1387 48.4772 33.2501 49.1186C33.2976 49.3993 33.4141 49.6702 33.4512 49.956C33.4832 50.2426 33.4193 50.5707 33.181 50.7355C32.8366 50.979 32.3436 50.7407 32.0571 50.4282C31.2992 49.6012 31.2145 48.2338 31.8663 47.3221ZM38.4978 57.0225C41.8903 57.0492 44.5881 56.3388 44.6571 56.5823C44.689 56.6832 44.0476 57.001 42.9393 57.3031C41.8317 57.6053 40.252 57.8651 38.497 57.8599C36.7369 57.8495 35.1631 57.5845 34.06 57.2712C32.9524 56.9587 32.3162 56.6402 32.3481 56.534C32.4171 56.2957 35.1097 57.0218 38.497 57.0218L38.4978 57.0225ZM43.4114 59.1375C42.1977 59.4448 40.4695 59.7098 38.5505 59.7202C36.6315 59.7202 34.9033 59.4656 33.6895 59.1583C32.4706 58.8561 31.7602 58.5436 31.7869 58.4374C31.8507 58.1939 34.8246 58.9036 38.5505 58.8777C42.2719 58.888 45.2451 58.162 45.3089 58.4055C45.3356 58.5065 44.6252 58.8294 43.4114 59.1367V59.1375ZM46.0616 55.252C45.6326 55.252 45.2822 54.9023 45.2822 54.4673C45.2822 54.0323 45.6318 53.6878 46.0616 53.6878C46.4915 53.6878 46.8463 54.0375 46.8463 54.4673C46.8463 54.8971 46.4967 55.252 46.0616 55.252ZM47.4402 59.1056C46.974 58.4909 47.0905 57.6164 47.7052 57.1494C48.3199 56.6832 49.1892 56.805 49.6613 57.4145C49.7408 57.5258 49.8046 57.6424 49.8521 57.7693C49.3696 57.4085 48.6911 57.3981 48.1826 57.7797C47.6792 58.1613 47.5092 58.8242 47.7267 59.3862C47.6206 59.3067 47.5256 59.2162 47.4402 59.1056ZM49.38 54.791C50.1483 54.8281 50.7422 55.4799 50.7051 56.249C50.6999 56.3922 50.6732 56.5192 50.6257 56.6469C50.4876 56.0582 49.9739 55.6135 49.3429 55.5816C48.7067 55.5497 48.1558 55.9476 47.9591 56.5199C47.9272 56.393 47.9116 56.2549 47.922 56.1168C47.9591 55.3485 48.6109 54.7546 49.38 54.7917V54.791ZM48.4364 52.1668C48.4364 51.8008 48.7386 51.5038 49.1046 51.5038C49.4705 51.5038 49.7727 51.8008 49.7727 52.1668C49.7727 52.5327 49.4705 52.8349 49.1046 52.8349C48.7386 52.8349 48.4364 52.5379 48.4364 52.1668ZM55.2164 55.8355C55.3433 55.8726 55.4658 55.9253 55.5824 56.0055C56.229 56.419 56.4197 57.2831 56.001 57.9297C55.5824 58.5814 54.7235 58.767 54.0717 58.3484C53.9551 58.2741 53.8542 58.1843 53.7695 58.0833C54.3471 58.2585 54.9937 58.0358 55.3329 57.5006C55.6774 56.9705 55.6083 56.292 55.2164 55.8362V55.8355ZM55.232 60.7224C54.4948 60.9503 53.7161 60.5368 53.4882 59.8004C53.4459 59.6675 53.4243 59.5354 53.4243 59.4084C53.7584 59.9066 54.3946 60.1508 54.9989 59.9652C55.6031 59.7744 55.9899 59.2177 55.9795 58.6134C56.0486 58.7195 56.1065 58.8413 56.1495 58.9742C56.3774 59.7106 55.9691 60.4952 55.2327 60.7231L55.232 60.7224ZM54.4584 48.5945C54.1563 48.5945 53.9128 48.3451 53.9128 48.043C53.9128 47.7408 54.1563 47.4914 54.4584 47.4914C54.7606 47.4914 55.01 47.7408 55.01 48.043C55.01 48.3451 54.7665 48.5945 54.4584 48.5945ZM54.7977 55.2995C54.8935 56.0626 54.3523 56.7627 53.5891 56.8577C53.4511 56.8733 53.3137 56.8733 53.186 56.8525C53.7376 56.609 54.0873 56.0255 54.0078 55.3997C53.9284 54.7687 53.4407 54.2921 52.8468 54.2015C52.9685 54.1488 53.0962 54.1117 53.2335 54.0902C53.9967 53.9944 54.6967 54.5356 54.7969 55.2988L54.7977 55.2995ZM52.391 50.688C52.0465 50.688 51.76 50.4074 51.76 50.057C51.76 49.7066 52.0465 49.4312 52.391 49.4312C52.7354 49.4312 53.022 49.7118 53.022 50.057C53.022 50.4022 52.7354 50.688 52.391 50.688ZM52.8468 58.3157C52.8468 58.8561 52.4118 59.2911 51.8765 59.2911C51.3413 59.2911 50.9011 58.8561 50.9011 58.3157C50.9011 57.7753 51.3361 57.3454 51.8765 57.3454C52.417 57.3454 52.8468 57.7804 52.8468 58.3157ZM52.1787 54.059C52.7458 54.5839 52.7777 55.4636 52.2581 56.0307C52.1623 56.1317 52.0569 56.2163 51.9456 56.2801C52.2158 55.7449 52.1096 55.0716 51.6434 54.6425C51.1772 54.2134 50.4987 54.16 49.9843 54.4673C50.037 54.3508 50.1171 54.2394 50.207 54.1384C50.7318 53.5713 51.6115 53.5342 52.1787 54.059ZM49.3911 61.735C49.2582 61.7402 49.1261 61.735 48.9932 61.7031C48.2405 61.5331 47.7691 60.7862 47.9383 60.0335C48.1083 59.2807 48.8551 58.8146 49.6079 58.9838C49.7408 59.0157 49.8677 59.0632 49.9791 59.1271C49.38 59.1642 48.8499 59.5881 48.7119 60.2087C48.5686 60.8286 48.8655 61.444 49.3904 61.735H49.3911ZM51.8505 62.6941C51.1668 63.0489 50.3243 62.7787 49.9687 62.095C49.619 61.4113 49.8892 60.5687 50.5729 60.2131C50.6947 60.1493 50.8224 60.107 50.9545 60.0862C50.5143 60.4997 50.3874 61.1678 50.6739 61.7298C50.9656 62.2969 51.5855 62.5783 52.1742 62.461C52.0844 62.5508 51.973 62.631 51.8505 62.6941ZM52.852 62.366C52.1415 62.069 51.8075 61.2532 52.1044 60.5376C52.1571 60.4106 52.2314 60.2993 52.3108 60.1983C52.2418 60.7974 52.5706 61.3913 53.1586 61.6348C53.7413 61.8783 54.399 61.6986 54.7754 61.2265C54.765 61.3593 54.7279 61.4915 54.6745 61.6184C54.3775 62.3289 53.5617 62.6629 52.8512 62.366H52.852ZM56.4034 64.91C56.2765 65.1751 56.0538 65.4349 55.7353 65.5885C55.7405 65.6257 55.7509 65.6576 55.7509 65.6947C55.788 66.2723 55.4755 66.8446 55.0137 67.1312C54.8281 67.2529 54.6218 67.3323 54.4146 67.3806C54.425 67.4073 54.4414 67.4333 54.4518 67.4652C54.5631 67.8201 54.5312 68.1757 54.399 68.4407C54.2662 68.7109 54.0331 68.8698 53.8423 68.9284C53.434 69.045 53.2276 68.8594 53.2484 68.8542C53.2536 68.8171 53.4659 68.9284 53.7888 68.7851C53.9425 68.7109 54.1066 68.5728 54.1971 68.3509C54.2818 68.1333 54.2981 67.8364 54.1867 67.5558C54.1711 67.5135 54.1444 67.466 54.1229 67.4229C53.9165 67.4333 53.7094 67.4177 53.5186 67.3539C53.4073 67.322 53.264 67.2477 53.169 67.1579C53.0732 67.0621 52.9626 66.9196 52.9938 66.7125C53.0309 66.5165 53.2217 66.3999 53.3701 66.3947C53.5238 66.3732 53.6671 66.4423 53.7621 66.5113C53.9633 66.6702 54.117 66.8506 54.2394 67.0361C54.4354 66.999 54.6262 66.9248 54.7962 66.8134C55.1511 66.5751 55.379 66.1668 55.3582 65.711C54.9551 65.7697 54.4837 65.6524 54.1763 65.276C54.0123 65.0481 53.9165 64.7512 54.0702 64.4334C54.1548 64.2694 54.3352 64.1632 54.5104 64.158C54.6856 64.1476 54.8341 64.2055 54.961 64.2746C55.3218 64.4973 55.5705 64.8573 55.6818 65.2604C55.8882 65.1491 56.053 64.9739 56.154 64.7831C56.4561 64.2315 56.3024 63.6755 56.1592 63.357C56.0055 63.0282 55.8622 62.8693 55.889 62.8485C55.8993 62.8329 56.0849 62.9547 56.2921 63.2835C56.393 63.4528 56.4984 63.6755 56.5415 63.9569C56.589 64.2375 56.563 64.5827 56.4034 64.9108V64.91ZM62.314 48.181C61.9058 49.2203 61.084 49.9041 60.231 50.2589C59.3565 50.6197 58.4397 50.6034 57.6921 50.3383C56.9342 50.0733 56.3455 49.5165 56.1495 48.8596C55.9691 48.2234 56.0968 47.6614 56.3084 47.2798C56.5148 46.8879 56.828 46.6859 57.0344 46.6065C57.2467 46.5271 57.3737 46.5538 57.3789 46.585C57.4212 46.6748 56.9438 46.7973 56.7159 47.4595C56.6046 47.7772 56.5779 48.2278 56.7531 48.6465C56.9171 49.0444 57.3677 49.4208 57.9349 49.5685C58.5072 49.7222 59.2177 49.6903 59.8487 49.3881C60.4849 49.0912 61.0788 48.524 61.3223 47.8247C61.4388 47.4751 61.4603 47.1039 61.3594 46.7483C61.2636 46.3875 61.052 46.0431 60.7499 45.7521C60.4582 45.4603 60.0766 45.222 59.6631 45.058C59.2548 44.8991 58.7886 44.8145 58.3165 44.7981C57.3677 44.7714 56.4242 45.0156 55.5757 45.4076C54.7279 45.7944 53.9752 46.3296 53.2966 46.9079C51.9396 48.0578 50.8372 49.3198 49.7927 50.2685C48.7594 51.2336 47.7943 51.9062 47.0787 52.2566C46.9458 52.3256 46.8292 52.3783 46.7127 52.4266C46.6385 52.4793 46.5694 52.5327 46.4952 52.5802C45.0743 53.5394 43.5376 54.1013 42.0848 54.4458C41.3588 54.6158 40.6432 54.7264 39.9595 54.7954C39.2758 54.8645 38.6025 54.8964 37.9455 54.8377C37.2937 54.7739 36.6575 54.615 36.117 54.3181C35.5655 54.0212 35.1416 53.5869 34.8714 53.1147C34.596 52.6433 34.4631 52.1185 34.5054 51.6412C34.5373 51.1586 34.7385 50.7399 35.0035 50.4541C35.2685 50.1624 35.6026 49.9983 35.9099 49.956C36.2121 49.9189 36.4667 49.9879 36.6411 50.083C37.0019 50.2789 37.0598 50.512 37.0331 50.518C36.996 50.5499 36.8742 50.3851 36.5558 50.2953C36.4021 50.253 36.1898 50.2314 35.973 50.2901C35.7555 50.3487 35.5224 50.5024 35.342 50.7407C34.9708 51.2069 34.9129 52.0502 35.4111 52.7762C35.6546 53.1422 36.0101 53.4651 36.4444 53.6723C36.895 53.8846 37.4251 54.0011 38.0026 54.0271C38.5802 54.059 39.2008 54.0056 39.8526 53.9157C40.5044 53.8311 41.1777 53.7034 41.8562 53.5238C43.2132 53.163 44.623 52.6018 45.9006 51.7109C46.0965 51.5781 46.2873 51.4303 46.4781 51.2819C46.5523 51.1972 46.6318 51.123 46.706 51.0384C47.2628 50.3866 47.729 49.5492 47.9836 48.5789C48.2434 47.6198 48.2857 46.5167 47.9836 45.4566C47.6867 44.4069 47.0133 43.3943 46.0698 42.6631C45.1263 41.9371 43.9073 41.5073 42.6668 41.6401C41.4212 41.7515 40.2549 42.361 39.4866 43.2355C38.7183 44.0944 38.3627 45.2925 38.644 46.2301C38.9038 47.1633 39.8682 47.7356 40.8013 47.8678C41.7344 48.011 42.6832 47.7779 43.2823 47.2902C43.8917 46.8188 44.1196 46.0445 44.0135 45.4507C43.9177 44.8308 43.4678 44.47 43.0328 44.3431C42.6037 44.205 42.2274 44.2792 42.0047 44.3698C41.7768 44.4655 41.6654 44.5606 41.6283 44.5287C41.6016 44.5071 41.655 44.3535 41.8881 44.1679C42.116 43.9875 42.5666 43.813 43.139 43.908C43.4196 43.9607 43.7329 44.0721 44.0187 44.3059C44.3052 44.5442 44.5279 44.8946 44.6385 45.3081C44.8509 46.1195 44.617 47.1848 43.8116 47.9056C43.0217 48.6109 41.8658 48.939 40.6736 48.8068C40.0797 48.7378 39.4651 48.547 38.9031 48.181C38.3463 47.8262 37.8586 47.2427 37.6359 46.5434C37.1957 45.1389 37.6886 43.6118 38.6381 42.5042C39.5972 41.3907 41.0181 40.6439 42.5555 40.5006C43.3238 40.4212 44.1085 40.5162 44.8241 40.7441C45.5398 40.972 46.1916 41.3432 46.7587 41.7834C47.8878 42.6794 48.6725 43.8984 48.9954 45.1812C49.2389 46.1143 49.2501 47.0415 49.112 47.9004C49.4193 47.2063 49.6524 46.464 49.7378 45.6897C49.8439 44.8523 49.7645 43.983 49.616 43.0766C49.4676 42.1702 49.2553 41.2586 49.1387 40.3098C49.0118 39.3663 48.9902 38.3753 49.2129 37.4206C49.4357 36.4667 49.8863 35.5862 50.5173 34.8765C51.1431 34.1661 51.9693 33.6257 52.8549 33.3874C53.7346 33.1439 54.6574 33.1379 55.5 33.403C56.3373 33.6576 57.0693 34.2032 57.5407 34.8713C58.0232 35.5343 58.2882 36.313 58.3038 37.0821C58.3254 37.8504 58.0544 38.6032 57.6305 39.1495C56.7931 40.2683 55.4042 40.7241 54.3226 40.4219C53.7821 40.2839 53.3152 39.9765 53.0398 39.5578C52.7592 39.1288 52.7221 38.6462 52.8334 38.2535C52.9448 37.8556 53.2417 37.5594 53.5439 37.4636C53.8356 37.3627 54.1058 37.3894 54.2966 37.4585C54.4926 37.5275 54.6091 37.6388 54.6678 37.7235C54.7264 37.8081 54.7316 37.8616 54.7205 37.8719C54.6834 37.9039 54.5616 37.7287 54.238 37.6812C53.9358 37.6285 53.3635 37.771 53.2677 38.3597C53.215 38.6351 53.2781 38.9795 53.4852 39.2446C53.6916 39.5148 54.0472 39.7219 54.4659 39.8013C55.2928 39.9765 56.3581 39.5734 56.9728 38.6722C57.2853 38.232 57.4553 37.6916 57.4182 37.114C57.3915 36.5364 57.1636 35.9374 56.782 35.4333C56.3952 34.93 55.8541 34.5484 55.2075 34.3628C54.5661 34.1772 53.8349 34.1928 53.1504 34.3999C51.7718 34.7919 50.6435 36.1118 50.3042 37.6708C50.1342 38.4502 50.1453 39.2928 50.2671 40.1673C50.3784 41.0366 50.5848 41.9378 50.7444 42.8918C50.8981 43.8405 50.9939 44.8427 50.8662 45.8285C50.7548 46.8092 50.4423 47.7371 50.034 48.5849C49.9442 48.7705 49.8484 48.9509 49.7474 49.1253C50.5529 48.2241 51.4489 47.1588 52.5996 46.1143C53.31 45.4781 54.1318 44.8583 55.0961 44.3913C56.0612 43.9355 57.174 43.623 58.3558 43.6542C58.9445 43.6809 59.5272 43.7811 60.084 44.0038C60.6296 44.2265 61.1285 44.5442 61.542 44.9629C61.9555 45.3712 62.2732 45.9013 62.4165 46.4788C62.5598 47.0512 62.5063 47.6658 62.3103 48.1803L62.314 48.181ZM38.0472 51.8386C38.0472 51.4095 38.3916 51.0592 38.8266 51.0592C39.2617 51.0592 39.6061 51.4088 39.6061 51.8386C39.6061 52.2685 39.2565 52.6181 38.8266 52.6181C38.3968 52.6181 38.0472 52.2685 38.0472 51.8386ZM42.1131 50.8365C42.1131 50.4705 42.4152 50.1683 42.7812 50.1683C43.1472 50.1683 43.4493 50.4705 43.4493 50.8365C43.4493 51.2024 43.1472 51.5046 42.7812 51.5046C42.4152 51.5046 42.1131 51.2024 42.1131 50.8365ZM45.7224 47.8255C46.0461 47.8255 46.3111 48.0905 46.3111 48.4193C46.3111 48.7482 46.0461 49.008 45.7224 49.008C45.3987 49.008 45.1285 48.743 45.1285 48.4193C45.1285 48.0957 45.3935 47.8255 45.7224 47.8255ZM45.6326 44.9741C45.6326 44.6719 45.882 44.4284 46.1841 44.4284C46.4863 44.4284 46.7357 44.6719 46.7357 44.9741C46.7357 45.2762 46.4863 45.5256 46.1841 45.5256C45.882 45.5256 45.6326 45.2821 45.6326 44.9741ZM67.2069 37.791C67.08 38.2468 66.7882 38.6284 66.4594 38.9305C66.1253 39.2275 65.7437 39.4606 65.3518 39.641C64.9598 39.8162 64.5411 39.9483 64.0957 39.975C63.6607 40.0018 63.1945 39.906 62.8604 39.6677C62.1975 39.2119 62.0386 38.4911 62.2561 37.9662C62.4944 37.4206 63.0356 37.1764 63.4432 37.1021C63.8671 37.0227 64.2011 37.0969 64.3971 37.1712C64.5983 37.2558 64.6673 37.3352 64.6569 37.3516C64.6413 37.3783 64.5404 37.3412 64.3496 37.304C64.1588 37.2773 63.8671 37.2617 63.5278 37.3627C63.1989 37.4585 62.8122 37.6968 62.6904 38.0835C62.5635 38.4547 62.7379 38.9951 63.2049 39.2765C63.6503 39.563 64.3867 39.4673 65.0281 39.1384C65.6747 38.8147 66.3161 38.2906 66.4801 37.6433C66.6657 37.0123 66.2099 36.2863 65.452 35.9366C64.7044 35.5818 63.6867 35.6397 62.8122 35.9953C61.9325 36.3501 61.2168 36.9655 60.761 37.6596C60.2948 38.3537 60.0877 39.1332 60.1352 39.8644C60.1775 40.5956 60.4797 41.2742 60.957 41.7619C61.4344 42.2496 62.0809 42.557 62.7008 42.6527C63.3207 42.7485 63.9146 42.6312 64.3919 42.4463C64.8692 42.266 65.256 42.0329 65.5581 41.8317C66.1572 41.4234 66.4646 41.1532 66.5121 41.1903C66.5492 41.217 66.3265 41.5451 65.7645 42.0329C65.4839 42.2763 65.1075 42.5577 64.5879 42.8012C64.0794 43.0395 63.3897 43.2251 62.6162 43.1404C61.853 43.0558 61.058 42.7166 60.4537 42.1442C59.8442 41.5667 59.4679 40.7605 59.3884 39.9075C59.309 39.0538 59.5421 38.137 60.0669 37.3263C60.5918 36.5157 61.4136 35.7941 62.4737 35.365C62.9985 35.1586 63.5657 35.0258 64.1484 35.0042C64.7312 34.9886 65.325 35.0889 65.8343 35.3383C66.3428 35.5877 66.7511 35.9478 67.0109 36.3828C67.2708 36.8119 67.345 37.3367 67.2069 37.7925V37.791ZM67.4296 29.9941C66.9263 29.7818 66.6932 29.2042 66.8996 28.7009C66.9367 28.6111 66.9894 28.5316 67.048 28.4626C67.0005 28.8813 67.2284 29.3 67.6419 29.4752C68.0554 29.6504 68.5164 29.5175 68.7867 29.1886C68.7763 29.2784 68.7547 29.3742 68.7176 29.464C68.5053 29.9673 67.9277 30.2012 67.4296 29.9941ZM68.071 33.3176C67.8535 33.1268 67.6843 32.8722 67.636 32.5864C67.5937 32.3058 67.6835 31.9925 67.9062 31.818C68.1237 31.648 68.4734 31.648 68.6746 31.85C68.8386 32.0088 68.8869 32.2582 68.8921 32.4913C68.9077 33.1543 69.0405 33.3822 69.385 33.9122C68.9448 33.8595 68.4095 33.6205 68.0703 33.3183L68.071 33.3176ZM69.1096 28.833C68.5899 28.9919 68.0391 28.7001 67.8743 28.1812C67.8476 28.0855 67.832 27.9956 67.832 27.9006C68.0651 28.2555 68.5157 28.4307 68.9396 28.2985C69.3687 28.1656 69.6396 27.7685 69.6337 27.3446C69.6864 27.4188 69.7235 27.5035 69.7554 27.5992C69.9143 28.1189 69.6285 28.6697 69.1088 28.8345L69.1096 28.833ZM70.1385 33.0786C69.921 32.8878 69.7569 32.6279 69.7094 32.3473C69.6619 32.0608 69.7569 31.7483 69.9744 31.579C70.1919 31.4038 70.5416 31.4038 70.748 31.6057C70.912 31.7698 70.9603 32.0192 70.9655 32.2471C70.9811 32.9152 71.1087 33.1431 71.4532 33.668C71.013 33.6205 70.4829 33.3814 70.1385 33.0793V33.0786Z" fill="#AF3830"/>
<path d="M63.4985 11.361C62.8816 10.5689 62.0932 9.89191 61.6634 8.98401C61.1296 7.84969 61.2654 6.42808 62.0056 5.41699C60.6359 5.77926 59.123 6.16974 57.9724 6.99376C56.8217 7.81777 55.8819 8.98401 55.5241 10.3499C55.1737 11.6914 55.389 13.1687 54.8196 14.4307C54.6525 14.7929 54.4098 15.4336 54.127 15.8204C54.4892 15.6571 54.8515 15.5056 55.2375 15.3824C55.9702 15.1433 56.9138 14.7736 57.694 14.7736C59.4378 14.4552 61.2053 14.3357 62.9773 14.2243C62.9855 14.2243 62.9974 14.2206 63.0055 14.2206C63.3203 14.2005 63.6343 14.1805 63.9491 14.1612C64.033 14.1575 64.1124 14.1493 64.1963 14.1412C64.5348 13.1457 64.1168 12.1583 63.4992 11.3625L63.4985 11.361ZM62.9335 13.8435C63.1362 13.211 62.9528 12.4278 62.6061 11.8495C62.2595 11.2712 61.7651 10.7798 61.3063 10.2698C60.8475 9.75978 60.238 8.59056 60.0413 7.95585C60.0124 8.73532 60.6278 10.1562 61.0257 10.8466C61.526 11.7151 61.6411 12.5733 61.2469 13.4857C61.4414 12.8346 61.0375 12.1368 60.7013 11.5355C60.365 10.9342 59.9173 10.3856 59.6219 9.76646C59.3264 9.14733 59.1965 8.41463 59.5179 7.80589C59.0139 8.25057 58.8803 9.1065 58.9575 9.74196C59.0347 10.3774 59.2878 10.9832 59.4378 11.6075C59.5877 12.2318 59.6256 12.9163 59.2967 13.4812C59.4563 12.8999 59.1334 12.2036 58.9077 11.6409C58.6821 11.0782 58.3807 10.5385 58.2225 9.95724C58.0644 9.37598 58.0659 8.72419 58.4185 8.21864C57.2359 9.65807 56.9613 11.6773 57.7808 13.3134C56.8818 12.5028 56.5671 11.39 56.7972 10.2564C56.1024 11.5177 55.8396 12.8977 55.939 14.1902C55.6599 12.5844 55.6889 11.6758 56.1521 10.3336C56.8804 8.22161 58.6138 6.86459 60.9106 6.17197C60.4585 7.00415 60.3917 8.05607 60.8854 8.86895C61.3798 9.68109 62.0843 10.3744 62.5846 11.1829C63.085 11.992 63.3656 13.0031 62.9335 13.845V13.8435Z" fill="#AF3830"/>
<path d="M3.51003 33.4655C3.51003 34.2814 3.63326 34.8872 3.74461 35.265C3.63326 35.2056 3.52191 35.1373 3.41798 35.0698C2.50636 34.4803 1.84938 33.7283 1.37576 32.9875C0.897678 32.2473 0.603705 31.5102 0.408465 30.8614C0.213226 30.2125 0.11375 29.6431 0.0580731 29.1777C-0.0495685 28.2497 0.00610821 27.7323 0.11375 27.7123C0.233269 27.6967 0.400299 28.1822 0.695015 29.0344C0.993442 29.8703 1.41955 31.1123 2.34304 32.3067C2.66523 32.721 3.05571 33.1226 3.50929 33.4655H3.51003Z" fill="#AF3830"/>
<path d="M8.83333 33.0868C9.07608 32.7045 9.22381 32.2509 9.2394 31.8092C9.24757 31.3675 9.1518 30.9451 8.89272 30.6147C8.38346 29.9058 7.33229 29.5836 6.70277 29.9303C5.99827 30.245 5.54395 31.1722 5.37321 32.0883C5.23365 32.8448 5.22993 33.6213 5.33312 34.3295C5.32941 34.3332 5.33312 34.3414 5.33312 34.3451C5.34129 34.4171 5.39697 34.763 5.49273 35.129C5.57216 35.4037 5.66421 35.6628 5.77111 35.9092C5.77111 35.9129 5.77482 35.9129 5.77482 35.9174V35.9211C5.94631 36.3116 6.15268 36.6657 6.38801 36.976C6.82229 37.5454 7.3553 37.967 7.86901 38.2536C8.38272 38.5483 8.8801 38.6997 9.29433 38.7873C10.1302 38.9544 10.6402 38.8712 10.6721 38.9982C10.7041 39.0895 10.2342 39.4124 9.23866 39.4399C8.7487 39.4436 8.1318 39.3686 7.47482 39.1058C6.81412 38.8467 6.10517 38.4132 5.48011 37.7399C4.93077 37.1386 4.46902 36.3665 4.17059 35.4786C3.87959 34.7541 3.80016 33.671 3.80016 33.671C3.74448 33.0816 3.76007 32.4647 3.84767 31.8277C3.94343 31.2264 4.11417 30.6095 4.4371 30.0045C4.75186 29.4077 5.26111 28.8101 5.97378 28.456C6.33233 28.2771 6.7384 28.165 7.14002 28.1375C7.54237 28.1137 7.94399 28.1657 8.31814 28.2771C9.0746 28.4998 9.74717 28.9615 10.2371 29.6148C10.4836 29.937 10.6751 30.3312 10.7746 30.7179C10.8822 31.1039 10.9216 31.5018 10.906 31.8842C10.8659 32.6562 10.6076 33.3689 10.2171 33.9746C10.0181 34.2731 9.78726 34.5477 9.52818 34.7949C9.26167 35.034 8.9625 35.2411 8.66407 35.4044C8.0546 35.7266 7.40207 35.8944 6.77329 35.9419C6.5543 35.9575 6.33901 35.9619 6.12819 35.95C5.93295 35.6279 5.63823 35.0266 5.65456 34.3896C5.97303 34.4334 6.30338 34.4371 6.63373 34.4015C7.07543 34.354 7.50971 34.2181 7.89202 33.9991C8.27434 33.7838 8.5891 33.4773 8.83185 33.0875L8.83333 33.0868Z" fill="#AF3830"/>
<path d="M5.33008 34.3333L5.33379 34.3296C5.33008 34.3333 5.33379 34.3415 5.33379 34.3452C5.33008 34.337 5.33008 34.3333 5.33008 34.3333Z" fill="#AF3830"/>
<path d="M5.49219 35.1289C5.57162 35.4036 5.66367 35.6627 5.77057 35.9091C5.65476 35.7183 5.56345 35.4192 5.49219 35.1289Z" fill="#AF3830"/>
<path d="M50.1255 24.5177C52.4283 24.2275 54.6286 23.177 56.3027 21.5684C55.3331 22.8229 54.0362 23.7494 52.5233 24.2245C53.5589 24.105 55.0889 23.9417 56.0161 23.4658C55.0377 24.2186 53.5463 24.3871 52.3288 24.589C53.5262 24.9127 54.8699 25.0032 56.0792 24.7286C55.1565 25.2259 52.9279 25.2267 51.9101 24.9773C53.4936 25.7233 55.5774 26.0262 57.3041 25.7389C55.7837 26.4501 53.0994 26.2029 51.6206 25.4093C53.6487 26.9549 56.6597 27.1516 58.4028 26.5221C56.8683 27.5243 52.8759 27.1323 51.2658 25.8607C52.769 28.5012 56.2366 28.0781 56.8995 27.7566C55.6189 28.45 54.0444 28.6126 52.7104 28.0283C51.3764 27.4434 50.4818 25.929 50.124 24.517L50.1255 24.5177Z" fill="#AF3830"/>
<path d="M21.6668 62.4448C21.424 61.8316 21.0974 61.306 20.5043 61.1746C17.3589 60.4656 14.5721 58.4472 12.7845 55.7725C12.9077 57.7946 12.4942 60.0366 11.7296 61.8197C11.1402 63.1975 11.5025 65.0564 12.7132 65.9405C12.4148 68.4051 11.9649 70.6225 11.3555 73.0308C12.0399 72.5408 12.5737 71.8445 12.8647 71.0561C12.8328 71.7925 12.9003 72.4413 12.8684 73.1777C13.8587 74.2675 15.2848 74.71 16.7012 74.5526C16.6737 74.177 16.6433 73.6328 16.5163 73.0315C16.3033 71.9447 15.8683 71.1296 15.9907 71.0494C16.0924 70.9655 16.7695 71.7309 17.0093 72.9313C17.1377 73.5511 17.1124 74.1064 17.0404 74.4962C17.4339 74.4256 17.8251 74.3202 18.203 74.1569C18.7122 72.6165 17.8964 70.9002 16.6744 69.8297C16.9729 68.3131 16.8934 66.9553 16.6589 65.4305C18.3551 65.2152 19.8718 64.4951 21.0299 63.2406C21.2607 62.9896 21.476 62.7231 21.6668 62.444V62.4448ZM16.5022 60.7767C16.5601 60.793 16.6165 60.8183 16.6707 60.8531C16.9699 61.0454 17.0575 61.4433 16.8652 61.7432C16.673 62.0424 16.2743 62.1285 15.9752 61.9362C15.921 61.9013 15.8749 61.8605 15.8356 61.8145C16.1021 61.8939 16.399 61.7915 16.5572 61.545C16.7153 61.2986 16.6848 60.9868 16.5022 60.7767ZM15.5876 59.9712C15.941 59.9259 16.2632 60.1754 16.3085 60.528C16.3538 60.8814 16.1036 61.2028 15.7502 61.2481C15.6864 61.2562 15.6248 61.2548 15.5654 61.2444C15.8207 61.1338 15.9818 60.865 15.9455 60.574C15.9083 60.2838 15.6841 60.064 15.4095 60.021C15.4644 59.9965 15.5238 59.9794 15.5876 59.9712ZM14.4058 63.4974C14.5402 63.758 14.826 63.8872 15.0984 63.8344C15.0554 63.8768 15.0049 63.9131 14.9477 63.9421C14.6315 64.1054 14.2432 63.9814 14.0799 63.6652C13.9166 63.3489 14.0421 62.9607 14.3583 62.7981C14.4155 62.7684 14.4741 62.7491 14.5335 62.738C14.3316 62.9295 14.2714 63.2376 14.4058 63.4974ZM14.5105 61.9214C14.5105 61.6735 14.7117 61.4723 14.9596 61.4723C15.2076 61.4723 15.4087 61.6735 15.4087 61.9214C15.4087 62.1693 15.2076 62.3705 14.9596 62.3705C14.7117 62.3705 14.5105 62.1693 14.5105 61.9214ZM14.1905 59.992C14.4318 59.7307 14.8393 59.7136 15.1007 59.9556C15.362 60.1969 15.3776 60.6045 15.1363 60.8658C15.0925 60.9125 15.0442 60.9511 14.9923 60.9823C15.1162 60.7336 15.0672 60.4233 14.8527 60.2251C14.6374 60.0262 14.3249 60.0024 14.0866 60.1457C14.1133 60.0915 14.1475 60.0403 14.1913 59.9928L14.1905 59.992ZM13.8075 60.2927C14.1631 60.3097 14.4362 60.6119 14.4192 60.9675C14.4162 61.0313 14.4036 61.0922 14.3835 61.1493C14.319 60.8791 14.0821 60.6728 13.7897 60.6586C13.4972 60.6445 13.2418 60.8272 13.152 61.09C13.1371 61.0313 13.1304 60.9697 13.1342 60.9059C13.1512 60.5503 13.4519 60.2756 13.8075 60.2927ZM12.9122 62.2851C12.6969 62.0016 12.7511 61.5977 13.0339 61.3824C13.3175 61.1672 13.7206 61.2228 13.9366 61.5057C13.9752 61.5569 14.0049 61.6111 14.0265 61.6675C13.803 61.502 13.489 61.496 13.2566 61.6734C13.0235 61.8509 12.9456 62.1545 13.0451 62.4143C12.9961 62.3787 12.9515 62.3356 12.9129 62.2851H12.9122ZM13.1416 62.7142C13.2203 62.3668 13.5647 62.15 13.9121 62.2287C13.9745 62.2428 14.0324 62.2651 14.0851 62.2955C13.8075 62.3126 13.5632 62.5093 13.4994 62.7951C13.4348 63.081 13.5699 63.3638 13.8134 63.4982C13.7533 63.5026 13.6917 63.4982 13.6286 63.4841C13.2811 63.4054 13.0629 63.0617 13.1416 62.7142ZM15.9484 69.9047C15.892 70.1051 15.7309 70.189 15.6062 70.2343C15.4807 70.2803 15.3211 70.2892 15.2024 70.2684C15.0027 70.2462 14.8111 70.1734 14.6307 70.0769C14.5907 70.1088 14.5483 70.14 14.5135 70.1742C14.2967 70.3843 14.1853 70.6545 14.1742 70.8905C14.1593 71.1296 14.2521 71.3248 14.3642 71.4547C14.5973 71.719 14.8341 71.7086 14.826 71.7435C14.8401 71.7598 14.5751 71.8393 14.2536 71.5624C14.1029 71.4295 13.9574 71.189 13.953 70.8891C13.9433 70.5936 14.0599 70.2536 14.3115 69.9812C14.3331 69.9581 14.3583 69.9388 14.3813 69.9173C14.2113 69.7867 14.0569 69.6315 13.9389 69.4437C13.6412 68.9909 13.5959 68.3368 13.8683 67.8276C13.8847 67.7957 13.9092 67.7697 13.927 67.7385C13.705 67.4668 13.6085 67.1357 13.6048 66.8447C13.5989 66.4772 13.7184 66.1528 13.8773 65.919C14.0354 65.6814 14.221 65.5218 14.3821 65.4127C14.7094 65.1982 14.9269 65.1662 14.9336 65.1863C14.947 65.216 14.7517 65.2991 14.4756 65.5344C14.2128 65.7638 13.8409 66.2078 13.8847 66.8328C13.8988 67.0474 13.973 67.276 14.1111 67.4646C14.3828 67.1431 14.7584 66.9189 15.1808 66.8692C15.3248 66.8573 15.483 66.867 15.6389 66.9479C15.7933 67.0281 15.9165 67.201 15.9239 67.3814C15.9291 67.7385 15.7176 67.9649 15.4763 68.1045C15.0361 68.3205 14.561 68.2292 14.221 68.008C14.0124 68.4118 14.0435 68.8795 14.2692 69.2403C14.3761 69.4162 14.5216 69.5647 14.6849 69.679C14.8735 69.5595 15.0873 69.463 15.336 69.3984C15.4503 69.3754 15.6077 69.3739 15.7428 69.4556C15.8727 69.5216 15.9996 69.7109 15.9484 69.9039V69.9047ZM16.2535 63.4447C16.1162 63.7728 15.7391 63.928 15.411 63.7906C15.0828 63.6533 14.9292 63.2755 15.0665 62.9473C15.091 62.8879 15.1237 62.8352 15.1623 62.7885C15.1303 63.0646 15.2825 63.3393 15.5527 63.4521C15.823 63.565 16.1251 63.4811 16.2996 63.2651C16.2936 63.3252 16.278 63.3853 16.2535 63.444V63.4447ZM16.5104 63.0312C16.1704 63.1366 15.8103 62.9466 15.7042 62.6066C15.6849 62.545 15.676 62.4841 15.6752 62.424C15.8289 62.6556 16.1214 62.7684 16.4013 62.6816C16.6811 62.5947 16.8586 62.3356 16.8534 62.058C16.8875 62.1085 16.9142 62.1634 16.9335 62.225C17.0389 62.565 16.8504 62.9258 16.5104 63.0312Z" fill="#AF3830"/>
<path d="M15.3055 67.7837C15.4421 67.7125 15.5653 67.5291 15.549 67.4125C15.5445 67.3086 15.4213 67.2336 15.2186 67.2552C14.9202 67.2915 14.6218 67.469 14.4072 67.7251C14.6708 67.8825 15.0278 67.9344 15.3062 67.7837H15.3055Z" fill="#AF3830"/>
<path d="M15.3924 69.7218C15.2655 69.7493 15.1408 69.7946 15.0205 69.8473C15.0955 69.8732 15.1719 69.897 15.2484 69.9067C15.4147 69.9542 15.6166 69.8539 15.6107 69.8191C15.6352 69.7923 15.5446 69.6854 15.3917 69.7211L15.3924 69.7218Z" fill="#AF3830"/>
<path d="M63.8957 64.3235C64.0033 64.2136 64.0627 63.9998 64.0108 63.8944C63.9737 63.7964 63.8334 63.7638 63.6478 63.8484C63.3761 63.9761 63.1474 64.2381 63.0234 64.5484C63.3226 64.6152 63.6782 64.5536 63.8957 64.3242V64.3235Z" fill="#AF3830"/>
<path d="M64.5835 66.1387C64.4715 66.2047 64.3675 66.2864 64.2695 66.374C64.349 66.3747 64.4284 66.374 64.5049 66.3599C64.6778 66.3525 64.8382 66.1951 64.8218 66.1639C64.8367 66.1305 64.7172 66.0578 64.5828 66.1394L64.5835 66.1387Z" fill="#AF3830"/>
<path d="M66.5747 71.0845C66.205 70.0927 65.6029 69.4364 65.7024 69.3281C65.7462 69.2798 65.9645 69.3845 66.2406 69.651C66.5153 69.9153 66.8338 70.3547 67.0453 70.9041C67.2324 71.394 67.2933 71.8684 67.2859 72.2366C67.9065 72.2247 68.5219 72.2099 69.1083 72.1787C68.9925 71.1001 68.3875 70.0808 67.4959 69.4639C67.1493 69.2249 66.6482 69.1135 66.4767 68.7312C65.3736 66.2748 65.0358 63.3684 64.1635 60.8125C63.8287 59.8252 64.116 59.8489 64.7849 59.1006C65.3379 58.4837 65.7685 57.7711 66.1063 57.0183C66.4448 56.2656 66.6875 55.4779 66.8664 54.6732C67.0572 53.8136 67.173 52.9331 67.2443 52.0579C67.4477 49.5539 67.7097 47.2103 67.64 44.9766C66.4099 48.0224 64.5221 52.9458 60.6678 55.2441C60.1273 56.5054 58.2002 58.4667 58.1475 60.5579C58.9076 62.6602 60.2298 64.4909 61.9617 65.9043C61.9854 66.983 62.7063 68.5835 63.1005 69.5871C62.8057 70.5069 62.3321 71.3072 63.3076 72.2826C63.073 71.3072 63.3076 71.0882 63.5147 70.4676C63.6223 71.1327 63.3833 71.6383 63.6698 72.1913C63.7136 72.2752 63.8094 72.3264 63.9044 72.319C64.8636 72.273 65.8858 72.2619 66.8991 72.2448C66.8353 71.9167 66.7432 71.5121 66.5754 71.0852L66.5747 71.0845ZM62.6699 58.8356C62.6528 58.7814 62.6447 58.728 62.6447 58.6745C62.7798 58.8787 63.0374 58.9774 63.2831 58.9009C63.5288 58.8245 63.6854 58.5966 63.681 58.3523C63.7107 58.3961 63.7344 58.4451 63.7515 58.4993C63.8443 58.7985 63.678 59.1162 63.3788 59.209C63.0797 59.3018 62.7627 59.1348 62.6699 58.8356ZM63.1933 59.4154C63.1881 59.4681 63.1747 59.5208 63.1532 59.5735C63.0322 59.8623 62.7003 59.9989 62.4115 59.8779C62.1228 59.7569 61.9877 59.425 62.1087 59.1355C62.1302 59.0836 62.1592 59.0368 62.1926 58.996C62.1651 59.2387 62.2987 59.4807 62.5363 59.5802C62.7738 59.6797 63.0396 59.6054 63.194 59.4154H63.1933ZM63.3714 57.2247C63.4226 57.2395 63.4724 57.2611 63.5199 57.2922C63.7834 57.4615 63.8599 57.8119 63.6906 58.0754C63.5214 58.339 63.171 58.4147 62.9074 58.2454C62.8599 58.215 62.8191 58.1786 62.785 58.1385C63.0195 58.2083 63.2808 58.1185 63.4197 57.9017C63.5592 57.685 63.5325 57.4103 63.3714 57.2254V57.2247ZM62.566 56.5157C62.877 56.4764 63.1606 56.6954 63.1999 57.0057C63.2393 57.3167 63.0195 57.5996 62.7085 57.6389C62.6528 57.6464 62.5979 57.6449 62.5459 57.636C62.7701 57.5387 62.9126 57.3019 62.88 57.0465C62.8473 56.7912 62.6498 56.5974 62.4086 56.5595C62.4576 56.538 62.5095 56.5232 62.5652 56.5157H62.566ZM62.0136 58.6277C61.7954 58.6277 61.618 58.4503 61.618 58.2321C61.618 58.0138 61.7947 57.8364 62.0136 57.8364C62.2326 57.8364 62.4093 58.0131 62.4093 58.2321C62.4093 58.4511 62.2319 58.6277 62.0136 58.6277ZM61.3374 56.5343C61.5497 56.3042 61.9082 56.2893 62.1384 56.5024C62.3685 56.7147 62.3819 57.0733 62.1695 57.3034C62.1309 57.345 62.0886 57.3791 62.0426 57.4058C62.1517 57.1868 62.1087 56.9144 61.9194 56.7392C61.7301 56.564 61.4547 56.5432 61.2453 56.6694C61.2683 56.6212 61.2988 56.5766 61.3374 56.535V56.5343ZM61.0003 56.7986C61.3129 56.8134 61.5541 57.0792 61.5393 57.3925C61.5363 57.4489 61.5259 57.5023 61.5081 57.5521C61.4509 57.3145 61.2431 57.1326 60.9855 57.1208C60.7279 57.1081 60.5037 57.2692 60.4243 57.5008C60.4109 57.4489 60.4057 57.3954 60.4087 57.339C60.4235 57.0265 60.6885 56.7845 61.0018 56.7993L61.0003 56.7986ZM60.212 58.552C60.0227 58.3026 60.0702 57.947 60.3189 57.7577C60.5683 57.5684 60.9231 57.6167 61.1132 57.8661C61.1473 57.9106 61.1733 57.9589 61.1919 58.0086C60.9951 57.8631 60.719 57.8579 60.5141 58.0138C60.3092 58.1697 60.2402 58.437 60.3278 58.6656C60.2847 58.6344 60.2454 58.5966 60.2112 58.552H60.212ZM60.8422 59.6077C60.5364 59.5386 60.3448 59.2357 60.4139 58.9299C60.4829 58.624 60.7865 58.4333 61.0916 58.5023C61.1466 58.5149 61.1971 58.5342 61.2438 58.5609C60.9996 58.5758 60.785 58.7495 60.7279 59.0004C60.6707 59.2521 60.7902 59.5008 61.004 59.6195C60.9506 59.6232 60.8964 59.6195 60.8415 59.6069L60.8422 59.6077ZM61.2401 59.7673C61.0968 59.4889 61.2067 59.1474 61.4851 59.0041C61.5356 58.9781 61.5868 58.9611 61.6395 58.9514C61.4621 59.1199 61.4094 59.3909 61.5274 59.6195C61.6454 59.8489 61.8971 59.9625 62.1369 59.9157C62.0983 59.9529 62.0545 59.9848 62.0047 60.0108C61.7264 60.154 61.3849 60.0456 61.2409 59.7673H61.2401ZM64.9474 66.5583C64.8428 66.6415 64.6936 66.6994 64.5748 66.7172C64.3781 66.758 64.1739 66.7491 63.972 66.7142C63.9438 66.7573 63.9133 66.8003 63.8911 66.8434C63.7508 67.1106 63.7292 67.4017 63.7923 67.6296C63.8532 67.8612 64.0017 68.0178 64.1487 68.1061C64.4523 68.2843 64.6743 68.2004 64.678 68.2361C64.6965 68.2472 64.4694 68.4053 64.0781 68.2427C63.8933 68.1633 63.6802 67.9807 63.5822 67.6971C63.4813 67.4187 63.4857 67.0602 63.6394 66.7224C63.6528 66.6942 63.6713 66.6675 63.6854 66.64C63.4835 66.5687 63.2875 66.47 63.1175 66.3282C62.6936 65.9912 62.4464 65.3839 62.5467 64.8145C62.5519 64.7789 62.5674 64.7462 62.5749 64.7114C62.2794 64.5228 62.0849 64.2377 61.9899 63.9623C61.8696 63.6149 61.8815 63.2697 61.9595 62.998C62.0352 62.7233 62.1621 62.5132 62.2809 62.3596C62.5251 62.0537 62.7219 61.955 62.7345 61.9721C62.7567 61.9966 62.5964 62.1361 62.4086 62.4457C62.2304 62.7456 62.0159 63.2831 62.2519 63.8643C62.3321 64.064 62.4739 64.2585 62.664 64.3936C62.8221 64.0031 63.1086 63.6728 63.4946 63.4939C63.6275 63.4375 63.7812 63.3974 63.9542 63.4256C64.1264 63.4538 64.2964 63.58 64.3602 63.7485C64.4768 64.0863 64.3461 64.3669 64.1605 64.5748C63.8094 64.9177 63.3306 64.9786 62.9379 64.8754C62.8659 65.3238 63.0418 65.7588 63.3684 66.0313C63.5251 66.1649 63.7092 66.2607 63.9 66.3186C64.0418 66.1463 64.2147 65.9875 64.4308 65.8494C64.5317 65.7922 64.6809 65.7417 64.8353 65.7766C64.9794 65.7989 65.159 65.9392 65.1709 66.1382C65.1798 66.346 65.0529 66.4759 64.9489 66.5583H64.9474Z" fill="#AF3830"/>
</svg>
