<svg width="80" height="80" viewBox="0 0 80 80" fill="none" xmlns="http://www.w3.org/2000/svg">
<path d="M45.4544 36.4435C42.1967 32.8682 38.298 29.5749 34.36 26.7795C33.9973 24.9966 32.9841 23.596 31.4693 22.6576C32.9346 23.4375 34.6776 23.7203 36.2715 23.2834C38.0196 22.8015 39.5292 21.3966 39.9762 19.6383C40.4181 17.8801 39.6782 15.8392 38.1235 14.9103C37.1895 14.3492 35.9088 14.1653 34.6521 14.2794C32.7747 14.448 30.1232 15.749 30.1232 15.749C29.0751 13.0823 25.872 11.8307 25.872 11.8307C22.5147 10.2069 17.9705 11.5378 14.683 13.296C11.3955 15.0542 8.24181 17.279 4.76026 18.62C4.53712 18.2377 3.96583 18.1483 3.59296 18.3918C3.22518 18.6404 3.06673 19.1267 3.14087 19.5635C3.21573 20.0003 3.49847 20.3826 3.84081 20.661C4.29799 22.0914 4.88891 23.0247 5.80763 24.2065C6.72635 25.3833 8.33048 26.1879 9.81032 25.9742C10.8482 27.0223 12.1049 27.8567 13.475 28.3975C14.369 28.75 15.5756 29.0582 16.2559 28.3727C18.8333 30.4086 21.4455 33.776 20.7848 36.9938C20.3676 38.9955 18.9474 40.609 17.0053 41.2399C14.8996 40.1867 12.9575 38.8065 11.264 37.1675C10.4645 36.3825 9.61044 35.4936 8.49765 35.3845C7.93145 35.3249 7.3805 35.4841 6.85355 35.7225C6.51557 35.8766 6.17832 36.0649 5.8556 36.2538C5.75602 36.3134 5.65717 36.3679 5.5576 36.4326C5.13531 36.6812 4.72319 36.9494 4.39539 37.307C3.98327 37.754 3.70998 38.3551 3.79938 38.9555C3.85389 39.3182 4.05232 39.6358 4.32561 39.8793C4.6585 39.6809 5.05535 39.4323 5.45802 39.1147C6.50103 38.3101 7.13629 37.416 7.26566 37.496C7.38995 37.5505 6.91315 38.6531 5.77565 39.5275C5.41805 39.8102 5.06044 40.0145 4.73264 40.1678C4.96595 40.2921 5.22398 40.3765 5.48782 40.3961C6.28225 40.4702 7.06724 40.1032 7.66324 39.5718C7.91182 39.3487 8.16476 39.0703 8.39807 38.7723C8.72079 38.3653 9.01371 37.9183 9.25211 37.5207C9.92734 38.7374 10.6026 39.9491 11.2734 41.1607C11.4028 41.3991 11.5366 41.6324 11.6659 41.8708C12.7039 43.7432 13.9751 45.7994 16.0611 46.2711C16.5081 46.375 16.9551 46.3707 17.397 46.2907C18.2264 46.1519 19.0361 45.7441 19.7905 45.263C20.1627 45.0297 20.5253 44.776 20.8735 44.5231C20.7696 44.9802 20.6845 45.4367 20.6053 45.8939C20.4461 46.8228 20.332 47.7611 20.2724 48.6995C20.1045 51.1736 20.2688 53.6703 20.763 56.1008C21.0814 57.6664 21.5364 59.2037 22.1251 60.6886C22.4202 61.4322 22.7487 62.1626 23.11 62.8764C23.2808 63.2137 24.2584 64.8599 24.3122 64.8403C23.7336 65.0569 22.9174 64.9493 22.3003 64.9326C21.9928 64.9239 21.6817 64.889 21.3823 64.8185C21.1264 64.7582 21.0443 64.6295 20.8582 64.4551C20.119 63.7624 19.3021 63.2471 18.2518 63.524C18.1922 63.5436 18.1377 63.5684 18.0781 63.5887C17.9887 63.9012 17.8099 64.4333 17.7059 65.0635C17.5373 66.0367 17.6216 66.8566 17.5024 66.8762C17.3985 66.906 17.115 66.057 17.2989 64.9988C17.3832 64.4674 17.562 64.0306 17.7357 63.7275C17.413 63.8911 17.1347 64.12 16.8912 64.3882C16.8214 64.5816 16.7574 64.7953 16.7124 65.0286C16.4892 66.0222 16.6876 66.8558 16.5735 66.8907C16.5241 66.9103 16.3998 66.717 16.3104 66.3594C16.2457 66.0912 16.2108 65.7234 16.2508 65.3215C15.9681 65.8281 15.7442 66.419 15.8532 66.9452C15.9724 67.5514 17.4675 67.4518 18.0287 67.4366C20.0551 67.3915 22.0808 67.3421 24.1021 67.2927C24.733 67.2781 25.3683 67.2629 25.989 67.3922C26.9077 67.5761 27.6876 68.0726 28.5118 68.4796C29.3811 68.9019 30.3195 69.0654 31.2629 69.2195C31.675 69.2893 32.0973 69.3634 32.5094 69.3983C32.673 69.4136 32.8423 69.4085 33.016 69.4085C32.8721 69.2893 32.7231 69.1505 32.569 68.9811C31.8189 68.162 31.0049 66.7315 30.8355 64.9886C30.6669 63.2405 31.1982 61.6858 31.779 60.7373C32.3597 59.7692 32.9361 59.3571 33.0059 59.4261C33.1054 59.5104 32.7129 60.0519 32.3059 61.0055C31.8989 61.949 31.5209 63.3598 31.6699 64.9086C31.8189 66.4532 32.4549 67.7644 33.0357 68.6133C33.418 69.1846 33.7654 69.5219 33.9297 69.7159C34.2771 70.0786 34.352 70.6892 34.7692 70.9821C34.1535 71.2307 33.463 71.1064 32.8176 71.1456C32.1126 71.1856 31.4075 71.2052 30.7018 71.1703C29.3215 71.1056 27.9304 70.8425 26.6838 70.2218C25.9984 69.8838 25.3632 69.4419 24.6778 69.1047C23.8484 68.7027 22.9246 68.4541 22.011 68.5385C21.6985 68.5683 21.4005 68.6424 21.1068 68.7471C20.9927 69.1294 20.7986 69.7305 20.6845 70.4406C20.481 71.6123 20.5806 72.5957 20.4359 72.6255C20.3117 72.6604 19.9693 71.637 20.1925 70.3563C20.2869 69.7799 20.4708 69.2936 20.6591 68.936C20.3015 69.1148 19.9635 69.3482 19.6655 69.6214C19.5812 69.8548 19.502 70.1128 19.4467 70.3912C19.1785 71.5934 19.4169 72.6015 19.2781 72.6458C19.2185 72.6604 19.0695 72.427 18.9656 72.0004C18.8711 71.6181 18.8362 71.0715 18.9307 70.4806C18.4938 71.1413 18.2307 71.9059 18.2307 72.6807C18.2307 73.0877 18.5534 73.4206 18.9561 73.4206C25.8145 73.5202 32.673 73.6191 39.5263 73.7135C40.847 73.7332 42.1982 73.7433 43.4345 73.2963C44.6759 72.8442 45.8033 71.831 45.9872 70.5249C46.1507 69.3576 45.3715 67.6147 44.0748 67.4606C44.3925 67.4111 44.7057 67.3363 45.0037 67.257C45.0488 67.2425 45.0931 67.2272 45.1375 67.2127C45.1571 67.2076 45.1775 67.2025 45.1971 67.1931C45.5053 67.0935 45.7931 67.0092 46.0664 66.93C46.1856 66.8602 48.0528 65.7329 49.1009 64.6804C49.1256 64.6506 49.1554 64.6259 49.1852 64.5961C49.1998 64.5816 49.215 64.5663 49.2296 64.5561C49.5676 64.2232 50.1483 63.6817 50.6549 62.9418C50.9129 62.5791 51.107 62.2215 51.2705 61.8937C51.5235 61.233 52.5767 58.591 52.5767 55.5317C52.5767 55.4423 52.5716 55.3529 52.5716 55.2635C53.0978 48.3753 50.1534 41.5866 45.45 36.4414L45.4544 36.4435ZM19.1335 65.4509C19.0739 66.31 18.746 66.946 18.6421 66.906C18.5331 66.866 18.6668 66.2206 18.7213 65.4211C18.786 64.6215 18.7511 63.9558 18.8652 63.9361C18.9743 63.9114 19.1981 64.5866 19.1335 65.4509ZM22.1978 70.889C22.1237 71.927 21.7312 72.6916 21.6069 72.6422C21.4731 72.5971 21.6316 71.8129 21.7014 70.8491C21.7762 69.8853 21.7363 69.0858 21.8751 69.0611C22.0045 69.0313 22.277 69.8504 22.1978 70.8883V70.889ZM50.346 49.2017C50.4005 49.6087 50.1272 49.9765 49.7355 50.031C49.343 50.0804 48.9854 49.8173 48.941 49.4401C48.8618 49.068 49.1147 48.7053 49.5021 48.6253C49.8845 48.5461 50.2668 48.8041 50.3467 49.2017H50.346ZM49.6708 46.346C49.7798 46.7385 49.5617 47.1353 49.1794 47.2349C48.7971 47.3345 48.4046 47.1208 48.3007 46.753C48.2062 46.3903 48.4046 45.9978 48.7724 45.8692C49.1496 45.7398 49.5668 45.9484 49.6715 46.346H49.6708ZM47.7141 43.2271C48.0717 43.0534 48.4889 43.2169 48.6525 43.5898C48.816 43.967 48.6525 44.3842 48.2847 44.5332C47.9169 44.6771 47.4953 44.5136 47.3463 44.1655C47.1923 43.818 47.3565 43.3957 47.7141 43.2271ZM46.7605 51.8983C47.153 51.8634 47.4903 52.1665 47.5157 52.5684C47.5353 52.9754 47.2424 53.3083 46.8405 53.3134C46.4581 53.3185 46.1151 53.0205 46.0955 52.6433C46.0707 52.266 46.3687 51.9332 46.7612 51.8983H46.7605ZM45.7975 49.9169C45.7182 49.5491 45.9661 49.1872 46.3484 49.1021C46.7307 49.0178 47.113 49.2708 47.1973 49.6683C47.2569 50.0703 46.9836 50.438 46.5962 50.4926C46.2088 50.5471 45.8512 50.289 45.7967 49.9162L45.7975 49.9169ZM46.3484 40.7239C46.6813 40.5153 47.1181 40.6294 47.3267 40.9768C47.5353 41.3293 47.4161 41.7662 47.0636 41.9551C46.7213 42.139 46.2888 42.0249 46.0904 41.6971C45.897 41.3693 46.0111 40.9376 46.3484 40.7239ZM46.4923 46.8322C46.6064 47.2247 46.3927 47.6216 46.0155 47.7262C45.6332 47.8302 45.2407 47.6223 45.1368 47.2596C45.0372 46.8969 45.2262 46.5044 45.5939 46.3758C45.9661 46.242 46.3884 46.4455 46.493 46.8329L46.4923 46.8322ZM33.66 53.8048C33.849 54.078 34.0874 54.376 34.3898 54.5149C34.6928 54.6486 35.1297 54.5592 35.2387 54.2416C35.3332 53.9683 35.1493 53.6754 34.956 53.4566C34.3156 52.7516 33.2777 52.1607 32.3888 51.8125C33.4812 51.8968 34.5395 52.3634 35.3288 53.1135C35.6217 53.3919 35.8899 53.7292 35.9495 54.1267C36.0193 54.6035 35.7511 55.1051 35.3237 55.3188C34.8964 55.5324 34.3403 55.4481 33.9878 55.1203C33.6353 54.7976 33.5059 54.2561 33.66 53.804V53.8048ZM33.4761 52.926C33.2232 52.628 32.915 52.4049 32.5472 52.2806C32.9245 52.3053 33.4165 52.6084 33.7443 52.7974C34.1368 53.0205 34.4995 53.3091 34.7575 53.6863C34.8273 53.7859 34.8913 53.9 34.9014 54.0243C34.9116 54.1536 34.852 54.2874 34.7379 54.3368C34.554 54.4109 34.3701 54.2372 34.256 54.0737C33.9878 53.6965 33.7741 53.2793 33.4761 52.9267V52.926ZM35.4727 52.7029C34.9414 52.4049 34.4399 52.0473 33.8788 51.7987C33.3228 51.5501 32.6817 51.4215 32.1009 51.6053C33.1287 51.2281 34.3607 51.2579 35.3637 51.6948C35.8899 51.9179 36.3617 52.2508 36.8981 52.4543C37.4294 52.6578 38.194 52.628 38.6759 52.3155C38.4477 52.8817 37.8117 53.2095 37.2062 53.2291C36.5957 53.2444 36.0041 53.0009 35.4727 52.7029ZM31.614 51.7042C31.5144 51.7936 31.3458 51.7885 31.2418 51.6991C31.1379 51.6148 31.103 51.4607 31.1473 51.3313C31.1873 51.2223 31.2716 51.138 31.3508 51.0486C31.4257 50.9643 31.4948 50.8553 31.4846 50.7404C31.4744 50.5616 31.2862 50.4475 31.1124 50.3981C30.8893 50.3385 30.6553 50.3283 30.427 50.3734C30.829 50.1451 31.2367 50.0703 31.6932 50.0056C31.9461 49.9707 32.2441 50.0107 32.3837 50.2193C32.4731 50.3581 32.4731 50.5522 32.3786 50.6859C32.3045 50.7949 32.1896 50.8792 32.061 50.8843C32.1802 50.8945 32.2994 50.9141 32.3989 50.9788C32.5232 51.058 32.6025 51.2223 32.5429 51.356C32.4978 51.4505 32.3989 51.5 32.2994 51.5247C32.0762 51.5741 31.7928 51.505 31.6336 51.3408C31.7281 51.4353 31.7179 51.609 31.614 51.7035V51.7042ZM30.7498 53.6012C31.0281 53.8593 31.2069 54.4109 31.3356 54.7635C31.4897 55.1908 31.5842 55.6422 31.5442 56.0943C31.5297 56.2186 31.5093 56.3472 31.4352 56.4519C31.3603 56.5515 31.2266 56.6205 31.1074 56.5813C30.9184 56.5217 30.8937 56.2687 30.9089 56.0696C30.9489 55.608 31.0478 55.1559 31.0478 54.6893C31.0427 54.3019 30.9533 53.9298 30.7498 53.602V53.6012ZM29.9946 48.8884C29.935 49.1116 29.9248 49.3456 29.9648 49.5738C29.7416 49.1719 29.6617 48.7641 29.597 48.3077C29.5817 48.174 29.5868 48.025 29.6268 47.8956C28.8171 47.1905 28.2509 46.1424 28.1317 45.0798C28.067 44.5136 28.1121 43.9329 28.0227 43.3717C27.9333 42.8055 27.5262 42.1601 27.0145 41.9021C27.6207 41.8127 28.2211 42.2001 28.5394 42.7212C28.8571 43.238 28.9414 43.8682 28.9516 44.4794C28.9566 45.09 28.897 45.7063 28.9661 46.3118C29.0257 46.8882 29.2241 47.474 29.6268 47.8861C29.6617 47.7771 29.7213 47.6775 29.8158 47.6179C29.9546 47.5285 30.1436 47.5285 30.2773 47.623C30.3863 47.6979 30.4707 47.812 30.4757 47.9356C30.491 47.8164 30.5106 47.7022 30.5753 47.6027C30.6545 47.4784 30.8188 47.3991 30.9475 47.4587C31.0419 47.5038 31.0965 47.6027 31.1161 47.7022C31.1706 47.9254 31.0965 48.2088 30.9322 48.368C31.0267 48.2735 31.2055 48.2837 31.2949 48.3876C31.3843 48.4872 31.3792 48.6558 31.2949 48.7598C31.2106 48.8637 31.0514 48.8986 30.9227 48.8543C30.8137 48.8143 30.7338 48.73 30.6444 48.6508C30.555 48.5759 30.451 48.5068 30.3362 48.517C30.1523 48.5272 30.0433 48.7154 29.9938 48.8892L29.9946 48.8884ZM30.1588 50.2142C30.1588 50.4075 29.9997 50.5616 29.8063 50.5616C29.613 50.5616 29.4589 50.4075 29.4589 50.2142C29.4589 50.0208 29.613 49.8617 29.8063 49.8617C29.9997 49.8617 30.1588 50.0208 30.1588 50.2142ZM24.1792 48.2328C23.8463 48.2081 23.469 48.4465 23.4741 48.7794C23.4792 49.0723 23.7525 49.2809 24.0105 49.4197C24.85 49.8668 26.0319 50.0652 26.9804 50.0855C25.9272 50.3835 24.7752 50.3043 23.7721 49.8668C23.4043 49.7076 23.0373 49.4844 22.8432 49.1268C22.615 48.7096 22.6942 48.1434 23.0271 47.796C23.3549 47.4486 23.9059 47.3388 24.3478 47.5227C24.7897 47.7066 25.0979 48.1732 25.1073 48.65C24.834 48.4567 24.5113 48.2575 24.1784 48.2328H24.1792ZM25.5798 49.4103C25.9177 49.6036 26.2848 49.7134 26.6773 49.7032C26.3095 49.8072 25.7433 49.693 25.3763 49.6284C24.9292 49.5491 24.4924 49.4052 24.1196 49.1414C24.0156 49.0665 23.916 48.9822 23.8615 48.8681C23.8121 48.754 23.8215 48.605 23.9109 48.5207C24.06 48.3869 24.2933 48.4858 24.4575 48.5999C24.8348 48.8681 25.1829 49.1806 25.5798 49.4096V49.4103ZM25.0637 47.4384C24.6465 47.0459 24.3136 46.5742 23.8819 46.197C23.4501 45.8248 22.7248 45.5959 22.1636 45.7202C22.5707 45.263 23.2808 45.1736 23.8572 45.3676C24.4379 45.561 24.9053 45.9934 25.3072 46.455C25.7048 46.9165 26.0522 47.4231 26.4941 47.8454C26.931 48.2677 27.4921 48.6101 28.0983 48.6399C27.0058 48.6399 25.8581 48.1929 25.0637 47.4384ZM27 23.854C26.7514 23.8046 26.5726 23.5713 26.5232 23.3227C26.4738 23.0792 26.5334 22.8212 26.6126 22.5879C26.6969 22.3494 26.8059 22.1212 26.8655 21.8777C26.9251 21.6342 26.9353 21.366 26.8161 21.1429C27.0443 21.5303 27.1192 22.0318 27.0145 22.4686C26.96 22.6969 26.8605 22.9157 26.8161 23.1439C26.7718 23.3772 26.8408 23.6803 27 23.854ZM26.106 18.3213C26.0711 18.1876 26.0217 18.0386 25.9221 17.9441C25.8225 17.8496 25.6437 17.8249 25.5594 17.9296C25.4802 18.024 25.51 18.1629 25.5543 18.2719C25.7033 18.6346 26.021 19.0067 26.3139 19.2698C25.9068 19.0809 25.5638 18.7531 25.3653 18.3511C25.2912 18.2021 25.2316 18.0335 25.2658 17.8743C25.3057 17.681 25.4795 17.5218 25.6728 17.5022C25.8712 17.4775 26.0747 17.5916 26.1641 17.7653C26.2535 17.939 26.2288 18.1672 26.1045 18.3213H26.106ZM26.3248 19.0663C26.1809 19.0016 26.0319 18.8177 25.9323 18.6985C25.8131 18.5546 25.7135 18.3955 25.6641 18.2116C25.6539 18.1621 25.6445 18.1076 25.6539 18.0575C25.6684 18.0081 25.7135 17.963 25.7629 17.963C25.8472 17.9579 25.8923 18.0524 25.9119 18.1316C25.9614 18.3155 25.9861 18.5038 26.0558 18.6826C26.1104 18.8316 26.1947 18.9653 26.324 19.0649L26.3248 19.0663ZM25.7389 19.0663C25.9177 19.24 26.1511 19.3789 26.3996 19.389C25.9475 19.389 25.4758 19.2052 25.1531 18.8977C24.9794 18.7342 24.8449 18.5401 24.6661 18.386C24.4873 18.2319 24.1893 18.1374 23.9611 18.1927C24.1246 18.0037 24.4183 17.9644 24.6567 18.0437C24.8951 18.1229 25.0884 18.3017 25.2527 18.4907C25.4162 18.684 25.5609 18.8926 25.7397 19.0671L25.7389 19.0663ZM24.7853 19.2255C24.6516 19.2153 24.4975 19.3098 24.4975 19.4486C24.4975 19.5678 24.6116 19.6572 24.7163 19.7118C25.0637 19.8956 25.5507 19.9749 25.9432 19.985C25.5064 20.1093 25.0346 20.0744 24.6225 19.8956C24.4684 19.831 24.3194 19.7365 24.2402 19.5926C24.1457 19.4188 24.1806 19.1855 24.3151 19.0416C24.4488 18.9028 24.6778 18.8577 24.8617 18.9326C25.0405 19.0075 25.1698 19.2008 25.1698 19.3941C25.0608 19.3149 24.9263 19.235 24.7875 19.2255H24.7853ZM25.3661 19.7074C25.5049 19.7866 25.6539 19.8317 25.8131 19.8266C25.6641 19.8709 25.4308 19.8215 25.2767 19.7968C25.0928 19.767 24.914 19.7074 24.7599 19.5984C24.7199 19.5686 24.6807 19.5337 24.656 19.4843C24.6363 19.4392 24.6407 19.3752 24.6756 19.3403C24.7403 19.2858 24.8348 19.3302 24.8987 19.3752C25.0579 19.4843 25.1967 19.6136 25.3653 19.7081L25.3661 19.7074ZM24.6211 20.0745C24.8696 20.1144 25.1124 20.1835 25.3661 20.2038C25.6045 20.2191 25.8574 20.1791 26.0566 20.0403C26.0515 20.0352 26.0369 20.0352 26.0319 20.025C25.997 19.9705 25.997 19.8913 26.0369 19.836C26.0667 19.7961 26.1111 19.7619 26.1561 19.7517C26.1111 19.7466 26.0617 19.7365 26.0268 19.7118C25.9773 19.682 25.9425 19.6122 25.9672 19.5577C25.9868 19.5228 26.0268 19.4981 26.0711 19.4879C26.1605 19.4683 26.2746 19.4981 26.3444 19.5671C26.3044 19.5271 26.3095 19.453 26.3495 19.4181C26.3946 19.3781 26.4585 19.3832 26.5036 19.4181C26.5486 19.453 26.5632 19.5177 26.5436 19.5671C26.529 19.6115 26.489 19.6463 26.4592 19.6863C26.4294 19.7212 26.3996 19.7655 26.4047 19.8106C26.4098 19.8855 26.484 19.9298 26.5588 19.9494C26.6482 19.9792 26.7478 19.9792 26.8372 19.964C26.6737 20.0585 26.5043 20.0883 26.3204 20.113C26.2259 20.1282 26.122 20.1079 26.0573 20.0432C25.715 20.3216 25.2476 20.4749 24.8108 20.4502C24.5724 20.4357 24.3441 20.3761 24.1108 20.371C23.8724 20.3659 23.5846 20.4851 23.4407 20.6741C23.4509 20.4212 23.6493 20.2075 23.8826 20.1181C24.1159 20.0236 24.379 20.0337 24.6225 20.0737L24.6211 20.0745ZM26.3793 21.7927C26.4832 21.6684 26.553 21.5296 26.5777 21.3704C26.593 21.5245 26.5028 21.7476 26.4534 21.8915C26.3887 22.0653 26.2993 22.2339 26.1656 22.3633C26.1307 22.4032 26.0864 22.4374 26.0362 22.4476C25.9868 22.4628 25.9272 22.4476 25.9025 22.4025C25.8574 22.3327 25.9127 22.2484 25.9723 22.1888C26.106 22.0551 26.2601 21.9359 26.3793 21.7912V21.7927ZM25.9127 20.7402C25.8283 20.8696 25.6197 20.9786 25.4853 21.0579C25.3217 21.1523 25.1473 21.2214 24.959 21.2367C24.9096 21.2417 24.8551 21.2417 24.81 21.217C24.7606 21.1974 24.7257 21.1473 24.7308 21.0978C24.741 21.0135 24.8449 20.9837 24.9242 20.9786C25.1131 20.9641 25.3065 20.9685 25.4904 20.9343C25.6495 20.9096 25.7935 20.8449 25.9127 20.741V20.7402ZM24.6065 20.6654C24.7955 20.6058 25.0136 20.6705 25.1429 20.8195C25.0041 20.8296 24.85 20.8543 24.741 20.9336C24.6269 21.0179 24.5724 21.1865 24.6618 21.2912C24.741 21.3857 24.8805 21.3806 24.9998 21.3559C25.3821 21.2715 25.8094 21.023 26.1118 20.7795C25.8589 21.1473 25.4758 21.43 25.0441 21.5594C24.8849 21.6037 24.7112 21.6292 24.5571 21.5696C24.3732 21.4998 24.2489 21.3013 24.2591 21.1029C24.2736 20.9045 24.4183 20.7257 24.6065 20.6661V20.6654ZM24.6211 22.2004C24.7403 21.9817 24.9489 21.8232 25.1626 21.6938C25.3763 21.5645 25.6096 21.4605 25.8131 21.3115C26.0115 21.1625 26.1903 20.9641 26.2448 20.7206C26.17 21.1625 25.9068 21.595 25.5449 21.8625C25.3559 22.0013 25.1379 22.106 24.959 22.2499C24.7752 22.3989 24.6312 22.6773 24.6414 22.9106C24.4873 22.7172 24.4975 22.4236 24.6218 22.2004H24.6211ZM25.5253 22.1554C25.6343 21.9918 25.8429 21.9024 26.0369 21.9322C25.9425 22.0267 25.8385 22.1459 25.8036 22.2746C25.7687 22.4083 25.8385 22.5777 25.9723 22.6024C26.0915 22.622 26.1954 22.5232 26.2703 22.4287C26.5138 22.1205 26.6773 21.659 26.7522 21.2715C26.7972 21.7236 26.6824 22.1801 26.4345 22.5581C26.3451 22.6969 26.2259 22.8313 26.0718 22.8808C25.8829 22.9455 25.6597 22.8706 25.5456 22.7121C25.4264 22.553 25.4213 22.3247 25.526 22.1561L25.5253 22.1554ZM26.9012 21.0927C26.8612 21.068 26.8263 21.023 26.8168 20.9735C26.8118 21.0179 26.8023 21.0629 26.7769 21.1029C26.7471 21.1523 26.6773 21.1872 26.6228 21.1625C26.5879 21.1429 26.5632 21.1029 26.553 21.0629C26.5334 20.9685 26.5632 20.8543 26.6322 20.7897C26.5922 20.8296 26.5181 20.8245 26.4832 20.7795C26.4432 20.7395 26.4432 20.6705 26.4832 20.6254C26.5181 20.5854 26.5828 20.5709 26.6322 20.5905C26.6773 20.605 26.7115 20.6399 26.7463 20.6697C26.7863 20.6995 26.8307 20.7293 26.8757 20.7293C26.9506 20.7242 26.9949 20.645 27.0145 20.5752C27.0393 20.4808 27.0443 20.3863 27.0298 20.2925C27.1192 20.456 27.1541 20.6254 27.1788 20.8136C27.1933 20.9176 27.1788 21.0368 27.0894 21.0964C27.0349 21.1313 26.9557 21.1313 26.9004 21.0913L26.9012 21.0927ZM27.0996 20.1842C27.0204 20.1842 26.9557 20.1195 26.9557 20.0403C26.9557 19.9611 27.0204 19.8964 27.0996 19.8964C27.1839 19.8964 27.2486 19.9611 27.2486 20.0403C27.2486 20.1195 27.1839 20.1842 27.0996 20.1842ZM27.4376 22.2055C27.423 22.3393 27.423 22.4984 27.4826 22.6227C27.5422 22.747 27.7014 22.8313 27.8206 22.7616C27.9245 22.6969 27.9449 22.5581 27.9398 22.4388C27.9253 22.0464 27.7508 21.5848 27.5677 21.2417C27.8853 21.5543 28.0939 21.9817 28.1484 22.4287C28.1629 22.5922 28.1629 22.771 28.0735 22.9106C27.9696 23.0792 27.7559 23.1686 27.5619 23.1243C27.3685 23.0748 27.2195 22.9011 27.1941 22.7071C27.1694 22.5137 27.2689 22.3051 27.4376 22.2055ZM28.1673 20.3528C28.2167 20.3877 28.2516 20.4524 28.2269 20.5069C28.2073 20.5469 28.1673 20.5665 28.1273 20.5767C28.0328 20.6014 27.9187 20.5665 27.854 20.5026C27.894 20.5425 27.8889 20.6116 27.8439 20.6516C27.8039 20.6864 27.7348 20.6864 27.6898 20.6516C27.6498 20.6167 27.6353 20.552 27.6498 20.4975C27.6694 20.4524 27.7043 20.4182 27.7341 20.3834C27.7639 20.3485 27.7937 20.3041 27.7937 20.254C27.7886 20.1791 27.7094 20.1348 27.6396 20.1152C27.5451 20.0904 27.4506 20.0854 27.3569 20.105C27.5204 20.0105 27.6898 19.9807 27.878 19.9509C27.982 19.9356 28.1012 19.956 28.1608 20.0403C28.1957 20.0999 28.1957 20.174 28.1557 20.2336C28.1259 20.2787 28.0764 20.3129 28.0219 20.3129C28.0714 20.3179 28.1259 20.3274 28.1659 20.3528H28.1673ZM27.4921 21.4307C27.6011 21.5398 27.676 21.7636 27.7305 21.9075C27.7952 22.0863 27.8344 22.2702 27.8148 22.4585C27.8097 22.5079 27.8003 22.5624 27.7705 22.6024C27.7407 22.6424 27.6861 22.6722 27.6367 22.6569C27.5619 22.6322 27.5473 22.5275 27.5575 22.4483C27.572 22.255 27.612 22.0711 27.612 21.877C27.612 21.7178 27.5771 21.5645 27.4928 21.43L27.4921 21.4307ZM28.0379 21.6292C27.9289 21.406 27.7596 21.1974 27.5262 21.0978C27.9536 21.2519 28.3308 21.5848 28.5344 21.9918C28.6383 22.2004 28.6979 22.4287 28.8127 22.6322C28.9268 22.8408 29.1754 23.0298 29.4087 23.0596C29.19 23.1788 28.9021 23.1141 28.7088 22.96C28.5104 22.8008 28.3912 22.5726 28.3018 22.3342C28.2124 22.1009 28.1477 21.8574 28.0387 21.6292H28.0379ZM28.2269 20.8892C28.3861 20.8994 28.5845 21.023 28.7182 21.1029C28.8818 21.1923 29.0308 21.3115 29.1355 21.4656C29.1653 21.51 29.1951 21.555 29.1951 21.6044C29.2001 21.659 29.1754 21.7135 29.1304 21.7338C29.0511 21.7636 28.9763 21.6938 28.9319 21.6248C28.8229 21.4707 28.7335 21.3021 28.6092 21.1531C28.5053 21.0339 28.381 20.9394 28.2269 20.89V20.8892ZM29.3688 22.1358C29.1951 22.2252 28.9668 22.1903 28.8178 22.0565C28.6739 21.9228 28.6245 21.6989 28.6884 21.515C28.7633 21.6292 28.8622 21.7484 28.9865 21.808C29.1107 21.8625 29.2895 21.8225 29.3339 21.6938C29.3739 21.5797 29.299 21.4605 29.2198 21.3711C28.9566 21.0833 28.5293 20.8398 28.1622 20.6959C28.6143 20.7308 29.0461 20.9241 29.3739 21.2323C29.4931 21.3464 29.6021 21.4852 29.6268 21.6495C29.6566 21.8428 29.5476 22.0514 29.3688 22.1365V22.1358ZM27.0647 31.174C27.3176 31.1689 27.5764 31.174 27.8097 31.2932C28.0379 31.4175 28.2371 31.6951 28.2022 31.9786C28.1724 32.2017 28.0132 32.3762 27.8301 32.4452C27.6462 32.515 27.4477 32.4997 27.2537 32.4648C26.5835 32.3355 25.9577 31.9582 25.3021 31.7395C24.7904 31.5657 24.2889 31.5461 23.7823 31.7046C24.81 30.9792 26.4738 31.1732 27.0647 31.1732V31.174ZM26.2804 28.6213C26.2354 28.4723 27.4921 28.0355 28.6492 26.9525C29.8259 25.8899 30.3624 24.6731 30.5063 24.7378C30.571 24.7575 30.5164 25.1005 30.2875 25.6071C30.0593 26.1086 29.6268 26.7643 29.001 27.3406C28.3752 27.917 27.6898 28.2892 27.1686 28.473C26.6475 28.662 26.2993 28.6867 26.2797 28.622L26.2804 28.6213ZM26.4389 33.7368C26.6475 33.8756 26.8612 34.0246 26.9804 34.2579C27.0996 34.4913 27.0996 34.8292 26.9106 35.0473C26.7616 35.2108 26.5283 35.261 26.3393 35.2159C26.1503 35.1708 25.9919 35.0422 25.8523 34.8983C25.3755 34.4113 25.0826 33.7462 24.6705 33.1902C24.3478 32.7585 23.9451 32.4554 23.4436 32.2962C24.7003 32.2911 25.9512 33.3988 26.4382 33.7361L26.4389 33.7368ZM24.9394 36.3738C25.0688 36.6565 25.2076 36.9596 25.188 37.2874C25.1684 37.6152 24.9496 37.9873 24.6073 38.0971C24.3391 38.1814 24.0563 38.0869 23.8775 37.9183C23.7038 37.7446 23.6144 37.5062 23.5548 37.2627C23.3513 36.4232 23.4603 35.5146 23.3658 34.6453C23.291 33.965 23.0533 33.3843 22.6106 32.8871C23.9764 33.6866 24.6218 35.6927 24.9394 36.373V36.3738ZM21.9201 32.475C21.3837 32.475 20.9469 32.0382 20.9469 31.5018C20.9469 30.9654 21.3837 30.5235 21.9201 30.5235C22.4566 30.5235 22.8985 30.9603 22.8985 31.5018C22.8985 32.0433 22.4616 32.475 21.9201 32.475ZM21.1301 38.1712C21.2544 37.1776 21.7014 36.2495 21.9449 35.2762C22.1338 34.5116 22.1287 33.7717 21.8954 33.0216C22.889 34.5465 22.74 37.0141 22.7793 37.8936C22.7989 38.2657 22.8142 38.6531 22.6702 38.9962C22.5314 39.3436 22.1833 39.6322 21.8111 39.582C21.5233 39.542 21.2943 39.3036 21.1904 39.0311C21.0865 38.7629 21.0959 38.4598 21.1308 38.172L21.1301 38.1712ZM27.3823 46.0378C27.3031 45.7151 27.1788 45.3524 26.9404 45.1191C26.702 44.8857 26.2652 44.8261 26.0515 45.0842C25.8676 45.3124 25.9425 45.6504 26.0515 45.9186C26.4091 46.8024 27.1839 47.7117 27.8991 48.3419C26.9012 47.8898 26.0718 47.0902 25.5798 46.1119C25.401 45.7492 25.2621 45.3422 25.3465 44.9446C25.4409 44.478 25.8632 44.0957 26.34 44.0404C26.8168 43.9859 27.3133 44.2592 27.532 44.6859C27.7508 45.1082 27.6861 45.6642 27.383 46.0363L27.3823 46.0378ZM27.9136 47.8505C27.5662 47.6964 27.2035 47.2443 26.9651 46.9565C26.6722 46.6091 26.4287 46.2166 26.3146 45.7747C26.2797 45.6555 26.2601 45.5261 26.295 45.4025C26.3248 45.2833 26.4287 45.1743 26.553 45.1692C26.7514 45.1641 26.8655 45.388 26.9208 45.5813C27.04 46.0283 27.0996 46.4899 27.2588 46.9223C27.3925 47.2901 27.6062 47.6078 27.9144 47.8512L27.9136 47.8505ZM31.4897 38.9809C31.4548 38.7723 31.3857 38.5237 31.4548 38.1916C31.4948 38.028 31.5791 37.8587 31.7077 37.73C31.8371 37.6007 31.9956 37.5214 32.1446 37.472C32.4476 37.3775 32.7253 37.3877 32.9891 37.4073C33.2275 37.432 33.471 37.4567 33.7145 37.4865C34.2015 37.5461 34.6783 37.6007 35.1348 37.6603C35.5818 37.725 35.959 37.725 36.148 37.5607C36.3515 37.4117 36.4358 37.0693 36.3711 36.8011C36.3115 36.5329 36.1131 36.2945 35.8892 36.131C35.4371 35.7981 34.9211 35.7189 34.578 35.6491C34.2306 35.5793 34.0314 35.535 34.0314 35.4805C34.0365 35.4311 34.2298 35.3809 34.5976 35.3562C34.7815 35.3511 35.0097 35.346 35.283 35.386C35.5462 35.426 35.8638 35.5052 36.177 35.6942C36.4852 35.8781 36.813 36.1761 36.962 36.6376C37.0318 36.8709 37.0463 37.1195 36.9969 37.3724C36.9424 37.6254 36.8181 37.8892 36.5899 38.0876C36.3617 38.2861 36.0687 38.3755 35.8005 38.4002C35.5323 38.43 35.2838 38.4053 35.0504 38.3806C34.5933 38.3311 34.1165 38.2766 33.6302 38.2214C33.1432 38.172 32.6519 38.0724 32.3641 38.1618C32.2252 38.2061 32.1802 38.2614 32.1453 38.3602C32.1104 38.4692 32.13 38.6531 32.1649 38.8668C32.2492 39.3138 32.21 39.8255 32.0108 40.2274C31.8218 40.6396 31.4548 40.9427 31.087 41.0568C30.7149 41.1811 30.3275 41.1309 30.0593 40.9623C29.7911 40.7886 29.6522 40.5553 29.5977 40.3561C29.5381 40.1526 29.5628 39.984 29.5977 39.8895C29.6326 39.7855 29.682 39.7456 29.7017 39.7557C29.7562 39.771 29.7067 39.9789 29.8652 40.2471C29.9401 40.3765 30.0738 40.5204 30.2526 40.5945C30.4314 40.6694 30.6749 40.6694 30.9031 40.5647C31.385 40.3714 31.6728 39.7201 31.4889 38.9802L31.4897 38.9809ZM33.064 31.4822C33.2777 31.1493 33.7196 31.0599 34.0525 31.2786C34.3854 31.4974 34.4646 31.9539 34.2415 32.2722C34.0133 32.5949 33.5808 32.6698 33.2581 32.4612C32.9404 32.2526 32.8561 31.8107 33.0647 31.4829L33.064 31.4822ZM38.8743 39.5624C38.8293 39.364 38.6854 39.1852 38.5218 39.066C38.1838 38.8174 37.8066 38.7578 37.5537 38.7084C37.2956 38.6589 37.1466 38.624 37.1466 38.5841C37.1517 38.5441 37.2956 38.5099 37.5689 38.4947C37.7027 38.4845 37.872 38.4845 38.0705 38.5143C38.2689 38.539 38.5022 38.6037 38.7362 38.7374C38.9645 38.8763 39.208 39.095 39.317 39.4425C39.3664 39.6111 39.3766 39.795 39.3366 39.984C39.3017 40.1678 39.2072 40.3612 39.0386 40.5102C38.87 40.6592 38.6512 40.7239 38.4579 40.7435C38.2594 40.7631 38.0705 40.7435 37.9018 40.7282C37.5595 40.6883 37.2113 40.649 36.8486 40.609C36.491 40.5742 36.1233 40.5 35.9147 40.5691C35.8107 40.5989 35.7758 40.6388 35.7511 40.713C35.7264 40.7922 35.7409 40.9318 35.7657 41.0851C35.8253 41.418 35.8005 41.7952 35.6515 42.0932C35.5127 42.4014 35.2394 42.6246 34.9661 42.7089C34.6928 42.7983 34.405 42.7634 34.2066 42.6347C34.0082 42.5104 33.9086 42.3367 33.8642 42.1877C33.8199 42.0387 33.8395 41.9144 33.8642 41.8403C33.8941 41.7662 33.9289 41.7407 33.9435 41.7458C33.9835 41.756 33.9486 41.9094 34.0627 42.1085C34.1172 42.203 34.2168 42.312 34.3505 42.3665C34.4842 42.421 34.663 42.421 34.8324 42.3418C35.19 42.1979 35.4037 41.7211 35.2692 41.1702C35.2394 41.0212 35.19 40.8322 35.2394 40.5894C35.2692 40.4651 35.3339 40.3459 35.4284 40.2471C35.5229 40.1526 35.6421 40.093 35.7511 40.0537C35.9743 39.984 36.1829 39.9941 36.3718 40.0087C36.5506 40.0239 36.7294 40.0486 36.9133 40.0683C37.2709 40.1082 37.6234 40.1526 37.9614 40.1926C38.2943 40.242 38.572 40.242 38.7115 40.1228C38.8605 40.0087 38.9252 39.7601 38.8751 39.5617L38.8743 39.5624ZM41.5316 42.4676C41.4873 42.2888 41.3427 42.1252 41.1842 42.0104C40.8666 41.7822 40.4988 41.7226 40.2604 41.6724C40.0118 41.623 39.873 41.5881 39.873 41.5532C39.873 41.5183 40.0118 41.4885 40.2706 41.4783C40.4 41.4732 40.5584 41.4732 40.7474 41.503C40.9364 41.5328 41.1595 41.5924 41.3834 41.7218C41.6022 41.8461 41.8355 42.0496 41.9445 42.3673C41.999 42.5213 42.0092 42.69 41.9794 42.8586C41.9445 43.0272 41.8602 43.2009 41.701 43.3303C41.5418 43.4641 41.3383 43.5193 41.1501 43.5338C40.9611 43.5484 40.7874 43.5287 40.6238 43.5091C40.3011 43.4691 39.9682 43.4299 39.6259 43.3899C39.2835 43.3499 38.9354 43.2758 38.737 43.3354C38.6374 43.3601 38.6076 43.395 38.5829 43.4648C38.5632 43.5346 38.5778 43.6632 38.6025 43.8028C38.6672 44.1059 38.6468 44.4482 38.5131 44.7164C38.3837 44.9897 38.1308 45.1881 37.8728 45.263C37.6147 45.3378 37.3414 45.303 37.1474 45.1837C36.9584 45.0696 36.8595 44.9054 36.8145 44.7716C36.7701 44.6379 36.7847 44.5231 36.8094 44.4591C36.8341 44.3893 36.869 44.3646 36.8843 44.3697C36.9242 44.3842 36.8893 44.5187 37.0035 44.7026C37.058 44.792 37.1525 44.8916 37.2818 44.941C37.4061 44.9955 37.5748 44.9955 37.739 44.9308C38.077 44.8014 38.2703 44.3748 38.1315 43.8733C38.1068 43.7344 38.0523 43.5651 38.0966 43.3419C38.1213 43.2329 38.1809 43.1232 38.2703 43.0389C38.3597 42.9495 38.4688 42.8949 38.5734 42.8651C38.7871 42.8055 38.9805 42.8157 39.1643 42.8303C39.333 42.855 39.5023 42.8753 39.676 42.8949C40.0184 42.94 40.3513 42.9843 40.674 43.0287C40.9916 43.0781 41.2547 43.0832 41.3841 42.9742C41.5229 42.8746 41.5825 42.6464 41.5331 42.4676H41.5316ZM35.9197 50.6416C36.2425 50.5522 36.5157 50.2047 36.3965 49.8915C36.2926 49.6182 35.9648 49.5091 35.6763 49.4692C34.7328 49.3398 33.5553 49.5586 32.6519 49.8617C33.5408 49.2213 34.6536 48.903 35.746 48.9677C36.148 48.9924 36.5703 49.0767 36.8683 49.3449C37.231 49.6625 37.3451 50.2193 37.1561 50.6612C36.9628 51.098 36.4859 51.3909 36.0041 51.3713C35.5273 51.3466 35.0802 51.0137 34.9065 50.5667C35.2292 50.6612 35.6021 50.7302 35.9197 50.6416ZM34.2015 50.0158C33.8192 49.9511 33.4369 49.9707 33.0742 50.1197C33.3773 49.8915 33.9529 49.8072 34.3207 49.7425C34.7677 49.6632 35.2293 49.648 35.6712 49.7723C35.7904 49.8021 35.9147 49.8464 35.999 49.9409C36.0884 50.0303 36.1327 50.1691 36.0731 50.2832C35.9786 50.4569 35.7257 50.4424 35.5367 50.3923C35.0897 50.2731 34.658 50.0943 34.2008 50.015L34.2015 50.0158ZM35.5869 48.5606C34.9858 48.6747 34.3752 48.7198 33.7894 48.8884C33.1985 49.0571 32.6272 49.3703 32.2994 49.8864C32.846 48.9379 33.8039 48.1681 34.852 47.8549C35.403 47.6913 35.9793 47.6412 36.5208 47.4529C37.0572 47.264 37.6234 46.753 37.7921 46.2064C37.9811 46.7872 37.7078 47.4428 37.2506 47.8505C36.7934 48.2525 36.1879 48.4465 35.5869 48.5606ZM31.3458 48.4414C31.1524 47.3635 31.3952 46.157 31.9963 45.2434C32.3139 44.7665 32.7217 44.3544 33.0146 43.8674C33.3075 43.3761 33.4071 42.6209 33.1883 42.0896C33.7051 42.4123 33.918 43.0926 33.8286 43.6988C33.7392 44.2999 33.3969 44.8414 33.0095 45.3131C32.6272 45.7848 32.1853 46.2173 31.8473 46.7232C31.5049 47.2298 31.2665 47.8352 31.3458 48.4414ZM33.3969 45.5268C33.7196 45.2833 34.0968 45.0798 34.4995 45.09C34.9814 45.1045 35.4284 45.4527 35.5621 45.9142C35.701 46.3714 35.5171 46.9078 35.1398 47.1956C34.7575 47.4885 34.2015 47.5183 33.7843 47.285C34.0874 47.1513 34.4203 46.9674 34.6085 46.6941C34.7975 46.4157 34.7772 45.9738 34.4893 45.8103C34.2313 45.6664 33.9129 45.8001 33.6651 45.9542C32.8605 46.4608 32.0959 47.3846 31.5994 48.1943C31.8727 47.1368 32.5181 46.1781 33.3969 45.5275V45.5268ZM32.806 47.0314C33.0938 46.6839 33.4369 46.3758 33.8541 46.1868C33.9682 46.1323 34.0925 46.0923 34.2168 46.1025C34.3411 46.1126 34.4653 46.197 34.4951 46.3212C34.5351 46.5146 34.3316 46.6636 34.1528 46.7486C33.7305 46.9471 33.2886 47.0866 32.8867 47.3199C32.5487 47.5133 32.2761 47.7771 32.0922 48.1194C32.1765 47.7517 32.5639 47.3199 32.8074 47.0321L32.806 47.0314ZM29.9502 43.3514C30.3224 43.0534 30.8937 43.0338 31.2912 43.302C31.6932 43.5651 31.8974 44.0913 31.7928 44.5587C31.6837 45.0253 31.2811 45.4076 30.8094 45.497C30.9584 45.199 31.0921 44.8465 31.0623 44.5136C31.0274 44.1807 30.7294 43.8529 30.4016 43.9125C30.1138 43.967 29.9546 44.2701 29.8652 44.5529C29.5723 45.457 29.5825 46.6534 29.7213 47.5925C29.2496 46.6091 29.1253 45.457 29.3789 44.3944C29.4734 44.0019 29.6319 43.6051 29.9502 43.3514ZM30.0498 47.2247C29.8812 46.8867 29.9008 46.306 29.8957 45.9288C29.8957 45.4767 29.9655 45.0202 30.1588 44.6081C30.2134 44.494 30.278 44.385 30.382 44.3101C30.4859 44.2403 30.6349 44.2258 30.7345 44.2999C30.8886 44.4242 30.829 44.6677 30.7447 44.8465C30.5513 45.2688 30.3028 45.6613 30.1436 46.0981C30.0142 46.4659 29.9699 46.8431 30.0491 47.2254L30.0498 47.2247ZM38.2587 48.2677C38.0995 48.0991 38.045 47.905 38.045 47.7466C38.0399 47.5925 38.085 47.4733 38.1293 47.4042C38.1737 47.3345 38.2136 47.3148 38.2289 47.325C38.2689 47.3446 38.194 47.4885 38.2536 47.7124C38.2834 47.8163 38.3532 47.9457 38.4673 48.03C38.5763 48.1093 38.75 48.1492 38.9339 48.1093C39.3163 48.0395 39.6441 47.6077 39.6491 47.0314C39.6637 46.8773 39.6637 46.6789 39.7734 46.4455C39.833 46.3314 39.9224 46.2224 40.0416 46.1475C40.1557 46.0727 40.2851 46.0385 40.3992 46.0232C40.6326 46.0036 40.831 46.053 41.0098 46.1076C41.1784 46.1672 41.3478 46.2217 41.5164 46.2813C41.8493 46.4005 42.1771 46.5197 42.4947 46.6338C42.8029 46.753 43.0711 46.8126 43.2346 46.7232C43.4083 46.644 43.5326 46.4056 43.5326 46.197C43.5428 45.9884 43.4483 45.7798 43.3189 45.6257C43.0609 45.308 42.7033 45.1685 42.4744 45.0645C42.241 44.9606 42.1066 44.8959 42.1167 44.8559C42.1269 44.8211 42.2759 44.8116 42.5441 44.8559C42.6779 44.8756 42.837 44.9105 43.026 44.9802C43.2099 45.05 43.4185 45.1641 43.6068 45.348C43.7907 45.5319 43.9695 45.8052 43.9891 46.1722C43.9942 46.351 43.9593 46.5349 43.875 46.7137C43.7907 46.8925 43.6518 47.0663 43.4527 47.1753C43.2492 47.2894 43.0209 47.309 42.8269 47.2843C42.6335 47.2647 42.4591 47.2051 42.3006 47.1506C41.983 47.0415 41.6552 46.9274 41.3172 46.8126C40.9792 46.6985 40.6471 46.5495 40.4283 46.5691C40.3193 46.5793 40.2742 46.6091 40.2299 46.6781C40.1899 46.753 40.1652 46.8969 40.1507 47.0554C40.1259 47.3977 40.0067 47.7706 39.788 48.0337C39.5743 48.307 39.2566 48.4756 38.9732 48.5003C38.6854 48.5301 38.4222 48.4356 38.258 48.267L38.2587 48.2677ZM38.7108 50.2244C38.7602 50.0754 38.8445 49.9809 38.9092 49.9314C38.9739 49.882 39.0182 49.8718 39.0284 49.8864C39.0582 49.9162 38.939 50.0303 38.9245 50.2585C38.9143 50.3726 38.9397 50.5115 39.019 50.6307C39.0982 50.7448 39.2472 50.8393 39.4362 50.8589C39.8185 50.9236 40.2706 50.6256 40.469 50.0841C40.5337 49.9402 40.5933 49.7563 40.7772 49.5724C40.8717 49.483 40.9909 49.4088 41.1246 49.379C41.2584 49.3442 41.3928 49.3543 41.5069 49.379C41.7352 49.4386 41.9045 49.5477 42.0579 49.6618C42.1916 49.7708 42.3363 49.8806 42.4751 49.9947C42.7535 50.2178 43.0217 50.4366 43.2797 50.6503C43.5326 50.864 43.7667 51.0079 43.9498 50.9781C44.1388 50.9585 44.3372 50.7746 44.407 50.5805C44.4811 50.3872 44.4615 50.1582 44.3918 49.97C44.2529 49.5876 43.9644 49.3391 43.7856 49.1603C43.5966 48.9866 43.4927 48.8775 43.5123 48.8477C43.537 48.8179 43.6809 48.863 43.9142 48.9866C44.0334 49.0512 44.1773 49.1406 44.3263 49.2649C44.4753 49.3943 44.6389 49.568 44.7537 49.8064C44.8678 50.0397 44.9471 50.3574 44.8431 50.7055C44.7886 50.8792 44.6941 51.0435 44.5553 51.1823C44.4165 51.3212 44.2275 51.4404 44.0043 51.4803C43.7812 51.5203 43.5573 51.4607 43.3836 51.3764C43.2048 51.2921 43.0609 51.178 42.9264 51.0733C42.6633 50.8647 42.39 50.651 42.1117 50.4279C41.8289 50.2091 41.5651 49.9562 41.3521 49.9067C41.2482 49.8769 41.1929 49.8922 41.129 49.9467C41.0643 50.0012 40.9996 50.1255 40.9306 50.2694C40.7968 50.587 40.5584 50.8952 40.2648 51.074C39.9719 51.263 39.6143 51.3124 39.341 51.2427C39.0582 51.178 38.8394 50.9992 38.745 50.7855C38.6505 50.5769 38.6657 50.3734 38.7101 50.2244H38.7108ZM38.7951 53.4377C38.8743 53.2836 38.9841 53.1942 39.0633 53.1499C39.1425 53.1048 39.1927 53.1048 39.2021 53.1252C39.2269 53.1651 39.0778 53.264 39.0233 53.5126C38.9935 53.6369 38.9935 53.7953 39.0633 53.9399C39.128 54.0788 39.277 54.2081 39.4754 54.2677C39.8875 54.4015 40.4341 54.1536 40.7467 53.5925C40.8412 53.4486 40.9451 53.2545 41.1784 53.0859C41.2925 53.0016 41.4415 52.9471 41.5956 52.9318C41.7497 52.9216 41.8936 52.9565 42.0128 53.0016C42.2563 53.1055 42.4198 53.2596 42.5688 53.4086C42.6982 53.5525 42.832 53.7015 42.9708 53.8455C43.2339 54.1435 43.4919 54.4313 43.7405 54.7097C43.9789 54.988 44.2071 55.1865 44.4157 55.1865C44.6294 55.2017 44.8773 55.0324 44.987 54.834C45.1062 54.6355 45.1208 54.3819 45.0815 54.1587C44.9921 53.7117 44.7239 53.389 44.5553 53.1651C44.3765 52.9369 44.282 52.8024 44.3118 52.7676C44.3416 52.7378 44.4906 52.8126 44.729 52.9958C44.8482 53.0852 44.9921 53.2095 45.136 53.373C45.2749 53.5416 45.4239 53.7604 45.5082 54.0432C45.5925 54.3215 45.6223 54.6791 45.4435 55.0462C45.3592 55.225 45.2247 55.3885 45.0459 55.5179C44.8671 55.6473 44.6389 55.741 44.3852 55.7461C44.1315 55.7512 43.8982 55.6516 43.7194 55.523C43.5406 55.3987 43.4018 55.2497 43.2724 55.1109C43.0195 54.8376 42.7607 54.5498 42.4925 54.2568C42.2192 53.969 41.9757 53.6463 41.7475 53.5518C41.6385 53.5024 41.5789 53.5118 41.4989 53.5569C41.4197 53.6063 41.3252 53.7306 41.2257 53.8796C41.017 54.2023 40.6994 54.5003 40.3469 54.6443C39.9944 54.8034 39.5968 54.7933 39.3039 54.669C39.0059 54.5498 38.7973 54.3114 38.7275 54.0628C38.6628 53.8142 38.7122 53.5911 38.7922 53.437L38.7951 53.4377ZM44.7246 38.3849C45.0328 38.1414 45.4842 38.2112 45.7277 38.5339C45.9712 38.8515 45.8912 39.3087 45.5641 39.537C45.2414 39.7557 44.809 39.6809 44.5706 39.3778C44.3423 39.0696 44.4114 38.6277 44.7246 38.3842V38.3849ZM44.5109 43.7584C44.8635 43.5847 45.2858 43.7439 45.4493 44.1109C45.6179 44.4787 45.4595 44.9003 45.0917 45.0493C44.729 45.1983 44.3118 45.0442 44.1533 44.6968C43.9993 44.3544 44.1584 43.9321 44.5109 43.7584ZM43.8503 42.5068C43.5123 42.6958 43.0754 42.586 42.877 42.2633C42.6837 41.9406 42.7876 41.5081 43.1205 41.2952C43.4483 41.0815 43.8902 41.1912 44.0988 41.5336C44.3074 41.8759 44.1984 42.3135 43.8503 42.5068ZM42.8821 36.2102C43.1699 35.942 43.622 35.9667 43.8902 36.2647C44.1686 36.5627 44.1286 37.0243 43.8255 37.2779C43.5225 37.5309 43.0856 37.4967 42.8225 37.2133C42.5696 36.9305 42.5943 36.4835 42.8821 36.2102ZM42.4751 39.1248C42.7237 39.4425 42.6488 39.8946 42.3261 40.1228C42.0085 40.3459 41.576 40.2769 41.3376 39.9789C41.1094 39.6809 41.169 39.2339 41.4764 38.9904C41.7846 38.7469 42.2316 38.8065 42.4744 39.1241L42.4751 39.1248ZM40.8557 34.2034C41.1188 33.9105 41.5709 33.9003 41.8638 34.1736C42.1618 34.4469 42.1669 34.9034 41.8885 35.1868C41.6101 35.4652 41.1631 35.4747 40.8804 35.2115C40.602 34.9484 40.5926 34.4963 40.8557 34.2034ZM40.6224 36.8949C40.9008 37.1878 40.871 37.645 40.5729 37.903C40.2749 38.156 39.8381 38.1313 39.575 37.8536C39.3119 37.5752 39.3315 37.1282 39.615 36.8557C39.8977 36.5824 40.3498 36.6027 40.6231 36.8956L40.6224 36.8949ZM38.6708 32.3762C38.9092 32.0636 39.3708 32.004 39.6789 32.262C39.9915 32.515 40.0365 32.9671 39.7829 33.2702C39.5249 33.5682 39.0778 33.6176 38.7798 33.3741C38.4869 33.1255 38.4273 32.6887 38.6708 32.3762ZM38.5814 34.8489C38.8794 35.1171 38.894 35.5692 38.6163 35.8519C38.3481 36.1303 37.9011 36.1499 37.6184 35.8919C37.3356 35.6338 37.3204 35.1868 37.5784 34.8939C37.8364 34.5959 38.2885 34.5763 38.5814 34.8496V34.8489ZM36.3566 30.7124C36.5703 30.3846 37.0173 30.3003 37.3502 30.5235C37.6881 30.7466 37.7572 31.2038 37.529 31.5214C37.2956 31.8441 36.8632 31.9139 36.5405 31.7002C36.2228 31.4865 36.1385 31.0446 36.3566 30.7117V30.7124ZM36.3864 32.9765C36.6989 33.2251 36.7491 33.6721 36.5005 33.9745C36.2475 34.2776 35.8049 34.3321 35.5069 34.0937C35.2089 33.8502 35.1493 33.4184 35.3826 33.1001C35.6159 32.7876 36.0731 32.7229 36.3856 32.9758L36.3864 32.9765ZM33.9129 29.2471C34.0968 28.8997 34.5388 28.7652 34.8913 28.9738C35.2438 29.1723 35.3528 29.6142 35.1493 29.9522C34.9458 30.2901 34.5133 30.3992 34.1812 30.2102C33.8483 30.0168 33.7291 29.5946 33.9129 29.2464V29.2471ZM32.3241 28.2194C32.508 27.872 32.9499 27.7375 33.3024 27.9461C33.6549 28.1445 33.7639 28.5864 33.5604 28.9244C33.3569 29.2624 32.9245 29.3714 32.5923 29.1824C32.2594 28.9891 32.1351 28.5668 32.3241 28.2187V28.2194ZM32.3488 33.2251C32.5472 33.4984 32.6817 33.8262 32.726 34.1838C32.7711 34.5465 32.7209 34.9535 32.5123 35.3213C32.2986 35.6934 31.9461 35.9522 31.6038 36.1063C31.2614 36.2604 30.9133 36.3447 30.5906 36.4188C29.9597 36.5577 29.299 36.7067 28.6288 36.8557C27.9536 37.0097 27.2529 37.1042 26.9106 37.3521C26.7471 37.4764 26.7071 37.5709 26.7071 37.7199C26.7122 37.874 26.8263 38.1174 26.9651 38.3806C27.2827 38.9417 27.4615 39.6416 27.3823 40.2674C27.3176 40.9078 26.9651 41.4791 26.5283 41.7967C26.0915 42.1296 25.5551 42.2437 25.1131 42.1347C24.6763 42.0351 24.3878 41.7771 24.2191 41.5387C24.0454 41.3003 24.0054 41.0619 24.0054 40.9179C24.0105 40.7639 24.0549 40.6948 24.0847 40.6948C24.169 40.6846 24.1937 40.9877 24.5266 41.2712C24.6858 41.41 24.9285 41.5445 25.2069 41.559C25.4751 41.5786 25.7978 41.4696 26.0609 41.2261C26.6119 40.7442 26.7013 39.7463 26.1205 38.8421C25.9766 38.5841 25.7731 38.281 25.7135 37.8042C25.6888 37.5709 25.728 37.3077 25.8378 37.0788C25.9519 36.8455 26.1256 36.6616 26.3044 36.5279C26.6671 36.2647 27.0393 36.1506 27.3969 36.0561C27.7247 35.9813 28.0626 35.9071 28.405 35.833C29.0802 35.6891 29.7358 35.5503 30.3769 35.4158C31.0027 35.3017 31.5042 35.128 31.683 34.8249C31.8814 34.532 31.8422 34.0355 31.6285 33.7128C31.4301 33.3799 31.0572 33.1517 30.6851 33.0325C29.9299 32.7941 29.2052 32.9286 28.7182 32.9882C28.2218 33.0579 27.9333 33.0877 27.9136 33.0129C27.894 32.9482 28.1324 32.7941 28.6136 32.5957C28.852 32.4961 29.1551 32.3921 29.5323 32.3173C29.9095 32.2475 30.3667 32.2133 30.8733 32.3173C31.3647 32.4212 31.941 32.6698 32.3481 33.2258L32.3488 33.2251ZM31.8575 30.7422C31.659 31.0802 31.2316 31.1943 30.8988 31.0104C30.5659 30.8215 30.4372 30.4043 30.6204 30.0517C30.7992 29.7043 31.2411 29.5698 31.5885 29.769C31.941 29.9623 32.0552 30.405 31.8567 30.7422H31.8575ZM31.5144 25.4683C31.4105 26.238 31.0572 27.3108 30.2926 28.2594C29.533 29.213 28.5642 29.7886 27.8293 30.0568C27.0894 30.325 26.5973 30.3352 26.5879 30.2705C26.5726 30.1913 27.0247 30.0568 27.6803 29.7196C28.3359 29.3816 29.19 28.8008 29.8855 27.9366C30.5855 27.0673 30.9634 26.1043 31.1517 25.3942C31.3407 24.679 31.3748 24.2072 31.4548 24.2072C31.5195 24.2072 31.6183 24.6891 31.5144 25.469V25.4683ZM35.81 15.4663C34.3447 15.4612 32.766 16.0972 31.7426 17.1947C33.2573 16.1619 35.3434 15.5855 37.0514 16.3203C35.3434 16.0376 33.4361 16.6729 32.1947 17.8794C33.9922 16.6925 36.3464 15.9874 38.4026 17.7951C37.5435 17.2987 36.5303 17.0748 35.5418 17.1744C34.5533 17.2739 33.8083 17.7653 33.0684 18.4209C33.7436 17.9688 34.578 17.7406 35.3928 17.79C36.2076 17.8394 36.9969 18.1723 37.6176 18.7087C36.8327 18.2566 35.9096 18.0633 35.0156 18.1578C34.1215 18.2523 33.4907 18.6695 32.8205 19.2698C33.9478 18.833 35.3281 18.5997 36.446 19.3193C35.105 18.9915 33.6404 19.2546 32.3786 19.8062C33.2428 19.9698 34.2909 19.9996 35.1646 19.8956C34.6136 20.3725 33.2675 20.5912 32.3037 20.5164C33.5452 20.9234 34.956 20.983 36.1974 20.576C35.4124 21.3355 33.5604 21.5994 32.1845 21.4453C33.128 21.6139 34.0867 21.7832 35.0454 21.7033C36.0041 21.6241 36.9824 21.2512 37.6082 20.5215C37.2753 21.7033 35.8551 22.2048 34.6536 22.3044C33.4521 22.3989 32.3146 21.962 31.172 21.579C32.0363 20.0497 31.8923 18.0081 30.8195 16.6125C32.319 15.5746 33.9435 14.9837 35.8107 15.4656L35.81 15.4663ZM30.1436 21.2766C29.8906 21.2817 29.6522 21.1821 29.4335 21.0629C29.2103 20.9387 29.0061 20.7897 28.7778 20.6908C28.5496 20.5869 28.2814 20.5367 28.043 20.6116C28.4653 20.4575 28.9719 20.4677 29.3891 20.6465C29.6028 20.741 29.7961 20.8747 30.02 20.959C30.2388 21.0433 30.5513 21.0288 30.7498 20.9045C30.6553 21.1378 30.3922 21.2723 30.1436 21.2766ZM29.6173 20.214C29.7467 20.1791 29.8608 20.0352 29.8107 19.9058C29.7707 19.7917 29.6319 19.7466 29.5127 19.7321C29.1253 19.6776 28.6434 19.767 28.2712 19.8913C28.639 19.6333 29.0955 19.4988 29.5425 19.5286C29.706 19.5388 29.8805 19.5737 30.004 19.6827C30.153 19.8121 30.2024 20.0403 30.1232 20.2242C30.044 20.403 29.8448 20.5222 29.6515 20.512C29.4531 20.5018 29.2692 20.3681 29.1994 20.1842C29.3288 20.2242 29.4822 20.254 29.6166 20.214H29.6173ZM28.9072 19.9552C28.7531 19.9305 28.5947 19.9407 28.4457 20.0003C28.57 19.9058 28.8084 19.8709 28.9574 19.8462C29.1413 19.8113 29.3295 19.8062 29.5134 19.8564C29.5628 19.8709 29.613 19.8862 29.6471 19.9262C29.6871 19.9611 29.7017 20.0207 29.6769 20.065C29.6421 20.1391 29.5381 20.1348 29.4582 20.1093C29.2743 20.065 29.0955 19.9901 28.9072 19.9552ZM30.3871 18.3911C30.4619 18.6295 30.3522 18.8977 30.1639 19.0663C29.9749 19.2299 29.7271 19.3098 29.4785 19.3592C29.2299 19.4036 28.9821 19.4239 28.7386 19.493C28.4951 19.5628 28.2618 19.6914 28.1281 19.9C28.3512 19.5126 28.7437 19.195 29.1762 19.0656C29.4044 19.0009 29.6377 18.9813 29.8616 18.9021C30.0847 18.8228 30.3187 18.6142 30.3878 18.3904L30.3871 18.3911ZM28.0379 19.1761C28.0779 19.0271 28.2364 18.8483 28.3359 18.7291C28.4551 18.5852 28.594 18.4609 28.7677 18.3816C28.812 18.362 28.8622 18.3417 28.9116 18.3468C28.9661 18.3518 29.0155 18.3867 29.0257 18.4362C29.0453 18.5154 28.961 18.5801 28.8869 18.615C28.7132 18.6942 28.5293 18.7538 28.3657 18.8483C28.232 18.9275 28.1172 19.0373 28.0379 19.1761ZM29.4683 18.2719C29.5229 18.4609 29.4487 18.6789 29.2946 18.7981C29.1355 18.9173 28.9072 18.9319 28.7386 18.833C28.8629 18.7785 28.9966 18.7036 29.0766 18.5895C29.1507 18.4754 29.1464 18.2966 29.0272 18.2268C28.9232 18.1672 28.7888 18.2217 28.6892 18.2864C28.3563 18.495 28.0437 18.8723 27.8402 19.2052C27.9493 18.7734 28.2175 18.3758 28.5801 18.1076C28.7095 18.0081 28.868 17.9237 29.0322 17.9288C29.2307 17.9339 29.4146 18.0778 29.4691 18.2712L29.4683 18.2719ZM28.49 16.6976C28.7037 16.8313 28.7931 17.1097 28.7531 17.3583C28.7182 17.6068 28.5794 17.83 28.4202 18.024C28.2611 18.2174 28.0779 18.3962 27.9384 18.6048C27.7995 18.8134 27.6999 19.062 27.7348 19.3098C27.6556 18.8679 27.7545 18.3715 28.003 17.9935C28.1324 17.8002 28.301 17.6308 28.4202 17.4273C28.5394 17.2238 28.5838 16.9156 28.49 16.6976ZM27.2035 18.8083C27.1287 18.6695 27.1388 18.4311 27.1388 18.277C27.1388 18.088 27.1635 17.9048 27.2479 17.7355C27.2675 17.6861 27.2929 17.641 27.3373 17.6112C27.3816 17.5814 27.4412 17.5763 27.4812 17.6061C27.5459 17.6555 27.5211 17.7551 27.4863 17.8293C27.407 18.003 27.3024 18.1672 27.2377 18.346C27.1832 18.495 27.1679 18.6542 27.2028 18.8076L27.2035 18.8083ZM27.6164 17.6912C27.6011 17.5574 27.4826 17.423 27.3482 17.4477C27.229 17.4673 27.1643 17.5967 27.125 17.7108C27.0058 18.0829 27.0109 18.575 27.0654 18.9624C26.8721 18.5554 26.8219 18.0836 26.9266 17.6461C26.9666 17.4826 27.0305 17.3183 27.1599 17.2143C27.314 17.0951 27.5473 17.085 27.7109 17.1947C27.8744 17.3037 27.9594 17.5174 27.9195 17.7115C27.8744 17.9048 27.7058 18.064 27.5175 18.0989C27.5771 17.9746 27.6316 17.8307 27.6171 17.6919L27.6164 17.6912ZM26.7718 13.8869C26.8714 13.783 27.298 14.0461 27.6607 14.5229C28.0234 14.9997 28.1622 15.4816 28.0379 15.5506C27.9136 15.6255 27.5858 15.2875 27.2435 14.8405C26.9055 14.3935 26.6671 13.9916 26.7718 13.8869ZM26.5784 16.9556C26.7122 17.1693 26.7471 17.4273 26.7471 17.681C26.7522 17.9296 26.7274 18.1825 26.7572 18.4311C26.782 18.6695 26.8612 18.913 27.0305 19.0816C27.0451 19.0365 27.0654 18.9973 27.1047 18.9726C27.1643 18.9326 27.2384 18.9326 27.2936 18.9726C27.3431 19.0075 27.378 19.0518 27.378 19.1063C27.383 19.0569 27.3932 19.0067 27.4179 18.9624C27.4528 18.913 27.5175 18.8781 27.572 18.9079C27.612 18.9231 27.6316 18.9675 27.6418 19.0075C27.6614 19.0969 27.6316 19.211 27.5669 19.2807C27.6069 19.2408 27.676 19.2459 27.7159 19.2858C27.7508 19.3309 27.7508 19.3999 27.7159 19.4399C27.6811 19.485 27.6164 19.4995 27.5619 19.4799C27.5175 19.4646 27.4826 19.4305 27.4477 19.3956C27.4128 19.3658 27.3685 19.336 27.3184 19.3411C27.2442 19.3462 27.1992 19.4254 27.1795 19.4952C27.1548 19.5846 27.1497 19.6841 27.1694 19.7779C27.0749 19.6093 27.04 19.445 27.0153 19.2568C27.0102 19.1972 27.0153 19.1376 27.0305 19.0881C26.6976 18.7952 26.4643 18.3678 26.4149 17.9259C26.3851 17.6977 26.4047 17.4593 26.3706 17.226C26.3306 16.9927 26.162 16.7295 25.9534 16.6198C26.2019 16.5849 26.4498 16.7441 26.5792 16.9578L26.5784 16.9556ZM26.0915 14.4676C25.9824 14.5672 25.6045 14.3288 25.1575 14.0504C24.7156 13.772 24.3332 13.5387 24.3776 13.3999C24.4125 13.2611 24.9242 13.2858 25.4351 13.6085C25.9468 13.9261 26.1947 14.3731 26.0907 14.4676H26.0915ZM23.5533 12.2428C24.3231 12.3271 24.8994 12.6106 24.8595 12.7443C24.8195 12.8882 24.2191 12.8388 23.4937 12.7588C22.7735 12.6796 22.1774 12.5902 22.168 12.4463C22.1578 12.3024 22.7836 12.1534 23.5533 12.2428ZM20.1815 16.6285C20.3109 16.723 20.1321 17.1351 20.0921 17.2543C19.7643 18.1084 18.4982 18.8635 17.6834 18.1331C17.4552 17.9296 17.3258 17.6461 17.2909 17.3437C17.2764 17.2398 17.2764 16.5587 17.4501 16.5493C16.78 16.5791 16.1294 16.9563 14.7484 17.577C15.5727 16.9367 16.4224 16.2862 17.4152 15.9533C18.4088 15.6204 19.5906 15.6705 20.3996 16.3356C21.1591 16.9614 21.5415 18.0786 22.4805 18.3766C22.083 18.2973 21.6614 18.4362 21.2936 18.6048C20.2608 19.0663 19.0586 19.1412 17.9814 18.7981C18.4284 18.8032 18.9299 18.7531 19.3617 18.6295C19.7934 18.5103 20.2106 18.2472 20.4098 17.8445C20.6133 17.4426 20.5435 16.896 20.1815 16.6278V16.6285ZM22.1433 13.3803C22.1135 13.5242 21.4433 13.4995 20.6533 13.6187C19.8588 13.7277 19.2229 13.9414 19.1538 13.812C19.0797 13.6928 19.68 13.2262 20.5791 13.0968C21.4782 12.9674 22.1833 13.2407 22.1433 13.3796V13.3803ZM17.892 13.0125C18.8158 12.6745 19.6255 12.6055 19.6553 12.7443C19.6902 12.8882 18.9648 13.176 18.0708 13.5038C17.1717 13.8266 16.4318 14.0751 16.3671 13.9407C16.3024 13.8164 16.9631 13.3498 17.892 13.0118V13.0125ZM15.9208 14.6217C16.6658 14.339 17.3214 14.2794 17.3563 14.4182C17.3963 14.557 16.825 14.8354 16.1047 15.1138C15.3844 15.382 14.7739 15.5557 14.7092 15.4263C14.6445 15.297 15.1758 14.9052 15.9208 14.6217ZM12.2009 15.595C13.4968 14.9095 14.6343 14.5323 14.6888 14.661C14.7484 14.7947 13.7251 15.3813 12.4444 16.0565C11.168 16.7317 10.1054 17.2434 10.0262 17.1191C9.95205 16.9948 10.9049 16.2745 12.2016 15.5942L12.2009 15.595ZM9.13218 20.4619C9.53921 20.2685 10.0509 20.0941 10.6367 19.9654C11.2175 19.8411 11.8731 19.767 12.5636 19.7764C13.2541 19.7961 13.9097 19.9058 14.4853 20.0548C15.0617 20.214 15.5632 20.4124 15.9601 20.621C16.7596 21.0382 17.1666 21.4307 17.1368 21.4656C17.0969 21.5252 16.6353 21.2221 15.8358 20.8892C15.4382 20.7206 14.9469 20.5614 14.3908 20.4277C13.8348 20.3085 13.2141 20.2191 12.5534 20.1995C11.8978 20.1842 11.272 20.2438 10.7109 20.3434C10.1498 20.4473 9.65332 20.5818 9.24557 20.7359C8.43078 21.0288 7.95907 21.3072 7.91982 21.2476C7.8951 21.2127 8.3174 20.8405 9.13145 20.4626L9.13218 20.4619ZM5.61574 20.8493C5.2436 20.983 4.78642 20.8892 4.53276 20.5861C4.36922 20.3928 4.21004 19.8658 4.49278 19.6972C4.73627 19.5533 5.08879 20.0301 5.32719 20.1144C5.67462 20.2336 6.07729 20.1937 6.39491 20.0054C6.27062 20.3826 5.98788 20.7155 5.61502 20.85L5.61574 20.8493ZM7.17045 23.7101C6.94731 23.7101 6.76851 23.5313 6.76851 23.3125C6.76851 23.0937 6.94731 22.9106 7.17045 22.9106C7.39359 22.9106 7.56803 23.0894 7.56803 23.3125C7.56803 23.5356 7.38923 23.7101 7.17045 23.7101ZM7.40376 22.4636C7.23005 22.4636 7.09122 22.3196 7.09122 22.1459C7.09122 21.9722 7.23005 21.8334 7.40376 21.8334C7.57748 21.8334 7.72139 21.9722 7.72139 22.1459C7.72139 22.3196 7.57748 22.4636 7.40376 22.4636ZM8.15822 23.258C7.96488 23.258 7.81079 23.1039 7.81079 22.9106C7.81079 22.7172 7.96488 22.5631 8.15822 22.5631C8.35156 22.5631 8.50565 22.7223 8.50565 22.9106C8.50565 23.0988 8.34647 23.258 8.15822 23.258ZM12.9808 26.0142C12.8863 26.0934 12.206 25.3237 11.1382 24.6935C10.0807 24.0532 9.07694 23.8242 9.10238 23.6999C9.10238 23.596 10.2101 23.6505 11.3519 24.3359C12.4989 25.0162 13.0753 25.9596 12.9808 26.0142ZM13.5717 23.1337C11.0089 22.215 8.74478 22.4832 8.74478 22.3444C8.74478 22.3 9.29572 22.1605 10.205 22.151C11.1135 22.1314 12.3899 22.2804 13.7113 22.7369C15.0319 23.2035 16.12 23.8838 16.8199 24.4653C17.525 25.046 17.8731 25.493 17.8382 25.5279C17.7539 25.6318 16.1498 24.0132 13.5724 23.1344L13.5717 23.1337ZM17.9516 19.916C17.0576 19.7968 16.2777 19.5235 15.7515 19.2553C15.2253 18.982 14.9621 18.7189 14.9818 18.6891C15.0116 18.6491 15.3147 18.8381 15.846 19.0518C16.3722 19.2655 17.1325 19.4886 17.9916 19.6027C18.8558 19.7219 19.6502 19.7067 20.2164 19.6623C20.7877 19.6129 21.1402 19.5482 21.1548 19.5976C21.1548 19.6376 20.8168 19.7714 20.2462 19.8804C19.6699 19.9843 18.8456 20.0345 17.9516 19.9153V19.916ZM19.4315 28.6119C19.4416 28.5276 20.1118 28.6119 21.1795 28.5377C22.2421 28.473 23.7125 28.1954 25.1575 27.4649C26.6075 26.7395 27.705 25.722 28.3904 24.9072C29.0809 24.0924 29.4138 23.5015 29.488 23.5415C29.5425 23.5662 29.3244 24.2269 28.6783 25.1354C28.0423 26.0396 26.9251 27.1618 25.3959 27.9316C23.8666 28.7064 22.2923 28.9346 21.1897 28.9099C20.0871 28.8852 19.4315 28.6766 19.4315 28.6119ZM14.8378 42.9938C14.9171 42.9742 15.0116 43.262 15.3197 43.5702C15.6228 43.8733 16.1839 44.1909 16.8294 44.196C17.4901 44.1909 18.0708 43.9176 18.4633 43.6792C18.8558 43.4459 19.0942 43.2569 19.1487 43.3071C19.1981 43.3521 19.0593 43.6349 18.6821 43.9772C18.3143 44.3152 17.6587 44.712 16.8294 44.7171C15.9899 44.712 15.3248 44.2454 15.0363 43.8035C14.7332 43.3514 14.7782 42.9938 14.8378 42.9938ZM20.1074 44.0666C19.7498 44.5187 19.2585 45.05 18.5331 45.4127C18.1704 45.5864 17.7532 45.7107 17.3113 45.7354C16.8643 45.7652 16.4071 45.6809 15.9703 45.5319C15.0959 45.2143 14.4061 44.6379 13.9191 44.0273C13.4321 43.4168 13.1196 42.791 12.8957 42.2597C12.4589 41.197 12.2997 40.5116 12.3593 40.4869C12.4342 40.4571 12.722 41.1076 13.2286 42.1012C13.4917 42.5977 13.8195 43.174 14.2913 43.7199C14.7528 44.2614 15.3837 44.7629 16.1483 45.0362C16.9079 45.3189 17.6979 45.2695 18.3288 44.9766C18.9648 44.6888 19.446 44.2316 19.8239 43.8297C20.5639 43.0003 20.9658 42.4094 21.0356 42.4588C21.085 42.4937 20.8023 43.1442 20.1067 44.0681L20.1074 44.0666ZM20.9069 51.7638C20.9215 51.1533 21.4085 50.6263 21.9747 50.4032C22.546 50.18 23.1812 50.2098 23.7823 50.3087C24.3834 50.4032 24.9794 50.5718 25.5849 50.6118C26.1656 50.6517 26.7769 50.5572 27.2537 50.2294C27.2391 50.2142 27.2239 50.2047 27.2093 50.1844C27.1199 50.0456 27.125 49.8566 27.2195 49.7228C27.2944 49.6138 27.4034 49.5295 27.5277 49.5244C27.4136 49.5091 27.2944 49.4895 27.1999 49.4248C27.0756 49.3456 26.9913 49.1813 27.056 49.0527C27.1003 48.9582 27.1999 48.9037 27.2995 48.8841C27.5226 48.8296 27.801 48.9037 27.9652 49.068C27.8657 48.9735 27.8809 48.7947 27.9805 48.7053C28.0844 48.6159 28.2487 48.621 28.3526 48.7053C28.4566 48.7947 28.4966 48.9488 28.4522 49.0774C28.4122 49.1864 28.3228 49.2707 28.2487 49.3558C28.1746 49.4452 28.1048 49.5491 28.1099 49.6683C28.1201 49.8471 28.3134 49.9562 28.4871 50.0063C28.7059 50.0659 28.9443 50.0761 29.1674 50.0361C28.7655 50.2592 28.3577 50.3392 27.9013 50.4039C27.6781 50.4337 27.4143 50.3988 27.2653 50.2353C26.4309 50.9054 25.2985 51.2834 24.2308 51.2187C23.6595 51.1838 23.0983 51.0348 22.5271 51.0297C21.9558 51.0195 21.2507 51.3081 20.9084 51.7645L20.9069 51.7638ZM27.0647 56.4468C27.3525 56.4911 27.6062 56.2629 27.7901 56.0296C28.3759 55.2795 28.7735 54.1522 28.9617 53.2189C29.0708 54.3063 28.7931 55.4285 28.1869 56.3429C27.9682 56.6758 27.6803 56.9985 27.298 57.1279C26.8459 57.2819 26.3044 57.1031 26.0166 56.7208C25.7339 56.3334 25.7186 55.7723 25.9766 55.3653C26.2397 54.9633 26.7463 54.7446 27.2231 54.8187C26.9797 55.052 26.7318 55.3355 26.6519 55.6582C26.5675 55.9809 26.7311 56.393 27.064 56.4475L27.0647 56.4468ZM28.2269 54.7235C28.0728 55.1458 27.8548 55.5528 27.5313 55.8755C27.4419 55.9649 27.3423 56.0441 27.2188 56.079C27.0996 56.1088 26.9506 56.0739 26.8859 55.97C26.782 55.8014 26.9208 55.5877 27.0596 55.4489C27.3874 55.1211 27.7552 54.8383 28.0532 54.4807C28.3018 54.1827 28.4704 53.8404 28.53 53.453C28.57 53.8302 28.3563 54.3717 28.2269 54.7242V54.7235ZM26.9208 51.9128C26.7071 52.2304 26.2005 52.5037 25.8727 52.6927C25.4802 52.9209 25.0535 53.0903 24.5964 53.1295C24.4721 53.1397 24.3434 53.1397 24.2286 53.0845C24.1145 53.0299 24.0251 52.9107 24.0447 52.7865C24.0694 52.588 24.3129 52.5183 24.5113 52.4986C24.9729 52.4587 25.4402 52.479 25.8916 52.3947C26.279 52.3249 26.6264 52.1759 26.9193 51.9128H26.9208ZM22.8985 52.8017C22.9283 52.3249 23.2808 51.883 23.738 51.7391C24.1951 51.6003 24.7315 51.7587 25.0441 52.1214C24.7112 52.141 24.334 52.2006 24.0658 52.3947C23.7925 52.5931 23.6587 53.0103 23.8724 53.264C24.0658 53.4871 24.4088 53.4726 24.6967 53.413C25.6256 53.2146 26.6584 52.6084 27.4034 52.0124C26.7878 52.9158 25.8538 53.5969 24.8064 53.9094C24.419 54.0235 23.9916 54.0882 23.6195 53.9392C23.1725 53.7655 22.8694 53.2785 22.8992 52.8017H22.8985ZM23.7721 55.4736C24.06 54.9372 24.5666 54.5498 25.0928 54.2372C25.6139 53.929 26.1758 53.671 26.6671 53.3134C27.1635 52.9507 27.596 52.4645 27.7297 51.8685C27.5408 52.9464 26.9004 53.9988 26.0217 54.6493C25.5601 54.9873 25.0383 55.2352 24.5913 55.5979C24.1494 55.9606 23.7968 56.6358 23.8215 57.202C23.4443 56.7252 23.4792 56.01 23.7721 55.4736ZM29.086 64.2487C28.7531 64.6208 28.1128 65.1231 27.149 65.187C26.6773 65.2117 26.146 65.1122 25.6495 64.8447C25.1582 64.5867 24.6908 64.1346 24.4379 63.5385C24.185 62.9425 24.1348 62.2273 24.3732 61.5521C24.6116 60.8718 25.1829 60.3056 25.8879 60.0476C26.593 59.7743 27.4274 59.844 28.0285 60.2809C28.3316 60.4946 28.5751 60.8224 28.6739 61.1749C28.7778 61.5223 28.7684 61.8799 28.679 62.2026C28.5104 62.8531 28.0183 63.3743 27.4179 63.5385C26.827 63.6926 26.2114 63.4942 25.8785 63.077C25.5507 62.6547 25.5311 62.1336 25.7099 61.7607C25.8887 61.3733 26.2514 61.2141 26.5145 61.1843C26.7878 61.1494 26.9964 61.2243 27.1156 61.2984C27.2297 61.3777 27.2646 61.4474 27.2544 61.4576C27.2297 61.507 26.9964 61.2984 26.5588 61.4133C26.3553 61.4729 26.1169 61.6219 26.0224 61.8952C25.9228 62.1583 25.973 62.5406 26.2063 62.7994C26.4345 63.0574 26.8815 63.1817 27.2791 63.0523C27.6767 62.9331 28.0292 62.5406 28.1382 62.0689C28.2523 61.5921 28.1186 61.0557 27.6861 60.7678C27.2588 60.4698 26.6431 60.4102 26.1016 60.6138C25.5551 60.8173 25.1182 61.2497 24.93 61.7607C24.741 62.2724 24.7708 62.8481 24.9547 63.3249C25.1437 63.8017 25.4962 64.1694 25.8981 64.4078C26.3001 64.6463 26.7427 64.7502 27.1396 64.7553C27.9543 64.7553 28.57 64.373 28.9225 64.08C29.2801 63.777 29.4342 63.5487 29.4734 63.5734C29.5032 63.5887 29.424 63.8664 29.086 64.2487ZM29.5977 56.1241C29.464 56.6801 29.2205 57.2071 29.1158 57.7682C29.0068 58.3293 29.1703 59.0743 29.5577 59.4966C28.9617 59.3723 28.5249 58.8061 28.4057 58.2057C28.2865 57.6097 28.421 56.989 28.6245 56.4083C28.8229 55.8319 29.0911 55.2759 29.235 54.685C29.384 54.094 29.3986 53.4384 29.1158 52.8969C29.6668 53.8455 29.8557 55.0622 29.5977 56.1248V56.1241ZM29.7816 52.7923C29.6428 52.8817 29.4487 52.8766 29.315 52.7821C29.206 52.7123 29.1216 52.5982 29.1166 52.4696C29.1064 52.5888 29.0868 52.708 29.0221 52.8024C28.9428 52.9267 28.7786 53.011 28.6448 52.9464C28.5503 52.902 28.5009 52.8024 28.4762 52.7029C28.4268 52.4797 28.4958 52.2014 28.6652 52.0371C28.5656 52.1367 28.3919 52.1214 28.2974 52.0218C28.208 51.9179 28.2131 51.7536 28.3025 51.6497C28.3868 51.5457 28.5409 51.5058 28.6703 51.5501C28.7793 51.5901 28.8636 51.6795 28.953 51.7536C29.0373 51.8278 29.1464 51.8975 29.2612 51.8924C29.44 51.8823 29.5541 51.6889 29.6035 51.5152C29.6631 51.2964 29.6733 51.058 29.6282 50.8349C29.8565 51.2368 29.9313 51.6446 29.996 52.101C30.0309 52.3496 29.996 52.652 29.7823 52.7915L29.7816 52.7923ZM32.17 57.202C31.9214 57.6141 31.3901 57.8227 30.9235 57.7137C30.4619 57.5996 30.0891 57.1773 30.0244 56.7005C29.9648 56.2288 30.2133 55.7272 30.6255 55.4837C30.5906 55.8166 30.5855 56.1939 30.7294 56.497C30.8733 56.795 31.2658 57.0036 31.5536 56.8349C31.8022 56.6808 31.8516 56.3436 31.8364 56.05C31.8066 55.0963 31.3843 53.9741 30.9322 53.1397C31.7121 53.9043 32.2187 54.9423 32.3423 56.0303C32.3917 56.4279 32.3822 56.8596 32.1685 57.202H32.17ZM32.7209 55.8014C32.5072 55.2301 32.3532 54.6341 32.0806 54.0882C31.8124 53.5373 31.4105 53.0256 30.8442 52.7923C31.872 53.1644 32.8009 53.9792 33.2879 54.9575C33.5408 55.4692 33.6949 56.0303 33.9733 56.5268C34.2517 57.0283 34.8571 57.4949 35.4233 57.5647C34.8869 57.8525 34.187 57.6984 33.7102 57.3161C33.2334 56.9389 32.9404 56.3727 32.7217 55.8014H32.7209ZM40.6471 67.502C40.1754 68.0333 39.2617 68.7434 37.8909 68.8328C37.2157 68.8728 36.4605 68.7333 35.7504 68.3509C35.0454 67.9788 34.3796 67.3377 34.022 66.4837C33.6644 65.6391 33.5851 64.6215 33.9275 63.6578C34.2698 62.6896 35.0846 61.8799 36.0876 61.5078C37.0907 61.1255 38.2827 61.2199 39.1418 61.8457C39.5736 62.1488 39.9166 62.6155 40.0554 63.117C40.2044 63.6134 40.1892 64.1251 40.07 64.5867C39.8214 65.5105 39.1265 66.2555 38.2674 66.4837C37.4228 66.7068 36.5492 66.4241 36.0724 65.8281C35.6058 65.227 35.581 64.482 35.8289 63.9507C36.0869 63.4041 36.6037 63.1708 36.9758 63.1264C37.3683 63.077 37.6663 63.1911 37.835 63.2951C37.9985 63.4092 38.0486 63.5037 38.0334 63.5233C37.9985 63.588 37.6612 63.2951 37.0449 63.4586C36.7469 63.5429 36.4089 63.7566 36.2752 64.144C36.1363 64.5161 36.2054 65.0627 36.5383 65.4349C36.8661 65.7976 37.5021 65.9764 38.0675 65.7925C38.6338 65.6238 39.1353 65.0627 39.2894 64.3868C39.458 63.7065 39.2596 62.9418 38.6439 62.5391C38.0377 62.1074 37.1641 62.0224 36.3944 62.3204C35.6145 62.6082 34.9887 63.2246 34.7256 63.9492C34.4523 64.679 34.4922 65.5039 34.7604 66.1791C35.0236 66.8595 35.5302 67.3857 36.1015 67.7237C36.6727 68.0617 37.3029 68.215 37.8691 68.2201C39.0262 68.2201 39.905 67.6786 40.4116 67.2563C40.9233 66.8246 41.1413 66.4968 41.1966 66.5309C41.2416 66.5557 41.1268 66.9481 40.6456 67.4991L40.6471 67.502ZM43.4781 63.0174C43.3785 63.2907 43.1903 63.5982 42.8327 63.7922C42.6539 63.8816 42.4504 63.9361 42.2316 63.9361C42.0128 63.9361 41.7701 63.8765 41.5658 63.7326C41.3572 63.5836 41.2278 63.3648 41.1588 63.1562C41.089 62.9476 41.0643 62.7492 41.0447 62.5602C40.9996 62.1881 40.9604 61.805 40.9153 61.4082C40.871 61.0157 40.8659 60.6087 40.7365 60.4001C40.6769 60.2961 40.6224 60.2663 40.533 60.2562C40.4385 60.246 40.2895 60.2961 40.1209 60.3557C39.7633 60.4946 39.3315 60.5447 38.9637 60.4502C38.5865 60.371 38.2638 60.1275 38.1046 59.8542C37.936 59.5809 37.9062 59.2684 38.0007 59.0249C38.0952 58.7865 38.2689 58.6375 38.423 58.5634C38.5771 58.4841 38.721 58.474 38.8104 58.4841C38.8998 58.4994 38.9398 58.5292 38.9398 58.5488C38.9347 58.5939 38.7559 58.5888 38.5625 58.7574C38.468 58.8366 38.3692 58.966 38.3394 59.1252C38.3096 59.2742 38.3546 59.4675 38.4833 59.6318C38.7319 59.9843 39.3228 60.1035 39.9035 59.8404C40.0671 59.7808 40.2662 59.6812 40.5541 59.6863C40.6929 59.6863 40.847 59.7314 40.9814 59.8106C41.1108 59.8898 41.2097 60.0039 41.2743 60.1137C41.4081 60.3419 41.4531 60.5607 41.4829 60.7693C41.5026 60.9626 41.5229 61.1618 41.5476 61.3602C41.5825 61.7527 41.6218 62.1401 41.6567 62.5123C41.6865 62.8749 41.7512 63.173 41.9198 63.2972C42.0833 63.431 42.3813 63.4462 42.5899 63.3518C42.8036 63.2573 42.9671 63.0639 43.0616 62.8604C43.2601 62.4483 43.2303 62.0311 43.2252 61.7484C43.2201 61.4605 43.2252 61.2963 43.2652 61.2868C43.3102 61.2868 43.3844 61.4358 43.4687 61.7186C43.513 61.8625 43.553 62.0413 43.5726 62.26C43.5871 62.4788 43.5777 62.7419 43.4781 63.0196V63.0174ZM43.4185 59.7496C43.175 59.6798 42.9817 59.5162 42.8472 59.3476C42.7084 59.1739 42.619 58.9951 42.5347 58.8265C42.3711 58.4885 42.2018 58.1411 42.0281 57.7835C41.8544 57.4309 41.7105 57.0486 41.5215 56.8894C41.427 56.8153 41.3674 56.8051 41.2831 56.8248C41.1886 56.8495 41.0599 56.944 40.9255 57.0581C40.6326 57.3067 40.2452 57.5 39.8679 57.54C39.4805 57.5894 39.1033 57.4702 38.8598 57.2667C38.6069 57.0632 38.4724 56.7797 38.4826 56.5166C38.4877 56.2636 38.6018 56.0645 38.721 55.9402C38.8402 55.8108 38.9739 55.7563 39.059 55.7367C39.1484 55.7214 39.1978 55.7367 39.2029 55.7512C39.213 55.7963 39.0437 55.8508 38.915 56.0739C38.8554 56.183 38.806 56.3371 38.8307 56.4962C38.8554 56.6452 38.9601 56.8139 39.1389 56.928C39.4914 57.1715 40.0874 57.0915 40.549 56.6452C40.6827 56.5311 40.8317 56.377 41.105 56.2825C41.2387 56.2375 41.3979 56.2229 41.5469 56.2527C41.701 56.2876 41.8297 56.3618 41.9292 56.4417C42.1327 56.6103 42.2469 56.8044 42.3464 56.9883C42.4307 57.1671 42.5151 57.3459 42.6045 57.5247C42.7731 57.8823 42.9374 58.2297 43.0958 58.5677C43.2448 58.9057 43.4083 59.1637 43.6075 59.2233C43.8059 59.2931 44.0945 59.2037 44.258 59.0445C44.4266 58.8904 44.516 58.6469 44.5364 58.4289C44.5807 57.9717 44.4121 57.5894 44.3176 57.3212C44.2137 57.053 44.1584 56.8989 44.1984 56.8742C44.2384 56.8546 44.3576 56.9687 44.5364 57.2122C44.6207 57.3314 44.7254 57.4905 44.8148 57.689C44.9042 57.8874 44.9834 58.1411 44.9834 58.4391C44.9834 58.7371 44.9093 59.0794 44.636 59.3825C44.4971 59.5264 44.3234 59.6456 44.1148 59.7205C43.9113 59.7953 43.6627 59.8201 43.4192 59.7503L43.4185 59.7496ZM45.8418 63.6926C45.7175 64.075 45.3156 64.2886 44.9383 64.1694C44.5662 64.0502 44.3576 63.6628 44.4717 63.3001C44.5756 62.9324 44.9485 62.7092 45.3308 62.8088C45.7081 62.9033 45.9465 63.3052 45.8425 63.6926H45.8418ZM46.4727 61.1945C46.3484 61.5768 45.9465 61.7905 45.5685 61.6764C45.1964 61.5572 44.9878 61.1698 45.1019 60.8071C45.2014 60.4393 45.5787 60.2162 45.961 60.3158C46.3382 60.4102 46.5766 60.8071 46.4727 61.1945ZM47.1181 58.3693C47.0534 58.7669 46.6864 59.0249 46.299 58.9406C45.9217 58.8614 45.6586 58.4885 45.7182 58.1164C45.7829 57.7442 46.15 57.4855 46.5374 57.5451C46.9248 57.6047 47.1879 57.9724 47.1181 58.3693ZM46.7162 56.1394C46.3237 56.0994 46.0359 55.7621 46.0707 55.3842C46.1158 55.012 46.4233 54.714 46.8208 54.7286C47.2082 54.7438 47.536 55.0811 47.491 55.4837C47.451 55.8857 47.1036 56.1793 46.7162 56.1394ZM48.6924 62.9876C48.5682 63.3699 48.1611 63.5836 47.7839 63.4644C47.4067 63.3452 47.2032 62.9527 47.3224 62.5857C47.4263 62.2179 47.8042 61.9998 48.1866 62.0987C48.5638 62.1983 48.8022 62.6002 48.6932 62.9876H48.6924ZM49.5268 60.8027C49.4026 61.1851 48.9955 61.3987 48.6183 61.2795C48.2462 61.1553 48.0376 60.7628 48.1568 60.4008C48.2607 60.033 48.6387 59.8099 49.021 59.9095C49.4033 60.009 49.6366 60.411 49.5276 60.8035L49.5268 60.8027ZM50.197 57.9572C50.1272 58.3591 49.7602 58.6128 49.3677 58.5285C48.9904 58.4442 48.7273 58.0713 48.7913 57.6941C48.856 57.3219 49.2281 57.0632 49.6155 57.1279C50.008 57.1875 50.266 57.5596 50.1963 57.9572H50.197ZM50.5895 55.0564C50.5495 55.4634 50.197 55.7563 49.8045 55.712C49.412 55.672 49.1242 55.3297 49.1642 54.9473C49.2092 54.5701 49.5269 54.2772 49.9237 54.2917C50.3162 54.3114 50.6389 54.6544 50.5895 55.0564ZM49.9542 52.8664C49.5668 52.8715 49.2288 52.5633 49.2092 52.1861C49.1896 51.8089 49.492 51.476 49.8845 51.4462C50.2769 51.4164 50.6142 51.7195 50.6396 52.1265C50.6593 52.5335 50.3569 52.8664 49.9542 52.8664Z" fill="#AF3830"/>
<path d="M20.2162 37.4071C20.0229 37.9137 19.5759 38.8622 18.6121 39.677C18.3788 39.8754 18.0757 40.0644 17.7973 40.2185C17.266 39.9503 16.4512 39.5484 15.627 38.9916C14.1915 38.0329 13.2728 36.9855 13.1638 37.0895C13.0642 37.184 13.9931 38.3113 15.4831 39.2998C16.2332 39.8064 16.9578 40.164 17.4993 40.3777C17.2013 40.5318 16.9782 40.6263 16.9782 40.6263C14.6988 40.2686 10.3981 35.4766 9.55864 35.1386C8.24234 34.6022 7.25893 35.1335 5.94336 35.67C6.81266 34.6168 7.95452 33.7925 9.23084 33.291C9.88645 33.033 10.6111 32.8593 11.3016 33.0126C11.9674 33.1667 12.5285 33.6036 13.0395 34.0506C13.8739 34.7759 14.6581 35.5551 15.5376 36.2209C16.3567 36.8416 17.713 37.5321 20.2155 37.4078L20.2162 37.4071Z" fill="#AF3830"/>
<path d="M34.0001 7.3964C32.4752 6.32359 30.4292 5.93618 28.7015 6.62159C26.9731 7.30191 25.7294 8.79992 25.5332 11.0989C25.5332 11.0989 29.0867 12.2153 30.286 14.9649L32.5603 14.0462C33.2406 13.733 33.9064 13.3906 34.4769 12.9189C35.1972 12.3229 35.7685 11.4783 35.823 10.5451C35.9023 9.2789 35.038 8.12178 34.0001 7.3964ZM30.6094 13.0025C30.4677 13.033 30.254 12.2357 29.4959 11.7458C28.7436 11.2472 27.9274 11.3707 27.8983 11.229C27.8802 11.1643 28.0677 11.0313 28.426 10.9826C28.7778 10.9325 29.3062 10.9971 29.7823 11.3082C30.2576 11.62 30.5288 12.078 30.624 12.4203C30.7235 12.7677 30.6763 12.993 30.6102 13.0025H30.6094ZM32.0326 11.2239C31.9541 11.2239 31.909 11.003 31.7331 10.7282C31.563 10.4542 31.2381 10.1235 30.7911 9.9127C30.3361 9.69974 29.8586 9.6147 29.5083 9.53984C29.1565 9.46715 28.9304 9.40101 28.9326 9.3276C28.9348 9.2571 29.1608 9.19168 29.5366 9.17133C29.908 9.15461 30.4546 9.18078 31.0143 9.44026C31.5812 9.70628 31.9526 10.1838 32.0704 10.577C32.1939 10.9761 32.0958 11.2305 32.0326 11.2246V11.2239ZM34.2901 10.3423C34.2145 10.3677 34.0597 10.0174 33.7065 9.54347C33.3591 9.0703 32.7769 8.48011 31.9773 8.10579C31.1771 7.73292 30.3507 7.66605 29.7648 7.70385C29.1747 7.73801 28.8069 7.84413 28.7778 7.76999C28.7509 7.71184 29.0816 7.47489 29.7154 7.33752C30.339 7.19797 31.2839 7.20524 32.199 7.63189C33.1134 8.05927 33.7261 8.77884 34.0197 9.34577C34.3214 9.91925 34.3519 10.3255 34.2901 10.3423Z" fill="#AF3830"/>
<path d="M0.00266893 24.3466C0.0477328 24.3924 0.273052 24.005 0.724418 23.51C0.947556 23.2593 1.23902 22.9998 1.58136 22.7491C1.92879 22.5099 2.33145 22.2861 2.77918 22.1211C3.23055 21.9648 3.68046 21.8834 4.09839 21.8492C4.51778 21.8274 4.90373 21.8449 5.2308 21.8994C5.88423 21.999 6.29562 22.1589 6.30362 22.0942C6.31088 22.0535 5.90531 21.7925 5.22426 21.6137C4.8841 21.5207 4.47853 21.4705 4.03516 21.4727C3.5947 21.4865 3.11789 21.5607 2.64472 21.7249C2.17446 21.8979 1.75653 22.1436 1.40256 22.4133C1.0544 22.6938 0.766574 22.9918 0.556518 23.2811C0.131319 23.8567 -0.0278582 24.319 0.00266893 24.3466Z" fill="#AF3830"/>
<path d="M0.499393 27.3887C0.590248 27.4708 1.20297 25.5752 2.71406 24.1644C4.20553 22.7209 5.84891 22.4731 5.80748 22.3437C5.7973 22.2965 5.37574 22.2906 4.73976 22.4803C4.10596 22.6664 3.27082 23.088 2.49747 23.8192C1.72702 24.5547 1.18407 25.4429 0.876621 26.1516C0.566989 26.861 0.463778 27.3647 0.498666 27.3894L0.499393 27.3887Z" fill="#AF3830"/>
<path d="M3.83262 26.691C3.92275 26.7434 4.15606 25.8581 4.70119 25.0237C5.23687 24.1784 5.85831 23.7372 5.80598 23.626C5.77037 23.5242 5.02172 23.8215 4.44316 24.7293C3.85806 25.6291 3.75121 26.6591 3.83262 26.691Z" fill="#AF3830"/>
<path d="M18.6129 17.8958C19.042 17.8958 19.3899 17.5479 19.3899 17.1188C19.3899 16.6897 19.042 16.3418 18.6129 16.3418C18.1838 16.3418 17.8359 16.6897 17.8359 17.1188C17.8359 17.5479 18.1838 17.8958 18.6129 17.8958Z" fill="#AF3830"/>
<path d="M49.2338 64.5571C49.2193 64.5673 49.204 64.5818 49.1895 64.5971C49.1945 64.5869 49.1996 64.5826 49.2091 64.5724L49.2338 64.5571Z" fill="#AF3830"/>
<path d="M78.3513 27.6881C78.3113 27.7426 78.3913 27.8866 78.6093 28.0261C78.8179 28.1599 79.1705 28.2645 79.5629 28.2296C79.5782 28.2296 79.5978 28.2245 79.6175 28.2195C79.4488 28.766 79.2351 29.2872 78.9669 29.7742C78.7736 30.1267 78.5446 30.4545 78.2968 30.7627C78.1972 30.7081 78.1035 30.6435 77.9988 30.5737C77.4777 30.2262 77.12 29.8287 76.9907 29.9035C76.8613 29.9631 77.0699 30.5788 77.7059 31.0061C77.7902 31.0657 77.8745 31.1152 77.9588 31.1551C77.6855 31.4531 77.3977 31.7264 77.0946 31.9547C76.3598 32.5209 75.5603 32.9228 74.7455 33.1816C74.6161 33.2266 74.4824 33.2564 74.353 33.2906C74.3181 33.2114 74.2781 33.1314 74.249 33.042C74.0303 32.4511 74.1546 31.9198 74.0208 31.8551C73.9561 31.8253 73.8275 31.9394 73.7381 32.1931C73.6436 32.4416 73.624 32.8291 73.7577 33.2165C73.7824 33.2811 73.8122 33.3458 73.8471 33.4054C72.586 33.6438 71.3293 33.5348 70.2565 33.1271C70.3212 32.6255 70.5298 32.2527 70.4302 32.1538C70.3808 32.1044 70.2369 32.1538 70.0777 32.3224C69.9585 32.4518 69.8393 32.6648 69.7695 32.9185C69.5362 32.8043 69.3124 32.6801 69.0943 32.5507C68.8014 32.3319 68.5179 32.1335 68.2846 31.8805C68.1407 31.7417 68.0113 31.5927 67.887 31.4437C68.0956 31.0716 68.374 30.8332 68.3239 30.6987C68.2941 30.634 68.1647 30.6144 67.9859 30.6842C67.8522 30.7336 67.6981 30.8433 67.5687 30.9967C67.4248 30.7779 67.2954 30.5599 67.1965 30.336C66.9436 29.8243 66.7895 29.3083 66.695 28.8162C67.0177 28.5131 67.3455 28.3292 67.3208 28.1904C67.3107 28.0864 66.9829 28.0566 66.6209 28.2449C66.5911 27.9273 66.586 27.6191 66.6056 27.3262C66.6253 26.9984 66.6805 26.7055 66.7495 26.422C66.7597 26.4169 66.7743 26.4169 66.7844 26.4118C67.1021 26.3377 67.3804 26.2432 67.3906 26.0942C67.4008 25.9852 67.1973 25.871 66.9087 25.8754C66.9981 25.6225 67.0977 25.3884 67.2067 25.19C67.8376 24.147 68.4532 23.894 68.5027 23.9631C68.6022 24.0627 68.1749 24.4944 67.8274 25.4677C67.6734 25.9641 67.5542 26.5899 67.6043 27.3349C67.6494 28.0697 67.8572 28.9194 68.3442 29.7189C68.5826 30.1209 68.8952 30.4988 69.2782 30.8114C69.4621 30.9851 69.6801 31.1094 69.8887 31.2482C70.1272 31.3572 70.3605 31.4815 70.6236 31.5564C71.6513 31.8987 72.9182 31.8893 74.1298 31.4124C75.3415 30.9407 76.479 30.0569 77.0844 28.7755C77.7204 27.4941 77.8992 25.8652 77.5067 24.2807C77.144 22.6868 76.1904 21.2113 74.7702 20.0891C73.3645 18.9719 71.5321 18.2022 69.5704 17.9587C67.6087 17.7101 65.503 17.9732 63.5268 18.7582C61.5548 19.533 59.708 20.829 58.3473 22.5523C56.9918 24.2705 56.1174 26.4605 55.8739 28.7697C55.6159 31.0839 56.0127 33.4927 57.1204 35.6179C58.223 37.813 59.966 39.8539 61.7387 42.0788C62.6175 43.1959 63.5217 44.3683 64.3314 45.6795C65.1309 46.9856 65.8359 48.4604 66.2335 50.0747C66.3374 50.4723 66.3876 50.8895 66.4668 51.2965C66.5068 51.5 66.5264 51.7137 66.546 51.9274C66.5657 52.1462 66.5809 52.3592 66.5758 52.5678C66.5955 53.4167 66.5213 54.2417 66.3672 55.0412C66.0845 56.6402 65.4834 58.155 64.6686 59.5403C63.8342 60.9111 62.7519 62.1329 61.4902 63.1011C60.2291 64.0794 58.7936 64.7699 57.3334 65.2263C55.3913 65.842 53.2907 65.9859 51.2796 66.1901C49.4072 66.3835 48.4638 66.2599 46.0703 66.93C46.1895 66.8603 48.0568 65.7329 49.1049 64.6805C48.9907 64.7946 48.9311 64.8738 48.9508 64.9087C48.9857 64.9683 49.2887 64.8789 49.706 64.6056C50.1232 64.3374 50.6494 63.8708 51.0913 63.2399C51.3995 62.7878 51.6175 62.3263 51.7571 61.9236C52.457 61.9636 53.1628 61.9389 53.8627 61.8589C53.9172 62.1271 53.9623 62.4397 53.9623 62.7827C53.9768 63.8454 53.5451 64.6449 53.6745 64.7248C53.729 64.7648 53.9231 64.6107 54.1215 64.2633C54.3148 63.9253 54.4842 63.3889 54.4842 62.7834C54.4842 62.4157 54.4144 62.0835 54.3206 61.7949C55.3288 61.6358 56.3223 61.3581 57.2658 60.9656C57.4293 61.1444 57.6038 61.3581 57.7622 61.6161C58.2441 62.3757 58.3131 63.141 58.4621 63.1454C58.5319 63.1454 58.6112 62.9419 58.601 62.6039C58.5959 62.2616 58.4818 61.7891 58.2034 61.3429C58.0646 61.1146 57.9003 60.9256 57.7317 60.7716C57.9999 60.6473 58.2681 60.5135 58.5312 60.3696C59.455 59.8681 60.2596 59.2968 60.9298 58.6318C61.0686 58.756 61.2125 58.9 61.347 59.0635C61.8935 59.6944 62.1065 60.3696 62.2555 60.3449C62.3202 60.3347 62.3595 60.1363 62.2999 59.8238C62.2402 59.5156 62.0614 59.0984 61.7489 58.7262C61.5897 58.5424 61.4211 58.3933 61.2525 58.2741C61.9277 57.5095 62.4496 56.6351 62.7817 55.5972C62.9358 55.6219 63.1045 55.6568 63.2833 55.7164C63.8596 55.885 64.2463 56.223 64.3662 56.1387C64.4208 56.0936 64.391 55.9352 64.2369 55.7411C64.0828 55.5427 63.8 55.329 63.4373 55.2149C63.2535 55.1604 63.0747 55.1357 62.9111 55.1357C62.9707 54.9074 63.0303 54.6785 63.0747 54.4357C63.1837 53.8942 63.2287 53.3382 63.2287 52.8069C63.3974 52.772 63.5965 52.7422 63.8051 52.7371C64.4854 52.7073 65.0168 52.9457 65.1011 52.8214C65.1411 52.7669 65.0466 52.6179 64.8132 52.4689C64.585 52.325 64.2122 52.2007 63.7899 52.216C63.5813 52.2211 63.3828 52.261 63.2135 52.3199C63.2084 52.285 63.2084 52.245 63.2084 52.2109C63.1931 52.067 63.1888 51.9281 63.1539 51.774C63.0943 51.476 63.0594 51.178 62.9802 50.88C62.8711 50.4381 62.7221 50.0057 62.5528 49.579C62.6916 49.4998 62.8559 49.4155 63.0441 49.3457C63.526 49.1567 63.9781 49.172 64.0224 49.0331C64.0421 48.9634 63.933 48.8594 63.7194 48.7998C63.5006 48.7402 63.183 48.7402 62.8602 48.8594C62.6669 48.9292 62.5077 49.0382 62.3834 49.1523C61.9611 48.1987 61.4 47.2698 60.7691 46.3613C60.9428 46.237 61.1413 46.1178 61.3702 46.019C62.3187 45.5523 63.2178 45.6316 63.2426 45.4825C63.2527 45.4179 63.034 45.2987 62.6415 45.2594C62.2541 45.2194 61.6929 45.2892 61.1464 45.5421C60.8934 45.6614 60.6797 45.8104 60.4908 45.9644C60.0539 45.3539 59.5917 44.7528 59.1199 44.1466C59.0255 44.0325 58.936 43.9184 58.8416 43.8043C58.9658 43.7003 59.0996 43.5906 59.2435 43.4816C59.7901 43.0447 60.2814 42.722 60.2218 42.5876C60.1775 42.4538 59.5313 42.5825 58.9157 43.0695C58.7718 43.1836 58.6475 43.3028 58.5436 43.422C57.8879 42.5977 57.2127 41.7582 56.5673 40.8846C56.6218 40.8301 56.6814 40.7756 56.7461 40.721C57.228 40.2842 57.744 40.0756 57.7142 39.9266C57.7041 39.7878 57.0092 39.7929 56.403 40.3242C56.3485 40.3736 56.3085 40.4187 56.2642 40.463C55.7329 39.7282 55.2161 38.9585 54.7546 38.1488C54.8687 38.0397 54.993 37.9256 55.1318 37.8108C55.8368 37.2344 56.5869 37.036 56.5622 36.887C56.552 36.8172 56.3391 36.778 56.0062 36.8376C55.6682 36.8972 55.2168 37.076 54.8091 37.4038C54.695 37.4932 54.5954 37.5927 54.5009 37.6865C54.397 37.4932 54.2872 37.2991 54.1884 37.0956C53.8504 36.44 53.5625 35.7451 53.3292 35.0343C53.5131 34.8853 53.7363 34.7116 53.9994 34.5575C54.6797 34.1454 55.3498 34.0509 55.3498 33.9019C55.3498 33.8321 55.171 33.7579 54.8629 33.763C54.5598 33.7681 54.1375 33.867 53.7355 34.1054C53.5168 34.2348 53.3336 34.3881 53.1846 34.5422C53.0211 33.9709 52.8764 33.3902 52.7827 32.8087C52.7034 32.3472 52.6533 31.8849 52.6191 31.4183C52.7383 31.3834 52.8677 31.3536 53.0065 31.3289C53.6171 31.2147 54.1389 31.3339 54.2036 31.1995C54.2334 31.1348 54.1244 31.0105 53.8911 30.9066C53.6578 30.807 53.3002 30.7474 52.9178 30.8121C52.7986 30.8368 52.6947 30.8666 52.5951 30.9066C52.5602 30.0671 52.59 29.2378 52.6896 28.4135C52.734 28.0261 52.7986 27.6438 52.8735 27.2666C52.9978 27.2419 53.1315 27.2266 53.2711 27.2171C53.9463 27.1728 54.4878 27.3807 54.567 27.252C54.6019 27.1975 54.5023 27.0536 54.2639 26.9141C54.0306 26.7803 53.6578 26.6757 53.2406 26.6953C53.1562 26.7004 53.0719 26.7149 52.992 26.7302C53.2006 25.826 53.4833 24.9472 53.846 24.1034C54.0394 24.0983 54.248 24.1034 54.4718 24.1383C55.3709 24.2575 55.9618 24.7742 56.0709 24.6747C56.1203 24.6303 56.036 24.4217 55.7779 24.1833C55.525 23.9449 55.0824 23.7014 54.5467 23.6222C54.3831 23.5975 54.2291 23.5975 54.075 23.6026C54.5169 22.6737 55.0482 21.8 55.6638 20.9954C55.823 20.9954 55.9967 21.01 56.1755 21.0398C56.9903 21.1691 57.5311 21.6256 57.6452 21.5267C57.6946 21.4817 57.6205 21.2883 57.3872 21.0652C57.1538 20.8421 56.7512 20.6131 56.2649 20.5288C56.1901 20.5135 56.121 20.5135 56.0461 20.5092C56.7214 19.6995 57.4715 18.9843 58.271 18.3541C58.42 18.389 58.5835 18.4384 58.7427 18.5082C59.4528 18.796 59.8003 19.3622 59.9398 19.3026C59.9994 19.2779 59.9994 19.0795 59.8504 18.8062C59.7014 18.538 59.3889 18.2153 58.9513 18.0314C58.8968 18.0067 58.8372 17.9914 58.7827 17.9718C59.6273 17.3656 60.5256 16.8495 61.4495 16.4323C61.613 16.5268 61.7918 16.6409 61.9611 16.795C62.5172 17.2718 62.696 17.8824 62.8399 17.8628C62.9097 17.8577 62.9591 17.6738 62.8995 17.3809C62.845 17.093 62.6509 16.7107 62.3086 16.4025C62.2141 16.3233 62.1196 16.2535 62.0207 16.1939C62.1697 16.1293 62.3238 16.0646 62.4779 16.005C63.1779 15.7469 63.8931 15.5478 64.6134 15.3944C64.7377 15.4838 64.8714 15.5928 64.9957 15.7273C65.4325 16.1641 65.6062 16.6657 65.7552 16.6511C65.825 16.6409 65.8744 16.4825 65.8294 16.2288C65.7894 15.9803 65.6404 15.643 65.3678 15.3595C65.3329 15.3246 65.2937 15.2948 65.2588 15.265C66.3316 15.0812 67.4095 15.0216 68.4721 15.0717C68.5514 15.2054 68.6262 15.3544 68.6909 15.5238C68.9439 16.1249 68.9046 16.686 69.0434 16.726C69.1132 16.7456 69.2222 16.6119 69.2818 16.3488C69.3414 16.0958 69.3313 15.7128 69.1779 15.3305C69.1481 15.2512 69.1081 15.1764 69.0689 15.1073C69.3669 15.132 69.6649 15.1669 69.9629 15.2113C70.9761 15.3704 71.9544 15.643 72.8833 16.0108C72.8884 16.0602 72.8935 16.1147 72.8986 16.17C72.9429 16.8357 72.65 17.3373 72.7598 17.4361C72.8092 17.4804 72.9734 17.4063 73.137 17.1781C73.2911 16.9695 73.4154 16.622 73.4154 16.2296C74.4431 16.6867 75.3916 17.2726 76.2413 17.9631C76.2464 18.1419 76.2413 18.3403 76.2064 18.5489C76.1119 19.2343 75.7543 19.706 75.859 19.815C75.904 19.8645 76.0727 19.8049 76.266 19.6014C76.4594 19.4029 76.6534 19.0548 76.7232 18.6281C76.7334 18.5489 76.7334 18.474 76.7377 18.3999C77.4333 19.0359 78.0388 19.7504 78.5308 20.5353C78.4959 20.7243 78.4465 20.9227 78.3622 21.1313C78.0838 21.8909 77.5627 22.3379 77.6419 22.4622C77.6768 22.5218 77.8752 22.4818 78.1289 22.2986C78.3818 22.1148 78.6755 21.7724 78.8492 21.3203C78.8688 21.2709 78.879 21.2207 78.8943 21.1713C79.3362 22.0108 79.6494 22.8896 79.8181 23.7683C79.7287 23.8773 79.6393 23.9871 79.5302 24.0961C78.964 24.7023 78.3186 24.9799 78.3586 25.1239C78.3782 25.1885 78.5774 25.2082 78.8797 25.1137C79.1777 25.0243 79.5702 24.8055 79.9075 24.4581C79.9126 24.453 79.9176 24.4479 79.9227 24.4384C80.0666 25.5411 80.0121 26.6437 79.7737 27.6765C79.6894 27.691 79.6051 27.7063 79.5157 27.7114C78.9197 27.7761 78.4378 27.5726 78.3535 27.6918L78.3513 27.6881Z" fill="#AF3830"/>
</svg>
