<?xml version="1.0" standalone="no"?>
<!DOCTYPE svg PUBLIC "-//W3C//DTD SVG 20010904//EN"
 "http://www.w3.org/TR/2001/REC-SVG-20010904/DTD/svg10.dtd">
<svg version="1.0" xmlns="http://www.w3.org/2000/svg"
 width="512.000000pt" height="512.000000pt" viewBox="0 0 512.000000 512.000000"
 preserveAspectRatio="xMidYMid meet">
<metadata>
Created by potrace 1.14, written by Peter Selinger 2001-2017
</metadata>
<g transform="translate(0.000000,512.000000) scale(0.100000,-0.100000)"
fill="#000000" stroke="none">
<path d="M0 2560 l0 -2560 2560 0 2560 0 0 2560 0 2560 -2560 0 -2560 0 0
-2560z m1584 2229 c83 -38 111 -300 72 -664 -20 -187 -17 -320 9 -420 22 -84
98 -246 150 -324 54 -79 110 -145 100 -116 -4 11 -10 67 -12 125 -8 177 30
304 160 530 l71 124 11 -49 10 -49 23 73 c59 182 167 339 276 402 80 45 158
33 191 -31 28 -55 21 -87 -42 -169 -83 -110 -36 -258 116 -360 31 -20 61 -41
68 -45 12 -6 -17 65 -58 145 -10 22 -17 39 -14 39 15 0 295 -233 326 -271 53
-65 106 -151 129 -209 26 -67 40 -173 31 -232 -4 -26 -4 -45 0 -42 28 17 137
183 183 277 98 204 109 304 76 657 -24 258 -22 359 11 489 28 111 81 153 152
120 40 -18 51 -50 43 -122 -12 -122 27 -227 177 -475 141 -233 172 -336 171
-567 -1 -232 -25 -352 -105 -522 -35 -74 -146 -249 -199 -313 -20 -25 -20 -24
1 30 38 98 88 244 104 305 31 118 66 388 66 505 1 185 -28 280 -144 475 -39
66 -91 156 -114 200 -51 95 -51 93 -27 -131 21 -199 15 -420 -15 -522 -49
-166 -116 -268 -246 -371 l-73 -58 58 -27 c132 -60 220 -202 220 -354 0 -35
-3 -43 -17 -40 -11 2 -21 22 -30 63 -34 148 -141 241 -292 253 -72 5 -115 22
-130 50 -5 10 -9 72 -8 138 1 79 -3 129 -12 149 l-13 30 -13 -49 c-14 -53 -35
-76 -71 -76 -39 0 -64 31 -74 92 -17 111 -76 189 -206 274 -101 67 -177 147
-211 221 -34 74 -43 189 -20 260 l16 48 -30 -35 c-96 -110 -210 -460 -209
-644 1 -34 9 -85 20 -116 11 -30 19 -66 20 -79 0 -35 -28 -61 -66 -61 -51 0
-89 50 -130 170 l-18 55 -10 -60 c-6 -42 -5 -82 4 -135 22 -130 23 -140 10
-169 -15 -37 -61 -59 -136 -64 -147 -11 -254 -105 -287 -252 -10 -44 -19 -61
-32 -64 -17 -3 -18 3 -11 68 3 39 15 96 27 126 28 76 111 164 188 200 l59 28
-59 44 c-131 99 -212 218 -260 383 -30 104 -36 324 -15 524 24 219 23 221 -23
133 -21 -40 -61 -110 -89 -154 -76 -122 -131 -237 -153 -321 -28 -108 -26
-278 6 -484 31 -208 51 -278 140 -513 14 -38 22 -65 16 -60 -35 37 -147 211
-189 292 -75 148 -99 224 -116 375 -19 157 -20 219 -5 325 21 159 52 233 186
456 53 87 109 193 126 235 28 70 31 87 30 184 l-1 108 30 25 c32 27 63 31 102
14z m-515 -1467 c23 -22 31 -45 45 -122 23 -125 45 -178 114 -280 42 -63 69
-91 102 -109 l45 -25 -35 -7 c-67 -14 -181 28 -237 89 l-23 25 0 -24 c0 -36
25 -121 52 -181 24 -50 58 -97 190 -261 32 -39 55 -73 53 -75 -7 -7 -108 30
-177 64 -137 69 -230 244 -258 484 -15 130 -13 354 4 394 26 61 80 73 125 28z
m3088 4 l28 -24 0 -199 c0 -220 -12 -304 -56 -428 -35 -96 -111 -204 -171
-241 -44 -28 -195 -87 -209 -82 -4 2 11 26 34 54 196 239 227 294 256 448 l9
48 -27 -29 c-59 -65 -163 -106 -237 -94 l-39 7 45 24 c31 17 60 47 93 95 69
100 96 162 118 270 10 52 26 109 34 125 28 55 77 65 122 26z m-768 -587 c-9
-76 -38 -155 -80 -217 -25 -38 -29 -52 -29 -116 0 -154 -83 -290 -203 -335
-36 -14 -142 -14 -167 -1 -16 8 -20 5 -29 -23 -5 -17 -13 -48 -17 -67 l-7 -35
-14 40 c-10 26 -13 64 -10 110 7 127 64 206 275 382 108 90 194 185 257 285
16 26 30 46 31 45 1 -1 -2 -31 -7 -68z m-1617 2 c67 -104 129 -170 262 -281
188 -156 246 -239 253 -365 3 -46 0 -84 -10 -110 l-14 -40 -7 35 c-4 19 -12
50 -17 67 -9 28 -13 31 -29 23 -31 -17 -141 -11 -186 9 -59 27 -112 84 -148
160 -26 55 -31 81 -35 156 -2 68 -8 96 -22 117 -40 56 -80 156 -87 221 -5 37
-6 67 -3 66 3 0 23 -26 43 -58z m-94 -288 c66 -57 223 -357 292 -558 41 -119
83 -306 95 -420 3 -33 9 -73 12 -89 l5 -29 33 52 c18 29 47 98 65 154 40 126
42 131 69 135 32 5 36 -20 23 -132 -14 -130 -32 -186 -82 -266 -70 -111 -83
-146 -70 -184 6 -18 33 -57 61 -87 70 -75 83 -103 79 -169 -9 -165 -3 -181 91
-237 95 -56 127 -123 95 -198 l-13 -30 -5 50 c-7 60 -22 73 -120 111 -44 16
-89 43 -115 67 -32 30 -48 38 -66 33 -12 -3 -55 -41 -95 -86 -168 -185 -364
-272 -544 -242 -276 46 -538 332 -538 586 0 79 19 147 64 232 49 94 77 127 99
119 24 -10 22 -30 -12 -110 -86 -204 -53 -356 112 -520 138 -137 282 -200 409
-178 131 22 263 95 398 220 104 96 135 152 114 207 -3 8 -25 31 -50 51 l-43
36 -20 -38 c-23 -45 -83 -104 -127 -127 -59 -29 -104 -30 -179 -3 -146 52
-143 45 -38 81 86 30 163 76 163 97 0 5 -19 9 -43 9 -116 0 -213 60 -342 211
-47 56 -85 103 -83 104 2 2 50 -8 108 -21 144 -32 148 -32 108 12 -121 131
-183 326 -158 498 6 45 14 90 16 102 6 25 -3 28 -255 84 -101 22 -186 42 -188
44 -3 3 70 23 281 77 l38 10 -23 17 c-13 9 -57 40 -99 67 -66 44 -75 54 -78
83 -8 82 82 95 290 40 l121 -32 -39 -18 c-21 -9 -52 -22 -68 -28 l-29 -10 42
-40 c37 -36 41 -45 41 -88 l0 -48 90 -35 c50 -20 90 -34 90 -31 0 3 -12 35
-26 71 -34 85 -84 282 -84 331 0 30 6 43 26 59 33 26 75 27 102 4z m1860 1
c42 -29 43 -54 12 -181 -16 -66 -42 -157 -59 -203 -17 -46 -31 -85 -31 -86 0
0 37 14 83 32 45 19 87 34 92 34 6 0 9 19 6 46 -3 45 -2 48 53 100 l57 53 -38
20 -38 19 30 7 c17 4 64 18 105 31 133 43 195 27 188 -48 -3 -30 -13 -40 -100
-97 -54 -36 -96 -66 -94 -68 2 -2 73 -22 157 -44 85 -23 155 -42 157 -44 2 -2
-41 -13 -95 -25 -54 -12 -155 -35 -225 -52 -119 -28 -128 -31 -123 -51 16 -76
25 -186 20 -235 -14 -125 -68 -255 -144 -347 -23 -27 -37 -51 -32 -53 4 -1 57
8 117 22 60 13 111 23 113 21 8 -8 -172 -206 -219 -240 -66 -48 -137 -75 -203
-75 l-52 -1 41 -38 c30 -29 63 -46 127 -67 48 -15 83 -32 79 -36 -4 -4 -48
-22 -97 -39 -99 -34 -137 -34 -204 1 -42 21 -102 83 -126 130 l-16 31 -45 -37
c-24 -20 -47 -47 -50 -59 -10 -41 48 -137 124 -205 158 -141 314 -220 439
-220 155 0 380 153 465 316 69 132 71 238 7 389 -26 63 -36 105 -25 105 2 0
11 3 20 6 18 7 94 -104 126 -187 28 -69 36 -171 21 -251 -47 -245 -318 -487
-566 -505 -162 -12 -349 75 -485 224 -56 62 -113 103 -144 103 -10 0 -27 -11
-37 -24 -18 -23 -63 -47 -167 -91 -48 -21 -72 -55 -73 -107 l-1 -33 -13 35
c-31 80 -10 122 92 190 37 25 76 60 87 79 18 31 19 41 9 108 -15 100 -4 131
66 207 32 35 64 79 70 99 14 41 2 73 -67 183 -49 79 -79 173 -92 296 -11 101
-5 138 24 138 22 0 32 -20 61 -115 14 -49 45 -128 68 -175 48 -99 45 -103 72
93 29 214 88 401 195 622 64 132 126 233 173 283 35 36 69 41 105 16z m-1160
-1274 c46 -28 72 -89 72 -171 0 -37 9 -119 20 -184 12 -65 20 -125 18 -133 -2
-8 -23 21 -48 64 -26 46 -67 100 -98 128 -104 96 -121 194 -41 237 19 10 20 8
14 -24 -7 -37 10 -82 41 -108 16 -13 17 -10 12 44 -8 95 -63 131 -139 91 -17
-8 -32 -14 -34 -12 -7 7 48 70 69 78 36 15 80 11 114 -10z m519 -26 c18 -20
31 -39 29 -41 -2 -3 -18 3 -35 11 -78 41 -132 4 -139 -97 l-4 -62 32 40 c28
35 31 45 26 83 -5 40 -4 42 14 32 29 -15 50 -51 50 -83 0 -46 -28 -93 -90
-151 -32 -29 -70 -75 -84 -102 -14 -27 -34 -62 -45 -79 -27 -39 -27 -25 -1
124 11 62 20 143 20 180 1 125 58 197 150 187 37 -3 51 -11 77 -42z"/>
<path d="M3148 2348 c-9 -7 -19 -29 -23 -48 -9 -42 -4 -39 24 18 23 46 23 48
-1 30z"/>
<path d="M2974 2198 c-17 -18 -36 -41 -44 -51 -12 -17 -11 -18 16 -11 40 9 98
39 113 58 12 14 10 16 -7 16 -12 0 -24 5 -27 10 -10 16 -19 12 -51 -22z"/>
<path d="M1972 2316 c12 -25 23 -44 25 -42 9 9 -12 68 -28 77 -18 9 -17 6 3
-35z"/>
<path d="M2095 2220 c-3 -5 -16 -10 -28 -10 -21 -1 -20 -2 8 -25 31 -26 112
-61 120 -53 7 6 -74 98 -85 98 -5 0 -12 -4 -15 -10z"/>
<path d="M1707 2165 c14 -73 56 -204 79 -250 81 -161 154 -283 154 -258 0 7
-18 58 -40 115 -46 121 -202 437 -193 393z"/>
<path d="M1476 1899 c59 -102 207 -298 248 -330 40 -32 146 -79 208 -94 34 -8
64 -13 66 -11 7 8 -41 152 -56 170 -51 57 -200 153 -357 230 -90 43 -120 53
-109 35z"/>
<path d="M1544 1585 c24 -99 99 -211 188 -281 67 -53 80 -83 51 -122 -16 -22
-31 -28 -74 -32 l-54 -6 55 -27 c62 -30 105 -34 157 -12 47 20 65 19 94 -4
l24 -18 0 67 c1 58 5 75 32 119 l32 51 -18 52 -18 52 -49 -3 c-128 -6 -298 57
-378 142 -46 49 -49 50 -42 22z"/>
<path d="M1990 1045 c0 -11 -11 -40 -25 -64 -14 -23 -25 -46 -25 -49 0 -9 41
31 59 58 15 21 16 29 4 50 -11 22 -13 23 -13 5z"/>
<path d="M3349 2058 c-58 -116 -167 -372 -172 -407 -1 -9 -5 -20 -9 -26 -9
-15 -50 -156 -46 -160 11 -11 117 22 195 60 78 39 98 54 141 108 66 83 194
268 189 274 -8 7 -110 -37 -187 -81 -41 -24 -96 -55 -121 -69 -25 -14 -72 -48
-104 -74 -60 -49 -61 -47 -13 24 15 23 33 54 39 70 5 15 27 57 49 93 21 36 50
103 64 149 29 92 46 161 40 161 -2 0 -32 -55 -65 -122z"/>
<path d="M3537 1566 c-67 -81 -254 -151 -382 -145 l-50 3 -16 -54 -16 -54 31
-49 c27 -44 31 -59 31 -121 l0 -71 22 23 c26 26 47 28 96 7 52 -22 95 -18 157
12 l55 27 -40 3 c-68 5 -82 12 -95 42 -17 43 -6 64 64 119 35 28 81 77 104
111 40 60 86 165 80 183 -2 5 -20 -12 -41 -36z"/>
<path d="M3116 1036 c-8 -30 2 -51 38 -85 24 -23 39 -18 16 5 -6 6 -19 32 -29
59 -17 45 -18 46 -25 21z"/>
</g>
</svg>
