<svg width="276" height="97" viewBox="0 0 276 97" fill="none" xmlns="http://www.w3.org/2000/svg">
<path d="M14.1123 82.4119H16.768L19.6812 79.504L34.3956 79.4969L37.2235 82.3159L179.236 82.3075L181.349 82.3071L183.462 82.3068L238.762 82.3161L241.59 79.4971L256.305 79.5042L259.218 82.4121H261.873V79.7612L258.961 76.8528L258.953 62.164L261.777 59.3407L261.769 50.5904L261.769 48.4812L261.769 46.3718L261.792 37.6586L258.968 34.8354L258.975 20.1466L261.888 17.2383V14.5874H259.233L256.319 17.4953L241.605 17.5023L238.777 14.6833L183.477 14.6919L181.363 14.6921L179.251 14.6926L37.2386 14.683L34.4107 17.502L19.6962 17.4949L16.783 14.587H14.1274V17.2379L17.0403 20.1463L17.0479 34.8351L14.224 37.6583L14.2173 46.3717L14.2169 48.4809L14.2173 50.5903L14.2089 59.3404L17.0328 62.1636L17.0253 76.8525L14.1123 79.7608V82.4119Z" fill="#FEECD6"/>
<path d="M20.2964 96.5C19.664 96.4971 19.0394 96.3604 18.4638 96.0989C17.8881 95.8374 17.3745 95.4572 16.9568 94.9831C16.18 94.1346 15.7413 93.0315 15.7236 91.8821C15.7162 91.5442 15.7504 91.2066 15.8255 90.877C16.1392 89.536 17.0048 88.4207 17.9722 87.3936L21.1607 84.2128L32.6505 84.2059L35.4788 87.0249L179.332 87.0163L181.348 87.0161L183.363 87.0156L240.505 87.0252L243.333 84.2061L254.823 84.213L258.011 87.3938C258.978 88.4209 259.844 89.5363 260.158 90.8772C260.233 91.2068 260.267 91.5444 260.26 91.8824C260.242 93.0317 259.803 94.1348 259.027 94.9833C258.609 95.4573 258.095 95.8376 257.52 96.099C256.944 96.3604 256.32 96.4971 255.687 96.5C254.701 96.4999 253.755 96.1095 253.056 95.4144C252.403 94.8072 251.974 93.9972 251.839 93.116C251.79 92.6343 251.851 92.1479 252.018 91.6934C252.185 91.2389 252.454 90.8283 252.803 90.4927C253.138 90.1902 253.572 90.021 254.024 90.0171C254.475 90.0132 254.913 90.175 255.252 90.4716C256.056 91.0933 256.209 92.1462 255.676 92.3569C255.682 92.1902 255.635 92.0259 255.541 91.8878C255.447 91.7497 255.312 91.645 255.155 91.5889C254.984 91.5046 254.79 91.4802 254.604 91.5197C254.418 91.5592 254.251 91.6603 254.13 91.8065C253.97 91.934 253.846 92.1006 253.769 92.2903C253.693 92.4799 253.667 92.686 253.694 92.8886C253.785 93.3517 254.022 93.7732 254.373 94.0901C255.278 94.9864 256.67 94.8201 257.629 93.7438C257.947 93.4255 258.179 93.0314 258.302 92.5986C258.425 92.1659 258.435 91.709 258.331 91.2713C258.17 90.3562 257.319 89.3431 256.689 88.7143L254.049 86.0788L244.106 86.0723L241.279 88.8907L181.347 88.8814L34.7026 88.8904L31.8754 86.0723L21.9324 86.0787L19.2929 88.7143C18.6626 89.3432 17.8115 90.3561 17.6507 91.2713C17.5469 91.709 17.557 92.1659 17.6799 92.5986C17.8028 93.0313 18.0345 93.4255 18.353 93.7437C19.3115 94.82 20.7038 94.9861 21.6088 94.09C21.9589 93.7731 22.1968 93.3516 22.2871 92.8885C22.3142 92.6859 22.2884 92.4798 22.212 92.2902C22.1357 92.1006 22.0115 91.9339 21.8516 91.8064C21.7303 91.6602 21.563 91.5592 21.377 91.5197C21.1909 91.4802 20.997 91.5045 20.8266 91.5888C20.6693 91.645 20.5339 91.7497 20.4402 91.8878C20.3465 92.0259 20.2993 92.1902 20.3053 92.3568C19.7727 92.1461 19.9254 91.0932 20.7289 90.4715C21.0689 90.1748 21.5062 90.0131 21.9578 90.017C22.4094 90.021 22.8438 90.1903 23.1786 90.4928C23.528 90.8285 23.7963 91.2391 23.9634 91.6936C24.1305 92.1481 24.1919 92.6345 24.143 93.1161C24.0082 93.9973 23.5792 94.8073 22.9254 95.4145C22.2274 96.1092 21.2821 96.4995 20.2964 96.5ZM12.2431 83.3694V78.9886L15.156 76.0795L15.1624 62.9361L12.3392 60.1127L12.3487 48.4813L12.3541 36.887L15.1773 34.0636L15.1711 20.92L12.2582 18.011V13.6302L13.1684 12.7218H17.557L20.471 15.6295L33.6373 15.6357L36.4656 12.8174L181.364 12.8268L239.55 12.8177L242.378 15.6361L255.545 15.6299L258.459 12.722H262.847L263.757 13.6305V18.0112L260.845 20.9202L260.838 34.0638L263.661 36.8873L263.637 48.4815L263.647 60.1127L260.823 62.9362L260.83 76.0796L263.743 78.9888V83.3696L262.832 84.2781H258.444L255.53 81.3703L242.364 81.3641L239.535 84.1825L181.349 84.1733L36.4504 84.1821L33.6221 81.3638L20.456 81.3701L17.5419 84.278H13.1533L12.2431 83.3694ZM14.1121 82.4122H16.7679L19.681 79.5043L34.3954 79.4973L37.2233 82.3162L179.236 82.3079L181.349 82.3074L183.462 82.3072L238.762 82.3165L241.59 79.4975L256.305 79.5046L259.218 82.4125H261.873V79.7615L258.96 76.8532L258.953 62.1643L261.777 59.341L261.768 50.5908L261.769 48.4815L261.768 46.3722L261.792 37.6589L258.968 34.8357L258.975 20.147L261.888 17.2386V14.5877H259.232L256.319 17.4956L241.605 17.5027L238.777 14.6836L183.476 14.6922L181.363 14.6924L179.251 14.6929L37.2384 14.6834L34.4106 17.5023L19.696 17.4953L16.7828 14.5874H14.1272V17.2383L17.0401 20.1466L17.0477 34.8354L14.2238 37.6587L14.2171 46.3721L14.2167 48.4813L14.2171 50.5906L14.2087 59.3408L17.0326 62.164L17.0251 76.8528L14.1121 79.7612V82.4122ZM4.62567 80.8022C3.47434 80.7845 2.36937 80.3461 1.51936 79.5707C-0.228308 78.0195 -0.594527 75.3036 1.08743 73.6109C1.69566 72.9581 2.50701 72.5297 3.38981 72.3952C3.87231 72.3463 4.35961 72.4076 4.8149 72.5744C5.27018 72.7412 5.68155 73.0091 6.01789 73.3578C6.3208 73.6921 6.49027 74.1258 6.49414 74.5765C6.49802 75.0272 6.33602 75.4637 6.0389 75.8032C5.4162 76.6053 4.36146 76.7578 4.15035 76.226C4.31731 76.232 4.48187 76.1848 4.6202 76.0913C4.75852 75.9977 4.86342 75.8627 4.91972 75.7056C5.00417 75.5355 5.02859 75.3419 4.98903 75.1562C4.94947 74.9705 4.84825 74.8036 4.70176 74.6826C4.57402 74.5229 4.40707 74.3989 4.21713 74.3227C4.02719 74.2464 3.82073 74.2206 3.61781 74.2475C3.15391 74.3377 2.73169 74.5752 2.41423 74.9247C1.5164 75.8281 1.68296 77.2183 2.76113 78.1752C3.07991 78.4931 3.47478 78.7243 3.90825 78.847C4.34173 78.9697 4.79943 78.9798 5.23789 78.8763C6.1546 78.7157 7.16921 77.8658 7.79948 77.2369L10.4393 74.6016L10.4457 64.6759L7.62302 61.8538L7.63206 47.5978L7.63817 35.1457L10.4613 32.3236L10.4549 22.398L7.81483 19.7629C7.18479 19.1337 6.17036 18.2841 5.25364 18.1233C4.81516 18.0198 4.35744 18.0299 3.92396 18.1526C3.49047 18.2753 3.09564 18.5067 2.77691 18.8246C1.69874 19.7813 1.53238 21.1715 2.43001 22.0748C2.7474 22.4244 3.16963 22.662 3.63357 22.752C3.83649 22.779 4.04295 22.7531 4.23288 22.6769C4.42282 22.6007 4.58977 22.4767 4.71752 22.317C4.864 22.1959 4.96523 22.029 5.00479 21.8433C5.04435 21.6576 5.01992 21.4641 4.93547 21.2939C4.87923 21.1369 4.77434 21.0018 4.636 20.9082C4.49767 20.8147 4.33308 20.7675 4.1661 20.7736C4.37722 20.242 5.43174 20.3943 6.0545 21.1964C6.35165 21.5358 6.51366 21.9723 6.50977 22.4231C6.50589 22.8738 6.33639 23.3075 6.03343 23.6417C5.69708 23.9905 5.28569 24.2583 4.83042 24.4251C4.37514 24.5919 3.88786 24.6532 3.40537 24.6044C2.52263 24.4698 1.71134 24.0415 1.10302 23.3889C-0.579082 21.696 -0.213107 18.9802 1.53495 17.4289C2.38502 16.6536 3.48995 16.2157 4.64128 16.1978C4.97986 16.1909 5.31802 16.2246 5.64835 16.2991C6.99151 16.612 8.10893 17.4764 9.1378 18.4418L12.3238 21.6248L12.3313 33.0947L9.50726 35.9181L9.50121 46.4691L9.50096 48.4521L9.50121 50.4935L9.49183 61.0813L12.316 63.905L12.3084 75.3748L9.12236 78.5578C8.0931 79.5231 6.9759 80.3876 5.63294 80.7008C5.30252 80.7751 4.9643 80.8091 4.62567 80.8022ZM271.36 80.8025C271.021 80.8094 270.683 80.7752 270.353 80.7008C269.01 80.3878 267.892 79.5235 266.863 78.558L263.677 75.375L263.67 63.9048L266.494 61.0814L266.485 50.4936V48.4813V46.4691L266.508 35.9182L263.684 33.0946L263.692 21.6248L266.878 18.4418C267.907 17.4765 269.024 16.6121 270.367 16.2991C270.698 16.2246 271.036 16.1905 271.374 16.1974C272.526 16.2151 273.631 16.653 274.481 17.4285C276.229 18.9797 276.594 21.6956 274.912 23.3883C274.304 24.041 273.493 24.4693 272.61 24.6037C272.128 24.6525 271.64 24.5912 271.185 24.4245C270.73 24.2577 270.318 23.9898 269.982 23.641C269.679 23.3068 269.51 22.8732 269.506 22.4225C269.502 21.9718 269.664 21.5354 269.961 21.196C270.584 20.3937 271.638 20.2413 271.85 20.7732C271.683 20.7671 271.518 20.8143 271.38 20.9079C271.241 21.0014 271.137 21.1365 271.08 21.2936C270.996 21.4637 270.971 21.6572 271.011 21.8429C271.051 22.0285 271.152 22.1955 271.298 22.3166C271.426 22.4763 271.593 22.6003 271.783 22.6765C271.973 22.7527 272.179 22.7785 272.382 22.7514C272.846 22.6614 273.268 22.4239 273.586 22.0744C274.484 21.171 274.317 19.7809 273.239 18.824C272.92 18.506 272.525 18.2748 272.092 18.1521C271.658 18.0294 271.201 18.0193 270.762 18.1229C269.845 18.2835 268.831 19.1334 268.201 19.7623L265.561 22.3975L265.554 32.3232L268.377 35.1453L268.354 48.4808L268.363 61.854L265.54 64.6762L265.546 74.6018L268.186 77.2369C268.816 77.8661 269.831 78.7157 270.748 78.8765C271.186 78.98 271.644 78.97 272.077 78.8472C272.511 78.7245 272.906 78.4932 273.224 78.1752C274.303 77.2185 274.469 75.8283 273.571 74.925C273.254 74.5755 272.832 74.3379 272.368 74.2478C272.165 74.2208 271.958 74.2467 271.768 74.3229C271.578 74.3991 271.411 74.5231 271.284 74.6828C271.137 74.8039 271.036 74.9708 270.997 75.1565C270.957 75.3422 270.981 75.5357 271.066 75.7059C271.122 75.8629 271.227 75.998 271.365 76.0915C271.504 76.1851 271.668 76.2322 271.835 76.2262C271.624 76.7581 270.569 76.6055 269.947 75.8034C269.649 75.464 269.487 75.0275 269.491 74.5767C269.495 74.126 269.665 73.6924 269.968 73.3581C270.304 73.0093 270.715 72.7415 271.171 72.5747C271.626 72.4079 272.113 72.3466 272.596 72.3954C273.478 72.53 274.29 72.9584 274.898 73.6111C276.58 75.3038 276.214 78.0199 274.466 79.5709C273.616 80.3462 272.511 80.7843 271.36 80.8025ZM32.6657 12.7938L21.1757 12.787L17.9872 9.60623C17.02 8.57913 16.1543 7.46378 15.8405 6.12289C15.7654 5.79328 15.7312 5.45572 15.7386 5.11777C15.7564 3.96843 16.1951 2.86549 16.9719 2.01693C17.3895 1.54295 17.9031 1.16273 18.4787 0.901314C19.0543 0.639885 19.6789 0.503212 20.3113 0.500298C21.2968 0.500992 22.242 0.891319 22.94 1.58591C23.5937 2.19315 24.023 3.00302 24.1577 3.88425C24.2066 4.36576 24.145 4.85198 23.9781 5.30634C23.8111 5.7607 23.5429 6.1712 23.1936 6.50692C22.8588 6.80936 22.4244 6.97858 21.9729 6.98245C21.5214 6.98633 21.0841 6.82459 20.7442 6.52795C19.9407 5.90626 19.7881 4.85346 20.3206 4.64272C20.3145 4.80941 20.3617 4.97369 20.4555 5.11178C20.5492 5.24988 20.6845 5.35458 20.8419 5.41073C21.0123 5.49504 21.2062 5.51942 21.3922 5.47993C21.5782 5.44042 21.7454 5.33936 21.8667 5.19312C22.0267 5.06563 22.1509 4.89899 22.2273 4.70937C22.3036 4.51975 22.3295 4.31366 22.3024 4.11109C22.2121 3.64799 21.9742 3.22653 21.6241 2.90961C20.7191 2.01333 19.3266 2.1796 18.3683 3.25596C18.0498 3.57413 17.818 3.96824 17.6951 4.40097C17.5721 4.8337 17.562 5.29056 17.6658 5.72828C17.8268 6.64342 18.6779 7.65646 19.3082 8.28521L21.9477 10.9207L31.8908 10.9272L34.7177 8.10887L181.361 8.1184L241.294 8.10912L244.121 10.9274L254.063 10.921L256.703 8.28545C257.333 7.6565 258.184 6.64365 258.345 5.72852C258.449 5.29082 258.439 4.83398 258.316 4.40126C258.193 3.96854 257.962 3.57442 257.643 3.2562C256.685 2.17983 255.292 2.01376 254.387 2.90985C254.037 3.22678 253.799 3.64825 253.709 4.11133C253.682 4.3139 253.708 4.52 253.784 4.70963C253.86 4.89925 253.984 5.06588 254.145 5.19335C254.266 5.3396 254.433 5.44066 254.619 5.48016C254.805 5.51967 254.999 5.49529 255.169 5.41097C255.327 5.35483 255.462 5.25013 255.556 5.11203C255.649 4.97394 255.697 4.80965 255.691 4.64296C256.223 4.85371 256.071 5.9065 255.267 6.52818C254.927 6.82484 254.49 6.98658 254.038 6.9827C253.587 6.97883 253.152 6.80961 252.818 6.50716C252.468 6.17145 252.2 5.76089 252.033 5.30641C251.866 4.85194 251.804 4.36558 251.853 3.88396C251.988 3.00268 252.417 2.19276 253.071 1.58562C253.769 0.890518 254.715 0.500137 255.702 0.5C256.334 0.502914 256.959 0.639603 257.534 0.901024C258.11 1.16245 258.623 1.54266 259.041 2.01665C259.818 2.86514 260.257 3.9681 260.274 5.11747C260.282 5.45542 260.248 5.79298 260.172 6.12259C259.859 7.46363 258.993 8.57883 258.026 9.60593L254.837 12.7867L243.348 12.7935L240.519 9.97438L183.378 9.98344H181.362L179.347 9.98386L35.4939 9.97414L32.6657 12.7938Z" fill="#AF3830"/>
</svg>
