<svg xmlns="http://www.w3.org/2000/svg" fill="none" viewBox="0 0 56 56">
  <g fill="#337C76" clip-path="url(#a)">
    <path d="M18.966 30.551c.15 1.259.822 2.457 1.75 3.124.82.61 2.122.9 3.125.347.133.305.226.613.286.938l.141.763.238-.739c.653-2.024-1.046-3.893-1.58-4.416-.483-.482-1.02-.91-1.54-1.326-.238-.19-.483-.387-.719-.585-1.008-.831-1.854-1.813-2.742-3.186l-.422-.652.063.774c.096 1.18.57 2.324 1.412 3.403a5.87 5.87 0 0 0-.012 1.557v-.002Zm1.323-.19c.166.142.335.281.511.416l.072.057c.028.4.087.72.176.965-.314-.441-.547-.92-.759-1.438Zm1.212 1.99s.003 0 .004.002c.258.099.552.01.877-.263.483.445.839.852 1.11 1.274-.756-.082-1.423-.422-1.991-1.012ZM9.872 29.086l.01.013c.075.094.16.2.28.275.761.503 1.598.88 2.56 1.157l.635.182-.435-.499c-.55-.63-1.123-1.306-1.566-2.028l-.031-.038c-1.347-1.297-1.794-2.985-1.958-4.484.133.208.273.4.423.575l.029.027c.67.521 1.684 1.196 2.755 1.036l.62-.093-.563-.276c-.754-.369-1.143-1.081-1.52-1.77l-.025-.034c-.426-.482-.741-1.129-.965-1.974a10.34 10.34 0 0 1-.236-1.18c-.062-.405-.134-.801-.318-1.184-.057-.128-.228-.404-.448-.527a.901.901 0 0 0-.813-.086c-.292.11-.522.357-.615.66-.116.356-.118.672-.12 1.006v.605c0 .367-.003.735 0 1.102-.002 2.11.209 5.159 2.074 7.276l.228.262v-.003Z"/>
    <path d="M10.057 18.303c.094.662.34 1.283.579 1.884.039.1.08.199.12.304.517 1.222 1.235 2.448 2.259 3.858l.883 1.216-.543-1.401c-.497-1.28-.996-2.66-1.286-4.082-.076-.334-.12-.686-.162-1.026a10.957 10.957 0 0 0-.165-1.049c-.448-2.475-.456-4.414-.022-6.098.38-1.398 1.16-2.66 1.915-3.88.578-.936 1.172-1.897 1.603-2.937-.028.856-.12 1.729-.215 2.643-.191 1.838-.388 3.738-.057 5.577.158.956.476 1.96.945 2.977.095.224.229.448.42.7.77 1.047 1.755 1.972 2.933 2.753-.78.234-1.46.604-1.988 1.082-1.083.952-1.642 2.48-1.535 4.193l.39.013c.092-.722.256-1.326.505-1.85.615-1.345 1.954-2.166 3.585-2.197l.226-.007c.383.013.753-.16 1.013-.474.262-.317.366-.732.281-1.1a1.578 1.578 0 0 0-.053-.2l-.008-.026-.047-.172a6.082 6.082 0 0 1-.039-.142c-.05-.22-.094-.447-.125-.644-.148-.814-.112-1.696.108-2.631.14.686.364 1.434.765 2.101.095.173.225.345.34.498l.043.057c.219.304.748.413 1.073.224a.844.844 0 0 0 .437-.525.857.857 0 0 0-.072-.69c-.54-1.09-.46-2.323-.314-3.385.253-1.664.843-3.313 1.328-4.562.447-1.136.99-1.99 1.644-2.583a4.134 4.134 0 0 0-.467 2.504c.119.954.536 1.878 1.207 2.667.568.688 1.353 1.195 2.046 1.64l.081.053c1.342.81 2.2 2.019 2.355 3.32.006.045.01.09.013.135.016.198.033.422.21.625a.856.856 0 0 0 .855.297.855.855 0 0 0 .659-.6c.098-.313.155-.655.173-1.012.352.789.485 1.568.395 2.327v.013c-.007.123-.033.29-.073.483l-.005.02c-.05.214-.106.457-.049.714.104.57.59 1.02 1.16 1.07.108.008.218.011.326.014.16.004.312.008.47.031 2.074.2 3.42 1.66 3.692 4.007l.39-.01c.162-2.64-1.147-4.586-3.526-5.287 1.171-.779 2.152-1.696 2.917-2.728.293-.362.47-.784.64-1.193l.097-.227c.292-.714.51-1.474.645-2.26.334-1.845.136-3.748-.056-5.588-.095-.915-.186-1.787-.215-2.644.435 1.032 1.041 2.02 1.633 2.986.544.889 1.059 1.729 1.444 2.591 1.098 2.438.801 5.202.421 7.33-.078.351-.124.71-.167 1.058-.043.34-.087.692-.163 1.03-.29 1.418-.789 2.798-1.284 4.078l-.543 1.402.883-1.217c1.024-1.41 1.742-2.635 2.261-3.862l.12-.305c.237-.6.482-1.22.576-1.877l.112-.74c.255-1.804.301-3.209.151-4.55a10.185 10.185 0 0 0-.816-3.03c-.368-.879-.91-1.752-1.484-2.675-1.184-1.906-2.41-3.877-1.987-5.875A1.071 1.071 0 0 0 41.641.35a1.219 1.219 0 0 0-1.216-.292 1.133 1.133 0 0 0-.714.645l-.05.137c-.4 1.07-.601 2.304-.601 3.67-.004 1.17.118 2.31.236 3.412.186 1.746.362 3.396.07 5.11-.18.994-.45 1.812-.826 2.499-.102.18-.197.38-.3.628-.495 1.11-1.26 2.218-2.335 3.385a.076.076 0 0 1-.017-.002c.039-.11.078-.223.105-.331l.028-.134h.011l.023-.17c.22-1.675-.434-3.555-1.844-5.286-.642-.843-1.884-1.796-2.881-2.561a46.414 46.414 0 0 1-.833-.648l-.655-.527 1.192 2.56a8.356 8.356 0 0 0-.42-.282l-.248-.161c-.563-.365-1.095-.71-1.513-1.21-.561-.628-.869-1.478-.823-2.273.036-.63.293-1.173.741-1.572.466-.412.616-1.06.382-1.654a1.448 1.448 0 0 0-1.409-.94c-.485.029-.913.29-1.258.503-2.113 1.329-2.932 3.778-3.639 5.97l-.099-1.528-1.397 2.416c-.872 1.519-2.216 4.494-1.44 7.368.046.163.11.32.177.47-1.074-1.167-1.838-2.277-2.329-3.387a5.807 5.807 0 0 0-.298-.63c-.373-.688-.641-1.508-.82-2.503-.29-1.714-.114-3.362.072-5.107.117-1.103.24-2.244.236-3.417 0-1.365-.203-2.6-.602-3.668L16.314.75a1.146 1.146 0 0 0-.74-.693 1.227 1.227 0 0 0-1.214.3c-.288.288-.39.693-.27 1.085.42 1.997-.804 3.967-1.989 5.871-.574.925-1.117 1.798-1.482 2.672-.418.925-.701 1.975-.818 3.034-.151 1.344-.104 2.747.15 4.552 0 0 .106.698.113.736l-.007-.005ZM24.383 47.971c.377.635.925 1.06 1.455 1.47.054.04.106.082.16.123.175.45.415.904.71 1.353l.479.73-.124-.864c-.047-.333-.111-.658-.17-.972-.108-.554-.21-1.075-.229-1.62-.001-.108-.003-.22-.003-.333 0-.847 0-1.9-.809-2.534a1.573 1.573 0 0 0-1.176-.3c-.383.056-.719.25-.923.53l-.467.644.711-.353c.343-.17.694-.182.99-.035l.025.013-.381.251c-.699.462-.628 1.286-.248 1.898Zm.543-1.683.123-.447c.248.148.423.404.486.723.074.304.08.622.086.96.002.125.004.252.01.38a8.364 8.364 0 0 1-.412-.496c-.303-.376-.424-.64-.291-1.12h-.002Z"/>
    <path d="m38.495 24.818-.422.652c-.889 1.373-1.734 2.356-2.743 3.187-.235.198-.482.395-.72.585-.52.415-1.056.845-1.538 1.325-2.12 2.074-1.747 3.905-1.582 4.417l.238.739.141-.764c.06-.325.154-.634.287-.938 1.004.553 2.304.264 3.121-.345.931-.668 1.604-1.867 1.754-3.125a5.88 5.88 0 0 0-.012-1.558c.841-1.077 1.317-2.221 1.412-3.403l.062-.774.002.002Zm-2.787 5.543c-.21.514-.441.992-.754 1.433.087-.244.146-.564.173-.962l.068-.054c.176-.134.348-.274.512-.417h.001Zm-2.09 1.729c.325.274.62.363.877.263-.568.59-1.235.928-1.99 1.01.27-.42.626-.828 1.111-1.273h.001ZM48.431 20.465v-.621c-.002-.335-.004-.653-.12-1.004a1.033 1.033 0 0 0-.613-.665.897.897 0 0 0-.805.081c-.23.128-.4.404-.456.528-.185.388-.257.783-.32 1.189-.07.464-.144.839-.236 1.18-.225.846-.54 1.49-.966 1.973l-.025.035c-.376.688-.764 1.4-1.52 1.769l-.563.276.62.093c1.07.16 2.085-.515 2.756-1.036l.028-.028c.15-.174.292-.367.425-.574-.164 1.502-.61 3.189-1.96 4.485l-.03.04c-.443.72-1.017 1.396-1.566 2.028l-.435.499.635-.183a9.175 9.175 0 0 0 2.556-1.154c.124-.077.207-.182.282-.276l.238-.275c.894-1.014 2.082-2.871 2.075-7.274.004-.363.003-.725.002-1.084l-.002-.002ZM32 45.844l.712.353-.467-.642a1.383 1.383 0 0 0-.923-.53 1.57 1.57 0 0 0-1.18.302c-.805.632-.805 1.685-.807 2.532l-.001.33c-.02.547-.121 1.07-.228 1.622-.061.314-.124.64-.17.973l-.125.865.48-.731c.296-.45.534-.904.71-1.352l.159-.124c.53-.412 1.078-.836 1.454-1.468.38-.614.452-1.438-.247-1.9l-.381-.252.023-.012c.297-.147.648-.134.99.035l.002-.001Zm-.924.465c.03.159.06.309.05.423-.02.233-.159.422-.321.642l-.03.04a8.358 8.358 0 0 1-.408.492c.006-.129.008-.255.01-.38.007-.338.012-.657.086-.96l.003-.008c.063-.323.249-.59.516-.732l.094.484v-.001Z"/>
    <path d="M48.108 47.527c-.236-1.218-.905-2.292-1.53-3.185l-.011-.017a.371.371 0 0 0-.493-.105.37.37 0 0 0-.155.478l.007.016c.825 1.783 1.428 3.424.448 5.447-.924 1.828-2.751 3.368-4.767 4.02-2.854.904-6.014-1.738-7.66-3.414a20.444 20.444 0 0 0-.686-1.392.62.62 0 0 1 .155-.534c.121-.155.306-.325.52-.52.088-.08.178-.162.27-.248.09-.084.18-.177.265-.276.09.207.188.401.295.586.751 1.324 2.28 2.302 3.75 1.616l1.748-.637-1.783-.588c-.58-.195-1.136-.61-1.552-1.148.942.141 1.974-.095 2.843-.668.952-.603 1.671-1.47 2.366-2.308.168-.203.334-.404.504-.6l.392-.456-.585.139c-.156.036-.325.078-.5.12-.727.178-1.552.38-2.195.436-.01 0-.019.002-.028.004a7.934 7.934 0 0 0 2.245-3.667 7.371 7.371 0 0 0 .2-3.153l-.233-1.44c1.046-.308 2.19-.55 3.31-.788.593-.126 1.155-.244 1.688-.37l.8-.191-.8-.19c-.255-.062-.62-.16-1.047-.273-.788-.21-1.728-.462-2.385-.59a18.43 18.43 0 0 1 1.96-1.322l.038-.022c.198-.11.423-.236.533-.538a.851.851 0 0 0-.17-.885.87.87 0 0 0-.87-.265.743.743 0 0 1-.17.017c-.072.002-.154.005-.24.024l-.022.007c-.524.19-1.308.462-2.08.636l-.5.112.448.25c.165.092.348.177.559.256-.32.232-.636.473-.94.722a1.447 1.447 0 0 0-.426 1.737c-.94.267-1.726.562-2.418.912.473-1.017.864-2.179 1.188-3.532.102-.408.195-.853.269-1.216.128-.31.085-.665-.116-.956-.207-.3-.54-.469-.886-.45-.344.007-.657.197-.88.534-.438.575-.864 1.232-1.3 2.004-.708 1.273-1.346 2.671-1.952 4.275-.8 2.169-1.299 4.572-1.487 7.149a6.752 6.752 0 0 1-.256-.352c-.64-.957-1.184-2.707-1.53-4.006a.413.413 0 0 0-.463-.31.413.413 0 0 0-.368.42c.004 1.306.168 2.435.502 3.45.147.436.332.854.546 1.244.127.238.289.471.445.698.44.637.856 1.237.583 1.964-.116.35-.366.592-.657.872-.085.082-.17.164-.25.249-.314.31-.745.798-.87 1.425-.102.405.006.869.093 1.243.021.087.04.17.055.242.07.414-.038.869-.297 1.248-.227.337-.565.531-.924.737-.316.181-.643.369-.922.666-.32.337-.602.883-.43 1.402l.284.86.095-.902c.075-.693.667-.891 1.355-1.122.304-.101.619-.207.886-.363.38-.222.7-.523.94-.885 0 0 .909-.226 2 1.317 1.635 1.666 3.485 2.657 5.285 2.813 2.607.178 5.029-1.554 6.424-3.235 1.299-1.573 1.873-3.528 1.539-5.226v-.002Zm-11.831-9.68c.396-1.028.85-2.011 1.202-2.753a43.49 43.49 0 0 1 1.325-2.607c-.24 1.166-.586 2.493-1.135 3.76l-.013.017a5.584 5.584 0 0 0-.992 1.856l-.02.032c-.055.083-.11.168-.168.25l-.823 1.175a40.2 40.2 0 0 1 .624-1.73Zm-.654 1.82 1.142-1.006.043-.038c.084-.002.157-.06.219-.11l.089-.07.224-.156a7.61 7.61 0 0 1 .436-.272c.311-.173.607-.315.903-.434l.025-.009.02-.016a8.297 8.297 0 0 1 1.651-.966c.427-.188.892-.353 1.38-.503l-.119.17c-.186.27-.374.547-.562.827-.524.779-1.068 1.585-1.647 2.278-.121.125-.22.262-.317.393a2.91 2.91 0 0 1-.306.377c-.822.754-2.535 1.544-3.828 1.578.223-.729.434-1.4.65-2.043h-.003Zm-.99 3.172c.069-.227.138-.453.205-.679 1.49.29 3.851-.319 4.994-1.316l.215-.197c.194-.175.385-.43.553-.652.064-.085.125-.165.185-.24l.075-.099a6.167 6.167 0 0 1-.141.614c-.438 1.551-1.444 2.915-2.755 3.74a.872.872 0 0 0-.404.925.865.865 0 0 0 .715.702l.022.003c.356.017.726.013 1.106-.013-.768.586-1.52.82-2.282.71a2.088 2.088 0 0 1-.726-.25.888.888 0 0 0-1.064.28.875.875 0 0 0-.13.805c.052.144.12.3.202.466.172.334.381.649.62.936a3.744 3.744 0 0 1-.704-.596 5.794 5.794 0 0 1-.507-.632c.13-.205.23-.411.294-.608.276-.793.197-1.734-.201-2.45a5.138 5.138 0 0 0-.485-.729l.216-.717-.002-.003ZM21.55 52.737s.812-1.532 1.67-.764c.13.118.223.226.286.327.17.17.36.318.573.442.268.156.582.262.886.364.688.23 1.282.43 1.356 1.122l.096.9.284-.858c.172-.518-.109-1.064-.43-1.402-.28-.298-.607-.486-.923-.667-.358-.206-.698-.398-.925-.738-.258-.378-.366-.833-.297-1.24.016-.076.034-.158.055-.245.087-.374.196-.84.096-1.235-.124-.63-.53-1.097-.868-1.432-.083-.087-.169-.17-.254-.252-.29-.28-.54-.522-.658-.877-.28-.75.174-1.383.654-2.051l.015-.02c.372-.54.688-1.172.91-1.83.222-.677.363-1.722.417-3.104a.415.415 0 0 0-.362-.435.416.416 0 0 0-.469.315c-.357 1.438-.74 2.613-1.445 3.67a6.897 6.897 0 0 1-.256.351 27.504 27.504 0 0 0-.992-5.65c-.254-.885-.596-1.823-1.074-2.95-.722-1.691-1.423-3.019-2.21-4.184a18.243 18.243 0 0 1-.142-.204c-.16-.229-.325-.467-.523-.686-.33-.344-.946-.384-1.323-.089-.36.242-.522.783-.358 1.195.076.366.168.817.27 1.224.327 1.36.719 2.525 1.193 3.542a13.283 13.283 0 0 0-2.42-.923 1.411 1.411 0 0 0-.04-1.273 1.519 1.519 0 0 0-.416-.486c-.23-.185-.43-.341-.605-.473a7.416 7.416 0 0 0 1.307-.477l.501-.246-.545-.12c-.464-.101-.97-.244-1.46-.381a87.761 87.761 0 0 0-.647-.18l-.018-.005a.997.997 0 0 0-.344-.056c-.369.02-.774-.028-1.102-.067a.883.883 0 0 0-1.044.525c-.164.41-.004.859.392 1.088.74.422 1.458.9 2.14 1.427-.696.136-1.668.396-2.478.612-.382.101-.712.19-.957.25l-.785.193.787.186a73.07 73.07 0 0 0 1.693.373c1.118.237 2.262.479 3.304.786l-.232 1.44a7.374 7.374 0 0 0 .2 3.152 7.934 7.934 0 0 0 2.244 3.668c-.012 0-.023-.003-.035-.004-.64-.056-1.462-.257-2.187-.434a83.725 83.725 0 0 0-.5-.121l-.586-.138.393.454c.165.192.33.39.493.59.698.842 1.42 1.714 2.372 2.317.872.574 1.902.811 2.846.67-.416.536-.972.952-1.55 1.147l-1.785.589 1.142.417c.304.11.486.177.6.208l-.003.008c1.472.694 3.004-.284 3.757-1.609a5.53 5.53 0 0 0 .296-.589c.086.098.174.192.265.275l.27.249c.215.195.4.365.522.521.146.182.183.311.153.549-.035.152-.06.312-.074.476a6.99 6.99 0 0 0-.391.671c-3.911 4.101-6.617 4.044-7.88 3.644-2.017-.653-3.845-2.194-4.767-4.018-.98-2.025-.378-3.667.447-5.452l.006-.014a.37.37 0 0 0-.153-.482.37.37 0 0 0-.493.107l-.012.017c-.624.892-1.293 1.968-1.529 3.184-.336 1.7.238 3.654 1.539 5.227 1.396 1.68 3.816 3.411 6.427 3.234 1.936-.167 3.977-1.34 5.693-3.252l-.004.007Zm-3.032-17.643c.351.741.806 1.724 1.203 2.754.22.565.425 1.136.624 1.73l-.823-1.175a10.372 10.372 0 0 1-.195-.292l-.007-.01a5.385 5.385 0 0 0-.938-1.729c-.58-1.304-.94-2.678-1.188-3.885.5.897.942 1.802 1.325 2.607h-.001Zm-4.155 1.165-.118-.171c.487.15.95.314 1.377.502.49.224 1.006.48 1.44.835l.023.017.026.01c.58.246 1.327.6 1.981 1.149l.46.387-.014-.06.839.737c.215.642.426 1.315.647 2.042-1.22-.042-2.601-.693-3.45-1.27-.141-.1-.264-.2-.364-.297a2.747 2.747 0 0 1-.313-.382 3.552 3.552 0 0 0-.314-.391c-.585-.697-1.13-1.505-1.656-2.286a82.813 82.813 0 0 0-.561-.826l-.003.004Zm6.734 8.024a3.087 3.087 0 0 0-.204 2.448c.065.2.164.408.295.615-.265.375-.684.88-1.212 1.227.24-.288.45-.603.623-.939.08-.16.148-.316.201-.465a.868.868 0 0 0-.126-.797.887.887 0 0 0-1.079-.282 2.087 2.087 0 0 1-.716.246c-.764.11-1.516-.123-2.284-.71.38.025.75.03 1.106.014l.022-.003a.865.865 0 0 0 .715-.702.871.871 0 0 0-.4-.922c-1.315-.826-2.321-2.19-2.759-3.743a6.2 6.2 0 0 1-.14-.614l.078.103c.348.47.728.959 1.236 1.317 1.116.762 3.192 1.37 4.707 1.09l.213.708.207.685a5.152 5.152 0 0 0-.483.727v-.003Z"/>
  </g>
  <defs>
    <clipPath id="a">
      <path fill="#fff" d="M7.566 0h40.866v56H7.566z"/>
    </clipPath>
  </defs>
</svg>